<svg width="391" height="592" viewBox="0 0 391 592" fill="none" xmlns="http://www.w3.org/2000/svg">
<g filter="url(#filter0_d)">
<g clip-path="url(#clip0)">
<path d="M11 22.324C11 12.7562 18.7562 5 28.3239 5H362.676C372.244 5 380 12.7562 380 22.3239V557.676C380 567.244 372.244 575 362.676 575H28.3239C18.7562 575 11 567.244 11 557.676V22.324Z" fill="white"/>
<path d="M65.9605 36.6857L74.8526 64.7734H79.9338V72H59.0162V64.7734H64.4644L62.4319 57.5468H51.3944L49.1361 64.7734H54.8101V72H36.0097V64.7734H41.2603L49.5313 36.6857H43.8573V29.4591H71.691V36.6857H65.9605ZM57.0967 38.4077L53.2858 51.2518H60.6817L57.0967 38.4077Z" fill="#1A1616"/>
<path fill-rule="evenodd" clip-rule="evenodd" d="M59.584 97.4819C59.584 95.1031 61.5428 92 63.959 92C66.3753 92 68.334 93.9284 68.334 96.3072C68.334 99.1363 64.8595 102.703 62.0956 105.54C61.1748 106.485 60.3328 107.35 59.7245 108.079C60.504 107.694 61.4116 107.185 62.3906 106.637C65.8464 104.702 70.1909 102.269 72.9236 103.001C75.2213 103.617 76.5771 106.008 75.9517 108.342C75.3263 110.676 71.822 111.765 69.5242 111.149C71.822 111.765 74.3124 114.46 73.687 116.794C73.0617 119.127 70.692 120.52 68.3942 119.905C65.6616 119.172 63.1157 114.893 61.0905 111.489C60.73 110.883 60.3861 110.305 60.0605 109.78C60.4196 111.832 60.6176 113.865 60.8083 115.823C61.295 120.82 61.7331 125.319 64.6788 128.347C65.9884 129.693 62.4746 131.039 59.5841 131.039C56.713 131.039 53.1627 129.693 54.4723 128.347C57.8083 124.917 58.3108 119.441 58.8211 113.877C58.9552 112.415 59.0899 110.947 59.2767 109.509C58.9018 110.104 58.5011 110.777 58.0776 111.489C56.0524 114.893 53.5065 119.172 50.7738 119.905C48.4761 120.52 46.1064 119.127 45.4811 116.794C44.8557 114.46 47.3461 111.765 49.6439 111.149C47.3461 111.765 43.8418 110.676 43.2164 108.342C42.591 106.008 43.9468 103.617 46.2445 103.001C48.9772 102.269 53.3217 104.702 56.7775 106.637C57.7565 107.185 58.6641 107.694 59.4436 108.079C58.8353 107.35 57.9933 106.486 57.0725 105.54L57.0725 105.54C54.3086 102.703 50.834 99.1363 50.834 96.3072C50.834 93.9284 52.7928 92 55.209 92C57.6253 92 59.584 95.1031 59.584 97.4819Z" fill="#453B3B"/>
<path d="M58.584 97.4819C58.584 98.0342 59.0318 98.4819 59.584 98.4819C60.1363 98.4819 60.584 98.0342 60.584 97.4819H58.584ZM62.0956 105.54L61.3793 104.842L62.0956 105.54ZM59.7245 108.079L58.9567 107.438C58.6539 107.801 58.6465 108.326 58.9389 108.698C59.2314 109.069 59.7438 109.185 60.1675 108.975L59.7245 108.079ZM62.3906 106.637L62.8792 107.51L62.3906 106.637ZM72.9236 103.001L72.6648 103.967L72.9236 103.001ZM75.9517 108.342L74.9858 108.083L75.9517 108.342ZM69.7831 110.183C69.2496 110.04 68.7013 110.357 68.5583 110.89C68.4154 111.423 68.732 111.972 69.2654 112.115L69.7831 110.183ZM73.687 116.794L74.653 117.052L73.687 116.794ZM68.3942 119.905L68.1354 120.871L68.3942 119.905ZM61.0905 111.489L61.9499 110.978L61.0905 111.489ZM60.0605 109.78L60.9106 109.253C60.6582 108.846 60.1523 108.675 59.7045 108.845C59.2567 109.016 58.9929 109.48 59.0755 109.952L60.0605 109.78ZM60.8083 115.823L59.813 115.919L60.8083 115.823ZM64.6788 128.347L65.3955 127.649L64.6788 128.347ZM54.4723 128.347L53.7555 127.649L54.4723 128.347ZM58.8211 113.877L57.8253 113.786L58.8211 113.877ZM59.2767 109.509L60.2684 109.638C60.3288 109.172 60.0573 108.727 59.6156 108.568C59.1739 108.409 58.681 108.579 58.4307 108.976L59.2767 109.509ZM58.0776 111.489L57.2182 110.978L58.0776 111.489ZM50.7738 119.905L51.0327 120.871H51.0327L50.7738 119.905ZM45.4811 116.794L46.447 116.535L45.4811 116.794ZM49.9027 112.115C50.4361 111.972 50.7527 111.423 50.6098 110.89C50.4668 110.357 49.9185 110.04 49.385 110.183L49.9027 112.115ZM43.2164 108.342L44.1823 108.083H44.1823L43.2164 108.342ZM46.2445 103.001L46.5033 103.967H46.5033L46.2445 103.001ZM56.7775 106.637L57.2662 105.765L56.7775 106.637ZM59.4436 108.079L59.0006 108.975C59.4243 109.185 59.9367 109.069 60.2292 108.698C60.5216 108.326 60.5142 107.801 60.2114 107.438L59.4436 108.079ZM57.0725 105.54L56.3326 106.213C56.3403 106.221 56.3482 106.23 56.3562 106.238L57.0725 105.54ZM57.0725 105.54L57.8124 104.868C57.8047 104.859 57.7968 104.851 57.7888 104.842L57.0725 105.54ZM63.959 91C62.3083 91 60.9518 92.0475 60.0608 93.2552C59.1615 94.4741 58.584 96.0485 58.584 97.4819H60.584C60.584 96.5366 60.986 95.3699 61.6702 94.4426C62.3626 93.504 63.1936 93 63.959 93V91ZM69.334 96.3072C69.334 93.3615 66.9128 91 63.959 91V93C65.8378 93 67.334 94.4954 67.334 96.3072H69.334ZM62.8119 106.238C64.1844 104.829 65.7897 103.183 67.0479 101.525C68.2752 99.9078 69.334 98.0775 69.334 96.3072H67.334C67.334 97.3661 66.6556 98.7336 65.4547 100.316C64.2847 101.858 62.7707 103.414 61.3793 104.842L62.8119 106.238ZM60.4924 108.719C61.0705 108.027 61.8813 107.193 62.8119 106.238L61.3793 104.842C60.4682 105.778 59.5952 106.673 58.9567 107.438L60.4924 108.719ZM61.9019 105.765C60.9159 106.317 60.033 106.811 59.2816 107.182L60.1675 108.975C60.975 108.576 61.9074 108.054 62.8792 107.51L61.9019 105.765ZM73.1824 102.035C71.4725 101.577 69.4304 102.126 67.5505 102.893C65.6233 103.679 63.6181 104.804 61.9019 105.765L62.8792 107.51C64.6189 106.535 66.5139 105.476 68.306 104.745C70.1455 103.994 71.642 103.693 72.6648 103.967L73.1824 102.035ZM76.9176 108.601C77.6821 105.747 76.0278 102.797 73.1824 102.035L72.6648 103.967C74.4149 104.436 75.472 106.268 74.9858 108.083L76.9176 108.601ZM69.2654 112.115C70.65 112.486 72.3202 112.335 73.7303 111.782C75.1275 111.234 76.4904 110.195 76.9176 108.601L74.9858 108.083C74.7877 108.822 74.0857 109.495 72.9999 109.92C71.9271 110.341 70.6962 110.428 69.7831 110.183L69.2654 112.115ZM74.653 117.052C75.0802 115.458 74.4195 113.876 73.4835 112.703C72.5389 111.519 71.1677 110.554 69.7831 110.183L69.2654 112.115C70.1786 112.359 71.2014 113.05 71.9201 113.95C72.6475 114.862 72.9192 115.795 72.7211 116.535L74.653 117.052ZM68.1354 120.871C70.9808 121.633 73.8885 119.906 74.653 117.052L72.7211 116.535C72.2349 118.349 70.4032 119.408 68.6531 118.939L68.1354 120.871ZM60.2311 112C61.2368 113.691 62.411 115.667 63.687 117.312C64.9316 118.916 66.4255 120.412 68.1354 120.871L68.6531 118.939C67.6303 118.665 66.485 117.655 65.2671 116.086C64.0806 114.557 62.9694 112.692 61.9499 110.978L60.2311 112ZM59.2105 110.306C59.5304 110.823 59.8695 111.393 60.2311 112L61.9499 110.978C61.5905 110.374 61.2418 109.788 60.9106 109.253L59.2105 110.306ZM61.8035 115.726C61.6135 113.774 61.4122 111.703 61.0455 109.607L59.0755 109.952C59.4269 111.96 59.6218 113.957 59.813 115.919L61.8035 115.726ZM65.3955 127.649C64.0856 126.303 63.3033 124.602 62.7908 122.578C62.2743 120.537 62.0487 118.243 61.8035 115.726L59.813 115.919C60.0545 118.4 60.2913 120.854 60.852 123.069C61.4167 125.3 62.3262 127.362 63.962 129.044L65.3955 127.649ZM59.5841 132.039C61.1529 132.039 62.9027 131.679 64.1312 131.103C64.7188 130.827 65.3503 130.428 65.6979 129.852C65.8878 129.537 66.0066 129.144 65.9444 128.708C65.8834 128.279 65.6646 127.926 65.3955 127.649L63.962 129.044C64.0204 129.104 63.9783 129.087 63.9644 128.99C63.9494 128.885 63.986 128.818 63.9856 128.818C63.9522 128.874 63.7702 129.063 63.2818 129.292C62.3581 129.725 60.9057 130.039 59.5841 130.039V132.039ZM53.7555 127.649C53.4856 127.927 53.2663 128.282 53.2074 128.713C53.1474 129.152 53.2704 129.545 53.4624 129.858C53.8137 130.431 54.4478 130.829 55.0379 131.104C56.2713 131.679 58.0242 132.039 59.5841 132.039V130.039C58.2728 130.039 56.8151 129.726 55.883 129.291C55.3902 129.061 55.2029 128.87 55.1672 128.812C55.1656 128.81 55.2036 128.877 55.1889 128.984C55.1753 129.084 55.1316 129.103 55.1891 129.044L53.7555 127.649ZM57.8253 113.786C57.5686 116.584 57.3204 119.268 56.7347 121.676C56.1511 124.075 55.2519 126.111 53.7555 127.649L55.1891 129.044C57.0287 127.153 58.0488 124.736 58.678 122.149C59.3051 119.57 59.5633 116.734 59.8169 113.969L57.8253 113.786ZM58.285 109.38C58.0954 110.84 57.9591 112.327 57.8253 113.786L59.8169 113.969C59.9514 112.503 60.0844 111.054 60.2684 109.638L58.285 109.38ZM58.937 112C59.3622 111.286 59.756 110.624 60.1227 110.042L58.4307 108.976C58.0476 109.584 57.64 110.269 57.2182 110.978L58.937 112ZM51.0327 120.871C52.7426 120.412 54.2365 118.916 55.4811 117.312C56.7571 115.667 57.9313 113.691 58.937 112L57.2182 110.978C56.1987 112.692 55.0875 114.557 53.901 116.086C52.6831 117.655 51.5378 118.665 50.515 118.939L51.0327 120.871ZM44.5151 117.052C45.2796 119.906 48.1873 121.633 51.0327 120.871L50.515 118.939C48.7649 119.408 46.9332 118.349 46.447 116.535L44.5151 117.052ZM49.385 110.183C48.0004 110.554 46.6292 111.519 45.6846 112.703C44.7486 113.876 44.0879 115.458 44.5151 117.052L46.447 116.535C46.2489 115.795 46.5206 114.862 47.248 113.95C47.9667 113.05 48.9895 112.359 49.9027 112.115L49.385 110.183ZM42.2505 108.601C42.6777 110.195 44.0406 111.234 45.4378 111.782C46.8479 112.335 48.5181 112.486 49.9027 112.115L49.385 110.183C48.4719 110.428 47.241 110.341 46.1682 109.92C45.0824 109.495 44.3804 108.822 44.1823 108.083L42.2505 108.601ZM45.9857 102.035C43.1403 102.797 41.486 105.747 42.2505 108.601L44.1823 108.083C43.6961 106.268 44.7532 104.436 46.5033 103.967L45.9857 102.035ZM57.2662 105.765C55.55 104.804 53.5448 103.679 51.6176 102.893C49.7377 102.126 47.6956 101.577 45.9857 102.035L46.5033 103.967C47.5261 103.693 49.0226 103.994 50.8621 104.745C52.6542 105.476 54.5492 106.535 56.2889 107.51L57.2662 105.765ZM59.8865 107.182C59.1351 106.811 58.2522 106.317 57.2662 105.765L56.2889 107.51C57.2607 108.054 58.1931 108.576 59.0006 108.975L59.8865 107.182ZM56.3562 106.238C57.2868 107.193 58.0976 108.027 58.6757 108.719L60.2114 107.438C59.5729 106.673 58.6999 105.778 57.7888 104.842L56.3562 106.238ZM56.3326 106.213L56.3326 106.213L57.8125 104.868L57.8124 104.868L56.3326 106.213ZM49.834 96.3072C49.834 98.0775 50.8929 99.9078 52.1202 101.525C53.3784 103.183 54.9837 104.829 56.3562 106.238L57.7888 104.842C56.3974 103.414 54.8834 101.858 53.7134 100.316C52.5125 98.7336 51.834 97.3661 51.834 96.3072H49.834ZM55.209 91C52.2553 91 49.834 93.3615 49.834 96.3072H51.834C51.834 94.4954 53.3303 93 55.209 93V91ZM60.584 97.4819C60.584 96.0485 60.0066 94.4741 59.1073 93.2552C58.2163 92.0475 56.8598 91 55.209 91V93C55.9745 93 56.8055 93.504 57.4979 94.4426C58.1821 95.3699 58.584 96.5366 58.584 97.4819H60.584Z" fill="#453B3B"/>
<path d="M326.039 543.314L317.147 515.227H312.066V508H332.984V515.227H327.536L329.568 522.453H340.606L342.864 515.227H337.19V508H355.99V515.227H350.74L342.469 543.314H348.143V550.541H320.309V543.314H326.039ZM334.903 541.592L338.714 528.748H331.318L334.903 541.592Z" fill="#1A1616"/>
<path fill-rule="evenodd" clip-rule="evenodd" d="M332.416 482.518C332.416 484.897 330.457 488 328.041 488C325.625 488 323.666 486.072 323.666 483.693C323.666 480.864 327.14 477.297 329.904 474.46C330.825 473.515 331.667 472.65 332.275 471.921C331.496 472.306 330.588 472.815 329.609 473.363C326.154 475.298 321.809 477.731 319.076 476.999C316.779 476.383 315.423 473.992 316.048 471.658C316.674 469.324 320.178 468.235 322.476 468.851C320.178 468.235 317.688 465.54 318.313 463.206C318.938 460.873 321.308 459.48 323.606 460.095C326.338 460.828 328.884 465.107 330.91 468.511C331.27 469.117 331.614 469.695 331.939 470.22C331.58 468.168 331.382 466.135 331.192 464.177C330.705 459.18 330.267 454.681 327.321 451.653C326.012 450.307 329.525 448.961 332.416 448.961C335.287 448.961 338.837 450.307 337.528 451.653C334.192 455.083 333.689 460.559 333.179 466.123C333.045 467.585 332.91 469.053 332.723 470.491C333.098 469.896 333.499 469.223 333.922 468.511C335.948 465.107 338.493 460.828 341.226 460.095C343.524 459.48 345.894 460.873 346.519 463.206C347.144 465.54 344.654 468.235 342.356 468.851C344.654 468.235 348.158 469.324 348.784 471.658C349.409 473.992 348.053 476.383 345.755 476.999C343.023 477.731 338.678 475.298 335.222 473.363C334.244 472.815 333.336 472.306 332.556 471.921C333.165 472.65 334.007 473.514 334.927 474.46L334.928 474.46C337.691 477.297 341.166 480.864 341.166 483.693C341.166 486.072 339.207 488 336.791 488C334.375 488 332.416 484.897 332.416 482.518Z" fill="#453B3B"/>
<path d="M333.416 482.518C333.416 481.966 332.968 481.518 332.416 481.518C331.864 481.518 331.416 481.966 331.416 482.518H333.416ZM329.904 474.46L330.621 475.158L329.904 474.46ZM332.275 471.921L333.043 472.562C333.346 472.199 333.353 471.674 333.061 471.302C332.769 470.931 332.256 470.815 331.833 471.025L332.275 471.921ZM329.609 473.363L329.121 472.49L329.609 473.363ZM319.076 476.999L319.335 476.033L319.076 476.999ZM316.048 471.658L317.014 471.917L316.048 471.658ZM322.217 469.817C322.75 469.96 323.299 469.643 323.442 469.11C323.585 468.577 323.268 468.028 322.735 467.885L322.217 469.817ZM318.313 463.206L317.347 462.948L318.313 463.206ZM323.606 460.095L323.865 459.129L323.606 460.095ZM330.91 468.511L330.05 469.022L330.91 468.511ZM331.939 470.22L331.089 470.747C331.342 471.154 331.848 471.325 332.295 471.155C332.743 470.984 333.007 470.52 332.925 470.048L331.939 470.22ZM331.192 464.177L332.187 464.081L331.192 464.177ZM327.321 451.653L326.604 452.351L327.321 451.653ZM337.528 451.653L338.244 452.351L337.528 451.653ZM333.179 466.123L334.175 466.214L333.179 466.123ZM332.723 470.491L331.732 470.362C331.671 470.828 331.943 471.273 332.384 471.432C332.826 471.591 333.319 471.421 333.569 471.024L332.723 470.491ZM333.922 468.511L334.782 469.022L333.922 468.511ZM341.226 460.095L340.967 459.129H340.967L341.226 460.095ZM346.519 463.206L345.553 463.465L346.519 463.206ZM342.097 467.885C341.564 468.028 341.247 468.577 341.39 469.11C341.533 469.643 342.082 469.96 342.615 469.817L342.097 467.885ZM348.784 471.658L347.818 471.917H347.818L348.784 471.658ZM345.755 476.999L345.497 476.033H345.497L345.755 476.999ZM335.222 473.363L334.734 474.235L335.222 473.363ZM332.556 471.921L332.999 471.025C332.576 470.815 332.063 470.931 331.771 471.302C331.478 471.674 331.486 472.199 331.789 472.562L332.556 471.921ZM334.927 474.46L335.667 473.787C335.66 473.779 335.652 473.77 335.644 473.762L334.927 474.46ZM334.928 474.46L334.188 475.132C334.195 475.141 334.203 475.149 334.211 475.158L334.928 474.46ZM328.041 489C329.692 489 331.048 487.952 331.939 486.745C332.839 485.526 333.416 483.952 333.416 482.518H331.416C331.416 483.463 331.014 484.63 330.33 485.557C329.637 486.496 328.806 487 328.041 487V489ZM322.666 483.693C322.666 486.639 325.087 489 328.041 489V487C326.162 487 324.666 485.505 324.666 483.693H322.666ZM329.188 473.762C327.816 475.171 326.21 476.817 324.952 478.475C323.725 480.092 322.666 481.923 322.666 483.693H324.666C324.666 482.634 325.344 481.266 326.545 479.684C327.715 478.142 329.229 476.586 330.621 475.158L329.188 473.762ZM331.508 471.281C330.93 471.973 330.119 472.807 329.188 473.762L330.621 475.158C331.532 474.222 332.405 473.327 333.043 472.562L331.508 471.281ZM330.098 474.235C331.084 473.683 331.967 473.189 332.718 472.818L331.833 471.025C331.025 471.424 330.093 471.946 329.121 472.49L330.098 474.235ZM318.818 477.965C320.528 478.423 322.57 477.874 324.449 477.107C326.377 476.321 328.382 475.196 330.098 474.235L329.121 472.49C327.381 473.465 325.486 474.524 323.694 475.255C321.855 476.006 320.358 476.307 319.335 476.033L318.818 477.965ZM315.082 471.399C314.318 474.253 315.972 477.203 318.818 477.965L319.335 476.033C317.585 475.564 316.528 473.732 317.014 471.917L315.082 471.399ZM322.735 467.885C321.35 467.514 319.68 467.665 318.27 468.218C316.873 468.766 315.51 469.805 315.082 471.399L317.014 471.917C317.212 471.178 317.914 470.505 319 470.08C320.073 469.659 321.304 469.572 322.217 469.817L322.735 467.885ZM317.347 462.948C316.92 464.542 317.581 466.124 318.516 467.297C319.461 468.481 320.832 469.446 322.217 469.817L322.735 467.885C321.821 467.641 320.799 466.95 320.08 466.05C319.353 465.138 319.081 464.205 319.279 463.465L317.347 462.948ZM323.865 459.129C321.019 458.367 318.112 460.094 317.347 462.948L319.279 463.465C319.765 461.651 321.597 460.592 323.347 461.061L323.865 459.129ZM331.769 468C330.763 466.309 329.589 464.333 328.313 462.688C327.068 461.084 325.574 459.588 323.865 459.129L323.347 461.061C324.37 461.335 325.515 462.345 326.733 463.914C327.919 465.443 329.031 467.308 330.05 469.022L331.769 468ZM332.79 469.694C332.47 469.177 332.13 468.607 331.769 468L330.05 469.022C330.409 469.626 330.758 470.212 331.089 470.747L332.79 469.694ZM330.196 464.274C330.387 466.226 330.588 468.297 330.954 470.393L332.925 470.048C332.573 468.04 332.378 466.043 332.187 464.081L330.196 464.274ZM326.604 452.351C327.914 453.697 328.697 455.398 329.209 457.422C329.726 459.463 329.951 461.757 330.196 464.274L332.187 464.081C331.945 461.6 331.709 459.146 331.148 456.931C330.583 454.7 329.674 452.638 328.038 450.956L326.604 452.351ZM332.416 447.961C330.847 447.961 329.097 448.321 327.869 448.897C327.281 449.173 326.65 449.572 326.302 450.148C326.112 450.463 325.993 450.856 326.056 451.292C326.117 451.721 326.335 452.074 326.604 452.351L328.038 450.956C327.98 450.896 328.022 450.913 328.036 451.01C328.051 451.115 328.014 451.182 328.014 451.182C328.048 451.126 328.23 450.937 328.718 450.708C329.642 450.275 331.094 449.961 332.416 449.961V447.961ZM338.244 452.351C338.514 452.073 338.734 451.718 338.793 451.287C338.853 450.848 338.73 450.455 338.538 450.142C338.186 449.569 337.552 449.171 336.962 448.896C335.729 448.321 333.976 447.961 332.416 447.961V449.961C333.727 449.961 335.185 450.274 336.117 450.709C336.61 450.939 336.797 451.13 336.833 451.188C336.834 451.19 336.796 451.123 336.811 451.016C336.825 450.916 336.868 450.897 336.811 450.956L338.244 452.351ZM334.175 466.214C334.431 463.416 334.68 460.732 335.265 458.324C335.849 455.925 336.748 453.889 338.244 452.351L336.811 450.956C334.971 452.847 333.951 455.264 333.322 457.851C332.695 460.43 332.437 463.266 332.183 466.031L334.175 466.214ZM333.715 470.62C333.905 469.16 334.041 467.673 334.175 466.214L332.183 466.031C332.049 467.497 331.916 468.946 331.732 470.362L333.715 470.62ZM333.063 468C332.638 468.714 332.244 469.376 331.877 469.958L333.569 471.024C333.952 470.416 334.36 469.731 334.782 469.022L333.063 468ZM340.967 459.129C339.257 459.588 337.763 461.084 336.519 462.688C335.243 464.333 334.069 466.309 333.063 468L334.782 469.022C335.801 467.308 336.913 465.443 338.099 463.914C339.317 462.345 340.462 461.335 341.485 461.061L340.967 459.129ZM347.485 462.948C346.72 460.094 343.813 458.367 340.967 459.129L341.485 461.061C343.235 460.592 345.067 461.651 345.553 463.465L347.485 462.948ZM342.615 469.817C344 469.446 345.371 468.481 346.315 467.297C347.251 466.124 347.912 464.542 347.485 462.948L345.553 463.465C345.751 464.205 345.479 465.138 344.752 466.05C344.033 466.95 343.01 467.641 342.097 467.885L342.615 469.817ZM349.75 471.399C349.322 469.805 347.959 468.766 346.562 468.218C345.152 467.665 343.482 467.514 342.097 467.885L342.615 469.817C343.528 469.572 344.759 469.659 345.832 470.08C346.918 470.505 347.62 471.178 347.818 471.917L349.75 471.399ZM346.014 477.965C348.86 477.203 350.514 474.253 349.75 471.399L347.818 471.917C348.304 473.732 347.247 475.564 345.497 476.033L346.014 477.965ZM334.734 474.235C336.45 475.196 338.455 476.321 340.382 477.107C342.262 477.874 344.304 478.423 346.014 477.965L345.497 476.033C344.474 476.307 342.977 476.006 341.138 475.255C339.346 474.524 337.451 473.465 335.711 472.49L334.734 474.235ZM332.113 472.818C332.865 473.189 333.748 473.683 334.734 474.235L335.711 472.49C334.739 471.946 333.807 471.424 332.999 471.025L332.113 472.818ZM335.644 473.762C334.713 472.807 333.902 471.973 333.324 471.281L331.789 472.562C332.427 473.327 333.3 474.222 334.211 475.158L335.644 473.762ZM335.667 473.787L335.667 473.787L334.188 475.132L334.188 475.132L335.667 473.787ZM342.166 483.693C342.166 481.923 341.107 480.092 339.88 478.475C338.622 476.817 337.016 475.171 335.644 473.762L334.211 475.158C335.603 476.586 337.117 478.142 338.287 479.684C339.488 481.266 340.166 482.634 340.166 483.693H342.166ZM336.791 489C339.745 489 342.166 486.639 342.166 483.693H340.166C340.166 485.505 338.67 487 336.791 487V489ZM331.416 482.518C331.416 483.952 331.993 485.526 332.893 486.745C333.784 487.952 335.14 489 336.791 489V487C336.025 487 335.194 486.496 334.502 485.557C333.818 484.63 333.416 483.463 333.416 482.518H331.416Z" fill="#453B3B"/>
</g>
<path d="M28.3239 6H362.676V4H28.3239V6ZM379 22.3239V557.676H381V22.3239H379ZM362.676 574H28.3239V576H362.676V574ZM12 557.676V22.324H10V557.676H12ZM28.3239 574C19.3085 574 12 566.692 12 557.676H10C10 567.796 18.2039 576 28.3239 576V574ZM379 557.676C379 566.691 371.692 574 362.676 574V576C372.796 576 381 567.796 381 557.676H379ZM362.676 6C371.692 6 379 13.3085 379 22.3239H381C381 12.2039 372.796 4 362.676 4V6ZM28.3239 4C18.2039 4 10 12.2039 10 22.324H12C12 13.3085 19.3085 6 28.3239 6V4Z" fill="#D9D8D8"/>
</g>
<path fill-rule="evenodd" clip-rule="evenodd" d="M197.283 233.459C197.283 224.116 204.94 211.928 214.385 211.928C223.83 211.928 231.487 219.502 231.487 228.845C231.487 239.957 217.905 253.966 207.101 265.11C203.501 268.822 200.21 272.217 197.832 275.08C200.879 273.568 204.427 271.571 208.254 269.418C221.763 261.817 238.746 252.26 249.428 255.136C258.41 257.555 263.71 266.946 261.266 276.113C258.821 285.28 245.122 289.557 236.14 287.139C245.122 289.557 254.857 300.143 252.413 309.31C249.968 318.476 240.705 323.947 231.723 321.529C221.04 318.653 211.088 301.845 203.172 288.475C201.763 286.096 200.418 283.825 199.145 281.761C200.549 289.82 201.323 297.808 202.068 305.495C203.971 325.124 205.684 342.794 217.199 354.686C222.318 359.973 208.582 365.26 197.283 365.26C186.06 365.26 172.181 359.973 177.301 354.686C190.341 341.218 192.305 319.706 194.3 297.855C194.825 292.113 195.351 286.347 196.081 280.698C194.616 283.034 193.049 285.68 191.394 288.475C183.477 301.845 173.525 318.653 162.843 321.529C153.861 323.947 144.598 318.476 142.153 309.31C139.708 300.143 149.444 289.557 158.426 287.139C149.444 289.557 135.745 285.28 133.3 276.113C130.856 266.946 136.155 257.555 145.137 255.136C155.82 252.26 172.803 261.817 186.312 269.418C190.139 271.571 193.686 273.568 196.733 275.08C194.356 272.217 191.064 268.822 187.465 265.11L187.465 265.11C176.661 253.966 163.078 239.957 163.078 228.845C163.078 219.502 170.735 211.928 180.181 211.928C189.626 211.928 197.283 224.116 197.283 233.459Z" fill="#453B3B"/>
<path d="M196.283 233.459C196.283 234.011 196.731 234.459 197.283 234.459C197.835 234.459 198.283 234.011 198.283 233.459H196.283ZM207.101 265.11L206.383 264.414L206.383 264.414L207.101 265.11ZM197.832 275.08L197.063 274.441C196.761 274.805 196.755 275.33 197.048 275.701C197.341 276.071 197.854 276.186 198.277 275.976L197.832 275.08ZM208.254 269.418L207.763 268.547L207.763 268.547L208.254 269.418ZM249.428 255.136L249.688 254.171L249.688 254.171L249.428 255.136ZM261.266 276.113L262.232 276.371L262.232 276.371L261.266 276.113ZM236.4 286.173C235.867 286.029 235.318 286.345 235.174 286.879C235.031 287.412 235.347 287.961 235.88 288.104L236.4 286.173ZM252.413 309.31L251.447 309.052L251.447 309.052L252.413 309.31ZM231.723 321.529L231.983 320.564L231.983 320.564L231.723 321.529ZM203.172 288.475L202.311 288.985L202.311 288.985L203.172 288.475ZM199.145 281.761L199.997 281.236C199.745 280.828 199.239 280.656 198.791 280.826C198.343 280.996 198.078 281.46 198.16 281.933L199.145 281.761ZM202.068 305.495L203.064 305.399L203.064 305.399L202.068 305.495ZM217.199 354.686L217.917 353.99L217.917 353.99L217.199 354.686ZM177.301 354.686L176.582 353.99L176.582 353.99L177.301 354.686ZM194.3 297.855L195.296 297.946L195.296 297.946L194.3 297.855ZM196.081 280.698L197.073 280.826C197.133 280.36 196.861 279.915 196.419 279.757C195.977 279.598 195.484 279.769 195.234 280.166L196.081 280.698ZM191.394 288.475L190.534 287.966L190.534 287.966L191.394 288.475ZM162.843 321.529L163.103 322.495L163.103 322.495L162.843 321.529ZM158.686 288.104C159.219 287.961 159.535 287.412 159.391 286.879C159.248 286.345 158.699 286.029 158.166 286.173L158.686 288.104ZM133.3 276.113L132.334 276.371L132.334 276.371L133.3 276.113ZM145.137 255.136L144.877 254.171L144.877 254.171L145.137 255.136ZM186.312 269.418L186.802 268.547L186.802 268.547L186.312 269.418ZM196.733 275.08L196.289 275.976C196.712 276.186 197.225 276.071 197.518 275.701C197.811 275.33 197.805 274.805 197.503 274.442L196.733 275.08ZM187.465 265.11L186.706 265.761C186.719 265.776 186.733 265.791 186.747 265.806L187.465 265.11ZM187.465 265.11L188.224 264.459C188.211 264.444 188.197 264.428 188.183 264.414L187.465 265.11ZM214.385 210.928C209.218 210.928 204.679 214.249 201.486 218.598C198.284 222.959 196.283 228.545 196.283 233.459H198.283C198.283 229.03 200.11 223.851 203.098 219.782C206.095 215.701 210.107 212.928 214.385 212.928V210.928ZM232.487 228.845C232.487 218.939 224.372 210.928 214.385 210.928V212.928C223.288 212.928 230.487 220.064 230.487 228.845H232.487ZM207.819 265.806C213.212 260.244 219.354 253.911 224.144 247.568C228.903 241.266 232.487 234.755 232.487 228.845H230.487C230.487 234.047 227.28 240.097 222.548 246.363C217.846 252.589 211.794 258.832 206.383 264.414L207.819 265.806ZM198.602 275.719C200.949 272.892 204.21 269.528 207.819 265.806L206.383 264.414C202.793 268.116 199.471 271.542 197.063 274.441L198.602 275.719ZM207.763 268.547C203.93 270.704 200.407 272.686 197.388 274.185L198.277 275.976C201.352 274.449 204.925 272.439 208.744 270.29L207.763 268.547ZM249.688 254.171C244.002 252.64 236.812 254.435 229.522 257.423C222.185 260.43 214.506 264.753 207.763 268.547L208.744 270.29C215.511 266.482 223.078 262.225 230.28 259.273C237.53 256.302 244.172 254.757 249.168 256.102L249.688 254.171ZM262.232 276.371C264.814 266.689 259.221 256.737 249.688 254.171L249.168 256.102C257.6 258.372 262.607 267.203 260.299 275.855L262.232 276.371ZM235.88 288.104C240.608 289.377 246.499 288.88 251.521 286.901C256.531 284.926 260.896 281.381 262.232 276.371L260.299 275.855C259.191 280.013 255.484 283.189 250.788 285.04C246.104 286.886 240.654 287.318 236.4 286.173L235.88 288.104ZM253.379 309.567C254.715 304.558 252.7 299.297 249.345 295.071C245.981 290.835 241.128 287.446 236.4 286.173L235.88 288.104C240.134 289.25 244.64 292.362 247.778 296.315C250.925 300.279 252.555 304.894 251.447 309.052L253.379 309.567ZM231.463 322.495C240.997 325.062 250.797 319.251 253.379 309.567L251.447 309.052C249.14 317.702 240.413 322.833 231.983 320.564L231.463 322.495ZM202.311 288.985C206.263 295.658 210.761 303.258 215.619 309.549C220.444 315.798 225.777 320.964 231.463 322.495L231.983 320.564C226.986 319.218 222.002 314.542 217.202 308.326C212.433 302.151 207.997 294.663 204.032 287.966L202.311 288.985ZM198.294 282.286C199.561 284.341 200.901 286.603 202.311 288.985L204.032 287.966C202.624 285.588 201.275 283.309 199.997 281.236L198.294 282.286ZM203.064 305.399C202.319 297.717 201.542 289.692 200.131 281.59L198.16 281.933C199.556 289.948 200.327 297.899 201.073 305.592L203.064 305.399ZM217.917 353.99C212.322 348.212 209.078 341.002 206.999 332.747C204.915 324.477 204.017 315.231 203.064 305.399L201.073 305.592C202.023 315.388 202.932 324.792 205.059 333.236C207.19 341.696 210.56 349.268 216.48 355.381L217.917 353.99ZM197.283 366.26C203.057 366.26 209.465 364.915 213.824 362.86C215.978 361.845 217.792 360.583 218.693 359.084C219.159 358.307 219.397 357.438 219.266 356.518C219.137 355.606 218.662 354.76 217.917 353.99L216.48 355.381C217.015 355.934 217.231 356.41 217.286 356.799C217.34 357.18 217.256 357.591 216.978 358.054C216.39 359.033 215.024 360.084 212.971 361.051C208.918 362.962 202.808 364.26 197.283 364.26V366.26ZM176.582 353.99C175.836 354.761 175.363 355.609 175.238 356.523C175.113 357.446 175.358 358.315 175.831 359.09C176.745 360.586 178.573 361.847 180.739 362.861C185.123 364.915 191.546 366.26 197.283 366.26V364.26C191.796 364.26 185.669 362.962 181.587 361.05C179.52 360.082 178.138 359.029 177.538 358.048C177.255 357.583 177.168 357.172 177.22 356.793C177.272 356.407 177.485 355.933 178.019 355.381L176.582 353.99ZM193.305 297.764C192.306 308.706 191.321 319.47 188.971 329.179C186.623 338.878 182.932 347.433 176.582 353.99L178.019 355.381C184.71 348.471 188.522 339.535 190.915 329.649C193.306 319.772 194.3 308.855 195.296 297.946L193.305 297.764ZM195.09 280.57C194.357 286.241 193.829 292.025 193.305 297.764L195.296 297.946C195.821 292.2 196.346 286.453 197.073 280.826L195.09 280.57ZM192.255 288.985C193.912 286.186 195.471 283.553 196.928 281.229L195.234 280.166C193.761 282.516 192.187 285.173 190.534 287.966L192.255 288.985ZM163.103 322.495C168.789 320.964 174.121 315.798 178.947 309.549C183.805 303.258 188.303 295.658 192.255 288.985L190.534 287.966C186.568 294.663 182.133 302.151 177.364 308.326C172.564 314.542 167.58 319.218 162.583 320.564L163.103 322.495ZM141.187 309.567C143.769 319.251 153.569 325.062 163.103 322.495L162.583 320.564C154.153 322.833 145.426 317.702 143.119 309.052L141.187 309.567ZM158.166 286.173C153.438 287.446 148.585 290.835 145.221 295.071C141.866 299.297 139.851 304.558 141.187 309.567L143.119 309.052C142.01 304.894 143.641 300.279 146.787 296.315C149.926 292.362 154.431 289.25 158.686 288.104L158.166 286.173ZM132.334 276.371C133.67 281.381 138.035 284.926 143.045 286.901C148.067 288.88 153.958 289.377 158.686 288.104L158.166 286.173C153.911 287.318 148.462 286.886 143.778 285.04C139.082 283.189 135.375 280.013 134.266 275.855L132.334 276.371ZM144.877 254.171C135.345 256.737 129.752 266.689 132.334 276.371L134.266 275.855C131.959 267.203 136.965 258.372 145.397 256.102L144.877 254.171ZM186.802 268.547C180.059 264.753 172.381 260.43 165.044 257.423C157.754 254.435 150.564 252.64 144.877 254.171L145.397 256.102C150.393 254.757 157.036 256.302 164.285 259.273C171.487 262.225 179.055 266.482 185.822 270.29L186.802 268.547ZM197.178 274.185C194.159 272.686 190.636 270.704 186.802 268.547L185.822 270.29C189.641 272.439 193.214 274.45 196.289 275.976L197.178 274.185ZM186.747 265.806C190.356 269.529 193.616 272.892 195.964 275.719L197.503 274.442C195.095 271.542 191.773 268.116 188.183 264.414L186.747 265.806ZM186.706 265.761L186.706 265.761L188.224 264.459L188.224 264.459L186.706 265.761ZM162.078 228.845C162.078 234.755 165.662 241.266 170.422 247.568C175.212 253.911 181.354 260.244 186.747 265.806L188.183 264.414C182.771 258.832 176.72 252.589 172.018 246.363C167.285 240.097 164.078 234.047 164.078 228.845H162.078ZM180.181 210.928C170.193 210.928 162.078 218.939 162.078 228.845H164.078C164.078 220.064 171.277 212.928 180.181 212.928V210.928ZM198.283 233.459C198.283 228.545 196.282 222.959 193.08 218.598C189.886 214.249 185.348 210.928 180.181 210.928V212.928C184.458 212.928 188.471 215.701 191.468 219.782C194.455 223.851 196.283 229.03 196.283 233.459H198.283Z" fill="#453B3B"/>
<defs>
<filter id="filter0_d" x="0" y="0" width="391" height="592" filterUnits="userSpaceOnUse" color-interpolation-filters="sRGB">
<feFlood flood-opacity="0" result="BackgroundImageFix"/>
<feColorMatrix in="SourceAlpha" type="matrix" values="0 0 0 0 0 0 0 0 0 0 0 0 0 0 0 0 0 0 127 0"/>
<feMorphology radius="3" operator="dilate" in="SourceAlpha" result="effect1_dropShadow"/>
<feOffset dy="6"/>
<feGaussianBlur stdDeviation="4"/>
<feColorMatrix type="matrix" values="0 0 0 0 0.279463 0 0 0 0 0.0711028 0 0 0 0 0.0740583 0 0 0 0.05 0"/>
<feBlend mode="normal" in2="BackgroundImageFix" result="effect1_dropShadow"/>
<feBlend mode="normal" in="SourceGraphic" in2="effect1_dropShadow" result="shape"/>
</filter>
<clipPath id="clip0">
<path d="M11 22.324C11 12.7562 18.7562 5 28.3239 5H362.676C372.244 5 380 12.7562 380 22.3239V557.676C380 567.244 372.244 575 362.676 575H28.3239C18.7562 575 11 567.244 11 557.676V22.324Z" fill="white"/>
</clipPath>
</defs>
</svg>
