<svg width="391" height="592" viewBox="0 0 391 592" fill="none" xmlns="http://www.w3.org/2000/svg">
<g filter="url(#filter0_d)">
<g clip-path="url(#clip0)">
<path d="M11 22.324C11 12.7562 18.7562 5 28.3239 5H362.676C372.244 5 380 12.7562 380 22.3239V557.676C380 567.244 372.244 575 362.676 575H28.3239C18.7562 575 11 567.244 11 557.676V22.324Z" fill="#FBEEEE"/>
<path d="M73.0096 39.8473C73.0096 43.9311 70.9301 47.1868 66.7711 49.6145C71.777 51.6282 74.2799 55.1191 74.2799 60.0874C74.2799 64.0583 72.8214 67.1352 69.9045 69.3183C67.0063 71.4825 63.0919 72.5646 58.1613 72.5646C54.9996 72.5646 52.2144 72.0565 49.8055 71.0402C47.3966 70.024 45.5335 68.5655 44.2162 66.6647C42.9177 64.7452 42.2684 62.4963 42.2684 59.918C42.2684 55.2132 44.809 51.7787 49.8902 49.6145C45.6559 47.2621 43.5387 44.0628 43.5387 40.0167C43.5387 37.7584 44.1786 35.773 45.4583 34.0604C46.7568 32.329 48.5164 31.0023 50.7371 30.0801C52.9766 29.158 55.4701 28.6969 58.2177 28.6969C61.0218 28.6969 63.553 29.1486 65.8113 30.0519C68.0696 30.9552 69.8292 32.2444 71.0901 33.9193C72.3698 35.5942 73.0096 37.5702 73.0096 39.8473ZM58.2177 46.4529C59.7609 46.4529 60.9935 45.973 61.9157 45.0132C62.8378 44.0346 63.2989 42.7173 63.2989 41.0612C63.2989 39.4427 62.8567 38.163 61.9721 37.222C61.0876 36.2811 59.8173 35.8106 58.1613 35.8106C56.6934 35.8106 55.5077 36.2529 54.6044 37.1374C53.7011 38.0219 53.2494 39.3674 53.2494 41.1741C53.2494 42.7173 53.7105 43.9876 54.6326 44.985C55.5548 45.9636 56.7498 46.4529 58.2177 46.4529ZM58.3306 65.4791C60.062 65.4791 61.4734 64.8863 62.565 63.7007C63.6753 62.4963 64.2305 61.0002 64.2305 59.2123C64.2305 57.4433 63.6659 55.9472 62.5367 54.7239C61.4264 53.4819 60.0055 52.8608 58.2742 52.8608C56.6181 52.8608 55.2349 53.4819 54.1245 54.7239C53.033 55.9472 52.4873 57.4433 52.4873 59.2123C52.4873 61.0002 53.033 62.4963 54.1245 63.7007C55.2349 64.8863 56.6369 65.4791 58.3306 65.4791Z" fill="#732A2A"/>
<path d="M59 91L42 111L59 131L76 111L59 91Z" fill="#FD7072"/>
<path d="M318.99 540.153C318.99 536.069 321.07 532.813 325.229 530.385C320.223 528.372 317.72 524.881 317.72 519.913C317.72 515.942 319.179 512.865 322.096 510.682C324.994 508.518 328.908 507.435 333.839 507.435C337 507.435 339.786 507.944 342.194 508.96C344.603 509.976 346.466 511.435 347.784 513.335C349.082 515.255 349.732 517.504 349.732 520.082C349.732 524.787 347.191 528.221 342.11 530.385C346.344 532.738 348.461 535.937 348.461 539.983C348.461 542.242 347.821 544.227 346.542 545.94C345.243 547.671 343.484 548.998 341.263 549.92C339.023 550.842 336.53 551.303 333.782 551.303C330.978 551.303 328.447 550.851 326.189 549.948C323.93 549.045 322.171 547.756 320.91 546.081C319.63 544.406 318.99 542.43 318.99 540.153ZM333.782 533.547C332.239 533.547 331.006 534.027 330.084 534.987C329.162 535.965 328.701 537.283 328.701 538.939C328.701 540.557 329.143 541.837 330.028 542.778C330.912 543.719 332.183 544.189 333.839 544.189C335.307 544.189 336.492 543.747 337.396 542.863C338.299 541.978 338.751 540.633 338.751 538.826C338.751 537.283 338.289 536.012 337.367 535.015C336.445 534.036 335.25 533.547 333.782 533.547ZM333.669 514.521C331.938 514.521 330.527 515.114 329.435 516.299C328.325 517.504 327.77 519 327.77 520.788C327.77 522.557 328.334 524.053 329.463 525.276C330.574 526.518 331.994 527.139 333.726 527.139C335.382 527.139 336.765 526.518 337.875 525.276C338.967 524.053 339.513 522.557 339.513 520.788C339.513 519 338.967 517.504 337.875 516.299C336.765 515.114 335.363 514.521 333.669 514.521Z" fill="#732A2A"/>
<path d="M333 489L350 469L333 449L316 469L333 489Z" fill="#FD7072"/>
</g>
<path d="M28.3239 6H362.676V4H28.3239V6ZM379 22.3239V557.676H381V22.3239H379ZM362.676 574H28.3239V576H362.676V574ZM12 557.676V22.324H10V557.676H12ZM28.3239 574C19.3085 574 12 566.692 12 557.676H10C10 567.796 18.2039 576 28.3239 576V574ZM379 557.676C379 566.691 371.692 574 362.676 574V576C372.796 576 381 567.796 381 557.676H379ZM362.676 6C371.692 6 379 13.3085 379 22.3239H381C381 12.2039 372.796 4 362.676 4V6ZM28.3239 4C18.2039 4 10 12.2039 10 22.324H12C12 13.3085 19.3085 6 28.3239 6V4Z" fill="#F7E2E2"/>
</g>
<path d="M262 148L245 168L262 188L279 168L262 148Z" fill="#FD7072"/>
<path d="M262 208.5L245 228.5L262 248.5L279 228.5L262 208.5Z" fill="#FD7072"/>
<path d="M262 371.5L245 351.5L262 331.5L279 351.5L262 371.5Z" fill="#FD7072"/>
<path d="M262 432L245 412L262 392L279 412L262 432Z" fill="#FD7072"/>
<path d="M128 148L111 168L128 188L145 168L128 148Z" fill="#FD7072"/>
<path d="M128 208.5L111 228.5L128 248.5L145 228.5L128 208.5Z" fill="#FD7072"/>
<path d="M128 371.5L111 351.5L128 331.5L145 351.5L128 371.5Z" fill="#FD7072"/>
<path d="M128 432L111 412L128 392L145 412L128 432Z" fill="#FD7072"/>
<defs>
<filter id="filter0_d" x="0" y="0" width="391" height="592" filterUnits="userSpaceOnUse" color-interpolation-filters="sRGB">
<feFlood flood-opacity="0" result="BackgroundImageFix"/>
<feColorMatrix in="SourceAlpha" type="matrix" values="0 0 0 0 0 0 0 0 0 0 0 0 0 0 0 0 0 0 127 0"/>
<feMorphology radius="3" operator="dilate" in="SourceAlpha" result="effect1_dropShadow"/>
<feOffset dy="6"/>
<feGaussianBlur stdDeviation="4"/>
<feColorMatrix type="matrix" values="0 0 0 0 0.279463 0 0 0 0 0.0711028 0 0 0 0 0.0740583 0 0 0 0.05 0"/>
<feBlend mode="normal" in2="BackgroundImageFix" result="effect1_dropShadow"/>
<feBlend mode="normal" in="SourceGraphic" in2="effect1_dropShadow" result="shape"/>
</filter>
<clipPath id="clip0">
<path d="M11 22.324C11 12.7562 18.7562 5 28.3239 5H362.676C372.244 5 380 12.7562 380 22.3239V557.676C380 567.244 372.244 575 362.676 575H28.3239C18.7562 575 11 567.244 11 557.676V22.324Z" fill="white"/>
</clipPath>
</defs>
</svg>
