<svg width="391" height="592" viewBox="0 0 391 592" fill="none" xmlns="http://www.w3.org/2000/svg">
<g filter="url(#filter0_d)">
<g clip-path="url(#clip0)">
<path d="M11 22.324C11 12.7562 18.7562 5 28.3239 5H362.676C372.244 5 380 12.7562 380 22.3239V557.676C380 567.244 372.244 575 362.676 575H28.3239C18.7562 575 11 567.244 11 557.676V22.324Z" fill="white"/>
<path d="M73.0096 39.8473C73.0096 43.9311 70.9301 47.1868 66.7711 49.6145C71.777 51.6282 74.2799 55.1191 74.2799 60.0874C74.2799 64.0583 72.8214 67.1352 69.9045 69.3183C67.0063 71.4825 63.0919 72.5646 58.1613 72.5646C54.9996 72.5646 52.2144 72.0565 49.8055 71.0402C47.3966 70.024 45.5335 68.5655 44.2162 66.6647C42.9177 64.7452 42.2684 62.4963 42.2684 59.918C42.2684 55.2132 44.809 51.7787 49.8902 49.6145C45.6559 47.2621 43.5387 44.0628 43.5387 40.0167C43.5387 37.7584 44.1786 35.773 45.4583 34.0604C46.7568 32.329 48.5164 31.0023 50.7371 30.0801C52.9766 29.158 55.4701 28.6969 58.2177 28.6969C61.0218 28.6969 63.553 29.1486 65.8113 30.0519C68.0696 30.9552 69.8292 32.2444 71.0901 33.9193C72.3698 35.5942 73.0096 37.5702 73.0096 39.8473ZM58.2177 46.4529C59.7609 46.4529 60.9935 45.973 61.9157 45.0132C62.8378 44.0346 63.2989 42.7173 63.2989 41.0612C63.2989 39.4427 62.8567 38.163 61.9721 37.222C61.0876 36.2811 59.8173 35.8106 58.1613 35.8106C56.6934 35.8106 55.5077 36.2529 54.6044 37.1374C53.7011 38.0219 53.2494 39.3674 53.2494 41.1741C53.2494 42.7173 53.7105 43.9876 54.6326 44.985C55.5548 45.9636 56.7498 46.4529 58.2177 46.4529ZM58.3306 65.4791C60.062 65.4791 61.4734 64.8863 62.565 63.7007C63.6753 62.4963 64.2305 61.0002 64.2305 59.2123C64.2305 57.4433 63.6659 55.9472 62.5367 54.7239C61.4264 53.4819 60.0055 52.8608 58.2742 52.8608C56.6181 52.8608 55.2349 53.4819 54.1245 54.7239C53.033 55.9472 52.4873 57.4433 52.4873 59.2123C52.4873 61.0002 53.033 62.4963 54.1245 63.7007C55.2349 64.8863 56.6369 65.4791 58.3306 65.4791Z" fill="#1A1616"/>
<path fill-rule="evenodd" clip-rule="evenodd" d="M62.6689 118.663C63.8338 119.645 65.189 120.262 66.6351 120.262C70.9862 120.262 74.5135 116.79 74.5135 112.506C74.5135 107.411 68.2567 100.989 63.2795 95.8794C61.4896 94.042 59.8651 92.3745 58.7568 90.9998C57.6484 92.3745 56.0239 94.042 54.234 95.8794C49.2569 100.989 43 107.411 43 112.506C43 116.79 46.5273 120.262 50.8784 120.262C52.2464 120.262 53.5329 119.71 54.654 118.819C55.5853 122.254 56.6357 128.011 54.2547 130.392C53.1293 131.517 56.2895 132.643 58.7567 132.643C61.2406 132.643 64.151 131.517 63.0256 130.392C60.6082 127.974 61.728 122.077 62.6689 118.663ZM58.763 110.706C58.7589 110.6 58.7568 110.495 58.7568 110.391C58.7568 110.495 58.7547 110.6 58.7505 110.705L58.7567 110.696L58.763 110.706Z" fill="#453B3B"/>
<path d="M318.99 540.153C318.99 536.069 321.07 532.813 325.229 530.385C320.223 528.372 317.72 524.881 317.72 519.913C317.72 515.942 319.179 512.865 322.096 510.682C324.994 508.518 328.908 507.435 333.839 507.435C337 507.435 339.786 507.944 342.194 508.96C344.603 509.976 346.466 511.435 347.784 513.335C349.082 515.255 349.732 517.504 349.732 520.082C349.732 524.787 347.191 528.221 342.11 530.385C346.344 532.738 348.461 535.937 348.461 539.983C348.461 542.242 347.821 544.227 346.542 545.94C345.243 547.671 343.484 548.998 341.263 549.92C339.023 550.842 336.53 551.303 333.782 551.303C330.978 551.303 328.447 550.851 326.189 549.948C323.93 549.045 322.171 547.756 320.91 546.081C319.63 544.406 318.99 542.43 318.99 540.153ZM333.782 533.547C332.239 533.547 331.006 534.027 330.084 534.987C329.162 535.965 328.701 537.283 328.701 538.939C328.701 540.557 329.143 541.837 330.028 542.778C330.912 543.719 332.183 544.189 333.839 544.189C335.307 544.189 336.492 543.747 337.396 542.863C338.299 541.978 338.751 540.633 338.751 538.826C338.751 537.283 338.289 536.012 337.367 535.015C336.445 534.036 335.25 533.547 333.782 533.547ZM333.669 514.521C331.938 514.521 330.527 515.114 329.435 516.299C328.325 517.504 327.77 519 327.77 520.788C327.77 522.557 328.334 524.053 329.463 525.276C330.574 526.518 331.994 527.139 333.726 527.139C335.382 527.139 336.765 526.518 337.875 525.276C338.967 524.053 339.513 522.557 339.513 520.788C339.513 519 338.967 517.504 337.875 516.299C336.765 515.114 335.363 514.521 333.669 514.521Z" fill="#1A1616"/>
<path fill-rule="evenodd" clip-rule="evenodd" d="M329.331 461.337C328.166 460.355 326.811 459.738 325.365 459.738C321.014 459.738 317.486 463.21 317.486 467.494C317.486 472.589 323.743 479.011 328.72 484.121C330.51 485.958 332.135 487.626 333.243 489C334.352 487.626 335.976 485.958 337.766 484.121C342.743 479.011 349 472.589 349 467.494C349 463.21 345.473 459.738 341.122 459.738C339.754 459.738 338.467 460.29 337.346 461.181C336.415 457.746 335.364 451.989 337.745 449.608C338.871 448.483 335.711 447.357 333.243 447.357C330.759 447.357 327.849 448.483 328.974 449.608C331.392 452.026 330.272 457.923 329.331 461.337ZM333.237 469.294C333.241 469.4 333.243 469.505 333.243 469.609C333.243 469.505 333.245 469.4 333.249 469.295L333.243 469.304L333.237 469.294Z" fill="#453B3B"/>
</g>
<path d="M28.3239 6H362.676V4H28.3239V6ZM379 22.3239V557.676H381V22.3239H379ZM362.676 574H28.3239V576H362.676V574ZM12 557.676V22.324H10V557.676H12ZM28.3239 574C19.3085 574 12 566.692 12 557.676H10C10 567.796 18.2039 576 28.3239 576V574ZM379 557.676C379 566.691 371.692 574 362.676 574V576C372.796 576 381 567.796 381 557.676H379ZM362.676 6C371.692 6 379 13.3085 379 22.3239H381C381 12.2039 372.796 4 362.676 4V6ZM28.3239 4C18.2039 4 10 12.2039 10 22.324H12C12 13.3085 19.3085 6 28.3239 6V4Z" fill="#D9D8D8"/>
</g>
<path fill-rule="evenodd" clip-rule="evenodd" d="M265.669 175.663C266.834 176.645 268.189 177.262 269.635 177.262C273.986 177.262 277.514 173.79 277.514 169.506C277.514 164.411 271.257 157.989 266.28 152.879C264.49 151.042 262.865 149.374 261.757 148C260.648 149.374 259.024 151.042 257.234 152.879C252.257 157.989 246 164.411 246 169.506C246 173.79 249.527 177.262 253.878 177.262C255.246 177.262 256.533 176.71 257.654 175.819C258.585 179.254 259.636 185.011 257.255 187.392C256.129 188.517 259.289 189.643 261.757 189.643C264.241 189.643 267.151 188.517 266.026 187.392C263.608 184.974 264.728 179.077 265.669 175.663ZM261.763 167.706C261.759 167.6 261.757 167.495 261.757 167.391C261.757 167.495 261.755 167.6 261.751 167.705L261.757 167.696L261.763 167.706Z" fill="#453B3B"/>
<path fill-rule="evenodd" clip-rule="evenodd" d="M265.669 236.163C266.834 237.145 268.189 237.762 269.635 237.762C273.986 237.762 277.514 234.29 277.514 230.006C277.514 224.911 271.257 218.489 266.28 213.379C264.49 211.542 262.865 209.874 261.757 208.5C260.648 209.874 259.024 211.542 257.234 213.379C252.257 218.489 246 224.911 246 230.006C246 234.29 249.527 237.762 253.878 237.762C255.246 237.762 256.533 237.21 257.654 236.319C258.585 239.754 259.636 245.511 257.255 247.892C256.129 249.017 259.289 250.143 261.757 250.143C264.241 250.143 267.151 249.017 266.026 247.892C263.608 245.474 264.728 239.577 265.669 236.163ZM261.763 228.206C261.759 228.1 261.757 227.995 261.757 227.891C261.757 227.995 261.755 228.1 261.751 228.205L261.757 228.196L261.763 228.206Z" fill="#453B3B"/>
<path fill-rule="evenodd" clip-rule="evenodd" d="M265.669 343.837C266.834 342.855 268.189 342.238 269.635 342.238C273.986 342.238 277.514 345.71 277.514 349.994C277.514 355.089 271.257 361.511 266.28 366.621C264.49 368.458 262.865 370.126 261.757 371.5C260.648 370.126 259.024 368.458 257.234 366.621C252.257 361.511 246 355.089 246 349.994C246 345.71 249.527 342.238 253.878 342.238C255.246 342.238 256.533 342.79 257.654 343.681C258.585 340.246 259.636 334.489 257.255 332.108C256.129 330.983 259.289 329.857 261.757 329.857C264.241 329.857 267.151 330.983 266.026 332.108C263.608 334.526 264.728 340.423 265.669 343.837ZM261.763 351.794C261.759 351.9 261.757 352.005 261.757 352.109C261.757 352.005 261.755 351.9 261.751 351.795L261.757 351.804L261.763 351.794Z" fill="#453B3B"/>
<path fill-rule="evenodd" clip-rule="evenodd" d="M265.669 404.337C266.834 403.355 268.189 402.738 269.635 402.738C273.986 402.738 277.514 406.21 277.514 410.494C277.514 415.589 271.257 422.011 266.28 427.121C264.49 428.958 262.865 430.626 261.757 432C260.648 430.626 259.024 428.958 257.234 427.121C252.257 422.011 246 415.589 246 410.494C246 406.21 249.527 402.738 253.878 402.738C255.246 402.738 256.533 403.29 257.654 404.181C258.585 400.746 259.636 394.989 257.255 392.608C256.129 391.483 259.289 390.357 261.757 390.357C264.241 390.357 267.151 391.483 266.026 392.608C263.608 395.026 264.728 400.923 265.669 404.337ZM261.763 412.294C261.759 412.4 261.757 412.505 261.757 412.609C261.757 412.505 261.755 412.4 261.751 412.295L261.757 412.304L261.763 412.294Z" fill="#453B3B"/>
<path fill-rule="evenodd" clip-rule="evenodd" d="M131.669 175.663C132.834 176.645 134.189 177.262 135.635 177.262C139.986 177.262 143.514 173.79 143.514 169.506C143.514 164.411 137.257 157.989 132.28 152.879C130.49 151.042 128.865 149.374 127.757 148C126.648 149.374 125.024 151.042 123.234 152.879C118.257 157.989 112 164.411 112 169.506C112 173.79 115.527 177.262 119.878 177.262C121.246 177.262 122.533 176.71 123.654 175.819C124.585 179.254 125.636 185.011 123.255 187.392C122.129 188.517 125.289 189.643 127.757 189.643C130.241 189.643 133.151 188.517 132.026 187.392C129.608 184.974 130.728 179.077 131.669 175.663ZM127.763 167.706C127.759 167.6 127.757 167.495 127.757 167.391C127.757 167.495 127.755 167.6 127.751 167.705L127.757 167.696L127.763 167.706Z" fill="#453B3B"/>
<path fill-rule="evenodd" clip-rule="evenodd" d="M131.669 236.163C132.834 237.145 134.189 237.762 135.635 237.762C139.986 237.762 143.514 234.29 143.514 230.006C143.514 224.911 137.257 218.489 132.28 213.379C130.49 211.542 128.865 209.874 127.757 208.5C126.648 209.874 125.024 211.542 123.234 213.379C118.257 218.489 112 224.911 112 230.006C112 234.29 115.527 237.762 119.878 237.762C121.246 237.762 122.533 237.21 123.654 236.319C124.585 239.754 125.636 245.511 123.255 247.892C122.129 249.017 125.289 250.143 127.757 250.143C130.241 250.143 133.151 249.017 132.026 247.892C129.608 245.474 130.728 239.577 131.669 236.163ZM127.763 228.206C127.759 228.1 127.757 227.995 127.757 227.891C127.757 227.995 127.755 228.1 127.751 228.205L127.757 228.196L127.763 228.206Z" fill="#453B3B"/>
<path fill-rule="evenodd" clip-rule="evenodd" d="M131.669 343.837C132.834 342.855 134.189 342.238 135.635 342.238C139.986 342.238 143.514 345.71 143.514 349.994C143.514 355.089 137.257 361.511 132.28 366.621C130.49 368.458 128.865 370.126 127.757 371.5C126.648 370.126 125.024 368.458 123.234 366.621C118.257 361.511 112 355.089 112 349.994C112 345.71 115.527 342.238 119.878 342.238C121.246 342.238 122.533 342.79 123.654 343.681C124.585 340.246 125.636 334.489 123.255 332.108C122.129 330.983 125.289 329.857 127.757 329.857C130.241 329.857 133.151 330.983 132.026 332.108C129.608 334.526 130.728 340.423 131.669 343.837ZM127.763 351.794C127.759 351.9 127.757 352.005 127.757 352.109C127.757 352.005 127.755 351.9 127.751 351.795L127.757 351.804L127.763 351.794Z" fill="#453B3B"/>
<path fill-rule="evenodd" clip-rule="evenodd" d="M131.669 404.337C132.834 403.355 134.189 402.738 135.635 402.738C139.986 402.738 143.514 406.21 143.514 410.494C143.514 415.589 137.257 422.011 132.28 427.121C130.49 428.958 128.865 430.626 127.757 432C126.648 430.626 125.024 428.958 123.234 427.121C118.257 422.011 112 415.589 112 410.494C112 406.21 115.527 402.738 119.878 402.738C121.246 402.738 122.533 403.29 123.654 404.181C124.585 400.746 125.636 394.989 123.255 392.608C122.129 391.483 125.289 390.357 127.757 390.357C130.241 390.357 133.151 391.483 132.026 392.608C129.608 395.026 130.728 400.923 131.669 404.337ZM127.763 412.294C127.759 412.4 127.757 412.505 127.757 412.609C127.757 412.505 127.755 412.4 127.751 412.295L127.757 412.304L127.763 412.294Z" fill="#453B3B"/>
<defs>
<filter id="filter0_d" x="0" y="0" width="391" height="592" filterUnits="userSpaceOnUse" color-interpolation-filters="sRGB">
<feFlood flood-opacity="0" result="BackgroundImageFix"/>
<feColorMatrix in="SourceAlpha" type="matrix" values="0 0 0 0 0 0 0 0 0 0 0 0 0 0 0 0 0 0 127 0"/>
<feMorphology radius="3" operator="dilate" in="SourceAlpha" result="effect1_dropShadow"/>
<feOffset dy="6"/>
<feGaussianBlur stdDeviation="4"/>
<feColorMatrix type="matrix" values="0 0 0 0 0.279463 0 0 0 0 0.0711028 0 0 0 0 0.0740583 0 0 0 0.05 0"/>
<feBlend mode="normal" in2="BackgroundImageFix" result="effect1_dropShadow"/>
<feBlend mode="normal" in="SourceGraphic" in2="effect1_dropShadow" result="shape"/>
</filter>
<clipPath id="clip0">
<path d="M11 22.324C11 12.7562 18.7562 5 28.3239 5H362.676C372.244 5 380 12.7562 380 22.3239V557.676C380 567.244 372.244 575 362.676 575H28.3239C18.7562 575 11 567.244 11 557.676V22.324Z" fill="white"/>
</clipPath>
</defs>
</svg>
