<svg width="391" height="592" viewBox="0 0 391 592" fill="none" xmlns="http://www.w3.org/2000/svg">
<g filter="url(#filter0_d)">
<g clip-path="url(#clip0)">
<path d="M11 22.324C11 12.7562 18.7562 5 28.3239 5H362.676C372.244 5 380 12.7562 380 22.3239V557.676C380 567.244 372.244 575 362.676 575H28.3239C18.7562 575 11 567.244 11 557.676V22.324Z" fill="#FBEEEE"/>
<path d="M65.1056 39.8473L64.3434 36.7422H52.7131L51.8662 45.7472C54.2186 44.5239 56.7028 43.9123 59.3186 43.9123C62.3297 43.9123 64.9738 44.5239 67.2509 45.7472C69.5469 46.9516 71.3159 48.6359 72.558 50.8001C73.8189 52.9455 74.4493 55.2885 74.4493 57.8291C74.4493 60.7649 73.7718 63.362 72.4168 65.6203C71.0807 67.8786 69.1705 69.6005 66.6864 70.7862C64.2022 71.9718 61.3041 72.5646 57.9919 72.5646C53.5129 72.5646 49.862 71.4825 47.0391 69.3183C44.235 67.1352 42.5601 64.0959 42.0143 60.2003L51.104 59.0994C51.7627 63.2208 53.8422 65.2815 57.3426 65.2815C59.4316 65.2815 61.0218 64.6981 62.1133 63.5313C63.2048 62.3645 63.7506 60.699 63.7506 58.5348C63.7506 53.7547 61.6899 51.3647 57.5684 51.3647C55.1408 51.3647 53.0989 52.5033 51.4428 54.7804L43.9339 51.0824L45.43 29.4591H72.3321V39.8473H65.1056Z" fill="#732A2A"/>
<path d="M70 91C63.9249 91 59 98.9249 59 105C59 98.9249 54.0751 91 48 91C41.9249 91 37 95.9249 37 102C37 111.823 53.1493 125.129 59 132.5C64.8507 125.129 81 111.823 81 102C81 95.9249 76.0751 91 70 91Z" fill="#FD7072" stroke="#FD7072" stroke-linecap="round" stroke-linejoin="round"/>
<path d="M326.894 540.153L327.657 543.258H339.287L340.134 534.253C337.781 535.476 335.297 536.088 332.681 536.088C329.67 536.088 327.026 535.476 324.749 534.253C322.453 533.048 320.684 531.364 319.442 529.2C318.181 527.054 317.551 524.711 317.551 522.171C317.551 519.235 318.228 516.638 319.583 514.38C320.919 512.121 322.829 510.399 325.314 509.214C327.798 508.028 330.696 507.435 334.008 507.435C338.487 507.435 342.138 508.518 344.961 510.682C347.765 512.865 349.44 515.904 349.986 519.8L340.896 520.901C340.237 516.779 338.158 514.718 334.657 514.718C332.568 514.718 330.978 515.302 329.887 516.469C328.795 517.635 328.249 519.301 328.249 521.465C328.249 526.245 330.31 528.635 334.432 528.635C336.859 528.635 338.901 527.497 340.557 525.22L348.066 528.918L346.57 550.541H319.668V540.153H326.894Z" fill="#732A2A"/>
<path d="M322 489C328.075 489 333 481.075 333 475C333 481.075 337.925 489 344 489C350.075 489 355 484.075 355 478C355 468.177 338.851 454.871 333 447.5C327.149 454.871 311 468.177 311 478C311 484.075 315.925 489 322 489Z" fill="#FD7072" stroke="#FD7072" stroke-linecap="round" stroke-linejoin="round"/>
</g>
<path d="M28.3239 6H362.676V4H28.3239V6ZM379 22.3239V557.676H381V22.3239H379ZM362.676 574H28.3239V576H362.676V574ZM12 557.676V22.324H10V557.676H12ZM28.3239 574C19.3085 574 12 566.692 12 557.676H10C10 567.796 18.2039 576 28.3239 576V574ZM379 557.676C379 566.691 371.692 574 362.676 574V576C372.796 576 381 567.796 381 557.676H379ZM362.676 6C371.692 6 379 13.3085 379 22.3239H381C381 12.2039 372.796 4 362.676 4V6ZM28.3239 4C18.2039 4 10 12.2039 10 22.324H12C12 13.3085 19.3085 6 28.3239 6V4Z" fill="#F7E2E2"/>
</g>
<path d="M273 239C266.925 239 262 246.925 262 253C262 246.925 257.075 239 251 239C244.925 239 240 243.925 240 250C240 259.823 256.149 273.129 262 280.5C267.851 273.129 284 259.823 284 250C284 243.925 279.075 239 273 239Z" fill="#FD7072" stroke="#FD7072" stroke-linecap="round" stroke-linejoin="round"/>
<path d="M273 299.5C266.925 299.5 262 307.425 262 313.5C262 307.425 257.075 299.5 251 299.5C244.925 299.5 240 304.425 240 310.5C240 320.323 256.149 333.629 262 341C267.851 333.629 284 320.323 284 310.5C284 304.425 279.075 299.5 273 299.5Z" fill="#FD7072" stroke="#FD7072" stroke-linecap="round" stroke-linejoin="round"/>
<path d="M139 239C132.925 239 128 246.925 128 253C128 246.925 123.075 239 117 239C110.925 239 106 243.925 106 250C106 259.823 122.149 273.129 128 280.5C133.851 273.129 150 259.823 150 250C150 243.925 145.075 239 139 239Z" fill="#FD7072" stroke="#FD7072" stroke-linecap="round" stroke-linejoin="round"/>
<path d="M139 299.5C132.925 299.5 128 307.425 128 313.5C128 307.425 123.075 299.5 117 299.5C110.925 299.5 106 304.425 106 310.5C106 320.323 122.149 333.629 128 341C133.851 333.629 150 320.323 150 310.5C150 304.425 145.075 299.5 139 299.5Z" fill="#FD7072" stroke="#FD7072" stroke-linecap="round" stroke-linejoin="round"/>
<path d="M206 269C199.925 269 195 276.925 195 283C195 276.925 190.075 269 184 269C177.925 269 173 273.925 173 280C173 289.823 189.149 303.129 195 310.5C200.851 303.129 217 289.823 217 280C217 273.925 212.075 269 206 269Z" fill="#FD7072" stroke="#FD7072" stroke-linecap="round" stroke-linejoin="round"/>
<defs>
<filter id="filter0_d" x="0" y="0" width="391" height="592" filterUnits="userSpaceOnUse" color-interpolation-filters="sRGB">
<feFlood flood-opacity="0" result="BackgroundImageFix"/>
<feColorMatrix in="SourceAlpha" type="matrix" values="0 0 0 0 0 0 0 0 0 0 0 0 0 0 0 0 0 0 127 0"/>
<feMorphology radius="3" operator="dilate" in="SourceAlpha" result="effect1_dropShadow"/>
<feOffset dy="6"/>
<feGaussianBlur stdDeviation="4"/>
<feColorMatrix type="matrix" values="0 0 0 0 0.279463 0 0 0 0 0.0711028 0 0 0 0 0.0740583 0 0 0 0.05 0"/>
<feBlend mode="normal" in2="BackgroundImageFix" result="effect1_dropShadow"/>
<feBlend mode="normal" in="SourceGraphic" in2="effect1_dropShadow" result="shape"/>
</filter>
<clipPath id="clip0">
<path d="M11 22.324C11 12.7562 18.7562 5 28.3239 5H362.676C372.244 5 380 12.7562 380 22.3239V557.676C380 567.244 372.244 575 362.676 575H28.3239C18.7562 575 11 567.244 11 557.676V22.324Z" fill="white"/>
</clipPath>
</defs>
</svg>
