<svg width="391" height="592" viewBox="0 0 391 592" fill="none" xmlns="http://www.w3.org/2000/svg">
<g filter="url(#filter0_d)">
<g clip-path="url(#clip0)">
<path d="M11 22.324C11 12.7562 18.7562 5 28.3239 5H362.676C372.244 5 380 12.7562 380 22.3239V557.676C380 567.244 372.244 575 362.676 575H28.3239C18.7562 575 11 567.244 11 557.676V22.324Z" fill="white"/>
<path d="M65.1056 39.8473L64.3434 36.7422H52.7131L51.8662 45.7472C54.2186 44.5239 56.7028 43.9123 59.3186 43.9123C62.3297 43.9123 64.9738 44.5239 67.2509 45.7472C69.5469 46.9516 71.3159 48.6359 72.558 50.8001C73.8189 52.9455 74.4493 55.2885 74.4493 57.8291C74.4493 60.7649 73.7718 63.362 72.4168 65.6203C71.0807 67.8786 69.1705 69.6005 66.6864 70.7862C64.2022 71.9718 61.3041 72.5646 57.9919 72.5646C53.5129 72.5646 49.862 71.4825 47.0391 69.3183C44.235 67.1352 42.5601 64.0959 42.0143 60.2003L51.104 59.0994C51.7627 63.2208 53.8422 65.2815 57.3426 65.2815C59.4316 65.2815 61.0218 64.6981 62.1133 63.5313C63.2048 62.3645 63.7506 60.699 63.7506 58.5348C63.7506 53.7547 61.6899 51.3647 57.5684 51.3647C55.1408 51.3647 53.0989 52.5033 51.4428 54.7804L43.9339 51.0824L45.43 29.4591H72.3321V39.8473H65.1056Z" fill="#1A1616"/>
<path fill-rule="evenodd" clip-rule="evenodd" d="M59.584 97.4819C59.584 95.1031 61.5428 92 63.959 92C66.3753 92 68.334 93.9284 68.334 96.3072C68.334 99.1363 64.8595 102.703 62.0956 105.54C61.1748 106.485 60.3328 107.35 59.7245 108.079C60.504 107.694 61.4116 107.185 62.3906 106.637C65.8464 104.702 70.1909 102.269 72.9236 103.001C75.2213 103.617 76.5771 106.008 75.9517 108.342C75.3263 110.676 71.822 111.765 69.5242 111.149C71.822 111.765 74.3124 114.46 73.687 116.794C73.0617 119.127 70.692 120.52 68.3942 119.905C65.6616 119.172 63.1157 114.893 61.0905 111.489C60.73 110.883 60.3861 110.305 60.0605 109.78C60.4196 111.832 60.6176 113.865 60.8083 115.823C61.295 120.82 61.7331 125.319 64.6788 128.347C65.9884 129.693 62.4746 131.039 59.5841 131.039C56.713 131.039 53.1627 129.693 54.4723 128.347C57.8083 124.917 58.3108 119.441 58.8211 113.877C58.9552 112.415 59.0899 110.947 59.2767 109.509C58.9018 110.104 58.5011 110.777 58.0776 111.489C56.0524 114.893 53.5065 119.172 50.7738 119.905C48.4761 120.52 46.1064 119.127 45.4811 116.794C44.8557 114.46 47.3461 111.765 49.6439 111.149C47.3461 111.765 43.8418 110.676 43.2164 108.342C42.591 106.008 43.9468 103.617 46.2445 103.001C48.9772 102.269 53.3217 104.702 56.7775 106.637C57.7565 107.185 58.6641 107.694 59.4436 108.079C58.8353 107.35 57.9933 106.486 57.0725 105.54L57.0725 105.54C54.3086 102.703 50.834 99.1363 50.834 96.3072C50.834 93.9284 52.7928 92 55.209 92C57.6253 92 59.584 95.1031 59.584 97.4819Z" fill="#453B3B"/>
<path d="M58.584 97.4819C58.584 98.0342 59.0318 98.4819 59.584 98.4819C60.1363 98.4819 60.584 98.0342 60.584 97.4819H58.584ZM62.0956 105.54L61.3793 104.842L62.0956 105.54ZM59.7245 108.079L58.9567 107.438C58.6539 107.801 58.6465 108.326 58.9389 108.698C59.2314 109.069 59.7438 109.185 60.1675 108.975L59.7245 108.079ZM62.3906 106.637L62.8792 107.51L62.3906 106.637ZM72.9236 103.001L72.6648 103.967L72.9236 103.001ZM75.9517 108.342L74.9858 108.083L75.9517 108.342ZM69.7831 110.183C69.2496 110.04 68.7013 110.357 68.5583 110.89C68.4154 111.423 68.732 111.972 69.2654 112.115L69.7831 110.183ZM73.687 116.794L74.653 117.052L73.687 116.794ZM68.3942 119.905L68.1354 120.871L68.3942 119.905ZM61.0905 111.489L61.9499 110.978L61.0905 111.489ZM60.0605 109.78L60.9106 109.253C60.6582 108.846 60.1523 108.675 59.7045 108.845C59.2567 109.016 58.9929 109.48 59.0755 109.952L60.0605 109.78ZM60.8083 115.823L59.813 115.919L60.8083 115.823ZM64.6788 128.347L65.3955 127.649L64.6788 128.347ZM54.4723 128.347L53.7555 127.649L54.4723 128.347ZM58.8211 113.877L57.8253 113.786L58.8211 113.877ZM59.2767 109.509L60.2684 109.638C60.3288 109.172 60.0573 108.727 59.6156 108.568C59.1739 108.409 58.681 108.579 58.4307 108.976L59.2767 109.509ZM58.0776 111.489L57.2182 110.978L58.0776 111.489ZM50.7738 119.905L51.0327 120.871H51.0327L50.7738 119.905ZM45.4811 116.794L46.447 116.535L45.4811 116.794ZM49.9027 112.115C50.4361 111.972 50.7527 111.423 50.6098 110.89C50.4668 110.357 49.9185 110.04 49.385 110.183L49.9027 112.115ZM43.2164 108.342L44.1823 108.083H44.1823L43.2164 108.342ZM46.2445 103.001L46.5033 103.967H46.5033L46.2445 103.001ZM56.7775 106.637L57.2662 105.765L56.7775 106.637ZM59.4436 108.079L59.0006 108.975C59.4243 109.185 59.9367 109.069 60.2292 108.698C60.5216 108.326 60.5142 107.801 60.2114 107.438L59.4436 108.079ZM57.0725 105.54L56.3326 106.213C56.3403 106.221 56.3482 106.23 56.3562 106.238L57.0725 105.54ZM57.0725 105.54L57.8124 104.868C57.8047 104.859 57.7968 104.851 57.7888 104.842L57.0725 105.54ZM63.959 91C62.3083 91 60.9518 92.0475 60.0608 93.2552C59.1615 94.4741 58.584 96.0485 58.584 97.4819H60.584C60.584 96.5366 60.986 95.3699 61.6702 94.4426C62.3626 93.504 63.1936 93 63.959 93V91ZM69.334 96.3072C69.334 93.3615 66.9128 91 63.959 91V93C65.8378 93 67.334 94.4954 67.334 96.3072H69.334ZM62.8119 106.238C64.1844 104.829 65.7897 103.183 67.0479 101.525C68.2752 99.9078 69.334 98.0775 69.334 96.3072H67.334C67.334 97.3661 66.6556 98.7336 65.4547 100.316C64.2847 101.858 62.7707 103.414 61.3793 104.842L62.8119 106.238ZM60.4924 108.719C61.0705 108.027 61.8813 107.193 62.8119 106.238L61.3793 104.842C60.4682 105.778 59.5952 106.673 58.9567 107.438L60.4924 108.719ZM61.9019 105.765C60.9159 106.317 60.033 106.811 59.2816 107.182L60.1675 108.975C60.975 108.576 61.9074 108.054 62.8792 107.51L61.9019 105.765ZM73.1824 102.035C71.4725 101.577 69.4304 102.126 67.5505 102.893C65.6233 103.679 63.6181 104.804 61.9019 105.765L62.8792 107.51C64.6189 106.535 66.5139 105.476 68.306 104.745C70.1455 103.994 71.642 103.693 72.6648 103.967L73.1824 102.035ZM76.9176 108.601C77.6821 105.747 76.0278 102.797 73.1824 102.035L72.6648 103.967C74.4149 104.436 75.472 106.268 74.9858 108.083L76.9176 108.601ZM69.2654 112.115C70.65 112.486 72.3202 112.335 73.7303 111.782C75.1275 111.234 76.4904 110.195 76.9176 108.601L74.9858 108.083C74.7877 108.822 74.0857 109.495 72.9999 109.92C71.9271 110.341 70.6962 110.428 69.7831 110.183L69.2654 112.115ZM74.653 117.052C75.0802 115.458 74.4195 113.876 73.4835 112.703C72.5389 111.519 71.1677 110.554 69.7831 110.183L69.2654 112.115C70.1786 112.359 71.2014 113.05 71.9201 113.95C72.6475 114.862 72.9192 115.795 72.7211 116.535L74.653 117.052ZM68.1354 120.871C70.9808 121.633 73.8885 119.906 74.653 117.052L72.7211 116.535C72.2349 118.349 70.4032 119.408 68.6531 118.939L68.1354 120.871ZM60.2311 112C61.2368 113.691 62.411 115.667 63.687 117.312C64.9316 118.916 66.4255 120.412 68.1354 120.871L68.6531 118.939C67.6303 118.665 66.485 117.655 65.2671 116.086C64.0806 114.557 62.9694 112.692 61.9499 110.978L60.2311 112ZM59.2105 110.306C59.5304 110.823 59.8695 111.393 60.2311 112L61.9499 110.978C61.5905 110.374 61.2418 109.788 60.9106 109.253L59.2105 110.306ZM61.8035 115.726C61.6135 113.774 61.4122 111.703 61.0455 109.607L59.0755 109.952C59.4269 111.96 59.6218 113.957 59.813 115.919L61.8035 115.726ZM65.3955 127.649C64.0856 126.303 63.3033 124.602 62.7908 122.578C62.2743 120.537 62.0487 118.243 61.8035 115.726L59.813 115.919C60.0545 118.4 60.2913 120.854 60.852 123.069C61.4167 125.3 62.3262 127.362 63.962 129.044L65.3955 127.649ZM59.5841 132.039C61.1529 132.039 62.9027 131.679 64.1312 131.103C64.7188 130.827 65.3503 130.428 65.6979 129.852C65.8878 129.537 66.0066 129.144 65.9444 128.708C65.8834 128.279 65.6646 127.926 65.3955 127.649L63.962 129.044C64.0204 129.104 63.9783 129.087 63.9644 128.99C63.9494 128.885 63.986 128.818 63.9856 128.818C63.9522 128.874 63.7702 129.063 63.2818 129.292C62.3581 129.725 60.9057 130.039 59.5841 130.039V132.039ZM53.7555 127.649C53.4856 127.927 53.2663 128.282 53.2074 128.713C53.1474 129.152 53.2704 129.545 53.4624 129.858C53.8137 130.431 54.4478 130.829 55.0379 131.104C56.2713 131.679 58.0242 132.039 59.5841 132.039V130.039C58.2728 130.039 56.8151 129.726 55.883 129.291C55.3902 129.061 55.2029 128.87 55.1672 128.812C55.1656 128.81 55.2036 128.877 55.1889 128.984C55.1753 129.084 55.1316 129.103 55.1891 129.044L53.7555 127.649ZM57.8253 113.786C57.5686 116.584 57.3204 119.268 56.7347 121.676C56.1511 124.075 55.2519 126.111 53.7555 127.649L55.1891 129.044C57.0287 127.153 58.0488 124.736 58.678 122.149C59.3051 119.57 59.5633 116.734 59.8169 113.969L57.8253 113.786ZM58.285 109.38C58.0954 110.84 57.9591 112.327 57.8253 113.786L59.8169 113.969C59.9514 112.503 60.0844 111.054 60.2684 109.638L58.285 109.38ZM58.937 112C59.3622 111.286 59.756 110.624 60.1227 110.042L58.4307 108.976C58.0476 109.584 57.64 110.269 57.2182 110.978L58.937 112ZM51.0327 120.871C52.7426 120.412 54.2365 118.916 55.4811 117.312C56.7571 115.667 57.9313 113.691 58.937 112L57.2182 110.978C56.1987 112.692 55.0875 114.557 53.901 116.086C52.6831 117.655 51.5378 118.665 50.515 118.939L51.0327 120.871ZM44.5151 117.052C45.2796 119.906 48.1873 121.633 51.0327 120.871L50.515 118.939C48.7649 119.408 46.9332 118.349 46.447 116.535L44.5151 117.052ZM49.385 110.183C48.0004 110.554 46.6292 111.519 45.6846 112.703C44.7486 113.876 44.0879 115.458 44.5151 117.052L46.447 116.535C46.2489 115.795 46.5206 114.862 47.248 113.95C47.9667 113.05 48.9895 112.359 49.9027 112.115L49.385 110.183ZM42.2505 108.601C42.6777 110.195 44.0406 111.234 45.4378 111.782C46.8479 112.335 48.5181 112.486 49.9027 112.115L49.385 110.183C48.4719 110.428 47.241 110.341 46.1682 109.92C45.0824 109.495 44.3804 108.822 44.1823 108.083L42.2505 108.601ZM45.9857 102.035C43.1403 102.797 41.486 105.747 42.2505 108.601L44.1823 108.083C43.6961 106.268 44.7532 104.436 46.5033 103.967L45.9857 102.035ZM57.2662 105.765C55.55 104.804 53.5448 103.679 51.6176 102.893C49.7377 102.126 47.6956 101.577 45.9857 102.035L46.5033 103.967C47.5261 103.693 49.0226 103.994 50.8621 104.745C52.6542 105.476 54.5492 106.535 56.2889 107.51L57.2662 105.765ZM59.8865 107.182C59.1351 106.811 58.2522 106.317 57.2662 105.765L56.2889 107.51C57.2607 108.054 58.1931 108.576 59.0006 108.975L59.8865 107.182ZM56.3562 106.238C57.2868 107.193 58.0976 108.027 58.6757 108.719L60.2114 107.438C59.5729 106.673 58.6999 105.778 57.7888 104.842L56.3562 106.238ZM56.3326 106.213L56.3326 106.213L57.8125 104.868L57.8124 104.868L56.3326 106.213ZM49.834 96.3072C49.834 98.0775 50.8929 99.9078 52.1202 101.525C53.3784 103.183 54.9837 104.829 56.3562 106.238L57.7888 104.842C56.3974 103.414 54.8834 101.858 53.7134 100.316C52.5125 98.7336 51.834 97.3661 51.834 96.3072H49.834ZM55.209 91C52.2553 91 49.834 93.3615 49.834 96.3072H51.834C51.834 94.4954 53.3303 93 55.209 93V91ZM60.584 97.4819C60.584 96.0485 60.0066 94.4741 59.1073 93.2552C58.2163 92.0475 56.8598 91 55.209 91V93C55.9745 93 56.8055 93.504 57.4979 94.4426C58.1821 95.3699 58.584 96.5366 58.584 97.4819H60.584Z" fill="#453B3B"/>
<path d="M326.894 540.153L327.657 543.258H339.287L340.134 534.253C337.781 535.476 335.297 536.088 332.681 536.088C329.67 536.088 327.026 535.476 324.749 534.253C322.453 533.048 320.684 531.364 319.442 529.2C318.181 527.054 317.551 524.711 317.551 522.171C317.551 519.235 318.228 516.638 319.583 514.38C320.919 512.121 322.829 510.399 325.314 509.214C327.798 508.028 330.696 507.435 334.008 507.435C338.487 507.435 342.138 508.518 344.961 510.682C347.765 512.865 349.44 515.904 349.986 519.8L340.896 520.901C340.237 516.779 338.158 514.718 334.657 514.718C332.568 514.718 330.978 515.302 329.887 516.469C328.795 517.635 328.249 519.301 328.249 521.465C328.249 526.245 330.31 528.635 334.432 528.635C336.859 528.635 338.901 527.497 340.557 525.22L348.066 528.918L346.57 550.541H319.668V540.153H326.894Z" fill="#1A1616"/>
<path fill-rule="evenodd" clip-rule="evenodd" d="M332.416 482.518C332.416 484.897 330.457 488 328.041 488C325.625 488 323.666 486.072 323.666 483.693C323.666 480.864 327.14 477.297 329.904 474.46C330.825 473.515 331.667 472.65 332.275 471.921C331.496 472.306 330.588 472.815 329.609 473.363C326.154 475.298 321.809 477.731 319.076 476.999C316.779 476.383 315.423 473.992 316.048 471.658C316.674 469.324 320.178 468.235 322.476 468.851C320.178 468.235 317.688 465.54 318.313 463.206C318.938 460.873 321.308 459.48 323.606 460.095C326.338 460.828 328.884 465.107 330.91 468.511C331.27 469.117 331.614 469.695 331.939 470.22C331.58 468.168 331.382 466.135 331.192 464.177C330.705 459.18 330.267 454.681 327.321 451.653C326.012 450.307 329.525 448.961 332.416 448.961C335.287 448.961 338.837 450.307 337.528 451.653C334.192 455.083 333.689 460.559 333.179 466.123C333.045 467.585 332.91 469.053 332.723 470.491C333.098 469.896 333.499 469.223 333.922 468.511C335.948 465.107 338.493 460.828 341.226 460.095C343.524 459.48 345.894 460.873 346.519 463.206C347.144 465.54 344.654 468.235 342.356 468.851C344.654 468.235 348.158 469.324 348.784 471.658C349.409 473.992 348.053 476.383 345.755 476.999C343.023 477.731 338.678 475.298 335.222 473.363C334.244 472.815 333.336 472.306 332.556 471.921C333.165 472.65 334.007 473.514 334.927 474.46L334.928 474.46C337.691 477.297 341.166 480.864 341.166 483.693C341.166 486.072 339.207 488 336.791 488C334.375 488 332.416 484.897 332.416 482.518Z" fill="#453B3B"/>
<path d="M333.416 482.518C333.416 481.966 332.968 481.518 332.416 481.518C331.864 481.518 331.416 481.966 331.416 482.518H333.416ZM329.904 474.46L330.621 475.158L329.904 474.46ZM332.275 471.921L333.043 472.562C333.346 472.199 333.353 471.674 333.061 471.302C332.769 470.931 332.256 470.815 331.833 471.025L332.275 471.921ZM329.609 473.363L329.121 472.49L329.609 473.363ZM319.076 476.999L319.335 476.033L319.076 476.999ZM316.048 471.658L317.014 471.917L316.048 471.658ZM322.217 469.817C322.75 469.96 323.299 469.643 323.442 469.11C323.585 468.577 323.268 468.028 322.735 467.885L322.217 469.817ZM318.313 463.206L317.347 462.948L318.313 463.206ZM323.606 460.095L323.865 459.129L323.606 460.095ZM330.91 468.511L330.05 469.022L330.91 468.511ZM331.939 470.22L331.089 470.747C331.342 471.154 331.848 471.325 332.295 471.155C332.743 470.984 333.007 470.52 332.925 470.048L331.939 470.22ZM331.192 464.177L332.187 464.081L331.192 464.177ZM327.321 451.653L326.604 452.351L327.321 451.653ZM337.528 451.653L338.244 452.351L337.528 451.653ZM333.179 466.123L334.175 466.214L333.179 466.123ZM332.723 470.491L331.732 470.362C331.671 470.828 331.943 471.273 332.384 471.432C332.826 471.591 333.319 471.421 333.569 471.024L332.723 470.491ZM333.922 468.511L334.782 469.022L333.922 468.511ZM341.226 460.095L340.967 459.129H340.967L341.226 460.095ZM346.519 463.206L345.553 463.465L346.519 463.206ZM342.097 467.885C341.564 468.028 341.247 468.577 341.39 469.11C341.533 469.643 342.082 469.96 342.615 469.817L342.097 467.885ZM348.784 471.658L347.818 471.917H347.818L348.784 471.658ZM345.755 476.999L345.497 476.033H345.497L345.755 476.999ZM335.222 473.363L334.734 474.235L335.222 473.363ZM332.556 471.921L332.999 471.025C332.576 470.815 332.063 470.931 331.771 471.302C331.478 471.674 331.486 472.199 331.789 472.562L332.556 471.921ZM334.927 474.46L335.667 473.787C335.66 473.779 335.652 473.77 335.644 473.762L334.927 474.46ZM334.928 474.46L334.188 475.132C334.195 475.141 334.203 475.149 334.211 475.158L334.928 474.46ZM328.041 489C329.692 489 331.048 487.952 331.939 486.745C332.839 485.526 333.416 483.952 333.416 482.518H331.416C331.416 483.463 331.014 484.63 330.33 485.557C329.637 486.496 328.806 487 328.041 487V489ZM322.666 483.693C322.666 486.639 325.087 489 328.041 489V487C326.162 487 324.666 485.505 324.666 483.693H322.666ZM329.188 473.762C327.816 475.171 326.21 476.817 324.952 478.475C323.725 480.092 322.666 481.923 322.666 483.693H324.666C324.666 482.634 325.344 481.266 326.545 479.684C327.715 478.142 329.229 476.586 330.621 475.158L329.188 473.762ZM331.508 471.281C330.93 471.973 330.119 472.807 329.188 473.762L330.621 475.158C331.532 474.222 332.405 473.327 333.043 472.562L331.508 471.281ZM330.098 474.235C331.084 473.683 331.967 473.189 332.718 472.818L331.833 471.025C331.025 471.424 330.093 471.946 329.121 472.49L330.098 474.235ZM318.818 477.965C320.528 478.423 322.57 477.874 324.449 477.107C326.377 476.321 328.382 475.196 330.098 474.235L329.121 472.49C327.381 473.465 325.486 474.524 323.694 475.255C321.855 476.006 320.358 476.307 319.335 476.033L318.818 477.965ZM315.082 471.399C314.318 474.253 315.972 477.203 318.818 477.965L319.335 476.033C317.585 475.564 316.528 473.732 317.014 471.917L315.082 471.399ZM322.735 467.885C321.35 467.514 319.68 467.665 318.27 468.218C316.873 468.766 315.51 469.805 315.082 471.399L317.014 471.917C317.212 471.178 317.914 470.505 319 470.08C320.073 469.659 321.304 469.572 322.217 469.817L322.735 467.885ZM317.347 462.948C316.92 464.542 317.581 466.124 318.516 467.297C319.461 468.481 320.832 469.446 322.217 469.817L322.735 467.885C321.821 467.641 320.799 466.95 320.08 466.05C319.353 465.138 319.081 464.205 319.279 463.465L317.347 462.948ZM323.865 459.129C321.019 458.367 318.112 460.094 317.347 462.948L319.279 463.465C319.765 461.651 321.597 460.592 323.347 461.061L323.865 459.129ZM331.769 468C330.763 466.309 329.589 464.333 328.313 462.688C327.068 461.084 325.574 459.588 323.865 459.129L323.347 461.061C324.37 461.335 325.515 462.345 326.733 463.914C327.919 465.443 329.031 467.308 330.05 469.022L331.769 468ZM332.79 469.694C332.47 469.177 332.13 468.607 331.769 468L330.05 469.022C330.409 469.626 330.758 470.212 331.089 470.747L332.79 469.694ZM330.196 464.274C330.387 466.226 330.588 468.297 330.954 470.393L332.925 470.048C332.573 468.04 332.378 466.043 332.187 464.081L330.196 464.274ZM326.604 452.351C327.914 453.697 328.697 455.398 329.209 457.422C329.726 459.463 329.951 461.757 330.196 464.274L332.187 464.081C331.945 461.6 331.709 459.146 331.148 456.931C330.583 454.7 329.674 452.638 328.038 450.956L326.604 452.351ZM332.416 447.961C330.847 447.961 329.097 448.321 327.869 448.897C327.281 449.173 326.65 449.572 326.302 450.148C326.112 450.463 325.993 450.856 326.056 451.292C326.117 451.721 326.335 452.074 326.604 452.351L328.038 450.956C327.98 450.896 328.022 450.913 328.036 451.01C328.051 451.115 328.014 451.182 328.014 451.182C328.048 451.126 328.23 450.937 328.718 450.708C329.642 450.275 331.094 449.961 332.416 449.961V447.961ZM338.244 452.351C338.514 452.073 338.734 451.718 338.793 451.287C338.853 450.848 338.73 450.455 338.538 450.142C338.186 449.569 337.552 449.171 336.962 448.896C335.729 448.321 333.976 447.961 332.416 447.961V449.961C333.727 449.961 335.185 450.274 336.117 450.709C336.61 450.939 336.797 451.13 336.833 451.188C336.834 451.19 336.796 451.123 336.811 451.016C336.825 450.916 336.868 450.897 336.811 450.956L338.244 452.351ZM334.175 466.214C334.431 463.416 334.68 460.732 335.265 458.324C335.849 455.925 336.748 453.889 338.244 452.351L336.811 450.956C334.971 452.847 333.951 455.264 333.322 457.851C332.695 460.43 332.437 463.266 332.183 466.031L334.175 466.214ZM333.715 470.62C333.905 469.16 334.041 467.673 334.175 466.214L332.183 466.031C332.049 467.497 331.916 468.946 331.732 470.362L333.715 470.62ZM333.063 468C332.638 468.714 332.244 469.376 331.877 469.958L333.569 471.024C333.952 470.416 334.36 469.731 334.782 469.022L333.063 468ZM340.967 459.129C339.257 459.588 337.763 461.084 336.519 462.688C335.243 464.333 334.069 466.309 333.063 468L334.782 469.022C335.801 467.308 336.913 465.443 338.099 463.914C339.317 462.345 340.462 461.335 341.485 461.061L340.967 459.129ZM347.485 462.948C346.72 460.094 343.813 458.367 340.967 459.129L341.485 461.061C343.235 460.592 345.067 461.651 345.553 463.465L347.485 462.948ZM342.615 469.817C344 469.446 345.371 468.481 346.315 467.297C347.251 466.124 347.912 464.542 347.485 462.948L345.553 463.465C345.751 464.205 345.479 465.138 344.752 466.05C344.033 466.95 343.01 467.641 342.097 467.885L342.615 469.817ZM349.75 471.399C349.322 469.805 347.959 468.766 346.562 468.218C345.152 467.665 343.482 467.514 342.097 467.885L342.615 469.817C343.528 469.572 344.759 469.659 345.832 470.08C346.918 470.505 347.62 471.178 347.818 471.917L349.75 471.399ZM346.014 477.965C348.86 477.203 350.514 474.253 349.75 471.399L347.818 471.917C348.304 473.732 347.247 475.564 345.497 476.033L346.014 477.965ZM334.734 474.235C336.45 475.196 338.455 476.321 340.382 477.107C342.262 477.874 344.304 478.423 346.014 477.965L345.497 476.033C344.474 476.307 342.977 476.006 341.138 475.255C339.346 474.524 337.451 473.465 335.711 472.49L334.734 474.235ZM332.113 472.818C332.865 473.189 333.748 473.683 334.734 474.235L335.711 472.49C334.739 471.946 333.807 471.424 332.999 471.025L332.113 472.818ZM335.644 473.762C334.713 472.807 333.902 471.973 333.324 471.281L331.789 472.562C332.427 473.327 333.3 474.222 334.211 475.158L335.644 473.762ZM335.667 473.787L335.667 473.787L334.188 475.132L334.188 475.132L335.667 473.787ZM342.166 483.693C342.166 481.923 341.107 480.092 339.88 478.475C338.622 476.817 337.016 475.171 335.644 473.762L334.211 475.158C335.603 476.586 337.117 478.142 338.287 479.684C339.488 481.266 340.166 482.634 340.166 483.693H342.166ZM336.791 489C339.745 489 342.166 486.639 342.166 483.693H340.166C340.166 485.505 338.67 487 336.791 487V489ZM331.416 482.518C331.416 483.952 331.993 485.526 332.893 486.745C333.784 487.952 335.14 489 336.791 489V487C336.025 487 335.194 486.496 334.502 485.557C333.818 484.63 333.416 483.463 333.416 482.518H331.416Z" fill="#453B3B"/>
</g>
<path d="M28.3239 6H362.676V4H28.3239V6ZM379 22.3239V557.676H381V22.3239H379ZM362.676 574H28.3239V576H362.676V574ZM12 557.676V22.324H10V557.676H12ZM28.3239 574C19.3085 574 12 566.692 12 557.676H10C10 567.796 18.2039 576 28.3239 576V574ZM379 557.676C379 566.691 371.692 574 362.676 574V576C372.796 576 381 567.796 381 557.676H379ZM362.676 6C371.692 6 379 13.3085 379 22.3239H381C381 12.2039 372.796 4 362.676 4V6ZM28.3239 4C18.2039 4 10 12.2039 10 22.324H12C12 13.3085 19.3085 6 28.3239 6V4Z" fill="#D9D8D8"/>
</g>
<path fill-rule="evenodd" clip-rule="evenodd" d="M262.584 245.482C262.584 243.103 264.543 240 266.959 240C269.375 240 271.334 241.928 271.334 244.307C271.334 247.136 267.86 250.703 265.096 253.54C264.175 254.485 263.333 255.35 262.725 256.079C263.504 255.694 264.412 255.185 265.391 254.637C268.846 252.702 273.191 250.269 275.924 251.001C278.221 251.617 279.577 254.008 278.952 256.342C278.326 258.676 274.822 259.765 272.524 259.149C274.822 259.765 277.312 262.46 276.687 264.794C276.062 267.127 273.692 268.52 271.394 267.905C268.662 267.172 266.116 262.893 264.09 259.489C263.73 258.883 263.386 258.305 263.061 257.78C263.42 259.832 263.618 261.865 263.808 263.823C264.295 268.82 264.733 273.319 267.679 276.347C268.988 277.693 265.475 279.039 262.584 279.039C259.713 279.039 256.163 277.693 257.472 276.347C260.808 272.917 261.311 267.441 261.821 261.877C261.955 260.415 262.09 258.947 262.277 257.509C261.902 258.104 261.501 258.777 261.078 259.489C259.052 262.893 256.507 267.172 253.774 267.905C251.476 268.52 249.106 267.127 248.481 264.794C247.856 262.46 250.346 259.765 252.644 259.149C250.346 259.765 246.842 258.676 246.216 256.342C245.591 254.008 246.947 251.617 249.245 251.001C251.977 250.269 256.322 252.702 259.778 254.637C260.756 255.185 261.664 255.694 262.444 256.079C261.835 255.35 260.993 254.486 260.073 253.54L260.072 253.54C257.309 250.703 253.834 247.136 253.834 244.307C253.834 241.928 255.793 240 258.209 240C260.625 240 262.584 243.103 262.584 245.482Z" fill="#453B3B"/>
<path d="M261.584 245.482C261.584 246.034 262.032 246.482 262.584 246.482C263.136 246.482 263.584 246.034 263.584 245.482H261.584ZM265.096 253.54L264.379 252.842L265.096 253.54ZM262.725 256.079L261.957 255.438C261.654 255.801 261.647 256.326 261.939 256.698C262.231 257.069 262.744 257.185 263.167 256.975L262.725 256.079ZM265.391 254.637L265.879 255.51L265.391 254.637ZM275.924 251.001L275.665 251.967L275.924 251.001ZM278.952 256.342L277.986 256.083L278.952 256.342ZM272.783 258.183C272.25 258.04 271.701 258.357 271.558 258.89C271.415 259.423 271.732 259.972 272.265 260.115L272.783 258.183ZM276.687 264.794L277.653 265.052L276.687 264.794ZM271.394 267.905L271.135 268.871L271.394 267.905ZM264.09 259.489L264.95 258.978L264.09 259.489ZM263.061 257.78L263.911 257.253C263.658 256.846 263.152 256.675 262.705 256.845C262.257 257.016 261.993 257.48 262.075 257.952L263.061 257.78ZM263.808 263.823L262.813 263.919L263.808 263.823ZM267.679 276.347L268.396 275.649L267.679 276.347ZM257.472 276.347L256.756 275.649L257.472 276.347ZM261.821 261.877L260.825 261.786L261.821 261.877ZM262.277 257.509L263.268 257.638C263.329 257.172 263.057 256.727 262.616 256.568C262.174 256.409 261.681 256.579 261.431 256.976L262.277 257.509ZM261.078 259.489L260.218 258.978L261.078 259.489ZM253.774 267.905L254.033 268.871H254.033L253.774 267.905ZM248.481 264.794L249.447 264.535L248.481 264.794ZM252.903 260.115C253.436 259.972 253.753 259.423 253.61 258.89C253.467 258.357 252.918 258.04 252.385 258.183L252.903 260.115ZM246.216 256.342L247.182 256.083H247.182L246.216 256.342ZM249.245 251.001L249.503 251.967H249.503L249.245 251.001ZM259.778 254.637L260.266 253.765L259.778 254.637ZM262.444 256.079L262.001 256.975C262.424 257.185 262.937 257.069 263.229 256.698C263.522 256.326 263.514 255.801 263.211 255.438L262.444 256.079ZM260.073 253.54L259.333 254.213C259.34 254.221 259.348 254.23 259.356 254.238L260.073 253.54ZM260.072 253.54L260.812 252.868C260.805 252.859 260.797 252.851 260.789 252.842L260.072 253.54ZM266.959 239C265.308 239 263.952 240.048 263.061 241.255C262.161 242.474 261.584 244.048 261.584 245.482H263.584C263.584 244.537 263.986 243.37 264.67 242.443C265.363 241.504 266.194 241 266.959 241V239ZM272.334 244.307C272.334 241.361 269.913 239 266.959 239V241C268.838 241 270.334 242.495 270.334 244.307H272.334ZM265.812 254.238C267.184 252.829 268.79 251.183 270.048 249.525C271.275 247.908 272.334 246.077 272.334 244.307H270.334C270.334 245.366 269.656 246.734 268.455 248.316C267.285 249.858 265.771 251.414 264.379 252.842L265.812 254.238ZM263.492 256.719C264.07 256.027 264.881 255.193 265.812 254.238L264.379 252.842C263.468 253.778 262.595 254.673 261.957 255.438L263.492 256.719ZM264.902 253.765C263.916 254.317 263.033 254.811 262.282 255.182L263.167 256.975C263.975 256.576 264.907 256.054 265.879 255.51L264.902 253.765ZM276.182 250.035C274.472 249.577 272.43 250.126 270.551 250.893C268.623 251.679 266.618 252.804 264.902 253.765L265.879 255.51C267.619 254.535 269.514 253.476 271.306 252.745C273.145 251.994 274.642 251.693 275.665 251.967L276.182 250.035ZM279.918 256.601C280.682 253.747 279.028 250.797 276.182 250.035L275.665 251.967C277.415 252.436 278.472 254.268 277.986 256.083L279.918 256.601ZM272.265 260.115C273.65 260.486 275.32 260.335 276.73 259.782C278.127 259.234 279.49 258.195 279.918 256.601L277.986 256.083C277.788 256.822 277.086 257.495 276 257.92C274.927 258.341 273.696 258.428 272.783 258.183L272.265 260.115ZM277.653 265.052C278.08 263.458 277.419 261.876 276.484 260.703C275.539 259.519 274.168 258.554 272.783 258.183L272.265 260.115C273.179 260.359 274.201 261.05 274.92 261.95C275.647 262.862 275.919 263.795 275.721 264.535L277.653 265.052ZM271.135 268.871C273.981 269.633 276.888 267.906 277.653 265.052L275.721 264.535C275.235 266.349 273.403 267.408 271.653 266.939L271.135 268.871ZM263.231 260C264.237 261.691 265.411 263.667 266.687 265.312C267.932 266.916 269.426 268.412 271.135 268.871L271.653 266.939C270.63 266.665 269.485 265.655 268.267 264.086C267.081 262.557 265.969 260.692 264.95 258.978L263.231 260ZM262.21 258.306C262.53 258.823 262.87 259.393 263.231 260L264.95 258.978C264.591 258.374 264.242 257.788 263.911 257.253L262.21 258.306ZM264.804 263.726C264.613 261.774 264.412 259.703 264.046 257.607L262.075 257.952C262.427 259.96 262.622 261.957 262.813 263.919L264.804 263.726ZM268.396 275.649C267.086 274.303 266.303 272.602 265.791 270.578C265.274 268.537 265.049 266.243 264.804 263.726L262.813 263.919C263.055 266.4 263.291 268.854 263.852 271.069C264.417 273.3 265.326 275.362 266.962 277.044L268.396 275.649ZM262.584 280.039C264.153 280.039 265.903 279.679 267.131 279.103C267.719 278.827 268.35 278.428 268.698 277.852C268.888 277.537 269.007 277.144 268.944 276.708C268.883 276.279 268.665 275.926 268.396 275.649L266.962 277.044C267.02 277.104 266.978 277.087 266.964 276.99C266.949 276.885 266.986 276.818 266.986 276.818C266.952 276.874 266.77 277.063 266.282 277.292C265.358 277.725 263.906 278.039 262.584 278.039V280.039ZM256.756 275.649C256.486 275.927 256.266 276.282 256.207 276.713C256.147 277.152 256.27 277.545 256.462 277.858C256.814 278.431 257.448 278.829 258.038 279.104C259.271 279.679 261.024 280.039 262.584 280.039V278.039C261.273 278.039 259.815 277.726 258.883 277.291C258.39 277.061 258.203 276.87 258.167 276.812C258.166 276.81 258.204 276.877 258.189 276.984C258.175 277.084 258.132 277.103 258.189 277.044L256.756 275.649ZM260.825 261.786C260.569 264.584 260.32 267.268 259.735 269.676C259.151 272.075 258.252 274.111 256.756 275.649L258.189 277.044C260.029 275.153 261.049 272.736 261.678 270.149C262.305 267.57 262.563 264.734 262.817 261.969L260.825 261.786ZM261.285 257.38C261.095 258.84 260.959 260.327 260.825 261.786L262.817 261.969C262.951 260.503 263.084 259.054 263.268 257.638L261.285 257.38ZM261.937 260C262.362 259.286 262.756 258.624 263.123 258.042L261.431 256.976C261.048 257.584 260.64 258.269 260.218 258.978L261.937 260ZM254.033 268.871C255.743 268.412 257.237 266.916 258.481 265.312C259.757 263.667 260.931 261.691 261.937 260L260.218 258.978C259.199 260.692 258.087 262.557 256.901 264.086C255.683 265.655 254.538 266.665 253.515 266.939L254.033 268.871ZM247.515 265.052C248.28 267.906 251.187 269.633 254.033 268.871L253.515 266.939C251.765 267.408 249.933 266.349 249.447 264.535L247.515 265.052ZM252.385 258.183C251 258.554 249.629 259.519 248.685 260.703C247.749 261.876 247.088 263.458 247.515 265.052L249.447 264.535C249.249 263.795 249.521 262.862 250.248 261.95C250.967 261.05 251.99 260.359 252.903 260.115L252.385 258.183ZM245.25 256.601C245.678 258.195 247.041 259.234 248.438 259.782C249.848 260.335 251.518 260.486 252.903 260.115L252.385 258.183C251.472 258.428 250.241 258.341 249.168 257.92C248.082 257.495 247.38 256.822 247.182 256.083L245.25 256.601ZM248.986 250.035C246.14 250.797 244.486 253.747 245.25 256.601L247.182 256.083C246.696 254.268 247.753 252.436 249.503 251.967L248.986 250.035ZM260.266 253.765C258.55 252.804 256.545 251.679 254.618 250.893C252.738 250.126 250.696 249.577 248.986 250.035L249.503 251.967C250.526 251.693 252.023 251.994 253.862 252.745C255.654 253.476 257.549 254.535 259.289 255.51L260.266 253.765ZM262.887 255.182C262.135 254.811 261.252 254.317 260.266 253.765L259.289 255.51C260.261 256.054 261.193 256.576 262.001 256.975L262.887 255.182ZM259.356 254.238C260.287 255.193 261.098 256.027 261.676 256.719L263.211 255.438C262.573 254.673 261.7 253.778 260.789 252.842L259.356 254.238ZM259.333 254.213L259.333 254.213L260.812 252.868L260.812 252.868L259.333 254.213ZM252.834 244.307C252.834 246.077 253.893 247.908 255.12 249.525C256.378 251.183 257.984 252.829 259.356 254.238L260.789 252.842C259.397 251.414 257.883 249.858 256.713 248.316C255.512 246.734 254.834 245.366 254.834 244.307H252.834ZM258.209 239C255.255 239 252.834 241.361 252.834 244.307H254.834C254.834 242.495 256.33 241 258.209 241V239ZM263.584 245.482C263.584 244.048 263.007 242.474 262.107 241.255C261.216 240.048 259.86 239 258.209 239V241C258.975 241 259.806 241.504 260.498 242.443C261.182 243.37 261.584 244.537 261.584 245.482H263.584Z" fill="#453B3B"/>
<path fill-rule="evenodd" clip-rule="evenodd" d="M262.584 305.982C262.584 303.603 264.543 300.5 266.959 300.5C269.375 300.5 271.334 302.428 271.334 304.807C271.334 307.636 267.86 311.203 265.096 314.04C264.175 314.985 263.333 315.85 262.725 316.579C263.504 316.194 264.412 315.685 265.391 315.137C268.846 313.202 273.191 310.769 275.924 311.501C278.221 312.117 279.577 314.508 278.952 316.842C278.326 319.176 274.822 320.265 272.524 319.649C274.822 320.265 277.312 322.96 276.687 325.294C276.062 327.627 273.692 329.02 271.394 328.405C268.662 327.672 266.116 323.393 264.09 319.989C263.73 319.383 263.386 318.805 263.061 318.28C263.42 320.332 263.618 322.365 263.808 324.323C264.295 329.32 264.733 333.819 267.679 336.847C268.988 338.193 265.475 339.539 262.584 339.539C259.713 339.539 256.163 338.193 257.472 336.847C260.808 333.417 261.311 327.941 261.821 322.377C261.955 320.915 262.09 319.447 262.277 318.009C261.902 318.604 261.501 319.277 261.078 319.989C259.052 323.393 256.507 327.672 253.774 328.405C251.476 329.02 249.106 327.627 248.481 325.294C247.856 322.96 250.346 320.265 252.644 319.649C250.346 320.265 246.842 319.176 246.216 316.842C245.591 314.508 246.947 312.117 249.245 311.501C251.977 310.769 256.322 313.202 259.778 315.137C260.756 315.685 261.664 316.194 262.444 316.579C261.835 315.85 260.993 314.986 260.073 314.04L260.072 314.04C257.309 311.203 253.834 307.636 253.834 304.807C253.834 302.428 255.793 300.5 258.209 300.5C260.625 300.5 262.584 303.603 262.584 305.982Z" fill="#453B3B"/>
<path d="M261.584 305.982C261.584 306.534 262.032 306.982 262.584 306.982C263.136 306.982 263.584 306.534 263.584 305.982H261.584ZM265.096 314.04L264.379 313.342L265.096 314.04ZM262.725 316.579L261.957 315.938C261.654 316.301 261.647 316.826 261.939 317.198C262.231 317.569 262.744 317.685 263.167 317.475L262.725 316.579ZM265.391 315.137L265.879 316.01L265.391 315.137ZM275.924 311.501L275.665 312.467L275.924 311.501ZM278.952 316.842L277.986 316.583L278.952 316.842ZM272.783 318.683C272.25 318.54 271.701 318.857 271.558 319.39C271.415 319.923 271.732 320.472 272.265 320.615L272.783 318.683ZM276.687 325.294L277.653 325.552L276.687 325.294ZM271.394 328.405L271.135 329.371L271.394 328.405ZM264.09 319.989L264.95 319.478L264.09 319.989ZM263.061 318.28L263.911 317.753C263.658 317.346 263.152 317.175 262.705 317.345C262.257 317.516 261.993 317.98 262.075 318.452L263.061 318.28ZM263.808 324.323L262.813 324.419L263.808 324.323ZM267.679 336.847L268.396 336.149L267.679 336.847ZM257.472 336.847L256.756 336.149L257.472 336.847ZM261.821 322.377L260.825 322.286L261.821 322.377ZM262.277 318.009L263.268 318.138C263.329 317.672 263.057 317.227 262.616 317.068C262.174 316.909 261.681 317.079 261.431 317.476L262.277 318.009ZM261.078 319.989L260.218 319.478L261.078 319.989ZM253.774 328.405L254.033 329.371H254.033L253.774 328.405ZM248.481 325.294L249.447 325.035L248.481 325.294ZM252.903 320.615C253.436 320.472 253.753 319.923 253.61 319.39C253.467 318.857 252.918 318.54 252.385 318.683L252.903 320.615ZM246.216 316.842L247.182 316.583H247.182L246.216 316.842ZM249.245 311.501L249.503 312.467H249.503L249.245 311.501ZM259.778 315.137L260.266 314.265L259.778 315.137ZM262.444 316.579L262.001 317.475C262.424 317.685 262.937 317.569 263.229 317.198C263.522 316.826 263.514 316.301 263.211 315.938L262.444 316.579ZM260.073 314.04L259.333 314.713C259.34 314.721 259.348 314.73 259.356 314.738L260.073 314.04ZM260.072 314.04L260.812 313.368C260.805 313.359 260.797 313.351 260.789 313.342L260.072 314.04ZM266.959 299.5C265.308 299.5 263.952 300.548 263.061 301.755C262.161 302.974 261.584 304.548 261.584 305.982H263.584C263.584 305.037 263.986 303.87 264.67 302.943C265.363 302.004 266.194 301.5 266.959 301.5V299.5ZM272.334 304.807C272.334 301.861 269.913 299.5 266.959 299.5V301.5C268.838 301.5 270.334 302.995 270.334 304.807H272.334ZM265.812 314.738C267.184 313.329 268.79 311.683 270.048 310.025C271.275 308.408 272.334 306.577 272.334 304.807H270.334C270.334 305.866 269.656 307.234 268.455 308.816C267.285 310.358 265.771 311.914 264.379 313.342L265.812 314.738ZM263.492 317.219C264.07 316.527 264.881 315.693 265.812 314.738L264.379 313.342C263.468 314.278 262.595 315.173 261.957 315.938L263.492 317.219ZM264.902 314.265C263.916 314.817 263.033 315.311 262.282 315.682L263.167 317.475C263.975 317.076 264.907 316.554 265.879 316.01L264.902 314.265ZM276.182 310.535C274.472 310.077 272.43 310.626 270.551 311.393C268.623 312.179 266.618 313.304 264.902 314.265L265.879 316.01C267.619 315.035 269.514 313.976 271.306 313.245C273.145 312.494 274.642 312.193 275.665 312.467L276.182 310.535ZM279.918 317.101C280.682 314.247 279.028 311.297 276.182 310.535L275.665 312.467C277.415 312.936 278.472 314.768 277.986 316.583L279.918 317.101ZM272.265 320.615C273.65 320.986 275.32 320.835 276.73 320.282C278.127 319.734 279.49 318.695 279.918 317.101L277.986 316.583C277.788 317.322 277.086 317.995 276 318.42C274.927 318.841 273.696 318.928 272.783 318.683L272.265 320.615ZM277.653 325.552C278.08 323.958 277.419 322.376 276.484 321.203C275.539 320.019 274.168 319.054 272.783 318.683L272.265 320.615C273.179 320.859 274.201 321.55 274.92 322.45C275.647 323.362 275.919 324.295 275.721 325.035L277.653 325.552ZM271.135 329.371C273.981 330.133 276.888 328.406 277.653 325.552L275.721 325.035C275.235 326.849 273.403 327.908 271.653 327.439L271.135 329.371ZM263.231 320.5C264.237 322.191 265.411 324.167 266.687 325.812C267.932 327.416 269.426 328.912 271.135 329.371L271.653 327.439C270.63 327.165 269.485 326.155 268.267 324.586C267.081 323.057 265.969 321.192 264.95 319.478L263.231 320.5ZM262.21 318.806C262.53 319.323 262.87 319.893 263.231 320.5L264.95 319.478C264.591 318.874 264.242 318.288 263.911 317.753L262.21 318.806ZM264.804 324.226C264.613 322.274 264.412 320.203 264.046 318.107L262.075 318.452C262.427 320.46 262.622 322.457 262.813 324.419L264.804 324.226ZM268.396 336.149C267.086 334.803 266.303 333.102 265.791 331.078C265.274 329.037 265.049 326.743 264.804 324.226L262.813 324.419C263.055 326.9 263.291 329.354 263.852 331.569C264.417 333.8 265.326 335.862 266.962 337.544L268.396 336.149ZM262.584 340.539C264.153 340.539 265.903 340.179 267.131 339.603C267.719 339.327 268.35 338.928 268.698 338.352C268.888 338.037 269.007 337.644 268.944 337.208C268.883 336.779 268.665 336.426 268.396 336.149L266.962 337.544C267.02 337.604 266.978 337.587 266.964 337.49C266.949 337.385 266.986 337.318 266.986 337.318C266.952 337.374 266.77 337.563 266.282 337.792C265.358 338.225 263.906 338.539 262.584 338.539V340.539ZM256.756 336.149C256.486 336.427 256.266 336.782 256.207 337.213C256.147 337.652 256.27 338.045 256.462 338.358C256.814 338.931 257.448 339.329 258.038 339.604C259.271 340.179 261.024 340.539 262.584 340.539V338.539C261.273 338.539 259.815 338.226 258.883 337.791C258.39 337.561 258.203 337.37 258.167 337.312C258.166 337.31 258.204 337.377 258.189 337.484C258.175 337.584 258.132 337.603 258.189 337.544L256.756 336.149ZM260.825 322.286C260.569 325.084 260.32 327.768 259.735 330.176C259.151 332.575 258.252 334.611 256.756 336.149L258.189 337.544C260.029 335.653 261.049 333.236 261.678 330.649C262.305 328.07 262.563 325.234 262.817 322.469L260.825 322.286ZM261.285 317.88C261.095 319.34 260.959 320.827 260.825 322.286L262.817 322.469C262.951 321.003 263.084 319.554 263.268 318.138L261.285 317.88ZM261.937 320.5C262.362 319.786 262.756 319.124 263.123 318.542L261.431 317.476C261.048 318.084 260.64 318.769 260.218 319.478L261.937 320.5ZM254.033 329.371C255.743 328.912 257.237 327.416 258.481 325.812C259.757 324.167 260.931 322.191 261.937 320.5L260.218 319.478C259.199 321.192 258.087 323.057 256.901 324.586C255.683 326.155 254.538 327.165 253.515 327.439L254.033 329.371ZM247.515 325.552C248.28 328.406 251.187 330.133 254.033 329.371L253.515 327.439C251.765 327.908 249.933 326.849 249.447 325.035L247.515 325.552ZM252.385 318.683C251 319.054 249.629 320.019 248.685 321.203C247.749 322.376 247.088 323.958 247.515 325.552L249.447 325.035C249.249 324.295 249.521 323.362 250.248 322.45C250.967 321.55 251.99 320.859 252.903 320.615L252.385 318.683ZM245.25 317.101C245.678 318.695 247.041 319.734 248.438 320.282C249.848 320.835 251.518 320.986 252.903 320.615L252.385 318.683C251.472 318.928 250.241 318.841 249.168 318.42C248.082 317.995 247.38 317.322 247.182 316.583L245.25 317.101ZM248.986 310.535C246.14 311.297 244.486 314.247 245.25 317.101L247.182 316.583C246.696 314.768 247.753 312.936 249.503 312.467L248.986 310.535ZM260.266 314.265C258.55 313.304 256.545 312.179 254.618 311.393C252.738 310.626 250.696 310.077 248.986 310.535L249.503 312.467C250.526 312.193 252.023 312.494 253.862 313.245C255.654 313.976 257.549 315.035 259.289 316.01L260.266 314.265ZM262.887 315.682C262.135 315.311 261.252 314.817 260.266 314.265L259.289 316.01C260.261 316.554 261.193 317.076 262.001 317.475L262.887 315.682ZM259.356 314.738C260.287 315.693 261.098 316.527 261.676 317.219L263.211 315.938C262.573 315.173 261.7 314.278 260.789 313.342L259.356 314.738ZM259.333 314.713L259.333 314.713L260.812 313.368L260.812 313.368L259.333 314.713ZM252.834 304.807C252.834 306.577 253.893 308.408 255.12 310.025C256.378 311.683 257.984 313.329 259.356 314.738L260.789 313.342C259.397 311.914 257.883 310.358 256.713 308.816C255.512 307.234 254.834 305.866 254.834 304.807H252.834ZM258.209 299.5C255.255 299.5 252.834 301.861 252.834 304.807H254.834C254.834 302.995 256.33 301.5 258.209 301.5V299.5ZM263.584 305.982C263.584 304.548 263.007 302.974 262.107 301.755C261.216 300.548 259.86 299.5 258.209 299.5V301.5C258.975 301.5 259.806 302.004 260.498 302.943C261.182 303.87 261.584 305.037 261.584 305.982H263.584Z" fill="#453B3B"/>
<path fill-rule="evenodd" clip-rule="evenodd" d="M128.584 245.482C128.584 243.103 130.543 240 132.959 240C135.375 240 137.334 241.928 137.334 244.307C137.334 247.136 133.86 250.703 131.096 253.54C130.175 254.485 129.333 255.35 128.725 256.079C129.504 255.694 130.412 255.185 131.391 254.637C134.846 252.702 139.191 250.269 141.924 251.001C144.221 251.617 145.577 254.008 144.952 256.342C144.326 258.676 140.822 259.765 138.524 259.149C140.822 259.765 143.312 262.46 142.687 264.794C142.062 267.127 139.692 268.52 137.394 267.905C134.662 267.172 132.116 262.893 130.09 259.489C129.73 258.883 129.386 258.305 129.061 257.78C129.42 259.832 129.618 261.865 129.808 263.823C130.295 268.82 130.733 273.319 133.679 276.347C134.988 277.693 131.475 279.039 128.584 279.039C125.713 279.039 122.163 277.693 123.472 276.347C126.808 272.917 127.311 267.441 127.821 261.877C127.955 260.415 128.09 258.947 128.277 257.509C127.902 258.104 127.501 258.777 127.078 259.489C125.052 262.893 122.507 267.172 119.774 267.905C117.476 268.52 115.106 267.127 114.481 264.794C113.856 262.46 116.346 259.765 118.644 259.149C116.346 259.765 112.842 258.676 112.216 256.342C111.591 254.008 112.947 251.617 115.245 251.001C117.977 250.269 122.322 252.702 125.778 254.637C126.756 255.185 127.664 255.694 128.444 256.079C127.835 255.35 126.993 254.486 126.073 253.54L126.072 253.54C123.309 250.703 119.834 247.136 119.834 244.307C119.834 241.928 121.793 240 124.209 240C126.625 240 128.584 243.103 128.584 245.482Z" fill="#453B3B"/>
<path d="M127.584 245.482C127.584 246.034 128.032 246.482 128.584 246.482C129.136 246.482 129.584 246.034 129.584 245.482H127.584ZM131.096 253.54L130.379 252.842L131.096 253.54ZM128.725 256.079L127.957 255.438C127.654 255.801 127.647 256.326 127.939 256.698C128.231 257.069 128.744 257.185 129.167 256.975L128.725 256.079ZM131.391 254.637L131.879 255.51L131.391 254.637ZM141.924 251.001L141.665 251.967L141.924 251.001ZM144.952 256.342L143.986 256.083L144.952 256.342ZM138.783 258.183C138.25 258.04 137.701 258.357 137.558 258.89C137.415 259.423 137.732 259.972 138.265 260.115L138.783 258.183ZM142.687 264.794L143.653 265.052L142.687 264.794ZM137.394 267.905L137.135 268.871L137.394 267.905ZM130.09 259.489L130.95 258.978L130.09 259.489ZM129.061 257.78L129.911 257.253C129.658 256.846 129.152 256.675 128.705 256.845C128.257 257.016 127.993 257.48 128.075 257.952L129.061 257.78ZM129.808 263.823L128.813 263.919L129.808 263.823ZM133.679 276.347L134.396 275.649L133.679 276.347ZM123.472 276.347L122.756 275.649L123.472 276.347ZM127.821 261.877L126.825 261.786L127.821 261.877ZM128.277 257.509L129.268 257.638C129.329 257.172 129.057 256.727 128.616 256.568C128.174 256.409 127.681 256.579 127.431 256.976L128.277 257.509ZM127.078 259.489L126.218 258.978L127.078 259.489ZM119.774 267.905L120.033 268.871H120.033L119.774 267.905ZM114.481 264.794L115.447 264.535L114.481 264.794ZM118.903 260.115C119.436 259.972 119.753 259.423 119.61 258.89C119.467 258.357 118.918 258.04 118.385 258.183L118.903 260.115ZM112.216 256.342L113.182 256.083H113.182L112.216 256.342ZM115.245 251.001L115.503 251.967H115.503L115.245 251.001ZM125.778 254.637L126.266 253.765L125.778 254.637ZM128.444 256.079L128.001 256.975C128.424 257.185 128.937 257.069 129.229 256.698C129.522 256.326 129.514 255.801 129.211 255.438L128.444 256.079ZM126.073 253.54L125.333 254.213C125.34 254.221 125.348 254.23 125.356 254.238L126.073 253.54ZM126.072 253.54L126.812 252.868C126.805 252.859 126.797 252.851 126.789 252.842L126.072 253.54ZM132.959 239C131.308 239 129.952 240.048 129.061 241.255C128.161 242.474 127.584 244.048 127.584 245.482H129.584C129.584 244.537 129.986 243.37 130.67 242.443C131.363 241.504 132.194 241 132.959 241V239ZM138.334 244.307C138.334 241.361 135.913 239 132.959 239V241C134.838 241 136.334 242.495 136.334 244.307H138.334ZM131.812 254.238C133.184 252.829 134.79 251.183 136.048 249.525C137.275 247.908 138.334 246.077 138.334 244.307H136.334C136.334 245.366 135.656 246.734 134.455 248.316C133.285 249.858 131.771 251.414 130.379 252.842L131.812 254.238ZM129.492 256.719C130.07 256.027 130.881 255.193 131.812 254.238L130.379 252.842C129.468 253.778 128.595 254.673 127.957 255.438L129.492 256.719ZM130.902 253.765C129.916 254.317 129.033 254.811 128.282 255.182L129.167 256.975C129.975 256.576 130.907 256.054 131.879 255.51L130.902 253.765ZM142.182 250.035C140.472 249.577 138.43 250.126 136.551 250.893C134.623 251.679 132.618 252.804 130.902 253.765L131.879 255.51C133.619 254.535 135.514 253.476 137.306 252.745C139.145 251.994 140.642 251.693 141.665 251.967L142.182 250.035ZM145.918 256.601C146.682 253.747 145.028 250.797 142.182 250.035L141.665 251.967C143.415 252.436 144.472 254.268 143.986 256.083L145.918 256.601ZM138.265 260.115C139.65 260.486 141.32 260.335 142.73 259.782C144.127 259.234 145.49 258.195 145.918 256.601L143.986 256.083C143.788 256.822 143.086 257.495 142 257.92C140.927 258.341 139.696 258.428 138.783 258.183L138.265 260.115ZM143.653 265.052C144.08 263.458 143.419 261.876 142.484 260.703C141.539 259.519 140.168 258.554 138.783 258.183L138.265 260.115C139.179 260.359 140.201 261.05 140.92 261.95C141.647 262.862 141.919 263.795 141.721 264.535L143.653 265.052ZM137.135 268.871C139.981 269.633 142.888 267.906 143.653 265.052L141.721 264.535C141.235 266.349 139.403 267.408 137.653 266.939L137.135 268.871ZM129.231 260C130.237 261.691 131.411 263.667 132.687 265.312C133.932 266.916 135.426 268.412 137.135 268.871L137.653 266.939C136.63 266.665 135.485 265.655 134.267 264.086C133.081 262.557 131.969 260.692 130.95 258.978L129.231 260ZM128.21 258.306C128.53 258.823 128.87 259.393 129.231 260L130.95 258.978C130.591 258.374 130.242 257.788 129.911 257.253L128.21 258.306ZM130.804 263.726C130.613 261.774 130.412 259.703 130.046 257.607L128.075 257.952C128.427 259.96 128.622 261.957 128.813 263.919L130.804 263.726ZM134.396 275.649C133.086 274.303 132.303 272.602 131.791 270.578C131.274 268.537 131.049 266.243 130.804 263.726L128.813 263.919C129.055 266.4 129.291 268.854 129.852 271.069C130.417 273.3 131.326 275.362 132.962 277.044L134.396 275.649ZM128.584 280.039C130.153 280.039 131.903 279.679 133.131 279.103C133.719 278.827 134.35 278.428 134.698 277.852C134.888 277.537 135.007 277.144 134.944 276.708C134.883 276.279 134.665 275.926 134.396 275.649L132.962 277.044C133.02 277.104 132.978 277.087 132.964 276.99C132.949 276.885 132.986 276.818 132.986 276.818C132.952 276.874 132.77 277.063 132.282 277.292C131.358 277.725 129.906 278.039 128.584 278.039V280.039ZM122.756 275.649C122.486 275.927 122.266 276.282 122.207 276.713C122.147 277.152 122.27 277.545 122.462 277.858C122.814 278.431 123.448 278.829 124.038 279.104C125.271 279.679 127.024 280.039 128.584 280.039V278.039C127.273 278.039 125.815 277.726 124.883 277.291C124.39 277.061 124.203 276.87 124.167 276.812C124.166 276.81 124.204 276.877 124.189 276.984C124.175 277.084 124.132 277.103 124.189 277.044L122.756 275.649ZM126.825 261.786C126.569 264.584 126.32 267.268 125.735 269.676C125.151 272.075 124.252 274.111 122.756 275.649L124.189 277.044C126.029 275.153 127.049 272.736 127.678 270.149C128.305 267.57 128.563 264.734 128.817 261.969L126.825 261.786ZM127.285 257.38C127.095 258.84 126.959 260.327 126.825 261.786L128.817 261.969C128.951 260.503 129.084 259.054 129.268 257.638L127.285 257.38ZM127.937 260C128.362 259.286 128.756 258.624 129.123 258.042L127.431 256.976C127.048 257.584 126.64 258.269 126.218 258.978L127.937 260ZM120.033 268.871C121.743 268.412 123.237 266.916 124.481 265.312C125.757 263.667 126.931 261.691 127.937 260L126.218 258.978C125.199 260.692 124.087 262.557 122.901 264.086C121.683 265.655 120.538 266.665 119.515 266.939L120.033 268.871ZM113.515 265.052C114.28 267.906 117.187 269.633 120.033 268.871L119.515 266.939C117.765 267.408 115.933 266.349 115.447 264.535L113.515 265.052ZM118.385 258.183C117 258.554 115.629 259.519 114.685 260.703C113.749 261.876 113.088 263.458 113.515 265.052L115.447 264.535C115.249 263.795 115.521 262.862 116.248 261.95C116.967 261.05 117.99 260.359 118.903 260.115L118.385 258.183ZM111.25 256.601C111.678 258.195 113.041 259.234 114.438 259.782C115.848 260.335 117.518 260.486 118.903 260.115L118.385 258.183C117.472 258.428 116.241 258.341 115.168 257.92C114.082 257.495 113.38 256.822 113.182 256.083L111.25 256.601ZM114.986 250.035C112.14 250.797 110.486 253.747 111.25 256.601L113.182 256.083C112.696 254.268 113.753 252.436 115.503 251.967L114.986 250.035ZM126.266 253.765C124.55 252.804 122.545 251.679 120.618 250.893C118.738 250.126 116.696 249.577 114.986 250.035L115.503 251.967C116.526 251.693 118.023 251.994 119.862 252.745C121.654 253.476 123.549 254.535 125.289 255.51L126.266 253.765ZM128.887 255.182C128.135 254.811 127.252 254.317 126.266 253.765L125.289 255.51C126.261 256.054 127.193 256.576 128.001 256.975L128.887 255.182ZM125.356 254.238C126.287 255.193 127.098 256.027 127.676 256.719L129.211 255.438C128.573 254.673 127.7 253.778 126.789 252.842L125.356 254.238ZM125.333 254.213L125.333 254.213L126.812 252.868L126.812 252.868L125.333 254.213ZM118.834 244.307C118.834 246.077 119.893 247.908 121.12 249.525C122.378 251.183 123.984 252.829 125.356 254.238L126.789 252.842C125.397 251.414 123.883 249.858 122.713 248.316C121.512 246.734 120.834 245.366 120.834 244.307H118.834ZM124.209 239C121.255 239 118.834 241.361 118.834 244.307H120.834C120.834 242.495 122.33 241 124.209 241V239ZM129.584 245.482C129.584 244.048 129.007 242.474 128.107 241.255C127.216 240.048 125.86 239 124.209 239V241C124.975 241 125.806 241.504 126.498 242.443C127.182 243.37 127.584 244.537 127.584 245.482H129.584Z" fill="#453B3B"/>
<path fill-rule="evenodd" clip-rule="evenodd" d="M128.584 305.982C128.584 303.603 130.543 300.5 132.959 300.5C135.375 300.5 137.334 302.428 137.334 304.807C137.334 307.636 133.86 311.203 131.096 314.04C130.175 314.985 129.333 315.85 128.725 316.579C129.504 316.194 130.412 315.685 131.391 315.137C134.846 313.202 139.191 310.769 141.924 311.501C144.221 312.117 145.577 314.508 144.952 316.842C144.326 319.176 140.822 320.265 138.524 319.649C140.822 320.265 143.312 322.96 142.687 325.294C142.062 327.627 139.692 329.02 137.394 328.405C134.662 327.672 132.116 323.393 130.09 319.989C129.73 319.383 129.386 318.805 129.061 318.28C129.42 320.332 129.618 322.365 129.808 324.323C130.295 329.32 130.733 333.819 133.679 336.847C134.988 338.193 131.475 339.539 128.584 339.539C125.713 339.539 122.163 338.193 123.472 336.847C126.808 333.417 127.311 327.941 127.821 322.377C127.955 320.915 128.09 319.447 128.277 318.009C127.902 318.604 127.501 319.277 127.078 319.989C125.052 323.393 122.507 327.672 119.774 328.405C117.476 329.02 115.106 327.627 114.481 325.294C113.856 322.96 116.346 320.265 118.644 319.649C116.346 320.265 112.842 319.176 112.216 316.842C111.591 314.508 112.947 312.117 115.245 311.501C117.977 310.769 122.322 313.202 125.778 315.137C126.756 315.685 127.664 316.194 128.444 316.579C127.835 315.85 126.993 314.986 126.073 314.04L126.072 314.04C123.309 311.203 119.834 307.636 119.834 304.807C119.834 302.428 121.793 300.5 124.209 300.5C126.625 300.5 128.584 303.603 128.584 305.982Z" fill="#453B3B"/>
<path d="M127.584 305.982C127.584 306.534 128.032 306.982 128.584 306.982C129.136 306.982 129.584 306.534 129.584 305.982H127.584ZM131.096 314.04L130.379 313.342L131.096 314.04ZM128.725 316.579L127.957 315.938C127.654 316.301 127.647 316.826 127.939 317.198C128.231 317.569 128.744 317.685 129.167 317.475L128.725 316.579ZM131.391 315.137L131.879 316.01L131.391 315.137ZM141.924 311.501L141.665 312.467L141.924 311.501ZM144.952 316.842L143.986 316.583L144.952 316.842ZM138.783 318.683C138.25 318.54 137.701 318.857 137.558 319.39C137.415 319.923 137.732 320.472 138.265 320.615L138.783 318.683ZM142.687 325.294L143.653 325.552L142.687 325.294ZM137.394 328.405L137.135 329.371L137.394 328.405ZM130.09 319.989L130.95 319.478L130.09 319.989ZM129.061 318.28L129.911 317.753C129.658 317.346 129.152 317.175 128.705 317.345C128.257 317.516 127.993 317.98 128.075 318.452L129.061 318.28ZM129.808 324.323L128.813 324.419L129.808 324.323ZM133.679 336.847L134.396 336.149L133.679 336.847ZM123.472 336.847L122.756 336.149L123.472 336.847ZM127.821 322.377L126.825 322.286L127.821 322.377ZM128.277 318.009L129.268 318.138C129.329 317.672 129.057 317.227 128.616 317.068C128.174 316.909 127.681 317.079 127.431 317.476L128.277 318.009ZM127.078 319.989L126.218 319.478L127.078 319.989ZM119.774 328.405L120.033 329.371H120.033L119.774 328.405ZM114.481 325.294L115.447 325.035L114.481 325.294ZM118.903 320.615C119.436 320.472 119.753 319.923 119.61 319.39C119.467 318.857 118.918 318.54 118.385 318.683L118.903 320.615ZM112.216 316.842L113.182 316.583H113.182L112.216 316.842ZM115.245 311.501L115.503 312.467H115.503L115.245 311.501ZM125.778 315.137L126.266 314.265L125.778 315.137ZM128.444 316.579L128.001 317.475C128.424 317.685 128.937 317.569 129.229 317.198C129.522 316.826 129.514 316.301 129.211 315.938L128.444 316.579ZM126.073 314.04L125.333 314.713C125.34 314.721 125.348 314.73 125.356 314.738L126.073 314.04ZM126.072 314.04L126.812 313.368C126.805 313.359 126.797 313.351 126.789 313.342L126.072 314.04ZM132.959 299.5C131.308 299.5 129.952 300.548 129.061 301.755C128.161 302.974 127.584 304.548 127.584 305.982H129.584C129.584 305.037 129.986 303.87 130.67 302.943C131.363 302.004 132.194 301.5 132.959 301.5V299.5ZM138.334 304.807C138.334 301.861 135.913 299.5 132.959 299.5V301.5C134.838 301.5 136.334 302.995 136.334 304.807H138.334ZM131.812 314.738C133.184 313.329 134.79 311.683 136.048 310.025C137.275 308.408 138.334 306.577 138.334 304.807H136.334C136.334 305.866 135.656 307.234 134.455 308.816C133.285 310.358 131.771 311.914 130.379 313.342L131.812 314.738ZM129.492 317.219C130.07 316.527 130.881 315.693 131.812 314.738L130.379 313.342C129.468 314.278 128.595 315.173 127.957 315.938L129.492 317.219ZM130.902 314.265C129.916 314.817 129.033 315.311 128.282 315.682L129.167 317.475C129.975 317.076 130.907 316.554 131.879 316.01L130.902 314.265ZM142.182 310.535C140.472 310.077 138.43 310.626 136.551 311.393C134.623 312.179 132.618 313.304 130.902 314.265L131.879 316.01C133.619 315.035 135.514 313.976 137.306 313.245C139.145 312.494 140.642 312.193 141.665 312.467L142.182 310.535ZM145.918 317.101C146.682 314.247 145.028 311.297 142.182 310.535L141.665 312.467C143.415 312.936 144.472 314.768 143.986 316.583L145.918 317.101ZM138.265 320.615C139.65 320.986 141.32 320.835 142.73 320.282C144.127 319.734 145.49 318.695 145.918 317.101L143.986 316.583C143.788 317.322 143.086 317.995 142 318.42C140.927 318.841 139.696 318.928 138.783 318.683L138.265 320.615ZM143.653 325.552C144.08 323.958 143.419 322.376 142.484 321.203C141.539 320.019 140.168 319.054 138.783 318.683L138.265 320.615C139.179 320.859 140.201 321.55 140.92 322.45C141.647 323.362 141.919 324.295 141.721 325.035L143.653 325.552ZM137.135 329.371C139.981 330.133 142.888 328.406 143.653 325.552L141.721 325.035C141.235 326.849 139.403 327.908 137.653 327.439L137.135 329.371ZM129.231 320.5C130.237 322.191 131.411 324.167 132.687 325.812C133.932 327.416 135.426 328.912 137.135 329.371L137.653 327.439C136.63 327.165 135.485 326.155 134.267 324.586C133.081 323.057 131.969 321.192 130.95 319.478L129.231 320.5ZM128.21 318.806C128.53 319.323 128.87 319.893 129.231 320.5L130.95 319.478C130.591 318.874 130.242 318.288 129.911 317.753L128.21 318.806ZM130.804 324.226C130.613 322.274 130.412 320.203 130.046 318.107L128.075 318.452C128.427 320.46 128.622 322.457 128.813 324.419L130.804 324.226ZM134.396 336.149C133.086 334.803 132.303 333.102 131.791 331.078C131.274 329.037 131.049 326.743 130.804 324.226L128.813 324.419C129.055 326.9 129.291 329.354 129.852 331.569C130.417 333.8 131.326 335.862 132.962 337.544L134.396 336.149ZM128.584 340.539C130.153 340.539 131.903 340.179 133.131 339.603C133.719 339.327 134.35 338.928 134.698 338.352C134.888 338.037 135.007 337.644 134.944 337.208C134.883 336.779 134.665 336.426 134.396 336.149L132.962 337.544C133.02 337.604 132.978 337.587 132.964 337.49C132.949 337.385 132.986 337.318 132.986 337.318C132.952 337.374 132.77 337.563 132.282 337.792C131.358 338.225 129.906 338.539 128.584 338.539V340.539ZM122.756 336.149C122.486 336.427 122.266 336.782 122.207 337.213C122.147 337.652 122.27 338.045 122.462 338.358C122.814 338.931 123.448 339.329 124.038 339.604C125.271 340.179 127.024 340.539 128.584 340.539V338.539C127.273 338.539 125.815 338.226 124.883 337.791C124.39 337.561 124.203 337.37 124.167 337.312C124.166 337.31 124.204 337.377 124.189 337.484C124.175 337.584 124.132 337.603 124.189 337.544L122.756 336.149ZM126.825 322.286C126.569 325.084 126.32 327.768 125.735 330.176C125.151 332.575 124.252 334.611 122.756 336.149L124.189 337.544C126.029 335.653 127.049 333.236 127.678 330.649C128.305 328.07 128.563 325.234 128.817 322.469L126.825 322.286ZM127.285 317.88C127.095 319.34 126.959 320.827 126.825 322.286L128.817 322.469C128.951 321.003 129.084 319.554 129.268 318.138L127.285 317.88ZM127.937 320.5C128.362 319.786 128.756 319.124 129.123 318.542L127.431 317.476C127.048 318.084 126.64 318.769 126.218 319.478L127.937 320.5ZM120.033 329.371C121.743 328.912 123.237 327.416 124.481 325.812C125.757 324.167 126.931 322.191 127.937 320.5L126.218 319.478C125.199 321.192 124.087 323.057 122.901 324.586C121.683 326.155 120.538 327.165 119.515 327.439L120.033 329.371ZM113.515 325.552C114.28 328.406 117.187 330.133 120.033 329.371L119.515 327.439C117.765 327.908 115.933 326.849 115.447 325.035L113.515 325.552ZM118.385 318.683C117 319.054 115.629 320.019 114.685 321.203C113.749 322.376 113.088 323.958 113.515 325.552L115.447 325.035C115.249 324.295 115.521 323.362 116.248 322.45C116.967 321.55 117.99 320.859 118.903 320.615L118.385 318.683ZM111.25 317.101C111.678 318.695 113.041 319.734 114.438 320.282C115.848 320.835 117.518 320.986 118.903 320.615L118.385 318.683C117.472 318.928 116.241 318.841 115.168 318.42C114.082 317.995 113.38 317.322 113.182 316.583L111.25 317.101ZM114.986 310.535C112.14 311.297 110.486 314.247 111.25 317.101L113.182 316.583C112.696 314.768 113.753 312.936 115.503 312.467L114.986 310.535ZM126.266 314.265C124.55 313.304 122.545 312.179 120.618 311.393C118.738 310.626 116.696 310.077 114.986 310.535L115.503 312.467C116.526 312.193 118.023 312.494 119.862 313.245C121.654 313.976 123.549 315.035 125.289 316.01L126.266 314.265ZM128.887 315.682C128.135 315.311 127.252 314.817 126.266 314.265L125.289 316.01C126.261 316.554 127.193 317.076 128.001 317.475L128.887 315.682ZM125.356 314.738C126.287 315.693 127.098 316.527 127.676 317.219L129.211 315.938C128.573 315.173 127.7 314.278 126.789 313.342L125.356 314.738ZM125.333 314.713L125.333 314.713L126.812 313.368L126.812 313.368L125.333 314.713ZM118.834 304.807C118.834 306.577 119.893 308.408 121.12 310.025C122.378 311.683 123.984 313.329 125.356 314.738L126.789 313.342C125.397 311.914 123.883 310.358 122.713 308.816C121.512 307.234 120.834 305.866 120.834 304.807H118.834ZM124.209 299.5C121.255 299.5 118.834 301.861 118.834 304.807H120.834C120.834 302.995 122.33 301.5 124.209 301.5V299.5ZM129.584 305.982C129.584 304.548 129.007 302.974 128.107 301.755C127.216 300.548 125.86 299.5 124.209 299.5V301.5C124.975 301.5 125.806 302.004 126.498 302.943C127.182 303.87 127.584 305.037 127.584 305.982H129.584Z" fill="#453B3B"/>
<path fill-rule="evenodd" clip-rule="evenodd" d="M195.584 275.482C195.584 273.103 197.543 270 199.959 270C202.375 270 204.334 271.928 204.334 274.307C204.334 277.136 200.86 280.703 198.096 283.54C197.175 284.485 196.333 285.35 195.725 286.079C196.504 285.694 197.412 285.185 198.391 284.637C201.846 282.702 206.191 280.269 208.924 281.001C211.221 281.617 212.577 284.008 211.952 286.342C211.326 288.676 207.822 289.765 205.524 289.149C207.822 289.765 210.312 292.46 209.687 294.794C209.062 297.127 206.692 298.52 204.394 297.905C201.662 297.172 199.116 292.893 197.09 289.489C196.73 288.883 196.386 288.305 196.061 287.78C196.42 289.832 196.618 291.865 196.808 293.823C197.295 298.82 197.733 303.319 200.679 306.347C201.988 307.693 198.475 309.039 195.584 309.039C192.713 309.039 189.163 307.693 190.472 306.347C193.808 302.917 194.311 297.441 194.821 291.877C194.955 290.415 195.09 288.947 195.277 287.509C194.902 288.104 194.501 288.777 194.078 289.489C192.052 292.893 189.507 297.172 186.774 297.905C184.476 298.52 182.106 297.127 181.481 294.794C180.856 292.46 183.346 289.765 185.644 289.149C183.346 289.765 179.842 288.676 179.216 286.342C178.591 284.008 179.947 281.617 182.245 281.001C184.977 280.269 189.322 282.702 192.778 284.637C193.756 285.185 194.664 285.694 195.444 286.079C194.835 285.35 193.993 284.486 193.073 283.54L193.072 283.54C190.309 280.703 186.834 277.136 186.834 274.307C186.834 271.928 188.793 270 191.209 270C193.625 270 195.584 273.103 195.584 275.482Z" fill="#453B3B"/>
<path d="M194.584 275.482C194.584 276.034 195.032 276.482 195.584 276.482C196.136 276.482 196.584 276.034 196.584 275.482H194.584ZM198.096 283.54L197.379 282.842L198.096 283.54ZM195.725 286.079L194.957 285.438C194.654 285.801 194.647 286.326 194.939 286.698C195.231 287.069 195.744 287.185 196.167 286.975L195.725 286.079ZM198.391 284.637L198.879 285.51L198.391 284.637ZM208.924 281.001L208.665 281.967L208.924 281.001ZM211.952 286.342L210.986 286.083L211.952 286.342ZM205.783 288.183C205.25 288.04 204.701 288.357 204.558 288.89C204.415 289.423 204.732 289.972 205.265 290.115L205.783 288.183ZM209.687 294.794L210.653 295.052L209.687 294.794ZM204.394 297.905L204.135 298.871L204.394 297.905ZM197.09 289.489L197.95 288.978L197.09 289.489ZM196.061 287.78L196.911 287.253C196.658 286.846 196.152 286.675 195.705 286.845C195.257 287.016 194.993 287.48 195.075 287.952L196.061 287.78ZM196.808 293.823L195.813 293.919L196.808 293.823ZM200.679 306.347L201.396 305.649L200.679 306.347ZM190.472 306.347L189.756 305.649L190.472 306.347ZM194.821 291.877L193.825 291.786L194.821 291.877ZM195.277 287.509L196.268 287.638C196.329 287.172 196.057 286.727 195.616 286.568C195.174 286.409 194.681 286.579 194.431 286.976L195.277 287.509ZM194.078 289.489L193.218 288.978L194.078 289.489ZM186.774 297.905L187.033 298.871H187.033L186.774 297.905ZM181.481 294.794L182.447 294.535L181.481 294.794ZM185.903 290.115C186.436 289.972 186.753 289.423 186.61 288.89C186.467 288.357 185.918 288.04 185.385 288.183L185.903 290.115ZM179.216 286.342L180.182 286.083H180.182L179.216 286.342ZM182.245 281.001L182.503 281.967H182.503L182.245 281.001ZM192.778 284.637L193.266 283.765L192.778 284.637ZM195.444 286.079L195.001 286.975C195.424 287.185 195.937 287.069 196.229 286.698C196.522 286.326 196.514 285.801 196.211 285.438L195.444 286.079ZM193.073 283.54L192.333 284.213C192.34 284.221 192.348 284.23 192.356 284.238L193.073 283.54ZM193.072 283.54L193.812 282.868C193.805 282.859 193.797 282.851 193.789 282.842L193.072 283.54ZM199.959 269C198.308 269 196.952 270.048 196.061 271.255C195.161 272.474 194.584 274.048 194.584 275.482H196.584C196.584 274.537 196.986 273.37 197.67 272.443C198.363 271.504 199.194 271 199.959 271V269ZM205.334 274.307C205.334 271.361 202.913 269 199.959 269V271C201.838 271 203.334 272.495 203.334 274.307H205.334ZM198.812 284.238C200.184 282.829 201.79 281.183 203.048 279.525C204.275 277.908 205.334 276.077 205.334 274.307H203.334C203.334 275.366 202.656 276.734 201.455 278.316C200.285 279.858 198.771 281.414 197.379 282.842L198.812 284.238ZM196.492 286.719C197.07 286.027 197.881 285.193 198.812 284.238L197.379 282.842C196.468 283.778 195.595 284.673 194.957 285.438L196.492 286.719ZM197.902 283.765C196.916 284.317 196.033 284.811 195.282 285.182L196.167 286.975C196.975 286.576 197.907 286.054 198.879 285.51L197.902 283.765ZM209.182 280.035C207.472 279.577 205.43 280.126 203.551 280.893C201.623 281.679 199.618 282.804 197.902 283.765L198.879 285.51C200.619 284.535 202.514 283.476 204.306 282.745C206.145 281.994 207.642 281.693 208.665 281.967L209.182 280.035ZM212.918 286.601C213.682 283.747 212.028 280.797 209.182 280.035L208.665 281.967C210.415 282.436 211.472 284.268 210.986 286.083L212.918 286.601ZM205.265 290.115C206.65 290.486 208.32 290.335 209.73 289.782C211.127 289.234 212.49 288.195 212.918 286.601L210.986 286.083C210.788 286.822 210.086 287.495 209 287.92C207.927 288.341 206.696 288.428 205.783 288.183L205.265 290.115ZM210.653 295.052C211.08 293.458 210.419 291.876 209.484 290.703C208.539 289.519 207.168 288.554 205.783 288.183L205.265 290.115C206.179 290.359 207.201 291.05 207.92 291.95C208.647 292.862 208.919 293.795 208.721 294.535L210.653 295.052ZM204.135 298.871C206.981 299.633 209.888 297.906 210.653 295.052L208.721 294.535C208.235 296.349 206.403 297.408 204.653 296.939L204.135 298.871ZM196.231 290C197.237 291.691 198.411 293.667 199.687 295.312C200.932 296.916 202.426 298.412 204.135 298.871L204.653 296.939C203.63 296.665 202.485 295.655 201.267 294.086C200.081 292.557 198.969 290.692 197.95 288.978L196.231 290ZM195.21 288.306C195.53 288.823 195.87 289.393 196.231 290L197.95 288.978C197.591 288.374 197.242 287.788 196.911 287.253L195.21 288.306ZM197.804 293.726C197.613 291.774 197.412 289.703 197.046 287.607L195.075 287.952C195.427 289.96 195.622 291.957 195.813 293.919L197.804 293.726ZM201.396 305.649C200.086 304.303 199.303 302.602 198.791 300.578C198.274 298.537 198.049 296.243 197.804 293.726L195.813 293.919C196.055 296.4 196.291 298.854 196.852 301.069C197.417 303.3 198.326 305.362 199.962 307.044L201.396 305.649ZM195.584 310.039C197.153 310.039 198.903 309.679 200.131 309.103C200.719 308.827 201.35 308.428 201.698 307.852C201.888 307.537 202.007 307.144 201.944 306.708C201.883 306.279 201.665 305.926 201.396 305.649L199.962 307.044C200.02 307.104 199.978 307.087 199.964 306.99C199.949 306.885 199.986 306.818 199.986 306.818C199.952 306.874 199.77 307.063 199.282 307.292C198.358 307.725 196.906 308.039 195.584 308.039V310.039ZM189.756 305.649C189.486 305.927 189.266 306.282 189.207 306.713C189.147 307.152 189.27 307.545 189.462 307.858C189.814 308.431 190.448 308.829 191.038 309.104C192.271 309.679 194.024 310.039 195.584 310.039V308.039C194.273 308.039 192.815 307.726 191.883 307.291C191.39 307.061 191.203 306.87 191.167 306.812C191.166 306.81 191.204 306.877 191.189 306.984C191.175 307.084 191.132 307.103 191.189 307.044L189.756 305.649ZM193.825 291.786C193.569 294.584 193.32 297.268 192.735 299.676C192.151 302.075 191.252 304.111 189.756 305.649L191.189 307.044C193.029 305.153 194.049 302.736 194.678 300.149C195.305 297.57 195.563 294.734 195.817 291.969L193.825 291.786ZM194.285 287.38C194.095 288.84 193.959 290.327 193.825 291.786L195.817 291.969C195.951 290.503 196.084 289.054 196.268 287.638L194.285 287.38ZM194.937 290C195.362 289.286 195.756 288.624 196.123 288.042L194.431 286.976C194.048 287.584 193.64 288.269 193.218 288.978L194.937 290ZM187.033 298.871C188.743 298.412 190.237 296.916 191.481 295.312C192.757 293.667 193.931 291.691 194.937 290L193.218 288.978C192.199 290.692 191.087 292.557 189.901 294.086C188.683 295.655 187.538 296.665 186.515 296.939L187.033 298.871ZM180.515 295.052C181.28 297.906 184.187 299.633 187.033 298.871L186.515 296.939C184.765 297.408 182.933 296.349 182.447 294.535L180.515 295.052ZM185.385 288.183C184 288.554 182.629 289.519 181.685 290.703C180.749 291.876 180.088 293.458 180.515 295.052L182.447 294.535C182.249 293.795 182.521 292.862 183.248 291.95C183.967 291.05 184.99 290.359 185.903 290.115L185.385 288.183ZM178.25 286.601C178.678 288.195 180.041 289.234 181.438 289.782C182.848 290.335 184.518 290.486 185.903 290.115L185.385 288.183C184.472 288.428 183.241 288.341 182.168 287.92C181.082 287.495 180.38 286.822 180.182 286.083L178.25 286.601ZM181.986 280.035C179.14 280.797 177.486 283.747 178.25 286.601L180.182 286.083C179.696 284.268 180.753 282.436 182.503 281.967L181.986 280.035ZM193.266 283.765C191.55 282.804 189.545 281.679 187.618 280.893C185.738 280.126 183.696 279.577 181.986 280.035L182.503 281.967C183.526 281.693 185.023 281.994 186.862 282.745C188.654 283.476 190.549 284.535 192.289 285.51L193.266 283.765ZM195.887 285.182C195.135 284.811 194.252 284.317 193.266 283.765L192.289 285.51C193.261 286.054 194.193 286.576 195.001 286.975L195.887 285.182ZM192.356 284.238C193.287 285.193 194.098 286.027 194.676 286.719L196.211 285.438C195.573 284.673 194.7 283.778 193.789 282.842L192.356 284.238ZM192.333 284.213L192.333 284.213L193.812 282.868L193.812 282.868L192.333 284.213ZM185.834 274.307C185.834 276.077 186.893 277.908 188.12 279.525C189.378 281.183 190.984 282.829 192.356 284.238L193.789 282.842C192.397 281.414 190.883 279.858 189.713 278.316C188.512 276.734 187.834 275.366 187.834 274.307H185.834ZM191.209 269C188.255 269 185.834 271.361 185.834 274.307H187.834C187.834 272.495 189.33 271 191.209 271V269ZM196.584 275.482C196.584 274.048 196.007 272.474 195.107 271.255C194.216 270.048 192.86 269 191.209 269V271C191.975 271 192.806 271.504 193.498 272.443C194.182 273.37 194.584 274.537 194.584 275.482H196.584Z" fill="#453B3B"/>
<defs>
<filter id="filter0_d" x="0" y="0" width="391" height="592" filterUnits="userSpaceOnUse" color-interpolation-filters="sRGB">
<feFlood flood-opacity="0" result="BackgroundImageFix"/>
<feColorMatrix in="SourceAlpha" type="matrix" values="0 0 0 0 0 0 0 0 0 0 0 0 0 0 0 0 0 0 127 0"/>
<feMorphology radius="3" operator="dilate" in="SourceAlpha" result="effect1_dropShadow"/>
<feOffset dy="6"/>
<feGaussianBlur stdDeviation="4"/>
<feColorMatrix type="matrix" values="0 0 0 0 0.279463 0 0 0 0 0.0711028 0 0 0 0 0.0740583 0 0 0 0.05 0"/>
<feBlend mode="normal" in2="BackgroundImageFix" result="effect1_dropShadow"/>
<feBlend mode="normal" in="SourceGraphic" in2="effect1_dropShadow" result="shape"/>
</filter>
<clipPath id="clip0">
<path d="M11 22.324C11 12.7562 18.7562 5 28.3239 5H362.676C372.244 5 380 12.7562 380 22.3239V557.676C380 567.244 372.244 575 362.676 575H28.3239C18.7562 575 11 567.244 11 557.676V22.324Z" fill="white"/>
</clipPath>
</defs>
</svg>
