<svg width="391" height="592" viewBox="0 0 391 592" fill="none" xmlns="http://www.w3.org/2000/svg">
<g filter="url(#filter0_d)">
<g clip-path="url(#clip0)">
<path d="M11 22.324C11 12.7562 18.7562 5 28.3239 5H362.676C372.244 5 380 12.7562 380 22.3239V557.676C380 567.244 372.244 575 362.676 575H28.3239C18.7562 575 11 567.244 11 557.676V22.324Z" fill="#FBEEEE"/>
<path d="M65.1056 39.8473L64.3434 36.7422H52.7131L51.8662 45.7472C54.2186 44.5239 56.7028 43.9123 59.3186 43.9123C62.3297 43.9123 64.9738 44.5239 67.2509 45.7472C69.5469 46.9516 71.3159 48.6359 72.558 50.8001C73.8189 52.9455 74.4493 55.2885 74.4493 57.8291C74.4493 60.7649 73.7718 63.362 72.4168 65.6203C71.0807 67.8786 69.1705 69.6005 66.6864 70.7862C64.2022 71.9718 61.3041 72.5646 57.9919 72.5646C53.5129 72.5646 49.862 71.4825 47.0391 69.3183C44.235 67.1352 42.5601 64.0959 42.0143 60.2003L51.104 59.0994C51.7627 63.2208 53.8422 65.2815 57.3426 65.2815C59.4316 65.2815 61.0218 64.6981 62.1133 63.5313C63.2048 62.3645 63.7506 60.699 63.7506 58.5348C63.7506 53.7547 61.6899 51.3647 57.5684 51.3647C55.1408 51.3647 53.0989 52.5033 51.4428 54.7804L43.9339 51.0824L45.43 29.4591H72.3321V39.8473H65.1056Z" fill="#732A2A"/>
<path d="M59 91L42 111L59 131L76 111L59 91Z" fill="#FD7072"/>
<path d="M326.894 540.153L327.657 543.258H339.287L340.134 534.253C337.781 535.476 335.297 536.088 332.681 536.088C329.67 536.088 327.026 535.476 324.749 534.253C322.453 533.048 320.684 531.364 319.442 529.2C318.181 527.054 317.551 524.711 317.551 522.171C317.551 519.235 318.228 516.638 319.583 514.38C320.919 512.121 322.829 510.399 325.314 509.214C327.798 508.028 330.696 507.435 334.008 507.435C338.487 507.435 342.138 508.518 344.961 510.682C347.765 512.865 349.44 515.904 349.986 519.8L340.896 520.901C340.237 516.779 338.158 514.718 334.657 514.718C332.568 514.718 330.978 515.302 329.887 516.469C328.795 517.635 328.249 519.301 328.249 521.465C328.249 526.245 330.31 528.635 334.432 528.635C336.859 528.635 338.901 527.497 340.557 525.22L348.066 528.918L346.57 550.541H319.668V540.153H326.894Z" fill="#732A2A"/>
<path d="M333 489L350 469L333 449L316 469L333 489Z" fill="#FD7072"/>
</g>
<path d="M28.3239 6H362.676V4H28.3239V6ZM379 22.3239V557.676H381V22.3239H379ZM362.676 574H28.3239V576H362.676V574ZM12 557.676V22.324H10V557.676H12ZM28.3239 574C19.3085 574 12 566.692 12 557.676H10C10 567.796 18.2039 576 28.3239 576V574ZM379 557.676C379 566.691 371.692 574 362.676 574V576C372.796 576 381 567.796 381 557.676H379ZM362.676 6C371.692 6 379 13.3085 379 22.3239H381C381 12.2039 372.796 4 362.676 4V6ZM28.3239 4C18.2039 4 10 12.2039 10 22.324H12C12 13.3085 19.3085 6 28.3239 6V4Z" fill="#F7E2E2"/>
</g>
<path d="M262 239L245 259L262 279L279 259L262 239Z" fill="#FD7072"/>
<path d="M262 299.5L245 319.5L262 339.5L279 319.5L262 299.5Z" fill="#FD7072"/>
<path d="M128 239L111 259L128 279L145 259L128 239Z" fill="#FD7072"/>
<path d="M128 299.5L111 319.5L128 339.5L145 319.5L128 299.5Z" fill="#FD7072"/>
<path d="M195 269L178 289L195 309L212 289L195 269Z" fill="#FD7072"/>
<defs>
<filter id="filter0_d" x="0" y="0" width="391" height="592" filterUnits="userSpaceOnUse" color-interpolation-filters="sRGB">
<feFlood flood-opacity="0" result="BackgroundImageFix"/>
<feColorMatrix in="SourceAlpha" type="matrix" values="0 0 0 0 0 0 0 0 0 0 0 0 0 0 0 0 0 0 127 0"/>
<feMorphology radius="3" operator="dilate" in="SourceAlpha" result="effect1_dropShadow"/>
<feOffset dy="6"/>
<feGaussianBlur stdDeviation="4"/>
<feColorMatrix type="matrix" values="0 0 0 0 0.279463 0 0 0 0 0.0711028 0 0 0 0 0.0740583 0 0 0 0.05 0"/>
<feBlend mode="normal" in2="BackgroundImageFix" result="effect1_dropShadow"/>
<feBlend mode="normal" in="SourceGraphic" in2="effect1_dropShadow" result="shape"/>
</filter>
<clipPath id="clip0">
<path d="M11 22.324C11 12.7562 18.7562 5 28.3239 5H362.676C372.244 5 380 12.7562 380 22.3239V557.676C380 567.244 372.244 575 362.676 575H28.3239C18.7562 575 11 567.244 11 557.676V22.324Z" fill="white"/>
</clipPath>
</defs>
</svg>
