<svg width="391" height="592" viewBox="0 0 391 592" fill="none" xmlns="http://www.w3.org/2000/svg">
<g filter="url(#filter0_d)">
<g clip-path="url(#clip0)">
<path d="M11 22.324C11 12.7562 18.7562 5 28.3239 5H362.676C372.244 5 380 12.7562 380 22.3239V557.676C380 567.244 372.244 575 362.676 575H28.3239C18.7562 575 11 567.244 11 557.676V22.324Z" fill="#FBEEEE"/>
<path d="M75.2679 53.5101V60.4262H70.7513V65.2815H74.7034V72H55.8465V65.2815H60.9841V60.4262H43.4258C42.4848 57.8103 41.7132 55.9284 41.111 54.7804L61.5769 28.6969H70.7513V53.5101H75.2679ZM51.1605 53.5101H60.9841V41.2305L51.1605 53.5101Z" fill="#732A2A"/>
<path d="M70 91C63.9249 91 59 98.9249 59 105C59 98.9249 54.0751 91 48 91C41.9249 91 37 95.9249 37 102C37 111.823 53.1493 125.129 59 132.5C64.8507 125.129 81 111.823 81 102C81 95.9249 76.0751 91 70 91Z" fill="#FD7072" stroke="#FD7072" stroke-linecap="round" stroke-linejoin="round"/>
<path d="M316.732 526.49V519.574H321.249V514.718H317.297V508H336.154V514.718H331.016V519.574H348.574C349.515 522.19 350.287 524.072 350.889 525.22L330.423 551.303H321.249V526.49H316.732ZM340.84 526.49H331.016V538.769L340.84 526.49Z" fill="#732A2A"/>
<path d="M322 489C328.075 489 333 481.075 333 475C333 481.075 337.925 489 344 489C350.075 489 355 484.075 355 478C355 468.177 338.851 454.871 333 447.5C327.149 454.871 311 468.177 311 478C311 484.075 315.925 489 322 489Z" fill="#FD7072" stroke="#FD7072" stroke-linecap="round" stroke-linejoin="round"/>
</g>
<path d="M28.3239 6H362.676V4H28.3239V6ZM379 22.3239V557.676H381V22.3239H379ZM362.676 574H28.3239V576H362.676V574ZM12 557.676V22.324H10V557.676H12ZM28.3239 574C19.3085 574 12 566.692 12 557.676H10C10 567.796 18.2039 576 28.3239 576V574ZM379 557.676C379 566.691 371.692 574 362.676 574V576C372.796 576 381 567.796 381 557.676H379ZM362.676 6C371.692 6 379 13.3085 379 22.3239H381C381 12.2039 372.796 4 362.676 4V6ZM28.3239 4C18.2039 4 10 12.2039 10 22.324H12C12 13.3085 19.3085 6 28.3239 6V4Z" fill="#F7E2E2"/>
</g>
<path d="M273 239C266.925 239 262 246.925 262 253C262 246.925 257.075 239 251 239C244.925 239 240 243.925 240 250C240 259.823 256.149 273.129 262 280.5C267.851 273.129 284 259.823 284 250C284 243.925 279.075 239 273 239Z" fill="#FD7072" stroke="#FD7072" stroke-linecap="round" stroke-linejoin="round"/>
<path d="M273 299.5C266.925 299.5 262 307.425 262 313.5C262 307.425 257.075 299.5 251 299.5C244.925 299.5 240 304.425 240 310.5C240 320.323 256.149 333.629 262 341C267.851 333.629 284 320.323 284 310.5C284 304.425 279.075 299.5 273 299.5Z" fill="#FD7072" stroke="#FD7072" stroke-linecap="round" stroke-linejoin="round"/>
<path d="M139 239C132.925 239 128 246.925 128 253C128 246.925 123.075 239 117 239C110.925 239 106 243.925 106 250C106 259.823 122.149 273.129 128 280.5C133.851 273.129 150 259.823 150 250C150 243.925 145.075 239 139 239Z" fill="#FD7072" stroke="#FD7072" stroke-linecap="round" stroke-linejoin="round"/>
<path d="M139 299.5C132.925 299.5 128 307.425 128 313.5C128 307.425 123.075 299.5 117 299.5C110.925 299.5 106 304.425 106 310.5C106 320.323 122.149 333.629 128 341C133.851 333.629 150 320.323 150 310.5C150 304.425 145.075 299.5 139 299.5Z" fill="#FD7072" stroke="#FD7072" stroke-linecap="round" stroke-linejoin="round"/>
<defs>
<filter id="filter0_d" x="0" y="0" width="391" height="592" filterUnits="userSpaceOnUse" color-interpolation-filters="sRGB">
<feFlood flood-opacity="0" result="BackgroundImageFix"/>
<feColorMatrix in="SourceAlpha" type="matrix" values="0 0 0 0 0 0 0 0 0 0 0 0 0 0 0 0 0 0 127 0"/>
<feMorphology radius="3" operator="dilate" in="SourceAlpha" result="effect1_dropShadow"/>
<feOffset dy="6"/>
<feGaussianBlur stdDeviation="4"/>
<feColorMatrix type="matrix" values="0 0 0 0 0.279463 0 0 0 0 0.0711028 0 0 0 0 0.0740583 0 0 0 0.05 0"/>
<feBlend mode="normal" in2="BackgroundImageFix" result="effect1_dropShadow"/>
<feBlend mode="normal" in="SourceGraphic" in2="effect1_dropShadow" result="shape"/>
</filter>
<clipPath id="clip0">
<path d="M11 22.324C11 12.7562 18.7562 5 28.3239 5H362.676C372.244 5 380 12.7562 380 22.3239V557.676C380 567.244 372.244 575 362.676 575H28.3239C18.7562 575 11 567.244 11 557.676V22.324Z" fill="white"/>
</clipPath>
</defs>
</svg>
