<svg width="391" height="592" viewBox="0 0 391 592" fill="none" xmlns="http://www.w3.org/2000/svg">
<g filter="url(#filter0_d)">
<g clip-path="url(#clip0)">
<path d="M11 22.324C11 12.7562 18.7562 5 28.3239 5H362.676C372.244 5 380 12.7562 380 22.3239V557.676C380 567.244 372.244 575 362.676 575H28.3239C18.7562 575 11 567.244 11 557.676V22.324Z" fill="white"/>
<path d="M75.2679 53.5101V60.4262H70.7513V65.2815H74.7034V72H55.8465V65.2815H60.9841V60.4262H43.4258C42.4848 57.8103 41.7132 55.9284 41.111 54.7804L61.5769 28.6969H70.7513V53.5101H75.2679ZM51.1605 53.5101H60.9841V41.2305L51.1605 53.5101Z" fill="#1A1616"/>
<path fill-rule="evenodd" clip-rule="evenodd" d="M62.6689 118.663C63.8338 119.645 65.189 120.262 66.6351 120.262C70.9862 120.262 74.5135 116.79 74.5135 112.506C74.5135 107.411 68.2567 100.989 63.2795 95.8794C61.4896 94.042 59.8651 92.3745 58.7568 90.9998C57.6484 92.3745 56.0239 94.042 54.234 95.8794C49.2569 100.989 43 107.411 43 112.506C43 116.79 46.5273 120.262 50.8784 120.262C52.2464 120.262 53.5329 119.71 54.654 118.819C55.5853 122.254 56.6357 128.011 54.2547 130.392C53.1293 131.517 56.2895 132.643 58.7567 132.643C61.2406 132.643 64.151 131.517 63.0256 130.392C60.6082 127.974 61.728 122.077 62.6689 118.663ZM58.763 110.706C58.7589 110.6 58.7568 110.495 58.7568 110.391C58.7568 110.495 58.7547 110.6 58.7505 110.705L58.7567 110.696L58.763 110.706Z" fill="#453B3B"/>
<path d="M316.732 526.49V519.574H321.249V514.718H317.297V508H336.154V514.718H331.016V519.574H348.574C349.515 522.19 350.287 524.072 350.889 525.22L330.423 551.303H321.249V526.49H316.732ZM340.84 526.49H331.016V538.769L340.84 526.49Z" fill="#1A1616"/>
<path fill-rule="evenodd" clip-rule="evenodd" d="M329.331 461.337C328.166 460.355 326.811 459.738 325.365 459.738C321.014 459.738 317.486 463.21 317.486 467.494C317.486 472.589 323.743 479.011 328.72 484.121C330.51 485.958 332.135 487.626 333.243 489C334.352 487.626 335.976 485.958 337.766 484.121C342.743 479.011 349 472.589 349 467.494C349 463.21 345.473 459.738 341.122 459.738C339.754 459.738 338.467 460.29 337.346 461.181C336.415 457.746 335.364 451.989 337.745 449.608C338.871 448.483 335.711 447.357 333.243 447.357C330.759 447.357 327.849 448.483 328.974 449.608C331.392 452.026 330.272 457.923 329.331 461.337ZM333.237 469.294C333.241 469.4 333.243 469.505 333.243 469.609C333.243 469.505 333.245 469.4 333.249 469.295L333.243 469.304L333.237 469.294Z" fill="#453B3B"/>
</g>
<path d="M28.3239 6H362.676V4H28.3239V6ZM379 22.3239V557.676H381V22.3239H379ZM362.676 574H28.3239V576H362.676V574ZM12 557.676V22.324H10V557.676H12ZM28.3239 574C19.3085 574 12 566.692 12 557.676H10C10 567.796 18.2039 576 28.3239 576V574ZM379 557.676C379 566.691 371.692 574 362.676 574V576C372.796 576 381 567.796 381 557.676H379ZM362.676 6C371.692 6 379 13.3085 379 22.3239H381C381 12.2039 372.796 4 362.676 4V6ZM28.3239 4C18.2039 4 10 12.2039 10 22.324H12C12 13.3085 19.3085 6 28.3239 6V4Z" fill="#D9D8D8"/>
</g>
<path fill-rule="evenodd" clip-rule="evenodd" d="M265.669 266.663C266.834 267.645 268.189 268.262 269.635 268.262C273.986 268.262 277.514 264.79 277.514 260.506C277.514 255.411 271.257 248.989 266.28 243.879C264.49 242.042 262.865 240.374 261.757 239C260.648 240.374 259.024 242.042 257.234 243.879C252.257 248.989 246 255.411 246 260.506C246 264.79 249.527 268.262 253.878 268.262C255.246 268.262 256.533 267.71 257.654 266.819C258.585 270.254 259.636 276.011 257.255 278.392C256.129 279.517 259.289 280.643 261.757 280.643C264.241 280.643 267.151 279.517 266.026 278.392C263.608 275.974 264.728 270.077 265.669 266.663ZM261.763 258.706C261.759 258.6 261.757 258.495 261.757 258.391C261.757 258.495 261.755 258.6 261.751 258.705L261.757 258.696L261.763 258.706Z" fill="#453B3B"/>
<path fill-rule="evenodd" clip-rule="evenodd" d="M265.669 327.163C266.834 328.145 268.189 328.762 269.635 328.762C273.986 328.762 277.514 325.29 277.514 321.006C277.514 315.911 271.257 309.489 266.28 304.379C264.49 302.542 262.865 300.874 261.757 299.5C260.648 300.874 259.024 302.542 257.234 304.379C252.257 309.489 246 315.911 246 321.006C246 325.29 249.527 328.762 253.878 328.762C255.246 328.762 256.533 328.21 257.654 327.319C258.585 330.754 259.636 336.511 257.255 338.892C256.129 340.017 259.289 341.143 261.757 341.143C264.241 341.143 267.151 340.017 266.026 338.892C263.608 336.474 264.728 330.577 265.669 327.163ZM261.763 319.206C261.759 319.1 261.757 318.995 261.757 318.891C261.757 318.995 261.755 319.1 261.751 319.205L261.757 319.196L261.763 319.206Z" fill="#453B3B"/>
<path fill-rule="evenodd" clip-rule="evenodd" d="M131.669 266.663C132.834 267.645 134.189 268.262 135.635 268.262C139.986 268.262 143.514 264.79 143.514 260.506C143.514 255.411 137.257 248.989 132.28 243.879C130.49 242.042 128.865 240.374 127.757 239C126.648 240.374 125.024 242.042 123.234 243.879C118.257 248.989 112 255.411 112 260.506C112 264.79 115.527 268.262 119.878 268.262C121.246 268.262 122.533 267.71 123.654 266.819C124.585 270.254 125.636 276.011 123.255 278.392C122.129 279.517 125.289 280.643 127.757 280.643C130.241 280.643 133.151 279.517 132.026 278.392C129.608 275.974 130.728 270.077 131.669 266.663ZM127.763 258.706C127.759 258.6 127.757 258.495 127.757 258.391C127.757 258.495 127.755 258.6 127.751 258.705L127.757 258.696L127.763 258.706Z" fill="#453B3B"/>
<path fill-rule="evenodd" clip-rule="evenodd" d="M131.669 327.163C132.834 328.145 134.189 328.762 135.635 328.762C139.986 328.762 143.514 325.29 143.514 321.006C143.514 315.911 137.257 309.489 132.28 304.379C130.49 302.542 128.865 300.874 127.757 299.5C126.648 300.874 125.024 302.542 123.234 304.379C118.257 309.489 112 315.911 112 321.006C112 325.29 115.527 328.762 119.878 328.762C121.246 328.762 122.533 328.21 123.654 327.319C124.585 330.754 125.636 336.511 123.255 338.892C122.129 340.017 125.289 341.143 127.757 341.143C130.241 341.143 133.151 340.017 132.026 338.892C129.608 336.474 130.728 330.577 131.669 327.163ZM127.763 319.206C127.759 319.1 127.757 318.995 127.757 318.891C127.757 318.995 127.755 319.1 127.751 319.205L127.757 319.196L127.763 319.206Z" fill="#453B3B"/>
<defs>
<filter id="filter0_d" x="0" y="0" width="391" height="592" filterUnits="userSpaceOnUse" color-interpolation-filters="sRGB">
<feFlood flood-opacity="0" result="BackgroundImageFix"/>
<feColorMatrix in="SourceAlpha" type="matrix" values="0 0 0 0 0 0 0 0 0 0 0 0 0 0 0 0 0 0 127 0"/>
<feMorphology radius="3" operator="dilate" in="SourceAlpha" result="effect1_dropShadow"/>
<feOffset dy="6"/>
<feGaussianBlur stdDeviation="4"/>
<feColorMatrix type="matrix" values="0 0 0 0 0.279463 0 0 0 0 0.0711028 0 0 0 0 0.0740583 0 0 0 0.05 0"/>
<feBlend mode="normal" in2="BackgroundImageFix" result="effect1_dropShadow"/>
<feBlend mode="normal" in="SourceGraphic" in2="effect1_dropShadow" result="shape"/>
</filter>
<clipPath id="clip0">
<path d="M11 22.324C11 12.7562 18.7562 5 28.3239 5H362.676C372.244 5 380 12.7562 380 22.3239V557.676C380 567.244 372.244 575 362.676 575H28.3239C18.7562 575 11 567.244 11 557.676V22.324Z" fill="white"/>
</clipPath>
</defs>
</svg>
