<svg width="391" height="592" viewBox="0 0 391 592" fill="none" xmlns="http://www.w3.org/2000/svg">
<g filter="url(#filter0_d)">
<g clip-path="url(#clip0)">
<path d="M11 22.324C11 12.7562 18.7562 5 28.3239 5H362.676C372.244 5 380 12.7562 380 22.3239V557.676C380 567.244 372.244 575 362.676 575H28.3239C18.7562 575 11 567.244 11 557.676V22.324Z" fill="white"/>
<path d="M63.8151 36.6857V71.4919C63.8151 80.5816 59.6185 85.1264 51.2251 85.1264C49.5313 85.1264 47.3954 84.8724 44.8171 84.3642V76.6295C46.078 76.9683 47.1507 77.1377 48.0352 77.1377C49.823 77.1377 51.0557 76.6389 51.7332 75.6415C52.4295 74.6441 52.7777 73.1009 52.7777 71.012V36.6857H46.4826V29.4591H69.6585V36.6857H63.8151Z" fill="#1A1616"/>
<path d="M232.696 148.753C231.696 152.753 229.696 161.753 229.696 165.753C229.696 169.753 231.696 171.42 232.696 171.753" stroke="#1A1616" stroke-width="3" stroke-linecap="round"/>
<g clip-path="url(#clip1)">
<path d="M107.196 227.253C107.196 211 114.2 185.8 123 177C123 177 143.5 167.5 152 167.5C160.5 167.5 272.5 162.5 272.5 162.5C289 166 298.719 174.719 301 177C307.5 183.5 314.196 201.753 314.196 201.753V292.753H107.196V227.253Z" fill="#BDB9B9"/>
<path d="M233 145.5L189.5 156V160.5L198 175.5L228.5 167L233 145.5Z" fill="#BDB9B9"/>
<path d="M231.5 159.5C235.667 160.167 244.596 161.253 250.196 161.253C255.796 161.253 266.863 161.92 271.696 162.253C279.964 162.169 308.5 171.5 314.5 202" stroke="#1A1616" stroke-width="3" stroke-linecap="round"/>
<path d="M185.696 152.253C186.412 154.043 189.945 158.137 190.796 163.253M190.196 169.753C191.049 167.479 191.134 165.286 190.796 163.253M190.796 163.253C174.809 165.084 134.174 165.826 122.5 177.5C113.7 186.3 107.304 209.247 104.5 227.5" stroke="#1A1616" stroke-width="3" stroke-linecap="round"/>
<path d="M148 226L135.5 288.5" stroke="#1A1616" stroke-width="3" stroke-linecap="round"/>
<path d="M180 161C174.4 161 163 162.667 158 163.5L208 250L224 222C207.036 200.324 203.265 161 180 161Z" fill="#383333" stroke="#1A1616" stroke-width="3" stroke-linecap="round"/>
<path d="M239 161C244.6 161 256 162.667 261 163.5C261 163.5 231 205 224 227C217 249 212 290 212 290H180.5C180.5 255 207.599 161 239 161Z" fill="#383333"/>
</g>
<path d="M212 290C212 290 217 249 224 227C231 205 261 163.5 261 163.5C259 160 246.1 160 240.5 160C209.099 160 180.5 255 180.5 290" stroke="#1A1616" stroke-width="3" stroke-linecap="round"/>
<path d="M83.8758 232.261C84.0227 238.463 79.8984 256.597 86.9118 266.128C93.9252 275.658 94.5197 285.826 102.014 285.648C109.509 285.471 110.126 283.032 114.114 275.18C121.327 260.976 116.316 238.206 112.869 222.608C110.752 211.788 107.562 196.339 107.536 195.239C107.501 193.786 104.402 177.719 104.356 175.78C104.31 173.842 104.691 169.469 104.634 167.047C104.577 164.624 100.967 155.497 100.448 154.055C99.9288 152.613 96.6706 143.673 94.415 144.986C92.6965 145.987 89.2322 147.533 82.5069 141.53L78.2752 139.065C76.314 138.142 73.8797 137.715 72.449 138.719C71.0182 139.722 69.5989 141.21 70.614 143.126L73.636 147.902C73.1515 147.914 71.7207 148.917 71.2706 150.383C70.8204 151.848 70.4162 155.251 69.493 157.212C68.5697 159.174 67.1734 161.631 66.7118 162.611C66.2502 163.592 65.281 163.615 64.8653 166.534C64.4496 169.453 64.9342 169.441 65.9607 171.841C66.9872 174.241 68.4868 176.145 70.124 183.863C70.6269 186.234 77.0227 188.548 78.5453 191.421C80.0678 194.294 83.1817 202.948 83.2735 206.824L83.8758 232.261Z" fill="#BBB4B4" stroke="#1A1616" stroke-width="3" stroke-linecap="round"/>
<path d="M81.6685 320.944C73.9931 313.624 79.8339 243.466 79.8339 243.466L119.479 228.023C125.495 249.72 131.96 315.752 122.131 339.992C112.302 364.231 89.344 328.265 81.6685 320.944Z" fill="#BDB9B9" stroke="#1A1616" stroke-width="3" stroke-linecap="round"/>
<path d="M114.268 219.144C102.549 229.679 87.8106 221.271 78.5883 211.987L79.2748 240.979C79.5352 251.976 102.647 256.43 113.537 251.671C124.428 246.912 117.113 212.575 115.542 209.611C114.286 207.24 111.27 205.211 109.949 205.743C113.766 204.985 117.696 216.062 114.268 219.144Z" fill="#453B3B" stroke="#1A1616" stroke-width="3" stroke-linecap="round"/>
<path fill-rule="evenodd" clip-rule="evenodd" d="M111.099 134.686C111.866 134.489 112.444 134.109 112.754 133.542C113.813 131.603 111.332 128.207 107.212 125.957C103.092 123.707 98.8937 123.454 97.8348 125.393C97.3705 126.243 97.5867 127.373 98.3232 128.564C97.8902 128.979 97.5125 129.467 97.2097 130.021L75.2555 170.215L75.2554 170.215C66.3022 168.464 56.8703 172.584 52.2644 181.016L24.2219 232.357C22.104 236.235 23.5305 241.095 27.408 243.213L51.1037 256.155C54.9813 258.273 59.8416 256.847 61.9596 252.969L90.002 201.629C94.2548 193.843 93.19 184.582 88.0331 178.023C88.1726 177.827 88.3019 177.622 88.4198 177.406L110.374 137.212C110.814 136.406 111.05 135.545 111.099 134.686Z" fill="#E6DDDD"/>
<path d="M111.099 134.686L110.726 133.233C110.094 133.395 109.64 133.948 109.602 134.599L111.099 134.686ZM98.3232 128.564L99.3613 129.647C99.8721 129.157 99.9712 128.377 99.5989 127.775L98.3232 128.564ZM75.2554 170.215L74.9675 171.688C75.6093 171.813 76.2584 171.508 76.5719 170.934L75.2554 170.215ZM88.0331 178.023L86.8124 177.151C86.4252 177.693 86.4421 178.426 86.8539 178.95L88.0331 178.023ZM111.438 132.823C111.388 132.915 111.232 133.103 110.726 133.233L111.473 136.139C112.5 135.875 113.501 135.304 114.071 134.261L111.438 132.823ZM106.493 127.273C108.403 128.317 109.868 129.594 110.714 130.751C111.637 132.014 111.525 132.663 111.438 132.823L114.071 134.261C115.042 132.482 114.22 130.464 113.136 128.981C111.976 127.394 110.14 125.847 107.931 124.641L106.493 127.273ZM99.1512 126.112C99.2386 125.952 99.7246 125.507 101.285 125.601C102.717 125.687 104.582 126.23 106.493 127.273L107.931 124.641C105.722 123.434 103.428 122.725 101.466 122.607C99.6325 122.497 97.4899 122.895 96.5183 124.674L99.1512 126.112ZM99.5989 127.775C98.9627 126.746 99.0778 126.246 99.1512 126.112L96.5183 124.674C95.6632 126.24 96.2107 128 97.0475 129.353L99.5989 127.775ZM97.2851 127.481C96.7425 128.001 96.2706 128.611 95.8932 129.302L98.5261 130.74C98.7545 130.322 99.0378 129.957 99.3613 129.647L97.2851 127.481ZM95.8932 129.302L73.9391 169.496L76.572 170.934L98.5261 130.74L95.8932 129.302ZM73.9391 169.496L73.939 169.496L76.5719 170.934L76.572 170.934L73.9391 169.496ZM75.5434 168.743C65.9669 166.87 55.8763 171.274 50.948 180.297L53.5808 181.735C57.8643 173.893 66.6375 170.058 74.9675 171.688L75.5434 168.743ZM50.948 180.297L22.9055 231.638L25.5384 233.076L53.5808 181.735L50.948 180.297ZM22.9055 231.638C20.3905 236.243 22.0844 242.014 26.689 244.529L28.1271 241.896C24.9765 240.176 23.8175 236.227 25.5384 233.076L22.9055 231.638ZM26.689 244.529L50.3847 257.472L51.8228 254.839L28.1271 241.896L26.689 244.529ZM50.3847 257.472C54.9893 259.987 60.7609 258.293 63.276 253.688L60.6431 252.25C58.9223 255.401 54.9733 256.56 51.8228 254.839L50.3847 257.472ZM63.276 253.688L91.3185 202.348L88.6856 200.91L60.6431 252.25L63.276 253.688ZM91.3185 202.348C95.8691 194.016 94.7269 184.11 89.2123 177.096L86.8539 178.95C91.6531 185.054 92.6406 193.669 88.6856 200.91L91.3185 202.348ZM89.2538 178.894C89.4282 178.65 89.5894 178.394 89.7363 178.125L87.1034 176.687C87.0143 176.85 86.917 177.005 86.8124 177.151L89.2538 178.894ZM89.7363 178.125L111.69 137.931L109.058 136.493L87.1034 176.687L89.7363 178.125ZM111.69 137.931C112.239 136.927 112.535 135.848 112.597 134.772L109.602 134.599C109.565 135.241 109.389 135.886 109.058 136.493L111.69 137.931Z" fill="#1A1616"/>
<path d="M64.8768 196.229C51.6805 196.541 43.1758 202.077 40.573 204.806L23.2527 233.724L23.3948 239.723L51.3132 257.067L59.7753 255.366C67.6004 240.843 84.5956 209.466 89.9763 200.136C95.3569 190.806 91.9184 183.585 89.5265 181.141C86.8084 186.04 78.0731 195.916 64.8768 196.229Z" fill="#696060"/>
<path d="M111.099 134.686L110.726 133.233C110.094 133.396 109.64 133.948 109.602 134.6L111.099 134.686ZM98.3232 128.564L99.3613 129.647C99.8721 129.157 99.9712 128.377 99.5989 127.775L98.3232 128.564ZM75.2554 170.216L74.9675 171.688C75.6093 171.813 76.2584 171.509 76.5719 170.935L75.2554 170.216ZM88.0331 178.023L86.8124 177.151C86.4252 177.694 86.4421 178.426 86.8539 178.95L88.0331 178.023ZM111.438 132.823C111.388 132.915 111.232 133.103 110.726 133.233L111.473 136.139C112.5 135.875 113.501 135.304 114.071 134.261L111.438 132.823ZM106.493 127.274C108.403 128.317 109.868 129.594 110.714 130.752C111.637 132.014 111.525 132.663 111.438 132.823L114.071 134.261C115.042 132.483 114.22 130.464 113.136 128.982C111.976 127.394 110.14 125.848 107.931 124.641L106.493 127.274ZM99.1512 126.112C99.2386 125.952 99.7246 125.508 101.285 125.602C102.717 125.688 104.582 126.23 106.493 127.274L107.931 124.641C105.722 123.434 103.428 122.725 101.466 122.607C99.6325 122.497 97.4899 122.895 96.5183 124.674L99.1512 126.112ZM99.5989 127.775C98.9627 126.746 99.0778 126.247 99.1512 126.112L96.5183 124.674C95.6632 126.24 96.2107 128 97.0475 129.353L99.5989 127.775ZM97.2851 127.481C96.7425 128.002 96.2706 128.612 95.8932 129.302L98.5261 130.741C98.7545 130.322 99.0378 129.957 99.3613 129.647L97.2851 127.481ZM95.8932 129.302L73.9391 169.497L76.572 170.935L98.5261 130.741L95.8932 129.302ZM73.9391 169.497L73.939 169.497L76.5719 170.935L76.572 170.935L73.9391 169.497ZM75.5434 168.744C65.9669 166.871 55.8763 171.275 50.948 180.297L53.5808 181.736C57.8643 173.893 66.6375 170.059 74.9675 171.688L75.5434 168.744ZM50.948 180.297L22.9055 231.638L25.5384 233.076L53.5808 181.736L50.948 180.297ZM22.9055 231.638C20.3905 236.243 22.0844 242.014 26.689 244.529L28.1271 241.897C24.9765 240.176 23.8175 236.227 25.5384 233.076L22.9055 231.638ZM26.689 244.529L50.3847 257.472L51.8228 254.839L28.1271 241.897L26.689 244.529ZM50.3847 257.472C54.9893 259.987 60.7609 258.293 63.276 253.689L60.6431 252.251C58.9223 255.401 54.9733 256.56 51.8228 254.839L50.3847 257.472ZM63.276 253.689L91.3185 202.348L88.6856 200.91L60.6431 252.251L63.276 253.689ZM91.3185 202.348C95.8691 194.017 94.7269 184.11 89.2123 177.096L86.8539 178.95C91.6531 185.054 92.6406 193.669 88.6856 200.91L91.3185 202.348ZM89.2538 178.895C89.4282 178.651 89.5894 178.394 89.7363 178.125L87.1034 176.687C87.0143 176.85 86.917 177.005 86.8124 177.151L89.2538 178.895ZM89.7363 178.125L111.69 137.931L109.058 136.493L87.1034 176.687L89.7363 178.125ZM111.69 137.931C112.239 136.927 112.535 135.848 112.597 134.773L109.602 134.6C109.565 135.241 109.389 135.887 109.058 136.493L111.69 137.931Z" fill="#1A1616"/>
<path fill-rule="evenodd" clip-rule="evenodd" d="M64.8357 209.298C65.3292 210.016 66.032 210.641 66.8934 211.111C69.3597 212.459 72.4342 211.582 73.7604 209.154C75.3377 206.266 73.7797 200.689 72.5403 196.252C72.0946 194.656 71.6901 193.208 71.4875 192.086C70.4336 192.522 68.9966 192.964 67.4131 193.451C63.0101 194.806 57.4751 196.51 55.8978 199.398C54.5716 201.826 55.4958 204.886 57.9621 206.233C58.7745 206.677 59.6265 206.928 60.4514 206.978C59.8756 209.218 58.708 212.442 56.7398 213.02C55.7534 213.31 57.1963 214.926 58.5948 215.69C60.0027 216.459 62.0009 216.722 61.7114 215.736C61.1281 213.748 63.257 210.989 64.8357 209.298Z" fill="#453B3B"/>
<path d="M64.8357 209.298L66.0718 208.448C65.8142 208.073 65.4006 207.836 64.9472 207.802C64.4938 207.768 64.0495 207.942 63.7392 208.274L64.8357 209.298ZM72.5403 196.252L73.985 195.848L73.985 195.848L72.5403 196.252ZM71.4875 192.086L72.9636 191.819C72.883 191.373 72.6047 190.987 72.2065 190.769C71.8084 190.552 71.3332 190.526 70.914 190.7L71.4875 192.086ZM67.4131 193.451L66.9719 192.018L66.9719 192.018L67.4131 193.451ZM60.4514 206.978L61.9041 207.351C62.0156 206.917 61.9275 206.456 61.6639 206.095C61.4004 205.733 60.9889 205.507 60.542 205.48L60.4514 206.978ZM56.7398 213.02L57.1623 214.459L57.1623 214.459L56.7398 213.02ZM61.7114 215.736L60.2721 216.158L60.2721 216.158L61.7114 215.736ZM67.6124 209.795C66.9381 209.427 66.4198 208.954 66.0718 208.448L63.5995 210.147C64.2385 211.077 65.126 211.855 66.1744 212.428L67.6124 209.795ZM72.444 208.435C71.5254 210.117 69.3712 210.756 67.6124 209.795L66.1744 212.428C69.3483 214.162 73.343 213.048 75.0769 209.873L72.444 208.435ZM71.0956 196.655C71.7208 198.893 72.3923 201.305 72.7233 203.507C73.0657 205.785 72.9769 207.46 72.444 208.435L75.0769 209.873C76.1213 207.961 76.0421 205.403 75.69 203.061C75.3264 200.643 74.5992 198.047 73.985 195.848L71.0956 196.655ZM70.0113 192.352C70.2294 193.56 70.6573 195.086 71.0956 196.655L73.985 195.848C73.5319 194.226 73.1509 192.856 72.9636 191.819L70.0113 192.352ZM67.8543 194.885C69.4116 194.406 70.9271 193.941 72.061 193.472L70.914 190.7C69.9401 191.103 68.5815 191.522 66.9719 192.018L67.8543 194.885ZM57.2142 200.117C57.7471 199.141 59.1084 198.161 61.2098 197.218C63.2413 196.307 65.6335 195.568 67.8543 194.885L66.9719 192.018C64.7898 192.689 62.2129 193.48 59.9818 194.481C57.8206 195.451 55.6258 196.766 54.5814 198.678L57.2142 200.117ZM58.6811 204.917C56.9224 203.956 56.2956 201.798 57.2142 200.117L54.5814 198.678C52.8475 201.853 54.0691 205.816 57.243 207.55L58.6811 204.917ZM60.542 205.48C59.9559 205.445 59.3169 205.264 58.6811 204.917L57.243 207.55C58.2321 208.09 59.2972 208.41 60.3608 208.475L60.542 205.48ZM57.1623 214.459C58.7618 213.99 59.7951 212.556 60.4451 211.321C61.1329 210.015 61.6034 208.521 61.9041 207.351L58.9986 206.604C58.7236 207.674 58.3225 208.913 57.7905 209.923C57.2206 211.006 56.6861 211.473 56.3174 211.581L57.1623 214.459ZM59.3138 214.373C58.7728 214.078 58.231 213.612 57.9618 213.262C57.7982 213.05 57.8895 213.081 57.9108 213.317C57.9258 213.483 57.9027 213.773 57.7012 214.056C57.5058 214.331 57.2627 214.43 57.1623 214.459L56.3174 211.581C55.9703 211.683 55.5566 211.896 55.2567 212.317C54.9508 212.747 54.8896 213.216 54.9229 213.587C54.9811 214.232 55.3356 214.769 55.5841 215.092C56.1394 215.813 57.0182 216.538 57.8757 217.006L59.3138 214.373ZM60.2721 216.158C60.2467 216.071 60.2018 215.844 60.3009 215.557C60.4056 215.255 60.6088 215.066 60.768 214.969C60.8414 214.925 60.9022 214.902 60.9386 214.89C60.9753 214.878 60.9975 214.874 61.0004 214.874C61.0026 214.874 60.9653 214.879 60.88 214.874C60.4981 214.851 59.8596 214.672 59.3138 214.373L57.8757 217.006C58.7379 217.477 59.8025 217.814 60.6992 217.868C61.1012 217.893 61.751 217.881 62.3211 217.536C62.6489 217.338 62.9717 217.013 63.1357 216.539C63.2943 216.081 63.2485 215.646 63.1507 215.313L60.2721 216.158ZM63.7392 208.274C62.9147 209.157 61.8996 210.367 61.1603 211.662C60.4626 212.883 59.7984 214.544 60.2721 216.158L63.1507 215.313C63.0411 214.94 63.1497 214.227 63.7653 213.15C64.3393 212.145 65.178 211.129 65.9321 210.321L63.7392 208.274Z" fill="#1A1616"/>
<path fill-rule="evenodd" clip-rule="evenodd" d="M58.686 223.539C58.5422 222.379 59.3154 221.287 60.4796 221.054C61.7002 220.808 62.8886 221.599 63.1338 222.82C63.3057 223.675 62.9688 224.515 62.3318 225.025C63.1164 225.249 63.7514 225.894 63.9232 226.749C64.1685 227.97 63.3777 229.158 62.1571 229.403C61.0462 229.626 59.9622 228.992 59.5913 227.956L55.8904 228.699L58.2142 232.513C59.2416 232.033 60.4875 232.392 61.0913 233.383C61.7392 234.446 61.4025 235.834 60.3393 236.481C59.5942 236.935 58.6902 236.906 57.9928 236.482C58.0501 237.296 57.6618 238.113 56.9168 238.567C55.8536 239.215 54.4665 238.878 53.8186 237.815C53.2148 236.824 53.4662 235.552 54.364 234.859L51.1864 229.644L45.2921 230.828C45.3919 231.958 44.6277 233.006 43.4901 233.234C42.2694 233.48 41.0811 232.689 40.8358 231.468C40.664 230.613 41.0008 229.773 41.6378 229.263C40.8532 229.039 40.2183 228.394 40.0464 227.539C39.8012 226.318 40.5919 225.13 41.8126 224.885C42.9503 224.656 44.0599 225.327 44.404 226.408L48.6898 225.547L46.7746 222.404C45.7618 222.835 44.5599 222.469 43.9702 221.501C43.3224 220.438 43.659 219.051 44.7222 218.403C45.4673 217.949 46.3714 217.978 47.0687 218.403C47.0114 217.588 47.3997 216.771 48.1447 216.317C49.2079 215.67 50.595 216.006 51.2429 217.069C51.8608 218.083 51.5832 219.392 50.6339 220.073L53.3937 224.602L58.686 223.539Z" fill="#453B3B"/>
<path d="M60.4796 221.054L60.775 222.524L60.775 222.524L60.4796 221.054ZM58.686 223.539L58.9814 225.009C59.7509 224.855 60.2712 224.133 60.1746 223.354L58.686 223.539ZM63.1338 222.82L64.6044 222.524L64.6044 222.524L63.1338 222.82ZM62.3318 225.025L61.3941 223.854C60.9563 224.205 60.7507 224.77 60.8612 225.32C60.9717 225.87 61.3797 226.312 61.919 226.467L62.3318 225.025ZM63.9232 226.749L62.4526 227.044L62.4526 227.044L63.9232 226.749ZM62.1571 229.403L61.8616 227.933L61.8616 227.933L62.1571 229.403ZM59.5913 227.956L61.0035 227.45C60.7526 226.749 60.0256 226.338 59.2958 226.485L59.5913 227.956ZM55.8904 228.699L55.595 227.229C55.1152 227.325 54.7126 227.649 54.5163 228.098C54.3201 228.546 54.3548 229.062 54.6095 229.48L55.8904 228.699ZM58.2142 232.513L56.9333 233.293C57.3311 233.946 58.1565 234.195 58.8492 233.872L58.2142 232.513ZM61.0913 233.383L62.3722 232.603L62.3722 232.603L61.0913 233.383ZM60.3393 236.481L61.1198 237.762L61.1198 237.762L60.3393 236.481ZM57.9928 236.482L58.7723 235.2C58.2931 234.909 57.6913 234.909 57.2123 235.201C56.7333 235.493 56.4572 236.028 56.4965 236.587L57.9928 236.482ZM56.9168 238.567L57.6973 239.848L57.6973 239.848L56.9168 238.567ZM53.8186 237.815L55.0995 237.034L53.8186 237.815ZM54.364 234.859L55.2805 236.046C55.8858 235.579 56.0428 234.731 55.6449 234.078L54.364 234.859ZM51.1864 229.644L52.4674 228.864C52.1392 228.325 51.5093 228.049 50.891 228.174L51.1864 229.644ZM45.2921 230.828L44.9966 229.358C44.247 229.508 43.7306 230.199 43.7979 230.961L45.2921 230.828ZM43.4901 233.234L43.7855 234.705L43.7855 234.705L43.4901 233.234ZM40.8358 231.468L42.3064 231.173L42.3064 231.173L40.8358 231.468ZM41.6378 229.263L42.5756 230.434C43.0134 230.083 43.2189 229.518 43.1085 228.968C42.998 228.418 42.5899 227.975 42.0507 227.821L41.6378 229.263ZM40.0464 227.539L38.5758 227.834L38.5758 227.834L40.0464 227.539ZM41.8126 224.885L42.108 226.355L42.108 226.355L41.8126 224.885ZM44.404 226.408L42.9747 226.863C43.2068 227.592 43.9498 228.029 44.6995 227.879L44.404 226.408ZM48.6898 225.547L48.9852 227.018C49.465 226.921 49.8676 226.597 50.0639 226.149C50.2601 225.7 50.2253 225.184 49.9707 224.767L48.6898 225.547ZM46.7746 222.404L48.0555 221.624C47.6681 220.988 46.8731 220.733 46.1879 221.024L46.7746 222.404ZM43.9702 221.501L45.2511 220.721L45.2511 220.721L43.9702 221.501ZM44.7222 218.403L43.9417 217.122L43.9417 217.122L44.7222 218.403ZM47.0687 218.403L46.2892 219.684C46.7684 219.976 47.3702 219.975 47.8492 219.684C48.3282 219.392 48.6043 218.857 48.565 218.297L47.0687 218.403ZM48.1447 216.317L48.9253 217.598L48.9253 217.598L48.1447 216.317ZM51.2429 217.069L52.5238 216.289L52.5238 216.289L51.2429 217.069ZM50.6339 220.073L49.7595 218.854C49.1219 219.312 48.9446 220.183 49.353 220.853L50.6339 220.073ZM53.3937 224.602L52.1128 225.383C52.441 225.921 53.0709 226.197 53.6892 226.073L53.3937 224.602ZM60.1841 219.583C58.2446 219.973 56.9578 221.791 57.1974 223.723L60.1746 223.354C60.1267 222.968 60.3861 222.602 60.775 222.524L60.1841 219.583ZM64.6044 222.524C64.196 220.491 62.217 219.175 60.1841 219.583L60.775 222.524C61.1835 222.442 61.5811 222.707 61.6632 223.115L64.6044 222.524ZM63.2695 226.196C64.3271 225.348 64.891 223.951 64.6044 222.524L61.6632 223.115C61.7203 223.399 61.6105 223.681 61.3941 223.854L63.2695 226.196ZM65.3938 226.454C65.1072 225.027 64.0473 223.956 62.7446 223.583L61.919 226.467C62.1856 226.543 62.3955 226.76 62.4526 227.044L65.3938 226.454ZM62.4525 230.874C64.4854 230.465 65.8023 228.486 65.3938 226.454L62.4526 227.044C62.5347 227.453 62.2701 227.851 61.8616 227.933L62.4525 230.874ZM58.179 228.461C58.7972 230.188 60.6013 231.246 62.4525 230.874L61.8616 227.933C61.4912 228.007 61.1271 227.795 61.0035 227.45L58.179 228.461ZM56.1859 230.17L59.8867 229.426L59.2958 226.485L55.595 227.229L56.1859 230.17ZM54.6095 229.48L56.9333 233.293L59.4951 231.732L57.1713 227.919L54.6095 229.48ZM58.8492 233.872C59.1916 233.712 59.6088 233.833 59.8104 234.164L62.3722 232.603C61.3661 230.952 59.2915 230.353 57.5791 231.154L58.8492 233.872ZM59.8104 234.164C60.0272 234.52 59.9145 234.984 59.5587 235.201L61.1198 237.762C62.8904 236.683 63.4512 234.373 62.3722 232.603L59.8104 234.164ZM59.5587 235.201C59.3112 235.351 59.0093 235.344 58.7723 235.2L57.2133 237.763C58.371 238.468 59.8772 238.52 61.1198 237.762L59.5587 235.201ZM56.4965 236.587C56.516 236.864 56.3837 237.135 56.1362 237.286L57.6973 239.848C58.9399 239.091 59.5842 237.728 59.4891 236.377L56.4965 236.587ZM56.1362 237.286C55.7805 237.503 55.3163 237.39 55.0995 237.034L52.5377 238.596C53.6166 240.366 55.9267 240.927 57.6973 239.848L56.1362 237.286ZM55.0995 237.034C54.898 236.704 54.9813 236.277 55.2805 236.046L53.4475 233.671C51.9511 234.826 51.5315 236.944 52.5377 238.596L55.0995 237.034ZM55.6449 234.078L52.4674 228.864L49.9055 230.425L53.0831 235.639L55.6449 234.078ZM45.5875 232.299L51.4819 231.115L50.891 228.174L44.9966 229.358L45.5875 232.299ZM43.7855 234.705C45.6811 234.324 46.9526 232.579 46.7862 230.696L43.7979 230.961C43.8312 231.337 43.5743 231.687 43.1946 231.764L43.7855 234.705ZM39.3652 231.764C39.7736 233.797 41.7527 235.113 43.7855 234.705L43.1946 231.764C42.7862 231.846 42.3885 231.581 42.3064 231.173L39.3652 231.764ZM40.7001 228.092C39.6425 228.94 39.0786 230.337 39.3652 231.764L42.3064 231.173C42.2494 230.889 42.3591 230.607 42.5756 230.434L40.7001 228.092ZM38.5758 227.834C38.8624 229.261 39.9223 230.332 41.225 230.705L42.0507 227.821C41.784 227.745 41.5741 227.528 41.517 227.243L38.5758 227.834ZM41.5171 223.414C39.4843 223.822 38.1674 225.802 38.5758 227.834L41.517 227.243C41.435 226.835 41.6996 226.437 42.108 226.355L41.5171 223.414ZM45.8333 225.953C45.2597 224.152 43.4128 223.033 41.5171 223.414L42.108 226.355C42.4877 226.279 42.8601 226.503 42.9747 226.863L45.8333 225.953ZM48.3943 224.076L44.1086 224.937L44.6995 227.879L48.9852 227.018L48.3943 224.076ZM49.9707 224.767L48.0555 221.624L45.4937 223.185L47.4088 226.328L49.9707 224.767ZM46.1879 221.024C45.8503 221.167 45.4478 221.043 45.2511 220.721L42.6893 222.282C43.672 223.894 45.6733 224.502 47.3613 223.785L46.1879 221.024ZM45.2511 220.721C45.0344 220.365 45.147 219.901 45.5028 219.684L43.9417 217.122C42.1711 218.201 41.6104 220.511 42.6893 222.282L45.2511 220.721ZM45.5028 219.684C45.7503 219.533 46.0522 219.54 46.2892 219.684L47.8482 217.121C46.6905 216.417 45.1843 216.365 43.9417 217.122L45.5028 219.684ZM48.565 218.297C48.5455 218.021 48.6778 217.749 48.9253 217.598L47.3642 215.036C46.1216 215.794 45.4773 217.156 45.5724 218.508L48.565 218.297ZM48.9253 217.598C49.281 217.382 49.7452 217.494 49.962 217.85L52.5238 216.289C51.4449 214.518 49.1348 213.958 47.3642 215.036L48.9253 217.598ZM49.962 217.85C50.1684 218.189 50.0759 218.627 49.7595 218.854L51.5083 221.292C53.0904 220.157 53.5532 217.978 52.5238 216.289L49.962 217.85ZM49.353 220.853L52.1128 225.383L54.6746 223.821L51.9148 219.292L49.353 220.853ZM58.3905 222.068L53.0983 223.131L53.6892 226.073L58.9814 225.009L58.3905 222.068Z" fill="#1A1616"/>
<path d="M80.7047 177.93C79.9202 177.561 75.3225 175.215 73.3651 174.453C73.3651 174.453 68.8664 174.559 69.2479 169.549C70.1766 166.526 73.4503 158.224 73.4503 158.224C73.7696 158.055 74.6965 157.613 75.8502 157.197L73.773 149.436L77.063 146.987L79.1268 139.807C79.9541 141.173 83.8552 142.808 87.4906 144.942C91.8536 147.503 96.041 150.513 96.8465 151.023C98.3232 151.958 97.4573 156.342 95.0804 158.338C94.8545 158.527 94.5333 158.564 94.1405 158.479C96.0625 159.171 97.8821 161.799 98.5871 163.103C100.075 164.522 96.8095 169.933 95.3213 168.513C94.3096 167.548 91.872 166.171 91.872 166.171C91.872 166.171 95.3756 170.803 95.3983 171.764C95.4327 173.218 93.5519 175.687 92.5827 175.71C91.8074 175.728 88.6713 174.327 87.683 173.543C88.1906 174.5 86.0579 178.773 85.1117 179.765C84.1655 180.757 81.6853 178.392 80.7047 177.93Z" fill="#BBB4B4"/>
<path d="M72.7599 173.896C74.7173 174.657 79.9202 177.561 80.7047 177.93C81.6853 178.392 84.1655 180.757 85.1117 179.765C86.0579 178.773 88.1905 174.5 87.683 173.542C87.1755 172.585 83.1991 168.457 81.7224 167.523C80.2458 166.588 73.015 164.193 72.519 163.72C72.0229 163.247 70.1076 164.262 69.6804 166.696M88.8424 173.515C89.8306 174.3 91.8074 175.728 92.5827 175.71C93.5518 175.687 95.4327 173.218 95.3983 171.764C95.3756 170.803 91.872 166.171 91.872 166.171M73.4503 158.224C73.7695 158.054 74.6964 157.612 75.8502 157.197C77.2924 156.678 79.7153 156.621 80.2113 157.094C80.7073 157.567 87.1133 161.92 88.6014 163.339C89.1057 163.82 91.1265 165.548 91.872 166.171M91.872 166.171C91.872 166.171 94.3096 167.548 95.3213 168.513C96.8094 169.932 100.075 164.522 98.5871 163.103C97.8358 161.713 95.8189 158.821 93.7612 158.369M79.1268 139.807C79.9541 141.173 83.8552 142.808 87.4906 144.942C91.8536 147.503 96.041 150.513 96.8465 151.023C98.3232 151.958 97.4573 156.342 95.0804 158.337C94.7855 158.585 94.3282 158.571 93.7612 158.369M77.0629 146.987C78.3561 146.956 82.0773 149.029 83.2443 149.891C84.3262 150.548 90.672 157.264 93.7612 158.369" stroke="#1A1616" stroke-width="3" stroke-linecap="round"/>
<path d="M99.4243 137.525C100.683 145.298 99.8596 155.909 100.028 163.018C100.112 166.562 98.7131 188.857 102.617 184.763L110.24 157.774L104.768 137.898L99.4243 137.525Z" fill="#BBB4B4"/>
<path d="M105.443 179.249C105.396 177.249 107.108 173.353 107.049 170.854C106.99 168.354 108.835 161.809 109.776 159.286C111.386 154.966 103.43 138.652 103.268 137.934C102.709 135.446 100.494 135.835 98.7814 138.54C95.8888 143.11 103.186 153.37 100.415 157.007C98.4749 159.553 99.3141 161.034 99.4561 167.032" stroke="#1A1616" stroke-width="3" stroke-linecap="round"/>
<path d="M98.2822 128.42C100.341 130.872 104.001 133.386 106.41 133.729" stroke="#1A1616" stroke-width="3" stroke-linecap="round" stroke-linejoin="round"/>
<g clip-path="url(#clip2)">
<path d="M310.667 268.14C318.167 275.64 310.667 345.64 310.667 345.64L270.667 360.14C265.167 338.306 260.267 272.14 270.667 248.14C281.067 224.14 303.167 260.64 310.667 268.14Z" fill="#BDB9B9" stroke="#1A1616" stroke-width="3" stroke-linecap="round"/>
</g>
<path d="M182.196 133.628C180.196 130.028 175.167 121.167 175.5 117.5L175.5 88.1285C181.459 84.1197 202.106 89.2938 209.885 88.1285C210.47 89.0378 211.075 89.8833 211.696 90.6285C216.696 96.6285 225.196 88.7385 232.196 94.8751C239.04 100.875 228.968 117.371 239.447 122.776C239.588 123.755 239.655 125.294 239.196 127.128C238.196 131.128 238.696 138.128 236.196 143.128C234.863 147.128 232.196 155.228 232.196 155.628C245 172.875 187 169.875 184.696 161.128C183.535 156.718 192.196 159.628 193.196 159.628C193.196 159.628 192.196 156.128 191.696 155.128L189.696 151.128C185.696 148.628 184.696 138.128 182.196 133.628Z" fill="#BBB4B4"/>
<path d="M205.678 40.2712C202.37 40.2712 198.786 41.3433 197.407 41.8794L181.326 49.9202L194.191 63.4746L213.259 49.0012L205.678 40.2712Z" fill="#453B3B" stroke="#1A1616" stroke-width="3"/>
<path d="M197.177 162.721C193.318 161.067 188.524 151.923 186.609 147.558C186.916 150.698 185.461 156.288 189.826 160.194C192.771 162.829 195.569 168.234 195.569 170.762C195.569 173.289 194.65 175.356 194.65 180.181C194.65 185.005 192.812 188.221 192.812 191.438C192.812 194.654 191.434 197.641 192.812 196.722C194.191 195.803 197.177 187.073 197.177 181.329C197.177 175.586 202.691 167.775 204.759 169.843C206.826 171.91 207.286 179.032 207.286 181.329C207.286 183.627 203.84 189.37 203.84 192.127C203.84 194.884 203.84 199.019 204.759 197.641C205.677 196.262 205.448 189.83 207.286 189.37C209.124 188.911 210.502 176.045 213.029 171.68C215.556 167.315 227.502 156.288 230.489 154.22C233.476 152.153 239.449 136.531 238.53 138.139C237.611 139.747 232.327 142.734 229.57 147.558C226.813 152.383 219.462 161.113 213.029 163.64C206.596 166.167 202.002 164.788 197.177 162.721Z" fill="#453B3B" stroke="#1A1616" stroke-width="3"/>
<path d="M198.786 156.059C198.602 157.162 199.016 160.654 201.083 161.343C203.151 162.032 202.737 160.654 203.84 160.654C205.219 160.654 208.435 163.87 209.354 162.032C210.273 160.194 210.273 153.302 205.678 152.613C201.083 151.924 199.016 154.681 198.786 156.059Z" fill="#453B3B" stroke="#1A1616" stroke-width="3"/>
<path d="M156.284 111.719C156.284 102.714 167.005 90.7367 171.677 86.4482L177.88 88.2861L182.015 96.0972C180.637 98.0116 177.88 103.816 177.88 111.719C177.88 121.598 182.015 135.612 184.542 142.274C187.069 148.937 183.623 161.342 182.015 170.762C180.407 180.181 185.001 196.033 177.88 193.735C170.758 191.438 167.312 167.086 167.312 176.505C167.312 185.924 163.636 211.884 160.879 207.519C158.122 203.154 158.352 166.626 156.284 170.762C154.217 174.897 153.528 196.033 151 196.033C148.473 196.033 150.311 173.978 148.933 176.505C147.554 179.032 141.581 200.857 141.581 193.735C141.581 189.102 143.526 173.675 144.885 165.484C142.43 169.483 137.061 172.65 134 173.978C136.144 172.217 140.662 166.764 141.581 159.045C142.73 149.396 144.568 139.058 146.176 132.855C147.784 126.652 156.284 122.976 156.284 111.719Z" fill="#453B3B" stroke="#1A1616" stroke-width="3"/>
<path d="M238.76 132.396C235.268 126.514 235.62 113.098 236.233 107.125L253.922 91.9619C256.22 94.4124 260.815 111.444 260.815 114.017C260.815 117.233 272.531 154.91 272.531 167.545C272.531 180.181 290.451 197.641 286.545 195.573C282.639 193.505 281.261 191.668 277.585 191.668C273.91 191.668 277.585 200.857 272.531 201.316C268.289 201.702 268.417 197.394 263.948 196C263.093 195.733 266.5 213.5 263 213.5C259.5 213.5 259.405 195.725 258.875 196C254.034 198.509 258.271 211.24 253.922 211.655C249.098 212.114 251.855 195.573 246.111 195.573C240.368 195.573 233.476 205.452 233.476 191.668C233.476 177.883 230.949 180.87 233.476 165.478C236.003 150.085 243.125 139.747 238.76 132.396Z" fill="#453B3B" stroke="#1A1616" stroke-width="3"/>
<path d="M241.5 115C245.329 129.014 251.487 151.74 251.855 160.194C252.314 170.762 259.895 188.911 259.895 195.573C259.895 202.236 259.666 211.655 262.423 213.263C265.179 214.871 264.95 200.627 262.423 187.992C259.895 175.356 254.611 151.004 254.611 137.68C254.611 127.02 250.45 116.09 248 110.5" stroke="#1A1616" stroke-width="3" stroke-linecap="round"/>
<path d="M237.381 106.436C225.435 106.436 182.245 101.611 179.258 98.6248C176.271 95.6382 179.258 75.8809 179.258 75.8809L254.612 87.5974C254.612 87.5974 258.058 98.395 255.99 101.611C253.922 104.828 247.516 106.436 237.381 106.436Z" fill="#8D8686" stroke="#1A1616" stroke-width="3"/>
<path d="M192.583 138.828C194.605 138.093 199.858 136.531 202.232 135.842C203.151 135.842 204.989 136.072 204.989 136.99C204.989 138.139 203.84 139.977 202.232 141.355C200.624 142.734 196.948 141.815 193.961 142.964C190.975 144.112 191.664 148.707 190.515 146.869C189.367 145.031 190.056 139.747 192.583 138.828Z" fill="#453B3B"/>
<path d="M209.583 135.842C209.032 135.842 207.21 137.067 206.367 137.68C206.367 139.518 210.962 142.964 213.03 144.112C215.097 145.261 219.232 147.329 221.989 149.856C225.776 153.327 224.287 148.477 223.597 146.869C222.908 145.261 217.395 142.045 215.786 140.896C214.178 139.747 210.273 135.842 209.583 135.842Z" fill="#453B3B"/>
<path d="M192.583 138.828C194.605 138.093 199.858 136.531 202.232 135.842C203.151 135.842 204.989 136.072 204.989 136.99C204.989 138.139 203.84 139.977 202.232 141.355C200.624 142.734 196.948 141.815 193.961 142.964C190.975 144.112 191.664 148.707 190.515 146.869C189.367 145.031 190.056 139.747 192.583 138.828Z" stroke="#1A1616" stroke-width="3"/>
<path d="M209.583 135.842C209.032 135.842 207.21 137.067 206.367 137.68C206.367 139.518 210.962 142.964 213.03 144.112C215.097 145.261 219.232 147.329 221.989 149.856C225.776 153.327 224.287 148.477 223.597 146.869C222.908 145.261 217.395 142.045 215.786 140.896C214.178 139.747 210.273 135.842 209.583 135.842Z" stroke="#1A1616" stroke-width="3"/>
<path d="M155.825 48.3121C147.738 48.8634 141.122 57.8844 138.825 62.326C142.654 65.9252 152.379 74.7318 160.65 81.1644C170.988 89.2052 185.461 88.2862 198.097 88.2862H249.787C257.69 88.2862 284.631 83.5383 297.113 81.1644C299.104 79.0968 298.864 73.0812 284.248 62.326C259.896 44.4066 213.259 33.8387 205.448 40.501C197.637 47.1634 204.299 56.1231 194.421 54.0555C183.569 51.7842 206.597 38.2037 194.421 36.8252C176.615 34.8094 165.933 47.6229 155.825 48.3121Z" fill="#322828" stroke="#1A1616" stroke-width="3"/>
<path fill-rule="evenodd" clip-rule="evenodd" d="M62.6689 118.663C63.8338 119.645 65.189 120.262 66.6351 120.262C70.9862 120.262 74.5135 116.79 74.5135 112.506C74.5135 107.411 68.2567 100.989 63.2795 95.8794C61.4896 94.042 59.8651 92.3745 58.7568 90.9998C57.6484 92.3745 56.0239 94.042 54.234 95.8794C49.2569 100.989 43 107.411 43 112.506C43 116.79 46.5273 120.262 50.8784 120.262C52.2464 120.262 53.5329 119.71 54.654 118.819C55.5853 122.254 56.6357 128.011 54.2547 130.392C53.1293 131.517 56.2895 132.643 58.7567 132.643C61.2406 132.643 64.151 131.517 63.0256 130.392C60.6082 127.974 61.728 122.077 62.6689 118.663ZM58.763 110.706C58.7589 110.6 58.7568 110.495 58.7568 110.391C58.7568 110.495 58.7547 110.6 58.7505 110.705L58.7567 110.696L58.763 110.706Z" fill="#453B3B"/>
<path d="M328.185 543.314V508.508C328.185 499.418 332.382 494.874 340.775 494.874C342.469 494.874 344.605 495.128 347.183 495.636V503.37C345.922 503.032 344.849 502.862 343.965 502.862C342.177 502.862 340.944 503.361 340.267 504.358C339.57 505.356 339.222 506.899 339.222 508.988V543.314H345.517V550.541H322.341V543.314H328.185Z" fill="#1A1616"/>
<path d="M159.304 431.247C160.304 427.247 162.304 418.247 162.304 414.247C162.304 410.247 160.304 408.58 159.304 408.247" stroke="#1A1616" stroke-width="3" stroke-linecap="round"/>
<g clip-path="url(#clip3)">
<path d="M284.804 352.747C284.804 369 277.8 394.2 269 403C269 403 248.5 412.5 240 412.5C231.5 412.5 119.5 417.5 119.5 417.5C103 414 93.2811 405.281 91 403C84.5 396.5 77.8037 378.247 77.8037 378.247V287.247H284.804V352.747Z" fill="#BDB9B9"/>
<path d="M159 434.5L202.5 424V419.5L194 404.5L163.5 413L159 434.5Z" fill="#BDB9B9"/>
<path d="M160.5 420.5C156.333 419.833 147.404 418.747 141.804 418.747C136.204 418.747 125.137 418.08 120.304 417.747C112.036 417.831 83.5 408.5 77.5 378" stroke="#1A1616" stroke-width="3" stroke-linecap="round"/>
<path d="M206.304 427.747C205.588 425.957 202.055 421.863 201.204 416.747M201.804 410.247C200.951 412.521 200.866 414.714 201.204 416.747M201.204 416.747C217.191 414.916 257.826 414.174 269.5 402.5C278.3 393.7 284.696 370.753 287.5 352.5" stroke="#1A1616" stroke-width="3" stroke-linecap="round"/>
<path d="M244 354L256.5 291.5" stroke="#1A1616" stroke-width="3" stroke-linecap="round"/>
<path d="M212 419C217.6 419 229 417.333 234 416.5L184 330L168 358C184.964 379.676 188.735 419 212 419Z" fill="#383333" stroke="#1A1616" stroke-width="3" stroke-linecap="round"/>
<path d="M153 419C147.4 419 136 417.333 131 416.5C131 416.5 161 375 168 353C175 331 180 290 180 290H211.5C211.5 325 184.401 419 153 419Z" fill="#383333"/>
</g>
<path d="M180 290C180 290 175 331 168 353C161 375 131 416.5 131 416.5C133 420 145.9 420 151.5 420C182.901 420 211.5 325 211.5 290" stroke="#1A1616" stroke-width="3" stroke-linecap="round"/>
<path d="M308.124 347.739C307.977 341.537 312.102 323.403 305.088 313.872C298.075 304.342 297.48 294.174 289.986 294.352C282.491 294.529 281.874 296.968 277.886 304.82C270.673 319.024 275.684 341.794 279.131 357.392C281.248 368.212 284.438 383.661 284.464 384.761C284.499 386.214 287.598 402.281 287.644 404.22C287.69 406.158 287.309 410.531 287.366 412.953C287.423 415.376 291.033 424.503 291.552 425.945C292.071 427.387 295.329 436.327 297.585 435.014C299.303 434.013 302.768 432.467 309.493 438.47L313.725 440.935C315.686 441.858 318.12 442.285 319.551 441.281C320.982 440.278 322.401 438.79 321.386 436.874L318.364 432.098C318.849 432.086 320.279 431.083 320.729 429.617C321.18 428.152 321.584 424.749 322.507 422.788C323.43 420.826 324.827 418.369 325.288 417.389C325.75 416.408 326.719 416.385 327.135 413.466C327.55 410.547 327.066 410.559 326.039 408.159C325.013 405.759 323.513 403.855 321.876 396.137C321.373 393.766 314.977 391.452 313.455 388.579C311.932 385.706 308.818 377.052 308.726 373.176L308.124 347.739Z" fill="#BBB4B4" stroke="#1A1616" stroke-width="3" stroke-linecap="round"/>
<path d="M310.331 259.056C318.007 266.376 312.166 336.534 312.166 336.534L272.521 351.977C266.505 330.28 260.04 264.248 269.869 240.008C279.698 215.769 302.656 251.735 310.331 259.056Z" fill="#BDB9B9" stroke="#1A1616" stroke-width="3" stroke-linecap="round"/>
<path d="M277.732 360.856C289.451 350.321 304.189 358.729 313.412 368.013L312.725 339.021C312.465 328.024 289.353 323.57 278.463 328.329C267.572 333.088 274.887 367.425 276.458 370.389C277.714 372.76 280.73 374.789 282.051 374.257C278.234 375.015 274.304 363.938 277.732 360.856Z" fill="#453B3B" stroke="#1A1616" stroke-width="3" stroke-linecap="round"/>
<path fill-rule="evenodd" clip-rule="evenodd" d="M280.901 445.314C280.134 445.511 279.556 445.891 279.246 446.458C278.187 448.397 280.668 451.793 284.788 454.043C288.908 456.293 293.106 456.546 294.165 454.607C294.63 453.757 294.413 452.627 293.677 451.436C294.11 451.021 294.487 450.533 294.79 449.979L316.744 409.785L316.745 409.785C325.698 411.536 335.13 407.416 339.736 398.984L367.778 347.643C369.896 343.765 368.47 338.905 364.592 336.787L340.896 323.845C337.019 321.727 332.158 323.153 330.04 327.031L301.998 378.371C297.745 386.157 298.81 395.418 303.967 401.977C303.827 402.173 303.698 402.378 303.58 402.594L281.626 442.788C281.186 443.594 280.95 444.455 280.901 445.314Z" fill="#E6DDDD"/>
<path d="M280.901 445.314L281.274 446.767C281.906 446.605 282.36 446.052 282.398 445.401L280.901 445.314ZM293.677 451.436L292.639 450.353C292.128 450.843 292.029 451.623 292.401 452.225L293.677 451.436ZM294.79 449.979L293.474 449.26L294.79 449.979ZM316.744 409.785L318.061 410.504L316.744 409.785ZM316.745 409.785L317.032 408.312C316.391 408.187 315.742 408.492 315.428 409.066L316.745 409.785ZM339.736 398.984L341.052 399.703L339.736 398.984ZM367.778 347.643L366.462 346.924L367.778 347.643ZM330.04 327.031L331.357 327.75L330.04 327.031ZM301.998 378.371L300.682 377.652L301.998 378.371ZM303.967 401.977L305.188 402.849C305.575 402.307 305.558 401.574 305.146 401.05L303.967 401.977ZM280.562 447.177C280.612 447.085 280.768 446.897 281.274 446.767L280.527 443.861C279.5 444.125 278.499 444.696 277.929 445.739L280.562 447.177ZM285.507 452.727C283.597 451.683 282.132 450.406 281.286 449.249C280.363 447.986 280.475 447.337 280.562 447.177L277.929 445.739C276.958 447.518 277.78 449.536 278.864 451.019C280.024 452.606 281.86 454.153 284.069 455.359L285.507 452.727ZM292.849 453.888C292.761 454.048 292.275 454.493 290.715 454.399C289.283 454.313 287.418 453.77 285.507 452.727L284.069 455.359C286.278 456.566 288.572 457.275 290.534 457.393C292.367 457.503 294.51 457.105 295.482 455.326L292.849 453.888ZM292.401 452.225C293.037 453.254 292.922 453.754 292.849 453.888L295.482 455.326C296.337 453.76 295.789 452 294.953 450.647L292.401 452.225ZM294.715 452.519C295.257 451.999 295.729 451.389 296.107 450.698L293.474 449.26C293.246 449.678 292.962 450.043 292.639 450.353L294.715 452.519ZM296.107 450.698L318.061 410.504L315.428 409.066L293.474 449.26L296.107 450.698ZM318.061 410.504L318.061 410.504L315.428 409.066L315.428 409.066L318.061 410.504ZM316.457 411.257C326.033 413.13 336.124 408.726 341.052 399.703L338.419 398.265C334.136 406.107 325.363 409.942 317.032 408.312L316.457 411.257ZM341.052 399.703L369.094 348.362L366.462 346.924L338.419 398.265L341.052 399.703ZM369.094 348.362C371.61 343.757 369.916 337.986 365.311 335.471L363.873 338.104C367.023 339.824 368.182 343.773 366.462 346.924L369.094 348.362ZM365.311 335.471L341.615 322.528L340.177 325.161L363.873 338.104L365.311 335.471ZM341.615 322.528C337.011 320.013 331.239 321.707 328.724 326.312L331.357 327.75C333.078 324.599 337.027 323.44 340.177 325.161L341.615 322.528ZM328.724 326.312L300.682 377.652L303.314 379.09L331.357 327.75L328.724 326.312ZM300.682 377.652C296.131 385.984 297.273 395.89 302.788 402.904L305.146 401.05C300.347 394.946 299.359 386.331 303.314 379.09L300.682 377.652ZM302.746 401.106C302.572 401.35 302.411 401.606 302.264 401.875L304.897 403.313C304.986 403.15 305.083 402.995 305.188 402.849L302.746 401.106ZM302.264 401.875L280.31 442.069L282.942 443.507L304.897 403.313L302.264 401.875ZM280.31 442.069C279.761 443.073 279.465 444.152 279.403 445.228L282.398 445.401C282.435 444.759 282.611 444.114 282.942 443.507L280.31 442.069Z" fill="#1A1616"/>
<path d="M327.123 383.771C340.319 383.459 348.824 377.923 351.427 375.194L368.747 346.276L368.605 340.277L340.687 322.933L332.225 324.634C324.4 339.157 307.404 370.534 302.024 379.864C296.643 389.194 300.082 396.415 302.473 398.859C305.192 393.96 313.927 384.084 327.123 383.771Z" fill="#696060"/>
<path d="M280.901 445.314L281.274 446.767C281.906 446.604 282.36 446.052 282.398 445.4L280.901 445.314ZM293.677 451.436L292.639 450.353C292.128 450.843 292.029 451.623 292.401 452.225L293.677 451.436ZM294.79 449.979L293.474 449.259L294.79 449.979ZM316.744 409.784L318.061 410.503L316.744 409.784ZM316.745 409.784L317.032 408.312C316.391 408.187 315.742 408.491 315.428 409.065L316.745 409.784ZM339.736 398.984L341.052 399.703L339.736 398.984ZM367.778 347.643L366.462 346.924L367.778 347.643ZM330.04 327.03L328.724 326.311L330.04 327.03ZM301.998 378.371L303.314 379.09L301.998 378.371ZM303.967 401.977L305.188 402.849C305.575 402.306 305.558 401.574 305.146 401.05L303.967 401.977ZM280.562 447.177C280.612 447.085 280.768 446.897 281.274 446.767L280.527 443.861C279.5 444.125 278.499 444.696 277.929 445.739L280.562 447.177ZM285.507 452.726C283.597 451.683 282.132 450.406 281.286 449.248C280.363 447.986 280.475 447.337 280.562 447.177L277.929 445.739C276.958 447.517 277.78 449.536 278.864 451.018C280.024 452.606 281.86 454.152 284.069 455.359L285.507 452.726ZM292.849 453.888C292.761 454.048 292.275 454.492 290.715 454.398C289.283 454.312 287.418 453.77 285.507 452.726L284.069 455.359C286.278 456.566 288.572 457.275 290.534 457.393C292.367 457.503 294.51 457.105 295.482 455.326L292.849 453.888ZM292.401 452.225C293.037 453.254 292.922 453.753 292.849 453.888L295.482 455.326C296.337 453.76 295.789 452 294.953 450.647L292.401 452.225ZM294.715 452.519C295.257 451.998 295.729 451.388 296.107 450.698L293.474 449.259C293.246 449.678 292.962 450.043 292.639 450.353L294.715 452.519ZM296.107 450.698L318.061 410.503L315.428 409.065L293.474 449.259L296.107 450.698ZM318.061 410.503L318.061 410.503L315.428 409.065L315.428 409.065L318.061 410.503ZM316.457 411.256C326.033 413.129 336.124 408.725 341.052 399.703L338.419 398.264C334.136 406.107 325.363 409.941 317.032 408.312L316.457 411.256ZM341.052 399.703L369.094 348.362L366.462 346.924L338.419 398.264L341.052 399.703ZM369.094 348.362C371.61 343.757 369.916 337.986 365.311 335.471L363.873 338.103C367.023 339.824 368.182 343.773 366.462 346.924L369.094 348.362ZM365.311 335.471L341.615 322.528L340.177 325.161L363.873 338.103L365.311 335.471ZM341.615 322.528C337.011 320.013 331.239 321.707 328.724 326.311L331.357 327.749C333.078 324.599 337.027 323.44 340.177 325.161L341.615 322.528ZM328.724 326.311L300.682 377.652L303.314 379.09L331.357 327.749L328.724 326.311ZM300.682 377.652C296.131 385.983 297.273 395.89 302.788 402.904L305.146 401.05C300.347 394.946 299.359 386.331 303.314 379.09L300.682 377.652ZM302.746 401.105C302.572 401.349 302.411 401.606 302.264 401.875L304.897 403.313C304.986 403.15 305.083 402.995 305.188 402.849L302.746 401.105ZM302.264 401.875L280.31 442.069L282.942 443.507L304.897 403.313L302.264 401.875ZM280.31 442.069C279.761 443.073 279.465 444.152 279.403 445.227L282.398 445.4C282.435 444.759 282.611 444.113 282.942 443.507L280.31 442.069Z" fill="#1A1616"/>
<path fill-rule="evenodd" clip-rule="evenodd" d="M327.164 370.702C326.671 369.984 325.968 369.359 325.107 368.889C322.64 367.541 319.566 368.418 318.24 370.846C316.662 373.734 318.22 379.311 319.46 383.748C319.905 385.344 320.31 386.792 320.513 387.914C321.566 387.478 323.003 387.036 324.587 386.549C328.99 385.194 334.525 383.49 336.102 380.602C337.428 378.174 336.504 375.114 334.038 373.767C333.226 373.323 332.373 373.072 331.549 373.022C332.124 370.782 333.292 367.558 335.26 366.98C336.247 366.69 334.804 365.074 333.405 364.31C331.997 363.541 329.999 363.278 330.289 364.264C330.872 366.252 328.743 369.011 327.164 370.702Z" fill="#453B3B"/>
<path d="M327.164 370.702L325.928 371.552C326.186 371.927 326.599 372.164 327.053 372.198C327.506 372.232 327.951 372.058 328.261 371.726L327.164 370.702ZM319.46 383.748L318.015 384.152L318.015 384.152L319.46 383.748ZM320.513 387.914L319.036 388.181C319.117 388.627 319.395 389.013 319.793 389.231C320.192 389.448 320.667 389.474 321.086 389.3L320.513 387.914ZM324.587 386.549L325.028 387.982L325.028 387.982L324.587 386.549ZM331.549 373.022L330.096 372.649C329.984 373.083 330.073 373.544 330.336 373.905C330.6 374.267 331.011 374.493 331.458 374.52L331.549 373.022ZM335.26 366.98L334.838 365.541L334.838 365.541L335.26 366.98ZM330.289 364.264L331.728 363.842L331.728 363.842L330.289 364.264ZM324.388 370.205C325.062 370.573 325.58 371.046 325.928 371.552L328.4 369.853C327.761 368.923 326.874 368.145 325.826 367.572L324.388 370.205ZM319.556 371.565C320.475 369.883 322.629 369.244 324.388 370.205L325.826 367.572C322.652 365.838 318.657 366.952 316.923 370.127L319.556 371.565ZM320.904 383.345C320.279 381.107 319.608 378.695 319.277 376.493C318.934 374.215 319.023 372.54 319.556 371.565L316.923 370.127C315.879 372.039 315.958 374.597 316.31 376.939C316.674 379.357 317.401 381.953 318.015 384.152L320.904 383.345ZM321.989 387.648C321.771 386.44 321.343 384.914 320.904 383.345L318.015 384.152C318.468 385.774 318.849 387.144 319.036 388.181L321.989 387.648ZM324.146 385.115C322.588 385.594 321.073 386.059 319.939 386.528L321.086 389.3C322.06 388.897 323.418 388.478 325.028 387.982L324.146 385.115ZM334.786 379.883C334.253 380.859 332.892 381.839 330.79 382.782C328.759 383.693 326.367 384.432 324.146 385.115L325.028 387.982C327.21 387.311 329.787 386.52 332.018 385.519C334.179 384.549 336.374 383.234 337.419 381.322L334.786 379.883ZM333.319 375.083C335.078 376.044 335.704 378.202 334.786 379.883L337.419 381.322C339.153 378.147 337.931 374.184 334.757 372.45L333.319 375.083ZM331.458 374.52C332.044 374.555 332.683 374.736 333.319 375.083L334.757 372.45C333.768 371.91 332.703 371.59 331.639 371.525L331.458 374.52ZM334.838 365.541C333.238 366.01 332.205 367.444 331.555 368.679C330.867 369.985 330.397 371.479 330.096 372.649L333.001 373.396C333.276 372.326 333.678 371.087 334.21 370.077C334.779 368.994 335.314 368.527 335.683 368.419L334.838 365.541ZM332.686 365.627C333.227 365.922 333.769 366.388 334.038 366.738C334.202 366.95 334.111 366.919 334.089 366.683C334.074 366.517 334.097 366.227 334.299 365.944C334.494 365.669 334.737 365.57 334.838 365.541L335.683 368.419C336.03 368.317 336.443 368.104 336.743 367.683C337.049 367.253 337.11 366.784 337.077 366.413C337.019 365.768 336.664 365.231 336.416 364.908C335.861 364.187 334.982 363.462 334.124 362.994L332.686 365.627ZM331.728 363.842C331.753 363.929 331.798 364.156 331.699 364.443C331.594 364.745 331.391 364.934 331.232 365.031C331.159 365.075 331.098 365.098 331.061 365.11C331.025 365.122 331.002 365.126 331 365.126C330.997 365.126 331.035 365.121 331.12 365.126C331.502 365.149 332.14 365.328 332.686 365.627L334.124 362.994C333.262 362.523 332.198 362.186 331.301 362.132C330.899 362.107 330.249 362.119 329.679 362.464C329.351 362.662 329.028 362.987 328.864 363.461C328.706 363.919 328.752 364.354 328.849 364.687L331.728 363.842ZM328.261 371.726C329.085 370.843 330.1 369.633 330.84 368.338C331.537 367.117 332.202 365.456 331.728 363.842L328.849 364.687C328.959 365.06 328.85 365.773 328.235 366.85C327.661 367.855 326.822 368.871 326.068 369.679L328.261 371.726Z" fill="#1A1616"/>
<path fill-rule="evenodd" clip-rule="evenodd" d="M333.314 356.461C333.458 357.621 332.685 358.713 331.52 358.946C330.3 359.192 329.111 358.401 328.866 357.18C328.694 356.325 329.031 355.485 329.668 354.975C328.884 354.751 328.249 354.106 328.077 353.251C327.832 352.03 328.622 350.842 329.843 350.597C330.954 350.374 332.038 351.008 332.409 352.044L336.11 351.301L333.786 347.487C332.758 347.967 331.513 347.608 330.909 346.617C330.261 345.554 330.598 344.166 331.661 343.519C332.406 343.065 333.31 343.094 334.007 343.518C333.95 342.704 334.338 341.887 335.083 341.433C336.146 340.785 337.534 341.122 338.181 342.185C338.785 343.176 338.534 344.448 337.636 345.141L340.814 350.356L346.708 349.172C346.608 348.042 347.372 346.994 348.51 346.766C349.731 346.52 350.919 347.311 351.164 348.532C351.336 349.387 350.999 350.227 350.362 350.737C351.147 350.961 351.782 351.606 351.954 352.461C352.199 353.682 351.408 354.87 350.187 355.115C349.05 355.344 347.94 354.673 347.596 353.592L343.31 354.453L345.225 357.596C346.238 357.165 347.44 357.531 348.03 358.499C348.678 359.562 348.341 360.949 347.278 361.597C346.533 362.051 345.629 362.022 344.931 361.597C344.989 362.412 344.6 363.229 343.855 363.683C342.792 364.33 341.405 363.994 340.757 362.931C340.139 361.917 340.417 360.608 341.366 359.927L338.606 355.398L333.314 356.461Z" fill="#453B3B"/>
<path d="M331.52 358.946L331.225 357.476L331.225 357.476L331.52 358.946ZM333.314 356.461L333.019 354.991C332.249 355.145 331.729 355.867 331.825 356.646L333.314 356.461ZM328.866 357.18L327.396 357.476L327.396 357.476L328.866 357.18ZM329.668 354.975L330.606 356.146C331.044 355.795 331.249 355.23 331.139 354.68C331.028 354.13 330.62 353.688 330.081 353.533L329.668 354.975ZM328.077 353.251L329.547 352.956L329.547 352.956L328.077 353.251ZM329.843 350.597L330.138 352.067L330.138 352.067L329.843 350.597ZM332.409 352.044L330.997 352.55C331.247 353.251 331.974 353.662 332.704 353.515L332.409 352.044ZM336.11 351.301L336.405 352.771C336.885 352.675 337.287 352.351 337.484 351.902C337.68 351.454 337.645 350.938 337.391 350.52L336.11 351.301ZM333.786 347.487L335.067 346.707C334.669 346.054 333.843 345.805 333.151 346.128L333.786 347.487ZM330.909 346.617L329.628 347.397L329.628 347.397L330.909 346.617ZM331.661 343.519L330.88 342.238L330.88 342.238L331.661 343.519ZM334.007 343.518L333.228 344.8C333.707 345.091 334.309 345.091 334.788 344.799C335.267 344.507 335.543 343.972 335.503 343.413L334.007 343.518ZM335.083 341.433L334.303 340.152L334.303 340.152L335.083 341.433ZM338.181 342.185L336.9 342.966L338.181 342.185ZM337.636 345.141L336.72 343.954C336.114 344.421 335.957 345.269 336.355 345.922L337.636 345.141ZM340.814 350.356L339.533 351.136C339.861 351.675 340.491 351.951 341.109 351.826L340.814 350.356ZM346.708 349.172L347.003 350.642C347.753 350.492 348.269 349.801 348.202 349.039L346.708 349.172ZM348.51 346.766L348.214 345.295L348.214 345.295L348.51 346.766ZM351.164 348.532L349.694 348.827L349.694 348.827L351.164 348.532ZM350.362 350.737L349.424 349.566C348.987 349.917 348.781 350.482 348.892 351.032C349.002 351.582 349.41 352.025 349.949 352.179L350.362 350.737ZM351.954 352.461L353.424 352.166L353.424 352.166L351.954 352.461ZM350.187 355.115L349.892 353.645L349.892 353.645L350.187 355.115ZM347.596 353.592L349.025 353.137C348.793 352.408 348.05 351.971 347.301 352.121L347.596 353.592ZM343.31 354.453L343.015 352.982C342.535 353.079 342.132 353.403 341.936 353.851C341.74 354.3 341.775 354.816 342.029 355.233L343.31 354.453ZM345.225 357.596L343.944 358.376C344.332 359.012 345.127 359.267 345.812 358.976L345.225 357.596ZM348.03 358.499L346.749 359.279L346.749 359.279L348.03 358.499ZM347.278 361.597L348.058 362.878L348.058 362.878L347.278 361.597ZM344.931 361.597L345.711 360.316C345.232 360.024 344.63 360.025 344.151 360.316C343.672 360.608 343.396 361.143 343.435 361.703L344.931 361.597ZM343.855 363.683L343.075 362.402L343.075 362.402L343.855 363.683ZM340.757 362.931L339.476 363.711L339.476 363.711L340.757 362.931ZM341.366 359.927L342.24 361.146C342.878 360.688 343.055 359.817 342.647 359.147L341.366 359.927ZM338.606 355.398L339.887 354.617C339.559 354.079 338.929 353.803 338.311 353.927L338.606 355.398ZM331.816 360.417C333.755 360.027 335.042 358.209 334.803 356.277L331.825 356.646C331.873 357.032 331.614 357.398 331.225 357.476L331.816 360.417ZM327.396 357.476C327.804 359.509 329.783 360.825 331.816 360.417L331.225 357.476C330.817 357.558 330.419 357.293 330.337 356.885L327.396 357.476ZM328.73 353.804C327.673 354.652 327.109 356.049 327.396 357.476L330.337 356.885C330.28 356.601 330.39 356.319 330.606 356.146L328.73 353.804ZM326.606 353.546C326.893 354.973 327.953 356.044 329.255 356.417L330.081 353.533C329.814 353.457 329.604 353.24 329.547 352.956L326.606 353.546ZM329.547 349.126C327.515 349.535 326.198 351.514 326.606 353.546L329.547 352.956C329.465 352.547 329.73 352.149 330.138 352.067L329.547 349.126ZM333.821 351.539C333.203 349.812 331.399 348.754 329.547 349.126L330.138 352.067C330.509 351.993 330.873 352.205 330.997 352.55L333.821 351.539ZM335.814 349.83L332.113 350.574L332.704 353.515L336.405 352.771L335.814 349.83ZM337.391 350.52L335.067 346.707L332.505 348.268L334.829 352.081L337.391 350.52ZM333.151 346.128C332.808 346.288 332.391 346.167 332.19 345.836L329.628 347.397C330.634 349.048 332.708 349.647 334.421 348.846L333.151 346.128ZM332.19 345.836C331.973 345.48 332.086 345.016 332.441 344.799L330.88 342.238C329.11 343.317 328.549 345.627 329.628 347.397L332.19 345.836ZM332.441 344.799C332.689 344.649 332.991 344.656 333.228 344.8L334.787 342.237C333.629 341.532 332.123 341.48 330.88 342.238L332.441 344.799ZM335.503 343.413C335.484 343.136 335.616 342.865 335.864 342.714L334.303 340.152C333.06 340.909 332.416 342.272 332.511 343.623L335.503 343.413ZM335.864 342.714C336.22 342.497 336.684 342.61 336.9 342.966L339.462 341.404C338.383 339.634 336.073 339.073 334.303 340.152L335.864 342.714ZM336.9 342.966C337.102 343.296 337.019 343.723 336.72 343.954L338.552 346.329C340.049 345.174 340.468 343.056 339.462 341.404L336.9 342.966ZM336.355 345.922L339.533 351.136L342.094 349.575L338.917 344.361L336.355 345.922ZM346.412 347.701L340.518 348.885L341.109 351.826L347.003 350.642L346.412 347.701ZM348.214 345.295C346.319 345.676 345.047 347.421 345.214 349.304L348.202 349.039C348.169 348.663 348.426 348.313 348.805 348.236L348.214 345.295ZM352.635 348.236C352.226 346.203 350.247 344.887 348.214 345.295L348.805 348.236C349.214 348.154 349.611 348.419 349.694 348.827L352.635 348.236ZM351.3 351.908C352.357 351.06 352.921 349.663 352.635 348.236L349.694 348.827C349.751 349.111 349.641 349.393 349.424 349.566L351.3 351.908ZM353.424 352.166C353.138 350.739 352.078 349.668 350.775 349.295L349.949 352.179C350.216 352.255 350.426 352.472 350.483 352.757L353.424 352.166ZM350.483 356.586C352.516 356.178 353.833 354.198 353.424 352.166L350.483 352.757C350.565 353.165 350.3 353.563 349.892 353.645L350.483 356.586ZM346.167 354.047C346.74 355.848 348.587 356.967 350.483 356.586L349.892 353.645C349.512 353.721 349.14 353.497 349.025 353.137L346.167 354.047ZM343.606 355.924L347.891 355.063L347.301 352.121L343.015 352.982L343.606 355.924ZM342.029 355.233L343.944 358.376L346.506 356.815L344.591 353.672L342.029 355.233ZM345.812 358.976C346.15 358.833 346.552 358.957 346.749 359.279L349.311 357.718C348.328 356.106 346.327 355.498 344.639 356.215L345.812 358.976ZM346.749 359.279C346.966 359.635 346.853 360.099 346.497 360.316L348.058 362.878C349.829 361.799 350.39 359.489 349.311 357.718L346.749 359.279ZM346.497 360.316C346.25 360.467 345.948 360.46 345.711 360.316L344.152 362.879C345.31 363.583 346.816 363.635 348.058 362.878L346.497 360.316ZM343.435 361.703C343.454 361.979 343.322 362.251 343.075 362.402L344.636 364.964C345.878 364.206 346.523 362.844 346.428 361.492L343.435 361.703ZM343.075 362.402C342.719 362.618 342.255 362.506 342.038 362.15L339.476 363.711C340.555 365.482 342.865 366.042 344.636 364.964L343.075 362.402ZM342.038 362.15C341.832 361.811 341.924 361.373 342.24 361.146L340.492 358.708C338.91 359.843 338.447 362.022 339.476 363.711L342.038 362.15ZM342.647 359.147L339.887 354.617L337.325 356.179L340.085 360.708L342.647 359.147ZM333.609 357.932L338.902 356.869L338.311 353.927L333.019 354.991L333.609 357.932Z" fill="#1A1616"/>
<path d="M311.295 402.07C312.08 402.439 316.678 404.785 318.635 405.547C318.635 405.547 323.134 405.441 322.752 410.451C321.823 413.474 318.55 421.776 318.55 421.776C318.23 421.945 317.304 422.387 316.15 422.803L318.227 430.564L314.937 433.013L312.873 440.193C312.046 438.827 308.145 437.192 304.509 435.058C300.146 432.497 295.959 429.487 295.153 428.977C293.677 428.042 294.543 423.658 296.92 421.662C297.146 421.473 297.467 421.436 297.86 421.521C295.938 420.829 294.118 418.201 293.413 416.897C291.925 415.478 295.191 410.067 296.679 411.487C297.69 412.452 300.128 413.829 300.128 413.829C300.128 413.829 296.624 409.197 296.602 408.236C296.567 406.782 298.448 404.313 299.417 404.29C300.193 404.272 303.329 405.673 304.317 406.457C303.809 405.5 305.942 401.227 306.888 400.235C307.834 399.243 310.315 401.608 311.295 402.07Z" fill="#BBB4B4"/>
<path d="M319.24 406.104C317.283 405.343 312.08 402.439 311.295 402.07C310.315 401.608 307.834 399.243 306.888 400.235C305.942 401.227 303.809 405.5 304.317 406.458C304.824 407.415 308.801 411.543 310.278 412.477C311.754 413.412 318.985 415.807 319.481 416.28C319.977 416.753 321.892 415.738 322.32 413.304M303.158 406.485C302.169 405.7 300.193 404.272 299.417 404.29C298.448 404.313 296.567 406.782 296.602 408.236C296.624 409.197 300.128 413.829 300.128 413.829M318.55 421.776C318.23 421.946 317.304 422.388 316.15 422.803C314.708 423.322 312.285 423.379 311.789 422.906C311.293 422.433 304.887 418.08 303.399 416.661C302.894 416.18 300.874 414.452 300.128 413.829M300.128 413.829C300.128 413.829 297.69 412.452 296.679 411.487C295.191 410.068 291.925 415.478 293.413 416.897C294.164 418.287 296.181 421.179 298.239 421.631M312.873 440.193C312.046 438.827 308.145 437.192 304.509 435.058C300.146 432.497 295.959 429.487 295.153 428.977C293.677 428.042 294.543 423.658 296.92 421.663C297.215 421.415 297.672 421.429 298.239 421.631M314.937 433.013C313.644 433.044 309.923 430.971 308.756 430.109C307.674 429.452 301.328 422.736 298.239 421.631" stroke="#1A1616" stroke-width="3" stroke-linecap="round"/>
<path d="M292.576 442.475C291.317 434.702 292.14 424.091 291.972 416.982C291.888 413.438 293.287 391.143 289.383 395.237L281.76 422.226L287.232 442.102L292.576 442.475Z" fill="#BBB4B4"/>
<path d="M286.557 400.751C286.604 402.751 284.892 406.647 284.951 409.146C285.01 411.646 283.165 418.191 282.224 420.714C280.614 425.034 288.57 441.348 288.732 442.066C289.291 444.554 291.506 444.165 293.219 441.46C296.111 436.89 288.814 426.63 291.585 422.993C293.525 420.447 292.686 418.966 292.544 412.968" stroke="#1A1616" stroke-width="3" stroke-linecap="round"/>
<path d="M293.718 451.58C291.659 449.128 287.999 446.614 285.59 446.271" stroke="#1A1616" stroke-width="3" stroke-linecap="round" stroke-linejoin="round"/>
<g clip-path="url(#clip4)">
<path d="M81.3333 311.86C73.8333 304.36 81.3333 234.36 81.3333 234.36L121.333 219.86C126.833 241.694 131.733 307.86 121.333 331.86C110.933 355.86 88.8333 319.36 81.3333 311.86Z" fill="#BDB9B9" stroke="#1A1616" stroke-width="3" stroke-linecap="round"/>
</g>
<path d="M209.804 446.372C211.804 449.972 216.833 458.833 216.5 462.5L216.5 491.872C210.541 495.88 189.894 490.706 182.115 491.872C181.53 490.962 180.925 490.117 180.304 489.372C175.304 483.372 166.804 491.261 159.804 485.125C152.96 479.125 163.032 462.629 152.553 457.224C152.412 456.245 152.345 454.706 152.804 452.872C153.804 448.872 153.304 441.872 155.804 436.872C157.137 432.872 159.804 424.772 159.804 424.372C147 407.125 205 410.125 207.304 418.872C208.465 423.282 199.804 420.372 198.804 420.372C198.804 420.372 199.804 423.872 200.304 424.872L202.304 428.872C206.304 431.372 207.304 441.872 209.804 446.372Z" fill="#BBB4B4"/>
<path d="M186.322 539.729C189.63 539.729 193.214 538.657 194.593 538.121L210.674 530.08L197.809 516.525L178.741 530.999L186.322 539.729Z" fill="#453B3B" stroke="#1A1616" stroke-width="3"/>
<path d="M194.823 417.279C198.682 418.933 203.476 428.077 205.391 432.442C205.084 429.302 206.539 423.712 202.174 419.806C199.229 417.171 196.431 411.766 196.431 409.238C196.431 406.711 197.35 404.644 197.35 399.819C197.35 394.995 199.188 391.779 199.188 388.562C199.188 385.346 200.566 382.359 199.188 383.278C197.809 384.197 194.823 392.927 194.823 398.671C194.823 404.414 189.309 412.225 187.241 410.157C185.174 408.09 184.714 400.968 184.714 398.671C184.714 396.373 188.16 390.63 188.16 387.873C188.16 385.116 188.16 380.981 187.241 382.359C186.323 383.738 186.552 390.17 184.714 390.63C182.876 391.089 181.498 403.955 178.971 408.32C176.444 412.685 164.498 423.712 161.511 425.78C158.524 427.847 152.551 443.469 153.47 441.861C154.389 440.253 159.673 437.266 162.43 432.442C165.187 427.617 172.538 418.887 178.971 416.36C185.404 413.833 189.998 415.212 194.823 417.279Z" fill="#453B3B" stroke="#1A1616" stroke-width="3"/>
<path d="M193.214 423.941C193.398 422.838 192.984 419.346 190.917 418.657C188.849 417.968 189.263 419.346 188.16 419.346C186.781 419.346 183.565 416.13 182.646 417.968C181.727 419.806 181.727 426.698 186.322 427.387C190.917 428.076 192.984 425.319 193.214 423.941Z" fill="#453B3B" stroke="#1A1616" stroke-width="3"/>
<path d="M235.716 468.281C235.716 477.286 224.995 489.263 220.323 493.552L214.12 491.714L209.985 483.903C211.363 481.988 214.12 476.184 214.12 468.281C214.12 458.402 209.985 444.388 207.458 437.726C204.931 431.063 208.377 418.658 209.985 409.238C211.593 399.819 206.999 383.967 214.12 386.265C221.242 388.562 224.688 412.914 224.688 403.495C224.688 394.076 228.364 368.116 231.121 372.481C233.878 376.846 233.648 413.374 235.716 409.238C237.783 405.103 238.472 383.967 241 383.967C243.527 383.967 241.689 406.022 243.067 403.495C244.446 400.968 250.419 379.143 250.419 386.265C250.419 390.898 248.474 406.325 247.115 414.516C249.57 410.517 254.939 407.35 258 406.022C255.856 407.783 251.338 413.236 250.419 420.955C249.27 430.604 247.432 440.942 245.824 447.145C244.216 453.348 235.716 457.024 235.716 468.281Z" fill="#453B3B" stroke="#1A1616" stroke-width="3"/>
<path d="M153.24 447.604C156.732 453.486 156.38 466.902 155.767 472.875L138.078 488.038C135.78 485.588 131.185 468.556 131.185 465.983C131.185 462.767 119.469 425.09 119.469 412.455C119.469 399.819 101.549 382.359 105.455 384.427C109.361 386.495 110.739 388.332 114.415 388.332C118.09 388.332 114.415 379.143 119.469 378.684C123.711 378.298 123.583 382.606 128.052 384C128.907 384.267 125.5 366.5 129 366.5C132.5 366.5 132.595 384.275 133.125 384C137.966 381.491 133.729 368.76 138.078 368.345C142.902 367.886 140.145 384.427 145.889 384.427C151.632 384.427 158.524 374.548 158.524 388.332C158.524 402.117 161.051 399.13 158.524 414.522C155.997 429.915 148.875 440.253 153.24 447.604Z" fill="#453B3B" stroke="#1A1616" stroke-width="3"/>
<path d="M150.5 465C146.671 450.986 140.513 428.26 140.145 419.806C139.686 409.238 132.105 391.089 132.105 384.427C132.105 377.764 132.334 368.345 129.577 366.737C126.821 365.129 127.05 379.373 129.577 392.008C132.105 404.644 137.389 428.996 137.389 442.32C137.389 452.98 141.55 463.91 144 469.5" stroke="#1A1616" stroke-width="3" stroke-linecap="round"/>
<path d="M154.619 473.564C166.565 473.564 209.755 478.389 212.742 481.375C215.729 484.362 212.742 504.119 212.742 504.119L137.388 492.403C137.388 492.403 133.942 481.605 136.01 478.389C138.078 475.172 144.484 473.564 154.619 473.564Z" fill="#8D8686" stroke="#1A1616" stroke-width="3"/>
<path d="M199.417 441.172C197.395 441.907 192.142 443.469 189.768 444.158C188.849 444.158 187.011 443.928 187.011 443.01C187.011 441.861 188.16 440.023 189.768 438.645C191.376 437.266 195.052 438.185 198.039 437.036C201.025 435.888 200.336 431.293 201.485 433.131C202.633 434.969 201.944 440.253 199.417 441.172Z" fill="#453B3B"/>
<path d="M182.417 444.158C182.968 444.158 184.79 442.933 185.633 442.32C185.633 440.482 181.038 437.036 178.97 435.888C176.903 434.739 172.768 432.671 170.011 430.144C166.224 426.673 167.713 431.523 168.403 433.131C169.092 434.739 174.605 437.955 176.214 439.104C177.822 440.253 181.727 444.158 182.417 444.158Z" fill="#453B3B"/>
<path d="M199.417 441.172C197.395 441.907 192.142 443.469 189.768 444.158C188.849 444.158 187.011 443.928 187.011 443.01C187.011 441.861 188.16 440.023 189.768 438.645C191.376 437.266 195.052 438.185 198.039 437.036C201.025 435.888 200.336 431.293 201.485 433.131C202.633 434.969 201.944 440.253 199.417 441.172Z" stroke="#1A1616" stroke-width="3"/>
<path d="M182.417 444.158C182.968 444.158 184.79 442.933 185.633 442.32C185.633 440.482 181.038 437.036 178.97 435.888C176.903 434.739 172.768 432.671 170.011 430.144C166.224 426.673 167.713 431.523 168.403 433.131C169.092 434.739 174.605 437.955 176.214 439.104C177.822 440.253 181.727 444.158 182.417 444.158Z" stroke="#1A1616" stroke-width="3"/>
<path d="M236.175 531.688C244.262 531.137 250.878 522.116 253.175 517.674C249.346 514.075 239.621 505.268 231.35 498.836C221.012 490.795 206.539 491.714 193.903 491.714H142.213C134.31 491.714 107.369 496.462 94.887 498.836C92.8959 500.903 93.1361 506.919 107.752 517.674C132.104 535.593 178.741 546.161 186.552 539.499C194.363 532.837 187.701 523.877 197.579 525.945C208.431 528.216 185.403 541.796 197.579 543.175C215.385 545.191 226.067 532.377 236.175 531.688Z" fill="#322828" stroke="#1A1616" stroke-width="3"/>
<path fill-rule="evenodd" clip-rule="evenodd" d="M329.331 461.337C328.166 460.355 326.811 459.738 325.365 459.738C321.014 459.738 317.486 463.21 317.486 467.494C317.486 472.589 323.743 479.011 328.72 484.121C330.51 485.958 332.135 487.626 333.243 489C334.352 487.626 335.976 485.958 337.766 484.121C342.743 479.011 349 472.589 349 467.494C349 463.21 345.473 459.738 341.122 459.738C339.754 459.738 338.467 460.29 337.346 461.181C336.415 457.746 335.364 451.989 337.745 449.608C338.871 448.483 335.711 447.357 333.243 447.357C330.759 447.357 327.849 448.483 328.974 449.608C331.392 452.026 330.272 457.923 329.331 461.337ZM333.237 469.294C333.241 469.4 333.243 469.505 333.243 469.609C333.243 469.505 333.245 469.4 333.249 469.295L333.243 469.304L333.237 469.294Z" fill="#453B3B"/>
</g>
<path d="M28.3239 6H362.676V4H28.3239V6ZM379 22.3239V557.676H381V22.3239H379ZM362.676 574H28.3239V576H362.676V574ZM12 557.676V22.324H10V557.676H12ZM28.3239 574C19.3085 574 12 566.692 12 557.676H10C10 567.796 18.2039 576 28.3239 576V574ZM379 557.676C379 566.691 371.692 574 362.676 574V576C372.796 576 381 567.796 381 557.676H379ZM362.676 6C371.692 6 379 13.3085 379 22.3239H381C381 12.2039 372.796 4 362.676 4V6ZM28.3239 4C18.2039 4 10 12.2039 10 22.324H12C12 13.3085 19.3085 6 28.3239 6V4Z" fill="#F7E2E2"/>
</g>
<defs>
<filter id="filter0_d" x="0" y="0" width="391" height="592" filterUnits="userSpaceOnUse" color-interpolation-filters="sRGB">
<feFlood flood-opacity="0" result="BackgroundImageFix"/>
<feColorMatrix in="SourceAlpha" type="matrix" values="0 0 0 0 0 0 0 0 0 0 0 0 0 0 0 0 0 0 127 0"/>
<feMorphology radius="3" operator="dilate" in="SourceAlpha" result="effect1_dropShadow"/>
<feOffset dy="6"/>
<feGaussianBlur stdDeviation="4"/>
<feColorMatrix type="matrix" values="0 0 0 0 0.279463 0 0 0 0 0.0711028 0 0 0 0 0.0740583 0 0 0 0.05 0"/>
<feBlend mode="normal" in2="BackgroundImageFix" result="effect1_dropShadow"/>
<feBlend mode="normal" in="SourceGraphic" in2="effect1_dropShadow" result="shape"/>
</filter>
<clipPath id="clip0">
<path d="M11 22.324C11 12.7562 18.7562 5 28.3239 5H362.676C372.244 5 380 12.7562 380 22.3239V557.676C380 567.244 372.244 575 362.676 575H28.3239C18.7562 575 11 567.244 11 557.676V22.324Z" fill="white"/>
</clipPath>
<clipPath id="clip1">
<rect width="209" height="140" fill="white" transform="translate(105 150)"/>
</clipPath>
<clipPath id="clip2">
<rect width="63" height="171" fill="white" transform="translate(263 122)"/>
</clipPath>
<clipPath id="clip3">
<rect width="209" height="140" fill="white" transform="translate(287 430) rotate(-180)"/>
</clipPath>
<clipPath id="clip4">
<rect width="63" height="171" fill="white" transform="translate(129 458) rotate(-180)"/>
</clipPath>
</defs>
</svg>
