<svg width="391" height="592" viewBox="0 0 391 592" fill="none" xmlns="http://www.w3.org/2000/svg">
<g filter="url(#filter0_d)">
<g clip-path="url(#clip0)">
<path d="M11 22.324C11 12.7562 18.7562 5 28.3239 5H362.676C372.244 5 380 12.7562 380 22.3239V557.676C380 567.244 372.244 575 362.676 575H28.3239C18.7562 575 11 567.244 11 557.676V22.324Z" fill="white"/>
<path d="M63.8151 36.6857V71.4919C63.8151 80.5816 59.6185 85.1264 51.2251 85.1264C49.5313 85.1264 47.3954 84.8724 44.8171 84.3642V76.6295C46.078 76.9683 47.1507 77.1377 48.0352 77.1377C49.823 77.1377 51.0557 76.6389 51.7332 75.6415C52.4295 74.6441 52.7777 73.1009 52.7777 71.012V36.6857H46.4826V29.4591H69.6585V36.6857H63.8151Z" fill="#1A1616"/>
<path d="M99.6829 194.333C103.507 194.333 110.154 193.444 113 193L140.126 196.48C151.002 197.725 168.058 201.062 176 209C179.276 212.275 196.62 235.898 201 242L207 285L187.5 290H60V217C60 217 63.281 212.138 66.5 209C72.733 202.923 80.483 197.799 84 196.48C87.3008 196.258 95.8585 194.333 99.6829 194.333Z" fill="#6C6565"/>
<path d="M112.275 201.039C114.426 196.633 113.171 185.852 112.275 181.013L158 171C153.696 177.008 141.862 190.225 141.862 197.034C141.862 205.545 144.551 207.547 135.944 209.55C127.337 211.552 109.585 206.546 112.275 201.039Z" fill="#CDC7C7"/>
<path d="M292.341 194.333C288.517 194.333 281.87 193.444 279.024 193L251.899 196.48C241.023 197.725 224.736 202.822 216.795 210.76C213.518 214.035 208.904 220.038 204.524 226.14L174.5 274.5L204.524 290H332.024V217C324.824 204.2 312.358 197 307.024 195C303.724 194.778 296.166 194.333 292.341 194.333Z" fill="#6C6565"/>
<path d="M288.707 201.039C286.415 196.633 287.752 185.852 288.707 181.013L240 171C244.584 177.008 253.752 190.725 253.752 197.534C253.752 206.045 258.5 208 263.494 209.55C272.457 212.331 291.573 206.546 288.707 201.039Z" fill="#BBB4B4"/>
<path d="M297.718 166.527C298.64 163.347 300.972 155.652 302.023 152.202L302.023 122.5L242.223 110.5L227.388 136.518C227.31 140.385 229.824 151.557 232.494 158.083C235.164 164.608 235.943 177.034 242.223 180.882C248.503 184.731 252.955 190.46 275.594 188.811C298.232 187.162 296.564 170.502 297.718 166.527Z" fill="#BBB4B4" stroke="#1A1616" stroke-width="3" stroke-linecap="round"/>
<path d="M263.696 130.606C259.504 135.605 238.041 140.549 228.904 142.289C218.171 126.036 238.62 99.753 245.591 97.765C269 91.0896 291.467 99.6693 300.226 108.539C305.929 114.313 310.493 146.341 303.968 145.912C297.442 145.482 268.935 124.357 263.696 130.606Z" fill="#383333" stroke="#1A1616" stroke-width="3" stroke-linecap="round"/>
<path d="M311.304 151.4C310.733 154.531 305.629 158.285 303.148 159.771C304.79 156.408 307.968 149.122 307.544 146.876C307.015 144.069 293.398 134.282 290.031 134.918C286.664 135.553 260.583 125.938 257.637 126.494C254.69 127.05 236.672 125.507 228.799 128.446C222.5 130.798 225.651 141.542 228.014 146.62C226.32 145.34 222.744 140.869 221.998 133.218C221.065 123.655 225.537 110.645 226.718 107.66L226.761 107.55C227.763 105.02 231.076 96.6509 230.261 88.5122L244.307 94.5231L253.083 105.02C253.425 104.52 259.469 102.24 267.347 100.869C277.195 99.1565 278.163 93.1422 283.624 90.5867C285.615 89.6551 298.46 113.364 302.115 118.101C302.115 118.101 305.71 112.091 309.221 108.575C312.732 105.059 318.369 104.26 318.369 104.26C314.028 115.249 311.876 148.268 311.304 151.4Z" fill="#E2DCDC" stroke="#1A1616" stroke-width="3" stroke-linecap="round"/>
<path d="M219.967 170.848C225.228 166.477 227.011 151.489 227.245 144.542L229.238 144.342C230.978 156.569 233.754 181.094 230.932 181.376C227.406 181.729 213.39 176.312 219.967 170.848Z" fill="#383333"/>
<path d="M317.934 182.587C309.395 176.497 306.05 155.667 305.445 146.014C304.376 145.655 302.191 145.688 301.995 148.684C301.751 152.429 300.884 187.084 304.074 188.005C307.263 188.926 328.607 190.199 317.934 182.587Z" fill="#383333"/>
<path d="M219.967 170.848C225.228 166.477 227.011 151.489 227.245 144.542L229.238 144.342C230.978 156.569 233.754 181.094 230.932 181.376C227.406 181.729 213.39 176.312 219.967 170.848Z" stroke="#1A1616" stroke-width="3" stroke-linecap="round"/>
<path d="M317.934 182.587C309.395 176.497 306.05 155.667 305.445 146.014C304.376 145.655 302.191 145.688 301.995 148.684C301.751 152.429 300.884 187.084 304.074 188.005C307.263 188.926 328.607 190.199 317.934 182.587Z" stroke="#1A1616" stroke-width="3" stroke-linecap="round"/>
<circle cx="300.051" cy="148.982" r="4" transform="rotate(-5.71729 300.051 148.982)" fill="#CDC7C7" stroke="#1A1616" stroke-width="3" stroke-linecap="round"/>
<circle cx="224.746" cy="146.31" r="4" transform="rotate(25.5311 224.746 146.31)" fill="#CDC7C7" stroke="#1A1616" stroke-width="3" stroke-linecap="round"/>
<circle cx="307.703" cy="147.448" r="4" transform="rotate(-5.71729 307.703 147.448)" fill="#CDC7C7" stroke="#1A1616" stroke-width="3" stroke-linecap="round"/>
<circle cx="230.801" cy="147.444" r="4" transform="rotate(25.5311 230.801 147.444)" fill="#CDC7C7" stroke="#1A1616" stroke-width="3" stroke-linecap="round"/>
<path d="M217 228L206 263" stroke="#1A1616" stroke-width="3" stroke-linecap="round"/>
<path d="M178 232L188 266" stroke="#1A1616" stroke-width="3" stroke-linecap="round"/>
<path d="M104.649 168.962C103.428 165.882 100.374 158.438 99 155.101L91 148.5L99 132L153 100.5L170.912 132C171.37 135.85 169.995 147.247 168.011 154.023C166.026 160.8 166.484 173.275 160.682 177.741C154.88 182.207 151.063 188.367 128.62 188.983C106.176 189.6 106.176 172.812 104.649 168.962Z" fill="#CDC7C7" stroke="#1A1616" stroke-width="3" stroke-linecap="round"/>
<path d="M135.605 136.866C123.687 137.483 109.052 143.96 102.464 145.964C99.5758 147.506 91.2144 152.441 91.2144 150.591C91.2144 148.277 89.3902 122.062 96.3833 111.884C103.376 101.706 118.883 96 137.126 96C155.368 96 167.986 114.197 172.851 124.066C176.743 131.962 174.473 136.352 172.851 138.871C165.909 137.843 147.524 136.249 135.605 136.866Z" fill="#322A2A" stroke="#1A1616" stroke-width="3" stroke-linecap="round"/>
<path d="M92.5839 159.252C93.7251 162.238 99.4311 164.995 102.141 166C99.9066 162.985 95.4369 156.38 95.4369 154.083C95.4369 151.211 106.992 139.007 110.415 139.007C113.839 139.007 137.661 124.649 140.657 124.649C143.653 124.649 161.056 119.767 169.33 121.203C175.949 122.351 174.845 133.551 173.466 139.007C174.893 137.427 177.575 132.345 176.89 124.649C176.034 115.029 164.194 101.532 162.482 98.8041C161.113 96.6217 152.877 86.0254 148.931 81L134.523 101.532C134.095 101.101 131.242 100.269 123.254 100.383C113.268 100.527 104.424 103.111 103.996 105.84C103.654 108.022 98.1473 119.288 95.4369 124.649C95.4369 124.649 92.5839 119.018 87.9091 119.018H79C85.2978 129.064 91.4427 156.265 92.5839 159.252Z" fill="#E2DCDC" stroke="#1A1616" stroke-width="3" stroke-linecap="round"/>
<path d="M104 106.057C104.619 108.669 106.657 114.676 109.857 117.81C113.857 121.728 112 115.152 119 109.975C126 104.798 133.286 104.658 134 102" stroke="#1A1616" stroke-width="3" stroke-linecap="round"/>
<path d="M111 186C111.667 188.783 112 192.217 112 195C112 197.783 110.167 200.768 109.5 201" stroke="#1A1616" stroke-width="3" stroke-linecap="round"/>
<path d="M146.595 189C146.108 190.217 143.705 193.001 143.126 196.48M143.534 200.9C142.954 199.353 142.896 197.862 143.126 196.48M143.126 196.48C154.002 197.725 170.288 202.822 178.23 210.76C184.217 216.744 194.671 231.84 200 240" stroke="#1A1616" stroke-width="3" stroke-linecap="round"/>
<path d="M62 217C69.2 204.2 80 200.004 83.5 198.5C87 196.996 97.8585 194.334 101.683 194.334C104.334 194.334 108.343 193.906 111.5 193.496" stroke="#1A1616" stroke-width="3" stroke-linecap="round"/>
<path d="M250.429 189C250.916 190.217 253.32 193.001 253.899 196.48M253.491 200.9C254.071 199.353 254.129 197.862 253.899 196.48M253.899 196.48C243.023 197.725 226.736 202.822 218.795 210.76C212.808 216.744 202.354 231.84 197.024 240" stroke="#1A1616" stroke-width="3" stroke-linecap="round"/>
<path d="M289.024 186C288.358 188.783 287.024 195.043 287.024 197.826C287.024 200.609 288.358 201.768 289.024 202" stroke="#1A1616" stroke-width="3" stroke-linecap="round"/>
<path d="M288 194C297.798 195.53 299.881 194.745 309.5 197.5C319.976 200.5 325.3 203.2 332.5 216" stroke="#1A1616" stroke-width="3" stroke-linecap="round"/>
<path d="M109 201C110.333 204.167 116.2 210.4 129 210C141.8 209.6 145.333 201.5 145.5 197.5M149.5 201C147.5 205.5 140.6 214.5 129 214.5C114.5 214.5 106.63 206.824 105.5 204C104.5 201.5 104.5 199.5 105.5 197.5" stroke="black" stroke-width="3" stroke-linecap="round" stroke-linejoin="round"/>
<path d="M269.5 210C258.7 211.2 254.333 201.333 254 198C252.167 199.667 246.5 202.4 250.5 208C253 211.5 257.5 208 257.5 213C257.5 217.272 262.5 217.5 266 217.5C268.8 217.5 270.5 216 271 214.5C272.333 216 275.3 218.8 280.5 216C287 212.5 283.5 210 285.5 210C287.5 210 292 211.5 293 206C293.429 203.639 289.667 202 288 201.5C286.5 205 283 208.5 269.5 210Z" stroke="black" stroke-width="3" stroke-linecap="round" stroke-linejoin="round"/>
<path d="M243.52 338.624C252.661 340.472 263.822 341.601 275.406 340.124C287.004 338.645 297.535 334.745 305.925 330.657C307.821 329.733 309.033 327.836 309.155 325.73L314.184 238.902L213.208 251.776L239.142 334.62C239.778 336.649 241.436 338.202 243.52 338.624Z" fill="#E2DCDC" stroke="#1A1616" stroke-width="3" stroke-linecap="round"/>
<path d="M259.991 319.966C258.787 317.936 258.254 316.287 260.253 315.102C258.254 316.287 256.836 314.644 255.633 312.614C254.429 310.584 255.074 307.978 257.073 306.793C260.305 304.877 267.881 307.679 271.465 308.196C270.199 311.589 269.021 319.581 265.789 321.497C263.79 322.681 261.194 321.996 259.991 319.966Z" fill="#453B3B" stroke="#1A1616" stroke-width="3" stroke-linecap="round" stroke-linejoin="round"/>
<path d="M257.65 297.968C259.589 296.623 261.196 295.974 262.52 297.884C261.196 295.974 262.734 294.443 264.674 293.099C266.614 291.754 269.259 292.213 270.583 294.122C272.723 297.21 270.466 304.966 270.204 308.578C266.73 307.556 258.675 306.948 256.534 303.86C255.211 301.95 255.71 299.312 257.65 297.968Z" fill="#453B3B" stroke="#1A1616" stroke-width="3" stroke-linecap="round" stroke-linejoin="round"/>
<path d="M279.382 293.504C281.075 295.148 282.021 296.6 280.402 298.267C282.021 296.6 283.819 297.814 285.512 299.459C287.205 301.103 287.266 303.787 285.647 305.454C283.029 308.149 274.983 307.428 271.389 307.867C271.722 304.261 270.767 296.24 273.385 293.545C275.004 291.878 277.689 291.86 279.382 293.504Z" fill="#453B3B" stroke="#1A1616" stroke-width="3" stroke-linecap="round" stroke-linejoin="round"/>
<path d="M284.667 316.552C282.92 318.139 281.412 318.993 279.85 317.274C281.412 318.993 280.088 320.712 278.341 322.299C276.595 323.887 273.912 323.779 272.35 322.059C269.823 319.279 271.044 311.293 270.831 307.678C274.409 308.236 282.474 307.784 285.001 310.565C286.563 312.284 286.414 314.965 284.667 316.552Z" fill="#453B3B" stroke="#1A1616" stroke-width="3" stroke-linecap="round" stroke-linejoin="round"/>
<ellipse rx="52.0108" ry="18.4555" transform="matrix(-0.99197 0.126475 0.126475 0.99197 263.382 245.815)" fill="#C3B6B6" stroke="#1A1616" stroke-width="3" stroke-linecap="round"/>
<ellipse rx="41.6087" ry="14.8602" transform="matrix(-0.99197 0.126475 0.126475 0.99197 265.02 258.653)" fill="#9A8E8E" stroke="#1A1616" stroke-width="3" stroke-linecap="round"/>
<path d="M211.434 249.619C206.825 213.465 226.187 181.211 254.681 177.578C283.175 173.945 310.011 200.309 314.621 236.463" stroke="#1A1616" stroke-width="3" stroke-linecap="round"/>
<path d="M267.697 279.655C239.203 283.288 214.806 276.049 213.204 263.487L211.436 249.618C213.037 262.18 237.364 268.864 265.858 265.231C294.352 261.598 316.224 249.024 314.622 236.462L316.39 250.331C317.992 262.893 296.191 276.022 267.697 279.655Z" fill="#E2DCDC" stroke="#1A1616" stroke-width="3" stroke-linecap="round" stroke-linejoin="round"/>
<path d="M251.043 317.875H269.181C273.093 317.875 284.118 314.815 289.453 314.275C294.788 313.735 302.897 314.239 306.169 311.934C310.259 309.054 306.347 308.334 305.458 307.974C304.569 307.614 299.234 308.514 296.389 308.514C293.543 308.514 290.342 308.334 289.453 307.974C288.564 307.614 301.368 305.994 304.035 305.454C306.702 304.913 308.303 301.673 306.169 300.953C304.035 300.233 299.412 301.493 296.922 301.493C294.432 301.493 290.165 302.393 289.453 302.393C288.742 302.393 302.612 297.352 305.458 297.172C308.303 296.992 309.014 292.492 304.924 292.492C300.834 292.492 292.654 296.092 289.453 297.172C286.252 298.252 285.719 298.612 285.719 297.892C285.719 297.172 295.499 292.672 297.633 290.511C299.767 288.351 297.1 287.271 294.966 287.451C292.832 287.631 288.92 290.871 286.43 291.951C283.941 293.032 279.139 296.452 277.361 297.172L279.673 293.392C280.562 293.032 283.407 288.531 283.763 287.631C284.118 286.731 284.296 284.75 281.273 286.371C278.25 287.991 278.428 289.071 276.294 291.591C274.16 294.112 269.537 296.812 267.225 299.693C263.609 300.953 256.2 302.897 253.355 303.473C249.798 304.193 229.526 298.973 218.501 298.973C213.303 298.973 209.607 298.692 206.556 298.698C209.267 294.997 211.409 291.786 212.149 290.432C214.464 286.196 223.291 254.418 228.888 238.996C235.477 220.842 226.395 213.429 216.245 214.034C208.124 214.518 201.702 226.792 200.574 232.491C196.894 243.131 191.279 269.101 187.575 274.547C182.945 281.355 176 299.963 176 307.376C176 310.089 177.241 311.789 179.023 312.913C182.046 316.154 201.785 323.816 209.076 323.996C216.367 324.176 245.352 317.875 251.043 317.875Z" fill="#BBB4B4" stroke="#1A1616" stroke-width="3" stroke-linecap="round"/>
<path d="M251.043 317.875H269.181C273.093 317.875 284.118 314.815 289.453 314.275C294.788 313.735 302.897 314.239 306.169 311.934C310.259 309.054 306.347 308.334 305.458 307.974C304.569 307.614 299.234 308.514 296.389 308.514C293.543 308.514 290.342 308.334 289.453 307.974C288.564 307.614 301.368 305.994 304.035 305.454C306.702 304.913 308.303 301.673 306.169 300.953C304.035 300.233 299.412 301.493 296.922 301.493C294.432 301.493 290.165 302.393 289.453 302.393C288.742 302.393 302.612 297.352 305.458 297.172C308.303 296.992 309.014 292.492 304.924 292.492C300.834 292.492 292.654 296.092 289.453 297.172C286.252 298.252 285.719 298.612 285.719 297.892C285.719 297.172 295.499 292.672 297.633 290.511C299.767 288.351 297.1 287.271 294.966 287.451C292.832 287.631 288.92 290.871 286.43 291.951C283.941 293.032 279.139 296.452 277.361 297.172L279.673 293.392C280.562 293.032 283.407 288.531 283.763 287.631C284.118 286.731 284.296 284.75 281.273 286.371C278.25 287.991 278.428 289.071 276.294 291.591C274.16 294.112 269.537 296.812 267.225 299.693C263.609 300.953 256.2 302.897 253.355 303.473C249.798 304.193 229.526 298.973 218.501 298.973C213.303 298.973 209.607 298.692 206.556 298.698C209.267 294.997 211.409 291.786 212.149 290.432C214.464 286.196 223.291 254.418 228.888 238.996C235.477 220.842 226.395 213.429 216.245 214.034C208.124 214.518 201.702 226.792 200.574 232.491C196.894 243.131 191.279 269.101 187.575 274.547C182.945 281.355 176 299.963 176 307.376C176 310.089 177.241 311.789 179.023 312.913C182.046 316.154 201.785 323.816 209.076 323.996C216.367 324.176 245.352 317.875 251.043 317.875Z" fill="#BBB4B4" stroke="#1A1616" stroke-width="3" stroke-linecap="round"/>
<path d="M230 257.5C231.5 233.5 235.5 208.5 219.5 210.5C212.016 211.435 187.346 244.232 189 252.5C190.5 260 228.5 281.5 230 257.5Z" fill="#6C6565" stroke="black" stroke-width="3" stroke-linecap="round"/>
<path d="M243.52 338.624C252.661 340.472 263.822 341.601 275.406 340.124C287.004 338.646 297.535 334.745 305.925 330.657C307.821 329.733 309.033 327.836 309.155 325.731L314.183 238.902L213.208 251.776L239.142 334.62C239.778 336.65 241.435 338.202 243.52 338.624Z" fill="#E2DCDC" stroke="#1A1616" stroke-width="3" stroke-linecap="round"/>
<path d="M259.991 319.966C258.787 317.936 258.254 316.287 260.252 315.102C258.254 316.287 256.836 314.644 255.633 312.614C254.429 310.584 255.074 307.978 257.073 306.793C260.305 304.877 267.881 307.679 271.465 308.197C270.199 311.589 269.021 319.581 265.789 321.497C263.79 322.682 261.194 321.996 259.991 319.966Z" fill="#453B3B" stroke="#1A1616" stroke-width="3" stroke-linecap="round" stroke-linejoin="round"/>
<path d="M257.65 297.968C259.589 296.623 261.196 295.974 262.52 297.884C261.196 295.974 262.734 294.444 264.674 293.099C266.613 291.755 269.259 292.213 270.583 294.122C272.723 297.21 270.466 304.967 270.204 308.578C266.73 307.556 258.675 306.948 256.534 303.86C255.211 301.95 255.71 299.312 257.65 297.968Z" fill="#453B3B" stroke="#1A1616" stroke-width="3" stroke-linecap="round" stroke-linejoin="round"/>
<path d="M279.381 293.504C281.074 295.149 282.021 296.6 280.402 298.267C282.021 296.6 283.819 297.814 285.512 299.459C287.205 301.103 287.265 303.787 285.647 305.454C283.029 308.149 274.983 307.429 271.388 307.867C271.722 304.262 270.767 296.24 273.385 293.545C275.004 291.878 277.688 291.86 279.381 293.504Z" fill="#453B3B" stroke="#1A1616" stroke-width="3" stroke-linecap="round" stroke-linejoin="round"/>
<path d="M284.667 316.552C282.92 318.139 281.412 318.994 279.85 317.274C281.412 318.994 280.088 320.713 278.341 322.3C276.595 323.887 273.912 323.779 272.349 322.06C269.823 319.279 271.044 311.294 270.831 307.679C274.409 308.237 282.474 307.784 285.001 310.565C286.563 312.285 286.414 314.965 284.667 316.552Z" fill="#453B3B" stroke="#1A1616" stroke-width="3" stroke-linecap="round" stroke-linejoin="round"/>
<ellipse rx="52.0108" ry="18.4555" transform="matrix(-0.99197 0.126475 0.126475 0.99197 263.381 245.815)" fill="#C3B6B6" stroke="#1A1616" stroke-width="3" stroke-linecap="round"/>
<ellipse rx="41.6087" ry="14.8602" transform="matrix(-0.99197 0.126475 0.126475 0.99197 265.02 258.654)" fill="#9A8E8E" stroke="#1A1616" stroke-width="3" stroke-linecap="round"/>
<path d="M267.697 279.655C239.203 283.288 214.806 276.05 213.204 263.488L211.436 249.619C213.037 262.18 237.364 268.864 265.858 265.231C294.352 261.598 316.224 249.024 314.622 236.462L316.39 250.332C317.992 262.893 296.191 276.022 267.697 279.655Z" fill="#E2DCDC" stroke="#1A1616" stroke-width="3" stroke-linecap="round" stroke-linejoin="round"/>
<path d="M211.434 249.618C206.825 213.465 226.187 181.211 254.681 177.578C283.175 173.945 310.011 200.308 314.621 236.462" stroke="#1A1616" stroke-width="3" stroke-linecap="round"/>
<path d="M251.043 317.875H269.181C273.093 317.875 284.118 314.815 289.453 314.275C294.788 313.735 302.897 314.239 306.169 311.934C310.259 309.054 306.347 308.334 305.458 307.974C304.569 307.614 299.234 308.514 296.389 308.514C293.543 308.514 290.342 308.334 289.453 307.974C288.564 307.614 301.368 305.994 304.035 305.454C306.702 304.913 308.303 301.673 306.169 300.953C304.035 300.233 299.412 301.493 296.922 301.493C294.432 301.493 290.165 302.393 289.453 302.393C288.742 302.393 302.612 297.352 305.458 297.172C308.303 296.992 309.014 292.492 304.924 292.492C300.834 292.492 292.654 296.092 289.453 297.172C286.252 298.252 285.719 298.612 285.719 297.892C285.719 297.172 295.499 292.672 297.633 290.511C299.767 288.351 297.1 287.271 294.966 287.451C292.832 287.631 288.92 290.871 286.43 291.951C283.941 293.032 279.139 296.452 277.361 297.172L279.673 293.392C280.562 293.032 283.407 288.531 283.763 287.631C284.118 286.731 284.296 284.75 281.273 286.371C278.25 287.991 278.428 289.071 276.294 291.591C274.16 294.112 269.537 296.812 267.225 299.693C263.609 300.953 256.2 302.897 253.355 303.473C249.798 304.193 229.526 298.973 218.501 298.973C213.303 298.973 209.607 298.692 206.556 298.698L176 307.376C176 310.089 177.241 311.789 179.023 312.913C182.046 316.154 201.785 323.816 209.076 323.996C216.367 324.176 245.352 317.875 251.043 317.875Z" fill="#BBB4B4"/>
<path d="M176 307.376C176 310.089 177.241 311.789 179.023 312.913C182.046 316.154 201.785 323.816 209.076 323.996C216.367 324.176 245.352 317.875 251.043 317.875C256.733 317.875 265.269 317.875 269.181 317.875C273.093 317.875 284.118 314.815 289.453 314.275C294.788 313.735 302.897 314.239 306.169 311.935C310.259 309.054 306.347 308.334 305.458 307.974C304.569 307.614 299.234 308.514 296.389 308.514C293.543 308.514 290.342 308.334 289.453 307.974C288.564 307.614 301.368 305.994 304.035 305.454C306.702 304.914 308.303 301.673 306.169 300.953C304.035 300.233 299.412 301.493 296.922 301.493C294.432 301.493 290.165 302.393 289.453 302.393C288.742 302.393 302.612 297.352 305.458 297.172C308.303 296.992 309.014 292.492 304.924 292.492C300.834 292.492 292.654 296.092 289.453 297.172C286.252 298.253 285.719 298.613 285.719 297.893C285.719 297.172 295.499 292.672 297.633 290.511C299.767 288.351 297.1 287.271 294.966 287.451C292.832 287.631 288.92 290.871 286.43 291.952C283.941 293.032 279.139 296.452 277.361 297.172L279.673 293.392C280.562 293.032 283.407 288.531 283.763 287.631C284.118 286.731 284.023 283.88 281 285.5C277.977 287.12 277.134 287.991 275 290.511C272.866 293.032 269.537 296.812 267.225 299.693C263.609 300.953 256.2 302.897 253.355 303.473C249.798 304.193 229.526 298.973 218.501 298.973C213.303 298.973 204.051 299.687 201 299.693" stroke="#1A1616" stroke-width="3" stroke-linecap="round" stroke-linejoin="round"/>
<path d="M149.453 242.182C140.334 240.223 129.188 238.958 117.587 240.293C105.972 241.63 95.3941 245.402 86.9547 249.388C85.0476 250.289 83.8127 252.17 83.6651 254.274L77.5784 341.035L178.703 329.393L153.781 246.239C153.171 244.202 151.532 242.629 149.453 242.182Z" fill="#E2DCDC" stroke="#1A1616" stroke-width="3" stroke-linecap="round"/>
<path d="M132.756 260.638C133.934 262.682 134.448 264.338 132.435 265.498C134.448 264.338 135.845 265.998 137.024 268.042C138.202 270.087 137.526 272.685 135.513 273.846C132.258 275.722 124.716 272.828 121.138 272.266C122.446 268.889 123.722 260.913 126.977 259.036C128.99 257.876 131.577 258.593 132.756 260.638Z" fill="#453B3B" stroke="#1A1616" stroke-width="3" stroke-linecap="round" stroke-linejoin="round"/>
<path d="M134.828 282.663C132.872 283.983 131.258 284.613 129.957 282.687C131.258 284.613 129.701 286.125 127.745 287.446C125.789 288.766 123.15 288.276 121.849 286.35C119.747 283.237 122.098 275.508 122.404 271.9C125.866 272.964 133.913 273.671 136.015 276.785C137.316 278.71 136.784 281.342 134.828 282.663Z" fill="#453B3B" stroke="#1A1616" stroke-width="3" stroke-linecap="round" stroke-linejoin="round"/>
<path d="M113.044 286.861C111.371 285.196 110.442 283.733 112.081 282.086C110.442 283.733 108.659 282.497 106.986 280.832C105.313 279.167 105.286 276.483 106.925 274.836C109.575 272.173 117.612 272.991 121.211 272.597C120.834 276.198 121.691 284.231 119.04 286.894C117.401 288.541 114.716 288.526 113.044 286.861Z" fill="#453B3B" stroke="#1A1616" stroke-width="3" stroke-linecap="round" stroke-linejoin="round"/>
<path d="M108.04 263.75C109.806 262.185 111.324 261.349 112.865 263.087C111.324 261.349 112.669 259.646 114.435 258.08C116.201 256.515 118.882 256.655 120.423 258.394C122.916 261.205 121.597 269.175 121.767 272.792C118.196 272.19 110.126 272.544 107.633 269.733C106.092 267.995 106.274 265.316 108.04 263.75Z" fill="#453B3B" stroke="#1A1616" stroke-width="3" stroke-linecap="round" stroke-linejoin="round"/>
<ellipse rx="52.0108" ry="18.4555" transform="matrix(0.993438 -0.11437 -0.11437 -0.993438 128.461 334.743)" fill="#C3B6B6" stroke="#1A1616" stroke-width="3" stroke-linecap="round"/>
<ellipse rx="41.6087" ry="14.8602" transform="matrix(0.993438 -0.11437 -0.11437 -0.993438 126.979 321.884)" fill="#9A8E8E" stroke="#1A1616" stroke-width="3" stroke-linecap="round"/>
<path d="M180.451 331.572C184.619 367.779 164.865 399.794 136.329 403.08C107.792 406.365 81.28 379.676 77.1116 343.469" stroke="#1A1616" stroke-width="3" stroke-linecap="round"/>
<path d="M124.558 300.852C153.094 297.567 177.402 305.102 178.85 317.683L180.449 331.572C179.001 318.992 154.757 312.012 126.221 315.297C97.6849 318.583 75.6618 330.889 77.1101 343.469L75.5111 329.58C74.0627 316.999 96.0219 304.137 124.558 300.852Z" fill="#E2DCDC" stroke="#1A1616" stroke-width="3" stroke-linecap="round" stroke-linejoin="round"/>
<path d="M141.678 262.837L123.541 262.616C119.629 262.568 108.567 265.494 103.226 265.969C97.885 266.444 89.7828 265.841 86.483 268.106C82.3581 270.936 86.2612 271.704 87.1459 272.074C88.0306 272.445 93.376 271.61 96.221 271.645C99.066 271.68 102.264 271.899 103.149 272.27C104.034 272.64 91.2115 274.104 88.5377 274.612C85.8639 275.119 84.2241 278.34 86.3491 279.086C88.474 279.832 93.1126 278.629 95.6019 278.659C98.0913 278.689 102.37 277.841 103.081 277.85C103.792 277.859 89.8614 282.73 87.0142 282.875C84.167 283.021 83.4009 287.512 87.4906 287.562C91.5803 287.612 99.8036 284.111 103.017 283.07C106.231 282.029 106.769 281.676 106.76 282.396C106.751 283.116 96.9169 287.497 94.7568 289.631C92.5967 291.765 95.2507 292.878 97.3867 292.724C99.5226 292.57 103.474 289.377 105.977 288.328C108.479 287.278 113.322 283.916 115.109 283.218L112.751 286.97C111.858 287.319 108.958 291.785 108.591 292.681C108.224 293.576 108.023 295.554 111.065 293.971C114.108 292.388 113.943 291.306 116.108 288.811C118.272 286.317 122.928 283.673 125.275 280.821C128.906 279.605 136.338 277.752 139.19 277.21C142.755 276.534 162.962 282.001 173.987 282.135C179.184 282.199 182.877 282.524 185.928 282.556C183.171 286.224 180.99 289.408 180.234 290.753C177.867 294.96 168.654 326.628 162.869 341.981C156.059 360.053 165.05 367.576 175.207 367.095C183.332 366.71 189.904 354.515 191.101 348.831C194.911 338.236 200.842 312.336 204.612 306.936C209.325 300.185 216.496 281.663 216.587 274.251C216.62 271.538 215.4 269.823 213.631 268.677C210.648 265.4 191.004 257.497 183.716 257.229C176.428 256.96 147.368 262.907 141.678 262.837Z" fill="#BBB4B4" stroke="#1A1616" stroke-width="3" stroke-linecap="round"/>
<path d="M141.678 262.837L123.541 262.616C119.629 262.568 108.567 265.494 103.226 265.969C97.885 266.444 89.7828 265.841 86.483 268.106C82.3581 270.936 86.2612 271.704 87.1459 272.074C88.0306 272.445 93.376 271.61 96.221 271.645C99.066 271.68 102.264 271.899 103.149 272.27C104.034 272.64 91.2115 274.104 88.5377 274.612C85.8639 275.119 84.2241 278.34 86.3491 279.086C88.474 279.832 93.1126 278.629 95.6019 278.659C98.0913 278.689 102.37 277.841 103.081 277.85C103.792 277.859 89.8614 282.73 87.0142 282.875C84.167 283.021 83.4009 287.512 87.4906 287.562C91.5803 287.612 99.8036 284.111 103.017 283.07C106.231 282.029 106.769 281.676 106.76 282.396C106.751 283.116 96.9169 287.497 94.7568 289.631C92.5967 291.765 95.2507 292.878 97.3867 292.724C99.5226 292.57 103.474 289.377 105.977 288.328C108.479 287.278 113.322 283.916 115.109 283.218L112.751 286.97C111.858 287.319 108.958 291.785 108.591 292.681C108.224 293.576 108.023 295.554 111.065 293.971C114.108 292.388 113.943 291.306 116.108 288.811C118.272 286.317 122.928 283.673 125.275 280.821C128.906 279.605 136.338 277.752 139.19 277.21C142.755 276.534 162.962 282.001 173.987 282.135C179.184 282.199 182.877 282.524 185.928 282.556C183.171 286.224 180.99 289.408 180.234 290.753C177.867 294.96 168.654 326.628 162.869 341.981C156.059 360.053 165.05 367.576 175.207 367.095C183.332 366.71 189.904 354.515 191.101 348.831C194.911 338.236 200.842 312.336 204.612 306.936C209.325 300.185 216.496 281.663 216.587 274.251C216.62 271.538 215.4 269.823 213.631 268.677C210.648 265.4 191.004 257.497 183.716 257.229C176.428 256.96 147.368 262.907 141.678 262.837Z" fill="#BBB4B4" stroke="#1A1616" stroke-width="3" stroke-linecap="round"/>
<path d="M161.983 323.465C160.19 347.445 155.886 372.394 171.909 370.59C179.403 369.745 204.471 337.251 202.919 328.964C201.51 321.447 163.775 299.485 161.983 323.465Z" fill="#6C6565" stroke="black" stroke-width="3" stroke-linecap="round"/>
<path d="M149.453 242.182C140.335 240.222 129.189 238.957 117.587 240.293C105.972 241.63 95.3943 245.402 86.9549 249.388C85.0479 250.288 83.813 252.17 83.6654 254.274L77.5786 341.035L178.703 329.393L153.781 246.239C153.171 244.202 151.532 242.629 149.453 242.182Z" fill="#E2DCDC" stroke="#1A1616" stroke-width="3" stroke-linecap="round"/>
<path d="M132.756 260.638C133.934 262.682 134.448 264.338 132.435 265.498C134.448 264.338 135.845 265.997 137.024 268.042C138.202 270.087 137.526 272.685 135.513 273.845C132.258 275.722 124.716 272.828 121.138 272.266C122.446 268.889 123.722 260.912 126.977 259.036C128.99 257.876 131.577 258.593 132.756 260.638Z" fill="#453B3B" stroke="#1A1616" stroke-width="3" stroke-linecap="round" stroke-linejoin="round"/>
<path d="M134.828 282.663C132.872 283.983 131.258 284.613 129.957 282.687C131.258 284.613 129.701 286.125 127.745 287.445C125.789 288.766 123.15 288.276 121.85 286.35C119.747 283.236 122.099 275.508 122.405 271.9C125.866 272.964 133.913 273.671 136.016 276.784C137.316 278.71 136.784 281.342 134.828 282.663Z" fill="#453B3B" stroke="#1A1616" stroke-width="3" stroke-linecap="round" stroke-linejoin="round"/>
<path d="M113.044 286.861C111.371 285.196 110.442 283.733 112.081 282.086C110.442 283.733 108.659 282.497 106.986 280.832C105.313 279.167 105.286 276.483 106.925 274.836C109.575 272.173 117.612 272.991 121.211 272.596C120.834 276.198 121.691 284.23 119.04 286.893C117.401 288.54 114.717 288.526 113.044 286.861Z" fill="#453B3B" stroke="#1A1616" stroke-width="3" stroke-linecap="round" stroke-linejoin="round"/>
<path d="M108.04 263.75C109.806 262.184 111.324 261.349 112.866 263.087C111.324 261.349 112.669 259.646 114.435 258.08C116.201 256.515 118.882 256.655 120.424 258.393C122.916 261.205 121.597 269.175 121.767 272.792C118.196 272.19 110.126 272.544 107.633 269.733C106.092 267.994 106.274 265.316 108.04 263.75Z" fill="#453B3B" stroke="#1A1616" stroke-width="3" stroke-linecap="round" stroke-linejoin="round"/>
<ellipse rx="52.0108" ry="18.4555" transform="matrix(0.993438 -0.11437 -0.11437 -0.993438 128.461 334.742)" fill="#C3B6B6" stroke="#1A1616" stroke-width="3" stroke-linecap="round"/>
<ellipse rx="41.6087" ry="14.8602" transform="matrix(0.993438 -0.11437 -0.11437 -0.993438 126.98 321.884)" fill="#9A8E8E" stroke="#1A1616" stroke-width="3" stroke-linecap="round"/>
<path d="M124.558 300.852C153.095 297.566 177.402 305.102 178.85 317.682L180.449 331.572C179.001 318.991 154.758 312.012 126.221 315.297C97.685 318.582 75.6619 330.888 77.1102 343.469L75.5112 329.579C74.0628 316.999 96.022 304.137 124.558 300.852Z" fill="#E2DCDC" stroke="#1A1616" stroke-width="3" stroke-linecap="round" stroke-linejoin="round"/>
<path d="M180.451 331.572C184.619 367.78 164.865 399.795 136.329 403.08C107.792 406.365 81.2799 379.676 77.1115 343.469" stroke="#1A1616" stroke-width="3" stroke-linecap="round"/>
<path d="M141.677 262.837L123.541 262.616C119.629 262.568 108.567 265.494 103.226 265.969C97.8849 266.444 89.7828 265.841 86.4829 268.106C82.3581 270.936 86.2612 271.704 87.1459 272.074C88.0306 272.445 93.3759 271.61 96.221 271.645C99.066 271.68 102.264 271.899 103.149 272.27C104.034 272.64 91.2115 274.104 88.5377 274.612C85.8639 275.12 84.2241 278.34 86.349 279.086C88.474 279.832 93.1125 278.629 95.6019 278.659C98.0913 278.689 102.37 277.841 103.081 277.85C103.792 277.859 89.8614 282.73 87.0142 282.875C84.167 283.021 83.4009 287.512 87.4906 287.562C91.5803 287.612 99.8036 284.111 103.017 283.07C106.231 282.029 106.769 281.676 106.76 282.396C106.751 283.116 96.9169 287.497 94.7568 289.631C92.5967 291.765 95.2507 292.878 97.3866 292.724C99.5226 292.57 103.474 289.377 105.977 288.328C108.479 287.278 113.322 283.916 115.109 283.218L112.751 286.97C111.858 287.319 108.958 291.785 108.591 292.681C108.224 293.576 108.022 295.554 111.065 293.971C114.108 292.388 113.943 291.306 116.108 288.811C118.272 286.317 122.928 283.673 125.275 280.821C128.906 279.605 136.338 277.752 139.19 277.21C142.755 276.534 162.962 282.001 173.987 282.135C179.184 282.199 182.877 282.524 185.928 282.556L216.587 274.251C216.62 271.538 215.4 269.823 213.631 268.677C210.648 265.4 191.004 257.497 183.716 257.229C176.428 256.96 147.367 262.907 141.677 262.837Z" fill="#BBB4B4"/>
<path d="M216.587 274.251C216.62 271.538 215.4 269.823 213.631 268.677C210.648 265.4 191.004 257.497 183.716 257.228C176.428 256.96 147.368 262.907 141.677 262.837C135.987 262.768 127.452 262.664 123.541 262.616C119.629 262.568 108.567 265.494 103.226 265.969C97.885 266.444 89.7828 265.841 86.4829 268.105C82.3581 270.936 86.2612 271.703 87.1459 272.074C88.0306 272.445 93.376 271.61 96.221 271.645C99.066 271.68 102.264 271.899 103.149 272.269C104.034 272.64 91.2115 274.104 88.5377 274.612C85.8639 275.119 84.2241 278.34 86.349 279.086C88.474 279.832 93.1125 278.629 95.6019 278.659C98.0913 278.689 102.37 277.841 103.081 277.85C103.792 277.859 89.8614 282.73 87.0142 282.875C84.167 283.02 83.4009 287.512 87.4906 287.562C91.5803 287.612 99.8036 284.111 103.017 283.07C106.231 282.029 106.769 281.676 106.76 282.396C106.751 283.116 96.9169 287.497 94.7568 289.631C92.5967 291.765 95.2507 292.878 97.3867 292.724C99.5226 292.57 103.474 289.377 105.977 288.328C108.479 287.278 113.322 283.916 115.109 283.218L112.751 286.97C111.858 287.319 108.958 291.785 108.591 292.68C108.224 293.576 108.285 296.428 111.328 294.845C114.37 293.262 115.224 292.401 117.388 289.907C119.553 287.413 122.928 283.673 125.275 280.821C128.906 279.605 136.338 277.752 139.19 277.21C142.755 276.534 162.962 282.001 173.987 282.135C179.184 282.199 188.444 281.597 191.495 281.629" stroke="#1A1616" stroke-width="3" stroke-linecap="round" stroke-linejoin="round"/>
<path fill-rule="evenodd" clip-rule="evenodd" d="M59.584 97.4819C59.584 95.1031 61.5428 92 63.959 92C66.3753 92 68.334 93.9284 68.334 96.3072C68.334 99.1363 64.8595 102.703 62.0956 105.54C61.1748 106.485 60.3328 107.35 59.7245 108.079C60.504 107.694 61.4116 107.185 62.3906 106.637C65.8464 104.702 70.1909 102.269 72.9236 103.001C75.2213 103.617 76.5771 106.008 75.9517 108.342C75.3263 110.676 71.822 111.765 69.5242 111.149C71.822 111.765 74.3124 114.46 73.687 116.794C73.0617 119.127 70.692 120.52 68.3942 119.905C65.6616 119.172 63.1157 114.893 61.0905 111.489C60.73 110.883 60.3861 110.305 60.0605 109.78C60.4196 111.832 60.6176 113.865 60.8083 115.823C61.295 120.82 61.7331 125.319 64.6788 128.347C65.9884 129.693 62.4746 131.039 59.5841 131.039C56.713 131.039 53.1627 129.693 54.4723 128.347C57.8083 124.917 58.3108 119.441 58.8211 113.877C58.9552 112.415 59.0899 110.947 59.2767 109.509C58.9018 110.104 58.5011 110.777 58.0776 111.489C56.0524 114.893 53.5065 119.172 50.7738 119.905C48.4761 120.52 46.1064 119.127 45.4811 116.794C44.8557 114.46 47.3461 111.765 49.6439 111.149C47.3461 111.765 43.8418 110.676 43.2164 108.342C42.591 106.008 43.9468 103.617 46.2445 103.001C48.9772 102.269 53.3217 104.702 56.7775 106.637C57.7565 107.185 58.6641 107.694 59.4436 108.079C58.8353 107.35 57.9933 106.486 57.0725 105.54L57.0725 105.54C54.3086 102.703 50.834 99.1363 50.834 96.3072C50.834 93.9284 52.7928 92 55.209 92C57.6253 92 59.584 95.1031 59.584 97.4819Z" fill="#453B3B"/>
<path d="M58.584 97.4819C58.584 98.0342 59.0318 98.4819 59.584 98.4819C60.1363 98.4819 60.584 98.0342 60.584 97.4819H58.584ZM62.0956 105.54L61.3793 104.842L62.0956 105.54ZM59.7245 108.079L58.9567 107.438C58.6539 107.801 58.6465 108.326 58.9389 108.698C59.2314 109.069 59.7438 109.185 60.1675 108.975L59.7245 108.079ZM62.3906 106.637L62.8792 107.51L62.3906 106.637ZM72.9236 103.001L72.6648 103.967L72.9236 103.001ZM75.9517 108.342L74.9858 108.083L75.9517 108.342ZM69.7831 110.183C69.2496 110.04 68.7013 110.357 68.5583 110.89C68.4154 111.423 68.732 111.972 69.2654 112.115L69.7831 110.183ZM73.687 116.794L74.653 117.052L73.687 116.794ZM68.3942 119.905L68.1354 120.871L68.3942 119.905ZM61.0905 111.489L61.9499 110.978L61.0905 111.489ZM60.0605 109.78L60.9106 109.253C60.6582 108.846 60.1523 108.675 59.7045 108.845C59.2567 109.016 58.9929 109.48 59.0755 109.952L60.0605 109.78ZM60.8083 115.823L59.813 115.919L60.8083 115.823ZM64.6788 128.347L65.3955 127.649L64.6788 128.347ZM54.4723 128.347L53.7555 127.649L54.4723 128.347ZM58.8211 113.877L57.8253 113.786L58.8211 113.877ZM59.2767 109.509L60.2684 109.638C60.3288 109.172 60.0573 108.727 59.6156 108.568C59.1739 108.409 58.681 108.579 58.4307 108.976L59.2767 109.509ZM58.0776 111.489L57.2182 110.978L58.0776 111.489ZM50.7738 119.905L51.0327 120.871H51.0327L50.7738 119.905ZM45.4811 116.794L46.447 116.535L45.4811 116.794ZM49.9027 112.115C50.4361 111.972 50.7527 111.423 50.6098 110.89C50.4668 110.357 49.9185 110.04 49.385 110.183L49.9027 112.115ZM43.2164 108.342L44.1823 108.083H44.1823L43.2164 108.342ZM46.2445 103.001L46.5033 103.967H46.5033L46.2445 103.001ZM56.7775 106.637L57.2662 105.765L56.7775 106.637ZM59.4436 108.079L59.0006 108.975C59.4243 109.185 59.9367 109.069 60.2292 108.698C60.5216 108.326 60.5142 107.801 60.2114 107.438L59.4436 108.079ZM57.0725 105.54L56.3326 106.213C56.3403 106.221 56.3482 106.23 56.3562 106.238L57.0725 105.54ZM57.0725 105.54L57.8124 104.868C57.8047 104.859 57.7968 104.851 57.7888 104.842L57.0725 105.54ZM63.959 91C62.3083 91 60.9518 92.0475 60.0608 93.2552C59.1615 94.4741 58.584 96.0485 58.584 97.4819H60.584C60.584 96.5366 60.986 95.3699 61.6702 94.4426C62.3626 93.504 63.1936 93 63.959 93V91ZM69.334 96.3072C69.334 93.3615 66.9128 91 63.959 91V93C65.8378 93 67.334 94.4954 67.334 96.3072H69.334ZM62.8119 106.238C64.1844 104.829 65.7897 103.183 67.0479 101.525C68.2752 99.9078 69.334 98.0775 69.334 96.3072H67.334C67.334 97.3661 66.6556 98.7336 65.4547 100.316C64.2847 101.858 62.7707 103.414 61.3793 104.842L62.8119 106.238ZM60.4924 108.719C61.0705 108.027 61.8813 107.193 62.8119 106.238L61.3793 104.842C60.4682 105.778 59.5952 106.673 58.9567 107.438L60.4924 108.719ZM61.9019 105.765C60.9159 106.317 60.033 106.811 59.2816 107.182L60.1675 108.975C60.975 108.576 61.9074 108.054 62.8792 107.51L61.9019 105.765ZM73.1824 102.035C71.4725 101.577 69.4304 102.126 67.5505 102.893C65.6233 103.679 63.6181 104.804 61.9019 105.765L62.8792 107.51C64.6189 106.535 66.5139 105.476 68.306 104.745C70.1455 103.994 71.642 103.693 72.6648 103.967L73.1824 102.035ZM76.9176 108.601C77.6821 105.747 76.0278 102.797 73.1824 102.035L72.6648 103.967C74.4149 104.436 75.472 106.268 74.9858 108.083L76.9176 108.601ZM69.2654 112.115C70.65 112.486 72.3202 112.335 73.7303 111.782C75.1275 111.234 76.4904 110.195 76.9176 108.601L74.9858 108.083C74.7877 108.822 74.0857 109.495 72.9999 109.92C71.9271 110.341 70.6962 110.428 69.7831 110.183L69.2654 112.115ZM74.653 117.052C75.0802 115.458 74.4195 113.876 73.4835 112.703C72.5389 111.519 71.1677 110.554 69.7831 110.183L69.2654 112.115C70.1786 112.359 71.2014 113.05 71.9201 113.95C72.6475 114.862 72.9192 115.795 72.7211 116.535L74.653 117.052ZM68.1354 120.871C70.9808 121.633 73.8885 119.906 74.653 117.052L72.7211 116.535C72.2349 118.349 70.4032 119.408 68.6531 118.939L68.1354 120.871ZM60.2311 112C61.2368 113.691 62.411 115.667 63.687 117.312C64.9316 118.916 66.4255 120.412 68.1354 120.871L68.6531 118.939C67.6303 118.665 66.485 117.655 65.2671 116.086C64.0806 114.557 62.9694 112.692 61.9499 110.978L60.2311 112ZM59.2105 110.306C59.5304 110.823 59.8695 111.393 60.2311 112L61.9499 110.978C61.5905 110.374 61.2418 109.788 60.9106 109.253L59.2105 110.306ZM61.8035 115.726C61.6135 113.774 61.4122 111.703 61.0455 109.607L59.0755 109.952C59.4269 111.96 59.6218 113.957 59.813 115.919L61.8035 115.726ZM65.3955 127.649C64.0856 126.303 63.3033 124.602 62.7908 122.578C62.2743 120.537 62.0487 118.243 61.8035 115.726L59.813 115.919C60.0545 118.4 60.2913 120.854 60.852 123.069C61.4167 125.3 62.3262 127.362 63.962 129.044L65.3955 127.649ZM59.5841 132.039C61.1529 132.039 62.9027 131.679 64.1312 131.103C64.7188 130.827 65.3503 130.428 65.6979 129.852C65.8878 129.537 66.0066 129.144 65.9444 128.708C65.8834 128.279 65.6646 127.926 65.3955 127.649L63.962 129.044C64.0204 129.104 63.9783 129.087 63.9644 128.99C63.9494 128.885 63.986 128.818 63.9856 128.818C63.9522 128.874 63.7702 129.063 63.2818 129.292C62.3581 129.725 60.9057 130.039 59.5841 130.039V132.039ZM53.7555 127.649C53.4856 127.927 53.2663 128.282 53.2074 128.713C53.1474 129.152 53.2704 129.545 53.4624 129.858C53.8137 130.431 54.4478 130.829 55.0379 131.104C56.2713 131.679 58.0242 132.039 59.5841 132.039V130.039C58.2728 130.039 56.8151 129.726 55.883 129.291C55.3902 129.061 55.2029 128.87 55.1672 128.812C55.1656 128.81 55.2036 128.877 55.1889 128.984C55.1753 129.084 55.1316 129.103 55.1891 129.044L53.7555 127.649ZM57.8253 113.786C57.5686 116.584 57.3204 119.268 56.7347 121.676C56.1511 124.075 55.2519 126.111 53.7555 127.649L55.1891 129.044C57.0287 127.153 58.0488 124.736 58.678 122.149C59.3051 119.57 59.5633 116.734 59.8169 113.969L57.8253 113.786ZM58.285 109.38C58.0954 110.84 57.9591 112.327 57.8253 113.786L59.8169 113.969C59.9514 112.503 60.0844 111.054 60.2684 109.638L58.285 109.38ZM58.937 112C59.3622 111.286 59.756 110.624 60.1227 110.042L58.4307 108.976C58.0476 109.584 57.64 110.269 57.2182 110.978L58.937 112ZM51.0327 120.871C52.7426 120.412 54.2365 118.916 55.4811 117.312C56.7571 115.667 57.9313 113.691 58.937 112L57.2182 110.978C56.1987 112.692 55.0875 114.557 53.901 116.086C52.6831 117.655 51.5378 118.665 50.515 118.939L51.0327 120.871ZM44.5151 117.052C45.2796 119.906 48.1873 121.633 51.0327 120.871L50.515 118.939C48.7649 119.408 46.9332 118.349 46.447 116.535L44.5151 117.052ZM49.385 110.183C48.0004 110.554 46.6292 111.519 45.6846 112.703C44.7486 113.876 44.0879 115.458 44.5151 117.052L46.447 116.535C46.2489 115.795 46.5206 114.862 47.248 113.95C47.9667 113.05 48.9895 112.359 49.9027 112.115L49.385 110.183ZM42.2505 108.601C42.6777 110.195 44.0406 111.234 45.4378 111.782C46.8479 112.335 48.5181 112.486 49.9027 112.115L49.385 110.183C48.4719 110.428 47.241 110.341 46.1682 109.92C45.0824 109.495 44.3804 108.822 44.1823 108.083L42.2505 108.601ZM45.9857 102.035C43.1403 102.797 41.486 105.747 42.2505 108.601L44.1823 108.083C43.6961 106.268 44.7532 104.436 46.5033 103.967L45.9857 102.035ZM57.2662 105.765C55.55 104.804 53.5448 103.679 51.6176 102.893C49.7377 102.126 47.6956 101.577 45.9857 102.035L46.5033 103.967C47.5261 103.693 49.0226 103.994 50.8621 104.745C52.6542 105.476 54.5492 106.535 56.2889 107.51L57.2662 105.765ZM59.8865 107.182C59.1351 106.811 58.2522 106.317 57.2662 105.765L56.2889 107.51C57.2607 108.054 58.1931 108.576 59.0006 108.975L59.8865 107.182ZM56.3562 106.238C57.2868 107.193 58.0976 108.027 58.6757 108.719L60.2114 107.438C59.5729 106.673 58.6999 105.778 57.7888 104.842L56.3562 106.238ZM56.3326 106.213L56.3326 106.213L57.8125 104.868L57.8124 104.868L56.3326 106.213ZM49.834 96.3072C49.834 98.0775 50.8929 99.9078 52.1202 101.525C53.3784 103.183 54.9837 104.829 56.3562 106.238L57.7888 104.842C56.3974 103.414 54.8834 101.858 53.7134 100.316C52.5125 98.7336 51.834 97.3661 51.834 96.3072H49.834ZM55.209 91C52.2553 91 49.834 93.3615 49.834 96.3072H51.834C51.834 94.4954 53.3303 93 55.209 93V91ZM60.584 97.4819C60.584 96.0485 60.0066 94.4741 59.1073 93.2552C58.2163 92.0475 56.8598 91 55.209 91V93C55.9745 93 56.8055 93.504 57.4979 94.4426C58.1821 95.3699 58.584 96.5366 58.584 97.4819H60.584Z" fill="#453B3B"/>
<path d="M328.185 543.314V508.508C328.185 499.418 332.382 494.874 340.775 494.874C342.469 494.874 344.605 495.128 347.183 495.636V503.37C345.922 503.032 344.849 502.862 343.965 502.862C342.177 502.862 340.944 503.361 340.267 504.358C339.57 505.356 339.222 506.899 339.222 508.988V543.314H345.517V550.541H322.341V543.314H328.185Z" fill="#1A1616"/>
<path d="M292.317 385.667C288.493 385.667 281.846 386.556 279 387L251.874 383.52C240.998 382.275 223.942 378.938 216 371C212.724 367.725 195.38 344.102 191 338L185 295L204.5 290H332V363C332 363 328.719 367.862 325.5 371C319.267 377.077 311.517 382.201 308 383.52C304.699 383.742 296.141 385.667 292.317 385.667Z" fill="#6C6565"/>
<path d="M279.725 378.961C277.574 383.367 278.829 394.148 279.725 398.987L234 409C238.304 402.992 250.138 389.775 250.138 382.966C250.138 374.455 247.449 372.453 256.056 370.45C264.663 368.448 282.415 373.454 279.725 378.961Z" fill="#CDC7C7"/>
<path d="M99.6585 385.667C103.483 385.667 110.13 386.556 112.976 387L140.101 383.52C150.977 382.275 167.264 377.178 175.205 369.24C178.482 365.965 183.096 359.962 187.476 353.86L217.5 305.5L187.476 290H59.9756V363C67.1756 375.8 79.6423 383 84.9756 385C88.2764 385.222 95.8341 385.667 99.6585 385.667Z" fill="#6C6565"/>
<path d="M103.293 378.961C105.585 383.367 104.248 394.148 103.293 398.987L152 409C147.416 402.992 138.248 389.275 138.248 382.466C138.248 373.955 133.5 372 128.506 370.45C119.543 367.669 100.427 373.454 103.293 378.961Z" fill="#BBB4B4"/>
<path d="M94.2823 413.473C93.3597 416.653 91.0275 424.348 89.9768 427.798L89.9768 457.5L149.777 469.5L164.612 443.482C164.69 439.615 162.176 428.443 159.506 421.917C156.836 415.392 156.057 402.966 149.777 399.118C143.497 395.269 139.045 389.54 116.406 391.189C93.7677 392.838 95.4357 409.498 94.2823 413.473Z" fill="#BBB4B4" stroke="#1A1616" stroke-width="3" stroke-linecap="round"/>
<path d="M128.304 449.394C132.496 444.395 153.959 439.451 163.096 437.711C173.829 453.964 153.38 480.247 146.409 482.235C123 488.91 100.533 480.331 91.7741 471.461C86.0711 465.687 81.507 433.659 88.0324 434.088C94.5577 434.518 123.065 455.643 128.304 449.394Z" fill="#383333" stroke="#1A1616" stroke-width="3" stroke-linecap="round"/>
<path d="M80.6958 428.6C81.2674 425.469 86.3713 421.715 88.8517 420.229C87.2098 423.592 84.0317 430.878 84.4555 433.124C84.9852 435.931 98.6016 445.718 101.969 445.082C105.336 444.447 131.417 454.062 134.363 453.506C137.31 452.95 155.328 454.493 163.201 451.554C169.5 449.202 166.349 438.458 163.986 433.38C165.68 434.66 169.256 439.131 170.002 446.782C170.935 456.345 166.463 469.355 165.282 472.34L165.239 472.45C164.237 474.98 160.924 483.349 161.739 491.488L147.693 485.477L138.917 474.98C138.575 475.48 132.531 477.76 124.653 479.131C114.805 480.844 113.837 486.858 108.376 489.413C106.385 490.345 93.5398 466.636 89.8851 461.899C89.8851 461.899 86.2899 467.909 82.7791 471.425C79.2683 474.941 73.6308 475.74 73.6308 475.74C77.9723 464.751 80.1243 431.732 80.6958 428.6Z" fill="#E2DCDC" stroke="#1A1616" stroke-width="3" stroke-linecap="round"/>
<path d="M172.033 409.152C166.772 413.523 164.989 428.511 164.755 435.458L162.762 435.658C161.022 423.431 158.246 398.906 161.068 398.624C164.594 398.271 178.61 403.688 172.033 409.152Z" fill="#383333"/>
<path d="M74.0662 397.413C82.605 403.503 85.9501 424.333 86.5552 433.986C87.6235 434.345 89.809 434.312 90.0046 431.316C90.2492 427.571 91.1159 392.916 87.9263 391.995C84.7368 391.074 63.3926 389.801 74.0662 397.413Z" fill="#383333"/>
<path d="M172.033 409.152C166.772 413.523 164.989 428.511 164.755 435.458L162.762 435.658C161.022 423.431 158.246 398.906 161.068 398.624C164.594 398.271 178.61 403.688 172.033 409.152Z" stroke="#1A1616" stroke-width="3" stroke-linecap="round"/>
<path d="M74.0662 397.413C82.605 403.503 85.9501 424.333 86.5552 433.986C87.6235 434.345 89.809 434.312 90.0046 431.316C90.2492 427.571 91.1159 392.916 87.9263 391.995C84.7368 391.074 63.3926 389.801 74.0662 397.413Z" stroke="#1A1616" stroke-width="3" stroke-linecap="round"/>
<circle cx="91.9491" cy="431.018" r="4" transform="rotate(174.283 91.9491 431.018)" fill="#CDC7C7" stroke="#1A1616" stroke-width="3" stroke-linecap="round"/>
<circle cx="167.254" cy="433.69" r="4" transform="rotate(-154.469 167.254 433.69)" fill="#CDC7C7" stroke="#1A1616" stroke-width="3" stroke-linecap="round"/>
<circle cx="84.2967" cy="432.552" r="4" transform="rotate(174.283 84.2967 432.552)" fill="#CDC7C7" stroke="#1A1616" stroke-width="3" stroke-linecap="round"/>
<circle cx="161.199" cy="432.556" r="4" transform="rotate(-154.469 161.199 432.556)" fill="#CDC7C7" stroke="#1A1616" stroke-width="3" stroke-linecap="round"/>
<path d="M175 352L186 317" stroke="#1A1616" stroke-width="3" stroke-linecap="round"/>
<path d="M214 348L204 314" stroke="#1A1616" stroke-width="3" stroke-linecap="round"/>
<path d="M287.351 411.038C288.572 414.118 291.626 421.562 293 424.899L301 431.5L293 448L239 479.5L221.088 448C220.63 444.15 222.005 432.753 223.989 425.977C225.974 419.2 225.516 406.725 231.318 402.259C237.12 397.793 240.937 391.633 263.38 391.017C285.824 390.4 285.824 407.188 287.351 411.038Z" fill="#CDC7C7" stroke="#1A1616" stroke-width="3" stroke-linecap="round"/>
<path d="M256.395 443.134C268.313 442.517 282.948 436.04 289.536 434.036C292.424 432.494 300.786 427.559 300.786 429.409C300.786 431.723 302.61 457.938 295.617 468.116C288.624 478.294 273.117 484 254.874 484C236.632 484 224.014 465.803 219.149 455.934C215.257 448.038 217.527 443.648 219.149 441.129C226.091 442.157 244.476 443.751 256.395 443.134Z" fill="#322A2A" stroke="#1A1616" stroke-width="3" stroke-linecap="round"/>
<path d="M299.416 420.748C298.275 417.762 292.569 415.005 289.859 414C292.093 417.015 296.563 423.62 296.563 425.917C296.563 428.789 285.008 440.993 281.585 440.993C278.161 440.993 254.339 455.351 251.343 455.351C248.347 455.351 230.944 460.233 222.67 458.797C216.051 457.649 217.155 446.449 218.534 440.993C217.107 442.573 214.425 447.655 215.11 455.351C215.966 464.971 227.806 478.468 229.518 481.196C230.887 483.378 239.123 493.975 243.069 499L257.477 478.468C257.905 478.899 260.758 479.731 268.746 479.617C278.732 479.473 287.576 476.889 288.004 474.16C288.346 471.978 293.853 460.712 296.563 455.351C296.563 455.351 299.416 460.982 304.091 460.982H313C306.702 450.936 300.557 423.735 299.416 420.748Z" fill="#E2DCDC" stroke="#1A1616" stroke-width="3" stroke-linecap="round"/>
<path d="M288 473.943C287.381 471.331 285.343 465.324 282.143 462.19C278.143 458.272 280 464.848 273 470.025C266 475.202 258.714 475.342 258 478" stroke="#1A1616" stroke-width="3" stroke-linecap="round"/>
<path d="M281 394C280.333 391.217 280 387.783 280 385C280 382.217 281.833 379.232 282.5 379" stroke="#1A1616" stroke-width="3" stroke-linecap="round"/>
<path d="M245.405 391C245.892 389.783 248.295 386.999 248.874 383.52M248.466 379.1C249.046 380.647 249.104 382.138 248.874 383.52M248.874 383.52C237.998 382.275 221.712 377.178 213.77 369.24C207.783 363.256 197.329 348.16 192 340" stroke="#1A1616" stroke-width="3" stroke-linecap="round"/>
<path d="M330 363C322.8 375.8 312 379.996 308.5 381.5C305 383.004 294.141 385.666 290.317 385.666C287.666 385.666 283.657 386.094 280.5 386.504" stroke="#1A1616" stroke-width="3" stroke-linecap="round"/>
<path d="M141.571 391C141.084 389.783 138.68 386.999 138.101 383.52M138.509 379.1C137.929 380.647 137.871 382.138 138.101 383.52M138.101 383.52C148.977 382.275 165.264 377.178 173.205 369.24C179.192 363.256 189.646 348.16 194.976 340" stroke="#1A1616" stroke-width="3" stroke-linecap="round"/>
<path d="M102.976 394C103.642 391.217 104.976 384.957 104.976 382.174C104.976 379.391 103.642 378.232 102.976 378" stroke="#1A1616" stroke-width="3" stroke-linecap="round"/>
<path d="M104 386C94.2018 384.47 92.1189 385.255 82.5 382.5C72.0244 379.5 66.7 376.8 59.5 364" stroke="#1A1616" stroke-width="3" stroke-linecap="round"/>
<path d="M283 379C281.667 375.833 275.8 369.6 263 370C250.2 370.4 246.667 378.5 246.5 382.5M242.5 379C244.5 374.5 251.4 365.5 263 365.5C277.5 365.5 285.37 373.176 286.5 376C287.5 378.5 287.5 380.5 286.5 382.5" stroke="black" stroke-width="3" stroke-linecap="round" stroke-linejoin="round"/>
<path d="M122.5 370C133.3 368.8 137.667 378.667 138 382C139.833 380.333 145.5 377.6 141.5 372C139 368.5 134.5 372 134.5 367C134.5 362.728 129.5 362.5 126 362.5C123.2 362.5 121.5 364 121 365.5C119.667 364 116.7 361.2 111.5 364C105 367.5 108.5 370 106.5 370C104.5 370 99.9998 368.5 98.9999 374C98.5707 376.361 102.333 378 104 378.5C105.5 375 109 371.5 122.5 370Z" stroke="black" stroke-width="3" stroke-linecap="round" stroke-linejoin="round"/>
<path d="M148.48 241.376C139.339 239.528 128.178 238.399 116.594 239.876C104.996 241.355 94.4647 245.255 86.0745 249.343C84.1786 250.267 82.9668 252.164 82.8448 254.27L77.8164 341.098L178.792 328.224L152.858 245.38C152.222 243.351 150.564 241.798 148.48 241.376Z" fill="#E2DCDC" stroke="#1A1616" stroke-width="3" stroke-linecap="round"/>
<path d="M132.009 260.034C133.213 262.064 133.746 263.713 131.747 264.898C133.746 263.713 135.164 265.356 136.367 267.386C137.571 269.416 136.926 272.022 134.927 273.207C131.695 275.123 124.119 272.321 120.535 271.804C121.801 268.411 122.979 260.419 126.211 258.503C128.21 257.319 130.806 258.004 132.009 260.034Z" fill="#453B3B" stroke="#1A1616" stroke-width="3" stroke-linecap="round" stroke-linejoin="round"/>
<path d="M134.35 282.032C132.411 283.377 130.804 284.026 129.48 282.116C130.804 284.026 129.266 285.557 127.326 286.901C125.386 288.246 122.741 287.787 121.417 285.878C119.277 282.79 121.534 275.034 121.796 271.422C125.27 272.444 133.325 273.052 135.466 276.14C136.789 278.05 136.29 280.688 134.35 282.032Z" fill="#453B3B" stroke="#1A1616" stroke-width="3" stroke-linecap="round" stroke-linejoin="round"/>
<path d="M112.618 286.496C110.925 284.852 109.979 283.4 111.598 281.733C109.979 283.4 108.181 282.186 106.488 280.541C104.795 278.897 104.734 276.213 106.353 274.546C108.971 271.851 117.017 272.572 120.611 272.133C120.278 275.739 121.233 283.76 118.615 286.455C116.996 288.122 114.311 288.14 112.618 286.496Z" fill="#453B3B" stroke="#1A1616" stroke-width="3" stroke-linecap="round" stroke-linejoin="round"/>
<path d="M107.333 263.448C109.08 261.861 110.588 261.007 112.15 262.726C110.588 261.007 111.912 259.288 113.659 257.701C115.405 256.113 118.088 256.221 119.65 257.941C122.177 260.721 120.956 268.707 121.169 272.322C117.591 271.764 109.526 272.216 106.999 269.435C105.437 267.716 105.586 265.035 107.333 263.448Z" fill="#453B3B" stroke="#1A1616" stroke-width="3" stroke-linecap="round" stroke-linejoin="round"/>
<ellipse rx="52.0108" ry="18.4555" transform="matrix(0.99197 -0.126475 -0.126475 -0.99197 128.618 334.185)" fill="#C3B6B6" stroke="#1A1616" stroke-width="3" stroke-linecap="round"/>
<ellipse rx="41.6087" ry="14.8602" transform="matrix(0.99197 -0.126475 -0.126475 -0.99197 126.98 321.347)" fill="#9A8E8E" stroke="#1A1616" stroke-width="3" stroke-linecap="round"/>
<path d="M180.566 330.381C185.175 366.535 165.813 398.789 137.319 402.422C108.825 406.055 81.9889 379.691 77.3794 343.537" stroke="#1A1616" stroke-width="3" stroke-linecap="round"/>
<path d="M124.303 300.345C152.797 296.712 177.194 303.951 178.796 316.513L180.564 330.382C178.963 317.82 154.636 311.136 126.142 314.769C97.6476 318.402 75.7762 330.976 77.3778 343.538L75.6095 329.669C74.0079 317.107 95.8086 303.978 124.303 300.345Z" fill="#E2DCDC" stroke="#1A1616" stroke-width="3" stroke-linecap="round" stroke-linejoin="round"/>
<path d="M140.957 262.125H122.819C118.907 262.125 107.882 265.185 102.547 265.725C97.2119 266.265 89.103 265.761 85.831 268.066C81.741 270.946 85.6532 271.666 86.5423 272.026C87.4315 272.386 92.7663 271.486 95.6115 271.486C98.4567 271.486 101.658 271.666 102.547 272.026C103.436 272.386 90.6323 274.006 87.965 274.546C85.2975 275.087 83.6971 278.327 85.831 279.047C87.965 279.767 92.5884 278.507 95.078 278.507C97.5676 278.507 101.835 277.607 102.547 277.607C103.258 277.607 89.3876 282.648 86.5423 282.828C83.6971 283.008 82.9858 287.508 87.0758 287.508C91.1658 287.508 99.3458 283.908 102.547 282.828C105.748 281.748 106.281 281.388 106.281 282.108C106.281 282.828 96.5006 287.328 94.3667 289.489C92.2328 291.649 94.9002 292.729 97.0341 292.549C99.168 292.369 103.08 289.129 105.57 288.049C108.059 286.968 112.861 283.548 114.639 282.828L112.327 286.608C111.438 286.968 108.593 291.469 108.237 292.369C107.882 293.269 107.704 295.25 110.727 293.629C113.75 292.009 113.572 290.929 115.706 288.409C117.84 285.888 122.463 283.188 124.775 280.307C128.391 279.047 135.8 277.103 138.645 276.527C142.202 275.807 162.474 281.027 173.499 281.027C178.697 281.027 182.393 281.308 185.444 281.302C182.733 285.003 180.591 288.214 179.851 289.568C177.536 293.804 168.709 325.582 163.112 341.004C156.523 359.158 165.605 366.571 175.755 365.966C183.876 365.482 190.298 353.208 191.426 347.509C195.106 336.869 200.721 310.899 204.425 305.453C209.055 298.645 216 280.037 216 272.624C216 269.911 214.759 268.211 212.977 267.087C209.954 263.846 190.215 256.184 182.924 256.004C175.633 255.824 146.648 262.125 140.957 262.125Z" fill="#BBB4B4" stroke="#1A1616" stroke-width="3" stroke-linecap="round"/>
<path d="M140.957 262.125H122.819C118.907 262.125 107.882 265.185 102.547 265.725C97.2119 266.265 89.103 265.761 85.831 268.066C81.741 270.946 85.6532 271.666 86.5423 272.026C87.4315 272.386 92.7663 271.486 95.6115 271.486C98.4567 271.486 101.658 271.666 102.547 272.026C103.436 272.386 90.6323 274.006 87.965 274.546C85.2975 275.087 83.6971 278.327 85.831 279.047C87.9649 279.767 92.5884 278.507 95.078 278.507C97.5676 278.507 101.835 277.607 102.547 277.607C103.258 277.607 89.3876 282.648 86.5423 282.828C83.6971 283.008 82.9858 287.508 87.0758 287.508C91.1658 287.508 99.3458 283.908 102.547 282.828C105.748 281.748 106.281 281.388 106.281 282.108C106.281 282.828 96.5006 287.328 94.3667 289.489C92.2328 291.649 94.9002 292.729 97.0341 292.549C99.168 292.369 103.08 289.129 105.57 288.049C108.059 286.968 112.861 283.548 114.639 282.828L112.327 286.608C111.438 286.968 108.593 291.469 108.237 292.369C107.882 293.269 107.704 295.25 110.727 293.629C113.75 292.009 113.572 290.929 115.706 288.409C117.84 285.888 122.463 283.188 124.775 280.307C128.391 279.047 135.8 277.103 138.645 276.527C142.202 275.807 162.474 281.027 173.499 281.027C178.697 281.027 182.393 281.308 185.444 281.302C182.733 285.003 180.591 288.214 179.851 289.568C177.536 293.804 168.709 325.582 163.112 341.004C156.523 359.158 165.605 366.571 175.755 365.966C183.876 365.482 190.298 353.208 191.426 347.509C195.106 336.869 200.721 310.899 204.425 305.453C209.055 298.645 216 280.037 216 272.624C216 269.911 214.759 268.211 212.977 267.087C209.954 263.846 190.215 256.184 182.924 256.004C175.633 255.824 146.648 262.125 140.957 262.125Z" fill="#BBB4B4" stroke="#1A1616" stroke-width="3" stroke-linecap="round"/>
<path d="M162 322.5C160.5 346.5 156.5 371.5 172.5 369.5C179.984 368.565 204.654 335.768 203 327.5C201.5 320 163.5 298.5 162 322.5Z" fill="#6C6565" stroke="black" stroke-width="3" stroke-linecap="round"/>
<path d="M148.48 241.376C139.339 239.528 128.178 238.399 116.594 239.876C104.996 241.354 94.4648 245.255 86.0747 249.343C84.1787 250.267 82.9669 252.164 82.845 254.269L77.8165 341.098L178.792 328.224L152.858 245.38C152.222 243.35 150.565 241.798 148.48 241.376Z" fill="#E2DCDC" stroke="#1A1616" stroke-width="3" stroke-linecap="round"/>
<path d="M132.009 260.034C133.213 262.064 133.746 263.713 131.748 264.898C133.746 263.713 135.164 265.356 136.367 267.386C137.571 269.416 136.926 272.022 134.927 273.207C131.695 275.123 124.119 272.321 120.535 271.803C121.801 268.411 122.979 260.419 126.211 258.503C128.21 257.318 130.806 258.004 132.009 260.034Z" fill="#453B3B" stroke="#1A1616" stroke-width="3" stroke-linecap="round" stroke-linejoin="round"/>
<path d="M134.35 282.032C132.411 283.377 130.804 284.026 129.48 282.116C130.804 284.026 129.266 285.556 127.326 286.901C125.387 288.245 122.741 287.787 121.417 285.878C119.277 282.79 121.534 275.033 121.796 271.422C125.27 272.444 133.325 273.052 135.466 276.14C136.789 278.05 136.29 280.688 134.35 282.032Z" fill="#453B3B" stroke="#1A1616" stroke-width="3" stroke-linecap="round" stroke-linejoin="round"/>
<path d="M112.619 286.496C110.926 284.851 109.979 283.4 111.598 281.733C109.979 283.4 108.181 282.186 106.488 280.541C104.795 278.897 104.735 276.213 106.353 274.546C108.971 271.851 117.017 272.571 120.612 272.133C120.278 275.738 121.233 283.76 118.615 286.455C116.996 288.122 114.312 288.14 112.619 286.496Z" fill="#453B3B" stroke="#1A1616" stroke-width="3" stroke-linecap="round" stroke-linejoin="round"/>
<path d="M107.333 263.448C109.08 261.861 110.588 261.006 112.15 262.726C110.588 261.006 111.912 259.287 113.659 257.7C115.405 256.113 118.088 256.221 119.651 257.94C122.177 260.721 120.956 268.706 121.169 272.321C117.591 271.763 109.526 272.216 106.999 269.435C105.437 267.715 105.586 265.035 107.333 263.448Z" fill="#453B3B" stroke="#1A1616" stroke-width="3" stroke-linecap="round" stroke-linejoin="round"/>
<ellipse rx="52.0108" ry="18.4555" transform="matrix(0.99197 -0.126475 -0.126475 -0.99197 128.619 334.185)" fill="#C3B6B6" stroke="#1A1616" stroke-width="3" stroke-linecap="round"/>
<ellipse rx="41.6087" ry="14.8602" transform="matrix(0.99197 -0.126475 -0.126475 -0.99197 126.98 321.346)" fill="#9A8E8E" stroke="#1A1616" stroke-width="3" stroke-linecap="round"/>
<path d="M124.303 300.345C152.797 296.712 177.194 303.95 178.796 316.512L180.564 330.381C178.963 317.82 154.636 311.136 126.142 314.769C97.6477 318.402 75.7763 330.976 77.3779 343.538L75.6096 329.668C74.008 317.107 95.8087 303.978 124.303 300.345Z" fill="#E2DCDC" stroke="#1A1616" stroke-width="3" stroke-linecap="round" stroke-linejoin="round"/>
<path d="M180.566 330.382C185.175 366.535 165.813 398.789 137.319 402.422C108.825 406.055 81.9888 379.692 77.3792 343.538" stroke="#1A1616" stroke-width="3" stroke-linecap="round"/>
<path d="M140.957 262.125H122.819C118.907 262.125 107.882 265.185 102.547 265.725C97.2119 266.265 89.103 265.761 85.831 268.066C81.741 270.946 85.6532 271.666 86.5423 272.026C87.4315 272.386 92.7663 271.486 95.6115 271.486C98.4567 271.486 101.658 271.666 102.547 272.026C103.436 272.386 90.6323 274.006 87.965 274.546C85.2975 275.087 83.6971 278.327 85.831 279.047C87.9649 279.767 92.5884 278.507 95.078 278.507C97.5676 278.507 101.835 277.607 102.547 277.607C103.258 277.607 89.3876 282.648 86.5423 282.828C83.6971 283.008 82.9858 287.508 87.0758 287.508C91.1658 287.508 99.3458 283.908 102.547 282.828C105.748 281.748 106.281 281.388 106.281 282.108C106.281 282.828 96.5006 287.328 94.3667 289.489C92.2328 291.649 94.9002 292.729 97.0341 292.549C99.168 292.369 103.08 289.129 105.57 288.049C108.059 286.968 112.861 283.548 114.639 282.828L112.327 286.608C111.438 286.968 108.593 291.469 108.237 292.369C107.882 293.269 107.704 295.25 110.727 293.629C113.75 292.009 113.572 290.929 115.706 288.409C117.84 285.888 122.463 283.188 124.775 280.307C128.391 279.047 135.8 277.103 138.645 276.527C142.202 275.807 162.474 281.027 173.499 281.027C178.697 281.027 182.393 281.308 185.444 281.302L216 272.624C216 269.911 214.759 268.211 212.977 267.087C209.954 263.846 190.215 256.184 182.924 256.004C175.633 255.824 146.648 262.125 140.957 262.125Z" fill="#BBB4B4"/>
<path d="M216 272.624C216 269.911 214.759 268.211 212.977 267.087C209.954 263.846 190.215 256.184 182.924 256.004C175.633 255.824 146.648 262.125 140.957 262.125C135.267 262.125 126.731 262.125 122.819 262.125C118.907 262.125 107.882 265.185 102.547 265.725C97.2119 266.265 89.103 265.761 85.831 268.065C81.741 270.946 85.6532 271.666 86.5423 272.026C87.4315 272.386 92.7663 271.486 95.6115 271.486C98.4567 271.486 101.658 271.666 102.547 272.026C103.436 272.386 90.6323 274.006 87.965 274.546C85.2976 275.086 83.6971 278.327 85.831 279.047C87.9649 279.767 92.5884 278.507 95.078 278.507C97.5676 278.507 101.835 277.607 102.547 277.607C103.258 277.607 89.3876 282.648 86.5423 282.828C83.6971 283.008 82.9858 287.508 87.0758 287.508C91.1658 287.508 99.3458 283.908 102.547 282.828C105.748 281.747 106.281 281.387 106.281 282.107C106.281 282.828 96.5006 287.328 94.3667 289.489C92.2328 291.649 94.9002 292.729 97.0341 292.549C99.168 292.369 103.08 289.129 105.57 288.048C108.059 286.968 112.861 283.548 114.639 282.828L112.327 286.608C111.438 286.968 108.593 291.469 108.237 292.369C107.882 293.269 107.977 296.12 111 294.5C114.023 292.88 114.866 292.009 117 289.489C119.134 286.968 122.463 283.188 124.775 280.307C128.391 279.047 135.8 277.103 138.645 276.527C142.202 275.807 162.474 281.027 173.499 281.027C178.697 281.027 187.949 280.313 191 280.307" stroke="#1A1616" stroke-width="3" stroke-linecap="round" stroke-linejoin="round"/>
<path d="M242.547 337.818C251.666 339.777 262.812 341.042 274.413 339.707C286.028 338.37 296.606 334.598 305.045 330.612C306.952 329.711 308.187 327.83 308.335 325.726L314.422 238.965L213.297 250.607L238.219 333.761C238.829 335.798 240.468 337.371 242.547 337.818Z" fill="#E2DCDC" stroke="#1A1616" stroke-width="3" stroke-linecap="round"/>
<path d="M259.244 319.362C258.066 317.318 257.552 315.662 259.565 314.502C257.552 315.662 256.155 314.002 254.976 311.958C253.798 309.913 254.474 307.315 256.487 306.154C259.742 304.278 267.284 307.172 270.862 307.734C269.554 311.111 268.278 319.087 265.023 320.964C263.01 322.124 260.423 321.407 259.244 319.362Z" fill="#453B3B" stroke="#1A1616" stroke-width="3" stroke-linecap="round" stroke-linejoin="round"/>
<path d="M257.172 297.337C259.128 296.017 260.742 295.387 262.043 297.313C260.742 295.387 262.299 293.875 264.255 292.554C266.211 291.234 268.85 291.724 270.151 293.65C272.253 296.763 269.902 304.492 269.596 308.1C266.134 307.036 258.087 306.329 255.985 303.215C254.684 301.29 255.216 298.658 257.172 297.337Z" fill="#453B3B" stroke="#1A1616" stroke-width="3" stroke-linecap="round" stroke-linejoin="round"/>
<path d="M278.956 293.139C280.629 294.804 281.558 296.267 279.919 297.914C281.558 296.267 283.341 297.503 285.014 299.168C286.687 300.833 286.714 303.517 285.075 305.164C282.425 307.827 274.388 307.009 270.789 307.403C271.166 303.802 270.309 295.769 272.96 293.106C274.599 291.459 277.284 291.474 278.956 293.139Z" fill="#453B3B" stroke="#1A1616" stroke-width="3" stroke-linecap="round" stroke-linejoin="round"/>
<path d="M283.96 316.25C282.194 317.815 280.676 318.651 279.135 316.913C280.676 318.651 279.331 320.354 277.565 321.92C275.799 323.485 273.118 323.345 271.577 321.606C269.084 318.795 270.403 310.825 270.233 307.208C273.804 307.81 281.874 307.456 284.367 310.267C285.908 312.005 285.726 314.684 283.96 316.25Z" fill="#453B3B" stroke="#1A1616" stroke-width="3" stroke-linecap="round" stroke-linejoin="round"/>
<ellipse rx="52.0108" ry="18.4555" transform="matrix(-0.993438 0.11437 0.11437 0.993438 263.539 245.257)" fill="#C3B6B6" stroke="#1A1616" stroke-width="3" stroke-linecap="round"/>
<ellipse rx="41.6087" ry="14.8602" transform="matrix(-0.993438 0.11437 0.11437 0.993438 265.021 258.116)" fill="#9A8E8E" stroke="#1A1616" stroke-width="3" stroke-linecap="round"/>
<path d="M211.549 248.428C207.381 212.221 227.135 180.206 255.671 176.92C284.208 173.635 310.72 200.324 314.888 236.531" stroke="#1A1616" stroke-width="3" stroke-linecap="round"/>
<path d="M267.442 279.148C238.906 282.433 214.598 274.898 213.15 262.317L211.551 248.428C212.999 261.008 237.243 267.988 265.779 264.703C294.315 261.417 316.338 249.111 314.89 236.531L316.489 250.42C317.937 263.001 295.978 275.863 267.442 279.148Z" fill="#E2DCDC" stroke="#1A1616" stroke-width="3" stroke-linecap="round" stroke-linejoin="round"/>
<path d="M250.322 317.163L268.459 317.384C272.371 317.432 283.433 314.506 288.774 314.031C294.115 313.556 302.217 314.159 305.517 311.894C309.642 309.064 305.739 308.296 304.854 307.926C303.969 307.555 298.624 308.39 295.779 308.355C292.934 308.32 289.736 308.101 288.851 307.73C287.966 307.36 300.789 305.896 303.462 305.388C306.136 304.881 307.776 301.66 305.651 300.914C303.526 300.168 298.887 301.371 296.398 301.341C293.909 301.311 289.63 302.159 288.919 302.15C288.208 302.141 302.139 297.27 304.986 297.125C307.833 296.979 308.599 292.488 304.509 292.438C300.42 292.388 292.196 295.889 288.983 296.93C285.769 297.971 285.231 298.324 285.24 297.604C285.249 296.884 295.083 292.503 297.243 290.369C299.403 288.235 296.749 287.122 294.613 287.276C292.477 287.43 288.526 290.623 286.023 291.672C283.521 292.722 278.678 296.084 276.891 296.782L279.249 293.03C280.142 292.681 283.042 288.215 283.409 287.319C283.776 286.424 283.977 284.446 280.935 286.029C277.892 287.612 278.057 288.694 275.892 291.189C273.728 293.683 269.072 296.327 266.725 299.179C263.094 300.395 255.662 302.248 252.81 302.79C249.245 303.466 229.038 297.999 218.013 297.865C212.816 297.801 209.123 297.476 206.072 297.444C208.829 293.776 211.01 290.592 211.766 289.247C214.133 285.04 223.346 253.372 229.131 238.019C235.941 219.947 226.95 212.424 216.793 212.905C208.668 213.29 202.096 225.485 200.899 231.169C197.089 241.764 191.158 267.664 187.388 273.064C182.675 279.815 175.504 298.337 175.413 305.749C175.38 308.462 176.6 310.177 178.369 311.323C181.352 314.6 200.996 322.503 208.284 322.771C215.572 323.04 244.632 317.093 250.322 317.163Z" fill="#BBB4B4" stroke="#1A1616" stroke-width="3" stroke-linecap="round"/>
<path d="M250.322 317.163L268.459 317.384C272.371 317.432 283.433 314.506 288.774 314.031C294.115 313.556 302.217 314.159 305.517 311.894C309.642 309.064 305.739 308.296 304.854 307.926C303.969 307.555 298.624 308.39 295.779 308.355C292.934 308.32 289.736 308.101 288.851 307.73C287.966 307.36 300.789 305.896 303.462 305.388C306.136 304.881 307.776 301.66 305.651 300.914C303.526 300.168 298.887 301.371 296.398 301.341C293.909 301.311 289.63 302.159 288.919 302.15C288.208 302.141 302.139 297.27 304.986 297.125C307.833 296.979 308.599 292.488 304.509 292.438C300.42 292.388 292.196 295.889 288.983 296.93C285.769 297.971 285.231 298.324 285.24 297.604C285.249 296.884 295.083 292.503 297.243 290.369C299.403 288.235 296.749 287.122 294.613 287.276C292.477 287.43 288.526 290.623 286.023 291.672C283.521 292.722 278.678 296.084 276.891 296.782L279.249 293.03C280.142 292.681 283.042 288.215 283.409 287.319C283.776 286.424 283.977 284.446 280.935 286.029C277.892 287.612 278.057 288.694 275.892 291.189C273.728 293.683 269.072 296.327 266.725 299.179C263.094 300.395 255.662 302.248 252.81 302.79C249.245 303.466 229.038 297.999 218.013 297.865C212.816 297.801 209.123 297.476 206.072 297.444C208.829 293.776 211.01 290.592 211.766 289.247C214.133 285.04 223.346 253.372 229.131 238.019C235.941 219.947 226.95 212.424 216.793 212.905C208.668 213.29 202.096 225.485 200.899 231.169C197.089 241.764 191.158 267.664 187.388 273.064C182.675 279.815 175.504 298.337 175.413 305.749C175.38 308.462 176.6 310.177 178.369 311.323C181.352 314.6 200.996 322.503 208.284 322.771C215.572 323.04 244.632 317.093 250.322 317.163Z" fill="#BBB4B4" stroke="#1A1616" stroke-width="3" stroke-linecap="round"/>
<path d="M230.017 256.535C231.81 232.555 236.114 207.606 220.091 209.41C212.597 210.255 187.529 242.749 189.081 251.036C190.49 258.553 228.225 280.515 230.017 256.535Z" fill="#6C6565" stroke="black" stroke-width="3" stroke-linecap="round"/>
<path d="M242.547 337.818C251.665 339.778 262.811 341.043 274.413 339.707C286.028 338.37 296.606 334.598 305.045 330.612C306.952 329.712 308.187 327.83 308.335 325.726L314.421 238.965L213.297 250.607L238.219 333.761C238.829 335.798 240.468 337.371 242.547 337.818Z" fill="#E2DCDC" stroke="#1A1616" stroke-width="3" stroke-linecap="round"/>
<path d="M259.244 319.362C258.066 317.318 257.552 315.662 259.565 314.502C257.552 315.662 256.155 314.003 254.976 311.958C253.798 309.913 254.474 307.315 256.487 306.155C259.742 304.278 267.284 307.172 270.862 307.734C269.554 311.111 268.278 319.088 265.023 320.964C263.01 322.124 260.423 321.407 259.244 319.362Z" fill="#453B3B" stroke="#1A1616" stroke-width="3" stroke-linecap="round" stroke-linejoin="round"/>
<path d="M257.172 297.337C259.128 296.017 260.742 295.387 262.043 297.313C260.742 295.387 262.299 293.875 264.255 292.555C266.211 291.234 268.85 291.724 270.15 293.65C272.253 296.764 269.901 304.492 269.595 308.1C266.134 307.036 258.087 306.329 255.984 303.216C254.684 301.29 255.216 298.658 257.172 297.337Z" fill="#453B3B" stroke="#1A1616" stroke-width="3" stroke-linecap="round" stroke-linejoin="round"/>
<path d="M278.956 293.139C280.629 294.804 281.558 296.267 279.919 297.914C281.558 296.267 283.341 297.503 285.014 299.168C286.687 300.833 286.714 303.517 285.075 305.164C282.425 307.827 274.388 307.009 270.789 307.404C271.166 303.802 270.309 295.77 272.96 293.107C274.599 291.46 277.283 291.474 278.956 293.139Z" fill="#453B3B" stroke="#1A1616" stroke-width="3" stroke-linecap="round" stroke-linejoin="round"/>
<path d="M283.96 316.25C282.194 317.816 280.676 318.651 279.134 316.913C280.676 318.651 279.331 320.354 277.565 321.92C275.799 323.485 273.118 323.345 271.576 321.607C269.084 318.795 270.403 310.825 270.233 307.208C273.804 307.81 281.874 307.456 284.367 310.267C285.908 312.006 285.726 314.684 283.96 316.25Z" fill="#453B3B" stroke="#1A1616" stroke-width="3" stroke-linecap="round" stroke-linejoin="round"/>
<ellipse rx="52.0108" ry="18.4555" transform="matrix(-0.993438 0.11437 0.11437 0.993438 263.539 245.258)" fill="#C3B6B6" stroke="#1A1616" stroke-width="3" stroke-linecap="round"/>
<ellipse rx="41.6087" ry="14.8602" transform="matrix(-0.993438 0.11437 0.11437 0.993438 265.02 258.116)" fill="#9A8E8E" stroke="#1A1616" stroke-width="3" stroke-linecap="round"/>
<path d="M267.442 279.148C238.905 282.434 214.598 274.898 213.15 262.318L211.551 248.428C212.999 261.009 237.242 267.988 265.779 264.703C294.315 261.418 316.338 249.112 314.89 236.531L316.489 250.421C317.937 263.001 295.978 275.863 267.442 279.148Z" fill="#E2DCDC" stroke="#1A1616" stroke-width="3" stroke-linecap="round" stroke-linejoin="round"/>
<path d="M211.549 248.428C207.381 212.22 227.135 180.205 255.671 176.92C284.208 173.635 310.72 200.324 314.888 236.531" stroke="#1A1616" stroke-width="3" stroke-linecap="round"/>
<path d="M250.323 317.163L268.459 317.384C272.371 317.432 283.433 314.506 288.774 314.031C294.115 313.556 302.217 314.159 305.517 311.894C309.642 309.064 305.739 308.296 304.854 307.926C303.969 307.555 298.624 308.39 295.779 308.355C292.934 308.32 289.736 308.101 288.851 307.73C287.966 307.36 300.789 305.896 303.462 305.388C306.136 304.88 307.776 301.66 305.651 300.914C303.526 300.168 298.887 301.371 296.398 301.341C293.909 301.311 289.63 302.159 288.919 302.15C288.208 302.141 302.139 297.27 304.986 297.125C307.833 296.979 308.599 292.488 304.509 292.438C300.42 292.388 292.196 295.889 288.983 296.93C285.769 297.971 285.231 298.324 285.24 297.604C285.249 296.884 295.083 292.503 297.243 290.369C299.403 288.235 296.749 287.122 294.613 287.276C292.477 287.43 288.526 290.623 286.023 291.672C283.521 292.722 278.678 296.084 276.891 296.782L279.249 293.03C280.142 292.681 283.042 288.215 283.409 287.319C283.776 286.424 283.978 284.446 280.935 286.029C277.892 287.612 278.057 288.694 275.892 291.189C273.728 293.683 269.072 296.327 266.725 299.179C263.094 300.395 255.662 302.248 252.81 302.79C249.245 303.466 229.038 297.999 218.013 297.865C212.816 297.801 209.123 297.476 206.072 297.444L175.413 305.749C175.38 308.462 176.6 310.177 178.369 311.323C181.352 314.6 200.996 322.503 208.284 322.771C215.572 323.04 244.633 317.093 250.323 317.163Z" fill="#BBB4B4"/>
<path d="M175.413 305.749C175.38 308.462 176.6 310.177 178.369 311.323C181.352 314.6 200.996 322.503 208.284 322.772C215.572 323.04 244.632 317.093 250.323 317.163C256.013 317.232 264.548 317.336 268.459 317.384C272.371 317.432 283.433 314.506 288.774 314.031C294.115 313.556 302.217 314.159 305.517 311.895C309.642 309.064 305.739 308.297 304.854 307.926C303.969 307.555 298.624 308.39 295.779 308.355C292.934 308.32 289.736 308.101 288.851 307.731C287.966 307.36 300.789 305.896 303.462 305.388C306.136 304.881 307.776 301.66 305.651 300.914C303.526 300.168 298.887 301.371 296.398 301.341C293.909 301.311 289.63 302.159 288.919 302.15C288.208 302.141 302.139 297.27 304.986 297.125C307.833 296.98 308.599 292.488 304.509 292.438C300.42 292.388 292.196 295.889 288.983 296.93C285.769 297.971 285.231 298.324 285.24 297.604C285.249 296.884 295.083 292.503 297.243 290.369C299.403 288.235 296.749 287.122 294.613 287.276C292.477 287.43 288.526 290.623 286.023 291.672C283.521 292.722 278.678 296.084 276.891 296.782L279.249 293.03C280.142 292.681 283.042 288.215 283.409 287.32C283.776 286.424 283.715 283.572 280.672 285.155C277.63 286.738 276.776 287.599 274.612 290.093C272.447 292.587 269.072 296.327 266.725 299.179C263.094 300.395 255.662 302.248 252.81 302.79C249.245 303.466 229.038 297.999 218.013 297.865C212.816 297.801 203.556 298.403 200.505 298.371" stroke="#1A1616" stroke-width="3" stroke-linecap="round" stroke-linejoin="round"/>
<path fill-rule="evenodd" clip-rule="evenodd" d="M332.416 482.518C332.416 484.897 330.457 488 328.041 488C325.625 488 323.666 486.072 323.666 483.693C323.666 480.864 327.14 477.297 329.904 474.46C330.825 473.515 331.667 472.65 332.275 471.921C331.496 472.306 330.588 472.815 329.609 473.363C326.154 475.298 321.809 477.731 319.076 476.999C316.779 476.383 315.423 473.992 316.048 471.658C316.674 469.324 320.178 468.235 322.476 468.851C320.178 468.235 317.688 465.54 318.313 463.206C318.938 460.873 321.308 459.48 323.606 460.095C326.338 460.828 328.884 465.107 330.91 468.511C331.27 469.117 331.614 469.695 331.939 470.22C331.58 468.168 331.382 466.135 331.192 464.177C330.705 459.18 330.267 454.681 327.321 451.653C326.012 450.307 329.525 448.961 332.416 448.961C335.287 448.961 338.837 450.307 337.528 451.653C334.192 455.083 333.689 460.559 333.179 466.123C333.045 467.585 332.91 469.053 332.723 470.491C333.098 469.896 333.499 469.223 333.922 468.511C335.948 465.107 338.493 460.828 341.226 460.095C343.524 459.48 345.894 460.873 346.519 463.206C347.144 465.54 344.654 468.235 342.356 468.851C344.654 468.235 348.158 469.324 348.784 471.658C349.409 473.992 348.053 476.383 345.755 476.999C343.023 477.731 338.678 475.298 335.222 473.363C334.244 472.815 333.336 472.306 332.556 471.921C333.165 472.65 334.007 473.514 334.927 474.46L334.928 474.46C337.691 477.297 341.166 480.864 341.166 483.693C341.166 486.072 339.207 488 336.791 488C334.375 488 332.416 484.897 332.416 482.518Z" fill="#453B3B"/>
<path d="M333.416 482.518C333.416 481.966 332.968 481.518 332.416 481.518C331.864 481.518 331.416 481.966 331.416 482.518H333.416ZM329.904 474.46L330.621 475.158L329.904 474.46ZM332.275 471.921L333.043 472.562C333.346 472.199 333.353 471.674 333.061 471.302C332.769 470.931 332.256 470.815 331.833 471.025L332.275 471.921ZM329.609 473.363L329.121 472.49L329.609 473.363ZM319.076 476.999L319.335 476.033L319.076 476.999ZM316.048 471.658L317.014 471.917L316.048 471.658ZM322.217 469.817C322.75 469.96 323.299 469.643 323.442 469.11C323.585 468.577 323.268 468.028 322.735 467.885L322.217 469.817ZM318.313 463.206L317.347 462.948L318.313 463.206ZM323.606 460.095L323.865 459.129L323.606 460.095ZM330.91 468.511L330.05 469.022L330.91 468.511ZM331.939 470.22L331.089 470.747C331.342 471.154 331.848 471.325 332.295 471.155C332.743 470.984 333.007 470.52 332.925 470.048L331.939 470.22ZM331.192 464.177L332.187 464.081L331.192 464.177ZM327.321 451.653L326.604 452.351L327.321 451.653ZM337.528 451.653L338.244 452.351L337.528 451.653ZM333.179 466.123L334.175 466.214L333.179 466.123ZM332.723 470.491L331.732 470.362C331.671 470.828 331.943 471.273 332.384 471.432C332.826 471.591 333.319 471.421 333.569 471.024L332.723 470.491ZM333.922 468.511L334.782 469.022L333.922 468.511ZM341.226 460.095L340.967 459.129H340.967L341.226 460.095ZM346.519 463.206L345.553 463.465L346.519 463.206ZM342.097 467.885C341.564 468.028 341.247 468.577 341.39 469.11C341.533 469.643 342.082 469.96 342.615 469.817L342.097 467.885ZM348.784 471.658L347.818 471.917H347.818L348.784 471.658ZM345.755 476.999L345.497 476.033H345.497L345.755 476.999ZM335.222 473.363L334.734 474.235L335.222 473.363ZM332.556 471.921L332.999 471.025C332.576 470.815 332.063 470.931 331.771 471.302C331.478 471.674 331.486 472.199 331.789 472.562L332.556 471.921ZM334.927 474.46L335.667 473.787C335.66 473.779 335.652 473.77 335.644 473.762L334.927 474.46ZM334.928 474.46L334.188 475.132C334.195 475.141 334.203 475.149 334.211 475.158L334.928 474.46ZM328.041 489C329.692 489 331.048 487.952 331.939 486.745C332.839 485.526 333.416 483.952 333.416 482.518H331.416C331.416 483.463 331.014 484.63 330.33 485.557C329.637 486.496 328.806 487 328.041 487V489ZM322.666 483.693C322.666 486.639 325.087 489 328.041 489V487C326.162 487 324.666 485.505 324.666 483.693H322.666ZM329.188 473.762C327.816 475.171 326.21 476.817 324.952 478.475C323.725 480.092 322.666 481.923 322.666 483.693H324.666C324.666 482.634 325.344 481.266 326.545 479.684C327.715 478.142 329.229 476.586 330.621 475.158L329.188 473.762ZM331.508 471.281C330.93 471.973 330.119 472.807 329.188 473.762L330.621 475.158C331.532 474.222 332.405 473.327 333.043 472.562L331.508 471.281ZM330.098 474.235C331.084 473.683 331.967 473.189 332.718 472.818L331.833 471.025C331.025 471.424 330.093 471.946 329.121 472.49L330.098 474.235ZM318.818 477.965C320.528 478.423 322.57 477.874 324.449 477.107C326.377 476.321 328.382 475.196 330.098 474.235L329.121 472.49C327.381 473.465 325.486 474.524 323.694 475.255C321.855 476.006 320.358 476.307 319.335 476.033L318.818 477.965ZM315.082 471.399C314.318 474.253 315.972 477.203 318.818 477.965L319.335 476.033C317.585 475.564 316.528 473.732 317.014 471.917L315.082 471.399ZM322.735 467.885C321.35 467.514 319.68 467.665 318.27 468.218C316.873 468.766 315.51 469.805 315.082 471.399L317.014 471.917C317.212 471.178 317.914 470.505 319 470.08C320.073 469.659 321.304 469.572 322.217 469.817L322.735 467.885ZM317.347 462.948C316.92 464.542 317.581 466.124 318.516 467.297C319.461 468.481 320.832 469.446 322.217 469.817L322.735 467.885C321.821 467.641 320.799 466.95 320.08 466.05C319.353 465.138 319.081 464.205 319.279 463.465L317.347 462.948ZM323.865 459.129C321.019 458.367 318.112 460.094 317.347 462.948L319.279 463.465C319.765 461.651 321.597 460.592 323.347 461.061L323.865 459.129ZM331.769 468C330.763 466.309 329.589 464.333 328.313 462.688C327.068 461.084 325.574 459.588 323.865 459.129L323.347 461.061C324.37 461.335 325.515 462.345 326.733 463.914C327.919 465.443 329.031 467.308 330.05 469.022L331.769 468ZM332.79 469.694C332.47 469.177 332.13 468.607 331.769 468L330.05 469.022C330.409 469.626 330.758 470.212 331.089 470.747L332.79 469.694ZM330.196 464.274C330.387 466.226 330.588 468.297 330.954 470.393L332.925 470.048C332.573 468.04 332.378 466.043 332.187 464.081L330.196 464.274ZM326.604 452.351C327.914 453.697 328.697 455.398 329.209 457.422C329.726 459.463 329.951 461.757 330.196 464.274L332.187 464.081C331.945 461.6 331.709 459.146 331.148 456.931C330.583 454.7 329.674 452.638 328.038 450.956L326.604 452.351ZM332.416 447.961C330.847 447.961 329.097 448.321 327.869 448.897C327.281 449.173 326.65 449.572 326.302 450.148C326.112 450.463 325.993 450.856 326.056 451.292C326.117 451.721 326.335 452.074 326.604 452.351L328.038 450.956C327.98 450.896 328.022 450.913 328.036 451.01C328.051 451.115 328.014 451.182 328.014 451.182C328.048 451.126 328.23 450.937 328.718 450.708C329.642 450.275 331.094 449.961 332.416 449.961V447.961ZM338.244 452.351C338.514 452.073 338.734 451.718 338.793 451.287C338.853 450.848 338.73 450.455 338.538 450.142C338.186 449.569 337.552 449.171 336.962 448.896C335.729 448.321 333.976 447.961 332.416 447.961V449.961C333.727 449.961 335.185 450.274 336.117 450.709C336.61 450.939 336.797 451.13 336.833 451.188C336.834 451.19 336.796 451.123 336.811 451.016C336.825 450.916 336.868 450.897 336.811 450.956L338.244 452.351ZM334.175 466.214C334.431 463.416 334.68 460.732 335.265 458.324C335.849 455.925 336.748 453.889 338.244 452.351L336.811 450.956C334.971 452.847 333.951 455.264 333.322 457.851C332.695 460.43 332.437 463.266 332.183 466.031L334.175 466.214ZM333.715 470.62C333.905 469.16 334.041 467.673 334.175 466.214L332.183 466.031C332.049 467.497 331.916 468.946 331.732 470.362L333.715 470.62ZM333.063 468C332.638 468.714 332.244 469.376 331.877 469.958L333.569 471.024C333.952 470.416 334.36 469.731 334.782 469.022L333.063 468ZM340.967 459.129C339.257 459.588 337.763 461.084 336.519 462.688C335.243 464.333 334.069 466.309 333.063 468L334.782 469.022C335.801 467.308 336.913 465.443 338.099 463.914C339.317 462.345 340.462 461.335 341.485 461.061L340.967 459.129ZM347.485 462.948C346.72 460.094 343.813 458.367 340.967 459.129L341.485 461.061C343.235 460.592 345.067 461.651 345.553 463.465L347.485 462.948ZM342.615 469.817C344 469.446 345.371 468.481 346.315 467.297C347.251 466.124 347.912 464.542 347.485 462.948L345.553 463.465C345.751 464.205 345.479 465.138 344.752 466.05C344.033 466.95 343.01 467.641 342.097 467.885L342.615 469.817ZM349.75 471.399C349.322 469.805 347.959 468.766 346.562 468.218C345.152 467.665 343.482 467.514 342.097 467.885L342.615 469.817C343.528 469.572 344.759 469.659 345.832 470.08C346.918 470.505 347.62 471.178 347.818 471.917L349.75 471.399ZM346.014 477.965C348.86 477.203 350.514 474.253 349.75 471.399L347.818 471.917C348.304 473.732 347.247 475.564 345.497 476.033L346.014 477.965ZM334.734 474.235C336.45 475.196 338.455 476.321 340.382 477.107C342.262 477.874 344.304 478.423 346.014 477.965L345.497 476.033C344.474 476.307 342.977 476.006 341.138 475.255C339.346 474.524 337.451 473.465 335.711 472.49L334.734 474.235ZM332.113 472.818C332.865 473.189 333.748 473.683 334.734 474.235L335.711 472.49C334.739 471.946 333.807 471.424 332.999 471.025L332.113 472.818ZM335.644 473.762C334.713 472.807 333.902 471.973 333.324 471.281L331.789 472.562C332.427 473.327 333.3 474.222 334.211 475.158L335.644 473.762ZM335.667 473.787L335.667 473.787L334.188 475.132L334.188 475.132L335.667 473.787ZM342.166 483.693C342.166 481.923 341.107 480.092 339.88 478.475C338.622 476.817 337.016 475.171 335.644 473.762L334.211 475.158C335.603 476.586 337.117 478.142 338.287 479.684C339.488 481.266 340.166 482.634 340.166 483.693H342.166ZM336.791 489C339.745 489 342.166 486.639 342.166 483.693H340.166C340.166 485.505 338.67 487 336.791 487V489ZM331.416 482.518C331.416 483.952 331.993 485.526 332.893 486.745C333.784 487.952 335.14 489 336.791 489V487C336.025 487 335.194 486.496 334.502 485.557C333.818 484.63 333.416 483.463 333.416 482.518H331.416Z" fill="#453B3B"/>
</g>
<path d="M28.3239 6H362.676V4H28.3239V6ZM379 22.3239V557.676H381V22.3239H379ZM362.676 574H28.3239V576H362.676V574ZM12 557.676V22.324H10V557.676H12ZM28.3239 574C19.3085 574 12 566.692 12 557.676H10C10 567.796 18.2039 576 28.3239 576V574ZM379 557.676C379 566.691 371.692 574 362.676 574V576C372.796 576 381 567.796 381 557.676H379ZM362.676 6C371.692 6 379 13.3085 379 22.3239H381C381 12.2039 372.796 4 362.676 4V6ZM28.3239 4C18.2039 4 10 12.2039 10 22.324H12C12 13.3085 19.3085 6 28.3239 6V4Z" fill="#F7E2E2"/>
</g>
<defs>
<filter id="filter0_d" x="0" y="0" width="391" height="592" filterUnits="userSpaceOnUse" color-interpolation-filters="sRGB">
<feFlood flood-opacity="0" result="BackgroundImageFix"/>
<feColorMatrix in="SourceAlpha" type="matrix" values="0 0 0 0 0 0 0 0 0 0 0 0 0 0 0 0 0 0 127 0"/>
<feMorphology radius="3" operator="dilate" in="SourceAlpha" result="effect1_dropShadow"/>
<feOffset dy="6"/>
<feGaussianBlur stdDeviation="4"/>
<feColorMatrix type="matrix" values="0 0 0 0 0.279463 0 0 0 0 0.0711028 0 0 0 0 0.0740583 0 0 0 0.05 0"/>
<feBlend mode="normal" in2="BackgroundImageFix" result="effect1_dropShadow"/>
<feBlend mode="normal" in="SourceGraphic" in2="effect1_dropShadow" result="shape"/>
</filter>
<clipPath id="clip0">
<path d="M11 22.324C11 12.7562 18.7562 5 28.3239 5H362.676C372.244 5 380 12.7562 380 22.3239V557.676C380 567.244 372.244 575 362.676 575H28.3239C18.7562 575 11 567.244 11 557.676V22.324Z" fill="white"/>
</clipPath>
</defs>
</svg>
