<svg width="391" height="592" viewBox="0 0 391 592" fill="none" xmlns="http://www.w3.org/2000/svg">
<g filter="url(#filter0_d)">
<g clip-path="url(#clip0)">
<path d="M11 22.324C11 12.7562 18.7562 5 28.3239 5H362.676C372.244 5 380 12.7562 380 22.3239V557.676C380 567.244 372.244 575 362.676 575H28.3239C18.7562 575 11 567.244 11 557.676V22.324Z" fill="#FBEEEE"/>
<path d="M63.8151 36.6857V71.4919C63.8151 80.5816 59.6185 85.1264 51.2251 85.1264C49.5313 85.1264 47.3954 84.8724 44.8171 84.3642V76.6295C46.078 76.9683 47.1507 77.1377 48.0352 77.1377C49.823 77.1377 51.0557 76.6389 51.7332 75.6415C52.4295 74.6441 52.7777 73.1009 52.7777 71.012V36.6857H46.4826V29.4591H69.6585V36.6857H63.8151Z" fill="#732A2A"/>
<g clip-path="url(#clip1)">
<path d="M170.454 182.384C159.423 167.886 162.5 140.442 162.5 137.5L182.116 151.182C198.295 149.501 221.449 142.105 219.936 151.182C218.424 160.259 224.769 194.045 226.87 205.706L219.936 241.951L182.116 235.963C178.229 219.574 172.592 185.193 170.454 182.384Z" fill="#DFB6B6" stroke="#440F0F" stroke-width="3" stroke-linecap="round" stroke-linejoin="round"/>
<path d="M89.857 235.687C96.4969 215.63 97.6819 210.347 105.62 201.942C113.558 193.537 167.973 173.118 167.973 173.118L159.185 193.537L162.358 244.455L165.532 304H80.057C79.4874 296.333 83.2172 255.744 89.857 235.687Z" fill="#A46060" stroke="#440F0F" stroke-width="3" stroke-linecap="round" stroke-linejoin="round"/>
<path d="M165.178 304L157.892 224.961L170.224 203.143L177.509 204.94L194.024 222.651L199.609 224.961L227.537 192.362L222.923 222.651C221.223 224.362 220.864 236.5 227.537 236.5C234.094 236.5 229.156 290.738 227.537 304H165.178Z" fill="#F4B9B9" stroke="#440F0F" stroke-width="3" stroke-linecap="round" stroke-linejoin="round"/>
<path d="M292.808 209.502C283.615 196.818 273.235 194.807 267.203 192.252L235.201 182L233 304H311C310.185 299.244 307.528 261.909 303.42 246.477C298.285 227.187 304.301 225.357 292.808 209.502Z" fill="#A46060" stroke="#440F0F" stroke-width="3" stroke-linecap="round" stroke-linejoin="round"/>
<path d="M162.081 180.392C159.885 184.641 155.492 194.25 155.492 198.7C155.492 203.149 156.468 209.669 156.957 212.373" stroke="#440F0F" stroke-width="3" stroke-linecap="round" stroke-linejoin="round"/>
<path d="M243.337 204.957C245.858 203.103 251.584 199.487 254.317 199.858C257.734 200.322 258.71 202.176 259.198 204.03" stroke="#440F0F" stroke-width="3" stroke-linecap="round" stroke-linejoin="round"/>
<path d="M238.456 184.795C239.758 187.498 242.507 193.323 243.093 194.992" stroke="#440F0F" stroke-width="3" stroke-linecap="round" stroke-linejoin="round"/>
<path d="M218.936 234.621C221.864 230.063 229.038 220.252 234.309 217.471" stroke="#440F0F" stroke-width="3" stroke-linecap="round" stroke-linejoin="round"/>
<path d="M177.399 195.919C175.252 192.952 172.438 180.16 171.299 174.134C170.242 173.516 167.785 173.207 166.419 176.915C164.711 181.55 162.759 195.919 162.759 205.884C162.759 215.849 157.39 220.484 162.759 218.398C168.127 216.312 171.299 205.884 174.959 204.03C178.619 202.176 178.619 204.725 183.744 208.896C188.868 213.068 189.6 216.312 193.26 218.398C196.92 220.484 198.384 220.715 202.045 220.484C205.705 220.252 218.393 202.176 221.078 200.09C223.762 198.004 224.25 201.944 222.298 208.896C220.346 215.849 213.513 223.496 217.661 223.728C221.81 223.96 226.69 211.446 228.642 195.919C230.204 183.497 226.364 170.504 224.25 165.56C223.762 166.95 222.688 171.168 222.298 176.915C221.81 184.099 215.221 203.103 211.073 205.884C206.925 208.665 200.336 217.008 198.384 218.398C196.432 219.789 192.04 210.519 189.6 207.506C187.16 204.493 180.083 199.626 177.399 195.919Z" fill="#D89C9C" stroke="#440F0F" stroke-width="3" stroke-linecap="round" stroke-linejoin="round"/>
<path d="M236.569 181.943C234.446 179.628 228.126 175.017 225.232 173C226.277 177.121 228.368 186.888 228.368 192.991C228.368 200.618 224.026 217.19 218.719 233.235C214.474 246.071 218 289 218 304H241.398C241.398 289.445 234.398 234.602 234.398 229.552C234.398 223.239 243.082 218.505 245.976 216.664C248.292 215.191 244.207 211.666 241.876 210.088C242.76 209.299 245.832 207.352 251.042 205.879C257.555 204.038 257.555 212.718 260.208 210.088C262.861 207.457 258.037 196.41 257.555 195.358C257.072 194.306 239.222 184.836 236.569 181.943Z" fill="#732A2A" stroke="#440F0F" stroke-width="3" stroke-linecap="round" stroke-linejoin="round"/>
<path d="M233.088 200.322C234.471 201.172 237.627 203.149 239.189 204.262" stroke="#440F0F" stroke-width="3" stroke-linecap="round" stroke-linejoin="round"/>
<path d="M199.38 232.683C198.321 245.347 196.391 273.575 196 283.5" stroke="#440F0F" stroke-width="3" stroke-linecap="round" stroke-linejoin="round"/>
<ellipse cx="208.855" cy="240.303" rx="2.44012" ry="2.31748" fill="#A66464" stroke="#440F0F" stroke-width="3" stroke-linecap="round" stroke-linejoin="round"/>
<ellipse cx="207.391" cy="255.598" rx="2.44012" ry="2.31748" fill="#A66464" stroke="#440F0F" stroke-width="3" stroke-linecap="round" stroke-linejoin="round"/>
<ellipse cx="204.95" cy="273.212" rx="2.44012" ry="2.31748" fill="#A66464" stroke="#440F0F" stroke-width="3" stroke-linecap="round" stroke-linejoin="round"/>
<path d="M155.057 181.943C157.18 179.628 163.499 175.017 166.394 173C165.349 177.121 163.258 186.888 163.258 192.991C163.258 200.618 167.6 217.19 172.907 233.235C177.152 246.071 173.626 289 173.626 304H150.228C150.228 289.445 157.228 234.602 157.228 229.552C157.228 223.239 148.544 218.505 145.65 216.664C143.334 215.191 147.418 211.666 149.75 210.088C148.866 209.299 145.794 207.352 140.584 205.879C134.071 204.038 134.071 212.718 131.418 210.088C128.764 207.457 133.589 196.41 134.071 195.358C134.554 194.306 152.404 184.836 155.057 181.943Z" fill="#732A2A" stroke="#440F0F" stroke-width="3" stroke-linecap="round" stroke-linejoin="round"/>
<path d="M162 196C157.852 198.472 156.099 205.017 152 206.5C146.876 208.354 139.708 213 138 213" stroke="#440F0F" stroke-width="3" stroke-linecap="round" stroke-linejoin="round"/>
</g>
<path d="M75.3988 251.349C76.0314 257.521 73.3411 275.922 81.08 284.874C88.8189 293.825 90.2085 303.915 97.6661 303.151C105.124 302.386 105.548 299.907 108.908 291.766C114.985 277.041 108.205 254.734 103.546 239.454C100.588 228.833 96.1962 213.681 96.084 212.587C95.9357 211.141 91.5866 195.366 91.3889 193.437C91.1913 191.509 91.2286 187.12 90.9815 184.709C90.7344 182.298 86.4202 173.482 85.7898 172.085C85.1593 170.688 81.2104 162.031 79.0647 163.517C77.43 164.649 74.0974 166.462 66.9223 161.005L62.5105 158.88C60.4829 158.113 58.0226 157.878 56.675 158.991C55.3273 160.103 54.029 161.698 55.191 163.528L58.5782 168.053C58.0961 168.102 56.7484 169.215 56.4145 170.711C56.0806 172.207 55.9443 175.632 55.1776 177.659C54.411 179.687 53.2116 182.246 52.8282 183.26C52.4449 184.273 51.4805 184.372 51.2949 187.315C51.1092 190.257 51.5914 190.208 52.8029 192.52C54.0143 194.832 55.6585 196.612 57.8958 204.179C58.583 206.503 65.1405 208.309 66.8835 211.053C68.6266 213.798 72.4092 222.181 72.8046 226.038L75.3988 251.349Z" fill="#C39393" stroke="#440F0F" stroke-width="3" stroke-linecap="round"/>
<path d="M80.1497 339.933C71.9241 333.237 72.2476 262.837 72.2476 262.837L110.561 244.334C118.258 265.493 129.879 330.815 121.98 355.75C114.082 380.686 88.3753 346.629 80.1497 339.933Z" fill="#A46060" stroke="#440F0F" stroke-width="3" stroke-linecap="round"/>
<path d="M104.669 235.891C93.8121 247.312 78.4602 240.085 68.5385 231.552L71.4954 260.401C72.6169 271.344 96.0069 273.973 106.491 268.375C116.975 262.777 106.991 229.119 105.193 226.287C103.754 224.022 100.589 222.236 99.3135 222.869C103.059 221.815 107.845 232.55 104.669 235.891Z" fill="#732A2A" stroke="#440F0F" stroke-width="3" stroke-linecap="round"/>
<path d="M95.672 120.39C107.065 94.9788 103.451 75.8103 105.51 72.9187C107.457 70.1843 114.675 70.9237 117.318 72.1086C122.4 74.3871 130.243 75.6142 128.38 83.172C126.518 90.7297 117.623 108.868 100.381 150.731C83.1385 192.594 57.0022 230.47 40.6365 263.571C24.2708 296.671 30.9519 307.296 29.5279 310.472C28.1038 313.649 21.5753 321.404 10.3371 320.943C-0.901007 320.483 8.97962 303.549 12.3974 295.926C15.8151 288.302 22.9142 257.151 43.1572 227.315C63.4003 197.479 84.2795 145.802 95.672 120.39Z" fill="#765757" stroke="#440F0F" stroke-width="3" stroke-linecap="round"/>
<path d="M88.4025 29.3893C84.4418 30.0551 73.2649 32.5214 74.9516 35.5665C76.6383 38.6116 93.5632 42.3846 99.662 45.1188C107.222 48.5084 107.005 49.1612 104.842 55.6463L104.788 55.8095C102.575 62.4472 99.3763 67.8799 106.934 69.7423C114.492 71.6047 134.536 81.354 141.875 85.4071C146.296 87.8488 152.932 94.4856 157.715 99.7133C160.112 102.333 163.935 103.173 166.585 100.809C169.619 98.1026 173.195 93.8299 175.94 87.7087C179.079 80.707 181.171 72.271 182.368 65.9589C183.115 62.0158 180.545 58.3107 176.674 57.2515C169.691 55.3407 160.774 52.6795 155.984 50.5321C147.725 46.8295 147.309 44.354 139.401 41.5715C131.493 38.7891 93.3535 28.5571 88.4025 29.3893Z" fill="#FFE3E3" stroke="#440F0F" stroke-width="3" stroke-linecap="round"/>
<path d="M161.899 57.7615C159.781 64.1874 154.423 78.52 149.936 84.4434" stroke="#440F0F" stroke-width="3" stroke-linecap="round"/>
<path d="M67.9788 197.434C67.1678 197.128 62.4002 195.149 60.3892 194.543C60.3892 194.543 55.9126 195.002 55.9002 189.977C56.5891 186.89 59.2021 178.357 59.2021 178.357C59.507 178.163 60.3964 177.65 61.5141 177.145L58.8349 169.571L61.9228 166.872L63.4174 159.552C64.3493 160.849 68.3666 162.173 72.158 164.015C76.7084 166.227 81.1189 168.899 81.9619 169.345C83.5072 170.161 82.9877 174.599 80.7745 176.775C80.5641 176.982 80.2468 177.043 79.8486 176.99C81.8189 177.529 83.8388 180.006 84.6439 181.251C86.2387 182.549 83.4071 188.199 81.8123 186.9C80.728 186.018 78.19 184.836 78.19 184.836C78.19 184.836 82.0458 189.179 82.1439 190.135C82.2921 191.582 80.6105 194.191 79.6462 194.289C78.8747 194.368 75.6384 193.218 74.5917 192.513C75.1727 193.428 73.3815 197.855 72.516 198.918C71.6505 199.981 68.9925 197.818 67.9788 197.434Z" fill="#C39393"/>
<path d="M59.7422 194.035C61.7532 194.641 67.1677 197.128 67.9787 197.434C68.9925 197.818 71.6505 199.981 72.516 198.918C73.3815 197.855 75.1727 193.428 74.5916 192.513C74.0106 191.598 69.7229 187.795 68.1775 186.979C66.6322 186.163 59.2359 184.342 58.7043 183.909C58.1727 183.476 56.3429 184.639 56.1078 187.099M75.7453 192.395C76.792 193.099 78.8747 194.368 79.6461 194.289C80.6105 194.191 82.2921 191.582 82.1438 190.135C82.0458 189.179 78.1899 184.836 78.1899 184.836M59.202 178.357C59.507 178.163 60.3964 177.65 61.514 177.145C62.9112 176.515 65.322 176.268 65.8536 176.701C66.3852 177.133 73.1127 180.971 74.7074 182.269C75.2479 182.709 77.3979 184.273 78.1899 184.836M78.1899 184.836C78.1899 184.836 80.728 186.018 81.8122 186.9C83.407 188.199 86.2386 182.549 84.6438 181.251C83.786 179.924 81.5486 177.199 79.4618 176.909M63.4174 159.552C64.3493 160.849 68.3665 162.173 72.158 164.015C76.7083 166.227 81.1188 168.899 81.9618 169.345C83.5072 170.161 82.9876 174.599 80.7744 176.775C80.4998 177.045 80.0429 177.067 79.4618 176.909M61.9227 166.872C63.2095 166.74 67.0817 168.514 68.3126 169.282C69.4428 169.852 76.2955 176.051 79.4618 176.909" stroke="#440F0F" stroke-width="3" stroke-linecap="round"/>
<path d="M83.4736 155.686C85.3372 163.336 85.3486 173.979 86.0735 181.053C86.4351 184.58 86.7881 206.916 90.3595 202.528L95.8432 175.025L88.83 155.639L83.4736 155.686Z" fill="#C39393"/>
<path d="M92.7443 196.81C92.5404 194.82 93.9419 190.801 93.687 188.314C93.4321 185.827 94.7589 179.157 95.4988 176.568C96.7655 172.136 87.5552 156.496 87.3378 155.792C86.5855 153.356 84.4073 153.917 82.9123 156.748C80.3868 161.531 88.4662 171.187 85.9885 175.03C84.2538 177.721 85.2064 179.131 85.8182 185.1" stroke="#440F0F" stroke-width="3" stroke-linecap="round"/>
<g clip-path="url(#clip2)">
<path d="M313.704 334.137C313.443 327.939 317.233 309.732 310.045 300.332C302.858 290.932 302.076 280.777 294.586 281.093C287.096 281.408 286.524 283.858 282.681 291.782C275.731 306.117 281.16 328.79 284.894 344.322C287.209 355.101 290.684 370.489 290.73 371.588C290.791 373.041 294.186 389.048 294.267 390.985C294.349 392.922 294.048 397.301 294.15 399.723C294.252 402.144 298.03 411.202 298.575 412.635C299.121 414.067 302.543 422.946 304.774 421.591C306.474 420.559 309.909 418.949 316.744 424.827L321.02 427.214C322.998 428.101 325.44 428.483 326.852 427.453C328.264 426.424 329.655 424.91 328.605 423.013L325.496 418.293C325.98 418.272 327.392 417.243 327.815 415.77C328.238 414.296 328.58 410.886 329.467 408.908C330.354 406.93 331.704 404.448 332.148 403.459C332.591 402.47 333.56 402.429 333.922 399.503C334.284 396.577 333.799 396.597 332.729 394.217C331.658 391.836 330.124 389.96 328.345 382.273C327.798 379.912 321.361 377.716 319.786 374.872C318.211 372.027 314.938 363.433 314.775 359.558L313.704 334.137Z" fill="#C39393" stroke="#440F0F" stroke-width="3" stroke-linecap="round"/>
<path d="M314.278 245.428C322.087 252.606 317.539 322.859 317.539 322.859L278.185 339.03C271.771 317.447 264.091 251.545 273.472 227.129C282.853 202.712 306.469 238.25 314.278 245.428Z" fill="#A46060" stroke="#440F0F" stroke-width="3" stroke-linecap="round"/>
<path d="M285.608 463.644C272.711 488.325 275.168 507.676 272.939 510.439C270.831 513.052 263.671 511.88 261.104 510.539C256.168 507.96 248.413 506.264 250.725 498.832C253.038 491.399 263.005 473.828 282.729 433.075C302.453 392.322 330.815 356.083 349.137 324.024C367.46 291.966 361.429 280.959 363.041 277.874C364.653 274.788 371.635 267.439 382.825 268.574C394.016 269.708 383.137 286.018 379.267 293.422C375.398 300.827 366.443 331.496 344.445 360.063C322.448 388.631 298.505 438.962 285.608 463.644Z" fill="#765757" stroke="#440F0F" stroke-width="3" stroke-linecap="round"/>
</g>
<path d="M169.776 165.635C166.515 162.654 164.458 154.688 163.837 151.077C162.284 147.04 159.178 136.053 159.178 124.407C159.178 109.849 159.527 93.8933 163.837 88.6525C168.146 83.4116 165.001 77.8213 177.463 77.8213H209.491C213.8 77.8213 221.952 92.7287 224.747 99.2507C227.543 105.773 229.057 136.519 228.125 146.186C227.379 153.919 225.563 161.443 224.747 164.238C223.816 166.14 221.044 171.202 217.41 176.233C212.868 182.523 205.997 183.454 198.543 183.221C191.089 182.988 173.853 169.362 169.776 165.635Z" fill="#DFB6B6" stroke="#440F0F" stroke-width="3" stroke-linecap="round" stroke-linejoin="round"/>
<path d="M204.599 79.6851C204.832 80.8885 204.203 83.3886 199.824 83.7613C194.753 84.1929 188.282 97.9191 187.173 103.733C186.974 105.573 186.949 106.282 187.013 104.958C187.03 104.607 187.085 104.195 187.173 103.733C187.692 98.9419 189.392 86.4874 193.768 82.3637C199.824 76.657 189.109 81.1991 187.013 83.179C185.314 84.7838 180.86 96.8707 179.234 102.944C178.849 105.525 178.628 107.009 178.628 106.006C178.628 105.454 178.853 104.363 179.234 102.944C179.967 98.0303 181.293 89.1408 182.82 85.8577C185.15 80.8497 183.053 74.6771 181.073 83.7613C179.671 90.1946 178.561 98.7891 178.198 103.63C178.272 106.057 178.305 107.61 178.162 107.287C178.026 106.981 178.049 105.624 178.198 103.63C178.032 98.1715 177.66 88.294 178.628 85.3918C180.025 81.1991 174.319 85.6248 171.64 89.0022C168.961 92.3797 166.166 95.7571 163.487 97.2712C160.519 98.9488 167.797 91.6809 168.029 87.0223C168.262 82.3637 163.138 89.5845 161.507 95.4078C160.366 99.484 163.471 102.674 163.487 107.287C163.504 111.862 160.103 109.704 159.528 114.275C158.538 122.143 162.744 139.386 161.275 137.451C163.216 140.285 165.351 146.119 165.351 148.181C165.351 150.242 162.866 155.785 161.624 158.298C158.824 157.174 159.47 149.979 157.748 152.677C156.025 155.375 150.641 152.003 153.01 152.003C155.379 152.003 155.809 148.63 153.01 148.181C150.21 147.731 149.134 145.258 143.319 140.536C137.505 135.814 145.473 127.495 143.319 129.294C141.166 131.093 138.797 135.814 138.797 129.294C138.797 122.774 141.596 119.626 146.334 112.656C150.124 107.08 152.364 96.1939 153.01 92.1468C156.58 85.4471 165.164 72.8997 170.941 70.7174C176.997 68.2716 180.491 66.6411 188.178 66.6411C195.864 66.6411 207.394 70.135 207.744 74.0948C207.857 75.3824 211.233 73.4624 216.595 78.0546C220.81 81.6644 227.052 91.8381 228.474 93.5443C230.869 95.7371 236.399 102.548 239.355 112.251C243.051 124.38 239.971 126.847 247.362 128.491C254.753 130.136 252.905 133.425 244.693 133.425C236.481 133.425 236.892 135.07 240.792 137.125C244.693 139.181 237.507 136.509 235.454 136.509C233.401 136.509 231.143 144.32 231.964 148.843C232.786 153.365 232.642 154.572 228.125 154.572V129.415C228.125 129.415 228.04 122.934 227.31 117.303C227.31 102.978 223.663 97.2977 220.205 90.1669C214.615 78.6369 204.599 79.6851 204.599 79.6851Z" fill="#732A2A"/>
<path d="M187.013 104.958C187.03 104.607 187.085 104.195 187.173 103.733C187.692 98.9419 189.392 86.4874 193.768 82.3637C199.824 76.657 189.109 81.1991 187.013 83.179C185.314 84.7838 180.86 96.8707 179.234 102.944C178.849 105.525 178.628 107.009 178.628 106.006C178.628 105.454 178.853 104.363 179.234 102.944C179.967 98.0303 181.293 89.1408 182.82 85.8577C185.15 80.8497 183.053 74.6771 181.073 83.7613C179.671 90.1946 178.561 98.789 178.198 103.629C178.272 106.057 178.305 107.61 178.162 107.287C178.026 106.981 178.049 105.624 178.198 103.629C178.561 98.789 179.671 90.1946 181.073 83.7613C183.053 74.6771 185.15 80.8497 182.82 85.8577C181.293 89.1408 179.967 98.0303 179.234 102.944C180.86 96.8707 185.314 84.7838 187.013 83.179C189.109 81.1991 199.824 76.657 193.768 82.3637C189.392 86.4874 187.692 98.9419 187.173 103.733C186.974 105.573 186.949 106.282 187.013 104.958Z" fill="#732A2A"/>
<path d="M204.599 79.6851C204.832 80.8885 204.203 83.3886 199.824 83.7613C194.35 84.2272 187.246 100.183 187.013 104.958C186.78 109.733 187.712 88.0705 193.768 82.3637C199.824 76.657 189.109 81.1991 187.013 83.179C184.917 85.1589 178.628 103.094 178.628 106.006C178.628 108.918 180.491 90.8656 182.82 85.8577C185.15 80.8497 183.053 74.6771 181.073 83.7613C179.094 92.8455 177.696 106.239 178.162 107.287C178.628 108.335 177.23 89.5845 178.628 85.3918C180.025 81.1991 174.319 85.6248 171.64 89.0022C168.961 92.3797 166.166 95.7571 163.487 97.2712C160.519 98.9488 167.797 91.6809 168.029 87.0223C168.262 82.3637 163.138 89.5845 161.507 95.4078M228.125 129.415V154.572C232.642 154.572 232.786 153.365 231.964 148.843C231.143 144.32 233.401 136.509 235.454 136.509C237.507 136.509 244.693 139.181 240.792 137.125C236.892 135.07 236.481 133.425 244.693 133.425C252.905 133.425 254.753 130.136 247.362 128.491C239.971 126.847 243.051 124.38 239.355 112.251C236.399 102.548 230.869 95.7371 228.474 93.5443C227.052 91.8381 220.81 81.6644 216.595 78.0546C211.233 73.4624 207.857 75.3824 207.744 74.0948C207.394 70.135 195.864 66.6411 188.178 66.6411C180.491 66.6411 176.997 68.2716 170.941 70.7174C165.164 72.8997 156.58 85.4471 153.01 92.1468C152.364 96.1939 150.124 107.08 146.334 112.656C141.596 119.626 138.797 122.774 138.797 129.294C138.797 135.814 141.166 131.093 143.319 129.294C145.473 127.495 137.505 135.814 143.319 140.536C149.134 145.258 150.21 147.731 153.01 148.181C155.809 148.63 155.379 152.003 153.01 152.003C150.641 152.003 156.025 155.375 157.748 152.677C159.47 149.979 158.824 157.174 161.624 158.298C162.866 155.785 164.204 150.242 164.204 148.181" stroke="#440F0F" stroke-width="3"/>
<path d="M175.134 108.102C172.805 108.195 169.738 113.187 168.495 115.672C170.242 113.886 174.226 110.221 176.182 109.848C178.628 109.383 179.094 111.595 182.821 112.993C185.002 113.811 196.165 117.369 192.953 114.158C191.322 112.527 178.046 107.985 175.134 108.102Z" fill="#732A2A" stroke="#440F0F" stroke-width="3"/>
<path d="M220.205 106.588C219.274 106.681 213.683 110.587 211.005 112.528C211.005 112.994 211.354 113.925 212.752 113.925C214.499 113.925 216.944 110.664 220.205 110.199C223.466 109.733 225.563 114.158 225.446 112.528C225.33 110.897 221.37 106.472 220.205 106.588Z" fill="#732A2A" stroke="#440F0F" stroke-width="3"/>
<path d="M187.877 142.342C187.038 142.901 178.56 153.057 179.142 153.872C179.724 154.687 181.052 153.499 183.568 152.009C186.712 150.145 192.768 148.282 199.174 148.282C205.579 148.282 205.929 147.234 211.985 148.282C218.041 149.33 221.768 156.201 221.768 153.872C221.768 151.543 217.109 141.061 214.897 141.061C212.684 141.061 204.182 143.507 200.804 143.39C197.427 143.274 188.925 141.643 187.877 142.342Z" fill="#D1A3A3"/>
<path d="M170.291 157.017C167.682 153.29 165.477 147.311 164.7 144.788C164.312 147.195 163.769 153.01 164.7 157.017C165.865 162.025 170.291 169.012 176.696 171.225C183.102 173.438 183.568 178.097 187.877 180.775C192.186 183.454 207.676 188.811 213.382 182.755C219.089 176.699 220.836 175.534 224.563 169.012C228.29 162.49 227.824 144.788 227.824 147.234C227.824 149.679 225.029 155.153 222.7 157.017C220.37 158.88 216.76 163.888 216.178 167.964C215.595 172.04 210.587 177.048 205.463 178.097C200.339 179.145 189.391 172.623 186.596 169.012C183.801 165.402 173.552 161.675 170.291 157.017Z" fill="#D1A3A3"/>
<path d="M164.701 144.788C164.312 147.195 162.672 151.31 164.701 157.017C166.729 162.724 169.427 168.547 175.367 170.294C181.306 172.041 183.568 178.097 187.877 180.776C192.186 183.454 207.676 188.812 213.383 182.756C219.089 176.699 220.836 175.535 224.563 169.013C228.29 162.491 227.824 144.788 227.824 147.234" stroke="#440F0F" stroke-width="3" stroke-linecap="round" stroke-linejoin="round"/>
<path d="M59 91L42 111L59 131L76 111L59 91Z" fill="#FD7072"/>
<path d="M328.185 543.314V508.508C328.185 499.418 332.382 494.874 340.775 494.874C342.469 494.874 344.605 495.128 347.183 495.636V503.37C345.922 503.032 344.849 502.862 343.965 502.862C342.177 502.862 340.944 503.361 340.267 504.358C339.57 505.356 339.222 506.899 339.222 508.988V543.314H345.517V550.541H322.341V543.314H328.185Z" fill="#732A2A"/>
<g clip-path="url(#clip3)">
<path d="M221.546 397.616C232.577 412.114 229.5 439.558 229.5 442.5L209.884 428.818C193.705 430.499 170.551 437.895 172.064 428.818C173.576 419.741 167.231 385.955 165.13 374.294L172.064 338.049L209.884 344.037C213.771 360.426 219.408 394.807 221.546 397.616Z" fill="#DFB6B6" stroke="#440F0F" stroke-width="3" stroke-linecap="round" stroke-linejoin="round"/>
<path d="M302.143 344.313C295.503 364.37 294.318 369.653 286.38 378.058C278.442 386.463 224.027 406.882 224.027 406.882L232.815 386.463L229.642 335.545L226.468 276H311.943C312.513 283.667 308.783 324.256 302.143 344.313Z" fill="#A46060" stroke="#440F0F" stroke-width="3" stroke-linecap="round" stroke-linejoin="round"/>
<path d="M226.822 276L234.108 355.039L221.776 376.857L214.491 375.06L197.976 357.349L192.391 355.039L164.463 387.638L169.077 357.349C170.777 355.638 171.136 343.5 164.463 343.5C157.906 343.5 162.844 289.262 164.463 276H226.822Z" fill="#F4B9B9" stroke="#440F0F" stroke-width="3" stroke-linecap="round" stroke-linejoin="round"/>
<path d="M99.1916 370.498C108.385 383.182 118.765 385.193 124.797 387.748L156.799 398L159 276H81C81.815 280.756 84.4721 318.091 88.5799 333.523C93.7147 352.813 87.6995 354.643 99.1916 370.498Z" fill="#A46060" stroke="#440F0F" stroke-width="3" stroke-linecap="round" stroke-linejoin="round"/>
<path d="M229.919 399.608C232.115 395.359 236.508 385.75 236.508 381.3C236.508 376.851 235.532 370.331 235.043 367.627" stroke="#440F0F" stroke-width="3" stroke-linecap="round" stroke-linejoin="round"/>
<path d="M148.663 375.043C146.142 376.897 140.416 380.513 137.683 380.142C134.266 379.678 133.29 377.824 132.802 375.97" stroke="#440F0F" stroke-width="3" stroke-linecap="round" stroke-linejoin="round"/>
<path d="M153.544 395.205C152.242 392.502 149.493 386.677 148.907 385.008" stroke="#440F0F" stroke-width="3" stroke-linecap="round" stroke-linejoin="round"/>
<path d="M173.064 345.379C170.136 349.937 162.962 359.748 157.691 362.529" stroke="#440F0F" stroke-width="3" stroke-linecap="round" stroke-linejoin="round"/>
<path d="M214.601 384.081C216.748 387.048 219.562 399.84 220.701 405.866C221.758 406.484 224.215 406.793 225.581 403.085C227.289 398.45 229.241 384.081 229.241 374.116C229.241 364.151 234.61 359.516 229.241 361.602C223.873 363.688 220.701 374.116 217.041 375.97C213.381 377.824 213.381 375.275 208.256 371.104C203.132 366.932 202.4 363.688 198.74 361.602C195.08 359.516 193.616 359.285 189.955 359.516C186.295 359.748 173.607 377.824 170.922 379.91C168.238 381.996 167.75 378.056 169.702 371.104C171.654 364.151 178.487 356.504 174.339 356.272C170.19 356.04 165.31 368.554 163.358 384.081C161.796 396.503 165.636 409.496 167.75 414.44C168.238 413.05 169.312 408.832 169.702 403.085C170.19 395.901 176.779 376.897 180.927 374.116C185.075 371.335 191.664 362.992 193.616 361.602C195.568 360.211 199.96 369.481 202.4 372.494C204.84 375.507 211.917 380.374 214.601 384.081Z" fill="#D89C9C" stroke="#440F0F" stroke-width="3" stroke-linecap="round" stroke-linejoin="round"/>
<path d="M155.431 398.057C157.554 400.372 163.874 404.983 166.768 407C165.723 402.879 163.632 393.112 163.632 387.009C163.632 379.382 167.974 362.81 173.281 346.765C177.526 333.929 174 291 174 276H150.602C150.602 290.555 157.602 345.398 157.602 350.448C157.602 356.761 148.918 361.495 146.024 363.336C143.708 364.809 147.793 368.334 150.124 369.912C149.24 370.701 146.168 372.648 140.958 374.121C134.445 375.962 134.445 367.282 131.792 369.912C129.139 372.543 133.963 383.59 134.445 384.642C134.928 385.694 152.778 395.164 155.431 398.057Z" fill="#732A2A" stroke="#440F0F" stroke-width="3" stroke-linecap="round" stroke-linejoin="round"/>
<path d="M158.912 379.678C157.529 378.828 154.373 376.851 152.811 375.738" stroke="#440F0F" stroke-width="3" stroke-linecap="round" stroke-linejoin="round"/>
<path d="M192.62 347.317C193.679 334.653 195.609 306.425 196 296.5" stroke="#440F0F" stroke-width="3" stroke-linecap="round" stroke-linejoin="round"/>
<ellipse cx="183.145" cy="339.697" rx="2.44012" ry="2.31748" transform="rotate(-180 183.145 339.697)" fill="#A66464" stroke="#440F0F" stroke-width="3" stroke-linecap="round" stroke-linejoin="round"/>
<ellipse cx="184.609" cy="324.402" rx="2.44012" ry="2.31748" transform="rotate(-180 184.609 324.402)" fill="#A66464" stroke="#440F0F" stroke-width="3" stroke-linecap="round" stroke-linejoin="round"/>
<ellipse cx="187.05" cy="306.788" rx="2.44012" ry="2.31748" transform="rotate(-180 187.05 306.788)" fill="#A66464" stroke="#440F0F" stroke-width="3" stroke-linecap="round" stroke-linejoin="round"/>
<path d="M236.943 398.057C234.82 400.372 228.501 404.983 225.606 407C226.651 402.879 228.742 393.112 228.742 387.009C228.742 379.382 224.4 362.81 219.093 346.765C214.848 333.929 218.374 291 218.374 276H241.772C241.772 290.555 234.772 345.398 234.772 350.448C234.772 356.761 243.456 361.495 246.35 363.336C248.666 364.809 244.582 368.334 242.25 369.912C243.134 370.701 246.206 372.648 251.416 374.121C257.929 375.962 257.929 367.282 260.582 369.912C263.236 372.543 258.411 383.59 257.929 384.642C257.446 385.694 239.596 395.164 236.943 398.057Z" fill="#732A2A" stroke="#440F0F" stroke-width="3" stroke-linecap="round" stroke-linejoin="round"/>
<path d="M230 384C234.148 381.528 235.901 374.983 240 373.5C245.124 371.646 252.292 367 254 367" stroke="#440F0F" stroke-width="3" stroke-linecap="round" stroke-linejoin="round"/>
</g>
<path d="M316.601 328.651C315.969 322.479 318.659 304.078 310.92 295.126C303.181 286.175 301.791 276.085 294.334 276.849C286.876 277.614 286.452 280.093 283.092 288.234C277.015 302.959 283.795 325.266 288.454 340.546C291.412 351.167 295.804 366.319 295.916 367.413C296.064 368.859 300.413 384.634 300.611 386.563C300.809 388.491 300.771 392.88 301.018 395.291C301.266 397.702 305.58 406.518 306.21 407.915C306.841 409.312 310.79 417.969 312.935 416.483C314.57 415.351 317.903 413.538 325.078 418.995L329.49 421.12C331.517 421.887 333.977 422.122 335.325 421.009C336.673 419.897 337.971 418.302 336.809 416.472L333.422 411.947C333.904 411.898 335.252 410.785 335.586 409.289C335.919 407.793 336.056 404.368 336.822 402.341C337.589 400.313 338.788 397.754 339.172 396.74C339.555 395.727 340.519 395.628 340.705 392.685C340.891 389.743 340.409 389.792 339.197 387.48C337.986 385.168 336.341 383.388 334.104 375.821C333.417 373.497 326.86 371.691 325.116 368.947C323.373 366.202 319.591 357.819 319.195 353.962L316.601 328.651Z" fill="#C39393" stroke="#440F0F" stroke-width="3" stroke-linecap="round"/>
<path d="M311.85 240.067C320.076 246.763 319.752 317.163 319.752 317.163L281.439 335.666C273.742 314.507 262.121 249.185 270.02 224.25C277.918 199.314 303.625 233.371 311.85 240.067Z" fill="#A46060" stroke="#440F0F" stroke-width="3" stroke-linecap="round"/>
<path d="M287.331 344.109C298.188 332.688 313.54 339.915 323.462 348.448L320.505 319.599C319.383 308.656 295.993 306.027 285.509 311.625C275.025 317.223 285.009 350.881 286.807 353.713C288.246 355.978 291.411 357.764 292.687 357.131C288.941 358.185 284.155 347.45 287.331 344.109Z" fill="#732A2A" stroke="#440F0F" stroke-width="3" stroke-linecap="round"/>
<path d="M296.328 459.61C284.935 485.021 288.549 504.19 286.49 507.081C284.543 509.816 277.325 509.076 274.682 507.891C269.6 505.613 261.757 504.386 263.62 496.828C265.482 489.27 274.377 471.132 291.619 429.269C308.862 387.406 334.998 349.53 351.364 316.429C367.729 283.329 361.048 272.704 362.472 269.528C363.896 266.351 370.425 258.596 381.663 259.057C392.901 259.517 383.02 276.451 379.603 284.074C376.185 291.698 369.086 322.849 348.843 352.685C328.6 382.521 307.72 434.198 296.328 459.61Z" fill="#765757" stroke="#440F0F" stroke-width="3" stroke-linecap="round"/>
<path d="M303.597 550.611C307.558 549.945 318.735 547.479 317.048 544.433C315.362 541.388 298.437 537.615 292.338 534.881C284.778 531.492 284.995 530.839 287.158 524.354L287.212 524.19C289.425 517.553 292.624 512.12 285.066 510.258C277.508 508.395 257.464 498.646 250.125 494.593C245.704 492.151 239.068 485.514 234.285 480.287C231.888 477.667 228.065 476.827 225.415 479.191C222.381 481.897 218.805 486.17 216.06 492.291C212.921 499.293 210.829 507.729 209.632 514.041C208.885 517.984 211.455 521.689 215.326 522.749C222.309 524.659 231.226 527.32 236.016 529.468C244.275 533.171 244.691 535.646 252.599 538.428C260.507 541.211 298.646 551.443 303.597 550.611Z" fill="#FFE3E3" stroke="#440F0F" stroke-width="3" stroke-linecap="round"/>
<path d="M230.101 522.239C232.219 515.813 237.577 501.48 242.064 495.557" stroke="#440F0F" stroke-width="3" stroke-linecap="round"/>
<path d="M324.021 382.566C324.832 382.872 329.6 384.851 331.611 385.457C331.611 385.457 336.087 384.998 336.1 390.023C335.411 393.11 332.798 401.643 332.798 401.643C332.493 401.837 331.604 402.35 330.486 402.855L333.165 410.429L330.077 413.128L328.583 420.448C327.651 419.151 323.633 417.827 319.842 415.985C315.292 413.773 310.881 411.101 310.038 410.655C308.493 409.839 309.012 405.401 311.226 403.225C311.436 403.018 311.753 402.957 312.151 403.01C310.181 402.471 308.161 399.994 307.356 398.749C305.761 397.451 308.593 391.801 310.188 393.1C311.272 393.982 313.81 395.164 313.81 395.164C313.81 395.164 309.954 390.821 309.856 389.865C309.708 388.418 311.389 385.809 312.354 385.711C313.125 385.632 316.362 386.782 317.408 387.487C316.827 386.572 318.618 382.145 319.484 381.082C320.349 380.019 323.007 382.182 324.021 382.566Z" fill="#C39393"/>
<path d="M332.258 385.965C330.247 385.359 324.832 382.872 324.021 382.566C323.008 382.182 320.35 380.019 319.484 381.082C318.619 382.145 316.827 386.572 317.408 387.487C317.989 388.402 322.277 392.205 323.822 393.021C325.368 393.837 332.764 395.658 333.296 396.091C333.827 396.524 335.657 395.361 335.892 392.901M316.255 387.605C315.208 386.901 313.125 385.632 312.354 385.711C311.39 385.809 309.708 388.418 309.856 389.865C309.954 390.821 313.81 395.164 313.81 395.164M332.798 401.643C332.493 401.837 331.604 402.35 330.486 402.855C329.089 403.485 326.678 403.732 326.146 403.299C325.615 402.867 318.887 399.029 317.293 397.731C316.752 397.291 314.602 395.727 313.81 395.164M313.81 395.164C313.81 395.164 311.272 393.982 310.188 393.1C308.593 391.801 305.761 397.451 307.356 398.749C308.214 400.076 310.451 402.801 312.538 403.091M328.583 420.448C327.651 419.151 323.633 417.827 319.842 415.985C315.292 413.773 310.881 411.101 310.038 410.655C308.493 409.839 309.012 405.401 311.226 403.225C311.5 402.955 311.957 402.933 312.538 403.091M330.077 413.128C328.79 413.26 324.918 411.486 323.687 410.718C322.557 410.148 315.704 403.949 312.538 403.091" stroke="#440F0F" stroke-width="3" stroke-linecap="round"/>
<path d="M308.526 424.314C306.663 416.664 306.651 406.021 305.926 398.947C305.565 395.42 305.212 373.084 301.64 377.472L296.157 404.975L303.17 424.361L308.526 424.314Z" fill="#C39393"/>
<path d="M299.256 383.19C299.46 385.18 298.058 389.199 298.313 391.686C298.568 394.173 297.241 400.843 296.501 403.432C295.235 407.864 304.445 423.504 304.662 424.208C305.414 426.644 307.593 426.083 309.088 423.252C311.613 418.469 303.534 408.813 306.012 404.97C307.746 402.279 306.794 400.869 306.182 394.9" stroke="#440F0F" stroke-width="3" stroke-linecap="round"/>
<g clip-path="url(#clip4)">
<path d="M78.2957 245.863C78.5568 252.061 74.767 270.268 81.9547 279.668C89.1424 289.068 89.924 299.223 97.414 298.907C104.904 298.592 105.476 296.142 109.319 288.218C116.269 273.883 110.84 251.21 107.106 235.678C104.791 224.899 101.316 209.511 101.27 208.412C101.209 206.959 97.8141 190.952 97.7325 189.015C97.651 187.078 97.9517 182.699 97.8497 180.277C97.7477 177.856 93.9703 168.798 93.4249 167.365C92.8794 165.933 89.4572 157.054 87.2261 158.409C85.5264 159.441 82.0911 161.051 75.2564 155.173L70.9801 152.786C69.0022 151.899 66.5604 151.517 65.1484 152.547C63.7364 153.576 62.3447 155.09 63.3949 156.987L66.5044 161.707C66.0201 161.728 64.6081 162.757 64.185 164.23C63.7619 165.704 63.4204 169.114 62.5334 171.092C61.6464 173.07 60.2956 175.552 59.8521 176.541C59.4087 177.53 58.4401 177.571 58.0782 180.497C57.7163 183.423 58.2006 183.403 59.2711 185.783C60.3416 188.164 61.876 190.04 63.6551 197.727C64.2016 200.088 70.6389 202.284 72.2141 205.128C73.7892 207.973 77.062 216.567 77.2251 220.442L78.2957 245.863Z" fill="#C39393" stroke="#440F0F" stroke-width="3" stroke-linecap="round"/>
<path d="M77.7217 334.572C69.9127 327.394 74.4607 257.141 74.4607 257.141L113.815 240.97C120.229 262.553 127.909 328.455 118.528 352.871C109.147 377.288 85.5306 341.75 77.7217 334.572Z" fill="#A46060" stroke="#440F0F" stroke-width="3" stroke-linecap="round"/>
<path d="M106.392 116.356C119.289 91.6746 116.832 72.3237 119.061 69.5609C121.169 66.9483 128.329 68.1195 130.896 69.4609C135.832 72.0403 143.587 73.7358 141.275 81.1682C138.962 88.6006 128.995 106.172 109.271 146.925C89.5475 187.678 61.1852 223.917 42.8625 255.976C24.5399 288.034 30.5713 299.041 28.9592 302.126C27.347 305.212 20.3649 312.561 9.17462 311.426C-2.01563 310.292 8.86344 293.982 12.7326 286.578C16.6017 279.173 25.5574 248.504 47.5546 219.937C69.5517 191.369 93.4947 141.038 106.392 116.356Z" fill="#765757" stroke="#440F0F" stroke-width="3" stroke-linecap="round"/>
</g>
<path d="M222.224 414.365C225.485 417.346 227.542 425.312 228.163 428.923C229.716 432.96 232.822 443.947 232.822 455.593C232.822 470.151 232.473 486.107 228.163 491.348C223.854 496.588 226.999 502.179 214.537 502.179H182.509C178.2 502.179 170.048 487.271 167.253 480.749C164.457 474.227 162.943 443.481 163.875 433.814C164.621 426.081 166.437 418.557 167.253 415.762C168.184 413.86 170.956 408.798 174.59 403.767C179.132 397.477 186.003 396.546 193.457 396.779C200.911 397.012 218.147 410.638 222.224 414.365Z" fill="#DFB6B6" stroke="#440F0F" stroke-width="3" stroke-linecap="round" stroke-linejoin="round"/>
<path d="M187.401 500.315C187.168 499.111 187.797 496.611 192.176 496.239C197.247 495.807 203.718 482.081 204.827 476.267C205.026 474.427 205.051 473.718 204.987 475.042C204.97 475.393 204.915 475.805 204.827 476.267C204.308 481.058 202.608 493.513 198.232 497.636C192.176 503.343 202.891 498.801 204.987 496.821C206.686 495.216 211.14 483.129 212.766 477.056C213.151 474.475 213.372 472.991 213.372 473.994C213.372 474.546 213.147 475.637 212.766 477.056C212.033 481.97 210.707 490.859 209.18 494.142C206.85 499.15 208.947 505.323 210.927 496.239C212.329 489.805 213.439 481.211 213.802 476.37C213.728 473.943 213.695 472.39 213.838 472.713C213.974 473.019 213.951 474.376 213.802 476.37C213.968 481.829 214.34 491.706 213.372 494.608C211.975 498.801 217.681 494.375 220.36 490.998C223.039 487.62 225.834 484.243 228.513 482.729C231.481 481.051 224.203 488.319 223.971 492.978C223.738 497.636 228.862 490.415 230.493 484.592C231.634 480.516 228.529 477.326 228.513 472.713C228.496 468.138 231.897 470.296 232.472 465.725C233.462 457.857 229.256 440.614 230.725 442.549C228.784 439.715 226.649 433.881 226.649 431.819C226.649 429.758 229.134 424.215 230.376 421.702C233.176 422.826 232.53 430.021 234.252 427.323C235.975 424.625 241.359 427.997 238.99 427.997C236.621 427.997 236.191 431.37 238.99 431.819C241.79 432.269 242.866 434.742 248.681 439.464C254.495 444.186 246.527 452.505 248.681 450.706C250.834 448.907 253.203 444.186 253.203 450.706C253.203 457.226 250.404 460.374 245.666 467.344C241.876 472.92 239.636 483.806 238.99 487.853C235.42 494.553 226.836 507.1 221.059 509.283C215.003 511.728 211.509 513.359 203.822 513.359C196.136 513.359 184.606 509.865 184.256 505.905C184.143 504.618 180.767 506.538 175.405 501.945C171.19 498.336 164.948 488.162 163.526 486.456C161.131 484.263 155.601 477.452 152.645 467.749C148.949 455.62 152.029 453.153 144.638 451.509C137.247 449.864 139.095 446.575 147.307 446.575C155.519 446.575 155.108 444.93 151.208 442.875C147.307 440.819 154.493 443.491 156.546 443.491C158.599 443.491 160.857 435.68 160.036 431.157C159.214 426.635 159.358 425.428 163.875 425.428V450.585C163.875 450.585 163.96 457.066 164.69 462.697C164.69 477.022 168.337 482.702 171.795 489.833C177.385 501.363 187.401 500.315 187.401 500.315Z" fill="#732A2A"/>
<path d="M204.987 475.042C204.97 475.393 204.915 475.805 204.827 476.267C204.308 481.058 202.608 493.513 198.232 497.636C192.176 503.343 202.891 498.801 204.987 496.821C206.686 495.216 211.14 483.129 212.766 477.056C213.151 474.475 213.372 472.991 213.372 473.994C213.372 474.546 213.147 475.637 212.766 477.056C212.033 481.97 210.707 490.859 209.18 494.142C206.85 499.15 208.947 505.323 210.927 496.239C212.329 489.805 213.439 481.211 213.802 476.371C213.728 473.943 213.695 472.39 213.838 472.713C213.974 473.019 213.951 474.376 213.802 476.371C213.439 481.211 212.329 489.805 210.927 496.239C208.947 505.323 206.85 499.15 209.18 494.142C210.707 490.859 212.033 481.97 212.766 477.056C211.14 483.129 206.686 495.216 204.987 496.821C202.891 498.801 192.176 503.343 198.232 497.636C202.608 493.513 204.308 481.058 204.827 476.267C205.026 474.427 205.051 473.718 204.987 475.042Z" fill="#732A2A"/>
<path d="M187.401 500.315C187.168 499.111 187.797 496.611 192.176 496.239C197.65 495.773 204.754 479.817 204.987 475.042C205.22 470.267 204.288 491.93 198.232 497.636C192.176 503.343 202.891 498.801 204.987 496.821C207.083 494.841 213.372 476.906 213.372 473.994C213.372 471.082 211.509 489.134 209.18 494.142C206.85 499.15 208.947 505.323 210.927 496.239C212.906 487.154 214.304 473.761 213.838 472.713C213.372 471.665 214.77 490.415 213.372 494.608C211.975 498.801 217.681 494.375 220.36 490.998C223.039 487.62 225.834 484.243 228.513 482.729C231.481 481.051 224.203 488.319 223.971 492.978C223.738 497.636 228.862 490.415 230.493 484.592M163.875 450.585V425.428C159.358 425.428 159.214 426.635 160.036 431.157C160.857 435.68 158.599 443.491 156.546 443.491C154.493 443.491 147.307 440.819 151.208 442.875C155.108 444.93 155.519 446.575 147.307 446.575C139.095 446.575 137.247 449.864 144.638 451.509C152.029 453.153 148.949 455.62 152.645 467.749C155.601 477.452 161.131 484.263 163.526 486.456C164.948 488.162 171.19 498.336 175.405 501.945C180.767 506.538 184.143 504.618 184.256 505.905C184.606 509.865 196.136 513.359 203.822 513.359C211.509 513.359 215.003 511.728 221.059 509.283C226.836 507.1 235.42 494.553 238.99 487.853C239.636 483.806 241.876 472.92 245.666 467.344C250.404 460.374 253.203 457.226 253.203 450.706C253.203 444.186 250.834 448.907 248.681 450.706C246.527 452.505 254.495 444.186 248.681 439.464C242.866 434.742 241.79 432.269 238.99 431.819C236.191 431.37 236.621 427.997 238.99 427.997C241.359 427.997 235.975 424.625 234.252 427.323C232.53 430.021 233.176 422.826 230.376 421.702C229.134 424.215 227.796 429.758 227.796 431.819" stroke="#440F0F" stroke-width="3"/>
<path d="M216.866 471.898C219.195 471.805 222.262 466.813 223.505 464.328C221.758 466.114 217.774 469.779 215.818 470.152C213.372 470.617 212.906 468.405 209.179 467.007C206.998 466.189 195.835 462.631 199.047 465.842C200.678 467.473 213.954 472.015 216.866 471.898Z" fill="#732A2A" stroke="#440F0F" stroke-width="3"/>
<path d="M171.795 473.412C172.726 473.319 178.317 469.413 180.995 467.472C180.995 467.006 180.646 466.075 179.248 466.075C177.501 466.075 175.056 469.336 171.795 469.801C168.534 470.267 166.437 465.842 166.554 467.472C166.67 469.103 170.63 473.528 171.795 473.412Z" fill="#732A2A" stroke="#440F0F" stroke-width="3"/>
<path d="M204.123 437.658C204.962 437.099 213.44 426.943 212.858 426.128C212.276 425.313 210.948 426.501 208.432 427.991C205.288 429.855 199.232 431.718 192.826 431.718C186.421 431.718 186.071 432.766 180.015 431.718C173.959 430.67 170.232 423.799 170.232 426.128C170.232 428.457 174.891 438.939 177.103 438.939C179.316 438.939 187.818 436.493 191.196 436.61C194.573 436.726 203.075 438.357 204.123 437.658Z" fill="#D1A3A3"/>
<path d="M221.709 422.983C224.318 426.71 226.523 432.689 227.3 435.212C227.688 432.805 228.231 426.99 227.3 422.983C226.135 417.975 221.709 410.988 215.304 408.775C208.898 406.562 208.432 401.903 204.123 399.225C199.814 396.546 184.324 391.189 178.618 397.245C172.911 403.301 171.164 404.466 167.437 410.988C163.71 417.51 164.176 435.212 164.176 432.766C164.176 430.321 166.971 424.847 169.3 422.983C171.63 421.12 175.24 416.112 175.822 412.036C176.405 407.96 181.413 402.952 186.537 401.903C191.661 400.855 202.609 407.377 205.404 410.988C208.199 414.598 218.448 418.325 221.709 422.983Z" fill="#D1A3A3"/>
<path d="M227.299 435.212C227.688 432.805 229.328 428.69 227.299 422.983C225.271 417.276 222.573 411.453 216.633 409.706C210.694 407.959 208.432 401.903 204.123 399.224C199.814 396.546 184.324 391.188 178.617 397.244C172.911 403.301 171.164 404.465 167.437 410.987C163.71 417.509 164.176 435.212 164.176 432.766" stroke="#440F0F" stroke-width="3" stroke-linecap="round" stroke-linejoin="round"/>
<path d="M333 489L350 469L333 449L316 469L333 489Z" fill="#FD7072"/>
</g>
<path d="M28.3239 6H362.676V4H28.3239V6ZM379 22.3239V557.676H381V22.3239H379ZM362.676 574H28.3239V576H362.676V574ZM12 557.676V22.324H10V557.676H12ZM28.3239 574C19.3085 574 12 566.692 12 557.676H10C10 567.796 18.2039 576 28.3239 576V574ZM379 557.676C379 566.691 371.692 574 362.676 574V576C372.796 576 381 567.796 381 557.676H379ZM362.676 6C371.692 6 379 13.3085 379 22.3239H381C381 12.2039 372.796 4 362.676 4V6ZM28.3239 4C18.2039 4 10 12.2039 10 22.324H12C12 13.3085 19.3085 6 28.3239 6V4Z" fill="#F7E2E2"/>
</g>
<defs>
<filter id="filter0_d" x="0" y="0" width="391" height="592" filterUnits="userSpaceOnUse" color-interpolation-filters="sRGB">
<feFlood flood-opacity="0" result="BackgroundImageFix"/>
<feColorMatrix in="SourceAlpha" type="matrix" values="0 0 0 0 0 0 0 0 0 0 0 0 0 0 0 0 0 0 127 0"/>
<feMorphology radius="3" operator="dilate" in="SourceAlpha" result="effect1_dropShadow"/>
<feOffset dy="6"/>
<feGaussianBlur stdDeviation="4"/>
<feColorMatrix type="matrix" values="0 0 0 0 0.279463 0 0 0 0 0.0711028 0 0 0 0 0.0740583 0 0 0 0.05 0"/>
<feBlend mode="normal" in2="BackgroundImageFix" result="effect1_dropShadow"/>
<feBlend mode="normal" in="SourceGraphic" in2="effect1_dropShadow" result="shape"/>
</filter>
<clipPath id="clip0">
<path d="M11 22.324C11 12.7562 18.7562 5 28.3239 5H362.676C372.244 5 380 12.7562 380 22.3239V557.676C380 567.244 372.244 575 362.676 575H28.3239C18.7562 575 11 567.244 11 557.676V22.324Z" fill="white"/>
</clipPath>
<clipPath id="clip1">
<rect width="231" height="234" fill="white" transform="translate(80 56)"/>
</clipPath>
<clipPath id="clip2">
<rect width="63" height="165" fill="white" transform="translate(261.557 126.398) rotate(-2.41152)"/>
</clipPath>
<clipPath id="clip3">
<rect width="231" height="234" fill="white" transform="translate(312 524) rotate(-180)"/>
</clipPath>
<clipPath id="clip4">
<rect width="63" height="165" fill="white" transform="translate(130.443 453.602) rotate(177.588)"/>
</clipPath>
</defs>
</svg>
