<svg width="391" height="592" viewBox="0 0 391 592" fill="none" xmlns="http://www.w3.org/2000/svg">
<g filter="url(#filter0_d)">
<g clip-path="url(#clip0)">
<path d="M11 22.324C11 12.7562 18.7562 5 28.3239 5H362.676C372.244 5 380 12.7562 380 22.3239V557.676C380 567.244 372.244 575 362.676 575H28.3239C18.7562 575 11 567.244 11 557.676V22.324Z" fill="#FBEEEE"/>
<path d="M49.5464 36.6857V71.4919C49.5464 80.5816 45.3497 85.1264 36.9563 85.1264C35.2626 85.1264 33.1266 84.8724 30.5483 84.3642V76.6295C31.8092 76.9683 32.8819 77.1377 33.7664 77.1377C35.5543 77.1377 36.7869 76.6389 37.4644 75.6415C38.1607 74.6441 38.5089 73.1009 38.5089 71.012V36.6857H32.2138V29.4591H55.3897V36.6857H49.5464ZM87.3448 57.1516C87.3448 60.1062 86.6485 62.7692 85.2559 65.1404C83.8632 67.5116 81.9813 69.3653 79.6101 70.7015C77.2389 72.0376 74.6324 72.7057 71.7907 72.7057C68.7796 72.7057 66.0885 72.0376 63.7173 70.7015C61.346 69.3653 59.4923 67.5116 58.1562 65.1404C56.8388 62.7692 56.1801 60.1062 56.1801 57.1516C56.1801 54.2158 56.8576 51.5717 58.2126 49.2193C59.5864 46.8669 61.4684 45.0226 63.8584 43.6865C66.2484 42.3315 68.8925 41.654 71.7907 41.654C74.7453 41.654 77.4083 42.3315 79.7795 43.6865C82.1507 45.0226 84.0044 46.8669 85.3406 49.2193C86.6767 51.5717 87.3448 54.2158 87.3448 57.1516ZM71.7342 65.338C73.5785 65.338 75.0182 64.6229 76.0533 63.1926C77.1071 61.7435 77.6341 59.6734 77.6341 56.9822C77.6341 54.4605 77.1071 52.4939 76.0533 51.0824C75.0182 49.6522 73.5597 48.937 71.6778 48.937C69.777 48.937 68.3374 49.6427 67.3588 51.0542C66.3802 52.4468 65.8909 54.5546 65.8909 57.3774C65.8909 59.7675 66.4178 61.6965 67.4717 63.1644C68.5444 64.6134 69.9652 65.338 71.7342 65.338ZM107.331 65.4791V72H89.5184V65.1686H94.2609V36.2623H89.5184V29.4591H103.746V65.4791H107.331ZM107.613 42.3315H125.538V48.3442H122.603L113.852 55.7684L121.784 65.1686H125.877V72H116.449L103.802 56.333L113.852 48.0619H107.613V42.3315ZM158.594 59.1559H136.463C136.689 61.433 137.47 63.2396 138.806 64.5758C140.161 65.8932 141.902 66.5518 144.028 66.5518C146.381 66.5518 148.677 65.385 150.916 63.0515L158.256 65.4227C156.637 67.8504 154.633 69.6758 152.243 70.8991C149.853 72.1035 147.021 72.7057 143.746 72.7057C140.472 72.7057 137.573 72.0941 135.052 70.8708C132.549 69.6288 130.601 67.8786 129.208 65.6203C127.834 63.362 127.148 60.7085 127.148 57.6597C127.148 54.6487 127.863 51.9199 129.293 49.4734C130.742 47.0269 132.69 45.1167 135.136 43.7429C137.602 42.3503 140.274 41.654 143.153 41.654C146.277 41.654 148.997 42.3785 151.311 43.8276C153.626 45.2579 155.405 47.2997 156.647 49.9533C157.908 52.588 158.557 55.6555 158.594 59.1559ZM142.702 47.949C141.008 47.949 139.643 48.4383 138.608 49.4169C137.592 50.3955 136.952 51.8916 136.689 53.9053H149.053C148.79 52.1363 148.065 50.706 146.879 49.6145C145.713 48.5042 144.32 47.949 142.702 47.949ZM186.682 41.9927V50.8848C184.085 51.0542 182.015 51.4682 180.472 52.1269C178.947 52.7667 177.762 53.8771 176.915 55.4579C176.087 57.0387 175.673 59.297 175.673 62.2328V65.1686H181.573V72H160.768V65.1686H166.216V49.2758H161.05V42.3315H174.883V49.8686C175.579 47.5914 176.868 45.7001 178.75 44.1946C180.632 42.689 182.965 41.9363 185.751 41.9363C186.165 41.9363 186.475 41.9551 186.682 41.9927Z" fill="#732A2A"/>
<path d="M342.454 543.314V508.508C342.454 499.418 346.65 494.874 355.044 494.874C356.737 494.874 358.873 495.128 361.452 495.636V503.37C360.191 503.032 359.118 502.862 358.234 502.862C356.446 502.862 355.213 503.361 354.536 504.358C353.839 505.356 353.491 506.899 353.491 508.988V543.314H359.786V550.541H336.61V543.314H342.454ZM304.655 522.848C304.655 519.894 305.352 517.231 306.744 514.86C308.137 512.488 310.019 510.635 312.39 509.299C314.761 507.962 317.368 507.294 320.209 507.294C323.22 507.294 325.912 507.962 328.283 509.299C330.654 510.635 332.508 512.488 333.844 514.86C335.161 517.231 335.82 519.894 335.82 522.848C335.82 525.784 335.142 528.428 333.787 530.781C332.414 533.133 330.532 534.977 328.142 536.314C325.752 537.669 323.107 538.346 320.209 538.346C317.255 538.346 314.592 537.669 312.221 536.314C309.849 534.977 307.996 533.133 306.659 530.781C305.323 528.428 304.655 525.784 304.655 522.848ZM320.266 514.662C318.421 514.662 316.982 515.377 315.947 516.807C314.893 518.256 314.366 520.327 314.366 523.018C314.366 525.54 314.893 527.506 315.947 528.918C316.982 530.348 318.44 531.063 320.322 531.063C322.223 531.063 323.663 530.357 324.641 528.946C325.62 527.553 326.109 525.445 326.109 522.623C326.109 520.233 325.582 518.304 324.528 516.836C323.456 515.387 322.035 514.662 320.266 514.662ZM284.669 514.521V508H302.482V514.831H297.739V543.738H302.482V550.541H288.254V514.521H284.669ZM284.387 537.669H266.462V531.656H269.397L278.148 524.232L270.216 514.831H266.123V508H275.551L288.198 523.667L278.148 531.938H284.387V537.669ZM233.406 520.844H255.537C255.311 518.567 254.53 516.76 253.194 515.424C251.839 514.107 250.098 513.448 247.972 513.448C245.619 513.448 243.323 514.615 241.084 516.949L233.744 514.577C235.363 512.15 237.367 510.324 239.757 509.101C242.147 507.896 244.979 507.294 248.254 507.294C251.528 507.294 254.427 507.906 256.948 509.129C259.451 510.371 261.399 512.121 262.792 514.38C264.166 516.638 264.852 519.292 264.852 522.34C264.852 525.351 264.137 528.08 262.707 530.527C261.258 532.973 259.31 534.883 256.864 536.257C254.398 537.65 251.726 538.346 248.847 538.346C245.723 538.346 243.003 537.621 240.689 536.172C238.374 534.742 236.595 532.7 235.353 530.047C234.092 527.412 233.443 524.345 233.406 520.844ZM249.298 532.051C250.992 532.051 252.357 531.562 253.392 530.583C254.408 529.604 255.048 528.108 255.311 526.095H242.947C243.21 527.864 243.935 529.294 245.121 530.385C246.287 531.496 247.68 532.051 249.298 532.051ZM205.318 538.007V529.115C207.915 528.946 209.985 528.532 211.528 527.873C213.053 527.233 214.238 526.123 215.085 524.542C215.913 522.961 216.327 520.703 216.327 517.767V514.831H210.427V508H231.232V514.831H225.784V530.724H230.95V537.669H217.117V530.131C216.421 532.409 215.132 534.3 213.25 535.805C211.368 537.311 209.035 538.064 206.249 538.064C205.835 538.064 205.525 538.045 205.318 538.007Z" fill="#732A2A"/>
</g>
<path d="M28.3239 6H362.676V4H28.3239V6ZM379 22.3239V557.676H381V22.3239H379ZM362.676 574H28.3239V576H362.676V574ZM12 557.676V22.324H10V557.676H12ZM28.3239 574C19.3085 574 12 566.692 12 557.676H10C10 567.796 18.2039 576 28.3239 576V574ZM379 557.676C379 566.691 371.692 574 362.676 574V576C372.796 576 381 567.796 381 557.676H379ZM362.676 6C371.692 6 379 13.3085 379 22.3239H381C381 12.2039 372.796 4 362.676 4V6ZM28.3239 4C18.2039 4 10 12.2039 10 22.324H12C12 13.3085 19.3085 6 28.3239 6V4Z" fill="#F7E2E2"/>
</g>
<path d="M118.877 339.198C121.537 337.998 123.852 336.191 126.704 335.418L136.326 354.662C134.663 356.602 132.905 358.872 130.694 360.217C126.587 362.717 121.091 364.276 117.922 368.064C112.822 374.159 112.548 380.992 112.615 388.568C112.645 391.997 113.539 395.308 113.627 398.705C113.73 402.662 112.615 411.054 111.221 415.277C111.164 417.124 111.159 419.806 111.221 421.92C111.338 425.886 111.573 430.089 111.164 434.043C110.821 437.359 109.32 441.047 107.556 443.836C106.16 446.042 103.907 447.623 102.153 449.525C100.483 451.336 98.9632 453.25 97.1511 454.928C88.7068 462.75 76.0139 471.282 63.9327 470.392C61.1201 470.185 58.3484 470.201 55.5326 470.106C51.332 469.963 44.9624 470.131 41.6724 466.917C38.7022 464.016 37.9759 459.848 36.766 456.016C35.493 451.985 36.173 447.588 36.2506 443.435C36.3408 438.607 37.301 435.667 37.6959 430.85C38.1188 425.69 41.0831 421.906 44.2946 417.652C46.5645 414.646 46.4869 409.785 48.698 406.742C51.2498 403.23 53.8002 399.795 56.5826 396.452C59.2323 393.268 61.9014 390.11 64.639 387.002C65.3991 386.139 66.3647 385.255 66.949 384.253C67.4682 383.363 61.0753 385.305 59.4916 387.002C59.5606 385.138 61.6467 382.231 62.6154 380.778C64.7304 377.606 67.1287 374.413 69.8318 371.71C70.8706 370.671 72.1099 369.786 72.9436 368.56C74.0954 366.866 72.4684 367.555 71.3973 367.72C67.6706 368.293 67.2973 369.217 63.7148 371.71C61.5109 373.244 59.019 378.189 58.9637 377.386C58.8808 376.184 58.3199 373.862 59.4916 371.71C63.5172 364.317 68.2267 361.531 74.9864 356.514C80.7931 352.204 84.2669 347.553 90.2784 346.071C95.4935 344.785 100.962 344.688 106.258 343.952C111.16 343.27 114.547 341.151 118.877 339.198Z" fill="#F6D5D5" stroke="#440F0F" stroke-width="3" stroke-linecap="round" stroke-linejoin="round"/>
<path d="M133.432 292.394C133.349 295.458 133.925 297.652 133.432 301.206C132.938 304.761 127.327 314.545 127.327 314.545C127.327 314.545 122.051 332.164 123.895 343.336C125.246 351.514 127.394 355.961 131.55 363.132C138.42 374.988 144.61 380.895 156.361 387.944C172.086 397.376 184.011 396.237 202.289 397.71C213.693 398.629 220.315 399.676 231.587 397.71C248.353 394.786 255.532 386.192 271.179 379.497C280.7 375.424 288.356 376.741 295.727 369.467C304.8 360.513 301.2 350.324 305.493 338.321C308.853 328.927 314.839 314.545 314.839 314.545L320.295 284.46C321.107 281.405 320.977 278.433 320.977 275.253C320.977 270.69 321.268 266.248 321.924 261.727C322.81 255.625 325.541 250.365 327.456 244.621C328.052 242.831 329.02 241.092 329.994 239.487C330.898 237.998 331.181 236.205 331.813 234.599C333.103 231.319 332.912 227.835 332.912 224.37C332.912 214.756 333.678 204.457 330.695 195.177C329.667 191.978 328.656 188.914 327.456 185.743C326.591 183.458 325.999 181.024 325.422 178.651L325.41 178.601C324.883 176.434 324.913 174.493 323.705 172.615C319.821 166.573 318.707 159.156 314.839 153.14C313.672 151.325 312.124 150.081 310.823 148.442C309.28 146.499 305.757 141.991 304.59 138.686C303.963 136.908 303.295 134.411 302.071 132.965C299.309 129.701 296.946 126.641 293.357 124.061C288.393 120.494 283.024 117.597 276.724 117.412C273.989 117.331 271.641 117.537 268.995 118.094C266.092 118.705 250.591 120.805 243.201 122.125C235.81 123.445 233.171 123.445 228.156 122.653C224.46 122.069 220.562 120.222 219.181 123.181C218.263 125.148 219.264 126.322 218.653 128.46C218.009 130.717 215.122 133.341 213.902 135.322C212.062 138.313 211.315 140.891 208.887 143.505C206.937 145.605 206.512 146.629 206.512 150.632C206.246 157.715 201.195 165.205 199.913 169.372C199.109 171.282 195.809 177.351 195.568 179.434C194.787 186.171 196.495 194.684 193.314 201.046C191.298 205.078 183.261 209.104 180.117 212.132C174.989 217.069 172.769 219.443 168.175 224.938C163.052 231.066 158.045 237.218 154.592 244.412C153.143 247.43 152.505 250.986 151.353 254.131C149.815 258.324 148.646 262.623 147.09 266.804C146.016 269.691 143.929 272.392 142.373 275.026C140.833 277.631 139.745 280.344 137.94 282.793C136.13 285.25 133.517 289.217 133.432 292.394Z" stroke="#440F0F" stroke-width="3" stroke-linecap="round" stroke-linejoin="round"/>
<path d="M133.432 292.394C133.349 295.458 133.925 297.652 133.432 301.206C132.938 304.761 127.327 314.545 127.327 314.545C127.327 314.545 122.051 332.164 123.895 343.336C125.246 351.514 127.394 355.961 131.55 363.132C138.42 374.988 144.61 380.895 156.361 387.944C172.086 397.376 184.011 396.237 202.289 397.71C213.693 398.629 220.315 399.676 231.587 397.71C248.353 394.786 255.532 386.192 271.179 379.497C280.7 375.424 288.356 376.741 295.727 369.467C304.8 360.513 301.2 350.324 305.493 338.321C308.853 328.927 314.839 314.545 314.839 314.545L320.295 284.46C321.107 281.405 320.977 278.433 320.977 275.253C320.977 270.69 321.268 266.248 321.924 261.727C322.81 255.625 325.541 250.365 327.456 244.621C328.052 242.831 329.02 241.092 329.994 239.487C330.898 237.998 331.181 236.205 331.813 234.599C333.103 231.319 332.912 227.835 332.912 224.37C332.912 214.756 333.678 204.457 330.695 195.177C329.667 191.978 328.656 188.914 327.456 185.743C326.591 183.458 325.999 181.024 325.422 178.651L325.41 178.601C324.883 176.434 324.913 174.493 323.705 172.615C319.821 166.573 318.707 159.156 314.839 153.14C313.672 151.325 312.124 150.081 310.823 148.442C309.28 146.499 305.757 141.991 304.59 138.686C303.963 136.908 303.295 134.411 302.071 132.965C299.309 129.701 296.946 126.641 293.357 124.061C288.393 120.494 283.024 117.597 276.724 117.412C273.989 117.331 271.641 117.537 268.995 118.094C266.092 118.705 250.591 120.805 243.201 122.125C235.81 123.445 233.171 123.445 228.156 122.653C224.46 122.069 220.562 120.222 219.181 123.181C218.263 125.148 219.264 126.322 218.653 128.46C218.009 130.717 215.122 133.341 213.902 135.322C212.062 138.313 211.315 140.891 208.887 143.505C206.937 145.605 206.512 146.629 206.512 150.632C206.246 157.715 201.195 165.205 199.913 169.372C199.109 171.282 195.809 177.351 195.568 179.434C194.787 186.171 196.495 194.684 193.314 201.046C191.298 205.077 183.261 209.104 180.117 212.132C174.989 217.069 172.769 219.443 168.175 224.938C163.052 231.066 158.045 237.218 154.592 244.412C153.143 247.43 152.505 250.986 151.353 254.131C149.815 258.324 148.646 262.623 147.09 266.804C146.016 269.691 143.929 272.392 142.373 275.026C140.833 277.631 139.745 280.344 137.94 282.793C136.13 285.25 133.517 289.217 133.432 292.394Z" fill="#F6D5D5" stroke="#440F0F" stroke-width="3" stroke-linecap="round" stroke-linejoin="round"/>
<path d="M233.322 167C234.656 168.496 235.203 169.658 235.36 172.393C235.36 175.777 233.915 183.079 233.895 184.098C233.895 185.185 234.016 186.431 234.72 187.311C235.558 188.359 236.915 188.946 237.972 189.738" stroke="#440F0F" stroke-width="3" stroke-linecap="round" stroke-linejoin="round"/>
<path d="M245.233 187.509C246.171 187.509 246.57 187.118 246.917 186.182C247.595 184.353 248.153 182.452 248.559 180.545C248.781 179.499 249.103 178.471 249.245 177.41C249.407 176.198 249.54 174.993 249.56 173.769C249.592 171.768 249.627 169.766 249.627 167.764" stroke="#440F0F" stroke-width="3" stroke-linecap="round" stroke-linejoin="round"/>
<path d="M204.2 159.94C204.2 160.913 204.262 161.913 204.193 162.883C204.133 163.711 203.944 164.493 203.944 165.33C203.944 167.557 203.84 170.062 204.739 172.152C205.984 175.048 206.886 176.817 207.567 177.84C208.107 178.648 211.866 184.174 214.694 188.134C216.719 190.969 220.96 197.831 224.46 201.331C227.961 204.831 232.806 206.107 234.226 206.874C235.546 207.44 241.78 209.498 242.935 209.88C244.414 210.368 245.88 210.681 247.424 210.833C250.855 210.569 253.726 208.695 256.792 207.44C260.457 205.941 263.616 203.749 266.876 201.554C268.578 200.409 270.26 198.844 271.649 197.342C273.277 195.58 274.611 193.677 275.528 191.271C275.913 190.644 277.415 185.758 277.883 182.832C278.242 180.586 278.165 179.144 280.407 177.868C282.174 176.863 284.278 176.231 285.854 174.911C287.499 173.532 288.835 172.112 289.726 170.152" stroke="#440F0F" stroke-width="3" stroke-linecap="round" stroke-linejoin="round"/>
<path d="M193.314 207.248C192.786 206.193 192.1 204.45 192.1 203.443L183.284 210.57C183.284 221.486 191.772 228.141 193.05 230.894C196.482 238.284 201.858 244.813 206.512 248.05C218.653 256.497 221.758 258.267 227.364 260.72C231.587 262.568 242.937 269.958 248.48 276.821C250.135 278.87 251.964 281.232 254.287 282.474C259.79 285.417 269.068 288.545 269.068 288.545L264.317 286.17C264.317 286.17 258.609 283.653 255.87 280.891C253.07 278.066 252.972 275.367 250.591 272.18C246.632 266.88 234.144 259.047 232.643 258.191C227.818 256.319 221.557 252.384 217.267 249.13C215.308 247.9 213.542 246.458 211.791 244.993C207.502 241.405 205.994 238.975 202.817 234.435C202.127 233.451 200.705 230.476 199.913 228.101C199.121 225.725 198.907 223.011 198.822 221.333C198.736 219.654 198.899 217.217 198.065 214.639C197.843 213.952 196.51 211.739 196.1 211.21C195.69 210.68 193.842 208.304 193.314 207.248Z" fill="#C48484"/>
<path d="M192.258 202.387C192.258 203.394 193.05 206.082 193.578 207.138C194.106 208.194 195.954 210.569 196.364 211.099C196.774 211.629 198.107 213.841 198.329 214.528C199.163 217.106 199 219.543 199.085 221.222C199.171 222.901 199.385 225.614 200.177 227.99C200.969 230.365 202.391 233.34 203.08 234.325C206.258 238.864 207.765 241.294 212.055 244.883C213.806 246.348 215.572 247.789 217.531 249.019C221.821 252.273 228.082 256.208 232.907 258.08C236.074 259.309 246.895 266.769 250.855 272.07C253.236 275.256 253.334 277.955 256.134 280.78C258.873 283.542 264.581 286.059 264.581 286.059L269.332 288.434" stroke="#440F0F" stroke-width="3" stroke-linecap="round" stroke-linejoin="round"/>
<path d="M323.665 253.065C323.665 253.107 323.649 253.15 323.62 253.194C323.311 254.079 321.513 259.25 321.33 260.456C321.13 261.776 320.274 269.694 320.274 269.694C320.274 269.694 319.041 272.397 318.386 274.181C317.352 276.999 318.219 277.404 316.315 279.724C314.587 281.829 312.359 283.338 310.204 285.003C307.372 287.191 307.002 289.727 304.133 291.866C301.472 293.85 299.669 294.646 296.479 295.561C293.794 296.331 289.392 296.532 289.392 296.532C291.436 295.656 293.423 294.654 295.314 293.48C296.77 292.576 298.129 291.692 299.173 290.327C300.569 288.501 301.567 286.438 302.689 284.447C304.133 281.572 308.499 278.959 309.81 277.742C313.635 273.118 315.064 267.493 316.908 261.961C317.724 259.512 319.39 257.903 321.002 255.961C321.622 255.214 322.293 254.497 322.956 253.79C323.104 253.632 323.488 253.401 323.62 253.194C323.649 253.111 323.665 253.065 323.665 253.065Z" fill="#C48484"/>
<path d="M324.497 251.746C323.442 252.84 322.912 253.334 322.732 253.526C322.069 254.233 321.398 254.95 320.778 255.697C319.166 257.639 317.5 259.248 316.684 261.697C314.84 267.229 313.411 272.854 309.586 277.478C308.276 278.695 303.909 281.308 302.465 284.183C301.343 286.174 300.345 288.237 298.949 290.062C297.905 291.428 296.547 292.312 295.09 293.216C293.199 294.39 291.212 295.392 289.168 296.268" stroke="#440F0F" stroke-width="3" stroke-linecap="round" stroke-linejoin="round"/>
<path d="M320.84 170.221C320.72 168.884 320.802 169.942 320.802 168.602C320.802 168.602 323.442 172.033 323.969 174.408C324.497 176.784 325.025 179.951 325.025 179.951V183.067C325.025 183.067 325.351 189.371 324.233 193.166C323.501 195.652 321.514 199.22 321.514 199.22C321.514 199.22 319.62 202.687 317.899 204.499C316.279 206.203 314.843 206.566 313.147 208.194C309.872 211.34 310.429 215.411 306.549 217.771C305.298 218.532 304.455 218.686 303.117 219.28C301.051 220.197 300.106 221.346 297.838 221.656L292.031 222.447C293.706 221.575 295.18 221.335 296.783 220.336C298.056 219.542 299.028 218.604 299.95 217.432C301.819 215.058 303.234 212.779 304.965 210.306C307.476 206.718 310.359 203.127 313.147 199.748C314.848 197.686 316.69 195.568 317.899 193.166C318.459 192.051 319.653 190.94 320.01 189.718C320.658 187.504 321.121 185.344 321.374 183.067C321.638 180.694 321.726 178.138 321.514 175.751C321.349 173.905 321.007 172.072 320.84 170.221Z" fill="#C48484"/>
<path d="M320.128 164.906C320.128 166.246 320.192 167.564 320.312 168.9C320.48 170.752 320.821 172.584 320.986 174.431C321.198 176.818 321.11 179.373 320.846 181.747C320.593 184.024 320.461 186.27 319.814 188.484C319.456 189.706 318.774 190.731 318.213 191.845C317.004 194.248 314.952 196.327 313.251 198.388C310.462 201.768 307.888 205.343 305.377 208.931C303.645 211.404 302.139 214.076 300.27 216.451C299.348 217.622 298.321 218.709 297.048 219.503C295.445 220.502 293.706 221.304 292.031 222.176" stroke="#440F0F" stroke-width="3" stroke-linecap="round" stroke-linejoin="round"/>
<path d="M237.924 191.198C236.602 190.773 234.641 190.699 235.018 187.87C235.546 183.911 240.02 183.119 242.395 183.383C243.862 183.546 246.124 185.708 245.576 187.078C245.048 188.398 243.051 189.449 242.673 190.245C241.881 191.915 242.395 195.125 242.395 195.125C241.962 194.419 241.195 193.51 240.825 193.149C240.456 192.788 239.341 191.653 237.924 191.198Z" fill="#440F0F"/>
<path d="M242.395 195.125C241.962 194.419 241.195 193.51 240.825 193.149C240.456 192.788 239.341 191.653 237.924 191.198C236.602 190.773 234.641 190.699 235.018 187.87C235.546 183.911 240.02 183.119 242.395 183.383C243.862 183.546 246.124 185.708 245.576 187.078C245.048 188.398 243.051 189.449 242.673 190.245C241.881 191.915 242.395 195.125 242.395 195.125ZM242.395 195.125C242.673 195.577 242.768 195.954 242.925 196.417C243.106 196.956 243.201 198.164 243.201 198.164" stroke="#440F0F" stroke-width="2" stroke-linecap="round" stroke-linejoin="round"/>
<path d="M236.866 202.387C236.866 202.387 240.214 199.091 243.201 198.428C246.576 197.677 251.648 199.219 251.648 199.219" stroke="#440F0F" stroke-width="2" stroke-linecap="round"/>
<path d="M294.935 91.4421C284.113 86.9551 268.012 118.101 268.012 118.101L293.615 138.161C298.103 136.314 302.685 127.529 302.59 123.644C302.543 121.744 301.798 120.477 301.798 120.477C301.798 119.949 303.118 117.837 302.326 114.934C299.765 105.543 301.006 95.4016 294.935 91.4421Z" fill="#F6D5D5"/>
<path d="M267.484 120.477C267.484 120.477 284.113 86.9552 294.935 91.4422C301.006 95.4016 299.765 105.543 302.326 114.934C303.118 117.837 301.798 119.949 301.798 120.477M301.798 120.477C301.798 120.477 302.543 121.744 302.59 123.644C302.685 127.529 298.102 136.314 293.615 138.162M301.798 120.477C301.798 120.477 301.006 122.588 299.686 124.436" stroke="#440F0F" stroke-width="3" stroke-linecap="round"/>
<path d="M204.059 137.834C205.399 141.957 204.85 144.433 207.49 148.392L224.647 125.165C224.647 125.165 215.015 115.288 206.17 110.383C201.602 107.851 196.404 107.216 194.82 109.064C190.597 115.662 204.059 137.834 204.059 137.834Z" fill="#F6D5D5"/>
<path d="M208.887 150.389C204.928 145.638 205.212 141.578 203.872 137.455C203.872 137.455 190.411 115.283 194.634 108.684C196.218 106.837 201.416 107.471 205.984 110.004C214.829 114.909 224.461 124.785 224.461 124.785" stroke="#440F0F" stroke-width="3" stroke-linecap="round"/>
<path d="M231.504 126.328C231.099 125.194 230.898 123.982 231.851 123.202L240.052 122.39C241.669 122.185 243.255 121.971 244.863 121.708C249.154 121.005 253.548 120.272 257.642 118.857C258.921 118.415 260.164 118.924 261.446 118.497C261.948 118.33 262.634 118.226 262.982 118.651C263.767 119.611 263.23 122.184 262.948 123.189C262.443 124.981 261.75 126.614 260.32 127.881C258.52 129.475 256.496 130.663 254.349 131.737C253.15 132.336 251.901 132.816 250.698 133.408C249.226 134.134 247.507 135.115 245.818 135.115C243.65 135.115 241.459 135.345 239.796 133.681C238.848 132.734 237.836 131.884 236.827 130.986C235.921 130.18 234.756 129.738 233.893 128.938C233.093 128.198 231.903 127.446 231.504 126.328Z" fill="#C39393"/>
<path d="M268 118.5C265.097 119.111 250.591 120.826 243.201 122.146C235.81 123.466 233.171 123.466 228.156 122.674C225.917 122.32 223.604 121.503 221.821 121.572" stroke="#440F0F" stroke-width="3" stroke-linecap="round" stroke-linejoin="round"/>
<path d="M301.757 374.482C301.475 373.107 300.364 363.679 300.364 362.287L276.175 374.18C275.788 377.423 275.551 380.341 276.427 384.127C277.526 388.878 277.024 392.766 281.737 394.015C283.362 394.446 285.09 395.199 286.517 395.199C290.361 395.199 300.608 395.06 304.437 394.807C305.73 394.536 307.451 393.358 308.609 391.684C310.369 389.142 310.055 386.835 309.423 383.809C308.458 379.194 304.965 375.539 301.757 374.482Z" fill="#F6D5D5"/>
<path d="M300.364 362.286C300.364 363.679 301.475 373.106 301.757 374.481C304.965 375.538 308.458 379.193 309.423 383.808C310.055 386.835 310.369 389.142 308.609 391.684C307.451 393.357 305.73 394.535 304.437 394.807C300.608 395.059 290.361 395.198 286.517 395.198C285.09 395.198 283.362 394.445 281.737 394.015C277.024 392.766 277.526 388.877 276.427 384.127C275.551 380.341 275.788 377.422 276.175 374.179C276.194 372.146 276.933 366.054 277.232 364.081C277.444 362.733 278.624 355.345 278.624 353.982" stroke="#440F0F" stroke-width="3" stroke-linecap="round" stroke-linejoin="round"/>
<path d="M250.522 395.411C247.874 394.923 244.739 394.73 242.494 393.112L270.916 373.955C272.739 374.328 274.875 374.775 275.772 375.399C276.959 376.225 280.682 378.442 281.474 381.873C282.265 385.304 282.529 390.319 278.57 394.015C274.611 397.71 259.949 395.46 258.813 395.75C256.13 395.643 253.16 395.897 250.522 395.411Z" fill="#F6D5D5"/>
<path d="M212.571 331.543C212.571 334.261 212.371 336.756 213.349 339.32C215.323 342.033 223.08 354.511 225.409 356.92C228.258 359.865 230.843 363.529 232.419 367.321C233.119 369.006 236.522 380.929 237.004 382.685C237.467 386.466 239.308 390.815 242.494 393.112C244.739 394.73 247.874 394.923 250.522 395.411C253.16 395.897 256.129 395.643 258.813 395.75C259.949 395.46 274.611 397.71 278.57 394.015C282.529 390.319 282.265 385.304 281.473 381.873C280.682 378.441 276.959 376.225 275.772 375.399C274.875 374.775 272.739 374.327 270.915 373.954C269.614 373.688 269.766 372.288 269.378 371.065C268.6 368.617 267.891 366.15 267.117 363.703C266.401 361.442 265.978 360.054 265.109 357.853C264.705 356.833 263.901 354.715 263.901 353.704" stroke="#440F0F" stroke-width="3" stroke-linecap="round" stroke-linejoin="round"/>
<path d="M229.636 189.587C222.533 189.817 216.093 190.033 209.197 192.119C205.059 193.37 201.462 196.006 197.585 197.882" stroke="#440F0F" stroke-width="3" stroke-linecap="round" stroke-linejoin="round"/>
<path d="M230.03 191.702C222.543 192.082 214.599 193.251 207.927 196.877C205.408 198.246 203.224 200.227 201.415 202.435" stroke="#440F0F" stroke-width="3" stroke-linecap="round" stroke-linejoin="round"/>
<path d="M227.637 194.37C225.029 194.542 222.577 195.981 220.335 197.212C218.546 198.194 216.842 199.295 215.175 200.472C212.589 202.299 209.965 204.166 207.6 206.278C205.52 208.135 203.651 210.297 202.128 212.635C201.506 213.589 201.076 214.429 200.825 215.526" stroke="#440F0F" stroke-width="3" stroke-linecap="round" stroke-linejoin="round"/>
<path d="M252.135 189.01C259.238 189.241 265.678 189.456 272.574 191.543C276.712 192.794 280.31 195.43 284.187 197.306" stroke="#440F0F" stroke-width="3" stroke-linecap="round" stroke-linejoin="round"/>
<path d="M251.742 191.126C259.228 191.505 267.172 192.674 273.844 196.301C276.364 197.67 278.548 199.651 280.357 201.859" stroke="#440F0F" stroke-width="3" stroke-linecap="round" stroke-linejoin="round"/>
<path d="M254.134 193.794C256.742 193.966 259.194 195.405 261.436 196.636C263.225 197.618 264.929 198.719 266.596 199.896C269.182 201.723 271.806 203.59 274.171 205.702C276.251 207.559 278.121 209.721 279.644 212.059C280.265 213.013 280.695 213.852 280.946 214.95" stroke="#440F0F" stroke-width="3" stroke-linecap="round" stroke-linejoin="round"/>
<path d="M41.5001 464.495C44.0937 468.402 48.5 468 53.1355 468.5C56 468 74.1584 471.376 76 465C76.6883 462.617 79 461.5 79 456.5C79.5 455 78.5 453 79.3756 451.315C80.9131 449.11 80.913 447.333 80.9129 444.682V444.599C80.9129 442.128 81.2732 439.379 80.5285 436.996C79.055 432.279 79.5954 426.656 73.9525 424.492C70.2963 423.09 66.4577 423.332 62.9569 421.366C60.073 419.747 56.0877 419.458 53.1355 421.092C49.6734 423.007 47.2819 427.359 45.1289 430.554C43.0797 433.594 41.2622 436.772 39.2361 439.826C37 444.599 37.5642 453.559 38.5001 456C39.4359 458.441 40.0253 462.273 41.5001 464.495Z" fill="#C39393"/>
<defs>
<filter id="filter0_d" x="0" y="0" width="391" height="592" filterUnits="userSpaceOnUse" color-interpolation-filters="sRGB">
<feFlood flood-opacity="0" result="BackgroundImageFix"/>
<feColorMatrix in="SourceAlpha" type="matrix" values="0 0 0 0 0 0 0 0 0 0 0 0 0 0 0 0 0 0 127 0"/>
<feMorphology radius="3" operator="dilate" in="SourceAlpha" result="effect1_dropShadow"/>
<feOffset dy="6"/>
<feGaussianBlur stdDeviation="4"/>
<feColorMatrix type="matrix" values="0 0 0 0 0.279463 0 0 0 0 0.0711028 0 0 0 0 0.0740583 0 0 0 0.05 0"/>
<feBlend mode="normal" in2="BackgroundImageFix" result="effect1_dropShadow"/>
<feBlend mode="normal" in="SourceGraphic" in2="effect1_dropShadow" result="shape"/>
</filter>
<clipPath id="clip0">
<path d="M11 22.324C11 12.7562 18.7562 5 28.3239 5H362.676C372.244 5 380 12.7562 380 22.3239V557.676C380 567.244 372.244 575 362.676 575H28.3239C18.7562 575 11 567.244 11 557.676V22.324Z" fill="white"/>
</clipPath>
</defs>
</svg>
