<svg width="391" height="592" viewBox="0 0 391 592" fill="none" xmlns="http://www.w3.org/2000/svg">
<g filter="url(#filter0_d)">
<g clip-path="url(#clip0)">
<path d="M11 22.324C11 12.7562 18.7562 5 28.3239 5H362.676C372.244 5 380 12.7562 380 22.3239V557.676C380 567.244 372.244 575 362.676 575H28.3239C18.7562 575 11 567.244 11 557.676V22.324Z" fill="white"/>
<path d="M49.5464 36.6857V71.4919C49.5464 80.5816 45.3497 85.1264 36.9563 85.1264C35.2626 85.1264 33.1266 84.8724 30.5483 84.3642V76.6295C31.8092 76.9683 32.8819 77.1377 33.7664 77.1377C35.5543 77.1377 36.7869 76.6389 37.4644 75.6415C38.1607 74.6441 38.5089 73.1009 38.5089 71.012V36.6857H32.2138V29.4591H55.3897V36.6857H49.5464ZM87.3448 57.1516C87.3448 60.1062 86.6485 62.7692 85.2559 65.1404C83.8632 67.5116 81.9813 69.3653 79.6101 70.7015C77.2389 72.0376 74.6324 72.7057 71.7907 72.7057C68.7796 72.7057 66.0885 72.0376 63.7173 70.7015C61.346 69.3653 59.4923 67.5116 58.1562 65.1404C56.8388 62.7692 56.1801 60.1062 56.1801 57.1516C56.1801 54.2158 56.8576 51.5717 58.2126 49.2193C59.5864 46.8669 61.4684 45.0226 63.8584 43.6865C66.2484 42.3315 68.8925 41.654 71.7907 41.654C74.7453 41.654 77.4083 42.3315 79.7795 43.6865C82.1507 45.0226 84.0044 46.8669 85.3406 49.2193C86.6767 51.5717 87.3448 54.2158 87.3448 57.1516ZM71.7342 65.338C73.5785 65.338 75.0182 64.6229 76.0533 63.1926C77.1071 61.7435 77.6341 59.6734 77.6341 56.9822C77.6341 54.4605 77.1071 52.4939 76.0533 51.0824C75.0182 49.6522 73.5597 48.937 71.6778 48.937C69.777 48.937 68.3374 49.6427 67.3588 51.0542C66.3802 52.4468 65.8909 54.5546 65.8909 57.3774C65.8909 59.7675 66.4178 61.6965 67.4717 63.1644C68.5444 64.6134 69.9652 65.338 71.7342 65.338ZM107.331 65.4791V72H89.5184V65.1686H94.2609V36.2623H89.5184V29.4591H103.746V65.4791H107.331ZM107.613 42.3315H125.538V48.3442H122.603L113.852 55.7684L121.784 65.1686H125.877V72H116.449L103.802 56.333L113.852 48.0619H107.613V42.3315ZM158.594 59.1559H136.463C136.689 61.433 137.47 63.2396 138.806 64.5758C140.161 65.8932 141.902 66.5518 144.028 66.5518C146.381 66.5518 148.677 65.385 150.916 63.0515L158.256 65.4227C156.637 67.8504 154.633 69.6758 152.243 70.8991C149.853 72.1035 147.021 72.7057 143.746 72.7057C140.472 72.7057 137.573 72.0941 135.052 70.8708C132.549 69.6288 130.601 67.8786 129.208 65.6203C127.834 63.362 127.148 60.7085 127.148 57.6597C127.148 54.6487 127.863 51.9199 129.293 49.4734C130.742 47.0269 132.69 45.1167 135.136 43.7429C137.602 42.3503 140.274 41.654 143.153 41.654C146.277 41.654 148.997 42.3785 151.311 43.8276C153.626 45.2579 155.405 47.2997 156.647 49.9533C157.908 52.588 158.557 55.6555 158.594 59.1559ZM142.702 47.949C141.008 47.949 139.643 48.4383 138.608 49.4169C137.592 50.3955 136.952 51.8916 136.689 53.9053H149.053C148.79 52.1363 148.065 50.706 146.879 49.6145C145.713 48.5042 144.32 47.949 142.702 47.949ZM186.682 41.9927V50.8848C184.085 51.0542 182.015 51.4682 180.472 52.1269C178.947 52.7667 177.762 53.8771 176.915 55.4579C176.087 57.0387 175.673 59.297 175.673 62.2328V65.1686H181.573V72H160.768V65.1686H166.216V49.2758H161.05V42.3315H174.883V49.8686C175.579 47.5914 176.868 45.7001 178.75 44.1946C180.632 42.689 182.965 41.9363 185.751 41.9363C186.165 41.9363 186.475 41.9551 186.682 41.9927Z" fill="#1A1616"/>
<path d="M342.454 543.314V508.508C342.454 499.418 346.65 494.874 355.044 494.874C356.737 494.874 358.873 495.128 361.452 495.636V503.37C360.191 503.032 359.118 502.862 358.234 502.862C356.446 502.862 355.213 503.361 354.536 504.358C353.839 505.356 353.491 506.899 353.491 508.988V543.314H359.786V550.541H336.61V543.314H342.454ZM304.655 522.848C304.655 519.894 305.352 517.231 306.744 514.86C308.137 512.488 310.019 510.635 312.39 509.299C314.761 507.962 317.368 507.294 320.209 507.294C323.22 507.294 325.912 507.962 328.283 509.299C330.654 510.635 332.508 512.488 333.844 514.86C335.161 517.231 335.82 519.894 335.82 522.848C335.82 525.784 335.142 528.428 333.787 530.781C332.414 533.133 330.532 534.977 328.142 536.314C325.752 537.669 323.107 538.346 320.209 538.346C317.255 538.346 314.592 537.669 312.221 536.314C309.849 534.977 307.996 533.133 306.659 530.781C305.323 528.428 304.655 525.784 304.655 522.848ZM320.266 514.662C318.421 514.662 316.982 515.377 315.947 516.807C314.893 518.256 314.366 520.327 314.366 523.018C314.366 525.54 314.893 527.506 315.947 528.918C316.982 530.348 318.44 531.063 320.322 531.063C322.223 531.063 323.663 530.357 324.641 528.946C325.62 527.553 326.109 525.445 326.109 522.623C326.109 520.233 325.582 518.304 324.528 516.836C323.456 515.387 322.035 514.662 320.266 514.662ZM284.669 514.521V508H302.482V514.831H297.739V543.738H302.482V550.541H288.254V514.521H284.669ZM284.387 537.669H266.462V531.656H269.397L278.148 524.232L270.216 514.831H266.123V508H275.551L288.198 523.667L278.148 531.938H284.387V537.669ZM233.406 520.844H255.537C255.311 518.567 254.53 516.76 253.194 515.424C251.839 514.107 250.098 513.448 247.972 513.448C245.619 513.448 243.323 514.615 241.084 516.949L233.744 514.577C235.363 512.15 237.367 510.324 239.757 509.101C242.147 507.896 244.979 507.294 248.254 507.294C251.528 507.294 254.427 507.906 256.948 509.129C259.451 510.371 261.399 512.121 262.792 514.38C264.166 516.638 264.852 519.292 264.852 522.34C264.852 525.351 264.137 528.08 262.707 530.527C261.258 532.973 259.31 534.883 256.864 536.257C254.398 537.65 251.726 538.346 248.847 538.346C245.723 538.346 243.003 537.621 240.689 536.172C238.374 534.742 236.595 532.7 235.353 530.047C234.092 527.412 233.443 524.345 233.406 520.844ZM249.298 532.051C250.992 532.051 252.357 531.562 253.392 530.583C254.408 529.604 255.048 528.108 255.311 526.095H242.947C243.21 527.864 243.935 529.294 245.121 530.385C246.287 531.496 247.68 532.051 249.298 532.051ZM205.318 538.007V529.115C207.915 528.946 209.985 528.532 211.528 527.873C213.053 527.233 214.238 526.123 215.085 524.542C215.913 522.961 216.327 520.703 216.327 517.767V514.831H210.427V508H231.232V514.831H225.784V530.724H230.95V537.669H217.117V530.131C216.421 532.409 215.132 534.3 213.25 535.805C211.368 537.311 209.035 538.064 206.249 538.064C205.835 538.064 205.525 538.045 205.318 538.007Z" fill="#1A1616"/>
</g>
<path d="M28.3239 6H362.676V4H28.3239V6ZM379 22.3239V557.676H381V22.3239H379ZM362.676 574H28.3239V576H362.676V574ZM12 557.676V22.324H10V557.676H12ZM28.3239 574C19.3085 574 12 566.692 12 557.676H10C10 567.796 18.2039 576 28.3239 576V574ZM379 557.676C379 566.691 371.692 574 362.676 574V576C372.796 576 381 567.796 381 557.676H379ZM362.676 6C371.692 6 379 13.3085 379 22.3239H381C381 12.2039 372.796 4 362.676 4V6ZM28.3239 4C18.2039 4 10 12.2039 10 22.324H12C12 13.3085 19.3085 6 28.3239 6V4Z" fill="#D9D8D8"/>
</g>
<path d="M198.414 101.485C202.217 106.556 208.098 119.972 210.563 126.046C211.443 126.31 213.574 126.839 215.052 126.839C216.901 126.839 222.447 128.423 225.352 128.951C228.257 129.48 233.275 132.121 235.388 130.536C237.501 128.951 248.329 121.293 254.931 116.803C261.534 112.313 264.967 112.841 264.967 115.218C264.967 117.595 259.421 128.687 258.365 132.121C257.308 135.554 253.611 144.797 256.78 148.759C259.949 152.72 266.552 171.735 264.967 177.281C263.382 182.827 264.703 194.448 270.249 204.747C275.795 215.047 289 222.97 289 227.46C289 231.95 279.228 230.893 276.323 233.798C273.418 236.703 281.869 244.362 276.323 244.362C270.777 244.362 271.569 247.795 267.608 250.965C263.646 254.134 278.964 258.623 276.323 259.152C273.682 259.68 259.157 264.434 258.1 269.98C257.044 275.526 255.459 281.336 249.385 298.238C243.311 315.14 243.311 326.233 242.255 341.022C241.198 355.811 219.542 417.61 209.77 423.685C199.999 429.759 138.2 424.477 134.238 420.516C130.277 416.554 82.2112 399.388 82.2112 393.313C82.2112 387.239 70.855 366.111 70.855 350.53C70.855 334.948 76.401 333.099 82.2112 326.233C88.0213 319.366 88.5495 312.764 88.5495 301.671C88.5495 290.579 107.036 267.867 116.544 255.718C126.051 243.57 138.2 242.249 138.2 237.496C138.2 232.742 140.577 226.139 140.577 217.688C140.577 209.237 147.443 198.673 148.764 192.863C150.084 187.053 154.046 183.884 156.159 170.679C158.271 157.474 166.194 158.53 166.194 153.777C166.194 149.023 172.269 140.836 174.91 134.762C177.551 128.687 178.871 120.236 184.417 105.975C189.963 91.7135 193.661 95.1468 198.414 101.485Z" fill="#F1EDED" stroke="#1A1616" stroke-width="3" stroke-linecap="round" stroke-linejoin="round"/>
<path d="M240.67 133.705C240.579 133.692 240.5 133.65 240.449 133.572L235.388 130.536L254.931 116.803C261.534 112.313 264.967 112.841 264.967 115.218L262.854 118.387C263.118 115.482 262.326 115.218 259.157 116.01C255.988 116.803 250.97 121.292 244.896 127.366C240.758 131.504 240.156 133.127 240.449 133.572L240.67 133.705Z" fill="#817171"/>
<path d="M187.322 137.138C189.224 139.04 188.115 143.037 187.322 144.797L174.91 134.762C177.551 128.687 178.871 120.236 184.417 105.975C189.963 91.7135 193.661 95.1468 198.414 101.485C202.217 106.556 199.647 102.277 202.112 108.352L196.566 105.711C193.661 101.749 190.227 99.9006 187.322 106.503C184.417 113.106 182.569 127.103 182.569 129.744C182.569 132.385 184.945 134.762 187.322 137.138Z" fill="#817171"/>
<path d="M131.334 299.559C129.009 287.093 130.365 277.11 131.334 273.677C133.887 267.779 141.211 255.032 150.085 251.229C161.177 246.475 150.085 258.623 155.631 261.264C161.177 263.905 163.025 268.923 170.156 268.923C177.287 268.923 173.325 277.638 181.776 277.374C188.537 277.163 193.925 280.984 195.774 282.92C197.886 287.146 198.943 310.387 198.943 319.366C198.943 328.345 190.227 352.642 190.227 361.886C190.227 371.129 193.661 397.539 193.661 404.934C193.661 412.328 195.245 420.251 195.774 425.269C196.302 430.287 198.415 432.136 198.943 436.361C199.471 440.587 198.415 445.869 193.661 446.661C188.907 447.453 188.379 443.756 181.776 445.077C175.174 446.397 173.853 442.964 168.043 442.436C162.233 441.907 165.138 431.079 164.082 420.251C163.025 409.423 161.177 404.67 161.177 392.785C161.177 380.901 151.141 352.114 150.085 333.891C149.028 315.669 134.239 315.14 131.334 299.559Z" fill="#817171" stroke="#1A1616" stroke-width="3" stroke-linecap="round" stroke-linejoin="round"/>
<path d="M239.35 375.09C239.984 370.02 244.368 329.137 246.48 309.33C242.519 313.996 233.698 324.595 230.106 329.666C225.617 336.004 224.032 339.965 224.032 347.36C224.032 353.276 213.644 362.15 208.45 365.847V384.598C208.45 391.993 212.412 398.595 212.412 405.198C212.412 411.8 214.789 426.061 216.637 430.551C218.486 435.041 224.824 438.738 236.709 439.53C248.593 440.323 254.403 435.305 251.234 426.061C248.065 416.818 242.255 422.628 239.35 408.631C236.445 394.634 238.557 381.429 239.35 375.09Z" fill="#817171" stroke="#1A1616" stroke-width="3" stroke-linecap="round" stroke-linejoin="round"/>
<path d="M164.082 420.251C163.025 409.423 161.177 404.67 161.177 392.785C162.497 395.338 165.719 401.342 168.043 404.934C170.948 409.423 177.022 412.857 178.079 416.554C179.135 420.251 182.833 420.251 185.209 420.251C187.586 420.251 182.833 411.008 185.209 409.423C187.111 408.156 191.636 405.902 193.661 404.934C193.661 412.328 195.245 420.251 195.773 425.269C196.302 430.287 198.414 432.136 198.943 436.361C199.471 440.587 198.414 445.869 193.661 446.661C188.907 447.453 188.379 443.756 181.776 445.077C175.174 446.397 173.853 442.964 168.043 442.436C162.233 441.907 165.138 431.079 164.082 420.251Z" fill="white"/>
<path d="M251.234 426.061C248.065 416.818 242.255 422.628 239.35 408.631C237.413 411.008 231.955 415.762 225.617 415.762C219.278 415.762 214.172 408.719 212.412 405.198C212.412 411.8 214.789 426.061 216.637 430.551C218.486 435.041 224.824 438.738 236.709 439.53C248.593 440.323 254.403 435.305 251.234 426.061Z" fill="white"/>
<path d="M255.46 187.845C255.812 185.997 256.305 181.93 255.46 180.451C254.403 178.602 250.442 174.376 249.65 170.943C248.857 167.51 250.706 163.548 251.234 159.587" stroke="#1A1616" stroke-width="3" stroke-linecap="round" stroke-linejoin="round"/>
<path d="M241.198 187.053C239.966 185.644 237.501 182.141 237.501 179.394C237.501 175.961 235.916 169.622 234.86 164.605C233.804 159.587 233.539 158.794 230.898 156.417" stroke="#1A1616" stroke-width="3" stroke-linecap="round" stroke-linejoin="round"/>
<path fill-rule="evenodd" clip-rule="evenodd" d="M217.165 148.495C217.165 150.607 228.733 151.241 229.578 148.495C230.207 146.45 231.211 148.995 232.199 151.499C232.87 153.201 233.533 154.884 234.068 155.097C234.562 155.295 234.575 154.011 234.592 152.327C234.62 149.515 234.66 145.589 236.973 145.589C239.078 145.589 239.642 147.217 240.128 148.618C240.495 149.677 240.817 150.607 241.726 150.607C243.417 150.607 244.191 145.501 244.367 142.948C245.512 144.885 247.906 148.336 248.329 146.646C248.857 144.533 245.424 136.082 242.783 134.497C240.142 132.913 219.014 127.103 217.165 127.367C215.521 127.601 215.548 130.551 215.574 133.43L215.574 133.431C215.577 133.789 215.581 134.146 215.581 134.497C215.581 136.021 216.557 137.178 217.572 138.38C218.667 139.678 219.806 141.029 219.806 142.948C219.806 144.551 219.031 145.425 218.32 146.226C217.719 146.903 217.165 147.527 217.165 148.495ZM212.94 160.115C211.531 158.707 207.711 156.312 203.696 158.002C203.153 158.231 202.601 158.463 202.046 158.695C197.474 160.614 192.725 162.606 191.548 163.548C191.212 163.817 190.738 164.343 190.167 164.977C188.496 166.835 185.987 169.623 183.625 169.623C180.456 169.623 184.417 173.32 192.604 169.623C196.629 167.805 198.739 165.924 200.252 164.574C201.817 163.179 202.743 162.353 204.489 162.756C207.235 163.39 211.267 161.259 212.94 160.115ZM230.634 176.753C227.289 175.52 220.018 172.369 217.694 169.622C215.369 166.876 213.908 168.478 213.468 169.622C212.324 168.214 209.771 165.502 208.714 165.925C207.394 166.453 205.809 169.358 208.714 171.207C209.958 171.999 209.604 171.87 208.772 171.568C207.66 171.165 205.696 170.452 205.545 171.207C205.407 171.896 207.717 173.522 210.182 175.256L210.182 175.256L210.182 175.256L210.182 175.256C212.438 176.844 214.824 178.522 215.581 179.658C216.577 181.153 214.337 180.872 212.077 180.589H212.077H212.077C210.742 180.422 209.4 180.254 208.714 180.45C206.866 180.979 216.637 184.676 218.486 184.676C219.286 184.676 220.483 183.636 221.84 182.457C223.617 180.913 225.668 179.13 227.465 179.13C230.001 179.13 230.634 177.545 230.634 176.753ZM254.139 177.281C255.107 177.105 257.361 176.753 258.629 176.753C259.896 176.753 261.27 178.162 261.798 178.866H256.516C255.248 178.866 254.403 177.809 254.139 177.281ZM263.383 167.51C263.383 166.453 260.389 167.069 258.893 167.51C258.893 167.95 259.104 168.83 259.949 168.83C260.568 168.83 261.187 169.827 261.7 170.653C262.062 171.237 262.371 171.735 262.59 171.735C263.118 171.735 263.383 168.83 263.383 167.51Z" fill="#9A8989"/>
<path d="M229.578 148.495L231.012 148.936L229.578 148.495ZM232.199 151.499L233.594 150.949L232.199 151.499ZM234.068 155.097L234.625 153.704L234.625 153.704L234.068 155.097ZM234.592 152.327L233.092 152.312L234.592 152.327ZM240.128 148.618L238.71 149.109V149.109L240.128 148.618ZM244.367 142.948L245.659 142.185C245.325 141.62 244.661 141.337 244.022 141.489C243.383 141.64 242.916 142.19 242.871 142.845L244.367 142.948ZM248.329 146.646L246.874 146.282L246.874 146.282L248.329 146.646ZM242.783 134.497L243.555 133.211V133.211L242.783 134.497ZM217.165 127.367L217.377 128.852L217.165 127.367ZM215.574 133.43L214.074 133.444L214.074 133.452L215.574 133.43ZM215.574 133.431L217.074 133.417L217.074 133.409L215.574 133.431ZM217.572 138.38L218.718 137.413L217.572 138.38ZM218.32 146.226L217.198 145.23V145.23L218.32 146.226ZM203.696 158.002L204.278 159.385H204.278L203.696 158.002ZM212.94 160.115L213.787 161.353C214.155 161.101 214.392 160.698 214.433 160.254C214.475 159.81 214.316 159.37 214 159.054L212.94 160.115ZM202.046 158.695L201.466 157.312H201.466L202.046 158.695ZM191.548 163.548L190.611 162.377H190.611L191.548 163.548ZM190.167 164.977L191.282 165.981L191.282 165.981L190.167 164.977ZM192.604 169.623L193.222 170.99H193.222L192.604 169.623ZM200.252 164.574L201.25 165.694L200.252 164.574ZM204.489 162.756L204.151 164.218H204.151L204.489 162.756ZM217.694 169.622L216.548 170.591L217.694 169.622ZM230.634 176.753H232.134C232.134 176.124 231.743 175.563 231.153 175.345L230.634 176.753ZM213.468 169.622L212.304 170.568C212.641 170.984 213.175 171.188 213.703 171.104C214.232 171.02 214.676 170.66 214.868 170.161L213.468 169.622ZM208.714 165.925L209.271 167.318H209.271L208.714 165.925ZM208.714 171.207L207.909 172.472L208.714 171.207ZM208.772 171.568L208.26 172.978H208.26L208.772 171.568ZM205.545 171.207L207.016 171.501V171.501L205.545 171.207ZM210.182 175.256L211.119 174.085C211.095 174.066 211.07 174.047 211.045 174.029L210.182 175.256ZM210.182 175.256L209.245 176.427C209.306 176.476 209.37 176.52 209.438 176.559L210.182 175.256ZM210.182 175.256L211.058 174.039C211.016 174.008 210.972 173.98 210.926 173.954L210.182 175.256ZM210.182 175.256L209.306 176.474C209.31 176.477 209.314 176.48 209.319 176.483L210.182 175.256ZM215.581 179.658L216.829 178.826V178.826L215.581 179.658ZM212.077 180.589L212.263 179.101C212.201 179.093 212.139 179.089 212.077 179.089V180.589ZM212.077 180.589L211.89 182.078C211.952 182.085 212.014 182.089 212.077 182.089V180.589ZM208.714 180.45L209.126 181.893L208.714 180.45ZM221.84 182.457L222.824 183.589L221.84 182.457ZM254.139 177.281L253.871 175.805C253.406 175.89 253.009 176.188 252.798 176.61C252.586 177.033 252.586 177.53 252.798 177.952L254.139 177.281ZM261.798 178.866V180.366C262.366 180.366 262.886 180.045 263.14 179.537C263.394 179.028 263.339 178.42 262.998 177.966L261.798 178.866ZM258.893 167.51L258.47 166.07C257.831 166.258 257.393 166.844 257.393 167.51H258.893ZM261.7 170.653L262.974 169.862L261.7 170.653ZM228.144 148.054C228.187 147.914 228.249 147.951 228.023 148.088C227.805 148.221 227.445 148.367 226.926 148.493C225.894 148.745 224.512 148.855 223.094 148.818C221.677 148.78 220.338 148.599 219.398 148.33C218.917 148.193 218.633 148.058 218.502 147.97C218.332 147.855 218.665 148.008 218.665 148.495H215.665C215.665 149.51 216.36 150.144 216.826 150.458C217.331 150.798 217.957 151.038 218.574 151.215C219.829 151.573 221.434 151.775 223.015 151.816C224.595 151.858 226.263 151.743 227.638 151.408C228.322 151.241 229.005 151.002 229.581 150.652C230.15 150.306 230.757 149.762 231.012 148.936L228.144 148.054ZM233.594 150.949C233.129 149.769 232.568 148.325 232.01 147.471C231.862 147.245 231.664 146.979 231.409 146.756C231.171 146.548 230.697 146.219 230.04 146.251C229.33 146.286 228.868 146.714 228.624 147.042C228.389 147.36 228.244 147.728 228.144 148.054L231.012 148.936C231.069 148.75 231.093 148.75 231.037 148.826C230.973 148.912 230.7 149.222 230.188 149.248C229.729 149.27 229.462 149.038 229.437 149.017C229.396 148.981 229.419 148.99 229.498 149.111C229.846 149.644 230.281 150.725 230.803 152.05L233.594 150.949ZM234.625 153.704C234.935 153.828 235.007 154.018 234.879 153.833C234.797 153.712 234.682 153.509 234.537 153.207C234.249 152.606 233.936 151.816 233.594 150.949L230.803 152.05C231.132 152.884 231.487 153.786 231.832 154.505C232.004 154.863 232.197 155.227 232.41 155.536C232.578 155.779 232.934 156.259 233.51 156.49L234.625 153.704ZM233.092 152.312C233.083 153.196 233.074 153.827 233.022 154.221C232.991 154.455 232.969 154.38 233.068 154.215C233.131 154.11 233.307 153.861 233.665 153.715C234.056 153.555 234.414 153.62 234.625 153.704L233.51 156.49C233.845 156.624 234.311 156.692 234.798 156.493C235.251 156.308 235.51 155.978 235.643 155.754C235.884 155.351 235.96 154.888 235.996 154.615C236.078 153.995 236.084 153.142 236.092 152.342L233.092 152.312ZM236.973 144.089C235.893 144.089 235.041 144.58 234.457 145.31C233.924 145.978 233.636 146.811 233.463 147.572C233.118 149.093 233.106 150.952 233.092 152.312L236.092 152.342C236.107 150.891 236.129 149.381 236.389 148.236C236.518 147.664 236.676 147.339 236.801 147.183C236.876 147.09 236.896 147.089 236.973 147.089V144.089ZM241.545 148.127C241.321 147.479 240.984 146.462 240.33 145.642C239.59 144.715 238.496 144.089 236.973 144.089V147.089C237.555 147.089 237.796 147.277 237.986 147.514C238.261 147.859 238.449 148.356 238.71 149.109L241.545 148.127ZM241.726 149.107C241.773 149.107 241.862 149.125 241.947 149.178C242.015 149.221 242.019 149.25 241.977 149.186C241.933 149.119 241.872 149.004 241.794 148.811C241.716 148.618 241.64 148.4 241.545 148.127L238.71 149.109C238.874 149.581 239.106 150.28 239.471 150.835C239.895 151.48 240.618 152.107 241.726 152.107V149.107ZM242.871 142.845C242.787 144.066 242.559 145.877 242.166 147.348C241.966 148.094 241.749 148.654 241.543 148.995C241.295 149.406 241.319 149.107 241.726 149.107V152.107C242.979 152.107 243.734 151.17 244.112 150.545C244.532 149.848 244.837 148.972 245.064 148.123C245.524 146.402 245.772 144.384 245.864 143.052L242.871 142.845ZM246.874 146.282C246.874 146.281 246.878 146.265 246.888 146.239C246.899 146.213 246.917 146.172 246.948 146.122C247.01 146.019 247.128 145.874 247.324 145.759C247.759 145.503 248.149 145.622 248.231 145.653C248.307 145.683 248.287 145.692 248.162 145.586C248.052 145.492 247.91 145.352 247.74 145.16C247.041 144.374 246.214 143.124 245.659 142.185L243.076 143.712C243.665 144.709 244.608 146.153 245.498 147.154C245.725 147.409 245.969 147.659 246.221 147.873C246.458 148.074 246.776 148.308 247.154 148.453C247.538 148.601 248.193 148.728 248.845 148.345C249.454 147.986 249.688 147.394 249.784 147.01L246.874 146.282ZM242.011 135.784C242.366 135.996 242.923 136.578 243.582 137.587C244.21 138.549 244.833 139.742 245.369 140.973C245.906 142.204 246.339 143.432 246.605 144.456C246.737 144.968 246.822 145.404 246.86 145.748C246.879 145.919 246.885 146.052 246.883 146.151C246.881 146.255 246.871 146.292 246.874 146.282L249.784 147.01C249.914 146.489 249.897 145.917 249.841 145.417C249.783 144.888 249.665 144.304 249.509 143.703C249.196 142.497 248.705 141.118 248.119 139.774C247.534 138.43 246.835 137.081 246.093 135.946C245.383 134.859 244.52 133.79 243.555 133.211L242.011 135.784ZM217.377 128.852C217.287 128.864 217.31 128.849 217.564 128.877C217.774 128.9 218.06 128.943 218.423 129.009C219.147 129.139 220.106 129.344 221.236 129.607C223.492 130.134 226.368 130.879 229.277 131.684C232.185 132.49 235.111 133.35 237.468 134.106C238.647 134.484 239.673 134.832 240.477 135.131C241.318 135.444 241.815 135.666 242.011 135.784L243.555 133.211C243.09 132.933 242.349 132.626 241.522 132.319C240.659 131.998 239.586 131.634 238.384 131.249C235.978 130.478 233.012 129.605 230.077 128.793C227.143 127.981 224.225 127.224 221.917 126.686C220.765 126.417 219.75 126.199 218.954 126.056C218.557 125.985 218.198 125.929 217.894 125.895C217.633 125.866 217.275 125.836 216.953 125.882L217.377 128.852ZM217.074 133.416C217.061 131.93 217.054 130.627 217.221 129.663C217.305 129.184 217.41 128.93 217.481 128.82C217.519 128.761 217.474 128.838 217.377 128.852L216.953 125.882C216.035 126.013 215.377 126.547 214.958 127.196C214.573 127.795 214.378 128.503 214.266 129.15C214.042 130.44 214.062 132.051 214.074 133.444L217.074 133.416ZM217.074 133.409L217.074 133.408L214.074 133.452L214.074 133.453L217.074 133.409ZM217.081 134.497C217.081 134.139 217.077 133.774 217.074 133.417L214.074 133.444C214.078 133.804 214.081 134.154 214.081 134.497H217.081ZM218.718 137.413C217.622 136.114 217.081 135.378 217.081 134.497H214.081C214.081 136.664 215.492 138.242 216.425 139.347L218.718 137.413ZM221.306 142.948C221.306 140.401 219.76 138.647 218.718 137.413L216.425 139.347C217.574 140.709 218.306 141.656 218.306 142.948H221.306ZM219.442 147.222C220.169 146.402 221.306 145.156 221.306 142.948H218.306C218.306 143.947 217.892 144.448 217.198 145.23L219.442 147.222ZM218.665 148.495C218.665 148.175 218.79 147.957 219.442 147.222L217.198 145.23C216.649 145.849 215.665 146.879 215.665 148.495H218.665ZM204.278 159.385C205.866 158.716 207.432 158.84 208.806 159.315C210.204 159.797 211.32 160.617 211.879 161.176L214 159.054C213.151 158.205 211.652 157.123 209.784 156.479C207.893 155.826 205.541 155.598 203.114 156.62L204.278 159.385ZM202.627 160.079C203.181 159.846 203.734 159.614 204.278 159.385L203.114 156.62C202.572 156.848 202.021 157.079 201.466 157.312L202.627 160.079ZM192.485 164.72C192.649 164.588 193.045 164.346 193.725 163.998C194.375 163.665 195.195 163.28 196.138 162.856C198.024 162.01 200.335 161.04 202.627 160.079L201.466 157.312C199.185 158.269 196.836 159.255 194.909 160.12C193.946 160.552 193.073 160.961 192.358 161.327C191.674 161.677 191.035 162.038 190.611 162.377L192.485 164.72ZM191.282 165.981C191.899 165.296 192.27 164.892 192.485 164.72L190.611 162.377C190.153 162.743 189.578 163.39 189.052 163.974L191.282 165.981ZM183.625 171.123C185.352 171.123 186.918 170.132 188.107 169.156C189.34 168.143 190.459 166.895 191.282 165.981L189.052 163.974C188.204 164.917 187.233 165.992 186.203 166.837C185.13 167.719 184.26 168.123 183.625 168.123V171.123ZM191.987 168.255C188.126 169.999 185.459 169.907 184.268 169.567C183.971 169.482 183.815 169.396 183.763 169.36C183.651 169.284 183.931 169.421 184.014 169.869C184.065 170.142 184.019 170.447 183.862 170.711C183.719 170.949 183.541 171.061 183.462 171.103C183.329 171.172 183.331 171.123 183.625 171.123V168.123C183.126 168.123 182.559 168.188 182.068 168.446C181.81 168.581 181.506 168.806 181.288 169.168C181.056 169.556 180.987 169.998 181.065 170.416C181.202 171.153 181.736 171.608 182.067 171.835C182.457 172.102 182.932 172.305 183.444 172.451C185.488 173.035 188.895 172.943 193.222 170.99L191.987 168.255ZM199.254 163.455C197.783 164.766 195.807 166.53 191.987 168.255L193.222 170.99C197.451 169.08 199.694 167.081 201.25 165.694L199.254 163.455ZM204.826 161.294C203.618 161.016 202.587 161.16 201.619 161.656C200.765 162.093 199.988 162.8 199.254 163.455L201.25 165.694C202.081 164.953 202.549 164.55 202.986 164.326C203.308 164.161 203.614 164.094 204.151 164.218L204.826 161.294ZM212.093 158.877C211.339 159.393 210.017 160.153 208.581 160.701C207.093 161.27 205.75 161.508 204.826 161.294L204.151 164.218C205.974 164.638 208.02 164.127 209.652 163.504C211.338 162.859 212.868 161.982 213.787 161.353L212.093 158.877ZM216.548 170.591C217.928 172.222 220.585 173.813 223.101 175.092C225.689 176.409 228.398 177.528 230.116 178.16L231.153 175.345C229.525 174.746 226.926 173.673 224.461 172.418C221.924 171.128 219.783 169.769 218.839 168.653L216.548 170.591ZM214.868 170.161C214.925 170.012 215.014 169.857 215.115 169.742C215.215 169.628 215.277 169.608 215.281 169.607C215.281 169.607 215.287 169.605 215.306 169.606C215.327 169.609 215.385 169.618 215.484 169.664C215.693 169.76 216.054 170.007 216.548 170.591L218.839 168.653C217.529 167.106 216.023 166.281 214.468 166.719C213.088 167.108 212.358 168.329 212.068 169.084L214.868 170.161ZM209.271 167.318C208.864 167.48 208.676 167.257 209.035 167.449C209.294 167.588 209.648 167.846 210.069 168.215C210.899 168.942 211.765 169.905 212.304 170.568L214.632 168.676C214.027 167.931 213.044 166.834 212.047 165.959C211.555 165.527 211.001 165.098 210.449 164.803C209.996 164.562 209.092 164.158 208.157 164.532L209.271 167.318ZM209.52 169.941C209 169.611 208.775 169.296 208.675 169.069C208.574 168.841 208.554 168.604 208.602 168.356C208.652 168.096 208.776 167.838 208.938 167.628C209.017 167.525 209.096 167.446 209.163 167.391C209.233 167.334 209.273 167.317 209.271 167.318L208.157 164.532C207.513 164.79 206.964 165.272 206.56 165.799C206.144 166.339 205.805 167.022 205.657 167.786C205.507 168.561 205.554 169.43 205.931 170.283C206.309 171.137 206.976 171.879 207.909 172.472L209.52 169.941ZM208.26 172.978C208.457 173.05 208.666 173.126 208.829 173.178C208.905 173.203 209.019 173.238 209.137 173.263C209.191 173.274 209.303 173.296 209.441 173.301C209.51 173.304 209.63 173.304 209.776 173.278C209.907 173.255 210.177 173.189 210.447 172.978C210.766 172.728 210.982 172.351 211.02 171.922C211.052 171.558 210.945 171.281 210.884 171.149C210.768 170.898 210.608 170.737 210.569 170.698C210.453 170.58 210.326 170.485 210.253 170.431C210.08 170.304 209.832 170.14 209.52 169.941L207.909 172.472C208.218 172.669 208.392 172.787 208.477 172.849C208.532 172.889 208.493 172.866 208.429 172.8C208.415 172.786 208.271 172.646 208.162 172.411C208.105 172.288 208 172.017 208.031 171.659C208.068 171.236 208.282 170.863 208.596 170.617C208.861 170.409 209.125 170.347 209.247 170.325C209.384 170.301 209.494 170.301 209.551 170.303C209.663 170.307 209.743 170.325 209.758 170.328C209.797 170.336 209.803 170.34 209.749 170.323C209.65 170.291 209.503 170.238 209.283 170.158L208.26 172.978ZM207.016 171.501C206.962 171.772 206.803 172.026 206.573 172.195C206.379 172.339 206.21 172.367 206.177 172.372C206.131 172.379 206.214 172.364 206.494 172.422C207.017 172.53 207.678 172.767 208.26 172.978L209.283 170.158C208.753 169.966 207.877 169.645 207.102 169.484C206.734 169.408 206.228 169.331 205.736 169.404C205.48 169.442 205.125 169.535 204.79 169.783C204.419 170.057 204.166 170.453 204.074 170.913L207.016 171.501ZM211.045 174.029C209.797 173.151 208.654 172.346 207.836 171.678C207.423 171.34 207.153 171.086 207.006 170.913C206.932 170.826 206.932 170.81 206.955 170.857C206.971 170.89 207.089 171.138 207.016 171.501L204.074 170.913C203.967 171.448 204.127 171.898 204.252 172.158C204.384 172.433 204.562 172.671 204.723 172.86C205.048 173.24 205.484 173.63 205.939 174.001C206.858 174.752 208.102 175.627 209.319 176.483L211.045 174.029ZM211.119 174.085L211.119 174.085L209.245 176.427L209.245 176.427L211.119 174.085ZM210.926 173.954L210.926 173.954L209.438 176.559L209.438 176.559L210.926 173.954ZM211.059 174.039L211.058 174.039L209.305 176.473L209.306 176.474L211.059 174.039ZM216.829 178.826C216.299 178.032 215.328 177.196 214.367 176.444C213.358 175.657 212.165 174.818 211.045 174.03L209.319 176.483C210.455 177.282 211.582 178.076 212.52 178.809C213.504 179.578 214.105 180.149 214.333 180.49L216.829 178.826ZM211.89 182.078C212.934 182.208 214.278 182.387 215.219 182.281C215.475 182.252 215.784 182.194 216.088 182.066C216.393 181.938 216.795 181.693 217.065 181.233C217.65 180.235 217.115 179.256 216.829 178.826L214.333 180.49C214.402 180.595 214.37 180.578 214.344 180.461C214.312 180.316 214.297 180.022 214.477 179.715C214.642 179.434 214.863 179.327 214.923 179.302C214.983 179.277 214.984 179.288 214.881 179.3C214.674 179.323 214.333 179.319 213.842 179.278C213.367 179.239 212.835 179.173 212.263 179.101L211.89 182.078ZM212.077 182.089H212.077V179.089H212.077V182.089ZM212.077 182.089H212.077V179.089H212.077V182.089ZM209.126 181.893C209.125 181.893 209.147 181.887 209.197 181.88C209.246 181.874 209.313 181.868 209.398 181.865C209.572 181.858 209.79 181.863 210.055 181.88C210.589 181.915 211.211 181.993 211.89 182.078L212.263 179.101C211.607 179.019 210.891 178.929 210.25 178.887C209.657 178.848 208.918 178.832 208.302 179.008L209.126 181.893ZM218.486 183.176C218.488 183.176 218.472 183.176 218.434 183.172C218.397 183.169 218.348 183.163 218.285 183.153C218.157 183.133 217.995 183.1 217.798 183.055C217.404 182.963 216.915 182.828 216.363 182.657C215.259 182.316 213.962 181.852 212.777 181.371C211.572 180.883 210.561 180.409 209.986 180.055C209.848 179.97 209.761 179.908 209.715 179.871C209.649 179.818 209.719 179.858 209.803 179.994C209.885 180.127 210.154 180.662 209.826 181.284C209.688 181.547 209.498 181.7 209.374 181.778C209.253 181.854 209.157 181.884 209.126 181.893L208.302 179.008C208.078 179.072 207.496 179.27 207.172 179.886C206.785 180.62 207.076 181.289 207.252 181.573C207.43 181.861 207.665 182.071 207.827 182.202C208.009 182.349 208.212 182.486 208.416 182.612C209.211 183.1 210.412 183.65 211.65 184.151C212.908 184.661 214.285 185.155 215.476 185.523C216.071 185.707 216.634 185.864 217.121 185.977C217.574 186.082 218.071 186.176 218.486 186.176V183.176ZM220.856 181.324C220.161 181.929 219.58 182.431 219.081 182.789C218.835 182.965 218.65 183.076 218.517 183.138C218.374 183.206 218.378 183.176 218.486 183.176V186.176C218.994 186.176 219.448 186.016 219.796 185.852C220.156 185.682 220.505 185.459 220.828 185.228C221.466 184.771 222.163 184.164 222.824 183.589L220.856 181.324ZM227.465 177.63C226.11 177.63 224.838 178.284 223.814 178.966C222.76 179.667 221.729 180.566 220.856 181.324L222.824 183.589C223.729 182.803 224.612 182.039 225.476 181.463C226.371 180.867 227.024 180.63 227.465 180.63V177.63ZM229.134 176.753C229.134 176.753 229.134 176.758 229.133 176.768C229.132 176.777 229.131 176.791 229.128 176.807C229.122 176.84 229.111 176.88 229.094 176.925C229.06 177.013 229.005 177.11 228.918 177.2C228.775 177.35 228.401 177.63 227.465 177.63V180.63C229.065 180.63 230.276 180.118 231.083 179.277C231.853 178.475 232.134 177.495 232.134 176.753H229.134ZM258.629 175.253C257.209 175.253 254.831 175.631 253.871 175.805L254.407 178.757C255.384 178.58 257.513 178.253 258.629 178.253V175.253ZM262.998 177.966C262.666 177.523 262.099 176.894 261.41 176.36C260.762 175.858 259.77 175.253 258.629 175.253V178.253C258.755 178.253 259.084 178.353 259.572 178.731C260.018 179.077 260.402 179.504 260.598 179.766L262.998 177.966ZM256.516 180.366H261.798V177.366H256.516V180.366ZM252.798 177.952C253.017 178.39 253.422 178.958 254 179.432C254.591 179.916 255.444 180.366 256.516 180.366V177.366C256.32 177.366 256.117 177.288 255.902 177.112C255.675 176.925 255.526 176.701 255.481 176.61L252.798 177.952ZM259.316 168.949C260.016 168.743 261.029 168.509 261.822 168.443C262.014 168.427 262.173 168.423 262.299 168.428C262.361 168.43 262.409 168.435 262.444 168.44C262.479 168.444 262.494 168.448 262.492 168.448C262.491 168.448 262.461 168.439 262.413 168.415C262.364 168.389 262.284 168.341 262.199 168.257C261.995 168.057 261.883 167.776 261.883 167.51H264.883C264.883 166.979 264.677 166.486 264.303 166.119C263.97 165.791 263.58 165.636 263.291 165.556C262.726 165.4 262.09 165.411 261.576 165.453C260.498 165.542 259.267 165.836 258.47 166.07L259.316 168.949ZM259.949 167.33C260.013 167.33 260.126 167.351 260.241 167.425C260.344 167.492 260.391 167.564 260.404 167.586C260.415 167.606 260.409 167.601 260.401 167.567C260.394 167.534 260.393 167.508 260.393 167.51H257.393C257.393 167.911 257.48 168.52 257.804 169.084C258.172 169.722 258.883 170.33 259.949 170.33V167.33ZM262.974 169.862C262.732 169.472 262.392 168.918 262.013 168.467C261.82 168.238 261.572 167.978 261.268 167.767C260.965 167.557 260.514 167.33 259.949 167.33V170.33C259.822 170.33 259.721 170.304 259.655 170.279C259.592 170.256 259.559 170.233 259.556 170.231C259.552 170.228 259.567 170.238 259.598 170.268C259.628 170.297 259.668 170.339 259.716 170.397C259.929 170.651 260.154 171.007 260.425 171.444L262.974 169.862ZM262.59 170.235C262.85 170.235 263.048 170.309 263.165 170.366C263.28 170.423 263.353 170.482 263.384 170.507C263.438 170.554 263.443 170.571 263.394 170.506C263.351 170.45 263.295 170.369 263.22 170.253C263.146 170.138 263.066 170.01 262.974 169.862L260.425 171.444C260.593 171.714 260.802 172.054 261.004 172.32C261.105 172.452 261.251 172.631 261.436 172.789C261.583 172.915 261.99 173.235 262.59 173.235V170.235ZM261.883 167.51C261.883 168.099 261.821 169.082 261.701 169.898C261.639 170.315 261.572 170.615 261.516 170.78C261.485 170.873 261.486 170.834 261.55 170.744C261.582 170.698 261.912 170.235 262.59 170.235V173.235C263.401 173.235 263.854 172.682 264.002 172.472C264.182 172.217 264.29 171.941 264.358 171.741C264.5 171.32 264.598 170.812 264.668 170.337C264.812 169.37 264.883 168.24 264.883 167.51H261.883Z" fill="#1A1616"/>
<path d="M187.322 144.797C188.115 143.037 189.224 139.04 187.322 137.139C184.945 134.762 182.569 132.385 182.569 129.744C182.569 127.103 184.417 113.106 187.322 106.503C190.227 99.9007 193.661 101.749 196.566 105.711" stroke="#1A1616" stroke-width="3" stroke-linecap="round" stroke-linejoin="round"/>
<path d="M240.67 133.705C240.054 133.617 240.036 132.226 244.896 127.367C250.97 121.293 255.988 116.803 259.157 116.011C262.326 115.218 263.118 115.482 262.854 118.388" stroke="#1A1616" stroke-width="3" stroke-linecap="round" stroke-linejoin="round"/>
<path d="M233.275 131.328C235.212 131.504 239.931 132.437 243.311 134.761" stroke="#1A1616" stroke-width="3" stroke-linecap="round" stroke-linejoin="round"/>
<path d="M259.949 187.845C259.773 191.807 258.84 200.047 256.516 201.314C253.611 202.899 248.857 206.332 246.744 207.653C244.631 208.973 238.029 216.368 232.747 216.368C227.465 216.368 221.127 212.406 218.222 210.029" stroke="#1A1616" stroke-width="3" stroke-linecap="round" stroke-linejoin="round"/>
<path d="M247.272 196.561C246.656 197.353 245.424 199.096 245.424 199.73M245.424 199.73C245.424 200.364 246.656 202.635 247.272 203.691M245.424 199.73C242.519 200.874 236.127 203.163 233.803 203.163C230.898 203.163 226.673 204.483 223.24 201.578" stroke="#1A1616" stroke-width="3" stroke-linecap="round" stroke-linejoin="round"/>
<path d="M246.48 191.807C246.058 190.539 241.462 188.638 241.727 187.581C241.991 186.525 245.001 186.789 246.48 185.733C248.329 184.412 251.498 182.563 253.347 183.62C255.196 184.676 255.196 186.789 254.667 188.902C254.139 191.014 248.593 196.825 247.537 196.825C246.48 196.825 247.008 193.391 246.48 191.807Z" fill="#817171" stroke="#1A1616" stroke-width="3" stroke-linecap="round" stroke-linejoin="round"/>
<path d="M245.688 188.373C244.843 188.373 243.399 187.669 242.783 187.317C242.431 187.317 241.726 187.423 241.726 187.845C241.726 188.373 245.688 191.014 246.216 191.014C246.744 191.014 248.329 190.222 248.329 189.43C248.329 188.637 246.744 188.373 245.688 188.373Z" stroke="#1A1616" stroke-width="3" stroke-linecap="round" stroke-linejoin="round"/>
<path d="M247.272 196.297C247.625 195.68 248.54 194.078 249.385 192.599C250.442 190.75 251.762 189.694 251.762 188.638" stroke="#1A1616" stroke-width="3" stroke-linecap="round" stroke-linejoin="round"/>
<path d="M141.897 421.044C138.517 423.79 135.295 424.741 135.295 430.551C135.295 436.362 145.278 440.059 149.292 440.059C154.31 440.059 162.761 440.059 164.874 435.305C166.987 430.551 163.817 418.667 160.12 418.667C156.423 418.667 146.123 417.611 141.897 421.044Z" stroke="#1A1616" stroke-width="3" stroke-linecap="round" stroke-linejoin="round"/>
<path d="M131.334 273.677C130.365 277.111 129.009 287.093 131.334 299.559C134.239 315.141 149.028 315.669 150.085 333.892C151.141 352.114 161.177 380.901 161.177 392.785C161.177 404.67 163.025 409.424 164.082 420.252C165.138 431.08 162.233 441.908 168.043 442.436C173.853 442.964 175.174 446.397 181.776 445.077C188.379 443.756 188.907 447.454 193.661 446.661C198.415 445.869 199.471 440.587 198.943 436.362C198.415 432.136 196.302 430.287 195.774 425.269C195.245 420.252 193.661 412.329 193.661 404.934C193.661 397.539 190.227 371.129 190.227 361.886C190.227 352.643 198.943 328.346 198.943 319.366C198.943 310.387 197.886 287.146 195.774 282.921" stroke="#1A1616" stroke-width="3" stroke-linecap="round" stroke-linejoin="round"/>
<path d="M246.48 309.33C244.368 329.137 239.984 370.02 239.35 375.09C238.557 381.429 236.445 394.634 239.35 408.631C242.255 422.628 248.065 416.818 251.234 426.061C254.403 435.305 248.593 440.323 236.709 439.53C224.824 438.738 218.486 435.041 216.637 430.551C214.789 426.061 212.412 411.8 212.412 405.198C212.412 398.595 208.45 391.993 208.45 384.598C208.45 377.203 208.45 376.411 208.45 365.847" stroke="#1A1616" stroke-width="3" stroke-linecap="round" stroke-linejoin="round"/>
<path d="M229.842 190.486C226.321 189.87 217.905 188.268 212.412 186.789C205.545 184.94 188.643 184.148 181.512 185.468M223.768 192.071C215.053 192.687 195.879 194.447 188.907 196.56C180.192 199.201 167.251 211.35 165.666 216.103M226.673 196.56C218.838 198.673 201.742 204.219 196.038 209.501C190.333 214.783 186.442 224.202 185.21 228.252M225.352 198.409C220.599 201.138 210.088 207.758 206.073 212.406C201.055 218.216 194.189 225.083 193.132 229.837M221.127 194.447C211.971 197 192.446 202.846 187.586 205.804C182.727 208.762 177.815 213.198 175.966 215.047M258.629 196.56C261.71 197.529 268.876 200.099 272.89 202.634C277.908 205.804 281.605 209.501 286.095 209.501M258.629 198.409C263.471 199.817 274.316 202.634 278.964 202.634C283.612 202.634 285.303 203.339 285.567 203.691M258.629 200.258C261.974 200.962 269.245 202.846 271.57 204.747C274.475 207.124 278.964 210.822 278.964 212.406M258.629 202.634C262.766 204.307 271.622 208.022 273.946 209.501" stroke="#1A1616" stroke-width="3" stroke-linecap="round" stroke-linejoin="round"/>
<path d="M91.9829 318.045C99.8178 324.384 115.699 340.494 116.544 354.227" stroke="#1A1616" stroke-width="3" stroke-linecap="round" stroke-linejoin="round"/>
<path d="M66.3655 409.424C71.8587 402.24 79.2183 390.408 82.2114 385.391C88.9899 390.497 102.388 402.451 101.755 409.424C100.962 418.139 123.939 422.1 147.972 422.1C172.005 422.1 228.522 437.946 246.744 434.777C264.967 431.608 300.62 445.605 281.077 465.148C261.534 484.691 232.219 452.736 136.087 450.623C39.9557 448.51 59.4989 418.403 66.3655 409.424Z" fill="#5F4E4E" stroke="#1A1616" stroke-width="3" stroke-linecap="round" stroke-linejoin="round"/>
<path d="M156.159 170.679C158.271 157.474 166.194 158.53 166.194 153.777C166.194 149.023 172.269 140.836 174.91 134.762C177.551 128.687 178.871 120.236 184.417 105.975C189.963 91.7135 193.661 95.1468 198.414 101.485C202.217 106.556 208.098 119.972 210.563 126.046C211.443 126.31 213.574 126.839 215.053 126.839C216.901 126.839 222.447 128.423 225.352 128.951C228.257 129.48 233.275 132.121 235.388 130.536C237.501 128.951 248.329 121.293 254.931 116.803C261.534 112.313 264.967 112.841 264.967 115.218C264.967 117.595 259.421 128.687 258.365 132.121C257.308 135.554 253.611 144.797 256.78 148.759C259.949 152.72 266.552 171.735 264.967 177.281" stroke="#1A1616" stroke-width="3" stroke-linecap="round" stroke-linejoin="round"/>
<defs>
<filter id="filter0_d" x="0" y="0" width="391" height="592" filterUnits="userSpaceOnUse" color-interpolation-filters="sRGB">
<feFlood flood-opacity="0" result="BackgroundImageFix"/>
<feColorMatrix in="SourceAlpha" type="matrix" values="0 0 0 0 0 0 0 0 0 0 0 0 0 0 0 0 0 0 127 0"/>
<feMorphology radius="3" operator="dilate" in="SourceAlpha" result="effect1_dropShadow"/>
<feOffset dy="6"/>
<feGaussianBlur stdDeviation="4"/>
<feColorMatrix type="matrix" values="0 0 0 0 0.279463 0 0 0 0 0.0711028 0 0 0 0 0.0740583 0 0 0 0.05 0"/>
<feBlend mode="normal" in2="BackgroundImageFix" result="effect1_dropShadow"/>
<feBlend mode="normal" in="SourceGraphic" in2="effect1_dropShadow" result="shape"/>
</filter>
<clipPath id="clip0">
<path d="M11 22.324C11 12.7562 18.7562 5 28.3239 5H362.676C372.244 5 380 12.7562 380 22.3239V557.676C380 567.244 372.244 575 362.676 575H28.3239C18.7562 575 11 567.244 11 557.676V22.324Z" fill="white"/>
</clipPath>
</defs>
</svg>
