<svg width="391" height="592" viewBox="0 0 391 592" fill="none" xmlns="http://www.w3.org/2000/svg">
<g filter="url(#filter0_d)">
<g clip-path="url(#clip0)">
<path d="M11 22.324C11 12.7562 18.7562 5 28.3239 5H362.676C372.244 5 380 12.7562 380 22.3239V557.676C380 567.244 372.244 575 362.676 575H28.3239C18.7562 575 11 567.244 11 557.676V22.324Z" fill="white"/>
<path d="M51.705 36.6857V64.7734H56.6732V72H34.937V64.7734H40.611V36.6857H34.937V29.4591H57.0967V36.6857H51.705ZM76.4617 36.6857L64.4362 48.3442L78.4095 64.7734H82.8132V72H59.976V64.7734H64.9443L52.0719 49.671L65.9323 36.6857H60.8511V29.4591H81.6558V36.6857H76.4617Z" fill="#1A1616"/>
<g clip-path="url(#clip1)">
<path d="M107.196 227.253C107.196 211 114.2 185.8 123 177C123 177 143.5 167.5 152 167.5C160.5 167.5 272.5 162.5 272.5 162.5C289 166 298.719 174.719 301 177C307.5 183.5 314.196 201.753 314.196 201.753V292.753H107.196V227.253Z" fill="#BDB9B9"/>
<path d="M180.196 136.753C178.196 133.153 178.363 124.92 178.696 121.253C178.696 113.912 180.196 107.747 180.196 96C189.393 87.5001 200.106 92.4185 207.885 91.2532C208.47 92.1625 216.379 86.2546 217 86.9998C222 92.9998 226.5 85.8634 233.5 92C240.5 98.1366 240.304 99.2468 239 124.5C239 124.5 237.996 127.053 237.196 130.253C236.196 134.253 236.696 141.253 234.196 146.253C232.863 150.253 230.196 158.353 230.196 158.753C243 176 185 173 182.696 164.253C181.535 159.843 190.196 162.753 191.196 162.753C191.196 162.753 190.196 159.253 189.696 158.253L187.696 154.253C183.696 151.753 182.696 141.253 180.196 136.753Z" fill="#746D6D"/>
<path d="M179.5 109.5C179.5 113.5 178.696 116.453 178.696 121.253C178.363 124.92 178.196 133.153 180.196 136.753C182.696 141.253 184.196 152.253 188.196 154.753C192.196 157.253 199.196 163.253 208.196 158.753C217.196 154.253 231.696 151.253 234.196 146.253C236.696 141.253 233.907 132.74 237.196 130.253C241.5 127 240 120.5 240 115.5" stroke="#1A1616" stroke-width="3" stroke-linecap="round"/>
<path d="M232.696 148.753C231.696 152.753 229.696 161.753 229.696 165.753C229.696 169.753 231.696 171.42 232.696 171.753" stroke="#1A1616" stroke-width="3" stroke-linecap="round"/>
<g clip-path="url(#clip2)">
<path d="M185.696 152.253C186.412 154.043 189.945 158.137 190.796 163.253M190.196 169.753C191.049 167.479 191.134 165.286 190.796 163.253M190.796 163.253C174.809 165.084 134.174 165.826 122.5 177.5C113.7 186.3 107.304 209.247 104.5 227.5" stroke="#1A1616" stroke-width="3" stroke-linecap="round"/>
<path d="M148 226L135.5 288.5" stroke="#1A1616" stroke-width="3" stroke-linecap="round"/>
<path d="M230.696 159.253C234.863 159.92 244.596 161.253 250.196 161.253C255.796 161.253 266.863 161.92 271.696 162.253C279.964 162.169 308.5 171.5 314.5 202" stroke="#1A1616" stroke-width="3" stroke-linecap="round"/>
<path d="M180 161C174.4 161 163 162.667 158 163.5L208 250L224 222C207.036 200.324 203.265 161 180 161Z" fill="#393333" stroke="#1A1616" stroke-width="3" stroke-linecap="round"/>
<path d="M239 161C244.6 161 256 162.667 261 163.5C261 163.5 231 205 224 227C217 249 212 290 212 290H180.5C180.5 255 207.599 161 239 161Z" fill="#393333"/>
</g>
<path d="M212 290C212 290 217 249 224 227C231 205 261 163.5 261 163.5C259 160 246.1 160 240.5 160C209.099 160 180.5 255 180.5 290" stroke="#1A1616" stroke-width="3" stroke-linecap="round"/>
<path d="M86.8759 249.257C87.0228 255.46 82.8985 273.593 89.9119 283.124C96.9253 292.655 97.5198 302.822 105.014 302.645C112.509 302.467 113.126 300.028 117.114 292.177C124.327 277.972 119.316 255.203 115.869 239.604C113.752 228.784 110.562 213.335 110.536 212.236C110.501 210.782 107.402 194.715 107.356 192.777C107.31 190.839 107.692 186.466 107.634 184.043C107.577 181.62 103.967 172.494 103.448 171.052C102.929 169.609 98.4416 164.383 97.4151 161.983C96.3886 159.583 94.3929 157.206 93.851 154.794C93.3091 152.383 89.9515 153.917 87.5746 155.913C85.6731 157.509 85.6455 157.554 85.5069 158.527L81.2753 156.062C79.3141 155.139 76.8798 154.712 75.449 155.715C74.0183 156.719 72.599 158.207 73.6141 160.122L76.6361 164.899C76.1516 164.91 74.7208 165.914 74.2707 167.379C73.8205 168.844 73.4163 172.248 72.493 174.209C71.5698 176.17 70.1735 178.627 69.7119 179.608C69.2503 180.589 68.2811 180.611 67.8654 183.53C67.4497 186.449 67.9342 186.438 68.9608 188.838C69.9873 191.238 71.4868 193.141 73.1241 200.86C73.627 203.231 80.0228 205.545 81.5453 208.418C83.0679 211.291 86.1818 219.944 86.2736 223.821L86.8759 249.257Z" fill="#746D6D" stroke="#1A1616" stroke-width="3" stroke-linecap="round"/>
<path d="M76.3098 192.057C78.2672 192.819 82.378 194.435 83.1625 194.804C84.1431 195.266 86.6233 197.631 87.5695 196.639C88.5157 195.647 90.6484 191.374 90.1409 190.416C89.6333 189.459 85.6569 185.331 84.1803 184.397C82.7036 183.462 78.4916 181.824 77.9956 181.351C77.4996 180.878 75.5842 181.893 75.157 184.327M91.3002 190.389C92.2885 191.174 94.2652 192.602 95.0405 192.584C96.0097 192.561 97.8906 190.092 97.8561 188.638C97.8334 187.677 94.3298 183.045 94.3298 183.045M75.9082 175.098C76.2274 174.928 77.1543 174.486 78.308 174.071C79.7503 173.552 82.1731 173.495 82.6691 173.968C83.1652 174.441 89.5711 178.794 91.0593 180.213C91.5636 180.694 93.5843 182.422 94.3298 183.045M94.3298 183.045C94.3298 183.045 96.7674 184.422 97.7792 185.387C99.2673 186.806 102.533 181.396 101.045 179.977C100.294 178.587 98.2768 175.695 96.219 175.243M81.5846 156.681C82.4119 158.047 86.313 159.682 89.9484 161.816C94.3115 164.377 98.4989 167.387 99.3043 167.897C100.781 168.832 99.9151 173.216 97.5382 175.211C97.2433 175.459 96.786 175.445 96.219 175.243M79.5208 163.861C80.814 163.83 84.5352 165.903 85.7021 166.765C86.7841 167.422 93.1299 174.138 96.219 175.243" stroke="#1A1616" stroke-width="3" stroke-linecap="round"/>
<path d="M86.6973 159.812C86.8358 158.839 87.5884 156.494 89.4899 154.898" stroke="#1A1616" stroke-width="3" stroke-linecap="round"/>
<path d="M84.6685 337.941C76.9931 330.621 82.8339 260.463 82.8339 260.463L122.479 245.02C128.495 266.717 134.96 332.749 125.131 356.988C115.302 381.228 92.344 345.261 84.6685 337.941Z" fill="#BDB9B9" stroke="#1A1616" stroke-width="3" stroke-linecap="round"/>
<path d="M117.268 236.141C105.549 246.676 90.8106 238.268 81.5883 228.983L82.2748 257.975C82.5352 268.972 105.647 273.426 116.537 268.667C127.428 263.908 120.113 229.571 118.542 226.608C117.286 224.237 114.27 222.208 112.949 222.739C116.766 221.982 120.696 233.059 117.268 236.141Z" fill="#453B3B" stroke="#1A1616" stroke-width="3" stroke-linecap="round"/>
<path d="M104.771 229.36C96.9651 216.542 93.6613 205.307 92.1967 191.648M89.5225 163.203C89.4831 161.537 86.1446 147.278 98.5939 137.481" stroke="#1A1616" stroke-width="3" stroke-linecap="round"/>
<path d="M116.405 126.374C116.487 128.553 116.192 130.128 114.047 130.208C116.192 130.128 116.619 132.087 116.7 134.266C116.782 136.446 115.109 138.278 112.963 138.358C109.494 138.488 104.577 132.87 101.895 130.869C104.42 128.672 108.903 122.703 112.372 122.573C114.518 122.493 116.323 124.195 116.405 126.374Z" fill="#453B3B" stroke="#1A1616" stroke-width="3" stroke-linecap="round" stroke-linejoin="round"/>
<path d="M108.602 145.27C106.433 145.506 104.842 145.324 104.61 143.19C104.842 145.324 102.918 145.889 100.75 146.125C98.5819 146.361 96.6358 144.822 96.4035 142.687C96.0277 139.236 101.282 133.933 103.088 131.116C105.458 133.479 111.731 137.526 112.107 140.978C112.339 143.112 110.77 145.034 108.602 145.27Z" fill="#453B3B" stroke="#1A1616" stroke-width="3" stroke-linecap="round" stroke-linejoin="round"/>
<path d="M88.9859 139.307C88.3366 137.225 88.2084 135.629 90.2582 134.989C88.2084 135.629 87.2838 133.849 86.6345 131.767C85.9851 129.685 87.1204 127.479 89.1703 126.84C92.4848 125.806 98.7003 129.941 101.813 131.17C99.951 133.951 97.1877 140.886 93.8732 141.919C91.8233 142.559 89.6353 141.389 88.9859 139.307Z" fill="#453B3B" stroke="#1A1616" stroke-width="3" stroke-linecap="round" stroke-linejoin="round"/>
<path d="M94.8621 118.261C96.9806 117.742 98.5819 117.714 99.092 119.8C98.5819 117.714 100.415 116.902 102.534 116.384C104.652 115.866 106.783 117.137 107.294 119.223C108.118 122.595 103.604 128.541 102.183 131.57C99.5234 129.539 92.7746 126.348 91.9498 122.975C91.4397 120.889 92.7435 118.779 94.8621 118.261Z" fill="#453B3B" stroke="#1A1616" stroke-width="3" stroke-linecap="round" stroke-linejoin="round"/>
<g clip-path="url(#clip3)">
<path d="M304.361 331.75C304.361 325.546 308.913 307.515 302.127 297.821C295.341 288.127 294.988 277.948 287.491 277.948C279.994 277.948 279.32 280.371 275.147 288.127C267.6 302.156 272.07 325.038 275.147 340.714C277.007 351.581 279.831 367.101 279.831 368.201C279.831 369.655 282.549 385.791 282.549 387.73C282.549 389.668 282.064 394.031 282.064 396.454C282.064 398.878 285.457 408.087 285.942 409.541C286.427 410.995 290.789 416.327 291.758 418.75C292.728 421.174 294.667 423.598 295.151 426.021C295.636 428.445 299.029 426.99 301.452 425.052C303.391 423.501 303.42 423.456 303.581 422.487L307.753 425.052C309.692 426.021 312.116 426.506 313.57 425.536C315.024 424.567 316.478 423.113 315.509 421.174L312.601 416.327C313.085 416.327 314.539 415.358 315.024 413.903C315.509 412.449 315.993 409.056 316.963 407.118C317.932 405.179 319.386 402.755 319.871 401.786C320.356 400.817 321.325 400.817 321.81 397.908C322.295 395 321.81 395 320.84 392.577C319.871 390.153 318.417 388.214 316.963 380.459C316.516 378.077 310.177 375.612 308.723 372.704C307.269 369.796 304.361 361.071 304.361 357.193L304.361 331.75Z" fill="#746D6D" stroke="#1A1616" stroke-width="3" stroke-linecap="round"/>
<path d="M308.667 243.143C316.167 250.643 308.667 320.643 308.667 320.643L268.667 335.143C263.167 313.31 258.267 247.143 268.667 223.143C279.067 199.143 301.167 235.643 308.667 243.143Z" fill="#BDB9B9" stroke="#1A1616" stroke-width="3" stroke-linecap="round"/>
</g>
<path d="M241 99.5L238.5 114L230.5 104L227 92H234L241 99.5Z" fill="#3E3535"/>
<path d="M184 92H178L178.947 109L181.474 96.5L184 92Z" fill="#3E3535"/>
<path d="M185 92.2849C184.778 92.7927 184.356 92.6403 184 93.0465C183.556 93.5543 182.111 94.8237 181.889 96.8547C181.667 98.8857 181.222 105.487 181 106.248C180.778 107.01 179.444 107.518 179 109.802C178.556 112.087 178.111 93.8082 177.889 93.0465C177.667 92.2849 177 90.7616 177 90" stroke="#1A1616" stroke-width="3" stroke-linecap="round"/>
<path d="M226 93C226.75 93.1684 228.35 94.2127 228.75 97.0423C229.25 100.579 229.25 104.116 230.5 105.127C232.66 106.873 238 109.5 239 112.5C239.354 113.563 239.75 115.485 239.75 114.727C239.75 114.121 240.583 104.706 241 100.074" stroke="#1A1616" stroke-width="3" stroke-linecap="round"/>
<path d="M184.028 90.3914C183.378 90.3914 180.235 92.0872 179.151 92.0872C178.068 92.0872 178.284 91.2394 176.984 91.2394C175.358 91.2394 176.442 90.6742 175.629 90.3914C174.816 90.1087 174.275 90.6742 174.004 90.3914C173.733 90.1087 172.649 87.8481 171.836 87.8481C171.023 87.8481 170.21 87.2829 170.21 86.1525C170.21 85.022 169.669 84.7394 169.127 84.1742C168.585 83.609 169.94 82.4786 170.21 82.196C170.481 81.9134 169.669 81.0656 170.481 80.5004C171.294 79.9352 170.481 78.8047 170.481 77.9569C170.481 77.1091 171.565 76.8265 172.92 76.8265C174.275 76.8265 173.191 74.5656 173.462 73.4352C173.733 72.3048 174.546 72.3048 177.255 72.3048C179.964 72.3048 177.526 69.1961 178.61 68.6309C179.693 68.0657 178.881 66.6527 179.964 66.3701C181.048 66.0875 182.132 66.3701 183.486 65.8049C184.841 65.2397 185.112 63.2614 187.009 63.2614C188.905 63.2614 188.905 62.131 190.531 60.718C192.157 59.305 192.157 61.8484 194.324 61.5658C196.492 61.2832 197.033 59.8702 198.117 59.8702C199.201 59.8702 201.368 60.1527 202.452 59.3049C203.536 58.457 205.162 59.5874 206.516 60.1527C207.871 60.7179 208.413 60.4353 209.497 60.1527C210.58 59.8701 210.58 59.8701 212.748 60.1527C214.915 60.4353 214.644 60.7179 216.541 59.5874C218.438 58.457 219.521 61.2831 220.063 61.8483C220.605 62.4135 222.231 62.9787 223.585 63.2613C224.94 63.5439 225.211 64.9569 226.837 65.8047C228.462 66.6526 229.004 66.0874 230.63 67.2178C232.255 68.3482 232.255 69.196 233.068 69.7612C233.881 70.3264 234.423 71.7395 235.507 72.0221C236.59 72.3047 236.59 73.7177 236.861 74.5655C237.132 75.4133 239.029 77.109 240.113 77.6742C241.196 78.2394 242.009 78.2394 242.009 79.3698C242.009 80.5002 242.551 83.6089 242.009 85.3045C241.467 87.0002 242.009 89.5436 242.551 90.3914C243.093 91.2392 243.093 91.2392 242.822 93.5001C242.551 95.7609 242.28 96.0435 242.28 97.4566C242.28 98.8696 241.738 100 240.384 100C239.029 100 239.029 98.8696 237.945 98.587C236.861 98.3044 237.132 96.6087 236.049 96.6087C234.965 96.6087 234.965 95.4783 234.423 94.9131C233.881 94.3479 234.423 93.5001 233.61 93.5001C232.797 93.5001 232.255 92.0871 232.255 91.5218C232.255 90.9566 231.443 89.5436 230.088 90.9566C228.733 92.3697 227.379 91.5218 225.211 91.5218C223.044 91.5218 221.689 92.0871 219.792 92.0871C217.896 92.0871 215.999 90.3914 213.832 91.5218C211.664 92.6523 208.955 90.9566 207.871 90.9566C206.787 90.9566 205.433 90.674 204.078 90.9566C202.723 91.2392 201.097 91.2392 200.285 90.3914C199.472 89.5436 197.846 90.3914 195.679 90.3914C193.511 90.3914 193.24 89.5436 192.157 89.5436C191.073 89.5436 189.447 89.5436 188.092 90.3914C186.738 91.2392 184.841 90.3914 184.028 90.3914Z" fill="#241F1F" stroke="#1A1616" stroke-width="3" stroke-linecap="round"/>
<path d="M212.914 74.5479L228.443 75.7149L230.085 78.8887C230.085 78.8887 213.191 81.3051 199.63 80.5367C186.069 79.7684 181.332 75.5181 181.332 75.5181L185.878 73.1708L190.877 73.0635L200.596 59.8519L202.595 59.766L212.914 74.5479Z" fill="#CDC7C7" stroke="#1A1616"/>
<path d="M182.346 75.6812C182.346 75.6812 186.069 79.7684 199.63 80.5368C213.191 81.3051 230.085 78.8887 230.085 78.8887" stroke="#1A1616" stroke-width="3" stroke-linecap="round"/>
<path d="M228.443 75.7151L214.914 74.5481L204.595 59.7661L201.047 59.6146L190.877 73.0636L183.878 73.1709" stroke="#1A1616" stroke-width="3" stroke-linecap="round"/>
</g>
<path fill-rule="evenodd" clip-rule="evenodd" d="M59.584 97.4819C59.584 95.1031 61.5428 92 63.959 92C66.3753 92 68.334 93.9284 68.334 96.3072C68.334 99.1363 64.8595 102.703 62.0956 105.54C61.1748 106.485 60.3328 107.35 59.7245 108.079C60.504 107.694 61.4116 107.185 62.3906 106.637C65.8464 104.702 70.1909 102.269 72.9236 103.001C75.2213 103.617 76.5771 106.008 75.9517 108.342C75.3263 110.676 71.822 111.765 69.5242 111.149C71.822 111.765 74.3124 114.46 73.687 116.794C73.0617 119.127 70.692 120.52 68.3942 119.905C65.6616 119.172 63.1157 114.893 61.0905 111.489C60.73 110.883 60.3861 110.305 60.0605 109.78C60.4196 111.832 60.6176 113.865 60.8083 115.823C61.295 120.82 61.7331 125.319 64.6788 128.347C65.9884 129.693 62.4746 131.039 59.5841 131.039C56.713 131.039 53.1627 129.693 54.4723 128.347C57.8083 124.917 58.3108 119.441 58.8211 113.877C58.9552 112.415 59.0899 110.947 59.2767 109.509C58.9018 110.104 58.5011 110.777 58.0776 111.489C56.0524 114.893 53.5065 119.172 50.7738 119.905C48.4761 120.52 46.1064 119.127 45.4811 116.794C44.8557 114.46 47.3461 111.765 49.6439 111.149C47.3461 111.765 43.8418 110.676 43.2164 108.342C42.591 106.008 43.9468 103.617 46.2445 103.001C48.9772 102.269 53.3217 104.702 56.7775 106.637C57.7565 107.185 58.6641 107.694 59.4436 108.079C58.8353 107.35 57.9933 106.486 57.0725 105.54L57.0725 105.54C54.3086 102.703 50.834 99.1363 50.834 96.3072C50.834 93.9284 52.7928 92 55.209 92C57.6253 92 59.584 95.1031 59.584 97.4819Z" fill="#453B3B"/>
<path d="M58.584 97.4819C58.584 98.0342 59.0318 98.4819 59.584 98.4819C60.1363 98.4819 60.584 98.0342 60.584 97.4819H58.584ZM62.0956 105.54L61.3793 104.842L62.0956 105.54ZM59.7245 108.079L58.9567 107.438C58.6539 107.801 58.6465 108.326 58.9389 108.698C59.2314 109.069 59.7438 109.185 60.1675 108.975L59.7245 108.079ZM62.3906 106.637L62.8792 107.51L62.3906 106.637ZM72.9236 103.001L72.6648 103.967L72.9236 103.001ZM75.9517 108.342L74.9858 108.083L75.9517 108.342ZM69.7831 110.183C69.2496 110.04 68.7013 110.357 68.5583 110.89C68.4154 111.423 68.732 111.972 69.2654 112.115L69.7831 110.183ZM73.687 116.794L74.653 117.052L73.687 116.794ZM68.3942 119.905L68.1354 120.871L68.3942 119.905ZM61.0905 111.489L61.9499 110.978L61.0905 111.489ZM60.0605 109.78L60.9106 109.253C60.6582 108.846 60.1523 108.675 59.7045 108.845C59.2567 109.016 58.9929 109.48 59.0755 109.952L60.0605 109.78ZM60.8083 115.823L59.813 115.919L60.8083 115.823ZM64.6788 128.347L65.3955 127.649L64.6788 128.347ZM54.4723 128.347L53.7555 127.649L54.4723 128.347ZM58.8211 113.877L57.8253 113.786L58.8211 113.877ZM59.2767 109.509L60.2684 109.638C60.3288 109.172 60.0573 108.727 59.6156 108.568C59.1739 108.409 58.681 108.579 58.4307 108.976L59.2767 109.509ZM58.0776 111.489L57.2182 110.978L58.0776 111.489ZM50.7738 119.905L51.0327 120.871H51.0327L50.7738 119.905ZM45.4811 116.794L46.447 116.535L45.4811 116.794ZM49.9027 112.115C50.4361 111.972 50.7527 111.423 50.6098 110.89C50.4668 110.357 49.9185 110.04 49.385 110.183L49.9027 112.115ZM43.2164 108.342L44.1823 108.083H44.1823L43.2164 108.342ZM46.2445 103.001L46.5033 103.967H46.5033L46.2445 103.001ZM56.7775 106.637L57.2662 105.765L56.7775 106.637ZM59.4436 108.079L59.0006 108.975C59.4243 109.185 59.9367 109.069 60.2292 108.698C60.5216 108.326 60.5142 107.801 60.2114 107.438L59.4436 108.079ZM57.0725 105.54L56.3326 106.213C56.3403 106.221 56.3482 106.23 56.3562 106.238L57.0725 105.54ZM57.0725 105.54L57.8124 104.868C57.8047 104.859 57.7968 104.851 57.7888 104.842L57.0725 105.54ZM63.959 91C62.3083 91 60.9518 92.0475 60.0608 93.2552C59.1615 94.4741 58.584 96.0485 58.584 97.4819H60.584C60.584 96.5366 60.986 95.3699 61.6702 94.4426C62.3626 93.504 63.1936 93 63.959 93V91ZM69.334 96.3072C69.334 93.3615 66.9128 91 63.959 91V93C65.8378 93 67.334 94.4954 67.334 96.3072H69.334ZM62.8119 106.238C64.1844 104.829 65.7897 103.183 67.0479 101.525C68.2752 99.9078 69.334 98.0775 69.334 96.3072H67.334C67.334 97.3661 66.6556 98.7336 65.4547 100.316C64.2847 101.858 62.7707 103.414 61.3793 104.842L62.8119 106.238ZM60.4924 108.719C61.0705 108.027 61.8813 107.193 62.8119 106.238L61.3793 104.842C60.4682 105.778 59.5952 106.673 58.9567 107.438L60.4924 108.719ZM61.9019 105.765C60.9159 106.317 60.033 106.811 59.2816 107.182L60.1675 108.975C60.975 108.576 61.9074 108.054 62.8792 107.51L61.9019 105.765ZM73.1824 102.035C71.4725 101.577 69.4304 102.126 67.5505 102.893C65.6233 103.679 63.6181 104.804 61.9019 105.765L62.8792 107.51C64.6189 106.535 66.5139 105.476 68.306 104.745C70.1455 103.994 71.642 103.693 72.6648 103.967L73.1824 102.035ZM76.9176 108.601C77.6821 105.747 76.0278 102.797 73.1824 102.035L72.6648 103.967C74.4149 104.436 75.472 106.268 74.9858 108.083L76.9176 108.601ZM69.2654 112.115C70.65 112.486 72.3202 112.335 73.7303 111.782C75.1275 111.234 76.4904 110.195 76.9176 108.601L74.9858 108.083C74.7877 108.822 74.0857 109.495 72.9999 109.92C71.9271 110.341 70.6962 110.428 69.7831 110.183L69.2654 112.115ZM74.653 117.052C75.0802 115.458 74.4195 113.876 73.4835 112.703C72.5389 111.519 71.1677 110.554 69.7831 110.183L69.2654 112.115C70.1786 112.359 71.2014 113.05 71.9201 113.95C72.6475 114.862 72.9192 115.795 72.7211 116.535L74.653 117.052ZM68.1354 120.871C70.9808 121.633 73.8885 119.906 74.653 117.052L72.7211 116.535C72.2349 118.349 70.4032 119.408 68.6531 118.939L68.1354 120.871ZM60.2311 112C61.2368 113.691 62.411 115.667 63.687 117.312C64.9316 118.916 66.4255 120.412 68.1354 120.871L68.6531 118.939C67.6303 118.665 66.485 117.655 65.2671 116.086C64.0806 114.557 62.9694 112.692 61.9499 110.978L60.2311 112ZM59.2105 110.306C59.5304 110.823 59.8695 111.393 60.2311 112L61.9499 110.978C61.5905 110.374 61.2418 109.788 60.9106 109.253L59.2105 110.306ZM61.8035 115.726C61.6135 113.774 61.4122 111.703 61.0455 109.607L59.0755 109.952C59.4269 111.96 59.6218 113.957 59.813 115.919L61.8035 115.726ZM65.3955 127.649C64.0856 126.303 63.3033 124.602 62.7908 122.578C62.2743 120.537 62.0487 118.243 61.8035 115.726L59.813 115.919C60.0545 118.4 60.2913 120.854 60.852 123.069C61.4167 125.3 62.3262 127.362 63.962 129.044L65.3955 127.649ZM59.5841 132.039C61.1529 132.039 62.9027 131.679 64.1312 131.103C64.7188 130.827 65.3503 130.428 65.6979 129.852C65.8878 129.537 66.0066 129.144 65.9444 128.708C65.8834 128.279 65.6646 127.926 65.3955 127.649L63.962 129.044C64.0204 129.104 63.9783 129.087 63.9644 128.99C63.9494 128.885 63.986 128.818 63.9856 128.818C63.9522 128.874 63.7702 129.063 63.2818 129.292C62.3581 129.725 60.9057 130.039 59.5841 130.039V132.039ZM53.7555 127.649C53.4856 127.927 53.2663 128.282 53.2074 128.713C53.1474 129.152 53.2704 129.545 53.4624 129.858C53.8137 130.431 54.4478 130.829 55.0379 131.104C56.2713 131.679 58.0242 132.039 59.5841 132.039V130.039C58.2728 130.039 56.8151 129.726 55.883 129.291C55.3902 129.061 55.2029 128.87 55.1672 128.812C55.1656 128.81 55.2036 128.877 55.1889 128.984C55.1753 129.084 55.1316 129.103 55.1891 129.044L53.7555 127.649ZM57.8253 113.786C57.5686 116.584 57.3204 119.268 56.7347 121.676C56.1511 124.075 55.2519 126.111 53.7555 127.649L55.1891 129.044C57.0287 127.153 58.0488 124.736 58.678 122.149C59.3051 119.57 59.5633 116.734 59.8169 113.969L57.8253 113.786ZM58.285 109.38C58.0954 110.84 57.9591 112.327 57.8253 113.786L59.8169 113.969C59.9514 112.503 60.0844 111.054 60.2684 109.638L58.285 109.38ZM58.937 112C59.3622 111.286 59.756 110.624 60.1227 110.042L58.4307 108.976C58.0476 109.584 57.64 110.269 57.2182 110.978L58.937 112ZM51.0327 120.871C52.7426 120.412 54.2365 118.916 55.4811 117.312C56.7571 115.667 57.9313 113.691 58.937 112L57.2182 110.978C56.1987 112.692 55.0875 114.557 53.901 116.086C52.6831 117.655 51.5378 118.665 50.515 118.939L51.0327 120.871ZM44.5151 117.052C45.2796 119.906 48.1873 121.633 51.0327 120.871L50.515 118.939C48.7649 119.408 46.9332 118.349 46.447 116.535L44.5151 117.052ZM49.385 110.183C48.0004 110.554 46.6292 111.519 45.6846 112.703C44.7486 113.876 44.0879 115.458 44.5151 117.052L46.447 116.535C46.2489 115.795 46.5206 114.862 47.248 113.95C47.9667 113.05 48.9895 112.359 49.9027 112.115L49.385 110.183ZM42.2505 108.601C42.6777 110.195 44.0406 111.234 45.4378 111.782C46.8479 112.335 48.5181 112.486 49.9027 112.115L49.385 110.183C48.4719 110.428 47.241 110.341 46.1682 109.92C45.0824 109.495 44.3804 108.822 44.1823 108.083L42.2505 108.601ZM45.9857 102.035C43.1403 102.797 41.486 105.747 42.2505 108.601L44.1823 108.083C43.6961 106.268 44.7532 104.436 46.5033 103.967L45.9857 102.035ZM57.2662 105.765C55.55 104.804 53.5448 103.679 51.6176 102.893C49.7377 102.126 47.6956 101.577 45.9857 102.035L46.5033 103.967C47.5261 103.693 49.0226 103.994 50.8621 104.745C52.6542 105.476 54.5492 106.535 56.2889 107.51L57.2662 105.765ZM59.8865 107.182C59.1351 106.811 58.2522 106.317 57.2662 105.765L56.2889 107.51C57.2607 108.054 58.1931 108.576 59.0006 108.975L59.8865 107.182ZM56.3562 106.238C57.2868 107.193 58.0976 108.027 58.6757 108.719L60.2114 107.438C59.5729 106.673 58.6999 105.778 57.7888 104.842L56.3562 106.238ZM56.3326 106.213L56.3326 106.213L57.8125 104.868L57.8124 104.868L56.3326 106.213ZM49.834 96.3072C49.834 98.0775 50.8929 99.9078 52.1202 101.525C53.3784 103.183 54.9837 104.829 56.3562 106.238L57.7888 104.842C56.3974 103.414 54.8834 101.858 53.7134 100.316C52.5125 98.7336 51.834 97.3661 51.834 96.3072H49.834ZM55.209 91C52.2553 91 49.834 93.3615 49.834 96.3072H51.834C51.834 94.4954 53.3303 93 55.209 93V91ZM60.584 97.4819C60.584 96.0485 60.0066 94.4741 59.1073 93.2552C58.2163 92.0475 56.8598 91 55.209 91V93C55.9745 93 56.8055 93.504 57.4979 94.4426C58.1821 95.3699 58.584 96.5366 58.584 97.4819H60.584Z" fill="#453B3B"/>
<path d="M340.295 543.314V515.227H335.327V508H357.063V515.227H351.389V543.314H357.063V550.541H334.903V543.314H340.295ZM315.538 543.314L327.564 531.656L313.591 515.227H309.187V508H332.024V515.227H327.056L339.928 530.329L326.068 543.314H331.149V550.541H310.344V543.314H315.538Z" fill="#1A1616"/>
<g clip-path="url(#clip4)">
<path d="M284.804 352.747C284.804 369 277.8 394.2 269 403C269 403 248.5 412.5 240 412.5C231.5 412.5 119.5 417.5 119.5 417.5C103 414 93.2811 405.281 91 403C84.5 396.5 77.8037 378.247 77.8037 378.247V287.247H284.804V352.747Z" fill="#BDB9B9"/>
<path d="M211.804 443.247C213.804 446.847 213.637 455.08 213.304 458.747C213.304 466.088 211.804 472.253 211.804 484C202.607 492.5 191.894 487.581 184.115 488.747C183.53 487.837 175.621 493.745 175 493C170 487 165.5 494.137 158.5 488C151.5 481.863 151.696 480.753 153 455.5C153 455.5 154.004 452.947 154.804 449.747C155.804 445.747 155.304 438.747 157.804 433.747C159.137 429.747 161.804 421.647 161.804 421.247C149 404 207 407 209.304 415.747C210.465 420.157 201.804 417.247 200.804 417.247C200.804 417.247 201.804 420.747 202.304 421.747L204.304 425.747C208.304 428.247 209.304 438.747 211.804 443.247Z" fill="#746D6D"/>
<path d="M212.5 470.5C212.5 466.5 213.304 463.547 213.304 458.747C213.637 455.08 213.804 446.847 211.804 443.247C209.304 438.747 207.804 427.747 203.804 425.247C199.804 422.747 192.804 416.747 183.804 421.247C174.804 425.747 160.304 428.747 157.804 433.747C155.304 438.747 158.093 447.26 154.804 449.747C150.5 453 152 459.5 152 464.5" stroke="#1A1616" stroke-width="3" stroke-linecap="round"/>
<path d="M159.304 431.247C160.304 427.247 162.304 418.247 162.304 414.247C162.304 410.247 160.304 408.58 159.304 408.247" stroke="#1A1616" stroke-width="3" stroke-linecap="round"/>
<g clip-path="url(#clip5)">
<path d="M206.304 427.747C205.588 425.957 202.055 421.863 201.204 416.747M201.804 410.247C200.951 412.521 200.866 414.714 201.204 416.747M201.204 416.747C217.191 414.916 257.826 414.174 269.5 402.5C278.3 393.7 284.696 370.753 287.5 352.5" stroke="#1A1616" stroke-width="3" stroke-linecap="round"/>
<path d="M244 354L256.5 291.5" stroke="#1A1616" stroke-width="3" stroke-linecap="round"/>
<path d="M161.304 420.747C157.137 420.08 147.404 418.747 141.804 418.747C136.204 418.747 125.137 418.08 120.304 417.747C112.036 417.831 83.5 408.5 77.5 378" stroke="#1A1616" stroke-width="3" stroke-linecap="round"/>
<path d="M212 419C217.6 419 229 417.333 234 416.5L184 330L168 358C184.964 379.676 188.735 419 212 419Z" fill="#393333" stroke="#1A1616" stroke-width="3" stroke-linecap="round"/>
<path d="M153 419C147.4 419 136 417.333 131 416.5C131 416.5 161 375 168 353C175 331 180 290 180 290H211.5C211.5 325 184.401 419 153 419Z" fill="#393333"/>
</g>
<path d="M180 290C180 290 175 331 168 353C161 375 131 416.5 131 416.5C133 420 145.9 420 151.5 420C182.901 420 211.5 325 211.5 290" stroke="#1A1616" stroke-width="3" stroke-linecap="round"/>
<path d="M305.124 330.743C304.977 324.54 309.102 306.407 302.088 296.876C295.075 287.345 294.48 277.178 286.986 277.355C279.491 277.533 278.874 279.972 274.886 287.823C267.673 302.028 272.684 324.797 276.131 340.396C278.248 351.216 281.438 366.665 281.464 367.764C281.499 369.218 284.598 385.285 284.644 387.223C284.69 389.161 284.308 393.534 284.366 395.957C284.423 398.38 288.033 407.506 288.552 408.948C289.071 410.391 293.558 415.617 294.585 418.017C295.611 420.417 297.607 422.794 298.149 425.206C298.691 427.617 302.048 426.083 304.425 424.087C306.327 422.491 306.354 422.446 306.493 421.473L310.725 423.938C312.686 424.861 315.12 425.288 316.551 424.285C317.982 423.281 319.401 421.793 318.386 419.878L315.364 415.101C315.848 415.09 317.279 414.086 317.729 412.621C318.179 411.156 318.584 407.752 319.507 405.791C320.43 403.83 321.827 401.373 322.288 400.392C322.75 399.411 323.719 399.389 324.135 396.47C324.55 393.551 324.066 393.562 323.039 391.162C322.013 388.762 320.513 386.859 318.876 379.14C318.373 376.769 311.977 374.455 310.455 371.582C308.932 368.709 305.818 360.056 305.726 356.179L305.124 330.743Z" fill="#746D6D" stroke="#1A1616" stroke-width="3" stroke-linecap="round"/>
<path d="M315.69 387.943C313.733 387.181 309.622 385.565 308.838 385.196C307.857 384.734 305.377 382.369 304.431 383.361C303.484 384.353 301.352 388.626 301.859 389.584C302.367 390.541 306.343 394.669 307.82 395.603C309.297 396.538 313.508 398.176 314.005 398.649C314.501 399.122 316.416 398.107 316.843 395.673M300.7 389.611C299.712 388.826 297.735 387.398 296.96 387.416C295.99 387.439 294.11 389.908 294.144 391.362C294.167 392.323 297.67 396.955 297.67 396.955M316.092 404.902C315.773 405.072 314.846 405.514 313.692 405.929C312.25 406.448 309.827 406.505 309.331 406.032C308.835 405.559 302.429 401.206 300.941 399.787C300.437 399.306 298.416 397.578 297.67 396.955M297.67 396.955C297.67 396.955 295.233 395.578 294.221 394.613C292.733 393.194 289.467 398.604 290.955 400.023C291.706 401.413 293.723 404.305 295.781 404.757M310.416 423.319C309.588 421.953 305.687 420.318 302.052 418.184C297.689 415.623 293.501 412.613 292.696 412.103C291.219 411.168 292.085 406.784 294.462 404.789C294.757 404.541 295.214 404.555 295.781 404.757M312.479 416.139C311.186 416.17 307.465 414.097 306.298 413.235C305.216 412.578 298.87 405.862 295.781 404.757" stroke="#1A1616" stroke-width="3" stroke-linecap="round"/>
<path d="M305.303 420.188C305.164 421.161 304.412 423.506 302.51 425.102" stroke="#1A1616" stroke-width="3" stroke-linecap="round"/>
<path d="M307.331 242.059C315.007 249.379 309.166 319.537 309.166 319.537L269.52 334.98C263.505 313.283 257.04 247.251 266.869 223.012C276.698 198.772 299.656 234.739 307.331 242.059Z" fill="#BDB9B9" stroke="#1A1616" stroke-width="3" stroke-linecap="round"/>
<path d="M274.732 343.859C286.451 333.324 301.189 341.732 310.412 351.017L309.725 322.025C309.465 311.028 286.353 306.574 275.462 311.333C264.572 316.092 271.887 350.429 273.457 353.392C274.714 355.763 277.73 357.792 279.051 357.261C275.234 358.018 271.304 346.941 274.732 343.859Z" fill="#453B3B" stroke="#1A1616" stroke-width="3" stroke-linecap="round"/>
<path d="M287.23 350.64C295.035 363.458 298.339 374.693 299.804 388.352M302.478 416.797C302.517 418.463 305.856 432.722 293.406 442.519" stroke="#1A1616" stroke-width="3" stroke-linecap="round"/>
<path d="M275.595 453.626C275.513 451.447 275.808 449.872 277.953 449.792C275.808 449.872 275.381 447.913 275.3 445.734C275.218 443.554 276.891 441.722 279.037 441.642C282.506 441.512 287.423 447.13 290.105 449.131C287.58 451.328 283.097 457.297 279.628 457.427C277.482 457.507 275.677 455.805 275.595 453.626Z" fill="#453B3B" stroke="#1A1616" stroke-width="3" stroke-linecap="round" stroke-linejoin="round"/>
<path d="M283.399 434.73C285.567 434.494 287.158 434.676 287.39 436.81C287.158 434.676 289.082 434.111 291.25 433.875C293.418 433.639 295.364 435.178 295.597 437.313C295.972 440.764 290.718 446.067 288.912 448.884C286.542 446.521 280.269 442.474 279.893 439.022C279.661 436.888 281.23 434.966 283.399 434.73Z" fill="#453B3B" stroke="#1A1616" stroke-width="3" stroke-linecap="round" stroke-linejoin="round"/>
<path d="M303.014 440.693C303.664 442.775 303.792 444.371 301.742 445.011C303.792 444.371 304.716 446.151 305.366 448.233C306.015 450.315 304.88 452.521 302.83 453.16C299.515 454.194 293.3 450.059 290.187 448.83C292.049 446.049 294.812 439.114 298.127 438.081C300.177 437.441 302.365 438.611 303.014 440.693Z" fill="#453B3B" stroke="#1A1616" stroke-width="3" stroke-linecap="round" stroke-linejoin="round"/>
<path d="M297.138 461.739C295.02 462.258 293.418 462.286 292.908 460.2C293.418 462.286 291.585 463.098 289.466 463.616C287.348 464.134 285.217 462.863 284.707 460.777C283.882 457.405 288.396 451.459 289.818 448.43C292.477 450.461 299.226 453.652 300.05 457.025C300.56 459.111 299.257 461.221 297.138 461.739Z" fill="#453B3B" stroke="#1A1616" stroke-width="3" stroke-linecap="round" stroke-linejoin="round"/>
<g clip-path="url(#clip6)">
<path d="M87.6394 248.25C87.6394 254.454 83.0869 272.485 89.8727 282.179C96.6586 291.873 97.0122 302.052 104.509 302.052C112.006 302.052 112.68 299.629 116.853 291.873C124.4 277.844 119.93 254.962 116.853 239.286C114.993 228.419 112.169 212.899 112.169 211.799C112.169 210.345 109.451 194.209 109.451 192.27C109.451 190.332 109.936 185.969 109.936 183.546C109.936 181.122 106.543 171.913 106.058 170.459C105.573 169.005 101.211 163.673 100.242 161.25C99.2723 158.826 97.3334 156.402 96.8487 153.979C96.364 151.555 92.9711 153.01 90.5476 154.948C88.6088 156.499 88.5802 156.544 88.4187 157.513L84.2466 154.948C82.3078 153.979 79.8843 153.494 78.4301 154.464C76.976 155.433 75.5219 156.887 76.4913 158.826L79.3995 163.673C78.9148 163.673 77.4607 164.642 76.976 166.097C76.4913 167.551 76.0066 170.944 75.0372 172.882C74.0677 174.821 72.6137 177.245 72.129 178.214C71.6443 179.183 70.6748 179.183 70.1901 182.092C69.7054 185 70.1901 185 71.1596 187.423C72.129 189.847 73.5831 191.786 75.0372 199.541C75.4838 201.923 81.823 204.388 83.2771 207.296C84.7312 210.204 87.6394 218.929 87.6394 222.807L87.6394 248.25Z" fill="#746D6D" stroke="#1A1616" stroke-width="3" stroke-linecap="round"/>
<path d="M83.3333 336.857C75.8333 329.357 83.3333 259.357 83.3333 259.357L123.333 244.857C128.833 266.69 133.733 332.857 123.333 356.857C112.933 380.857 90.8333 344.357 83.3333 336.857Z" fill="#BDB9B9" stroke="#1A1616" stroke-width="3" stroke-linecap="round"/>
</g>
<path d="M151 480.5L153.5 466L161.5 476L165 488H158L151 480.5Z" fill="#3E3535"/>
<path d="M208 488H214L213.053 471L210.526 483.5L208 488Z" fill="#3E3535"/>
<path d="M207 487.715C207.222 487.207 207.644 487.36 208 486.953C208.444 486.446 209.889 485.176 210.111 483.145C210.333 481.114 210.778 474.513 211 473.752C211.222 472.99 212.556 472.482 213 470.198C213.444 467.913 213.889 486.192 214.111 486.953C214.333 487.715 215 489.238 215 490" stroke="#1A1616" stroke-width="3" stroke-linecap="round"/>
<path d="M166 487C165.25 486.832 163.65 485.787 163.25 482.958C162.75 479.421 162.75 475.884 161.5 474.873C159.34 473.127 154 470.5 153 467.5C152.646 466.437 152.25 464.515 152.25 465.273C152.25 465.879 151.417 475.294 151 479.926" stroke="#1A1616" stroke-width="3" stroke-linecap="round"/>
<path d="M207.972 489.609C208.622 489.609 211.765 487.913 212.849 487.913C213.932 487.913 213.716 488.761 215.016 488.761C216.642 488.761 215.558 489.326 216.371 489.609C217.184 489.891 217.725 489.326 217.996 489.609C218.267 489.891 219.351 492.152 220.164 492.152C220.977 492.152 221.79 492.717 221.79 493.848C221.79 494.978 222.331 495.261 222.873 495.826C223.415 496.391 222.06 497.521 221.79 497.804C221.519 498.087 222.331 498.934 221.519 499.5C220.706 500.065 221.519 501.195 221.519 502.043C221.519 502.891 220.435 503.174 219.08 503.174C217.725 503.174 218.809 505.434 218.538 506.565C218.267 507.695 217.454 507.695 214.745 507.695C212.036 507.695 214.474 510.804 213.39 511.369C212.307 511.934 213.119 513.347 212.036 513.63C210.952 513.913 209.868 513.63 208.514 514.195C207.159 514.76 206.888 516.739 204.991 516.739C203.095 516.739 203.095 517.869 201.469 519.282C199.843 520.695 199.843 518.152 197.676 518.434C195.508 518.717 194.967 520.13 193.883 520.13C192.799 520.13 190.632 519.847 189.548 520.695C188.464 521.543 186.838 520.413 185.484 519.847C184.129 519.282 183.587 519.565 182.503 519.847C181.42 520.13 181.42 520.13 179.252 519.847C177.085 519.565 177.356 519.282 175.459 520.413C173.562 521.543 172.479 518.717 171.937 518.152C171.395 517.587 169.769 517.021 168.415 516.739C167.06 516.456 166.789 515.043 165.163 514.195C163.538 513.347 162.996 513.913 161.37 512.782C159.745 511.652 159.745 510.804 158.932 510.239C158.119 509.674 157.577 508.261 156.493 507.978C155.41 507.695 155.41 506.282 155.139 505.434C154.868 504.587 152.971 502.891 151.887 502.326C150.804 501.761 149.991 501.761 149.991 500.63C149.991 499.5 149.449 496.391 149.991 494.695C150.533 493 149.991 490.456 149.449 489.609C148.907 488.761 148.907 488.761 149.178 486.5C149.449 484.239 149.72 483.956 149.72 482.543C149.72 481.13 150.262 480 151.616 480C152.971 480 152.971 481.13 154.055 481.413C155.139 481.696 154.868 483.391 155.951 483.391C157.035 483.391 157.035 484.522 157.577 485.087C158.119 485.652 157.577 486.5 158.39 486.5C159.203 486.5 159.745 487.913 159.745 488.478C159.745 489.043 160.557 490.456 161.912 489.043C163.267 487.63 164.621 488.478 166.789 488.478C168.956 488.478 170.311 487.913 172.208 487.913C174.104 487.913 176.001 489.609 178.168 488.478C180.336 487.348 183.045 489.043 184.129 489.043C185.213 489.043 186.567 489.326 187.922 489.043C189.277 488.761 190.903 488.761 191.715 489.609C192.528 490.456 194.154 489.609 196.321 489.609C198.489 489.609 198.76 490.456 199.843 490.456C200.927 490.456 202.553 490.456 203.908 489.609C205.262 488.761 207.159 489.609 207.972 489.609Z" fill="#241F1F" stroke="#1A1616" stroke-width="3" stroke-linecap="round"/>
<path d="M179.086 505.452L163.557 504.285L161.915 501.111C161.915 501.111 178.809 498.695 192.37 499.463C205.931 500.232 210.668 504.482 210.668 504.482L206.122 506.829L201.123 506.937L191.404 520.148L189.405 520.234L179.086 505.452Z" fill="#CDC7C7" stroke="#1A1616"/>
<path d="M209.654 504.319C209.654 504.319 205.931 500.232 192.37 499.463C178.809 498.695 161.915 501.111 161.915 501.111" stroke="#1A1616" stroke-width="3" stroke-linecap="round"/>
<path d="M163.557 504.285L177.086 505.452L187.405 520.234L190.953 520.385L201.123 506.936L208.122 506.829" stroke="#1A1616" stroke-width="3" stroke-linecap="round"/>
</g>
<path fill-rule="evenodd" clip-rule="evenodd" d="M332.416 482.518C332.416 484.897 330.457 488 328.041 488C325.625 488 323.666 486.072 323.666 483.693C323.666 480.864 327.14 477.297 329.904 474.46C330.825 473.515 331.667 472.65 332.275 471.921C331.496 472.306 330.588 472.815 329.609 473.363C326.154 475.298 321.809 477.731 319.076 476.999C316.779 476.383 315.423 473.992 316.048 471.658C316.674 469.324 320.178 468.235 322.476 468.851C320.178 468.235 317.688 465.54 318.313 463.206C318.938 460.873 321.308 459.48 323.606 460.095C326.338 460.828 328.884 465.107 330.91 468.511C331.27 469.117 331.614 469.695 331.939 470.22C331.58 468.168 331.382 466.135 331.192 464.177C330.705 459.18 330.267 454.681 327.321 451.653C326.012 450.307 329.525 448.961 332.416 448.961C335.287 448.961 338.837 450.307 337.528 451.653C334.192 455.083 333.689 460.559 333.179 466.123C333.045 467.585 332.91 469.053 332.723 470.491C333.098 469.896 333.499 469.223 333.922 468.511C335.948 465.107 338.493 460.828 341.226 460.095C343.524 459.48 345.894 460.873 346.519 463.206C347.144 465.54 344.654 468.235 342.356 468.851C344.654 468.235 348.158 469.324 348.784 471.658C349.409 473.992 348.053 476.383 345.755 476.999C343.023 477.731 338.678 475.298 335.222 473.363C334.244 472.815 333.336 472.306 332.556 471.921C333.165 472.65 334.007 473.514 334.927 474.46L334.928 474.46C337.691 477.297 341.166 480.864 341.166 483.693C341.166 486.072 339.207 488 336.791 488C334.375 488 332.416 484.897 332.416 482.518Z" fill="#453B3B"/>
<path d="M333.416 482.518C333.416 481.966 332.968 481.518 332.416 481.518C331.864 481.518 331.416 481.966 331.416 482.518H333.416ZM329.904 474.46L330.621 475.158L329.904 474.46ZM332.275 471.921L333.043 472.562C333.346 472.199 333.353 471.674 333.061 471.302C332.769 470.931 332.256 470.815 331.833 471.025L332.275 471.921ZM329.609 473.363L329.121 472.49L329.609 473.363ZM319.076 476.999L319.335 476.033L319.076 476.999ZM316.048 471.658L317.014 471.917L316.048 471.658ZM322.217 469.817C322.75 469.96 323.299 469.643 323.442 469.11C323.585 468.577 323.268 468.028 322.735 467.885L322.217 469.817ZM318.313 463.206L317.347 462.948L318.313 463.206ZM323.606 460.095L323.865 459.129L323.606 460.095ZM330.91 468.511L330.05 469.022L330.91 468.511ZM331.939 470.22L331.089 470.747C331.342 471.154 331.848 471.325 332.295 471.155C332.743 470.984 333.007 470.52 332.925 470.048L331.939 470.22ZM331.192 464.177L332.187 464.081L331.192 464.177ZM327.321 451.653L326.604 452.351L327.321 451.653ZM337.528 451.653L338.244 452.351L337.528 451.653ZM333.179 466.123L334.175 466.214L333.179 466.123ZM332.723 470.491L331.732 470.362C331.671 470.828 331.943 471.273 332.384 471.432C332.826 471.591 333.319 471.421 333.569 471.024L332.723 470.491ZM333.922 468.511L334.782 469.022L333.922 468.511ZM341.226 460.095L340.967 459.129H340.967L341.226 460.095ZM346.519 463.206L345.553 463.465L346.519 463.206ZM342.097 467.885C341.564 468.028 341.247 468.577 341.39 469.11C341.533 469.643 342.082 469.96 342.615 469.817L342.097 467.885ZM348.784 471.658L347.818 471.917H347.818L348.784 471.658ZM345.755 476.999L345.497 476.033H345.497L345.755 476.999ZM335.222 473.363L334.734 474.235L335.222 473.363ZM332.556 471.921L332.999 471.025C332.576 470.815 332.063 470.931 331.771 471.302C331.478 471.674 331.486 472.199 331.789 472.562L332.556 471.921ZM334.927 474.46L335.667 473.787C335.66 473.779 335.652 473.77 335.644 473.762L334.927 474.46ZM334.928 474.46L334.188 475.132C334.195 475.141 334.203 475.149 334.211 475.158L334.928 474.46ZM328.041 489C329.692 489 331.048 487.952 331.939 486.745C332.839 485.526 333.416 483.952 333.416 482.518H331.416C331.416 483.463 331.014 484.63 330.33 485.557C329.637 486.496 328.806 487 328.041 487V489ZM322.666 483.693C322.666 486.639 325.087 489 328.041 489V487C326.162 487 324.666 485.505 324.666 483.693H322.666ZM329.188 473.762C327.816 475.171 326.21 476.817 324.952 478.475C323.725 480.092 322.666 481.923 322.666 483.693H324.666C324.666 482.634 325.344 481.266 326.545 479.684C327.715 478.142 329.229 476.586 330.621 475.158L329.188 473.762ZM331.508 471.281C330.93 471.973 330.119 472.807 329.188 473.762L330.621 475.158C331.532 474.222 332.405 473.327 333.043 472.562L331.508 471.281ZM330.098 474.235C331.084 473.683 331.967 473.189 332.718 472.818L331.833 471.025C331.025 471.424 330.093 471.946 329.121 472.49L330.098 474.235ZM318.818 477.965C320.528 478.423 322.57 477.874 324.449 477.107C326.377 476.321 328.382 475.196 330.098 474.235L329.121 472.49C327.381 473.465 325.486 474.524 323.694 475.255C321.855 476.006 320.358 476.307 319.335 476.033L318.818 477.965ZM315.082 471.399C314.318 474.253 315.972 477.203 318.818 477.965L319.335 476.033C317.585 475.564 316.528 473.732 317.014 471.917L315.082 471.399ZM322.735 467.885C321.35 467.514 319.68 467.665 318.27 468.218C316.873 468.766 315.51 469.805 315.082 471.399L317.014 471.917C317.212 471.178 317.914 470.505 319 470.08C320.073 469.659 321.304 469.572 322.217 469.817L322.735 467.885ZM317.347 462.948C316.92 464.542 317.581 466.124 318.516 467.297C319.461 468.481 320.832 469.446 322.217 469.817L322.735 467.885C321.821 467.641 320.799 466.95 320.08 466.05C319.353 465.138 319.081 464.205 319.279 463.465L317.347 462.948ZM323.865 459.129C321.019 458.367 318.112 460.094 317.347 462.948L319.279 463.465C319.765 461.651 321.597 460.592 323.347 461.061L323.865 459.129ZM331.769 468C330.763 466.309 329.589 464.333 328.313 462.688C327.068 461.084 325.574 459.588 323.865 459.129L323.347 461.061C324.37 461.335 325.515 462.345 326.733 463.914C327.919 465.443 329.031 467.308 330.05 469.022L331.769 468ZM332.79 469.694C332.47 469.177 332.13 468.607 331.769 468L330.05 469.022C330.409 469.626 330.758 470.212 331.089 470.747L332.79 469.694ZM330.196 464.274C330.387 466.226 330.588 468.297 330.954 470.393L332.925 470.048C332.573 468.04 332.378 466.043 332.187 464.081L330.196 464.274ZM326.604 452.351C327.914 453.697 328.697 455.398 329.209 457.422C329.726 459.463 329.951 461.757 330.196 464.274L332.187 464.081C331.945 461.6 331.709 459.146 331.148 456.931C330.583 454.7 329.674 452.638 328.038 450.956L326.604 452.351ZM332.416 447.961C330.847 447.961 329.097 448.321 327.869 448.897C327.281 449.173 326.65 449.572 326.302 450.148C326.112 450.463 325.993 450.856 326.056 451.292C326.117 451.721 326.335 452.074 326.604 452.351L328.038 450.956C327.98 450.896 328.022 450.913 328.036 451.01C328.051 451.115 328.014 451.182 328.014 451.182C328.048 451.126 328.23 450.937 328.718 450.708C329.642 450.275 331.094 449.961 332.416 449.961V447.961ZM338.244 452.351C338.514 452.073 338.734 451.718 338.793 451.287C338.853 450.848 338.73 450.455 338.538 450.142C338.186 449.569 337.552 449.171 336.962 448.896C335.729 448.321 333.976 447.961 332.416 447.961V449.961C333.727 449.961 335.185 450.274 336.117 450.709C336.61 450.939 336.797 451.13 336.833 451.188C336.834 451.19 336.796 451.123 336.811 451.016C336.825 450.916 336.868 450.897 336.811 450.956L338.244 452.351ZM334.175 466.214C334.431 463.416 334.68 460.732 335.265 458.324C335.849 455.925 336.748 453.889 338.244 452.351L336.811 450.956C334.971 452.847 333.951 455.264 333.322 457.851C332.695 460.43 332.437 463.266 332.183 466.031L334.175 466.214ZM333.715 470.62C333.905 469.16 334.041 467.673 334.175 466.214L332.183 466.031C332.049 467.497 331.916 468.946 331.732 470.362L333.715 470.62ZM333.063 468C332.638 468.714 332.244 469.376 331.877 469.958L333.569 471.024C333.952 470.416 334.36 469.731 334.782 469.022L333.063 468ZM340.967 459.129C339.257 459.588 337.763 461.084 336.519 462.688C335.243 464.333 334.069 466.309 333.063 468L334.782 469.022C335.801 467.308 336.913 465.443 338.099 463.914C339.317 462.345 340.462 461.335 341.485 461.061L340.967 459.129ZM347.485 462.948C346.72 460.094 343.813 458.367 340.967 459.129L341.485 461.061C343.235 460.592 345.067 461.651 345.553 463.465L347.485 462.948ZM342.615 469.817C344 469.446 345.371 468.481 346.315 467.297C347.251 466.124 347.912 464.542 347.485 462.948L345.553 463.465C345.751 464.205 345.479 465.138 344.752 466.05C344.033 466.95 343.01 467.641 342.097 467.885L342.615 469.817ZM349.75 471.399C349.322 469.805 347.959 468.766 346.562 468.218C345.152 467.665 343.482 467.514 342.097 467.885L342.615 469.817C343.528 469.572 344.759 469.659 345.832 470.08C346.918 470.505 347.62 471.178 347.818 471.917L349.75 471.399ZM346.014 477.965C348.86 477.203 350.514 474.253 349.75 471.399L347.818 471.917C348.304 473.732 347.247 475.564 345.497 476.033L346.014 477.965ZM334.734 474.235C336.45 475.196 338.455 476.321 340.382 477.107C342.262 477.874 344.304 478.423 346.014 477.965L345.497 476.033C344.474 476.307 342.977 476.006 341.138 475.255C339.346 474.524 337.451 473.465 335.711 472.49L334.734 474.235ZM332.113 472.818C332.865 473.189 333.748 473.683 334.734 474.235L335.711 472.49C334.739 471.946 333.807 471.424 332.999 471.025L332.113 472.818ZM335.644 473.762C334.713 472.807 333.902 471.973 333.324 471.281L331.789 472.562C332.427 473.327 333.3 474.222 334.211 475.158L335.644 473.762ZM335.667 473.787L335.667 473.787L334.188 475.132L334.188 475.132L335.667 473.787ZM342.166 483.693C342.166 481.923 341.107 480.092 339.88 478.475C338.622 476.817 337.016 475.171 335.644 473.762L334.211 475.158C335.603 476.586 337.117 478.142 338.287 479.684C339.488 481.266 340.166 482.634 340.166 483.693H342.166ZM336.791 489C339.745 489 342.166 486.639 342.166 483.693H340.166C340.166 485.505 338.67 487 336.791 487V489ZM331.416 482.518C331.416 483.952 331.993 485.526 332.893 486.745C333.784 487.952 335.14 489 336.791 489V487C336.025 487 335.194 486.496 334.502 485.557C333.818 484.63 333.416 483.463 333.416 482.518H331.416Z" fill="#453B3B"/>
</g>
<path d="M28.3239 6H362.676V4H28.3239V6ZM379 22.3239V557.676H381V22.3239H379ZM362.676 574H28.3239V576H362.676V574ZM12 557.676V22.324H10V557.676H12ZM28.3239 574C19.3085 574 12 566.692 12 557.676H10C10 567.796 18.2039 576 28.3239 576V574ZM379 557.676C379 566.691 371.692 574 362.676 574V576C372.796 576 381 567.796 381 557.676H379ZM362.676 6C371.692 6 379 13.3085 379 22.3239H381C381 12.2039 372.796 4 362.676 4V6ZM28.3239 4C18.2039 4 10 12.2039 10 22.324H12C12 13.3085 19.3085 6 28.3239 6V4Z" fill="#F7E2E2"/>
</g>
<defs>
<filter id="filter0_d" x="0" y="0" width="391" height="592" filterUnits="userSpaceOnUse" color-interpolation-filters="sRGB">
<feFlood flood-opacity="0" result="BackgroundImageFix"/>
<feColorMatrix in="SourceAlpha" type="matrix" values="0 0 0 0 0 0 0 0 0 0 0 0 0 0 0 0 0 0 127 0"/>
<feMorphology radius="3" operator="dilate" in="SourceAlpha" result="effect1_dropShadow"/>
<feOffset dy="6"/>
<feGaussianBlur stdDeviation="4"/>
<feColorMatrix type="matrix" values="0 0 0 0 0.279463 0 0 0 0 0.0711028 0 0 0 0 0.0740583 0 0 0 0.05 0"/>
<feBlend mode="normal" in2="BackgroundImageFix" result="effect1_dropShadow"/>
<feBlend mode="normal" in="SourceGraphic" in2="effect1_dropShadow" result="shape"/>
</filter>
<clipPath id="clip0">
<path d="M11 22.324C11 12.7562 18.7562 5 28.3239 5H362.676C372.244 5 380 12.7562 380 22.3239V557.676C380 567.244 372.244 575 362.676 575H28.3239C18.7562 575 11 567.244 11 557.676V22.324Z" fill="white"/>
</clipPath>
<clipPath id="clip1">
<rect width="270" height="242" fill="white" transform="translate(67 48)"/>
</clipPath>
<clipPath id="clip2">
<rect width="210" height="137.747" fill="white" transform="translate(104.5 152.253)"/>
</clipPath>
<clipPath id="clip3">
<rect width="63" height="354.717" fill="white" transform="translate(261 122)"/>
</clipPath>
<clipPath id="clip4">
<rect width="270" height="242" fill="white" transform="translate(325 532) rotate(-180)"/>
</clipPath>
<clipPath id="clip5">
<rect width="210" height="137.747" fill="white" transform="translate(287.5 427.747) rotate(-180)"/>
</clipPath>
<clipPath id="clip6">
<rect width="63" height="354.717" fill="white" transform="translate(131 458) rotate(-180)"/>
</clipPath>
</defs>
</svg>
