<svg width="391" height="592" viewBox="0 0 391 592" fill="none" xmlns="http://www.w3.org/2000/svg">
<g filter="url(#filter0_d)">
<g clip-path="url(#clip0)">
<path d="M11 22.324C11 12.7562 18.7562 5 28.3239 5H362.676C372.244 5 380 12.7562 380 22.3239V557.676C380 567.244 372.244 575 362.676 575H28.3239C18.7562 575 11 567.244 11 557.676V22.324Z" fill="#FBEEEE"/>
<path d="M51.705 36.6857V64.7734H56.6732V72H34.937V64.7734H40.611V36.6857H34.937V29.4591H57.0967V36.6857H51.705ZM76.4617 36.6857L64.4362 48.3442L78.4095 64.7734H82.8132V72H59.976V64.7734H64.9443L52.0719 49.671L65.9323 36.6857H60.8511V29.4591H81.6558V36.6857H76.4617Z" fill="#732A2A"/>
<g clip-path="url(#clip1)">
<path d="M171.235 88.5603C173.071 85.6137 181.176 82.2924 185 81C186.176 77.4433 184.237 67.9072 195.021 66.3264C200.671 65.4981 207.57 66.3264 218.746 67.9071C229.814 69.4726 240.902 81.5412 246.392 89.0498C251.882 96.5584 250.902 110.588 250.902 116.515C250.902 121.258 254.301 124.814 256 126L250.902 125C250.902 125 251.5 126 252 127.5C252.5 129 253.911 134.833 252.44 133.84C250.969 132.846 249.708 130.66 249.708 133.045V140C248.354 139.023 246.279 137.168 244.5 134.807C245 137.5 245.209 142.705 247.904 143.549C251.273 144.604 246.107 147.769 242.738 147.98C240.043 148.149 237.123 147.206 236 146.714L177 145.828C176.139 146.457 171.403 145.41 173.556 141.849C175.278 139.001 173.718 128.596 173 123.5C173 124.5 172 131 172 132C172 132.8 170.598 129.738 169.897 128.107C168.559 125.393 168.941 117.251 167.412 107.364C165.882 97.4777 168.941 92.2436 171.235 88.5603Z" fill="#9C4F4F"/>
<path d="M107.196 227.253C107.196 211 114.2 185.8 123 177C123 177 143.5 167.5 152 167.5C160.5 167.5 272.5 162.5 272.5 162.5C289 166 298.719 174.719 301 177C307.5 183.5 314.196 201.753 314.196 201.753V292.753H107.196V227.253Z" fill="#F4B9B9"/>
<path d="M180.196 136.753C178.196 133.153 178.363 124.92 178.696 121.253C178.696 113.912 180.196 107.747 180.196 96C183 80.5 192.221 78.1653 200 77C200.585 77.9093 217.879 82.2546 218.5 82.9998C223.5 88.9998 222 97.3635 229 103.5C236 109.637 237.196 103.5 238.196 126.253L237.196 130.253C236.196 134.253 236.696 141.253 234.196 146.253C232.863 150.253 230.196 158.353 230.196 158.753C243 176 185 173 182.696 164.253C181.535 159.843 190.196 162.753 191.196 162.753C191.196 162.753 190.196 159.253 189.696 158.253L187.696 154.253C183.696 151.753 182.696 141.253 180.196 136.753Z" fill="#C39393"/>
<path d="M185.696 152.253C186.412 154.043 189.945 158.137 190.796 163.253M190.196 169.753C191.049 167.479 191.134 165.286 190.796 163.253M190.796 163.253C174.809 165.084 134.174 165.826 122.5 177.5C113.7 186.3 107.304 209.246 104.5 227.5" stroke="#440F0F" stroke-width="3" stroke-linecap="round"/>
<path d="M179.5 109.5C179.5 113.5 178.696 116.453 178.696 121.253C178.363 124.92 178.196 133.153 180.196 136.753C182.696 141.253 184.196 152.253 188.196 154.753C192.196 157.253 199.196 163.253 208.196 158.753C217.196 154.253 231.696 151.253 234.196 146.253C236.696 141.253 236.196 134.253 237.196 130.253C238.244 126.062 238 119.794 238 115.5" stroke="#440F0F" stroke-width="3" stroke-linecap="round"/>
<path d="M148 226L135.5 288.5" stroke="#440F0F" stroke-width="3" stroke-linecap="round"/>
<path d="M232.696 148.753C231.696 152.753 229.696 161.753 229.696 165.753C229.696 169.753 231.696 171.42 232.696 171.753" stroke="#440F0F" stroke-width="3" stroke-linecap="round"/>
<path d="M230.696 159.253C234.863 159.92 244.596 161.253 250.196 161.253C255.796 161.253 266.863 161.92 271.696 162.253C279.964 162.169 308.5 171.5 314.5 202" stroke="#440F0F" stroke-width="3" stroke-linecap="round"/>
<path d="M180 161C174.4 161 163 162.667 158 163.5L208 250L224 222C207.036 200.324 203.265 161 180 161Z" fill="#732A2A" stroke="#440F0F" stroke-width="3" stroke-linecap="round"/>
<path d="M239 161C244.6 161 256 162.667 261 163.5C261 163.5 231 205 224 227C217 249 212 290 212 290H180.5C180.5 255 207.599 161 239 161Z" fill="#732A2A"/>
<path d="M212 290C212 290 217 249 224 227C231 205 261 163.5 261 163.5C259 160 246.1 160 240.5 160C209.099 160 180.5 255 180.5 290" stroke="#440F0F" stroke-width="3" stroke-linecap="round"/>
<path d="M86.8759 249.257C87.0228 255.46 82.8985 273.593 89.9119 283.124C96.9253 292.655 97.5198 302.822 105.014 302.645C112.509 302.467 113.126 300.029 117.114 292.177C124.327 277.973 119.316 255.203 115.869 239.605C113.752 228.785 110.562 213.336 110.536 212.236C110.501 210.782 107.402 194.715 107.356 192.777C107.31 190.839 107.692 186.466 107.634 184.043C107.577 181.62 103.967 172.494 103.448 171.052C102.929 169.61 98.4416 164.383 97.4151 161.983C96.3886 159.583 94.3929 157.206 93.851 154.795C93.3091 152.383 89.9515 153.917 87.5746 155.913C85.6731 157.509 85.6455 157.554 85.5069 158.527L81.2753 156.062C79.3141 155.139 76.8798 154.712 75.449 155.715C74.0183 156.719 72.599 158.207 73.6141 160.122L76.6361 164.899C76.1516 164.91 74.7208 165.914 74.2707 167.379C73.8205 168.844 73.4163 172.248 72.493 174.209C71.5698 176.17 70.1735 178.627 69.7119 179.608C69.2503 180.589 68.2811 180.612 67.8654 183.53C67.4497 186.449 67.9342 186.438 68.9608 188.838C69.9873 191.238 71.4868 193.141 73.1241 200.86C73.627 203.231 80.0228 205.545 81.5453 208.418C83.0679 211.291 86.1818 219.944 86.2736 223.821L86.8759 249.257Z" fill="#C39393" stroke="#440F0F" stroke-width="3" stroke-linecap="round"/>
<path d="M76.3098 192.057C78.2672 192.819 82.378 194.435 83.1625 194.804C84.1431 195.266 86.6233 197.631 87.5695 196.639C88.5157 195.647 90.6484 191.374 90.1409 190.416C89.6333 189.459 85.6569 185.331 84.1803 184.397C82.7036 183.462 78.4916 181.824 77.9956 181.351C77.4996 180.878 75.5842 181.893 75.157 184.327M91.3002 190.389C92.2885 191.174 94.2652 192.602 95.0405 192.584C96.0097 192.561 97.8906 190.092 97.8561 188.638C97.8334 187.677 94.3298 183.045 94.3298 183.045M75.9082 175.098C76.2274 174.928 77.1543 174.486 78.308 174.071C79.7503 173.552 82.1731 173.495 82.6691 173.968C83.1652 174.441 89.5711 178.794 91.0593 180.213C91.5636 180.694 93.5843 182.422 94.3298 183.045M94.3298 183.045C94.3298 183.045 96.7674 184.422 97.7792 185.387C99.2673 186.806 102.533 181.396 101.045 179.977C100.294 178.587 98.2768 175.695 96.219 175.243M81.5846 156.681C82.4119 158.047 86.313 159.682 89.9484 161.816C94.3115 164.377 98.4989 167.387 99.3043 167.897C100.781 168.832 99.9151 173.216 97.5382 175.211C97.2433 175.459 96.786 175.445 96.219 175.243M79.5208 163.861C80.814 163.83 84.5352 165.903 85.7021 166.765C86.7841 167.422 93.1299 174.138 96.219 175.243" stroke="#440F0F" stroke-width="3" stroke-linecap="round"/>
<path d="M86.6973 159.812C86.8358 158.839 87.5884 156.494 89.4899 154.898" stroke="#440F0F" stroke-width="3" stroke-linecap="round"/>
<path d="M84.6685 337.941C76.9931 330.621 82.8339 260.463 82.8339 260.463L122.479 245.02C128.495 266.717 134.96 332.749 125.131 356.989C115.302 381.228 92.344 345.262 84.6685 337.941Z" fill="#F4B9B9" stroke="#440F0F" stroke-width="3" stroke-linecap="round"/>
<path d="M117.268 236.141C105.549 246.676 90.8106 238.268 81.5883 228.984L82.2748 257.976C82.5352 268.973 105.647 273.427 116.537 268.668C127.428 263.909 120.113 229.572 118.542 226.608C117.286 224.237 114.27 222.208 112.949 222.74C116.766 221.982 120.696 233.059 117.268 236.141Z" fill="#732A2A" stroke="#440F0F" stroke-width="3" stroke-linecap="round"/>
<path d="M95.6689 232.679C94.694 228.935 92.1525 223.324 90.8151 217.789C89.1336 210.831 87.5811 198.534 87.2951 195.867M85.3958 157.901C85.3564 156.235 85.242 151.403 86.0878 144.881" stroke="#440F0F" stroke-width="3" stroke-linecap="round"/>
<path d="M82.5926 136.534C80.2347 129.844 77.3585 116.443 83.2703 117.493C84.6131 115.657 88.5508 112.854 92.84 113.212C98.3424 113.671 100.014 116.256 100.092 117.627C102.407 116.811 106.664 117.814 110.362 122.769C112.503 125.638 112.543 128.154 112.063 129.762L112.14 133.014C109.678 141.403 94.111 144.173 86.6354 144.51C86.0738 144.081 84.4789 141.886 82.5926 136.534Z" fill="#F4B9B9"/>
<path d="M83.2704 117.493C87.9999 118.333 91.9888 128.835 93.3921 133.981C100.667 130.163 114.602 124.625 112.14 133.014C109.678 141.403 94.111 144.173 86.6354 144.51C86.0738 144.081 84.4789 141.886 82.5926 136.534C80.2347 129.844 77.3585 116.443 83.2704 117.493Z" stroke="#440F0F" stroke-width="3" stroke-linecap="round"/>
<path d="M106.437 128.513C106.412 127.276 105.651 124.184 102.802 121.702C99.2409 118.6 96.4602 117.713 95.1675 117.546C93.8748 117.379 89.6429 117.626 87.094 119.147" stroke="#440F0F" stroke-width="3" stroke-linecap="round"/>
<path d="M99.4629 116.581C101.778 115.765 106.034 116.768 109.732 121.722C111.874 124.592 111.914 127.108 111.433 128.716" stroke="#440F0F" stroke-width="3" stroke-linecap="round"/>
<path d="M100.313 119.033C100.234 117.662 98.886 113.913 93.3835 113.453C89.0944 113.096 86.3913 115.215 85.0486 117.051" stroke="#440F0F" stroke-width="3" stroke-linecap="round"/>
<path d="M98.0132 125.08C97.7832 123.805 97.004 121.096 95.727 120.462C94.1308 119.668 92.4262 122.303 92.4784 124.319C92.5201 125.931 92.2103 126.89 92.5472 127.223" stroke="#440F0F" stroke-width="3" stroke-linecap="round"/>
<path d="M101.066 128.77C101.85 127.853 102.825 125.842 100.451 125.14C98.4776 124.557 95.197 125.822 93.0913 126.883" stroke="#440F0F" stroke-width="3" stroke-linecap="round"/>
<path d="M304.361 331.75C304.361 325.546 308.913 307.515 302.127 297.821C295.341 288.127 294.988 277.948 287.491 277.948C279.994 277.948 279.32 280.371 275.147 288.127C267.6 302.156 272.07 325.038 275.147 340.714C277.007 351.581 279.831 367.101 279.831 368.201C279.831 369.655 282.549 385.791 282.549 387.73C282.549 389.668 282.064 394.031 282.064 396.454C282.064 398.878 285.457 408.087 285.942 409.541C286.427 410.995 290.789 416.327 291.758 418.75C292.728 421.174 294.667 423.598 295.151 426.021C295.636 428.445 299.029 426.99 301.452 425.052C303.391 423.501 303.42 423.456 303.581 422.487L307.753 425.052C309.692 426.021 312.116 426.506 313.57 425.536C315.024 424.567 316.478 423.113 315.509 421.174L312.601 416.327C313.085 416.327 314.539 415.358 315.024 413.903C315.509 412.449 315.993 409.056 316.963 407.118C317.932 405.179 319.386 402.755 319.871 401.786C320.356 400.817 321.325 400.817 321.81 397.908C322.295 395 321.81 395 320.84 392.577C319.871 390.153 318.417 388.214 316.963 380.459C316.516 378.077 310.177 375.612 308.723 372.704C307.269 369.796 304.361 361.071 304.361 357.193L304.361 331.75Z" fill="#C39393" stroke="#440F0F" stroke-width="3" stroke-linecap="round"/>
<path d="M308.667 243.143C316.167 250.643 308.667 320.643 308.667 320.643L268.667 335.143C263.167 313.31 258.267 247.143 268.667 223.143C279.067 199.143 301.167 235.643 308.667 243.143Z" fill="#F4B9B9" stroke="#440F0F" stroke-width="3" stroke-linecap="round"/>
<path d="M244.535 133C244.535 136.165 245.209 142.705 247.904 143.549C251.273 144.604 246.107 147.769 242.738 147.98C240.043 148.149 237.123 147.206 236 146.714" stroke="#440F0F" stroke-width="3" stroke-linecap="round" stroke-linejoin="round"/>
<path d="M173.556 123C174.273 128.096 175.278 139.001 173.556 141.849C171.403 145.41 176.139 146.457 177 145.828" stroke="#440F0F" stroke-width="3" stroke-linecap="round" stroke-linejoin="round"/>
<path d="M235 109C236.821 112.511 240.589 121.003 241.093 126.885C241.598 132.767 247.047 138.079 249.708 140C249.708 138.476 249.708 134.953 249.708 133.045C249.708 130.66 250.969 132.846 252.44 133.84C253.911 134.833 252.02 129.865 252.02 127.481" stroke="#440F0F" stroke-width="3" stroke-linecap="round" stroke-linejoin="round"/>
<path d="M187 81.1365C188 79.4504 192.28 76.2912 201.4 77.1431C210.52 77.995 216.933 81.4027 219 83" stroke="#440F0F" stroke-width="3" stroke-linecap="round" stroke-linejoin="round"/>
<path d="M191 76.5L185 84.5L182.5 89C182.5 89 181.958 92.4408 195.5 93.5C228 96.0421 219 86.5 219 86.5L213.5 77.5L208.5 84.5L202 72L195.5 83.5L191 76.5Z" fill="#F4B9B9"/>
<path d="M182.5 91C182.5 91 181.458 92.4405 195 93.4997C203.582 94.171 212.361 93.5911 220.5 92.6709" stroke="#440F0F" stroke-width="3" stroke-linecap="round"/>
<path d="M185 85L191 77.5L194.5 84L202.5 71L209 85L213.5 79L219 87" stroke="#440F0F" stroke-width="3" stroke-linecap="round" stroke-linejoin="round"/>
<path d="M186.001 78.5773C185.936 74.5595 188.197 66.8006 197.766 67.9071C209.726 69.2903 215.805 70.8711 218.746 81.5412C221.687 92.2113 226.197 106.636 235.804 108.019C245.412 109.402 243.059 120.863 247.177 123.036C250.471 124.775 253.778 126 256 126C254.301 124.814 250.902 121.258 250.902 116.515C250.902 110.588 251.882 96.5584 246.392 89.0498C240.902 81.5412 229.814 69.4726 218.746 67.9071C207.57 66.3264 200.671 65.4981 195.021 66.3264C184.237 67.9072 187.178 75.0205 186.001 78.5773Z" stroke="#440F0F" stroke-width="3" stroke-linecap="round" stroke-linejoin="round"/>
<path d="M185 81C181.176 82.2924 173.071 85.6137 171.235 88.5603C168.941 92.2436 165.882 97.4777 167.412 107.364C168.941 117.251 168.559 125.393 169.897 128.107C171.235 130.821 172.191 135.861 172.573 126.944C172.956 118.026 171.409 113.116 175.25 107.364C179.5 101 184 87.1324 184 85" stroke="#440F0F" stroke-width="3" stroke-linecap="round" stroke-linejoin="round"/>
</g>
<path d="M70 91C63.9249 91 59 98.9249 59 105C59 98.9249 54.0751 91 48 91C41.9249 91 37 95.9249 37 102C37 111.823 53.1493 125.129 59 132.5C64.8507 125.129 81 111.823 81 102C81 95.9249 76.0751 91 70 91Z" fill="#FD7072" stroke="#FD7072" stroke-linecap="round" stroke-linejoin="round"/>
<path d="M340.295 543.314V515.227H335.327V508H357.063V515.227H351.389V543.314H357.063V550.541H334.903V543.314H340.295ZM315.538 543.314L327.564 531.656L313.591 515.227H309.187V508H332.024V515.227H327.056L339.928 530.329L326.068 543.314H331.149V550.541H310.344V543.314H315.538Z" fill="#732A2A"/>
<g clip-path="url(#clip2)">
<path d="M220.765 491.44C218.929 494.386 210.824 497.708 207 499C205.824 502.557 207.763 512.093 196.979 513.674C191.329 514.502 184.43 513.674 173.254 512.093C162.186 510.527 151.098 498.459 145.608 490.95C140.118 483.442 141.098 469.412 141.098 463.485C141.098 458.742 137.699 455.186 136 454L141.098 455C141.098 455 140.5 454 140 452.5C139.5 451 138.089 445.167 139.56 446.16C141.031 447.154 142.292 449.34 142.292 446.955V440C143.646 440.977 145.721 442.832 147.5 445.193C147 442.5 146.791 437.295 144.096 436.451C140.727 435.396 145.893 432.231 149.262 432.02C151.957 431.851 154.877 432.794 156 433.286L215 434.172C215.861 433.543 220.597 434.59 218.444 438.151C216.722 440.999 218.282 451.404 219 456.5C219 455.5 220 449 220 448C220 447.2 221.402 450.262 222.103 451.893C223.441 454.607 223.059 462.749 224.588 472.636C226.118 482.522 223.059 487.756 220.765 491.44Z" fill="#9C4F4F"/>
<path d="M284.804 352.747C284.804 369 277.8 394.2 269 403C269 403 248.5 412.5 240 412.5C231.5 412.5 119.5 417.5 119.5 417.5C103 414 93.2811 405.281 91 403C84.5 396.5 77.8037 378.247 77.8037 378.247V287.247H284.804V352.747Z" fill="#F4B9B9"/>
<path d="M211.804 443.247C213.804 446.847 213.637 455.08 213.304 458.747C213.304 466.088 211.804 472.253 211.804 484C209 499.5 199.779 501.835 192 503C191.415 502.091 174.121 497.745 173.5 497C168.5 491 170 482.637 163 476.5C156 470.363 154.804 476.5 153.804 453.747L154.804 449.747C155.804 445.747 155.304 438.747 157.804 433.747C159.137 429.747 161.804 421.647 161.804 421.247C149 404 207 407 209.304 415.747C210.465 420.157 201.804 417.247 200.804 417.247C200.804 417.247 201.804 420.747 202.304 421.747L204.304 425.747C208.304 428.247 209.304 438.747 211.804 443.247Z" fill="#C39393"/>
<path d="M206.304 427.747C205.588 425.957 202.055 421.863 201.204 416.747M201.804 410.247C200.951 412.521 200.866 414.714 201.204 416.747M201.204 416.747C217.191 414.916 257.826 414.174 269.5 402.5C278.3 393.7 284.696 370.754 287.5 352.5" stroke="#440F0F" stroke-width="3" stroke-linecap="round"/>
<path d="M212.5 470.5C212.5 466.5 213.304 463.547 213.304 458.747C213.637 455.08 213.804 446.847 211.804 443.247C209.304 438.747 207.804 427.747 203.804 425.247C199.804 422.747 192.804 416.747 183.804 421.247C174.804 425.747 160.304 428.747 157.804 433.747C155.304 438.747 155.804 445.747 154.804 449.747C153.756 453.938 154 460.206 154 464.5" stroke="#440F0F" stroke-width="3" stroke-linecap="round"/>
<path d="M244 354L256.5 291.5" stroke="#440F0F" stroke-width="3" stroke-linecap="round"/>
<path d="M159.304 431.247C160.304 427.247 162.304 418.247 162.304 414.247C162.304 410.247 160.304 408.58 159.304 408.247" stroke="#440F0F" stroke-width="3" stroke-linecap="round"/>
<path d="M161.304 420.747C157.137 420.08 147.404 418.747 141.804 418.747C136.204 418.747 125.137 418.08 120.304 417.747C112.036 417.831 83.5 408.5 77.5 378" stroke="#440F0F" stroke-width="3" stroke-linecap="round"/>
<path d="M212 419C217.6 419 229 417.333 234 416.5L184 330L168 358C184.964 379.676 188.735 419 212 419Z" fill="#732A2A" stroke="#440F0F" stroke-width="3" stroke-linecap="round"/>
<path d="M153 419C147.4 419 136 417.333 131 416.5C131 416.5 161 375 168 353C175 331 180 290 180 290H211.5C211.5 325 184.401 419 153 419Z" fill="#732A2A"/>
<path d="M180 290C180 290 175 331 168 353C161 375 131 416.5 131 416.5C133 420 145.9 420 151.5 420C182.901 420 211.5 325 211.5 290" stroke="#440F0F" stroke-width="3" stroke-linecap="round"/>
<path d="M305.124 330.743C304.977 324.54 309.102 306.407 302.088 296.876C295.075 287.345 294.48 277.178 286.986 277.355C279.491 277.533 278.874 279.971 274.886 287.823C267.673 302.027 272.684 324.797 276.131 340.395C278.248 351.215 281.438 366.664 281.464 367.764C281.499 369.218 284.598 385.285 284.644 387.223C284.69 389.161 284.308 393.534 284.366 395.957C284.423 398.38 288.033 407.506 288.552 408.948C289.071 410.39 293.558 415.617 294.585 418.017C295.611 420.417 297.607 422.794 298.149 425.205C298.691 427.617 302.048 426.083 304.425 424.087C306.327 422.491 306.354 422.446 306.493 421.473L310.725 423.938C312.686 424.861 315.12 425.288 316.551 424.285C317.982 423.281 319.401 421.793 318.386 419.878L315.364 415.101C315.848 415.09 317.279 414.086 317.729 412.621C318.179 411.156 318.584 407.752 319.507 405.791C320.43 403.83 321.827 401.373 322.288 400.392C322.75 399.411 323.719 399.388 324.135 396.47C324.55 393.551 324.066 393.562 323.039 391.162C322.013 388.762 320.513 386.859 318.876 379.14C318.373 376.769 311.977 374.455 310.455 371.582C308.932 368.709 305.818 360.056 305.726 356.179L305.124 330.743Z" fill="#C39393" stroke="#440F0F" stroke-width="3" stroke-linecap="round"/>
<path d="M315.69 387.943C313.733 387.181 309.622 385.565 308.838 385.196C307.857 384.734 305.377 382.369 304.431 383.361C303.484 384.353 301.352 388.626 301.859 389.584C302.367 390.541 306.343 394.669 307.82 395.603C309.297 396.538 313.508 398.176 314.005 398.649C314.501 399.122 316.416 398.107 316.843 395.673M300.7 389.611C299.712 388.826 297.735 387.398 296.96 387.416C295.99 387.439 294.11 389.908 294.144 391.362C294.167 392.323 297.67 396.955 297.67 396.955M316.092 404.902C315.773 405.072 314.846 405.514 313.692 405.929C312.25 406.448 309.827 406.505 309.331 406.032C308.835 405.559 302.429 401.206 300.941 399.787C300.437 399.306 298.416 397.578 297.67 396.955M297.67 396.955C297.67 396.955 295.233 395.578 294.221 394.613C292.733 393.194 289.467 398.604 290.955 400.023C291.706 401.413 293.723 404.305 295.781 404.757M310.416 423.319C309.588 421.953 305.687 420.318 302.052 418.184C297.689 415.623 293.501 412.613 292.696 412.103C291.219 411.168 292.085 406.784 294.462 404.789C294.757 404.541 295.214 404.555 295.781 404.757M312.479 416.139C311.186 416.17 307.465 414.097 306.298 413.235C305.216 412.578 298.87 405.862 295.781 404.757" stroke="#440F0F" stroke-width="3" stroke-linecap="round"/>
<path d="M305.303 420.188C305.164 421.161 304.412 423.506 302.51 425.102" stroke="#440F0F" stroke-width="3" stroke-linecap="round"/>
<path d="M307.331 242.059C315.007 249.379 309.166 319.537 309.166 319.537L269.52 334.98C263.505 313.283 257.04 247.251 266.869 223.011C276.698 198.772 299.656 234.738 307.331 242.059Z" fill="#F4B9B9" stroke="#440F0F" stroke-width="3" stroke-linecap="round"/>
<path d="M274.732 343.859C286.451 333.324 301.189 341.732 310.412 351.016L309.725 322.024C309.465 311.027 286.353 306.573 275.462 311.332C264.572 316.091 271.887 350.428 273.457 353.392C274.714 355.763 277.73 357.792 279.051 357.26C275.234 358.018 271.304 346.941 274.732 343.859Z" fill="#732A2A" stroke="#440F0F" stroke-width="3" stroke-linecap="round"/>
<path d="M296.331 347.321C297.306 351.065 299.848 356.676 301.185 362.211C302.866 369.169 304.419 381.466 304.705 384.133M306.604 422.099C306.644 423.765 306.758 428.597 305.912 435.119" stroke="#440F0F" stroke-width="3" stroke-linecap="round"/>
<path d="M309.408 443.466C311.765 450.156 314.642 463.557 308.73 462.507C307.387 464.343 303.449 467.146 299.16 466.788C293.658 466.329 291.987 463.744 291.908 462.373C289.593 463.189 285.336 462.186 281.638 457.231C279.497 454.362 279.457 451.846 279.938 450.238L279.861 446.986C282.322 438.597 297.889 435.827 305.365 435.49C305.926 435.919 307.521 438.114 309.408 443.466Z" fill="#F4B9B9"/>
<path d="M308.73 462.507C304 461.667 300.011 451.165 298.608 446.019C291.333 449.837 277.399 455.375 279.861 446.986C282.323 438.597 297.889 435.827 305.365 435.49C305.926 435.919 307.521 438.114 309.408 443.466C311.766 450.156 314.642 463.557 308.73 462.507Z" stroke="#440F0F" stroke-width="3" stroke-linecap="round"/>
<path d="M285.564 451.487C285.588 452.724 286.349 455.816 289.198 458.298C292.759 461.4 295.54 462.287 296.833 462.454C298.125 462.621 302.357 462.374 304.906 460.853" stroke="#440F0F" stroke-width="3" stroke-linecap="round"/>
<path d="M292.537 463.419C290.223 464.235 285.966 463.232 282.268 458.278C280.126 455.408 280.086 452.892 280.567 451.284" stroke="#440F0F" stroke-width="3" stroke-linecap="round"/>
<path d="M291.688 460.967C291.766 462.338 293.114 466.087 298.617 466.547C302.906 466.904 305.609 464.785 306.952 462.949" stroke="#440F0F" stroke-width="3" stroke-linecap="round"/>
<path d="M293.987 454.92C294.217 456.195 294.996 458.904 296.273 459.538C297.869 460.332 299.574 457.697 299.522 455.681C299.48 454.069 299.79 453.11 299.453 452.777" stroke="#440F0F" stroke-width="3" stroke-linecap="round"/>
<path d="M290.934 451.23C290.15 452.147 289.175 454.158 291.549 454.86C293.522 455.443 296.803 454.178 298.909 453.117" stroke="#440F0F" stroke-width="3" stroke-linecap="round"/>
<path d="M87.6394 248.25C87.6394 254.454 83.0869 272.485 89.8727 282.179C96.6586 291.873 97.0122 302.052 104.509 302.052C112.006 302.052 112.68 299.629 116.853 291.873C124.4 277.844 119.93 254.962 116.853 239.286C114.993 228.419 112.169 212.899 112.169 211.799C112.169 210.345 109.451 194.209 109.451 192.27C109.451 190.332 109.936 185.969 109.936 183.546C109.936 181.122 106.543 171.913 106.058 170.459C105.573 169.005 101.211 163.673 100.242 161.25C99.2723 158.826 97.3334 156.402 96.8487 153.979C96.364 151.555 92.9711 153.01 90.5476 154.948C88.6088 156.499 88.5802 156.544 88.4187 157.513L84.2466 154.948C82.3078 153.979 79.8843 153.494 78.4301 154.464C76.976 155.433 75.5219 156.887 76.4913 158.826L79.3995 163.673C78.9148 163.673 77.4607 164.642 76.976 166.097C76.4913 167.551 76.0066 170.944 75.0372 172.882C74.0677 174.821 72.6137 177.245 72.129 178.214C71.6443 179.183 70.6748 179.183 70.1901 182.092C69.7054 185 70.1901 185 71.1596 187.423C72.129 189.847 73.5831 191.786 75.0372 199.541C75.4838 201.923 81.823 204.388 83.2771 207.296C84.7312 210.204 87.6394 218.929 87.6394 222.807L87.6394 248.25Z" fill="#C39393" stroke="#440F0F" stroke-width="3" stroke-linecap="round"/>
<path d="M83.3333 336.857C75.8333 329.357 83.3333 259.357 83.3333 259.357L123.333 244.857C128.833 266.69 133.733 332.857 123.333 356.857C112.933 380.857 90.8333 344.357 83.3333 336.857Z" fill="#F4B9B9" stroke="#440F0F" stroke-width="3" stroke-linecap="round"/>
<path d="M147.465 447C147.465 443.835 146.791 437.295 144.096 436.451C140.727 435.396 145.893 432.231 149.262 432.02C151.957 431.851 154.877 432.794 156 433.286" stroke="#440F0F" stroke-width="3" stroke-linecap="round" stroke-linejoin="round"/>
<path d="M218.444 457C217.727 451.904 216.722 440.999 218.444 438.151C220.597 434.59 215.861 433.543 215 434.172" stroke="#440F0F" stroke-width="3" stroke-linecap="round" stroke-linejoin="round"/>
<path d="M157 471C155.179 467.489 151.411 458.997 150.907 453.115C150.402 447.233 144.953 441.921 142.292 440C142.292 441.524 142.292 445.047 142.292 446.955C142.292 449.34 141.031 447.154 139.56 446.16C138.089 445.167 139.98 450.135 139.98 452.519" stroke="#440F0F" stroke-width="3" stroke-linecap="round" stroke-linejoin="round"/>
<path d="M205 498.863C204 500.55 199.72 503.709 190.6 502.857C181.48 502.005 175.067 498.597 173 497" stroke="#440F0F" stroke-width="3" stroke-linecap="round" stroke-linejoin="round"/>
<path d="M201 503.5L207 495.5L209.5 491C209.5 491 210.042 487.559 196.5 486.5C164 483.958 173 493.5 173 493.5L178.5 502.5L183.5 495.5L190 508L196.5 496.5L201 503.5Z" fill="#F4B9B9"/>
<path d="M209.5 489C209.5 489 210.542 487.56 197 486.5C188.418 485.829 179.639 486.409 171.5 487.329" stroke="#440F0F" stroke-width="3" stroke-linecap="round"/>
<path d="M207 495L201 502.5L197.5 496L189.5 509L183 495L178.5 501L173 493" stroke="#440F0F" stroke-width="3" stroke-linecap="round" stroke-linejoin="round"/>
<path d="M205.999 501.423C206.064 505.441 203.803 513.199 194.234 512.093C182.274 510.71 176.195 509.129 173.254 498.459C170.313 487.789 165.803 473.364 156.196 471.981C146.588 470.598 148.941 459.137 144.823 456.964C141.529 455.225 138.222 454 136 454C137.699 455.186 141.098 458.742 141.098 463.485C141.098 469.412 140.118 483.442 145.608 490.95C151.098 498.459 162.186 510.527 173.254 512.093C184.43 513.674 191.329 514.502 196.979 513.674C207.763 512.093 204.822 504.979 205.999 501.423Z" stroke="#440F0F" stroke-width="3" stroke-linecap="round" stroke-linejoin="round"/>
<path d="M207 499C210.824 497.708 218.929 494.386 220.765 491.44C223.059 487.756 226.118 482.522 224.588 472.636C223.059 462.749 223.441 454.607 222.103 451.893C220.765 449.179 219.809 444.139 219.427 453.056C219.044 461.974 220.591 466.884 216.75 472.636C212.5 479 208 492.868 208 495" stroke="#440F0F" stroke-width="3" stroke-linecap="round" stroke-linejoin="round"/>
</g>
<path d="M322 489C328.075 489 333 481.075 333 475C333 481.075 337.925 489 344 489C350.075 489 355 484.075 355 478C355 468.177 338.851 454.871 333 447.5C327.149 454.871 311 468.177 311 478C311 484.075 315.925 489 322 489Z" fill="#FD7072" stroke="#FD7072" stroke-linecap="round" stroke-linejoin="round"/>
</g>
<path d="M28.3239 6H362.676V4H28.3239V6ZM379 22.3239V557.676H381V22.3239H379ZM362.676 574H28.3239V576H362.676V574ZM12 557.676V22.324H10V557.676H12ZM28.3239 574C19.3085 574 12 566.692 12 557.676H10C10 567.796 18.2039 576 28.3239 576V574ZM379 557.676C379 566.691 371.692 574 362.676 574V576C372.796 576 381 567.796 381 557.676H379ZM362.676 6C371.692 6 379 13.3085 379 22.3239H381C381 12.2039 372.796 4 362.676 4V6ZM28.3239 4C18.2039 4 10 12.2039 10 22.324H12C12 13.3085 19.3085 6 28.3239 6V4Z" fill="#F7E2E2"/>
</g>
<defs>
<filter id="filter0_d" x="0" y="0" width="391" height="592" filterUnits="userSpaceOnUse" color-interpolation-filters="sRGB">
<feFlood flood-opacity="0" result="BackgroundImageFix"/>
<feColorMatrix in="SourceAlpha" type="matrix" values="0 0 0 0 0 0 0 0 0 0 0 0 0 0 0 0 0 0 127 0"/>
<feMorphology radius="3" operator="dilate" in="SourceAlpha" result="effect1_dropShadow"/>
<feOffset dy="6"/>
<feGaussianBlur stdDeviation="4"/>
<feColorMatrix type="matrix" values="0 0 0 0 0.279463 0 0 0 0 0.0711028 0 0 0 0 0.0740583 0 0 0 0.05 0"/>
<feBlend mode="normal" in2="BackgroundImageFix" result="effect1_dropShadow"/>
<feBlend mode="normal" in="SourceGraphic" in2="effect1_dropShadow" result="shape"/>
</filter>
<clipPath id="clip0">
<path d="M11 22.324C11 12.7562 18.7562 5 28.3239 5H362.676C372.244 5 380 12.7562 380 22.3239V557.676C380 567.244 372.244 575 362.676 575H28.3239C18.7562 575 11 567.244 11 557.676V22.324Z" fill="white"/>
</clipPath>
<clipPath id="clip1">
<rect width="270" height="242" fill="white" transform="translate(67 48)"/>
</clipPath>
<clipPath id="clip2">
<rect width="270" height="242" fill="white" transform="translate(325 532) rotate(-180)"/>
</clipPath>
</defs>
</svg>
