<svg width="391" height="592" viewBox="0 0 391 592" fill="none" xmlns="http://www.w3.org/2000/svg">
<g filter="url(#filter0_d)">
<g clip-path="url(#clip0)">
<path d="M11 22.324C11 12.7562 18.7562 5 28.3239 5H362.676C372.244 5 380 12.7562 380 22.3239V557.676C380 567.244 372.244 575 362.676 575H28.3239C18.7562 575 11 567.244 11 557.676V22.324Z" fill="#FBEEEE"/>
<path d="M51.705 36.6857V64.7734H56.6732V72H34.937V64.7734H40.611V36.6857H34.937V29.4591H57.0967V36.6857H51.705ZM76.4617 36.6857L64.4362 48.3442L78.4095 64.7734H82.8132V72H59.976V64.7734H64.9443L52.0719 49.671L65.9323 36.6857H60.8511V29.4591H81.6558V36.6857H76.4617Z" fill="#732A2A"/>
<g clip-path="url(#clip1)">
<path d="M107.196 227.253C107.196 211 114.2 185.8 123 177C123 177 143.5 167.5 152 167.5C160.5 167.5 272.5 162.5 272.5 162.5C289 166 298.719 174.719 301 177C307.5 183.5 314.196 201.753 314.196 201.753V292.753H107.196V227.253Z" fill="#F4B9B9"/>
<path d="M186.696 154.253C187.412 156.043 190.945 160.137 191.796 165.253M191.196 171.753C192.049 169.479 192.134 167.286 191.796 165.253M191.796 165.253C175.809 167.084 135.174 167.826 123.5 179.5C114.7 188.3 108.304 211.247 105.5 229.5" stroke="#440F0F" stroke-width="3" stroke-linecap="round"/>
<path d="M231.696 161.253C235.863 161.92 245.596 163.253 251.196 163.253C256.796 163.253 267.863 163.92 272.696 164.253C280.964 164.169 309.5 173.5 315.5 204" stroke="#440F0F" stroke-width="3" stroke-linecap="round"/>
<path d="M148 226L135.5 288.5" stroke="#440F0F" stroke-width="3" stroke-linecap="round"/>
<path d="M180 161C174.4 161 163 162.667 158 163.5L208 250L224 222C207.036 200.324 203.265 161 180 161Z" fill="#732A2A" stroke="#440F0F" stroke-width="3" stroke-linecap="round"/>
<path d="M239 161C244.6 161 256 162.667 261 163.5C261 163.5 231 205 224 227C217 249 212 290 212 290H180.5C180.5 255 207.599 161 239 161Z" fill="#732A2A"/>
<path d="M212 290C212 290 217 249 224 227C231 205 261 163.5 261 163.5C259 160 246.1 160 240.5 160C209.099 160 180.5 255 180.5 290" stroke="#440F0F" stroke-width="3" stroke-linecap="round"/>
</g>
<path d="M86.876 249.261C87.0228 255.463 82.8985 273.597 89.9119 283.128C96.9253 292.658 97.5198 302.826 105.014 302.648C112.509 302.471 113.126 300.032 117.114 292.18C124.327 277.976 119.316 255.206 115.869 239.608C113.752 228.788 110.562 213.339 110.536 212.239C110.501 210.786 107.402 194.719 107.356 192.78C107.31 190.842 107.692 186.469 107.634 184.047C107.577 181.624 103.967 172.497 103.448 171.055C102.929 169.613 99.6707 160.673 97.4151 161.986C95.6967 162.987 92.2323 164.533 85.507 158.53L81.2753 156.065C79.3141 155.142 76.8798 154.715 75.4491 155.719C74.0183 156.722 72.5991 158.21 73.6141 160.126L76.6362 164.902C76.1516 164.914 74.7209 165.917 74.2707 167.383C73.8206 168.848 73.4163 172.251 72.4931 174.212C71.5698 176.174 70.1735 178.631 69.7119 179.611C69.2503 180.592 68.2812 180.615 67.8654 183.534C67.4497 186.453 67.9343 186.441 68.9608 188.841C69.9873 191.241 71.4869 193.145 73.1242 200.863C73.6271 203.234 80.0228 205.548 81.5454 208.421C83.0679 211.294 86.1818 219.948 86.2736 223.824L86.876 249.261Z" fill="#C39393" stroke="#440F0F" stroke-width="3" stroke-linecap="round"/>
<path d="M84.6688 337.944C76.9933 330.624 82.8341 260.466 82.8341 260.466L122.48 245.023C128.495 266.72 134.96 332.752 125.131 356.992C115.302 381.231 92.3442 345.265 84.6688 337.944Z" fill="#F4B9B9" stroke="#440F0F" stroke-width="3" stroke-linecap="round"/>
<path d="M117.268 236.144C105.549 246.679 90.8109 238.271 81.5885 228.987L82.275 257.979C82.5354 268.976 105.647 273.43 116.538 268.671C127.428 263.912 120.113 229.575 118.543 226.611C117.286 224.24 114.271 222.211 112.949 222.743C116.766 221.985 120.696 233.062 117.268 236.144Z" fill="#732A2A" stroke="#440F0F" stroke-width="3" stroke-linecap="round"/>
<rect x="113.774" y="149.188" width="13" height="61" rx="4" transform="rotate(44.1794 113.774 149.188)" fill="#CA9999" stroke="#440F0F" stroke-width="3" stroke-linecap="round" stroke-linejoin="round"/>
<rect x="103.675" y="133.284" width="50" height="7" rx="3.5" transform="rotate(44.1794 103.675 133.284)" fill="#A96969" stroke="#440F0F" stroke-width="3" stroke-linecap="round" stroke-linejoin="round"/>
<rect x="71.4031" y="190.925" width="15" height="10" rx="2" transform="rotate(44.1794 71.4031 190.925)" fill="#CA9999" stroke="#440F0F" stroke-width="3" stroke-linecap="round" stroke-linejoin="round"/>
<path d="M215.357 37.4786C215.681 37.1456 216.06 36.8716 216.477 36.6686L239.944 25.2621C241.627 24.4443 243.411 26.1781 242.642 27.8833L231.912 51.6678C231.721 52.0909 231.458 52.4776 231.135 52.8105L131.541 155.299C130.001 156.883 127.469 156.919 125.885 155.38L115.844 145.623C114.26 144.083 114.224 141.551 115.763 139.967L215.357 37.4786Z" fill="#FDD3D3" stroke="#440F0F" stroke-width="3" stroke-linecap="round" stroke-linejoin="round"/>
<rect x="61.8759" y="200.556" width="10.843" height="10.843" transform="rotate(-0.820604 61.8759 200.556)" fill="#732A2A" stroke="#440F0F" stroke-width="3"/>
<rect x="111.984" y="144.909" width="14.5709" height="14.5709" transform="rotate(-0.820604 111.984 144.909)" fill="#732A2A" stroke="#440F0F" stroke-width="3"/>
<path d="M132.712 138.31L226.097 42.21" stroke="#440F0F" stroke-width="3" stroke-linecap="round"/>
<path d="M83.7047 194.93C82.9202 194.561 78.3225 192.215 76.3651 191.453C76.3651 191.453 71.8664 191.559 72.2479 186.549C73.1766 183.526 76.4503 175.224 76.4503 175.224C76.7696 175.055 77.6965 174.613 78.8502 174.197L76.773 166.436L80.063 163.987L82.1268 156.807C82.9541 158.173 86.8552 159.808 90.4906 161.942C94.8536 164.503 99.041 167.513 99.8465 168.023C101.323 168.958 100.457 173.342 98.0804 175.338C97.8545 175.527 97.5333 175.564 97.1405 175.479C99.0625 176.171 100.882 178.799 101.587 180.103C103.075 181.522 99.8095 186.933 98.3213 185.513C97.3096 184.548 94.872 183.171 94.872 183.171C94.872 183.171 98.3756 187.803 98.3983 188.764C98.4327 190.218 96.5519 192.687 95.5827 192.71C94.8074 192.728 91.6713 191.327 90.683 190.543C91.1906 191.5 89.0579 195.773 88.1117 196.765C87.1655 197.757 84.6853 195.392 83.7047 194.93Z" fill="#C39393"/>
<path d="M75.7599 190.896C77.7173 191.657 82.9202 194.561 83.7047 194.93C84.6853 195.392 87.1655 197.757 88.1117 196.765C89.0579 195.773 91.1905 191.5 90.683 190.542C90.1755 189.585 86.1991 185.457 84.7224 184.523C83.2458 183.588 76.015 181.193 75.519 180.72C75.0229 180.247 73.1076 181.262 72.6804 183.696M91.8424 190.515C92.8306 191.3 94.8074 192.728 95.5827 192.71C96.5518 192.687 98.4327 190.218 98.3983 188.764C98.3756 187.803 94.872 183.171 94.872 183.171M76.4503 175.224C76.7695 175.054 77.6964 174.612 78.8502 174.197C80.2924 173.678 82.7153 173.621 83.2113 174.094C83.7073 174.567 90.1133 178.92 91.6014 180.339C92.1057 180.82 94.1265 182.548 94.872 183.171M94.872 183.171C94.872 183.171 97.3096 184.548 98.3213 185.513C99.8094 186.932 103.075 181.522 101.587 180.103C100.836 178.713 98.8189 175.821 96.7612 175.369M82.1268 156.807C82.9541 158.173 86.8552 159.808 90.4906 161.942C94.8536 164.503 99.041 167.513 99.8465 168.023C101.323 168.958 100.457 173.342 98.0804 175.337C97.7855 175.585 97.3282 175.571 96.7612 175.369M80.0629 163.987C81.3561 163.956 85.0773 166.029 86.2443 166.891C87.3262 167.548 93.672 174.264 96.7612 175.369" stroke="#440F0F" stroke-width="3" stroke-linecap="round"/>
<path d="M102.424 154.525C103.682 162.298 102.86 172.909 103.028 180.018C103.112 183.562 101.713 205.857 105.617 201.763L113.24 174.774L107.768 154.898L102.424 154.525Z" fill="#C39393"/>
<path d="M108.443 196.249C108.396 194.249 110.108 190.353 110.049 187.854C109.99 185.354 111.835 178.809 112.776 176.286C114.386 171.966 106.43 155.652 106.268 154.934C105.709 152.446 103.494 152.835 101.781 155.54C98.8888 160.11 106.186 170.37 103.415 174.007C101.475 176.553 102.314 178.034 102.456 184.032" stroke="#440F0F" stroke-width="3" stroke-linecap="round"/>
<path d="M198.051 74C207.251 74 214.551 83 217.051 87.5C220.551 83.6667 232.651 78.6 239.051 85C247.051 93 253.551 113.5 251.051 122.5C248.551 131.5 248.051 127.5 245.551 119.5C243.051 111.5 242.551 121.5 242.551 128.5C242.551 135.5 243.051 147.5 245.551 147.5C247.551 147.5 242.051 148.5 239.051 149H179.051C175.551 149.833 168.951 151 170.551 149C172.551 146.5 173.551 143 173.551 139C173.551 135 165.051 131.5 164.051 117.5C163.051 103.5 177.051 96.5 173.551 97C170.051 97.5 159.051 93 168.551 92C178.051 91 186.551 74 198.051 74Z" fill="#732A2A"/>
<path d="M173.246 139C173.246 143 172.246 146.5 170.246 149C168.646 151 175.246 149.833 178.746 149" stroke="#440F0F" stroke-width="3" stroke-linecap="round" stroke-linejoin="round"/>
<path d="M242.246 137C242.913 139.167 244.546 143.9 245.746 145.5C247.246 147.5 238.746 150 238.246 150" stroke="#440F0F" stroke-width="3" stroke-linecap="round" stroke-linejoin="round"/>
<path d="M217.051 87.5C214.551 83 207.251 74 198.051 74C186.551 74 178.051 91 168.551 92C159.051 93 170.051 97.5 173.551 97C177.051 96.5 163.051 103.5 164.051 117.5C165.051 131.5 172.551 134 174.551 136" stroke="#440F0F" stroke-width="3" stroke-linecap="round" stroke-linejoin="round"/>
<path d="M219.051 87.4999C222.051 84.4999 229.751 79.3999 236.551 82.9999C245.051 87.4999 252.051 107.5 252.051 114.5C252.051 121.5 248.551 128.5 246.551 128.5C244.551 128.5 247.051 125 246.551 120.5C246.051 116 241.551 116.5 241.551 119.5C241.551 122.5 244.551 131 243.051 134.5C241.851 137.3 240.551 138.333 240.051 138.5" stroke="#440F0F" stroke-width="3" stroke-linecap="round" stroke-linejoin="round"/>
<g clip-path="url(#clip2)">
<path d="M304.361 331.746C304.361 325.542 308.913 307.511 302.127 297.817C295.341 288.123 294.988 277.945 287.491 277.945C279.994 277.945 279.32 280.368 275.147 288.123C267.6 302.153 272.07 325.034 275.147 340.71C277.007 351.577 279.831 367.097 279.831 368.197C279.831 369.652 282.549 385.787 282.549 387.726C282.549 389.665 282.064 394.027 282.064 396.451C282.064 398.874 285.457 408.084 285.942 409.538C286.427 410.992 289.472 420.007 291.758 418.747C293.5 417.787 297 416.324 303.581 422.484L307.753 425.048C309.692 426.018 312.116 426.502 313.57 425.533C315.024 424.563 316.478 423.109 315.509 421.171L312.601 416.324C313.085 416.324 314.539 415.354 315.024 413.9C315.509 412.446 315.993 409.053 316.963 407.114C317.932 405.175 319.386 402.752 319.871 401.783C320.356 400.813 321.325 400.813 321.81 397.905C322.295 394.997 321.81 394.997 320.84 392.573C319.871 390.15 318.417 388.211 316.963 380.456C316.516 378.074 310.177 375.609 308.723 372.7C307.269 369.792 304.361 361.068 304.361 357.19L304.361 331.746Z" fill="#C39393" stroke="#440F0F" stroke-width="3" stroke-linecap="round"/>
<path d="M308.667 243.14C316.167 250.64 308.667 320.64 308.667 320.64L268.667 335.14C263.167 313.306 258.267 247.14 268.667 223.14C279.067 199.14 301.167 235.64 308.667 243.14Z" fill="#F4B9B9" stroke="#440F0F" stroke-width="3" stroke-linecap="round"/>
</g>
<path d="M180.196 136.753C178.196 133.153 178.363 124.92 178.696 121.253C178.696 113.912 185 107.747 185 96C190.959 91.9912 200.106 92.4187 207.885 91.2534C208.47 92.1628 209.075 93.0082 209.696 93.7534C214.696 99.7534 223.196 91.8634 230.196 98C237.04 104 226.968 120.496 237.447 125.901C237.588 126.88 237.655 128.419 237.196 130.253C236.196 134.253 236.696 141.253 234.196 146.253C232.863 150.253 230.196 158.353 230.196 158.753C225 173 199 171.5 191.196 162.753C191.196 162.753 190.196 159.253 189.696 158.253L187.696 154.253C183.696 151.753 182.696 141.253 180.196 136.753Z" fill="#C39393"/>
<path d="M172.953 62.5235L172.366 89.1038C172.366 89.1038 191.594 85.5664 208.465 86.6705C225.336 87.7746 245.473 93.8882 245.473 93.8882L246.061 67.3079L225.209 72.1093L209.298 56.3381L190.956 69.8677L172.953 62.5235Z" fill="#F4B9B9" stroke="#440F0F" stroke-width="3" stroke-linecap="round" stroke-linejoin="round"/>
<path d="M195.551 92.0002C193.551 90.8002 187.718 93.1669 185.051 94.5002C181.051 95.5 181.051 100.4 181.051 104C181.051 107.6 186.051 110.5 188.551 111.5C187.885 109.5 186.651 105 187.051 103C187.551 100.5 198.051 93.5002 195.551 92.0002Z" fill="#732A2A"/>
<path d="M185.051 94.0001C183.551 93.6668 180.551 94.8001 180.551 102C180.551 109.2 186.551 112 189.551 112.5C187.885 109.167 185.551 101.9 189.551 99.5C193.551 97.1 195.551 93.8333 196.051 92.5" stroke="#440F0F" stroke-width="3" stroke-linecap="round" stroke-linejoin="round"/>
<path d="M232.696 148.753C231.696 152.753 229.696 161.753 229.696 165.753C229.696 169.753 231.696 171.42 232.696 171.753" stroke="#440F0F" stroke-width="3" stroke-linecap="round"/>
<path d="M180.196 103.753C180.196 107.753 178.696 116.453 178.696 121.253C178.363 124.92 178.196 133.153 180.196 136.753C182.696 141.253 184.196 152.253 188.196 154.753C192.196 157.253 199.196 163.253 208.196 158.753C217.196 154.253 231.696 151.253 234.196 146.253C236.696 141.253 236.196 134.253 237.196 130.253C237.996 127.053 237.196 124.753 237.196 124.753" stroke="#440F0F" stroke-width="3" stroke-linecap="round"/>
<path d="M59 91L42 111L59 131L76 111L59 91Z" fill="#FD7072"/>
<path d="M340.295 543.314V515.227H335.327V508H357.063V515.227H351.389V543.314H357.063V550.541H334.903V543.314H340.295ZM315.538 543.314L327.564 531.656L313.591 515.227H309.187V508H332.024V515.227H327.056L339.928 530.329L326.068 543.314H331.149V550.541H310.344V543.314H315.538Z" fill="#732A2A"/>
<g clip-path="url(#clip3)">
<path d="M284.804 352.747C284.804 369 277.8 394.2 269 403C269 403 248.5 412.5 240 412.5C231.5 412.5 119.5 417.5 119.5 417.5C103 414 93.2811 405.281 91 403C84.5 396.5 77.8037 378.247 77.8037 378.247V287.247H284.804V352.747Z" fill="#F4B9B9"/>
<path d="M205.304 425.747C204.588 423.957 201.055 419.863 200.204 414.747M200.804 408.247C199.951 410.521 199.866 412.714 200.204 414.747M200.204 414.747C216.191 412.916 256.826 412.174 268.5 400.5C277.3 391.7 283.696 368.753 286.5 350.5" stroke="#440F0F" stroke-width="3" stroke-linecap="round"/>
<path d="M160.304 418.747C156.137 418.08 146.404 416.747 140.804 416.747C135.204 416.747 124.137 416.08 119.304 415.747C111.036 415.831 82.5 406.5 76.5 376" stroke="#440F0F" stroke-width="3" stroke-linecap="round"/>
<path d="M244 354L256.5 291.5" stroke="#440F0F" stroke-width="3" stroke-linecap="round"/>
<path d="M212 419C217.6 419 229 417.333 234 416.5L184 330L168 358C184.964 379.676 188.735 419 212 419Z" fill="#732A2A" stroke="#440F0F" stroke-width="3" stroke-linecap="round"/>
<path d="M153 419C147.4 419 136 417.333 131 416.5C131 416.5 161 375 168 353C175 331 180 290 180 290H211.5C211.5 325 184.401 419 153 419Z" fill="#732A2A"/>
<path d="M180 290C180 290 175 331 168 353C161 375 131 416.5 131 416.5C133 420 145.9 420 151.5 420C182.901 420 211.5 325 211.5 290" stroke="#440F0F" stroke-width="3" stroke-linecap="round"/>
</g>
<path d="M305.124 330.739C304.977 324.537 309.102 306.403 302.088 296.872C295.075 287.342 294.48 277.174 286.986 277.352C279.491 277.529 278.874 279.968 274.886 287.82C267.673 302.024 272.684 324.794 276.131 340.392C278.248 351.212 281.438 366.661 281.464 367.761C281.499 369.214 284.598 385.281 284.644 387.22C284.69 389.158 284.308 393.531 284.366 395.953C284.423 398.376 288.033 407.503 288.552 408.945C289.071 410.387 292.329 419.327 294.585 418.014C296.303 417.013 299.768 415.467 306.493 421.47L310.725 423.935C312.686 424.858 315.12 425.285 316.551 424.281C317.982 423.278 319.401 421.79 318.386 419.874L315.364 415.098C315.848 415.086 317.279 414.083 317.729 412.617C318.179 411.152 318.584 407.749 319.507 405.788C320.43 403.826 321.826 401.369 322.288 400.389C322.75 399.408 323.719 399.385 324.135 396.466C324.55 393.547 324.066 393.559 323.039 391.159C322.013 388.759 320.513 386.855 318.876 379.137C318.373 376.766 311.977 374.452 310.455 371.579C308.932 368.706 305.818 360.052 305.726 356.176L305.124 330.739Z" fill="#C39393" stroke="#440F0F" stroke-width="3" stroke-linecap="round"/>
<path d="M307.331 242.056C315.007 249.376 309.166 319.534 309.166 319.534L269.52 334.977C263.505 313.28 257.04 247.248 266.869 223.008C276.698 198.769 299.656 234.735 307.331 242.056Z" fill="#F4B9B9" stroke="#440F0F" stroke-width="3" stroke-linecap="round"/>
<path d="M274.732 343.856C286.451 333.321 301.189 341.729 310.412 351.013L309.725 322.021C309.465 311.024 286.353 306.57 275.462 311.329C264.572 316.088 271.887 350.425 273.457 353.389C274.714 355.76 277.73 357.789 279.051 357.257C275.234 358.015 271.304 346.938 274.732 343.856Z" fill="#732A2A" stroke="#440F0F" stroke-width="3" stroke-linecap="round"/>
<rect x="278.226" y="430.812" width="13" height="61" rx="4" transform="rotate(-135.821 278.226 430.812)" fill="#CA9999" stroke="#440F0F" stroke-width="3" stroke-linecap="round" stroke-linejoin="round"/>
<rect x="288.325" y="446.716" width="50" height="7" rx="3.5" transform="rotate(-135.821 288.325 446.716)" fill="#A96969" stroke="#440F0F" stroke-width="3" stroke-linecap="round" stroke-linejoin="round"/>
<rect x="320.597" y="389.075" width="15" height="10" rx="2" transform="rotate(-135.821 320.597 389.075)" fill="#CA9999" stroke="#440F0F" stroke-width="3" stroke-linecap="round" stroke-linejoin="round"/>
<path d="M176.643 542.521C176.319 542.854 175.94 543.128 175.523 543.331L152.055 554.738C150.373 555.556 148.589 553.822 149.358 552.117L160.088 528.332C160.279 527.909 160.542 527.522 160.865 527.189L260.459 424.701C261.999 423.117 264.531 423.081 266.115 424.62L276.155 434.377C277.74 435.917 277.776 438.449 276.236 440.033L176.643 542.521Z" fill="#FDD3D3" stroke="#440F0F" stroke-width="3" stroke-linecap="round" stroke-linejoin="round"/>
<rect x="330.124" y="379.444" width="10.843" height="10.843" transform="rotate(179.179 330.124 379.444)" fill="#732A2A" stroke="#440F0F" stroke-width="3"/>
<rect x="280.015" y="435.091" width="14.5709" height="14.5709" transform="rotate(179.179 280.015 435.091)" fill="#732A2A" stroke="#440F0F" stroke-width="3"/>
<path d="M259.288 441.69L165.902 537.79" stroke="#440F0F" stroke-width="3" stroke-linecap="round"/>
<path d="M308.295 385.07C309.08 385.439 313.677 387.785 315.635 388.547C315.635 388.547 320.134 388.441 319.752 393.451C318.823 396.474 315.55 404.776 315.55 404.776C315.23 404.945 314.303 405.387 313.15 405.803L315.227 413.564L311.937 416.013L309.873 423.193C309.046 421.827 305.145 420.192 301.509 418.058C297.146 415.497 292.959 412.487 292.153 411.977C290.677 411.042 291.543 406.658 293.919 404.662C294.145 404.473 294.467 404.436 294.859 404.521C292.937 403.829 291.118 401.201 290.413 399.897C288.925 398.478 292.19 393.067 293.679 394.487C294.69 395.452 297.128 396.829 297.128 396.829C297.128 396.829 293.624 392.197 293.602 391.236C293.567 389.782 295.448 387.313 296.417 387.29C297.192 387.272 300.329 388.673 301.317 389.457C300.809 388.5 302.942 384.227 303.888 383.235C304.834 382.243 307.315 384.608 308.295 385.07Z" fill="#C39393"/>
<path d="M316.24 389.104C314.283 388.343 309.08 385.439 308.295 385.07C307.315 384.608 304.834 382.243 303.888 383.235C302.942 384.227 300.809 388.5 301.317 389.458C301.824 390.415 305.801 394.543 307.277 395.477C308.754 396.412 315.985 398.807 316.481 399.28C316.977 399.753 318.892 398.738 319.319 396.304M300.157 389.485C299.169 388.7 297.192 387.272 296.417 387.29C295.448 387.313 293.567 389.782 293.602 391.236C293.624 392.197 297.128 396.829 297.128 396.829M315.55 404.776C315.23 404.946 314.303 405.388 313.15 405.803C311.707 406.322 309.285 406.379 308.789 405.906C308.293 405.433 301.887 401.08 300.398 399.661C299.894 399.18 297.873 397.452 297.128 396.829M297.128 396.829C297.128 396.829 294.69 395.452 293.679 394.487C292.19 393.068 288.925 398.478 290.413 399.897C291.164 401.287 293.181 404.179 295.239 404.631M309.873 423.193C309.046 421.827 305.145 420.192 301.509 418.058C297.146 415.497 292.959 412.487 292.153 411.977C290.677 411.042 291.543 406.658 293.92 404.663C294.214 404.415 294.672 404.429 295.239 404.631M311.937 416.013C310.644 416.044 306.923 413.971 305.756 413.109C304.674 412.452 298.328 405.736 295.239 404.631" stroke="#440F0F" stroke-width="3" stroke-linecap="round"/>
<path d="M289.576 425.475C288.317 417.702 289.14 407.091 288.972 399.982C288.888 396.438 290.287 374.143 286.382 378.237L278.76 405.226L284.232 425.102L289.576 425.475Z" fill="#C39393"/>
<path d="M283.557 383.751C283.604 385.751 281.892 389.647 281.951 392.146C282.01 394.646 280.165 401.191 279.224 403.714C277.614 408.034 285.57 424.348 285.732 425.066C286.291 427.554 288.506 427.165 290.218 424.46C293.111 419.89 285.813 409.63 288.585 405.993C290.525 403.447 289.686 401.966 289.544 395.968" stroke="#440F0F" stroke-width="3" stroke-linecap="round"/>
<path d="M193.949 506C184.749 506 177.449 497 174.949 492.5C171.449 496.333 159.349 501.4 152.949 495C144.949 487 138.449 466.5 140.949 457.5C143.449 448.5 143.949 452.5 146.449 460.5C148.949 468.5 149.449 458.5 149.449 451.5C149.449 444.5 148.949 432.5 146.449 432.5C144.449 432.5 149.949 431.5 152.949 431H212.949C216.449 430.167 223.049 429 221.449 431C219.449 433.5 218.449 437 218.449 441C218.449 445 226.949 448.5 227.949 462.5C228.949 476.5 214.949 483.5 218.449 483C221.949 482.5 232.949 487 223.449 488C213.949 489 205.449 506 193.949 506Z" fill="#732A2A"/>
<path d="M218.754 441C218.754 437 219.754 433.5 221.754 431C223.354 429 216.754 430.167 213.254 431" stroke="#440F0F" stroke-width="3" stroke-linecap="round" stroke-linejoin="round"/>
<path d="M149.754 443C149.087 440.833 147.454 436.1 146.254 434.5C144.754 432.5 153.254 430 153.754 430" stroke="#440F0F" stroke-width="3" stroke-linecap="round" stroke-linejoin="round"/>
<path d="M174.949 492.5C177.449 497 184.749 506 193.949 506C205.449 506 213.949 489 223.449 488C232.949 487 221.949 482.5 218.449 483C214.949 483.5 228.949 476.5 227.949 462.5C226.949 448.5 219.449 446 217.449 444" stroke="#440F0F" stroke-width="3" stroke-linecap="round" stroke-linejoin="round"/>
<path d="M172.949 492.5C169.949 495.5 162.249 500.6 155.449 497C146.949 492.5 139.949 472.5 139.949 465.5C139.949 458.5 143.449 451.5 145.449 451.5C147.449 451.5 144.949 455 145.449 459.5C145.949 464 150.449 463.5 150.449 460.5C150.449 457.5 147.449 449 148.949 445.5C150.149 442.7 151.449 441.667 151.949 441.5" stroke="#440F0F" stroke-width="3" stroke-linecap="round" stroke-linejoin="round"/>
<g clip-path="url(#clip4)">
<path d="M87.6394 248.254C87.6394 254.458 83.0869 272.489 89.8727 282.183C96.6586 291.877 97.0122 302.055 104.509 302.055C112.006 302.055 112.68 299.632 116.853 291.877C124.4 277.847 119.93 254.966 116.853 239.29C114.993 228.423 112.169 212.903 112.169 211.803C112.169 210.348 109.451 194.213 109.451 192.274C109.451 190.335 109.936 185.973 109.936 183.549C109.936 181.126 106.543 171.916 106.058 170.462C105.573 169.008 102.528 159.993 100.242 161.253C98.5 162.213 95 163.676 88.4187 157.516L84.2466 154.952C82.3078 153.982 79.8843 153.498 78.4301 154.467C76.976 155.437 75.5219 156.891 76.4913 158.829L79.3995 163.676C78.9148 163.676 77.4607 164.646 76.976 166.1C76.4913 167.554 76.0066 170.947 75.0372 172.886C74.0677 174.825 72.6137 177.248 72.129 178.217C71.6443 179.187 70.6748 179.187 70.1901 182.095C69.7054 185.003 70.1901 185.003 71.1596 187.427C72.129 189.85 73.5831 191.789 75.0372 199.544C75.4838 201.926 81.823 204.391 83.2771 207.3C84.7312 210.208 87.6394 218.932 87.6394 222.81L87.6394 248.254Z" fill="#C39393" stroke="#440F0F" stroke-width="3" stroke-linecap="round"/>
<path d="M83.3333 336.86C75.8333 329.36 83.3333 259.36 83.3333 259.36L123.333 244.86C128.833 266.694 133.733 332.86 123.333 356.86C112.933 380.86 90.8333 344.36 83.3333 336.86Z" fill="#F4B9B9" stroke="#440F0F" stroke-width="3" stroke-linecap="round"/>
</g>
<path d="M211.804 443.247C213.804 446.847 213.637 455.08 213.304 458.747C213.304 466.088 207 472.253 207 484C201.041 488.009 191.894 487.581 184.115 488.747C183.53 487.837 182.925 486.992 182.304 486.247C177.304 480.247 168.804 488.137 161.804 482C154.96 476 165.032 459.504 154.553 454.099C154.412 453.12 154.345 451.581 154.804 449.747C155.804 445.747 155.304 438.747 157.804 433.747C159.137 429.747 161.804 421.647 161.804 421.247C167 407 193 408.5 200.804 417.247C200.804 417.247 201.804 420.747 202.304 421.747L204.304 425.747C208.304 428.247 209.304 438.747 211.804 443.247Z" fill="#C39393"/>
<path d="M219.047 517.477L219.634 490.896C219.634 490.896 200.406 494.434 183.535 493.33C166.664 492.225 146.527 486.112 146.527 486.112L145.939 512.692L166.791 507.891L182.702 523.662L201.044 510.132L219.047 517.477Z" fill="#F4B9B9" stroke="#440F0F" stroke-width="3" stroke-linecap="round" stroke-linejoin="round"/>
<path d="M196.449 488C198.449 489.2 204.282 486.833 206.949 485.5C210.949 484.5 210.949 479.6 210.949 476C210.949 472.4 205.949 469.5 203.449 468.5C204.115 470.5 205.349 475 204.949 477C204.449 479.5 193.949 486.5 196.449 488Z" fill="#732A2A"/>
<path d="M206.949 486C208.449 486.333 211.449 485.2 211.449 478C211.449 470.8 205.449 468 202.449 467.5C204.115 470.833 206.449 478.1 202.449 480.5C198.449 482.9 196.449 486.167 195.949 487.5" stroke="#440F0F" stroke-width="3" stroke-linecap="round" stroke-linejoin="round"/>
<path d="M159.304 431.247C160.304 427.247 162.304 418.247 162.304 414.247C162.304 410.247 160.304 408.58 159.304 408.247" stroke="#440F0F" stroke-width="3" stroke-linecap="round"/>
<path d="M211.804 476.247C211.804 472.247 213.304 463.547 213.304 458.747C213.637 455.08 213.804 446.847 211.804 443.247C209.304 438.747 207.804 427.747 203.804 425.247C199.804 422.747 192.804 416.747 183.804 421.247C174.804 425.747 160.304 428.747 157.804 433.747C155.304 438.747 155.804 445.747 154.804 449.747C154.004 452.947 154.804 455.247 154.804 455.247" stroke="#440F0F" stroke-width="3" stroke-linecap="round"/>
<path d="M333 489L350 469L333 449L316 469L333 489Z" fill="#FD7072"/>
</g>
<path d="M28.3239 6H362.676V4H28.3239V6ZM379 22.3239V557.676H381V22.3239H379ZM362.676 574H28.3239V576H362.676V574ZM12 557.676V22.324H10V557.676H12ZM28.3239 574C19.3085 574 12 566.692 12 557.676H10C10 567.796 18.2039 576 28.3239 576V574ZM379 557.676C379 566.691 371.692 574 362.676 574V576C372.796 576 381 567.796 381 557.676H379ZM362.676 6C371.692 6 379 13.3085 379 22.3239H381C381 12.2039 372.796 4 362.676 4V6ZM28.3239 4C18.2039 4 10 12.2039 10 22.324H12C12 13.3085 19.3085 6 28.3239 6V4Z" fill="#F7E2E2"/>
</g>
<defs>
<filter id="filter0_d" x="0" y="0" width="391" height="592" filterUnits="userSpaceOnUse" color-interpolation-filters="sRGB">
<feFlood flood-opacity="0" result="BackgroundImageFix"/>
<feColorMatrix in="SourceAlpha" type="matrix" values="0 0 0 0 0 0 0 0 0 0 0 0 0 0 0 0 0 0 127 0"/>
<feMorphology radius="3" operator="dilate" in="SourceAlpha" result="effect1_dropShadow"/>
<feOffset dy="6"/>
<feGaussianBlur stdDeviation="4"/>
<feColorMatrix type="matrix" values="0 0 0 0 0.279463 0 0 0 0 0.0711028 0 0 0 0 0.0740583 0 0 0 0.05 0"/>
<feBlend mode="normal" in2="BackgroundImageFix" result="effect1_dropShadow"/>
<feBlend mode="normal" in="SourceGraphic" in2="effect1_dropShadow" result="shape"/>
</filter>
<clipPath id="clip0">
<path d="M11 22.324C11 12.7562 18.7562 5 28.3239 5H362.676C372.244 5 380 12.7562 380 22.3239V557.676C380 567.244 372.244 575 362.676 575H28.3239C18.7562 575 11 567.244 11 557.676V22.324Z" fill="white"/>
</clipPath>
<clipPath id="clip1">
<rect width="207" height="130" fill="white" transform="translate(107 160)"/>
</clipPath>
<clipPath id="clip2">
<rect width="63" height="171" fill="white" transform="translate(261 122)"/>
</clipPath>
<clipPath id="clip3">
<rect width="207" height="130" fill="white" transform="translate(285 420) rotate(-180)"/>
</clipPath>
<clipPath id="clip4">
<rect width="63" height="171" fill="white" transform="translate(131 458) rotate(-180)"/>
</clipPath>
</defs>
</svg>
