<svg width="391" height="592" viewBox="0 0 391 592" fill="none" xmlns="http://www.w3.org/2000/svg">
<g filter="url(#filter0_d)">
<g clip-path="url(#clip0)">
<path d="M11 22.324C11 12.7562 18.7562 5 28.3239 5H362.676C372.244 5 380 12.7562 380 22.3239V557.676C380 567.244 372.244 575 362.676 575H28.3239C18.7562 575 11 567.244 11 557.676V22.324Z" fill="white"/>
<path d="M51.705 36.6857V64.7734H56.6732V72H34.937V64.7734H40.611V36.6857H34.937V29.4591H57.0967V36.6857H51.705ZM76.4617 36.6857L64.4362 48.3442L78.4095 64.7734H82.8132V72H59.976V64.7734H64.9443L52.0719 49.671L65.9323 36.6857H60.8511V29.4591H81.6558V36.6857H76.4617Z" fill="#1A1616"/>
<path d="M232.696 148.753C231.696 152.753 229.696 161.753 229.696 165.753C229.696 169.753 231.696 171.42 232.696 171.753" stroke="#1A1616" stroke-width="3" stroke-linecap="round"/>
<g clip-path="url(#clip1)">
<path d="M107.196 227.253C107.196 211 114.2 185.8 123 177C123 177 143.5 167.5 152 167.5C160.5 167.5 272.5 162.5 272.5 162.5C289 166 298.719 174.719 301 177C307.5 183.5 314.196 201.753 314.196 201.753V292.753H107.196V227.253Z" fill="#BDB9B9"/>
<path d="M233 145.5L189.5 156V160.5L198 175.5L228.5 167L233 145.5Z" fill="#BDB9B9"/>
<path d="M231.5 159.5C235.667 160.167 244.596 161.253 250.196 161.253C255.796 161.253 266.863 161.92 271.696 162.253C279.964 162.169 308.5 171.5 314.5 202" stroke="#1A1616" stroke-width="3" stroke-linecap="round"/>
<path d="M185.696 152.253C186.412 154.043 189.945 158.137 190.796 163.253M190.196 169.753C191.049 167.479 191.134 165.286 190.796 163.253M190.796 163.253C174.809 165.084 134.174 165.826 122.5 177.5C113.7 186.3 107.304 209.247 104.5 227.5" stroke="#1A1616" stroke-width="3" stroke-linecap="round"/>
<path d="M148 226L135.5 288.5" stroke="#1A1616" stroke-width="3" stroke-linecap="round"/>
<path d="M180 161C174.4 161 163 162.667 158 163.5L208 250L224 222C207.036 200.324 203.265 161 180 161Z" fill="#383333" stroke="#1A1616" stroke-width="3" stroke-linecap="round"/>
<path d="M239 161C244.6 161 256 162.667 261 163.5C261 163.5 231 205 224 227C217 249 212 290 212 290H180.5C180.5 255 207.599 161 239 161Z" fill="#383333"/>
</g>
<path d="M212 290C212 290 217 249 224 227C231 205 261 163.5 261 163.5C259 160 246.1 160 240.5 160C209.099 160 180.5 255 180.5 290" stroke="#1A1616" stroke-width="3" stroke-linecap="round"/>
<path d="M86.876 249.261C87.0228 255.463 82.8985 273.597 89.9119 283.128C96.9253 292.658 97.5198 302.826 105.014 302.648C112.509 302.471 113.126 300.032 117.114 292.18C124.327 277.976 119.316 255.206 115.869 239.608C113.752 228.788 110.562 213.339 110.536 212.239C110.501 210.786 107.402 194.719 107.356 192.78C107.31 190.842 107.692 186.469 107.634 184.047C107.577 181.624 103.967 172.497 103.448 171.055C102.929 169.613 99.6707 160.673 97.4151 161.986C95.6967 162.987 92.2323 164.533 85.507 158.53L81.2753 156.065C79.3141 155.142 76.8798 154.715 75.4491 155.719C74.0183 156.722 72.5991 158.21 73.6141 160.126L76.6362 164.902C76.1516 164.914 74.7209 165.917 74.2707 167.383C73.8206 168.848 73.4163 172.251 72.4931 174.212C71.5698 176.174 70.1735 178.631 69.7119 179.611C69.2503 180.592 68.2812 180.615 67.8654 183.534C67.4497 186.453 67.9343 186.441 68.9608 188.841C69.9873 191.241 71.4869 193.145 73.1242 200.863C73.6271 203.234 80.0228 205.548 81.5454 208.421C83.0679 211.294 86.1818 219.948 86.2736 223.824L86.876 249.261Z" fill="#BBB4B4" stroke="#1A1616" stroke-width="3" stroke-linecap="round"/>
<path d="M84.6688 337.944C76.9933 330.624 82.8341 260.466 82.8341 260.466L122.48 245.023C128.495 266.72 134.96 332.752 125.131 356.992C115.302 381.231 92.3442 345.265 84.6688 337.944Z" fill="#BDB9B9" stroke="#1A1616" stroke-width="3" stroke-linecap="round"/>
<path d="M117.268 236.144C105.549 246.679 90.8109 238.271 81.5885 228.987L82.275 257.979C82.5354 268.976 105.647 273.43 116.538 268.671C127.428 263.912 120.113 229.575 118.543 226.611C117.286 224.24 114.271 222.211 112.949 222.743C116.766 221.985 120.696 233.062 117.268 236.144Z" fill="#453B3B" stroke="#1A1616" stroke-width="3" stroke-linecap="round"/>
<path d="M220.278 82.6896C212.358 90.9935 203.78 83.2792 200.481 78.384L187.379 92.1222C191.587 93.415 194.03 106.627 189.123 115.356C180.418 130.84 163.32 143.022 155.858 147.177C167.236 152.975 191.777 163.36 227.875 138.907C258.184 118.376 254.087 82.2869 248.25 66.8089C246.339 74.3141 228.198 74.3856 220.278 82.6896Z" fill="#DFD8D8" stroke="#1A1616" stroke-width="3" stroke-linecap="round" stroke-linejoin="round"/>
<path d="M184.001 48.0914C176.081 56.3953 184.193 64.5982 189.239 67.6616L176.136 81.3997C174.646 77.2575 161.333 75.443 152.846 80.7577C137.791 90.1854 126.432 107.841 122.635 115.49C116.305 104.401 104.769 80.3788 127.487 43.1633C146.561 11.917 182.803 14.3013 198.54 19.3993C190.207 22.5285 191.921 39.7874 184.001 48.0914Z" fill="#DFD8D8" stroke="#1A1616" stroke-width="3" stroke-linecap="round" stroke-linejoin="round"/>
<rect width="17.719" height="176.346" rx="4" transform="matrix(0.723651 0.690166 -0.690172 0.723645 167.944 90.4934)" fill="#5D5757" stroke="#1A1616" stroke-width="3" stroke-linecap="round" stroke-linejoin="round"/>
<rect width="27.0004" height="55.6884" rx="4" transform="matrix(0.723651 0.690166 -0.690172 0.723645 199.804 49.7537)" fill="#A39999" stroke="#1A1616" stroke-width="3" stroke-linecap="round" stroke-linejoin="round"/>
<path fill-rule="evenodd" clip-rule="evenodd" d="M221.057 52.3614C221.551 53.7572 222.43 55.0929 223.638 56.2442C227.094 59.5408 232.527 59.4546 235.773 56.0516C239.632 52.0046 239.528 42.162 239.445 34.3324C239.416 31.5167 239.388 28.9613 239.55 27.0295C237.628 27.2818 235.074 27.3757 232.26 27.4792C224.435 27.767 214.598 28.1288 210.738 32.1758C207.493 35.5788 207.664 41.0098 211.12 44.3063C212.259 45.3922 213.548 46.1786 214.88 46.6234C212.949 50.0479 209.614 54.8283 206.128 54.9109C204.382 54.9523 206.039 58.2407 207.999 60.11C209.972 61.9919 213.137 63.3029 213.096 61.5561C213.013 58.0367 217.721 54.4433 221.057 52.3614Z" fill="#453B3B"/>
<path d="M221.057 52.3614L222.471 51.8606C222.319 51.432 221.981 51.0954 221.552 50.9453C221.123 50.7953 220.649 50.8481 220.263 51.0889L221.057 52.3614ZM239.445 34.3324L237.945 34.3483L237.945 34.3483L239.445 34.3324ZM239.55 27.0295L241.044 27.1541C241.082 26.702 240.913 26.2571 240.585 25.944C240.257 25.6309 239.804 25.4832 239.354 25.5422L239.55 27.0295ZM232.26 27.4792L232.205 25.9802L232.26 27.4792ZM214.88 46.6234L216.186 47.3601C216.406 46.9701 216.441 46.5022 216.28 46.0844C216.119 45.6665 215.78 45.3424 215.355 45.2006L214.88 46.6234ZM206.128 54.9109L206.093 53.4114L206.093 53.4114L206.128 54.9109ZM213.096 61.5561L214.595 61.5206L213.096 61.5561ZM224.673 55.1588C223.62 54.1545 222.88 53.0143 222.471 51.8606L219.643 52.8621C220.223 54.5001 221.241 56.0313 222.602 57.3297L224.673 55.1588ZM234.687 55.0164C232.029 57.8039 227.546 57.8989 224.673 55.1588L222.602 57.3297C226.642 61.1827 233.026 61.1052 236.858 57.0869L234.687 55.0164ZM237.945 34.3483C237.987 38.2833 238.031 42.6055 237.597 46.4419C237.155 50.3547 236.249 53.379 234.687 55.0164L236.858 57.0869C239.156 54.6773 240.128 50.7567 240.578 46.779C241.036 42.725 240.987 38.211 240.945 34.3165L237.945 34.3483ZM238.055 26.9048C237.886 28.9229 237.916 31.5599 237.945 34.3483L240.945 34.3165C240.915 31.4734 240.891 28.9996 241.044 27.1541L238.055 26.9048ZM232.315 28.9782C235.101 28.8757 237.737 28.7803 239.745 28.5167L239.354 25.5422C237.518 25.7833 235.046 25.8757 232.205 25.9802L232.315 28.9782ZM211.824 33.2111C213.386 31.5737 216.364 30.5257 220.251 29.8987C224.063 29.2838 228.382 29.1228 232.315 28.9782L232.205 25.9802C228.312 26.1234 223.801 26.2872 219.773 26.937C215.821 27.5745 211.951 28.731 209.653 31.1406L211.824 33.2111ZM212.156 43.2209C209.283 40.4808 209.165 35.9986 211.824 33.2111L209.653 31.1406C205.82 35.1589 206.045 41.5388 210.085 45.3918L212.156 43.2209ZM215.355 45.2006C214.25 44.8316 213.149 44.1679 212.156 43.2209L210.085 45.3918C211.369 46.6166 212.846 47.5257 214.405 48.0462L215.355 45.2006ZM206.164 56.4105C208.548 56.354 210.619 54.7355 212.188 53.0389C213.813 51.2826 215.196 49.1176 216.186 47.3601L213.573 45.8868C212.633 47.5537 211.383 49.4912 209.986 51.0018C208.533 52.5722 207.194 53.3852 206.093 53.4114L206.164 56.4105ZM209.034 59.0245C208.185 58.2143 207.41 57.0935 207.059 56.2491C206.865 55.783 206.902 55.6417 206.886 55.7344C206.87 55.828 206.802 56.0445 206.582 56.2258C206.371 56.4004 206.179 56.4101 206.164 56.4105L206.093 53.4114C205.641 53.4221 205.119 53.5436 204.671 53.9133C204.216 54.2896 204.006 54.7845 203.93 55.2213C203.795 56.0006 204.041 56.8061 204.289 57.4008C204.82 58.6783 205.853 60.1363 206.964 61.1954L209.034 59.0245ZM211.596 61.5916C211.596 61.5913 211.593 61.43 211.728 61.2316C211.871 61.0194 212.064 60.9237 212.177 60.8911C212.305 60.8537 212.216 60.9172 211.778 60.7709C210.99 60.5079 209.891 59.8411 209.034 59.0245L206.964 61.1954C208.081 62.2608 209.551 63.1904 210.828 63.6166C211.423 63.8151 212.24 63.9964 213.012 63.7723C213.447 63.6463 213.895 63.3812 214.212 62.9137C214.519 62.46 214.606 61.9576 214.595 61.5206L211.596 61.5916ZM220.263 51.0889C218.551 52.1571 216.43 53.647 214.729 55.364C213.087 57.0213 211.539 59.1857 211.596 61.5916L214.595 61.5206C214.569 60.4071 215.334 59.0151 216.86 57.4754C218.326 55.9953 220.227 54.6475 221.851 53.6338L220.263 51.0889Z" fill="#1A1616"/>
<path d="M241.831 79.04C243.57 88.3596 245.123 109.209 229.354 125.742C206.803 149.387 182.202 145.708 171.955 142.706" stroke="#1A1616" stroke-width="3" stroke-linecap="round" stroke-linejoin="round"/>
<path d="M186.663 26.4249C177.272 25.1296 156.372 24.5654 140.604 41.0983C118.053 64.743 122.893 89.1427 126.376 99.236" stroke="#1A1616" stroke-width="3" stroke-linecap="round" stroke-linejoin="round"/>
<path d="M83.7047 194.93C82.9202 194.561 78.3225 192.215 76.3651 191.453C76.3651 191.453 71.8664 191.559 72.2479 186.549C73.1766 183.526 76.4503 175.224 76.4503 175.224C76.7696 175.055 77.6965 174.613 78.8502 174.197L76.773 166.436L80.063 163.987L82.1268 156.807C82.9541 158.173 86.8552 159.808 90.4906 161.942C94.8536 164.503 99.041 167.513 99.8465 168.023C101.323 168.958 100.457 173.342 98.0804 175.338C97.8545 175.527 97.5333 175.564 97.1405 175.479C99.0625 176.171 100.882 178.799 101.587 180.103C103.075 181.522 99.8095 186.933 98.3213 185.513C97.3096 184.548 94.872 183.171 94.872 183.171C94.872 183.171 98.3756 187.803 98.3983 188.764C98.4327 190.218 96.5519 192.687 95.5827 192.71C94.8074 192.728 91.6713 191.327 90.683 190.543C91.1906 191.5 89.0579 195.773 88.1117 196.765C87.1655 197.757 84.6853 195.392 83.7047 194.93Z" fill="#BBB4B4"/>
<path d="M75.7599 190.896C77.7173 191.657 82.9202 194.561 83.7047 194.93C84.6853 195.392 87.1655 197.757 88.1117 196.765C89.0579 195.773 91.1905 191.5 90.683 190.542C90.1755 189.585 86.1991 185.457 84.7224 184.523C83.2458 183.588 76.015 181.193 75.519 180.72C75.0229 180.247 73.1076 181.262 72.6804 183.696M91.8424 190.515C92.8306 191.3 94.8074 192.728 95.5827 192.71C96.5518 192.687 98.4327 190.218 98.3983 188.764C98.3756 187.803 94.872 183.171 94.872 183.171M76.4503 175.224C76.7695 175.054 77.6964 174.612 78.8502 174.197C80.2924 173.678 82.7153 173.621 83.2113 174.094C83.7073 174.567 90.1133 178.92 91.6014 180.339C92.1057 180.82 94.1265 182.548 94.872 183.171M94.872 183.171C94.872 183.171 97.3096 184.548 98.3213 185.513C99.8094 186.932 103.075 181.522 101.587 180.103C100.836 178.713 98.8189 175.821 96.7612 175.369M82.1268 156.807C82.9541 158.173 86.8552 159.808 90.4906 161.942C94.8536 164.503 99.041 167.513 99.8465 168.023C101.323 168.958 100.457 173.342 98.0804 175.337C97.7855 175.585 97.3282 175.571 96.7612 175.369M80.0629 163.987C81.3561 163.956 85.0773 166.029 86.2443 166.891C87.3262 167.548 93.672 174.264 96.7612 175.369" stroke="#1A1616" stroke-width="3" stroke-linecap="round"/>
<path d="M102.424 154.525C103.682 162.298 102.86 172.909 103.028 180.018C103.112 183.562 101.713 205.857 105.617 201.763L113.24 174.774L107.768 154.898L102.424 154.525Z" fill="#BBB4B4"/>
<path d="M108.443 196.249C108.396 194.249 110.108 190.353 110.049 187.854C109.99 185.354 111.835 178.809 112.776 176.286C114.386 171.966 106.43 155.652 106.268 154.934C105.709 152.446 103.494 152.835 101.781 155.54C98.8888 160.11 106.186 170.37 103.415 174.007C101.475 176.553 102.314 178.034 102.456 184.032" stroke="#1A1616" stroke-width="3" stroke-linecap="round"/>
<g clip-path="url(#clip2)">
<path d="M304.361 331.746C304.361 325.542 308.913 307.511 302.127 297.817C295.341 288.123 294.988 277.945 287.491 277.945C279.994 277.945 279.32 280.368 275.147 288.123C267.6 302.153 272.07 325.034 275.147 340.71C277.007 351.577 279.831 367.097 279.831 368.197C279.831 369.652 282.549 385.787 282.549 387.726C282.549 389.665 282.064 394.027 282.064 396.451C282.064 398.874 285.457 408.084 285.942 409.538C286.427 410.992 289.472 420.007 291.758 418.747C293.5 417.787 297 416.324 303.581 422.484L307.753 425.048C309.692 426.018 312.116 426.502 313.57 425.533C315.024 424.563 316.478 423.109 315.509 421.171L312.601 416.324C313.085 416.324 314.539 415.354 315.024 413.9C315.509 412.446 315.993 409.053 316.963 407.114C317.932 405.175 319.386 402.752 319.871 401.783C320.356 400.813 321.325 400.813 321.81 397.905C322.295 394.997 321.81 394.997 320.84 392.573C319.871 390.15 318.417 388.211 316.963 380.456C316.516 378.074 310.177 375.609 308.723 372.7C307.269 369.792 304.361 361.068 304.361 357.19L304.361 331.746Z" fill="#BBB4B4" stroke="#1A1616" stroke-width="3" stroke-linecap="round"/>
<path d="M308.667 243.14C316.167 250.64 308.667 320.64 308.667 320.64L268.667 335.14C263.167 313.306 258.267 247.14 268.667 223.14C279.067 199.14 301.167 235.64 308.667 243.14Z" fill="#BDB9B9" stroke="#1A1616" stroke-width="3" stroke-linecap="round"/>
</g>
<path d="M244 83.875C239.2 70.275 220.333 70.2084 211.5 71.875C202.333 70.875 194 66.375 181.5 76.375C174.874 81.6757 174 103.375 166 127.375C158 151.375 162 157.875 178 157.875C194 157.875 228.5 156.875 236 157.875C243.5 158.875 265.5 152.375 259 140.375C252.5 128.375 250 100.875 244 83.875Z" fill="#383333" stroke="#1A1616" stroke-width="3" stroke-linecap="round"/>
<path d="M182.196 133.628C180.196 130.028 180.363 121.795 180.696 118.128C180.696 110.787 187 104.622 187 92.875C192.959 88.8662 202.106 89.2937 209.885 88.1284C210.47 89.0378 211.075 89.8832 211.696 90.6284C216.696 96.6284 225.196 88.7384 232.196 94.875C239.04 100.875 228.968 117.371 239.447 122.776C239.588 123.755 239.655 125.294 239.196 127.128C238.196 131.128 238.696 138.128 236.196 143.128C234.863 147.128 232.196 155.228 232.196 155.628C245 172.875 187 169.875 184.696 161.128C183.535 156.718 192.196 159.628 193.196 159.628C193.196 159.628 192.196 156.128 191.696 155.128L189.696 151.128C185.696 148.628 184.696 138.128 182.196 133.628Z" fill="#BBB4B4"/>
<path d="M182.196 102.753C182.196 106.753 180.696 115.453 180.696 120.253C180.363 123.92 180.196 132.153 182.196 135.753C184.696 140.253 186.196 151.253 190.196 153.753C194.196 156.253 201.196 162.253 210.196 157.753C219.196 153.253 233.696 150.253 236.196 145.253C238.696 140.253 238.196 133.253 239.196 129.253C239.996 126.053 239.196 123.753 239.196 123.753" stroke="#1A1616" stroke-width="3" stroke-linecap="round"/>
<path d="M186.882 65.2773L184 78.7509C184 78.7509 206.429 81.7592 215.255 83.6468C224.08 85.5345 245.778 91.9647 245.778 91.9647L248.66 78.4911L237.109 80.7171L234.454 72.9924L223.648 76.0488L218.686 67.6069L210.116 73.1543L203.271 66.3226L195.629 71.845L186.882 65.2773Z" fill="#CDC7C7" stroke="#1A1616" stroke-width="3" stroke-linecap="round" stroke-linejoin="round"/>
<path fill-rule="evenodd" clip-rule="evenodd" d="M62.6689 118.663C63.8338 119.645 65.189 120.262 66.6351 120.262C70.9862 120.262 74.5135 116.79 74.5135 112.506C74.5135 107.411 68.2567 100.989 63.2795 95.8794C61.4896 94.042 59.8651 92.3745 58.7568 90.9998C57.6484 92.3745 56.0239 94.042 54.234 95.8794C49.2569 100.989 43 107.411 43 112.506C43 116.79 46.5273 120.262 50.8784 120.262C52.2464 120.262 53.5329 119.71 54.654 118.819C55.5853 122.254 56.6357 128.011 54.2547 130.392C53.1293 131.517 56.2895 132.643 58.7567 132.643C61.2406 132.643 64.151 131.517 63.0256 130.392C60.6082 127.974 61.728 122.077 62.6689 118.663ZM58.763 110.706C58.7589 110.6 58.7568 110.495 58.7568 110.391C58.7568 110.495 58.7547 110.6 58.7505 110.705L58.7567 110.696L58.763 110.706Z" fill="#453B3B"/>
<path d="M340.295 543.314V515.227H335.327V508H357.063V515.227H351.389V543.314H357.063V550.541H334.903V543.314H340.295ZM315.538 543.314L327.564 531.656L313.591 515.227H309.187V508H332.024V515.227H327.056L339.928 530.329L326.068 543.314H331.149V550.541H310.344V543.314H315.538Z" fill="#1A1616"/>
<path d="M159.304 431.247C160.304 427.247 162.304 418.247 162.304 414.247C162.304 410.247 160.304 408.58 159.304 408.247" stroke="#1A1616" stroke-width="3" stroke-linecap="round"/>
<g clip-path="url(#clip3)">
<path d="M284.804 352.747C284.804 369 277.8 394.2 269 403C269 403 248.5 412.5 240 412.5C231.5 412.5 119.5 417.5 119.5 417.5C103 414 93.2811 405.281 91 403C84.5 396.5 77.8037 378.247 77.8037 378.247V287.247H284.804V352.747Z" fill="#BDB9B9"/>
<path d="M159 434.5L202.5 424V419.5L194 404.5L163.5 413L159 434.5Z" fill="#BDB9B9"/>
<path d="M160.5 420.5C156.333 419.833 147.404 418.747 141.804 418.747C136.204 418.747 125.137 418.08 120.304 417.747C112.036 417.831 83.5 408.5 77.5 378" stroke="#1A1616" stroke-width="3" stroke-linecap="round"/>
<path d="M206.304 427.747C205.588 425.957 202.055 421.863 201.204 416.747M201.804 410.247C200.951 412.521 200.866 414.714 201.204 416.747M201.204 416.747C217.191 414.916 257.826 414.174 269.5 402.5C278.3 393.7 284.696 370.753 287.5 352.5" stroke="#1A1616" stroke-width="3" stroke-linecap="round"/>
<path d="M244 354L256.5 291.5" stroke="#1A1616" stroke-width="3" stroke-linecap="round"/>
<path d="M212 419C217.6 419 229 417.333 234 416.5L184 330L168 358C184.964 379.676 188.735 419 212 419Z" fill="#383333" stroke="#1A1616" stroke-width="3" stroke-linecap="round"/>
<path d="M153 419C147.4 419 136 417.333 131 416.5C131 416.5 161 375 168 353C175 331 180 290 180 290H211.5C211.5 325 184.401 419 153 419Z" fill="#383333"/>
</g>
<path d="M180 290C180 290 175 331 168 353C161 375 131 416.5 131 416.5C133 420 145.9 420 151.5 420C182.901 420 211.5 325 211.5 290" stroke="#1A1616" stroke-width="3" stroke-linecap="round"/>
<path d="M305.124 330.739C304.977 324.537 309.102 306.403 302.088 296.872C295.075 287.342 294.48 277.174 286.986 277.352C279.491 277.529 278.874 279.968 274.886 287.82C267.673 302.024 272.684 324.794 276.131 340.392C278.248 351.212 281.438 366.661 281.464 367.761C281.499 369.214 284.598 385.281 284.644 387.22C284.69 389.158 284.308 393.531 284.366 395.953C284.423 398.376 288.033 407.503 288.552 408.945C289.071 410.387 292.329 419.327 294.585 418.014C296.303 417.013 299.768 415.467 306.493 421.47L310.725 423.935C312.686 424.858 315.12 425.285 316.551 424.281C317.982 423.278 319.401 421.79 318.386 419.874L315.364 415.098C315.848 415.086 317.279 414.083 317.729 412.617C318.179 411.152 318.584 407.749 319.507 405.788C320.43 403.826 321.826 401.369 322.288 400.389C322.75 399.408 323.719 399.385 324.135 396.466C324.55 393.547 324.066 393.559 323.039 391.159C322.013 388.759 320.513 386.855 318.876 379.137C318.373 376.766 311.977 374.452 310.455 371.579C308.932 368.706 305.818 360.052 305.726 356.176L305.124 330.739Z" fill="#BBB4B4" stroke="#1A1616" stroke-width="3" stroke-linecap="round"/>
<path d="M307.331 242.056C315.007 249.376 309.166 319.534 309.166 319.534L269.52 334.977C263.505 313.28 257.04 247.248 266.869 223.008C276.698 198.769 299.656 234.735 307.331 242.056Z" fill="#BDB9B9" stroke="#1A1616" stroke-width="3" stroke-linecap="round"/>
<path d="M274.732 343.856C286.451 333.321 301.189 341.729 310.412 351.013L309.725 322.021C309.465 311.024 286.353 306.57 275.462 311.329C264.572 316.088 271.887 350.425 273.457 353.389C274.714 355.76 277.73 357.789 279.051 357.257C275.234 358.015 271.304 346.938 274.732 343.856Z" fill="#453B3B" stroke="#1A1616" stroke-width="3" stroke-linecap="round"/>
<path d="M171.722 497.31C179.642 489.006 188.219 496.721 191.518 501.616L204.621 487.878C200.413 486.585 197.97 473.373 202.877 464.644C211.582 449.16 228.68 436.978 236.141 432.823C224.764 427.025 200.223 416.64 164.124 441.093C133.815 461.624 137.913 497.713 143.75 513.191C145.661 505.686 163.802 505.614 171.722 497.31Z" fill="#DFD8D8" stroke="#1A1616" stroke-width="3" stroke-linecap="round" stroke-linejoin="round"/>
<path d="M207.999 531.909C215.918 523.605 207.807 515.402 202.761 512.338L215.863 498.6C217.354 502.743 230.667 504.557 239.154 499.242C254.209 489.815 265.568 472.159 269.365 464.51C275.695 475.599 287.231 499.621 264.513 536.837C245.439 568.083 209.197 565.699 193.46 560.601C201.793 557.472 200.079 540.213 207.999 531.909Z" fill="#DFD8D8" stroke="#1A1616" stroke-width="3" stroke-linecap="round" stroke-linejoin="round"/>
<rect width="17.719" height="176.346" rx="4" transform="matrix(-0.723651 -0.690166 0.690172 -0.723645 224.055 489.507)" fill="#5D5757" stroke="#1A1616" stroke-width="3" stroke-linecap="round" stroke-linejoin="round"/>
<rect width="27.0004" height="55.6884" rx="4" transform="matrix(-0.723651 -0.690166 0.690172 -0.723645 192.196 530.246)" fill="#A39999" stroke="#1A1616" stroke-width="3" stroke-linecap="round" stroke-linejoin="round"/>
<path fill-rule="evenodd" clip-rule="evenodd" d="M170.943 527.639C170.448 526.243 169.569 524.907 168.362 523.756C164.906 520.459 159.473 520.545 156.227 523.948C152.367 527.995 152.472 537.838 152.554 545.668C152.584 548.483 152.611 551.039 152.45 552.971C154.372 552.718 156.926 552.624 159.74 552.521C167.565 552.233 177.401 551.871 181.261 547.824C184.507 544.421 184.336 538.99 180.879 535.694C179.741 534.608 178.452 533.821 177.12 533.377C179.051 529.952 182.386 525.172 185.871 525.089C187.618 525.048 185.961 521.759 184.001 519.89C182.027 518.008 178.863 516.697 178.904 518.444C178.987 521.963 174.278 525.557 170.943 527.639Z" fill="#453B3B"/>
<path d="M170.943 527.639L169.529 528.139C169.681 528.568 170.019 528.905 170.448 529.055C170.877 529.205 171.351 529.152 171.737 528.911L170.943 527.639ZM152.554 545.668L154.054 545.652L154.054 545.652L152.554 545.668ZM152.45 552.971L150.955 552.846C150.918 553.298 151.087 553.743 151.415 554.056C151.743 554.369 152.196 554.517 152.645 554.458L152.45 552.971ZM159.74 552.521L159.795 554.02L159.74 552.521ZM177.12 533.377L175.813 532.64C175.593 533.03 175.559 533.498 175.72 533.916C175.881 534.333 176.22 534.658 176.645 534.799L177.12 533.377ZM185.871 525.089L185.907 526.589L185.907 526.589L185.871 525.089ZM178.904 518.444L177.404 518.479L178.904 518.444ZM167.327 524.841C168.38 525.846 169.12 526.986 169.529 528.139L172.357 527.138C171.777 525.5 170.759 523.969 169.397 522.67L167.327 524.841ZM157.313 524.984C159.971 522.196 164.454 522.101 167.327 524.841L169.397 522.67C165.358 518.817 158.974 518.895 155.142 522.913L157.313 524.984ZM154.054 545.652C154.013 541.717 153.969 537.395 154.403 533.558C154.845 529.645 155.751 526.621 157.313 524.984L155.142 522.913C152.844 525.323 151.871 529.243 151.422 533.221C150.963 537.275 151.013 541.789 151.054 545.683L154.054 545.652ZM153.945 553.095C154.113 551.077 154.084 548.44 154.054 545.652L151.054 545.683C151.085 548.527 151.109 551 150.955 552.846L153.945 553.095ZM159.685 551.022C156.898 551.124 154.263 551.22 152.255 551.483L152.645 554.458C154.482 554.217 156.954 554.124 159.795 554.02L159.685 551.022ZM180.176 546.789C178.614 548.426 175.636 549.474 171.749 550.101C167.937 550.716 163.618 550.877 159.685 551.022L159.795 554.02C163.687 553.877 168.199 553.713 172.226 553.063C176.178 552.426 180.049 551.269 182.347 548.859L180.176 546.789ZM179.844 536.779C182.717 539.519 182.834 544.001 180.176 546.789L182.347 548.859C186.179 544.841 185.955 538.461 181.915 534.608L179.844 536.779ZM176.645 534.799C177.75 535.168 178.851 535.832 179.844 536.779L181.915 534.608C180.63 533.383 179.154 532.474 177.595 531.954L176.645 534.799ZM185.836 523.59C183.452 523.646 181.381 525.264 179.811 526.961C178.187 528.717 176.804 530.882 175.813 532.64L178.427 534.113C179.366 532.446 180.617 530.509 182.014 528.998C183.466 527.428 184.805 526.615 185.907 526.589L185.836 523.59ZM182.965 520.976C183.815 521.786 184.59 522.906 184.941 523.751C185.135 524.217 185.098 524.358 185.114 524.266C185.13 524.172 185.198 523.955 185.417 523.774C185.629 523.6 185.821 523.59 185.836 523.59L185.907 526.589C186.358 526.578 186.881 526.456 187.329 526.087C187.784 525.71 187.994 525.216 188.07 524.779C188.205 523.999 187.958 523.194 187.711 522.599C187.18 521.322 186.146 519.864 185.036 518.805L182.965 520.976ZM180.403 518.408C180.403 518.409 180.406 518.57 180.272 518.768C180.128 518.981 179.936 519.076 179.823 519.109C179.694 519.146 179.784 519.083 180.222 519.229C181.01 519.492 182.109 520.159 182.965 520.976L185.036 518.805C183.919 517.739 182.449 516.81 181.172 516.383C180.577 516.185 179.76 516.004 178.987 516.228C178.553 516.354 178.105 516.619 177.788 517.086C177.481 517.54 177.394 518.042 177.404 518.479L180.403 518.408ZM171.737 528.911C173.449 527.843 175.57 526.353 177.271 524.636C178.913 522.979 180.46 520.814 180.403 518.408L177.404 518.479C177.431 519.593 176.665 520.985 175.14 522.525C173.673 524.005 171.773 525.352 170.149 526.366L171.737 528.911Z" fill="#1A1616"/>
<path d="M150.168 500.96C148.43 491.64 146.877 470.791 162.645 454.258C185.196 430.613 209.798 434.292 220.045 437.294" stroke="#1A1616" stroke-width="3" stroke-linecap="round" stroke-linejoin="round"/>
<path d="M205.336 553.575C214.728 554.87 235.628 555.435 251.396 538.902C273.947 515.257 269.107 490.857 265.624 480.764" stroke="#1A1616" stroke-width="3" stroke-linecap="round" stroke-linejoin="round"/>
<path d="M308.295 385.07C309.08 385.439 313.677 387.785 315.635 388.547C315.635 388.547 320.134 388.441 319.752 393.451C318.823 396.474 315.55 404.776 315.55 404.776C315.23 404.945 314.303 405.387 313.15 405.803L315.227 413.564L311.937 416.013L309.873 423.193C309.046 421.827 305.145 420.192 301.509 418.058C297.146 415.497 292.959 412.487 292.153 411.977C290.677 411.042 291.543 406.658 293.919 404.662C294.145 404.473 294.467 404.436 294.859 404.521C292.937 403.829 291.118 401.201 290.413 399.897C288.925 398.478 292.19 393.067 293.679 394.487C294.69 395.452 297.128 396.829 297.128 396.829C297.128 396.829 293.624 392.197 293.602 391.236C293.567 389.782 295.448 387.313 296.417 387.29C297.192 387.272 300.329 388.673 301.317 389.457C300.809 388.5 302.942 384.227 303.888 383.235C304.834 382.243 307.315 384.608 308.295 385.07Z" fill="#BBB4B4"/>
<path d="M316.24 389.104C314.283 388.343 309.08 385.439 308.295 385.07C307.315 384.608 304.834 382.243 303.888 383.235C302.942 384.227 300.809 388.5 301.317 389.458C301.824 390.415 305.801 394.543 307.277 395.477C308.754 396.412 315.985 398.807 316.481 399.28C316.977 399.753 318.892 398.738 319.319 396.304M300.157 389.485C299.169 388.7 297.192 387.272 296.417 387.29C295.448 387.313 293.567 389.782 293.602 391.236C293.624 392.197 297.128 396.829 297.128 396.829M315.55 404.776C315.23 404.946 314.303 405.388 313.15 405.803C311.707 406.322 309.285 406.379 308.789 405.906C308.293 405.433 301.887 401.08 300.398 399.661C299.894 399.18 297.873 397.452 297.128 396.829M297.128 396.829C297.128 396.829 294.69 395.452 293.679 394.487C292.19 393.068 288.925 398.478 290.413 399.897C291.164 401.287 293.181 404.179 295.239 404.631M309.873 423.193C309.046 421.827 305.145 420.192 301.509 418.058C297.146 415.497 292.959 412.487 292.153 411.977C290.677 411.042 291.543 406.658 293.92 404.663C294.214 404.415 294.672 404.429 295.239 404.631M311.937 416.013C310.644 416.044 306.923 413.971 305.756 413.109C304.674 412.452 298.328 405.736 295.239 404.631" stroke="#1A1616" stroke-width="3" stroke-linecap="round"/>
<path d="M289.576 425.475C288.317 417.702 289.14 407.091 288.972 399.982C288.888 396.438 290.287 374.143 286.382 378.237L278.76 405.226L284.232 425.102L289.576 425.475Z" fill="#BBB4B4"/>
<path d="M283.557 383.751C283.604 385.751 281.892 389.647 281.951 392.146C282.01 394.646 280.165 401.191 279.224 403.714C277.614 408.034 285.57 424.348 285.732 425.066C286.291 427.554 288.506 427.165 290.218 424.46C293.111 419.89 285.813 409.63 288.585 405.993C290.525 403.447 289.686 401.966 289.544 395.968" stroke="#1A1616" stroke-width="3" stroke-linecap="round"/>
<g clip-path="url(#clip4)">
<path d="M87.6394 248.254C87.6394 254.458 83.0869 272.489 89.8727 282.183C96.6586 291.877 97.0122 302.055 104.509 302.055C112.006 302.055 112.68 299.632 116.853 291.877C124.4 277.847 119.93 254.966 116.853 239.29C114.993 228.423 112.169 212.903 112.169 211.803C112.169 210.348 109.451 194.213 109.451 192.274C109.451 190.335 109.936 185.973 109.936 183.549C109.936 181.126 106.543 171.916 106.058 170.462C105.573 169.008 102.528 159.993 100.242 161.253C98.5 162.213 95 163.676 88.4187 157.516L84.2466 154.952C82.3078 153.982 79.8843 153.498 78.4301 154.467C76.976 155.437 75.5219 156.891 76.4913 158.829L79.3995 163.676C78.9148 163.676 77.4607 164.646 76.976 166.1C76.4913 167.554 76.0066 170.947 75.0372 172.886C74.0677 174.825 72.6137 177.248 72.129 178.217C71.6443 179.187 70.6748 179.187 70.1901 182.095C69.7054 185.003 70.1901 185.003 71.1596 187.427C72.129 189.85 73.5831 191.789 75.0372 199.544C75.4838 201.926 81.823 204.391 83.2771 207.3C84.7312 210.208 87.6394 218.932 87.6394 222.81L87.6394 248.254Z" fill="#BBB4B4" stroke="#1A1616" stroke-width="3" stroke-linecap="round"/>
<path d="M83.3333 336.86C75.8333 329.36 83.3333 259.36 83.3333 259.36L123.333 244.86C128.833 266.694 133.733 332.86 123.333 356.86C112.933 380.86 90.8333 344.36 83.3333 336.86Z" fill="#BDB9B9" stroke="#1A1616" stroke-width="3" stroke-linecap="round"/>
</g>
<path d="M148 496.125C152.8 509.725 171.667 509.792 180.5 508.125C189.667 509.125 198 513.625 210.5 503.625C217.126 498.324 218 476.625 226 452.625C234 428.625 230 422.125 214 422.125C198 422.125 163.5 423.125 156 422.125C148.5 421.125 126.5 427.625 133 439.625C139.5 451.625 142 479.125 148 496.125Z" fill="#383333" stroke="#1A1616" stroke-width="3" stroke-linecap="round"/>
<path d="M209.804 446.372C211.804 449.972 211.637 458.205 211.304 461.872C211.304 469.213 205 475.378 205 487.125C199.041 491.134 189.894 490.706 182.115 491.872C181.53 490.962 180.925 490.117 180.304 489.372C175.304 483.372 166.804 491.262 159.804 485.125C152.96 479.125 163.032 462.629 152.553 457.224C152.412 456.245 152.345 454.706 152.804 452.872C153.804 448.872 153.304 441.872 155.804 436.872C157.137 432.872 159.804 424.772 159.804 424.372C147 407.125 205 410.125 207.304 418.872C208.465 423.282 199.804 420.372 198.804 420.372C198.804 420.372 199.804 423.872 200.304 424.872L202.304 428.872C206.304 431.372 207.304 441.872 209.804 446.372Z" fill="#BBB4B4"/>
<path d="M209.804 477.247C209.804 473.247 211.304 464.547 211.304 459.747C211.637 456.08 211.804 447.847 209.804 444.247C207.304 439.747 205.804 428.747 201.804 426.247C197.804 423.747 190.804 417.747 181.804 422.247C172.804 426.747 158.304 429.747 155.804 434.747C153.304 439.747 153.804 446.747 152.804 450.747C152.004 453.947 152.804 456.247 152.804 456.247" stroke="#1A1616" stroke-width="3" stroke-linecap="round"/>
<path d="M205.118 514.723L208 501.249C208 501.249 185.571 498.241 176.745 496.353C167.92 494.465 146.222 488.035 146.222 488.035L143.34 501.509L154.891 499.283L157.546 507.008L168.352 503.951L173.314 512.393L181.884 506.846L188.729 513.677L196.371 508.155L205.118 514.723Z" fill="#CDC7C7" stroke="#1A1616" stroke-width="3" stroke-linecap="round" stroke-linejoin="round"/>
<path fill-rule="evenodd" clip-rule="evenodd" d="M329.331 461.337C328.166 460.355 326.811 459.738 325.365 459.738C321.014 459.738 317.486 463.21 317.486 467.494C317.486 472.589 323.743 479.011 328.72 484.121C330.51 485.958 332.135 487.626 333.243 489C334.352 487.626 335.976 485.958 337.766 484.121C342.743 479.011 349 472.589 349 467.494C349 463.21 345.473 459.738 341.122 459.738C339.754 459.738 338.467 460.29 337.346 461.181C336.415 457.746 335.364 451.989 337.745 449.608C338.871 448.483 335.711 447.357 333.243 447.357C330.759 447.357 327.849 448.483 328.974 449.608C331.392 452.026 330.272 457.923 329.331 461.337ZM333.237 469.294C333.241 469.4 333.243 469.505 333.243 469.609C333.243 469.505 333.245 469.4 333.249 469.295L333.243 469.304L333.237 469.294Z" fill="#453B3B"/>
</g>
<path d="M28.3239 6H362.676V4H28.3239V6ZM379 22.3239V557.676H381V22.3239H379ZM362.676 574H28.3239V576H362.676V574ZM12 557.676V22.324H10V557.676H12ZM28.3239 574C19.3085 574 12 566.692 12 557.676H10C10 567.796 18.2039 576 28.3239 576V574ZM379 557.676C379 566.691 371.692 574 362.676 574V576C372.796 576 381 567.796 381 557.676H379ZM362.676 6C371.692 6 379 13.3085 379 22.3239H381C381 12.2039 372.796 4 362.676 4V6ZM28.3239 4C18.2039 4 10 12.2039 10 22.324H12C12 13.3085 19.3085 6 28.3239 6V4Z" fill="#F7E2E2"/>
</g>
<defs>
<filter id="filter0_d" x="0" y="0" width="391" height="592" filterUnits="userSpaceOnUse" color-interpolation-filters="sRGB">
<feFlood flood-opacity="0" result="BackgroundImageFix"/>
<feColorMatrix in="SourceAlpha" type="matrix" values="0 0 0 0 0 0 0 0 0 0 0 0 0 0 0 0 0 0 127 0"/>
<feMorphology radius="3" operator="dilate" in="SourceAlpha" result="effect1_dropShadow"/>
<feOffset dy="6"/>
<feGaussianBlur stdDeviation="4"/>
<feColorMatrix type="matrix" values="0 0 0 0 0.279463 0 0 0 0 0.0711028 0 0 0 0 0.0740583 0 0 0 0.05 0"/>
<feBlend mode="normal" in2="BackgroundImageFix" result="effect1_dropShadow"/>
<feBlend mode="normal" in="SourceGraphic" in2="effect1_dropShadow" result="shape"/>
</filter>
<clipPath id="clip0">
<path d="M11 22.324C11 12.7562 18.7562 5 28.3239 5H362.676C372.244 5 380 12.7562 380 22.3239V557.676C380 567.244 372.244 575 362.676 575H28.3239C18.7562 575 11 567.244 11 557.676V22.324Z" fill="white"/>
</clipPath>
<clipPath id="clip1">
<rect width="209" height="140" fill="white" transform="translate(105 150)"/>
</clipPath>
<clipPath id="clip2">
<rect width="63" height="171" fill="white" transform="translate(261 122)"/>
</clipPath>
<clipPath id="clip3">
<rect width="209" height="140" fill="white" transform="translate(287 430) rotate(-180)"/>
</clipPath>
<clipPath id="clip4">
<rect width="63" height="171" fill="white" transform="translate(131 458) rotate(-180)"/>
</clipPath>
</defs>
</svg>
