<svg width="391" height="592" viewBox="0 0 391 592" fill="none" xmlns="http://www.w3.org/2000/svg">
<g filter="url(#filter0_d)">
<g clip-path="url(#clip0)">
<path d="M11 22.324C11 12.7562 18.7562 5 28.3239 5H362.676C372.244 5 380 12.7562 380 22.3239V557.676C380 567.244 372.244 575 362.676 575H28.3239C18.7562 575 11 567.244 11 557.676V22.324Z" fill="#FBEEEE"/>
<path d="M74.3364 50.5461C74.3364 65.2251 68.5401 72.5646 56.9474 72.5646C53.0142 72.5646 49.8243 71.5295 47.3778 69.4594C44.9313 67.3705 43.5669 64.4629 43.2846 60.7367L51.5557 59.918C52.1391 61.8 52.8542 63.1926 53.7011 64.0959C54.548 64.9804 55.6112 65.4227 56.891 65.4227C58.8858 65.4227 60.4854 64.5005 61.6899 62.6562C62.9131 60.7931 63.7223 58.0926 64.1175 54.5546C62.9131 55.1944 61.5958 55.7025 60.1655 56.0789C58.7541 56.4365 57.3144 56.6153 55.8465 56.6153C53.2683 56.6153 50.9723 56.0131 48.9586 54.8086C46.9638 53.5854 45.4018 51.9481 44.2727 49.8968C43.1623 47.8267 42.6071 45.5966 42.6071 43.2066C42.6071 40.4025 43.2376 37.8995 44.4985 35.6977C45.7782 33.4958 47.566 31.7833 49.862 30.56C52.1579 29.318 54.8114 28.6969 57.8225 28.6969C68.8318 28.6969 74.3364 35.98 74.3364 50.5461ZM58.1613 49.2758C59.8926 49.2758 61.9157 48.7206 64.2305 47.6103V47.4409C64.2305 43.8464 63.6 41.0329 62.3391 39.0005C61.0971 36.9492 59.3375 35.9235 57.0603 35.9235C55.7053 35.9235 54.5574 36.5445 53.6164 37.7866C52.6754 39.0099 52.205 40.6095 52.205 42.5855C52.205 44.618 52.7507 46.2459 53.8422 47.4691C54.9526 48.6736 56.3922 49.2758 58.1613 49.2758Z" fill="#732A2A"/>
<path d="M70 91C63.9249 91 59 98.9249 59 105C59 98.9249 54.0751 91 48 91C41.9249 91 37 95.9249 37 102C37 111.823 53.1493 125.129 59 132.5C64.8507 125.129 81 111.823 81 102C81 95.9249 76.0751 91 70 91Z" fill="#FD7072" stroke="#FD7072" stroke-linecap="round" stroke-linejoin="round"/>
<path d="M317.664 529.454C317.664 514.775 323.46 507.435 335.053 507.435C338.986 507.435 342.176 508.47 344.622 510.541C347.069 512.63 348.433 515.537 348.715 519.263L340.444 520.082C339.861 518.2 339.146 516.807 338.299 515.904C337.452 515.02 336.389 514.577 335.109 514.577C333.114 514.577 331.515 515.499 330.31 517.344C329.087 519.207 328.278 521.907 327.882 525.445C329.087 524.806 330.404 524.297 331.834 523.921C333.246 523.564 334.686 523.385 336.154 523.385C338.732 523.385 341.028 523.987 343.041 525.191C345.036 526.415 346.598 528.052 347.727 530.103C348.838 532.173 349.393 534.403 349.393 536.793C349.393 539.598 348.762 542.1 347.502 544.302C346.222 546.504 344.434 548.217 342.138 549.44C339.842 550.682 337.189 551.303 334.177 551.303C323.168 551.303 317.664 544.02 317.664 529.454ZM333.839 530.724C332.107 530.724 330.084 531.279 327.77 532.39V532.559C327.77 536.154 328.4 538.967 329.661 541C330.903 543.051 332.663 544.076 334.94 544.076C336.295 544.076 337.443 543.455 338.384 542.213C339.325 540.99 339.795 539.39 339.795 537.414C339.795 535.382 339.249 533.754 338.158 532.531C337.047 531.326 335.608 530.724 333.839 530.724Z" fill="#732A2A"/>
<path d="M322 489C328.075 489 333 481.075 333 475C333 481.075 337.925 489 344 489C350.075 489 355 484.075 355 478C355 468.177 338.851 454.871 333 447.5C327.149 454.871 311 468.177 311 478C311 484.075 315.925 489 322 489Z" fill="#FD7072" stroke="#FD7072" stroke-linecap="round" stroke-linejoin="round"/>
</g>
<path d="M28.3239 6H362.676V4H28.3239V6ZM379 22.3239V557.676H381V22.3239H379ZM362.676 574H28.3239V576H362.676V574ZM12 557.676V22.324H10V557.676H12ZM28.3239 574C19.3085 574 12 566.692 12 557.676H10C10 567.796 18.2039 576 28.3239 576V574ZM379 557.676C379 566.691 371.692 574 362.676 574V576C372.796 576 381 567.796 381 557.676H379ZM362.676 6C371.692 6 379 13.3085 379 22.3239H381C381 12.2039 372.796 4 362.676 4V6ZM28.3239 4C18.2039 4 10 12.2039 10 22.324H12C12 13.3085 19.3085 6 28.3239 6V4Z" fill="#F7E2E2"/>
</g>
<path d="M273 148C266.925 148 262 155.925 262 162C262 155.925 257.075 148 251 148C244.925 148 240 152.925 240 159C240 168.823 256.149 182.129 262 189.5C267.851 182.129 284 168.823 284 159C284 152.925 279.075 148 273 148Z" fill="#FD7072" stroke="#FD7072" stroke-linecap="round" stroke-linejoin="round"/>
<path d="M273 208.5C266.925 208.5 262 216.425 262 222.5C262 216.425 257.075 208.5 251 208.5C244.925 208.5 240 213.425 240 219.5C240 229.323 256.149 242.629 262 250C267.851 242.629 284 229.323 284 219.5C284 213.425 279.075 208.5 273 208.5Z" fill="#FD7072" stroke="#FD7072" stroke-linecap="round" stroke-linejoin="round"/>
<path d="M273 371.5C266.925 371.5 262 363.575 262 357.5C262 363.575 257.075 371.5 251 371.5C244.925 371.5 240 366.575 240 360.5C240 350.677 256.149 337.371 262 330C267.851 337.371 284 350.677 284 360.5C284 366.575 279.075 371.5 273 371.5Z" fill="#FD7072" stroke="#FD7072" stroke-linecap="round" stroke-linejoin="round"/>
<path d="M273 432C266.925 432 262 424.075 262 418C262 424.075 257.075 432 251 432C244.925 432 240 427.075 240 421C240 411.177 256.149 397.871 262 390.5C267.851 397.871 284 411.177 284 421C284 427.075 279.075 432 273 432Z" fill="#FD7072" stroke="#FD7072" stroke-linecap="round" stroke-linejoin="round"/>
<path d="M139 148C132.925 148 128 155.925 128 162C128 155.925 123.075 148 117 148C110.925 148 106 152.925 106 159C106 168.823 122.149 182.129 128 189.5C133.851 182.129 150 168.823 150 159C150 152.925 145.075 148 139 148Z" fill="#FD7072" stroke="#FD7072" stroke-linecap="round" stroke-linejoin="round"/>
<path d="M139 208.5C132.925 208.5 128 216.425 128 222.5C128 216.425 123.075 208.5 117 208.5C110.925 208.5 106 213.425 106 219.5C106 229.323 122.149 242.629 128 250C133.851 242.629 150 229.323 150 219.5C150 213.425 145.075 208.5 139 208.5Z" fill="#FD7072" stroke="#FD7072" stroke-linecap="round" stroke-linejoin="round"/>
<path d="M139 371.5C132.925 371.5 128 363.575 128 357.5C128 363.575 123.075 371.5 117 371.5C110.925 371.5 106 366.575 106 360.5C106 350.677 122.149 337.371 128 330C133.851 337.371 150 350.677 150 360.5C150 366.575 145.075 371.5 139 371.5Z" fill="#FD7072" stroke="#FD7072" stroke-linecap="round" stroke-linejoin="round"/>
<path d="M139 432C132.925 432 128 424.075 128 418C128 424.075 123.075 432 117 432C110.925 432 106 427.075 106 421C106 411.177 122.149 397.871 128 390.5C133.851 397.871 150 411.177 150 421C150 427.075 145.075 432 139 432Z" fill="#FD7072" stroke="#FD7072" stroke-linecap="round" stroke-linejoin="round"/>
<path d="M206 269C199.925 269 195 276.925 195 283C195 276.925 190.075 269 184 269C177.925 269 173 273.925 173 280C173 289.823 189.149 303.129 195 310.5C200.851 303.129 217 289.823 217 280C217 273.925 212.075 269 206 269Z" fill="#FD7072" stroke="#FD7072" stroke-linecap="round" stroke-linejoin="round"/>
<defs>
<filter id="filter0_d" x="0" y="0" width="391" height="592" filterUnits="userSpaceOnUse" color-interpolation-filters="sRGB">
<feFlood flood-opacity="0" result="BackgroundImageFix"/>
<feColorMatrix in="SourceAlpha" type="matrix" values="0 0 0 0 0 0 0 0 0 0 0 0 0 0 0 0 0 0 127 0"/>
<feMorphology radius="3" operator="dilate" in="SourceAlpha" result="effect1_dropShadow"/>
<feOffset dy="6"/>
<feGaussianBlur stdDeviation="4"/>
<feColorMatrix type="matrix" values="0 0 0 0 0.279463 0 0 0 0 0.0711028 0 0 0 0 0.0740583 0 0 0 0.05 0"/>
<feBlend mode="normal" in2="BackgroundImageFix" result="effect1_dropShadow"/>
<feBlend mode="normal" in="SourceGraphic" in2="effect1_dropShadow" result="shape"/>
</filter>
<clipPath id="clip0">
<path d="M11 22.324C11 12.7562 18.7562 5 28.3239 5H362.676C372.244 5 380 12.7562 380 22.3239V557.676C380 567.244 372.244 575 362.676 575H28.3239C18.7562 575 11 567.244 11 557.676V22.324Z" fill="white"/>
</clipPath>
</defs>
</svg>
