<svg width="391" height="592" viewBox="0 0 391 592" fill="none" xmlns="http://www.w3.org/2000/svg">
<g filter="url(#filter0_d)">
<g clip-path="url(#clip0)">
<path d="M11 22.324C11 12.7562 18.7562 5 28.3239 5H362.676C372.244 5 380 12.7562 380 22.3239V557.676C380 567.244 372.244 575 362.676 575H28.3239C18.7562 575 11 567.244 11 557.676V22.324Z" fill="white"/>
<path d="M74.3364 50.5461C74.3364 65.2251 68.5401 72.5646 56.9474 72.5646C53.0142 72.5646 49.8243 71.5295 47.3778 69.4594C44.9313 67.3705 43.5669 64.4629 43.2846 60.7367L51.5557 59.918C52.1391 61.8 52.8542 63.1926 53.7011 64.0959C54.548 64.9804 55.6112 65.4227 56.891 65.4227C58.8858 65.4227 60.4854 64.5005 61.6899 62.6562C62.9131 60.7931 63.7223 58.0926 64.1175 54.5546C62.9131 55.1944 61.5958 55.7025 60.1655 56.0789C58.7541 56.4365 57.3144 56.6153 55.8465 56.6153C53.2683 56.6153 50.9723 56.0131 48.9586 54.8086C46.9638 53.5854 45.4018 51.9481 44.2727 49.8968C43.1623 47.8267 42.6071 45.5966 42.6071 43.2066C42.6071 40.4025 43.2376 37.8995 44.4985 35.6977C45.7782 33.4958 47.566 31.7833 49.862 30.56C52.1579 29.318 54.8114 28.6969 57.8225 28.6969C68.8318 28.6969 74.3364 35.98 74.3364 50.5461ZM58.1613 49.2758C59.8926 49.2758 61.9157 48.7206 64.2305 47.6103V47.4409C64.2305 43.8464 63.6 41.0329 62.3391 39.0005C61.0971 36.9492 59.3375 35.9235 57.0603 35.9235C55.7053 35.9235 54.5574 36.5445 53.6164 37.7866C52.6754 39.0099 52.205 40.6095 52.205 42.5855C52.205 44.618 52.7507 46.2459 53.8422 47.4691C54.9526 48.6736 56.3922 49.2758 58.1613 49.2758Z" fill="#1A1616"/>
<path fill-rule="evenodd" clip-rule="evenodd" d="M62.6689 118.663C63.8338 119.645 65.189 120.262 66.6351 120.262C70.9862 120.262 74.5135 116.79 74.5135 112.506C74.5135 107.411 68.2567 100.989 63.2795 95.8794C61.4896 94.042 59.8651 92.3745 58.7568 90.9998C57.6484 92.3745 56.0239 94.042 54.234 95.8794C49.2569 100.989 43 107.411 43 112.506C43 116.79 46.5273 120.262 50.8784 120.262C52.2464 120.262 53.5329 119.71 54.654 118.819C55.5853 122.254 56.6357 128.011 54.2547 130.392C53.1293 131.517 56.2895 132.643 58.7567 132.643C61.2406 132.643 64.151 131.517 63.0256 130.392C60.6082 127.974 61.728 122.077 62.6689 118.663ZM58.763 110.706C58.7589 110.6 58.7568 110.495 58.7568 110.391C58.7568 110.495 58.7547 110.6 58.7505 110.705L58.7567 110.696L58.763 110.706Z" fill="#453B3B"/>
<path d="M317.664 529.454C317.664 514.775 323.46 507.435 335.053 507.435C338.986 507.435 342.176 508.47 344.622 510.541C347.069 512.63 348.433 515.537 348.715 519.263L340.444 520.082C339.861 518.2 339.146 516.807 338.299 515.904C337.452 515.02 336.389 514.577 335.109 514.577C333.114 514.577 331.515 515.499 330.31 517.344C329.087 519.207 328.278 521.907 327.882 525.445C329.087 524.806 330.404 524.297 331.834 523.921C333.246 523.564 334.686 523.385 336.154 523.385C338.732 523.385 341.028 523.987 343.041 525.191C345.036 526.415 346.598 528.052 347.727 530.103C348.838 532.173 349.393 534.403 349.393 536.793C349.393 539.598 348.762 542.1 347.502 544.302C346.222 546.504 344.434 548.217 342.138 549.44C339.842 550.682 337.189 551.303 334.177 551.303C323.168 551.303 317.664 544.02 317.664 529.454ZM333.839 530.724C332.107 530.724 330.084 531.279 327.77 532.39V532.559C327.77 536.154 328.4 538.967 329.661 541C330.903 543.051 332.663 544.076 334.94 544.076C336.295 544.076 337.443 543.455 338.384 542.213C339.325 540.99 339.795 539.39 339.795 537.414C339.795 535.382 339.249 533.754 338.158 532.531C337.047 531.326 335.608 530.724 333.839 530.724Z" fill="#1A1616"/>
<path fill-rule="evenodd" clip-rule="evenodd" d="M329.331 461.337C328.166 460.355 326.811 459.738 325.365 459.738C321.014 459.738 317.486 463.21 317.486 467.494C317.486 472.589 323.743 479.011 328.72 484.121C330.51 485.958 332.135 487.626 333.243 489C334.352 487.626 335.976 485.958 337.766 484.121C342.743 479.011 349 472.589 349 467.494C349 463.21 345.473 459.738 341.122 459.738C339.754 459.738 338.467 460.29 337.346 461.181C336.415 457.746 335.364 451.989 337.745 449.608C338.871 448.483 335.711 447.357 333.243 447.357C330.759 447.357 327.849 448.483 328.974 449.608C331.392 452.026 330.272 457.923 329.331 461.337ZM333.237 469.294C333.241 469.4 333.243 469.505 333.243 469.609C333.243 469.505 333.245 469.4 333.249 469.295L333.243 469.304L333.237 469.294Z" fill="#453B3B"/>
</g>
<path d="M28.3239 6H362.676V4H28.3239V6ZM379 22.3239V557.676H381V22.3239H379ZM362.676 574H28.3239V576H362.676V574ZM12 557.676V22.324H10V557.676H12ZM28.3239 574C19.3085 574 12 566.692 12 557.676H10C10 567.796 18.2039 576 28.3239 576V574ZM379 557.676C379 566.691 371.692 574 362.676 574V576C372.796 576 381 567.796 381 557.676H379ZM362.676 6C371.692 6 379 13.3085 379 22.3239H381C381 12.2039 372.796 4 362.676 4V6ZM28.3239 4C18.2039 4 10 12.2039 10 22.324H12C12 13.3085 19.3085 6 28.3239 6V4Z" fill="#D9D8D8"/>
</g>
<path fill-rule="evenodd" clip-rule="evenodd" d="M265.669 175.663C266.834 176.645 268.189 177.262 269.635 177.262C273.986 177.262 277.514 173.79 277.514 169.506C277.514 164.411 271.257 157.989 266.28 152.879C264.49 151.042 262.865 149.374 261.757 148C260.648 149.374 259.024 151.042 257.234 152.879C252.257 157.989 246 164.411 246 169.506C246 173.79 249.527 177.262 253.878 177.262C255.246 177.262 256.533 176.71 257.654 175.819C258.585 179.254 259.636 185.011 257.255 187.392C256.129 188.517 259.289 189.643 261.757 189.643C264.241 189.643 267.151 188.517 266.026 187.392C263.608 184.974 264.728 179.077 265.669 175.663ZM261.763 167.706C261.759 167.6 261.757 167.495 261.757 167.391C261.757 167.495 261.755 167.6 261.751 167.705L261.757 167.696L261.763 167.706Z" fill="#453B3B"/>
<path fill-rule="evenodd" clip-rule="evenodd" d="M265.669 236.163C266.834 237.145 268.189 237.762 269.635 237.762C273.986 237.762 277.514 234.29 277.514 230.006C277.514 224.911 271.257 218.489 266.28 213.379C264.49 211.542 262.865 209.874 261.757 208.5C260.648 209.874 259.024 211.542 257.234 213.379C252.257 218.489 246 224.911 246 230.006C246 234.29 249.527 237.762 253.878 237.762C255.246 237.762 256.533 237.21 257.654 236.319C258.585 239.754 259.636 245.511 257.255 247.892C256.129 249.017 259.289 250.143 261.757 250.143C264.241 250.143 267.151 249.017 266.026 247.892C263.608 245.474 264.728 239.577 265.669 236.163ZM261.763 228.206C261.759 228.1 261.757 227.995 261.757 227.891C261.757 227.995 261.755 228.1 261.751 228.205L261.757 228.196L261.763 228.206Z" fill="#453B3B"/>
<path fill-rule="evenodd" clip-rule="evenodd" d="M265.669 343.837C266.834 342.855 268.189 342.238 269.635 342.238C273.986 342.238 277.514 345.71 277.514 349.994C277.514 355.089 271.257 361.511 266.28 366.621C264.49 368.458 262.865 370.126 261.757 371.5C260.648 370.126 259.024 368.458 257.234 366.621C252.257 361.511 246 355.089 246 349.994C246 345.71 249.527 342.238 253.878 342.238C255.246 342.238 256.533 342.79 257.654 343.681C258.585 340.246 259.636 334.489 257.255 332.108C256.129 330.983 259.289 329.857 261.757 329.857C264.241 329.857 267.151 330.983 266.026 332.108C263.608 334.526 264.728 340.423 265.669 343.837ZM261.763 351.794C261.759 351.9 261.757 352.005 261.757 352.109C261.757 352.005 261.755 351.9 261.751 351.795L261.757 351.804L261.763 351.794Z" fill="#453B3B"/>
<path fill-rule="evenodd" clip-rule="evenodd" d="M265.669 404.337C266.834 403.355 268.189 402.738 269.635 402.738C273.986 402.738 277.514 406.21 277.514 410.494C277.514 415.589 271.257 422.011 266.28 427.121C264.49 428.958 262.865 430.626 261.757 432C260.648 430.626 259.024 428.958 257.234 427.121C252.257 422.011 246 415.589 246 410.494C246 406.21 249.527 402.738 253.878 402.738C255.246 402.738 256.533 403.29 257.654 404.181C258.585 400.746 259.636 394.989 257.255 392.608C256.129 391.483 259.289 390.357 261.757 390.357C264.241 390.357 267.151 391.483 266.026 392.608C263.608 395.026 264.728 400.923 265.669 404.337ZM261.763 412.294C261.759 412.4 261.757 412.505 261.757 412.609C261.757 412.505 261.755 412.4 261.751 412.295L261.757 412.304L261.763 412.294Z" fill="#453B3B"/>
<path fill-rule="evenodd" clip-rule="evenodd" d="M131.669 175.663C132.834 176.645 134.189 177.262 135.635 177.262C139.986 177.262 143.514 173.79 143.514 169.506C143.514 164.411 137.257 157.989 132.28 152.879C130.49 151.042 128.865 149.374 127.757 148C126.648 149.374 125.024 151.042 123.234 152.879C118.257 157.989 112 164.411 112 169.506C112 173.79 115.527 177.262 119.878 177.262C121.246 177.262 122.533 176.71 123.654 175.819C124.585 179.254 125.636 185.011 123.255 187.392C122.129 188.517 125.289 189.643 127.757 189.643C130.241 189.643 133.151 188.517 132.026 187.392C129.608 184.974 130.728 179.077 131.669 175.663ZM127.763 167.706C127.759 167.6 127.757 167.495 127.757 167.391C127.757 167.495 127.755 167.6 127.751 167.705L127.757 167.696L127.763 167.706Z" fill="#453B3B"/>
<path fill-rule="evenodd" clip-rule="evenodd" d="M131.669 236.163C132.834 237.145 134.189 237.762 135.635 237.762C139.986 237.762 143.514 234.29 143.514 230.006C143.514 224.911 137.257 218.489 132.28 213.379C130.49 211.542 128.865 209.874 127.757 208.5C126.648 209.874 125.024 211.542 123.234 213.379C118.257 218.489 112 224.911 112 230.006C112 234.29 115.527 237.762 119.878 237.762C121.246 237.762 122.533 237.21 123.654 236.319C124.585 239.754 125.636 245.511 123.255 247.892C122.129 249.017 125.289 250.143 127.757 250.143C130.241 250.143 133.151 249.017 132.026 247.892C129.608 245.474 130.728 239.577 131.669 236.163ZM127.763 228.206C127.759 228.1 127.757 227.995 127.757 227.891C127.757 227.995 127.755 228.1 127.751 228.205L127.757 228.196L127.763 228.206Z" fill="#453B3B"/>
<path fill-rule="evenodd" clip-rule="evenodd" d="M131.669 343.837C132.834 342.855 134.189 342.238 135.635 342.238C139.986 342.238 143.514 345.71 143.514 349.994C143.514 355.089 137.257 361.511 132.28 366.621C130.49 368.458 128.865 370.126 127.757 371.5C126.648 370.126 125.024 368.458 123.234 366.621C118.257 361.511 112 355.089 112 349.994C112 345.71 115.527 342.238 119.878 342.238C121.246 342.238 122.533 342.79 123.654 343.681C124.585 340.246 125.636 334.489 123.255 332.108C122.129 330.983 125.289 329.857 127.757 329.857C130.241 329.857 133.151 330.983 132.026 332.108C129.608 334.526 130.728 340.423 131.669 343.837ZM127.763 351.794C127.759 351.9 127.757 352.005 127.757 352.109C127.757 352.005 127.755 351.9 127.751 351.795L127.757 351.804L127.763 351.794Z" fill="#453B3B"/>
<path fill-rule="evenodd" clip-rule="evenodd" d="M131.669 404.337C132.834 403.355 134.189 402.738 135.635 402.738C139.986 402.738 143.514 406.21 143.514 410.494C143.514 415.589 137.257 422.011 132.28 427.121C130.49 428.958 128.865 430.626 127.757 432C126.648 430.626 125.024 428.958 123.234 427.121C118.257 422.011 112 415.589 112 410.494C112 406.21 115.527 402.738 119.878 402.738C121.246 402.738 122.533 403.29 123.654 404.181C124.585 400.746 125.636 394.989 123.255 392.608C122.129 391.483 125.289 390.357 127.757 390.357C130.241 390.357 133.151 391.483 132.026 392.608C129.608 395.026 130.728 400.923 131.669 404.337ZM127.763 412.294C127.759 412.4 127.757 412.505 127.757 412.609C127.757 412.505 127.755 412.4 127.751 412.295L127.757 412.304L127.763 412.294Z" fill="#453B3B"/>
<path fill-rule="evenodd" clip-rule="evenodd" d="M198.669 296.663C199.834 297.645 201.189 298.262 202.635 298.262C206.986 298.262 210.514 294.79 210.514 290.506C210.514 285.411 204.257 278.989 199.28 273.879C197.49 272.042 195.865 270.374 194.757 269C193.648 270.374 192.024 272.042 190.234 273.879C185.257 278.989 179 285.411 179 290.506C179 294.79 182.527 298.262 186.878 298.262C188.246 298.262 189.533 297.71 190.654 296.819C191.585 300.254 192.636 306.011 190.255 308.392C189.129 309.517 192.289 310.643 194.757 310.643C197.241 310.643 200.151 309.517 199.026 308.392C196.608 305.974 197.728 300.077 198.669 296.663ZM194.763 288.706C194.759 288.6 194.757 288.495 194.757 288.391C194.757 288.495 194.755 288.6 194.751 288.705L194.757 288.696L194.763 288.706Z" fill="#453B3B"/>
<defs>
<filter id="filter0_d" x="0" y="0" width="391" height="592" filterUnits="userSpaceOnUse" color-interpolation-filters="sRGB">
<feFlood flood-opacity="0" result="BackgroundImageFix"/>
<feColorMatrix in="SourceAlpha" type="matrix" values="0 0 0 0 0 0 0 0 0 0 0 0 0 0 0 0 0 0 127 0"/>
<feMorphology radius="3" operator="dilate" in="SourceAlpha" result="effect1_dropShadow"/>
<feOffset dy="6"/>
<feGaussianBlur stdDeviation="4"/>
<feColorMatrix type="matrix" values="0 0 0 0 0.279463 0 0 0 0 0.0711028 0 0 0 0 0.0740583 0 0 0 0.05 0"/>
<feBlend mode="normal" in2="BackgroundImageFix" result="effect1_dropShadow"/>
<feBlend mode="normal" in="SourceGraphic" in2="effect1_dropShadow" result="shape"/>
</filter>
<clipPath id="clip0">
<path d="M11 22.324C11 12.7562 18.7562 5 28.3239 5H362.676C372.244 5 380 12.7562 380 22.3239V557.676C380 567.244 372.244 575 362.676 575H28.3239C18.7562 575 11 567.244 11 557.676V22.324Z" fill="white"/>
</clipPath>
</defs>
</svg>
