<svg width="391" height="592" viewBox="0 0 391 592" fill="none" xmlns="http://www.w3.org/2000/svg">
<g filter="url(#filter0_d)">
<g clip-path="url(#clip0)">
<path d="M11 22.324C11 12.7562 18.7562 5 28.3239 5H362.676C372.244 5 380 12.7562 380 22.3239V557.676C380 567.244 372.244 575 362.676 575H28.3239C18.7562 575 11 567.244 11 557.676V22.324Z" fill="#FBEEEE"/>
<path d="M81.5993 50.6025C81.5993 54.6487 80.7148 58.262 78.9458 61.4424C77.1956 64.6229 74.6927 67.1729 71.4369 69.0924C68.1812 70.9932 64.3797 72.0941 60.0325 72.3952C60.6159 72.5081 61.5004 72.8375 62.686 73.3832C64.455 74.1548 66.0546 74.757 67.4849 75.1899C68.9152 75.6415 70.3454 75.8674 71.7757 75.8674C72.5096 75.8674 73.1024 75.8485 73.5541 75.8109L70.957 82.5858C70.8441 82.6235 70.4395 82.6423 69.7432 82.6423C68.3129 82.6423 66.9391 82.3976 65.6218 81.9083C64.3233 81.4378 62.6484 80.7133 60.5971 79.7347C58.941 78.8878 57.5389 78.248 56.391 77.8151C55.2618 77.4011 54.1609 77.1941 53.0882 77.1941C50.8487 77.1941 48.7315 78.041 46.7367 79.7347L44.0267 75.5286C45.7957 73.402 48.1858 72.1506 51.1968 71.7742C47.7153 70.8897 44.7136 69.45 42.1918 67.4552C39.6701 65.4415 37.7223 62.995 36.3485 60.1156C34.9935 57.2175 34.316 54.0464 34.316 50.6025C34.316 46.2929 35.3134 42.482 37.3082 39.1698C39.3219 35.8576 42.1166 33.2982 45.6922 31.4916C49.2679 29.6661 53.3705 28.7534 58 28.7534C62.6672 28.7534 66.7886 29.6943 70.3642 31.5763C73.9587 33.4394 76.7251 36.027 78.6635 39.3392C80.6207 42.6514 81.5993 46.4058 81.5993 50.6025ZM58 64.7734C60.39 64.7734 62.4696 64.1524 64.2386 62.9103C66.0264 61.6494 67.3908 59.9557 68.3318 57.8291C69.2727 55.6837 69.7432 53.2749 69.7432 50.6025C69.7432 47.949 69.2633 45.559 68.3035 43.4324C67.3438 41.287 65.9605 39.6121 64.1539 38.4077C62.3661 37.1844 60.2959 36.5728 57.9435 36.5728C55.5535 36.5728 53.4834 37.2032 51.7332 38.4641C49.983 39.7062 48.628 41.3905 47.6682 43.5171C46.7273 45.6248 46.2568 47.9678 46.2568 50.5461C46.2568 53.2184 46.7555 55.6461 47.7529 57.8291C48.7692 59.9933 50.1618 61.6965 51.9308 62.9385C53.6998 64.1618 55.7229 64.7734 58 64.7734Z" fill="#732A2A"/>
<g clip-path="url(#clip1)">
<mask id="mask0" mask-type="alpha" maskUnits="userSpaceOnUse" x="85" y="56" width="229" height="235">
<rect x="85" y="56" width="229" height="235" fill="#C4C4C4"/>
</mask>
<g mask="url(#mask0)">
<path d="M119.196 133.753C124.341 128.296 134.914 126.437 141.196 118.753C147.478 111.07 144.573 104.466 151.196 98.7533C157.819 93.0403 166.224 95.432 170.62 88.582C175.016 81.7321 173.264 77.4685 178.579 72.9966C183.894 68.5248 193.255 66.9049 193.255 66.9049L224.696 68.2533C224.696 68.2533 234.196 68.2533 240.196 71.7533C246.196 75.2533 245.196 79.7533 250.696 85.7533C256.196 91.7533 262.696 89.7533 270.196 94.2533C277.696 98.7533 277.696 103.253 285.196 109.753C292.696 116.253 301.696 111.753 307.696 116.253C313.696 120.753 315.696 124.253 315.696 124.253L315.696 206.753L218.196 270.253L96.1961 236.753L96.1961 163.493C99.9627 161.997 103.566 160.311 107.196 156.253C115.696 146.753 114.051 139.21 119.196 133.753Z" fill="#732A2A"/>
<path d="M107.196 227.253C115.03 215.253 130.396 193.053 139.196 184.253L292.357 182.753C293.242 185.383 294.415 187.972 296.696 190.253C303.196 196.753 314.196 201.753 314.196 201.753V292.753L80.6963 299.753L107.196 227.253Z" fill="#F4B9B9"/>
<path d="M215.196 180.753C187.696 180.753 176.196 178.253 159.196 171.753L138.196 185.253C165.196 198.753 192.498 202.635 215.196 202.635C242.691 202.635 268.939 196.329 292.696 182.753C291.863 179.753 289.696 173.753 287.696 171.753C285.696 169.753 283.196 167.832 282.196 166.872C268.326 173.39 244.921 180.753 215.196 180.753Z" fill="#732A2A"/>
<path d="M178.696 121.253C178.696 116.453 180.196 107.753 180.196 103.753L180.696 102.253C180.696 102.541 181.696 102.444 185.696 99.7533C187.543 98.511 190.172 94.695 192.794 90.2533L207.885 91.2533C208.47 92.1626 209.075 93.0081 209.696 93.7533C214.696 99.7533 218.696 96.9802 225.696 103.117C232.375 108.972 231.771 118.798 237.347 125.333C237.532 126.21 237.757 128.011 237.196 130.253C236.196 134.253 236.696 141.253 234.196 146.253C232.863 150.253 230.196 158.353 230.196 158.753C233.696 159.42 241.796 160.753 246.196 160.753C251.696 160.753 267.696 161.753 271.196 162.753C274.696 163.753 279.196 167.253 281.196 167.253C283.196 167.253 243.196 182.753 211.696 180.753C180.196 178.753 166.863 174.087 160.196 171.753C165.863 169.753 178.296 165.453 182.696 164.253C187.096 163.053 190.196 162.753 191.196 162.753C191.196 162.753 190.196 159.253 189.696 158.253L187.696 154.253C183.696 151.753 182.696 141.253 180.196 136.753C178.196 133.153 178.363 124.92 178.696 121.253Z" fill="#C39393"/>
<path d="M314.196 201.753C314.196 201.753 303.196 196.753 296.696 190.253C290.196 183.753 292.696 174.753 285.196 169.432C277.696 164.11 273.696 166.253 268.196 159.253C262.696 152.253 265.696 146.253 257.696 138.753C249.696 131.253 244.696 132.753 238.196 126.253C231.696 119.753 232.696 109.253 225.696 103.117C218.696 96.9802 214.696 99.7533 209.696 93.7533C209.075 93.0081 208.47 92.1626 207.885 91.2533M180.696 102.253C180.696 102.541 181.696 102.444 185.696 99.7533C187.543 98.511 190.172 94.695 192.794 90.2533" stroke="#440F0F" stroke-width="3" stroke-linecap="round"/>
<path d="M224.696 68.2533C224.696 68.2533 234.196 68.2533 240.196 71.7533C246.196 75.2533 245.196 79.7533 250.696 85.7533C256.196 91.7533 262.696 89.7533 270.196 94.2533C277.696 98.7533 277.696 103.253 285.196 109.753C292.696 116.253 301.696 111.753 307.696 116.253C313.696 120.753 315.696 124.253 315.696 124.253" stroke="#440F0F" stroke-width="3" stroke-linecap="round"/>
<path d="M193.255 66.9049C193.255 66.9049 183.894 68.5248 178.579 72.9966C173.264 77.4685 175.017 81.7321 170.62 88.582C166.224 95.432 157.819 93.0403 151.196 98.7533C144.573 104.466 147.478 111.07 141.196 118.753C134.914 126.437 124.341 128.296 119.196 133.753C114.051 139.21 115.696 146.753 107.196 156.253C103.566 160.311 99.9628 161.997 96.1962 163.493" stroke="#440F0F" stroke-width="3" stroke-linecap="round"/>
<path d="M224.696 68.2533C224.696 68.2533 234.196 68.2533 240.196 71.7533C246.196 75.2533 245.196 79.7533 250.696 85.7533C256.196 91.7533 262.696 89.7533 270.196 94.2533C277.696 98.7533 277.696 103.253 285.196 109.753C292.696 116.253 301.696 111.753 307.696 116.253C313.696 120.753 315.696 124.253 315.696 124.253" stroke="#440F0F" stroke-width="3" stroke-linecap="round"/>
<path d="M161.696 173.235C173.943 177.214 191.843 180.753 215.196 180.753C244.921 180.753 268.326 173.39 282.196 166.872" stroke="#440F0F" stroke-width="3" stroke-linecap="round"/>
<path d="M185.696 152.253C186.412 154.043 189.945 158.137 190.796 163.253M190.196 169.753C191.049 167.479 191.134 165.286 190.796 163.253M190.796 163.253C174.809 165.084 150.87 172.579 139.196 184.253C130.396 193.053 115.03 215.253 107.196 227.253" stroke="#440F0F" stroke-width="3" stroke-linecap="round"/>
<path d="M150.196 190.253C171 199.051 192.498 202.635 215.196 202.635C242.691 202.635 268.939 196.329 292.696 182.753" stroke="#440F0F" stroke-width="3" stroke-linecap="round"/>
<path d="M180.196 103.753C180.196 107.753 178.696 116.453 178.696 121.253C178.363 124.92 178.196 133.153 180.196 136.753C182.696 141.253 184.196 152.253 188.196 154.753C192.196 157.253 199.196 163.253 208.196 158.753C217.196 154.253 231.696 151.253 234.196 146.253C236.696 141.253 236.196 134.253 237.196 130.253C237.996 127.053 237.196 124.753 237.196 124.753" stroke="#440F0F" stroke-width="3" stroke-linecap="round"/>
<path d="M187.696 81.2533C185.696 81.92 181.496 84.3533 180.696 88.7533C179.696 94.2533 178.696 103.753 171.696 105.753C164.696 107.753 157.696 117.253 157.196 124.253" stroke="#440F0F" stroke-width="3" stroke-linecap="round"/>
<path d="M148.196 215.753L133.196 265.753" stroke="#440F0F" stroke-width="3" stroke-linecap="round"/>
<path d="M232.696 148.753C231.696 152.753 229.696 161.753 229.696 165.753C229.696 169.753 231.696 171.42 232.696 171.753" stroke="#440F0F" stroke-width="3" stroke-linecap="round"/>
<path d="M230.696 159.253C234.863 159.92 244.596 161.253 250.196 161.253C255.796 161.253 266.863 161.92 271.696 162.253" stroke="#440F0F" stroke-width="3" stroke-linecap="round"/>
<path d="M270.196 129.753C272.196 130.587 276.496 133.253 277.696 137.253C279.196 142.253 281.696 147.253 285.696 148.253C289.696 149.253 297.196 158.753 298.196 163.253" stroke="#440F0F" stroke-width="3" stroke-linecap="round"/>
<path d="M151.696 139.753C149.696 140.42 145.496 142.853 144.696 147.253C143.696 152.753 142.696 162.253 135.696 164.253C128.696 166.253 121.696 175.753 121.196 182.753" stroke="#440F0F" stroke-width="3" stroke-linecap="round"/>
<path d="M188.5 85.5L183.5 84.5L181 90.292C181 90.292 185.644 94.6429 199.186 95.7022C215.526 96.9802 216.077 95.8026 231.5 91.5L230.5 86.5L222.5 87.5L217 78.5L212 85.5L205.5 73L199 84.5L194.5 77.5L188.5 85.5Z" fill="#F4B9B9"/>
<path d="M181 89.792C181 89.792 185.644 94.1429 199.186 95.2022C215.576 96.4842 216.485 96.3282 232 92" stroke="#440F0F" stroke-width="3" stroke-linecap="round"/>
<path d="M183.5 85L188.5 86L194.5 78.5L198 85L206 72L212.5 86L217 80L222.5 88H230" stroke="#440F0F" stroke-width="3" stroke-linecap="round" stroke-linejoin="round"/>
<path d="M224.196 82.2533C226.196 83.0866 230.496 85.7533 231.696 89.7533C233.196 94.7533 235.696 99.7533 239.696 100.753C243.696 101.753 251.196 111.253 252.196 115.753" stroke="#440F0F" stroke-width="3" stroke-linecap="round"/>
</g>
<path d="M128.994 340.219C129.529 338.617 131.887 337.326 133 336.881L121.651 299.496L120.983 258.774L110.302 236.076L80.9282 276.131L78.2578 341.554C78.0352 342.89 77.7237 348.23 78.2578 358.912C78.9254 372.263 86.2688 392.291 86.9364 396.964C87.604 401.637 89.6067 402.305 90.2743 408.313C90.9419 414.321 90.9419 413.654 92.9447 416.992C94.9474 420.33 94.9474 422.332 94.9474 425.67C94.9474 429.008 97.6178 428.341 98.9529 430.343C100.288 432.346 100.288 436.352 100.288 437.687C100.288 439.022 99.6205 443.027 100.956 445.03C102.291 447.033 102.291 447.701 102.291 451.039C102.291 454.376 102.958 454.376 103.626 455.712C104.294 457.047 103.626 457.714 104.294 459.05C104.961 460.385 106.296 459.717 106.296 457.047C106.296 454.376 107.632 456.379 107.632 449.703C107.632 443.027 113.64 431.011 113.64 429.008C113.64 427.005 114.975 425.67 114.975 423.667C114.975 421.665 114.307 420.997 114.975 418.994C115.643 416.992 117.645 414.989 116.978 412.319C116.31 409.648 115.643 408.313 116.978 406.31C118.313 404.307 118.313 397.632 118.313 394.961C118.313 392.291 116.978 378.939 116.978 375.601C116.978 372.263 118.313 372.263 118.981 369.593C119.648 366.923 121.651 366.923 121.651 362.917C121.651 358.912 120.316 360.247 120.983 357.576C121.651 354.906 124.321 354.239 124.321 351.568C124.321 348.898 124.989 349.565 127.659 345.56C130.33 341.554 128.327 342.222 128.994 340.219Z" fill="#884747" stroke="#440F0F" stroke-width="3" stroke-linecap="round"/>
<path d="M105.629 398.967C107.231 374.4 102.736 300.609 100.288 266.785C99.3981 268.342 97.6179 272.66 97.6179 277.466C97.6179 283.474 100.288 356.241 100.288 378.272V439.022C101.401 435.907 104.027 423.534 105.629 398.967Z" fill="#732A2A"/>
<path d="M116.31 370.928L112.972 304.17L111.637 288.815C110.97 309.51 109.635 354.506 109.635 368.925C109.635 383.345 111.86 387.84 112.972 388.285L114.975 376.936C114.975 376.936 114.308 375.601 114.975 373.598C115.643 371.596 116.31 370.928 116.31 370.928Z" fill="#732A2A"/>
<path d="M93.6124 342.89V259.441L83.5986 274.128C84.7113 285.477 86.9366 309.51 86.9366 314.851C86.9366 321.527 90.9421 370.261 92.2773 380.274C93.3454 388.285 90.9421 400.97 89.6069 406.31C90.2745 405.198 92.0102 401.771 93.6124 396.964C95.6152 390.956 93.6124 354.239 93.6124 342.89Z" fill="#732A2A"/>
<path d="M93.6125 259.441C93.6125 283.474 93.6125 333.81 93.6125 342.89C93.6125 354.239 95.6152 390.956 93.6125 396.964C92.0102 401.771 90.2745 405.198 89.6069 406.31" stroke="#440F0F" stroke-width="3" stroke-linecap="round"/>
<path d="M100.956 268.787C104.294 292.821 104.294 344.492 104.294 353.571C104.294 364.92 106.964 403.64 105.629 416.992C105.125 422.033 101.623 435.907 100.956 437.019" stroke="#440F0F" stroke-width="3" stroke-linecap="round"/>
<path d="M114.307 259.441C114.307 247.158 111.192 238.746 109.634 236.076C109.634 234.963 110.569 233.406 114.307 236.076C118.98 239.414 124.321 262.112 124.989 284.81C125.523 302.968 130.107 326.2 132.332 335.546C128.104 334.656 118.58 329.004 114.307 313.516C108.967 294.156 114.307 274.796 114.307 259.441Z" fill="#732A2A"/>
<path d="M87.6039 321.527C88.138 316.186 85.6012 289.038 84.266 276.131V256.101C83.5984 257.659 75.7209 283.608 73.5846 300.164C70.9143 320.859 78.2577 352.903 78.2577 341.554C78.2577 330.205 86.9364 328.203 87.6039 321.527Z" fill="#732A2A"/>
<path d="M114.307 259.441C114.307 247.158 111.192 238.746 109.634 236.076C109.634 234.963 110.569 233.406 114.307 236.076C118.98 239.414 124.321 262.112 124.989 284.81C125.523 302.968 130.107 326.2 132.332 335.546C128.104 334.656 118.58 329.004 114.307 313.516C108.967 294.156 114.307 274.796 114.307 259.441Z" stroke="#440F0F" stroke-width="3" stroke-linecap="round"/>
<path d="M87.6039 321.527C88.138 316.186 85.6012 289.038 84.266 276.131V256.101C83.5984 257.659 75.7209 283.608 73.5846 300.164C70.9143 320.859 78.2577 352.903 78.2577 341.554C78.2577 330.205 86.9364 328.203 87.6039 321.527Z" stroke="#440F0F" stroke-width="3" stroke-linecap="round"/>
<path d="M109.635 236.076C111.192 238.746 114.308 247.158 114.308 259.441C114.308 274.796 108.967 294.156 114.308 313.516C118.58 329.004 128.104 334.656 132.332 335.546" stroke="#440F0F" stroke-width="3" stroke-linecap="round"/>
<path d="M129.994 340.219C130.529 338.617 132.887 337.326 134 336.881L122.651 299.496L121.983 258.774L111.302 236.076L81.9282 276.131L79.2578 341.554C79.0352 342.89 78.7237 348.23 79.2578 358.912C79.9254 372.263 87.2688 392.291 87.9364 396.964C88.604 401.637 90.6067 402.305 91.2743 408.313C91.9419 414.321 91.9419 413.654 93.9447 416.992C95.9474 420.33 95.9474 422.332 95.9474 425.67C95.9474 429.008 98.6178 428.341 99.9529 430.343C101.288 432.346 101.288 436.352 101.288 437.687C101.288 439.022 100.621 443.027 101.956 445.03C103.291 447.033 103.291 447.701 103.291 451.039C103.291 454.376 103.958 454.376 104.626 455.712C105.294 457.047 104.626 457.714 105.294 459.05C105.961 460.385 107.296 459.717 107.296 457.047C107.296 454.376 108.632 456.379 108.632 449.703C108.632 443.027 114.64 431.011 114.64 429.008C114.64 427.005 115.975 425.67 115.975 423.667C115.975 421.665 115.307 420.997 115.975 418.994C116.643 416.992 118.645 414.989 117.978 412.319C117.31 409.648 116.643 408.313 117.978 406.31C119.313 404.307 119.313 397.632 119.313 394.961C119.313 392.291 117.978 378.939 117.978 375.601C117.978 372.263 119.313 372.263 119.981 369.593C120.648 366.923 122.651 366.923 122.651 362.917C122.651 358.912 121.316 360.247 121.983 357.576C122.651 354.906 125.321 354.239 125.321 351.568C125.321 348.898 125.989 349.565 128.659 345.56C131.33 341.554 129.327 342.222 129.994 340.219Z" fill="#F4B9B9" stroke="#440F0F" stroke-width="3" stroke-linecap="round"/>
<path d="M106.629 398.967C108.231 374.4 103.736 300.609 101.288 266.785C100.398 268.342 98.6179 272.66 98.6179 277.466C98.6179 283.474 101.288 356.241 101.288 378.272V439.022C102.401 435.907 105.027 423.534 106.629 398.967Z" fill="#C48484"/>
<path d="M117.31 370.928L113.972 304.17L112.637 288.815C111.97 309.51 110.634 354.506 110.634 368.925C110.634 383.345 112.86 387.84 113.972 388.285L115.975 376.936C115.975 376.936 115.308 375.601 115.975 373.598C116.643 371.596 117.31 370.928 117.31 370.928Z" fill="#C48484"/>
<path d="M94.6124 342.89V259.441L84.5986 274.128C85.7113 285.477 87.9366 309.51 87.9366 314.851C87.9366 321.527 91.9421 370.261 93.2773 380.274C94.3454 388.285 91.9421 400.97 90.6069 406.31C91.2745 405.198 93.0102 401.771 94.6124 396.964C96.6152 390.956 94.6124 354.239 94.6124 342.89Z" fill="#C48484"/>
<path d="M94.6123 259.441C94.6123 283.474 94.6123 333.81 94.6123 342.89C94.6123 354.239 96.6151 390.956 94.6123 396.964C93.0101 401.771 91.2744 405.198 90.6068 406.31" stroke="#440F0F" stroke-width="3" stroke-linecap="round"/>
<path d="M101.956 268.787C105.294 292.821 105.294 344.492 105.294 353.571C105.294 364.92 107.964 403.64 106.629 416.992C106.125 422.033 102.623 435.907 101.956 437.019" stroke="#440F0F" stroke-width="3" stroke-linecap="round"/>
<path d="M115.307 259.441C115.307 247.158 112.192 238.746 110.634 236.076C110.634 234.963 111.569 233.406 115.307 236.076C119.98 239.414 125.321 262.112 125.989 284.81C126.523 302.968 131.107 326.2 133.332 335.546C129.104 334.656 119.58 329.004 115.307 313.516C109.967 294.156 115.307 274.796 115.307 259.441Z" fill="#A66969"/>
<path d="M88.6039 321.527C89.138 316.186 86.6012 289.038 85.266 276.131V256.101C84.5984 257.659 76.7209 283.608 74.5846 300.164C71.9143 320.859 79.2577 352.903 79.2577 341.554C79.2577 330.205 87.9364 328.203 88.6039 321.527Z" fill="#A66969"/>
<path d="M115.307 259.441C115.307 247.158 112.192 238.746 110.634 236.076C110.634 234.963 111.569 233.406 115.307 236.076C119.98 239.414 125.321 262.112 125.989 284.81C126.523 302.968 131.107 326.2 133.332 335.546C129.104 334.656 119.58 329.004 115.307 313.516C109.967 294.156 115.307 274.796 115.307 259.441Z" stroke="#440F0F" stroke-width="3" stroke-linecap="round"/>
<path d="M88.6039 321.527C89.138 316.186 86.6012 289.038 85.266 276.131V256.101C84.5984 257.659 76.7209 283.608 74.5846 300.164C71.9143 320.859 79.2577 352.903 79.2577 341.554C79.2577 330.205 87.9364 328.203 88.6039 321.527Z" stroke="#440F0F" stroke-width="3" stroke-linecap="round"/>
<path d="M110.634 236.076C112.192 238.746 115.308 247.158 115.308 259.441C115.308 274.796 109.967 294.156 115.308 313.516C119.58 329.004 129.104 334.656 133.332 335.546" stroke="#440F0F" stroke-width="3" stroke-linecap="round"/>
<path d="M86.1962 243.601C86.1962 250.001 81.5 268.601 88.5 278.601C95.5 288.601 95.8648 299.101 103.598 299.101C111.331 299.101 107.028 296.601 111.331 288.601C119.117 274.129 114.506 250.525 111.331 234.355C109.413 223.145 107.696 207.989 107.696 206.855C107.696 205.355 106.696 195.855 106.696 193.855C106.696 191.855 107.196 187.355 107.196 184.855C107.196 182.355 103.696 172.855 103.196 171.355C102.696 169.855 98.1962 164.355 97.1962 161.855C96.1962 159.355 94.1962 156.855 93.6962 154.355C93.1962 151.855 91.6962 148.355 89.1962 150.355C87.1962 151.955 86.3628 154.355 86.1962 155.355L84.6962 154.355C82.6962 153.355 80.1962 152.855 78.6962 153.855C77.1962 154.855 75.6962 156.355 76.6962 158.355L79.6962 163.355C79.1962 163.355 77.6962 164.355 77.1962 165.855C76.6962 167.355 76.1962 170.855 75.1962 172.855C74.1961 174.855 72.6962 177.355 72.1962 178.355C71.6962 179.355 70.6962 179.355 70.1962 182.355C69.6962 185.355 70.1962 185.355 71.1962 187.855C72.1962 190.355 73.6962 192.355 75.1962 194.355C76.6962 196.355 82.1962 199.355 83.6962 202.355C85.1962 205.355 86.1962 213.355 86.1962 217.355V243.601Z" fill="#C39393" stroke="#440F0F" stroke-width="3" stroke-linecap="round"/>
<path d="M76.6963 186.355C78.6963 187.188 82.8963 188.955 83.6963 189.355C84.6963 189.855 87.1963 192.355 88.1963 191.355C89.1963 190.355 90.1963 188.355 89.6963 187.355C89.1963 186.355 86.6963 183.855 85.1963 182.855C83.6963 181.855 79.1963 179.855 78.6963 179.355C78.1963 178.855 76.1963 179.855 75.6963 182.355M90.1963 187.855C91.1963 188.688 93.3963 190.355 94.1963 190.355C95.1963 190.355 97.1963 187.855 97.1963 186.355C97.1963 185.363 95.6665 183.934 94.1963 182.646M76.6963 172.855C77.0296 172.688 77.9963 172.255 79.1963 171.855C80.6963 171.355 82.1963 172.355 82.6963 172.855C83.1963 173.355 90.6963 179.355 92.1963 180.855C92.7046 181.363 93.4426 181.986 94.1963 182.646M94.1963 182.646C95.1963 182.549 97.3963 182.055 98.1963 180.855C99.1963 179.355 99.6963 177.855 98.1963 176.355C96.6963 174.855 92.1963 170.855 91.1963 169.855C90.5216 169.18 87.7988 166.912 85.7914 165.355M79.1963 162.855C78.6963 162.021 77.4963 159.955 76.6963 158.355C75.6963 156.355 77.1963 154.855 78.6963 153.855C80.1963 152.855 82.6963 153.355 84.6963 154.355C86.6963 155.355 89.1963 158.855 90.6963 159.855C92.1963 160.855 94.6963 163.855 92.1963 165.855C90.1963 167.455 87.093 166.188 85.7914 165.355M85.7914 165.355C84.8233 164.604 84.0216 164.017 83.6963 163.855C83.0296 163.021 81.4963 161.355 80.6963 161.355" stroke="#440F0F" stroke-width="3" stroke-linecap="round"/>
<path d="M95.5 229.601C94.614 225.836 92.2061 220.166 91 214.601C89.4837 207.605 88.2228 195.275 88 192.601M87 154.601C87 152.935 87 148.101 88 141.601" stroke="#440F0F" stroke-width="3" stroke-linecap="round"/>
<path d="M84.7034 133.174C82.5045 126.431 79.9464 112.965 85.8317 114.155C87.2175 112.351 91.2205 109.642 95.5 110.101C100.99 110.691 102.599 113.314 102.646 114.687C104.979 113.926 109.211 115.03 112.791 120.07C114.864 122.989 114.844 125.506 114.325 127.101L114.325 130.355C111.666 138.683 96.0377 141.084 88.5563 141.244C88.0049 140.802 86.4625 138.569 84.7034 133.174Z" fill="#F4B9B9"/>
<path d="M85.8316 114.155C90.5398 115.106 94.2791 125.7 95.5602 130.878C102.923 127.233 116.985 122.027 114.325 130.355C111.665 138.683 96.0376 141.084 88.5561 141.244C88.0048 140.802 86.4624 138.569 84.7032 133.174C82.5044 126.431 79.9462 112.965 85.8316 114.155Z" stroke="#440F0F" stroke-width="3" stroke-linecap="round"/>
<path d="M108.731 125.72C108.735 124.483 108.048 121.373 105.258 118.825C101.772 115.639 99.0126 114.687 97.7242 114.489C96.4358 114.292 92.1992 114.438 89.6151 115.898" stroke="#440F0F" stroke-width="3" stroke-linecap="round"/>
<path d="M102.041 113.627C104.375 112.866 108.607 113.969 112.186 119.009C114.259 121.928 114.24 124.445 113.721 126.041" stroke="#440F0F" stroke-width="3" stroke-linecap="round"/>
<path d="M102.833 116.098C102.786 114.725 101.528 110.945 96.0376 110.356C91.7581 109.896 89.0056 111.951 87.6198 113.755" stroke="#440F0F" stroke-width="3" stroke-linecap="round"/>
<path d="M100.391 122.089C100.191 120.808 99.4761 118.082 98.2145 117.417C96.6375 116.586 94.871 119.18 94.8755 121.196C94.879 122.81 94.5466 123.76 94.8755 124.101" stroke="#440F0F" stroke-width="3" stroke-linecap="round"/>
<path d="M103.355 125.85C104.161 124.951 105.183 122.965 102.826 122.207C100.868 121.576 97.5579 122.764 95.4277 123.775" stroke="#440F0F" stroke-width="3" stroke-linecap="round"/>
<path d="M86.1963 155.355C86.363 154.355 87.1963 151.955 89.1963 150.355C91.6963 148.355 93.1963 151.855 93.6963 154.355C94.1963 156.855 96.1963 159.355 97.1963 161.855C98.1963 164.355 102.696 169.855 103.196 171.355C103.696 172.855 107.196 182.355 107.196 184.855C107.196 187.355 106.696 191.855 106.696 193.855C106.696 195.855 107.696 205.355 107.696 206.855C107.696 207.989 109.413 223.145 111.332 234.355" stroke="#440F0F" stroke-width="3" stroke-linecap="round"/>
<path d="M263.006 239.498C262.471 241.1 260.113 242.391 259 242.836L270.349 280.221L271.017 320.944L281.698 343.641L311.072 303.586L313.742 238.163C313.965 236.828 314.276 231.487 313.742 220.806C313.075 207.454 305.731 187.426 305.064 182.753C304.396 178.08 302.393 177.413 301.726 171.404C301.058 165.396 301.058 166.064 299.055 162.726C297.053 159.388 297.053 157.385 297.053 154.047C297.053 150.709 294.382 151.377 293.047 149.374C291.712 147.371 291.712 143.366 291.712 142.03C291.712 140.695 292.379 136.69 291.044 134.687C289.709 132.684 289.709 132.017 289.709 128.679C289.709 125.341 289.042 125.341 288.374 124.006C287.706 122.67 288.374 122.003 287.706 120.668C287.039 119.333 285.704 120 285.704 122.67C285.704 125.341 284.368 123.338 284.368 130.014C284.368 136.69 278.36 148.706 278.36 150.709C278.36 152.712 277.025 154.047 277.025 156.05C277.025 158.053 277.693 158.72 277.025 160.723C276.357 162.726 274.355 164.728 275.022 167.399C275.69 170.069 276.357 171.404 275.022 173.407C273.687 175.41 273.687 182.086 273.687 184.756C273.687 187.426 275.022 200.778 275.022 204.116C275.022 207.454 273.687 207.454 273.019 210.124C272.352 212.795 270.349 212.795 270.349 216.8C270.349 220.806 271.684 219.47 271.017 222.141C270.349 224.811 267.679 225.479 267.679 228.149C267.679 230.819 267.011 230.152 264.341 234.157C261.67 238.163 263.673 237.495 263.006 239.498Z" fill="#884747" stroke="#440F0F" stroke-width="3" stroke-linecap="round"/>
<path d="M286.371 180.75C284.769 205.318 289.264 279.108 291.712 312.932C292.602 311.375 294.382 307.058 294.382 302.251C294.382 296.243 291.712 223.476 291.712 201.446L291.712 140.695C290.599 143.811 287.973 156.183 286.371 180.75Z" fill="#732A2A"/>
<path d="M275.69 208.789L279.028 275.548L280.363 290.902C281.03 270.207 282.365 225.212 282.365 210.792C282.365 196.372 280.14 191.877 279.028 191.432L277.025 202.781C277.025 202.781 277.692 204.116 277.025 206.119C276.357 208.122 275.69 208.789 275.69 208.789Z" fill="#732A2A"/>
<path d="M298.388 236.828L298.388 320.276L308.401 305.589C307.289 294.24 305.063 270.207 305.063 264.866C305.063 258.19 301.058 209.457 299.723 199.443C298.655 191.432 301.058 178.748 302.393 173.407C301.726 174.52 299.99 177.947 298.388 182.753C296.385 188.762 298.388 225.479 298.388 236.828Z" fill="#732A2A"/>
<path d="M298.388 320.276C298.388 296.243 298.388 245.907 298.388 236.828C298.388 225.479 296.385 188.762 298.388 182.753C299.99 177.947 301.725 174.52 302.393 173.407" stroke="#440F0F" stroke-width="3" stroke-linecap="round"/>
<path d="M291.044 310.93C287.706 286.897 287.706 235.226 287.706 226.146C287.706 214.797 285.036 176.077 286.371 162.726C286.875 157.684 290.377 143.811 291.044 142.698" stroke="#440F0F" stroke-width="3" stroke-linecap="round"/>
<path d="M280.363 276.215C282.365 245.506 286.267 217.562 280.363 192.767" stroke="#440F0F" stroke-width="3" stroke-linecap="round"/>
<path d="M277.693 320.276C277.693 332.559 280.808 340.971 282.366 343.641C282.366 344.754 281.431 346.312 277.693 343.641C273.02 340.303 267.679 317.606 267.011 294.908C266.477 276.749 261.893 253.517 259.668 244.171C263.896 245.061 273.42 250.713 277.693 266.201C283.033 285.561 277.693 304.921 277.693 320.276Z" fill="#732A2A"/>
<path d="M304.396 258.19C303.862 263.531 306.399 290.68 307.734 303.586L307.734 323.616C308.402 322.058 316.279 296.109 318.415 279.553C321.086 258.858 313.742 226.814 313.742 238.163C313.742 249.512 305.064 251.515 304.396 258.19Z" fill="#732A2A"/>
<path d="M277.693 320.276C277.693 332.559 280.808 340.971 282.366 343.641C282.366 344.754 281.431 346.312 277.693 343.641C273.02 340.303 267.679 317.606 267.011 294.908C266.477 276.749 261.893 253.517 259.668 244.171C263.896 245.061 273.42 250.713 277.693 266.201C283.033 285.561 277.693 304.921 277.693 320.276Z" stroke="#440F0F" stroke-width="3" stroke-linecap="round"/>
<path d="M304.396 258.19C303.862 263.531 306.399 290.68 307.734 303.586L307.734 323.616C308.402 322.058 316.279 296.109 318.415 279.553C321.086 258.858 313.742 226.814 313.742 238.163C313.742 249.512 305.064 251.515 304.396 258.19Z" stroke="#440F0F" stroke-width="3" stroke-linecap="round"/>
<path d="M282.365 343.641C280.808 340.971 277.692 332.56 277.692 320.276C277.692 304.921 283.033 285.561 277.692 266.201C273.42 250.713 263.896 245.061 259.668 244.171" stroke="#440F0F" stroke-width="3" stroke-linecap="round"/>
<path d="M262.006 239.498C261.471 241.1 259.113 242.391 258 242.836L269.349 280.221L270.017 320.944L280.698 343.641L310.072 303.586L312.742 238.163C312.965 236.828 313.276 231.487 312.742 220.806C312.075 207.454 304.731 187.426 304.064 182.753C303.396 178.08 301.393 177.413 300.726 171.404C300.058 165.396 300.058 166.064 298.055 162.726C296.053 159.388 296.053 157.385 296.053 154.047C296.053 150.709 293.382 151.377 292.047 149.374C290.712 147.371 290.712 143.366 290.712 142.03C290.712 140.695 291.379 136.69 290.044 134.687C288.709 132.684 288.709 132.017 288.709 128.679C288.709 125.341 288.042 125.341 287.374 124.006C286.706 122.67 287.374 122.003 286.706 120.668C286.039 119.333 284.704 120 284.704 122.67C284.704 125.341 283.368 123.338 283.368 130.014C283.368 136.69 277.36 148.706 277.36 150.709C277.36 152.712 276.025 154.047 276.025 156.05C276.025 158.053 276.693 158.72 276.025 160.723C275.357 162.726 273.355 164.728 274.022 167.399C274.69 170.069 275.357 171.404 274.022 173.407C272.687 175.41 272.687 182.086 272.687 184.756C272.687 187.426 274.022 200.778 274.022 204.116C274.022 207.454 272.687 207.454 272.019 210.124C271.352 212.795 269.349 212.795 269.349 216.8C269.349 220.806 270.684 219.47 270.017 222.141C269.349 224.811 266.679 225.479 266.679 228.149C266.679 230.819 266.011 230.152 263.341 234.157C260.67 238.163 262.673 237.495 262.006 239.498Z" fill="#F4B9B9" stroke="#440F0F" stroke-width="3" stroke-linecap="round"/>
<path d="M285.371 180.75C283.769 205.318 288.264 279.108 290.712 312.932C291.602 311.375 293.382 307.058 293.382 302.251C293.382 296.243 290.712 223.476 290.712 201.446L290.712 140.695C289.599 143.811 286.973 156.183 285.371 180.75Z" fill="#C48484"/>
<path d="M274.69 208.789L278.028 275.548L279.363 290.902C280.03 270.207 281.366 225.212 281.366 210.792C281.366 196.372 279.14 191.877 278.028 191.432L276.025 202.781C276.025 202.781 276.693 204.116 276.025 206.119C275.357 208.122 274.69 208.789 274.69 208.789Z" fill="#C48484"/>
<path d="M297.388 236.828L297.388 320.276L307.401 305.589C306.289 294.24 304.063 270.207 304.063 264.866C304.063 258.19 300.058 209.457 298.723 199.443C297.655 191.432 300.058 178.748 301.393 173.407C300.726 174.52 298.99 177.947 297.388 182.753C295.385 188.762 297.388 225.479 297.388 236.828Z" fill="#C48484"/>
<path d="M297.388 320.276C297.388 296.243 297.388 245.907 297.388 236.828C297.388 225.479 295.385 188.762 297.388 182.753C298.99 177.947 300.726 174.52 301.393 173.407" stroke="#440F0F" stroke-width="3" stroke-linecap="round"/>
<path d="M290.044 310.93C286.706 286.897 286.706 235.226 286.706 226.146C286.706 214.797 284.036 176.077 285.371 162.726C285.875 157.684 289.377 143.811 290.044 142.698" stroke="#440F0F" stroke-width="3" stroke-linecap="round"/>
<path d="M279.363 276.215C281.366 245.506 285.267 217.562 279.363 192.767" stroke="#440F0F" stroke-width="3" stroke-linecap="round"/>
<path d="M276.693 320.276C276.693 332.559 279.808 340.971 281.366 343.641C281.366 344.754 280.431 346.312 276.693 343.641C272.02 340.303 266.679 317.606 266.011 294.908C265.477 276.749 260.893 253.517 258.668 244.171C262.896 245.061 272.42 250.713 276.693 266.201C282.033 285.561 276.693 304.921 276.693 320.276Z" fill="#A66969"/>
<path d="M303.396 258.19C302.862 263.531 305.399 290.68 306.734 303.586L306.734 323.616C307.402 322.058 315.279 296.109 317.415 279.553C320.086 258.858 312.742 226.814 312.742 238.163C312.742 249.512 304.064 251.515 303.396 258.19Z" fill="#A66969"/>
<path d="M276.693 320.276C276.693 332.559 279.808 340.971 281.366 343.641C281.366 344.754 280.431 346.312 276.693 343.641C272.02 340.303 266.679 317.606 266.011 294.908C265.477 276.749 260.893 253.517 258.668 244.171C262.896 245.061 272.42 250.713 276.693 266.201C282.033 285.561 276.693 304.921 276.693 320.276Z" stroke="#440F0F" stroke-width="3" stroke-linecap="round"/>
<path d="M303.396 258.19C302.862 263.531 305.399 290.68 306.734 303.586L306.734 323.616C307.402 322.058 315.279 296.109 317.415 279.553C320.086 258.858 312.742 226.814 312.742 238.163C312.742 249.512 304.064 251.515 303.396 258.19Z" stroke="#440F0F" stroke-width="3" stroke-linecap="round"/>
<path d="M281.366 343.641C279.808 340.971 276.692 332.56 276.693 320.276C276.693 304.921 282.033 285.561 276.693 266.201C272.42 250.713 262.896 245.061 258.668 244.171" stroke="#440F0F" stroke-width="3" stroke-linecap="round"/>
<path d="M305.804 336.116C305.804 329.716 310.5 311.116 303.5 301.116C296.5 291.116 296.135 280.616 288.402 280.616C280.669 280.616 284.972 283.116 280.669 291.116C272.883 305.588 277.494 329.192 280.669 345.363C282.587 356.573 284.304 371.728 284.304 372.863C284.304 374.363 285.304 383.863 285.304 385.863C285.304 387.863 284.804 392.363 284.804 394.863C284.804 397.363 288.304 406.863 288.804 408.363C289.304 409.863 293.804 415.363 294.804 417.863C295.804 420.363 297.804 422.863 298.304 425.363C298.804 427.863 300.304 431.363 302.804 429.363C304.804 427.763 305.637 425.363 305.804 424.363L307.304 425.363C309.304 426.363 311.804 426.863 313.304 425.863C314.804 424.863 316.304 423.363 315.304 421.363L312.304 416.363C312.804 416.363 314.304 415.363 314.804 413.863C315.304 412.363 315.804 408.863 316.804 406.863C317.804 404.863 319.304 402.363 319.804 401.363C320.304 400.363 321.304 400.363 321.804 397.363C322.304 394.363 321.804 394.363 320.804 391.863C319.804 389.363 318.304 387.363 316.804 385.363C315.304 383.363 309.804 380.363 308.304 377.363C306.804 374.363 305.804 366.363 305.804 362.363L305.804 336.116Z" fill="#C39393" stroke="#440F0F" stroke-width="3" stroke-linecap="round"/>
</g>
<path d="M70 91C63.9249 91 59 98.9249 59 105C59 98.9249 54.0751 91 48 91C41.9249 91 37 95.9249 37 102C37 111.823 53.1493 125.129 59 132.5C64.8507 125.129 81 111.823 81 102C81 95.9249 76.0751 91 70 91Z" fill="#FD7072" stroke="#FD7072" stroke-linecap="round" stroke-linejoin="round"/>
<path d="M310.401 529.397C310.401 525.351 311.285 521.738 313.054 518.558C314.804 515.377 317.307 512.827 320.563 510.908C323.819 509.007 327.62 507.906 331.968 507.605C331.384 507.492 330.5 507.163 329.314 506.617C327.545 505.845 325.945 505.243 324.515 504.81C323.085 504.358 321.655 504.133 320.224 504.133C319.49 504.133 318.898 504.151 318.446 504.189L321.043 497.414C321.156 497.377 321.56 497.358 322.257 497.358C323.687 497.358 325.061 497.602 326.378 498.092C327.677 498.562 329.352 499.287 331.403 500.265C333.059 501.112 334.461 501.752 335.609 502.185C336.738 502.599 337.839 502.806 338.912 502.806C341.151 502.806 343.268 501.959 345.263 500.265L347.973 504.471C346.204 506.598 343.814 507.849 340.803 508.226C344.285 509.11 347.286 510.55 349.808 512.545C352.33 514.559 354.278 517.005 355.652 519.884C357.007 522.783 357.684 525.954 357.684 529.397C357.684 533.707 356.687 537.518 354.692 540.83C352.678 544.142 349.883 546.702 346.308 548.508C342.732 550.334 338.63 551.247 334 551.247C329.333 551.247 325.211 550.306 321.636 548.424C318.041 546.561 315.275 543.973 313.336 540.661C311.379 537.349 310.401 533.594 310.401 529.397ZM334 515.227C331.61 515.227 329.53 515.848 327.761 517.09C325.974 518.351 324.609 520.044 323.668 522.171C322.727 524.316 322.257 526.725 322.257 529.397C322.257 532.051 322.737 534.441 323.696 536.568C324.656 538.713 326.039 540.388 327.846 541.592C329.634 542.816 331.704 543.427 334.056 543.427C336.447 543.427 338.517 542.797 340.267 541.536C342.017 540.294 343.372 538.609 344.332 536.483C345.273 534.375 345.743 532.032 345.743 529.454C345.743 526.782 345.244 524.354 344.247 522.171C343.231 520.007 341.838 518.304 340.069 517.061C338.3 515.838 336.277 515.227 334 515.227Z" fill="#732A2A"/>
<g clip-path="url(#clip2)">
<mask id="mask1" mask-type="alpha" maskUnits="userSpaceOnUse" x="78" y="289" width="229" height="235">
<rect x="307" y="524" width="229" height="235" transform="rotate(-180 307 524)" fill="#C4C4C4"/>
</mask>
<g mask="url(#mask1)">
<path d="M272.804 446.247C267.659 451.704 257.086 453.563 250.804 461.247C244.522 468.93 247.427 475.534 240.804 481.247C234.181 486.96 225.776 484.568 221.38 491.418C216.984 498.268 218.736 502.532 213.421 507.003C208.106 511.475 198.745 513.095 198.745 513.095L167.304 511.747C167.304 511.747 157.804 511.747 151.804 508.247C145.804 504.747 146.804 500.247 141.304 494.247C135.804 488.247 129.304 490.247 121.804 485.747C114.304 481.247 114.304 476.747 106.804 470.247C99.3039 463.747 90.3039 468.247 84.3039 463.747C78.3039 459.247 76.3039 455.747 76.3039 455.747L76.3039 373.247L173.804 309.747L295.804 343.247L295.804 416.507C292.037 418.003 288.434 419.689 284.804 423.747C276.304 433.247 277.949 440.79 272.804 446.247Z" fill="#732A2A"/>
<path d="M284.804 352.747C276.97 364.747 261.604 386.947 252.804 395.747L99.643 397.247C98.7575 394.617 97.5848 392.028 95.3037 389.747C88.8037 383.247 77.8037 378.247 77.8037 378.247V287.247L311.304 280.247L284.804 352.747Z" fill="#F4B9B9"/>
<path d="M176.804 399.247C204.304 399.247 215.804 401.747 232.804 408.247L253.804 394.747C226.804 381.247 199.502 377.365 176.804 377.365C149.309 377.365 123.061 383.671 99.3037 397.247C100.137 400.247 102.304 406.247 104.304 408.247C106.304 410.247 108.804 412.168 109.804 413.128C123.674 406.61 147.079 399.247 176.804 399.247Z" fill="#732A2A"/>
<path d="M213.304 458.747C213.304 463.547 211.804 472.247 211.804 476.247L211.304 477.747C211.304 477.459 210.304 477.556 206.304 480.247C204.457 481.489 201.828 485.305 199.206 489.747L184.115 488.747C183.53 487.837 182.925 486.992 182.304 486.247C177.304 480.247 173.304 483.02 166.304 476.883C159.625 471.028 160.229 461.202 154.653 454.667C154.468 453.79 154.243 451.989 154.804 449.747C155.804 445.747 155.304 438.747 157.804 433.747C159.137 429.747 161.804 421.647 161.804 421.247C158.304 420.58 150.204 419.247 145.804 419.247C140.304 419.247 124.304 418.247 120.804 417.247C117.304 416.247 112.804 412.747 110.804 412.747C108.804 412.747 148.804 397.247 180.304 399.247C211.804 401.247 225.137 405.913 231.804 408.247C226.137 410.247 213.704 414.547 209.304 415.747C204.904 416.947 201.804 417.247 200.804 417.247C200.804 417.247 201.804 420.747 202.304 421.747L204.304 425.747C208.304 428.247 209.304 438.747 211.804 443.247C213.804 446.847 213.637 455.08 213.304 458.747Z" fill="#C39393"/>
<path d="M77.8037 378.247C77.8037 378.247 88.8037 383.247 95.3037 389.747C101.804 396.247 99.3037 405.247 106.804 410.568C114.304 415.89 118.304 413.747 123.804 420.747C129.304 427.747 126.304 433.747 134.304 441.247C142.304 448.747 147.304 447.247 153.804 453.747C160.304 460.247 159.304 470.747 166.304 476.883C173.304 483.02 177.304 480.247 182.304 486.247C182.925 486.992 183.53 487.837 184.115 488.747M211.304 477.747C211.304 477.459 210.304 477.556 206.304 480.247C204.457 481.489 201.828 485.305 199.206 489.747" stroke="#440F0F" stroke-width="3" stroke-linecap="round"/>
<path d="M167.304 511.747C167.304 511.747 157.804 511.747 151.804 508.247C145.804 504.747 146.804 500.247 141.304 494.247C135.804 488.247 129.304 490.247 121.804 485.747C114.304 481.247 114.304 476.747 106.804 470.247C99.3037 463.747 90.3037 468.247 84.3037 463.747C78.3037 459.247 76.3037 455.747 76.3037 455.747" stroke="#440F0F" stroke-width="3" stroke-linecap="round"/>
<path d="M198.745 513.095C198.745 513.095 208.106 511.475 213.421 507.003C218.736 502.532 216.983 498.268 221.38 491.418C225.776 484.568 234.181 486.96 240.804 481.247C247.427 475.534 244.522 468.93 250.804 461.247C257.086 453.563 267.659 451.704 272.804 446.247C277.949 440.79 276.304 433.247 284.804 423.747C288.434 419.689 292.037 418.003 295.804 416.507" stroke="#440F0F" stroke-width="3" stroke-linecap="round"/>
<path d="M167.304 511.747C167.304 511.747 157.804 511.747 151.804 508.247C145.804 504.747 146.804 500.247 141.304 494.247C135.804 488.247 129.304 490.247 121.804 485.747C114.304 481.247 114.304 476.747 106.804 470.247C99.3037 463.747 90.3037 468.247 84.3037 463.747C78.3037 459.247 76.3037 455.747 76.3037 455.747" stroke="#440F0F" stroke-width="3" stroke-linecap="round"/>
<path d="M230.304 406.765C218.057 402.786 200.157 399.247 176.804 399.247C147.079 399.247 123.674 406.61 109.804 413.128" stroke="#440F0F" stroke-width="3" stroke-linecap="round"/>
<path d="M206.304 427.747C205.588 425.957 202.055 421.863 201.204 416.747M201.804 410.247C200.951 412.521 200.866 414.714 201.204 416.747M201.204 416.747C217.191 414.916 241.13 407.421 252.804 395.747C261.604 386.947 276.97 364.747 284.804 352.747" stroke="#440F0F" stroke-width="3" stroke-linecap="round"/>
<path d="M241.804 389.747C221 380.949 199.502 377.365 176.804 377.365C149.309 377.365 123.061 383.671 99.3037 397.247" stroke="#440F0F" stroke-width="3" stroke-linecap="round"/>
<path d="M211.804 476.247C211.804 472.247 213.304 463.547 213.304 458.747C213.637 455.08 213.804 446.847 211.804 443.247C209.304 438.747 207.804 427.747 203.804 425.247C199.804 422.747 192.804 416.747 183.804 421.247C174.804 425.747 160.304 428.747 157.804 433.747C155.304 438.747 155.804 445.747 154.804 449.747C154.004 452.947 154.804 455.247 154.804 455.247" stroke="#440F0F" stroke-width="3" stroke-linecap="round"/>
<path d="M204.304 498.747C206.304 498.08 210.504 495.647 211.304 491.247C212.304 485.747 213.304 476.247 220.304 474.247C227.304 472.247 234.304 462.747 234.804 455.747" stroke="#440F0F" stroke-width="3" stroke-linecap="round"/>
<path d="M243.804 364.247L258.804 314.247" stroke="#440F0F" stroke-width="3" stroke-linecap="round"/>
<path d="M159.304 431.247C160.304 427.247 162.304 418.247 162.304 414.247C162.304 410.247 160.304 408.58 159.304 408.247" stroke="#440F0F" stroke-width="3" stroke-linecap="round"/>
<path d="M161.304 420.747C157.137 420.08 147.404 418.747 141.804 418.747C136.204 418.747 125.137 418.08 120.304 417.747" stroke="#440F0F" stroke-width="3" stroke-linecap="round"/>
<path d="M121.804 450.247C119.804 449.413 115.504 446.747 114.304 442.747C112.804 437.747 110.304 432.747 106.304 431.747C102.304 430.747 94.8037 421.247 93.8037 416.747" stroke="#440F0F" stroke-width="3" stroke-linecap="round"/>
<path d="M240.304 440.247C242.304 439.58 246.504 437.147 247.304 432.747C248.304 427.247 249.304 417.747 256.304 415.747C263.304 413.747 270.304 404.247 270.804 397.247" stroke="#440F0F" stroke-width="3" stroke-linecap="round"/>
<path d="M203.5 494.5L208.5 495.5L211 489.708C211 489.708 206.356 485.357 192.814 484.298C176.474 483.02 175.923 484.197 160.5 488.5L161.5 493.5L169.5 492.5L175 501.5L180 494.5L186.5 507L193 495.5L197.5 502.5L203.5 494.5Z" fill="#F4B9B9"/>
<path d="M211 490.208C211 490.208 206.356 485.857 192.814 484.798C176.424 483.516 175.515 483.672 160 488" stroke="#440F0F" stroke-width="3" stroke-linecap="round"/>
<path d="M208.5 495L203.5 494L197.5 501.5L194 495L186 508L179.5 494L175 500L169.5 492H162" stroke="#440F0F" stroke-width="3" stroke-linecap="round" stroke-linejoin="round"/>
<path d="M167.804 497.747C165.804 496.913 161.504 494.247 160.304 490.247C158.804 485.247 156.304 480.247 152.304 479.247C148.304 478.247 140.804 468.747 139.804 464.247" stroke="#440F0F" stroke-width="3" stroke-linecap="round"/>
</g>
<path d="M263.006 239.781C262.471 241.383 260.113 242.674 259 243.119L270.349 280.504L271.017 321.226L281.698 343.924L311.072 303.869L313.742 238.446C313.965 237.11 314.276 231.77 313.742 221.088C313.075 207.737 305.731 187.709 305.064 183.036C304.396 178.363 302.393 177.695 301.726 171.687C301.058 165.679 301.058 166.346 299.055 163.008C297.053 159.67 297.053 157.668 297.053 154.33C297.053 150.992 294.382 151.659 293.047 149.657C291.712 147.654 291.712 143.648 291.712 142.313C291.712 140.978 292.379 136.973 291.044 134.97C289.709 132.967 289.709 132.299 289.709 128.961C289.709 125.624 289.042 125.624 288.374 124.288C287.706 122.953 288.374 122.286 287.706 120.95C287.039 119.615 285.704 120.283 285.704 122.953C285.704 125.624 284.368 123.621 284.368 130.297C284.368 136.973 278.36 148.989 278.36 150.992C278.36 152.995 277.025 154.33 277.025 156.333C277.025 158.335 277.693 159.003 277.025 161.006C276.357 163.008 274.355 165.011 275.022 167.681C275.69 170.352 276.357 171.687 275.022 173.69C273.687 175.693 273.687 182.368 273.687 185.039C273.687 187.709 275.022 201.061 275.022 204.399C275.022 207.737 273.687 207.737 273.019 210.407C272.352 213.077 270.349 213.077 270.349 217.083C270.349 221.088 271.684 219.753 271.017 222.424C270.349 225.094 267.679 225.761 267.679 228.432C267.679 231.102 267.011 230.435 264.341 234.44C261.67 238.446 263.673 237.778 263.006 239.781Z" fill="#884747" stroke="#440F0F" stroke-width="3" stroke-linecap="round"/>
<path d="M286.371 181.033C284.769 205.6 289.264 279.391 291.712 313.215C292.602 311.658 294.382 307.34 294.382 302.534C294.382 296.526 291.712 223.759 291.712 201.728V140.978C290.599 144.093 287.973 156.466 286.371 181.033Z" fill="#732A2A"/>
<path d="M275.69 209.072L279.028 275.83L280.363 291.185C281.03 270.49 282.365 225.494 282.365 211.075C282.365 196.655 280.14 192.16 279.028 191.715L277.025 203.064C277.025 203.064 277.692 204.399 277.025 206.402C276.357 208.404 275.69 209.072 275.69 209.072Z" fill="#732A2A"/>
<path d="M298.388 237.11V320.559L308.401 305.872C307.289 294.523 305.063 270.49 305.063 265.149C305.063 258.473 301.058 209.739 299.723 199.726C298.655 191.715 301.058 179.03 302.393 173.69C301.726 174.802 299.99 178.229 298.388 183.036C296.385 189.044 298.388 225.761 298.388 237.11Z" fill="#732A2A"/>
<path d="M298.388 320.559C298.388 296.526 298.388 246.19 298.388 237.11C298.388 225.761 296.385 189.044 298.388 183.036C299.99 178.229 301.725 174.802 302.393 173.69" stroke="#440F0F" stroke-width="3" stroke-linecap="round"/>
<path d="M291.044 311.213C287.706 287.179 287.706 235.508 287.706 226.429C287.706 215.08 285.036 176.36 286.371 163.008C286.875 157.967 290.377 144.093 291.044 142.981" stroke="#440F0F" stroke-width="3" stroke-linecap="round"/>
<path d="M277.693 320.559C277.693 332.842 280.808 341.254 282.366 343.924C282.366 345.037 281.431 346.594 277.693 343.924C273.02 340.586 267.679 317.888 267.011 295.19C266.477 277.032 261.893 253.8 259.668 244.454C263.896 245.344 273.42 250.996 277.693 266.484C283.033 285.844 277.693 305.204 277.693 320.559Z" fill="#732A2A"/>
<path d="M304.396 258.473C303.862 263.814 306.399 290.962 307.734 303.869V323.899C308.402 322.341 316.279 296.392 318.415 279.836C321.086 259.141 313.742 227.097 313.742 238.446C313.742 249.795 305.064 251.797 304.396 258.473Z" fill="#732A2A"/>
<path d="M277.693 320.559C277.693 332.842 280.808 341.254 282.366 343.924C282.366 345.037 281.431 346.594 277.693 343.924C273.02 340.586 267.679 317.888 267.011 295.19C266.477 277.032 261.893 253.8 259.668 244.454C263.896 245.344 273.42 250.996 277.693 266.484C283.033 285.844 277.693 305.204 277.693 320.559Z" stroke="#440F0F" stroke-width="3" stroke-linecap="round"/>
<path d="M304.396 258.473C303.862 263.814 306.399 290.962 307.734 303.869V323.899C308.402 322.341 316.279 296.392 318.415 279.836C321.086 259.141 313.742 227.097 313.742 238.446C313.742 249.795 305.064 251.797 304.396 258.473Z" stroke="#440F0F" stroke-width="3" stroke-linecap="round"/>
<path d="M282.365 343.924C280.808 341.254 277.692 332.842 277.692 320.559C277.692 305.204 283.033 285.844 277.692 266.484C273.42 250.996 263.896 245.344 259.668 244.454" stroke="#440F0F" stroke-width="3" stroke-linecap="round"/>
<path d="M262.006 239.781C261.471 241.383 259.113 242.674 258 243.119L269.349 280.504L270.017 321.226L280.698 343.924L310.072 303.869L312.742 238.446C312.965 237.11 313.276 231.77 312.742 221.088C312.075 207.737 304.731 187.709 304.064 183.036C303.396 178.363 301.393 177.695 300.726 171.687C300.058 165.679 300.058 166.346 298.055 163.008C296.053 159.67 296.053 157.668 296.053 154.33C296.053 150.992 293.382 151.659 292.047 149.657C290.712 147.654 290.712 143.648 290.712 142.313C290.712 140.978 291.379 136.973 290.044 134.97C288.709 132.967 288.709 132.299 288.709 128.961C288.709 125.624 288.042 125.624 287.374 124.288C286.706 122.953 287.374 122.286 286.706 120.95C286.039 119.615 284.704 120.283 284.704 122.953C284.704 125.624 283.368 123.621 283.368 130.297C283.368 136.973 277.36 148.989 277.36 150.992C277.36 152.995 276.025 154.33 276.025 156.333C276.025 158.335 276.693 159.003 276.025 161.006C275.357 163.008 273.355 165.011 274.022 167.681C274.69 170.352 275.357 171.687 274.022 173.69C272.687 175.693 272.687 182.368 272.687 185.039C272.687 187.709 274.022 201.061 274.022 204.399C274.022 207.737 272.687 207.737 272.019 210.407C271.352 213.077 269.349 213.077 269.349 217.083C269.349 221.088 270.684 219.753 270.017 222.424C269.349 225.094 266.679 225.761 266.679 228.432C266.679 231.102 266.011 230.435 263.341 234.44C260.67 238.446 262.673 237.778 262.006 239.781Z" fill="#F4B9B9" stroke="#440F0F" stroke-width="3" stroke-linecap="round"/>
<path d="M285.371 181.033C283.769 205.6 288.264 279.391 290.712 313.215C291.602 311.658 293.382 307.34 293.382 302.534C293.382 296.526 290.712 223.759 290.712 201.728V140.978C289.599 144.093 286.973 156.466 285.371 181.033Z" fill="#C48484"/>
<path d="M274.69 209.072L278.028 275.83L279.363 291.185C280.03 270.49 281.366 225.494 281.366 211.075C281.366 196.655 279.14 192.16 278.028 191.715L276.025 203.064C276.025 203.064 276.692 204.399 276.025 206.402C275.357 208.404 274.69 209.072 274.69 209.072Z" fill="#C48484"/>
<path d="M297.388 237.11V320.559L307.401 305.872C306.289 294.523 304.063 270.49 304.063 265.149C304.063 258.473 300.058 209.739 298.723 199.726C297.655 191.715 300.058 179.03 301.393 173.69C300.726 174.802 298.99 178.229 297.388 183.036C295.385 189.044 297.388 225.761 297.388 237.11Z" fill="#C48484"/>
<path d="M297.388 320.559C297.388 296.526 297.388 246.19 297.388 237.11C297.388 225.761 295.385 189.044 297.388 183.036C298.99 178.229 300.726 174.802 301.393 173.69" stroke="#440F0F" stroke-width="3" stroke-linecap="round"/>
<path d="M290.044 311.213C286.706 287.179 286.706 235.508 286.706 226.429C286.706 215.08 284.036 176.36 285.371 163.008C285.875 157.967 289.377 144.093 290.044 142.981" stroke="#440F0F" stroke-width="3" stroke-linecap="round"/>
<path d="M276.693 320.559C276.693 332.842 279.808 341.254 281.366 343.924C281.366 345.037 280.431 346.594 276.693 343.924C272.02 340.586 266.679 317.888 266.011 295.19C265.477 277.032 260.893 253.8 258.668 244.454C262.896 245.344 272.42 250.996 276.693 266.484C282.033 285.844 276.693 305.204 276.693 320.559Z" fill="#A66969"/>
<path d="M303.396 258.473C302.862 263.814 305.399 290.962 306.734 303.869V323.899C307.402 322.341 315.279 296.392 317.415 279.836C320.086 259.141 312.742 227.097 312.742 238.446C312.742 249.795 304.064 251.797 303.396 258.473Z" fill="#A66969"/>
<path d="M276.693 320.559C276.693 332.842 279.808 341.254 281.366 343.924C281.366 345.037 280.431 346.594 276.693 343.924C272.02 340.586 266.679 317.888 266.011 295.19C265.477 277.032 260.893 253.8 258.668 244.454C262.896 245.344 272.42 250.996 276.693 266.484C282.033 285.844 276.693 305.204 276.693 320.559Z" stroke="#440F0F" stroke-width="3" stroke-linecap="round"/>
<path d="M303.396 258.473C302.862 263.814 305.399 290.962 306.734 303.869V323.899C307.402 322.341 315.279 296.392 317.415 279.836C320.086 259.141 312.742 227.097 312.742 238.446C312.742 249.795 304.064 251.797 303.396 258.473Z" stroke="#440F0F" stroke-width="3" stroke-linecap="round"/>
<path d="M281.366 343.924C279.808 341.254 276.692 332.842 276.692 320.559C276.692 305.204 282.033 285.844 276.692 266.484C272.42 250.996 262.896 245.344 258.668 244.454" stroke="#440F0F" stroke-width="3" stroke-linecap="round"/>
<path d="M305.804 336.399C305.804 329.999 310.5 311.399 303.5 301.399C296.5 291.399 296.135 280.899 288.402 280.899C280.669 280.899 284.972 283.399 280.669 291.399C272.883 305.871 277.494 329.475 280.669 345.645C282.587 356.855 284.304 372.011 284.304 373.145C284.304 374.645 285.304 384.145 285.304 386.145C285.304 388.145 284.804 392.645 284.804 395.145C284.804 397.645 288.304 407.145 288.804 408.645C289.304 410.145 293.804 415.645 294.804 418.145C295.804 420.645 297.804 423.145 298.304 425.645C298.804 428.145 300.304 431.645 302.804 429.645C304.804 428.045 305.637 425.645 305.804 424.645L307.304 425.645C309.304 426.645 311.804 427.145 313.304 426.145C314.804 425.145 316.304 423.645 315.304 421.645L312.304 416.645C312.804 416.645 314.304 415.645 314.804 414.145C315.304 412.645 315.804 409.145 316.804 407.145C317.804 405.145 319.304 402.645 319.804 401.645C320.304 400.645 321.304 400.645 321.804 397.645C322.304 394.645 321.804 394.645 320.804 392.145C319.804 389.645 318.304 387.645 316.804 385.645C315.304 383.645 309.804 380.645 308.304 377.645C306.804 374.645 305.804 366.645 305.804 362.645V336.399Z" fill="#C39393" stroke="#440F0F" stroke-width="3" stroke-linecap="round"/>
<path d="M315.304 393.645C313.304 392.812 309.104 391.045 308.304 390.645C307.304 390.145 304.804 387.645 303.804 388.645C302.804 389.645 301.804 391.645 302.304 392.645C302.804 393.645 305.304 396.145 306.804 397.145C308.304 398.145 312.804 400.145 313.304 400.645C313.804 401.145 315.804 400.145 316.304 397.645M301.804 392.145C300.804 391.312 298.604 389.645 297.804 389.645C296.804 389.645 294.804 392.145 294.804 393.645C294.804 394.637 296.333 396.066 297.804 397.354M315.304 407.145C314.97 407.312 314.004 407.745 312.804 408.145C311.304 408.645 309.804 407.645 309.304 407.145C308.804 406.645 301.304 400.645 299.804 399.145C299.295 398.637 298.557 398.014 297.804 397.354M297.804 397.354C296.804 397.451 294.604 397.945 293.804 399.145C292.804 400.645 292.304 402.145 293.804 403.645C295.304 405.145 299.804 409.145 300.804 410.145C301.478 410.82 304.201 413.088 306.209 414.645M312.804 417.145C313.304 417.979 314.504 420.045 315.304 421.645C316.304 423.645 314.804 425.145 313.304 426.145C311.804 427.145 309.304 426.645 307.304 425.645C305.304 424.645 302.804 421.145 301.304 420.145C299.804 419.145 297.304 416.145 299.804 414.145C301.804 412.545 304.907 413.812 306.209 414.645M306.209 414.645C307.177 415.396 307.978 415.983 308.304 416.145C308.97 416.979 310.504 418.645 311.304 418.645" stroke="#440F0F" stroke-width="3" stroke-linecap="round"/>
<path d="M296.5 350.399C297.386 354.164 299.794 359.834 301 365.399C302.516 372.395 303.777 384.725 304 387.399M305 425.399C305 427.065 305 431.899 304 438.399" stroke="#440F0F" stroke-width="3" stroke-linecap="round"/>
<path d="M307.297 446.826C309.495 453.569 312.054 467.035 306.168 465.845C304.782 467.649 300.779 470.358 296.5 469.899C291.01 469.309 289.401 466.686 289.354 465.313C287.021 466.074 282.789 464.97 279.209 459.93C277.136 457.011 277.156 454.494 277.675 452.899L277.675 449.645C280.334 441.317 295.962 438.916 303.444 438.756C303.995 439.198 305.537 441.431 307.297 446.826Z" fill="#F4B9B9"/>
<path d="M306.168 465.845C301.46 464.894 297.721 454.3 296.44 449.122C289.077 452.767 275.015 457.973 277.675 449.645C280.335 441.317 295.962 438.916 303.444 438.756C303.995 439.198 305.538 441.431 307.297 446.826C309.496 453.569 312.054 467.035 306.168 465.845Z" stroke="#440F0F" stroke-width="3" stroke-linecap="round"/>
<path d="M283.269 454.28C283.265 455.517 283.952 458.627 286.742 461.175C290.228 464.361 292.987 465.313 294.276 465.511C295.564 465.708 299.801 465.562 302.385 464.102" stroke="#440F0F" stroke-width="3" stroke-linecap="round"/>
<path d="M289.959 466.373C287.625 467.134 283.393 466.031 279.814 460.991C277.741 458.072 277.76 455.555 278.279 453.959" stroke="#440F0F" stroke-width="3" stroke-linecap="round"/>
<path d="M289.167 463.902C289.214 465.275 290.472 469.055 295.962 469.644C300.242 470.104 302.994 468.049 304.38 466.245" stroke="#440F0F" stroke-width="3" stroke-linecap="round"/>
<path d="M291.609 457.911C291.809 459.192 292.524 461.918 293.785 462.583C295.363 463.414 297.129 460.82 297.125 458.804C297.121 457.19 297.453 456.24 297.125 455.899" stroke="#440F0F" stroke-width="3" stroke-linecap="round"/>
<path d="M288.645 454.15C287.839 455.049 286.817 457.035 289.174 457.793C291.132 458.424 294.442 457.236 296.572 456.225" stroke="#440F0F" stroke-width="3" stroke-linecap="round"/>
<path d="M305.804 424.645C305.637 425.645 304.804 428.045 302.804 429.645C300.304 431.645 298.804 428.145 298.304 425.645C297.804 423.145 295.804 420.645 294.804 418.145C293.804 415.645 289.304 410.145 288.804 408.645C288.304 407.145 284.804 397.645 284.804 395.145C284.804 392.645 285.304 388.145 285.304 386.145C285.304 384.145 284.304 374.645 284.304 373.145C284.304 372.011 282.587 356.855 280.668 345.645" stroke="#440F0F" stroke-width="3" stroke-linecap="round"/>
<path d="M128.994 340.502C129.529 338.9 131.887 337.609 133 337.164L121.651 299.779L120.983 259.056L110.302 236.359L80.9282 276.414L78.2578 341.837C78.0352 343.172 77.7237 348.513 78.2578 359.194C78.9254 372.546 86.2688 392.574 86.9364 397.247C87.604 401.92 89.6067 402.587 90.2743 408.596C90.9419 414.604 90.9419 413.936 92.9447 417.274C94.9474 420.612 94.9474 422.615 94.9474 425.953C94.9474 429.291 97.6178 428.623 98.9529 430.626C100.288 432.629 100.288 436.634 100.288 437.97C100.288 439.305 99.6205 443.31 100.956 445.313C102.291 447.316 102.291 447.983 102.291 451.321C102.291 454.659 102.958 454.659 103.626 455.994C104.294 457.33 103.626 457.997 104.294 459.332C104.961 460.667 106.296 460 106.296 457.33C106.296 454.659 107.632 456.662 107.632 449.986C107.632 443.31 113.64 431.294 113.64 429.291C113.64 427.288 114.975 425.953 114.975 423.95C114.975 421.947 114.307 421.28 114.975 419.277C115.643 417.274 117.645 415.272 116.978 412.601C116.31 409.931 115.643 408.596 116.978 406.593C118.313 404.59 118.313 397.914 118.313 395.244C118.313 392.574 116.978 379.222 116.978 375.884C116.978 372.546 118.313 372.546 118.981 369.876C119.648 367.205 121.651 367.205 121.651 363.2C121.651 359.194 120.316 360.53 120.983 357.859C121.651 355.189 124.321 354.521 124.321 351.851C124.321 349.181 124.989 349.848 127.659 345.843C130.33 341.837 128.327 342.505 128.994 340.502Z" fill="#884747" stroke="#440F0F" stroke-width="3" stroke-linecap="round"/>
<path d="M105.629 399.25C107.231 374.682 102.736 300.892 100.288 267.068C99.3981 268.625 97.6179 272.942 97.6179 277.749C97.6179 283.757 100.288 356.524 100.288 378.554L100.288 439.305C101.401 436.189 104.027 423.817 105.629 399.25Z" fill="#732A2A"/>
<path d="M116.31 371.211L112.972 304.452L111.637 289.098C110.97 309.793 109.635 354.788 109.635 369.208C109.635 383.628 111.86 388.123 112.972 388.568L114.975 377.219C114.975 377.219 114.308 375.884 114.975 373.881C115.643 371.878 116.31 371.211 116.31 371.211Z" fill="#732A2A"/>
<path d="M93.6124 343.172L93.6124 259.724L83.5986 274.411C84.7113 285.76 86.9366 309.793 86.9366 315.134C86.9366 321.81 90.9421 370.543 92.2772 380.557C93.3454 388.568 90.9421 401.252 89.6069 406.593C90.2745 405.48 92.0102 402.053 93.6124 397.247C95.6152 391.238 93.6124 354.521 93.6124 343.172Z" fill="#732A2A"/>
<path d="M93.6125 259.724C93.6124 283.757 93.6124 334.093 93.6124 343.172C93.6124 354.521 95.6152 391.238 93.6124 397.247C92.0102 402.053 90.2745 405.48 89.6069 406.593" stroke="#440F0F" stroke-width="3" stroke-linecap="round"/>
<path d="M100.956 269.07C104.294 293.103 104.294 344.774 104.294 353.854C104.294 365.203 106.964 403.923 105.629 417.274C105.125 422.316 101.623 436.189 100.956 437.302" stroke="#440F0F" stroke-width="3" stroke-linecap="round"/>
<path d="M111.637 303.785C109.635 334.494 105.733 362.438 111.637 387.233" stroke="#440F0F" stroke-width="3" stroke-linecap="round"/>
<path d="M114.307 259.724C114.307 247.441 111.192 239.029 109.634 236.359C109.634 235.246 110.569 233.688 114.307 236.359C118.98 239.697 124.321 262.394 124.989 285.092C125.523 303.251 130.107 326.483 132.332 335.829C128.104 334.939 118.58 329.287 114.307 313.799C108.967 294.439 114.307 275.079 114.307 259.724Z" fill="#732A2A"/>
<path d="M87.6039 321.81C88.138 316.469 85.6012 289.32 84.266 276.414L84.266 256.384C83.5984 257.942 75.7209 283.891 73.5846 300.447C70.9143 321.142 78.2577 353.186 78.2577 341.837C78.2577 330.488 86.9363 328.485 87.6039 321.81Z" fill="#732A2A"/>
<path d="M114.307 259.724C114.307 247.441 111.192 239.029 109.634 236.359C109.634 235.246 110.569 233.688 114.307 236.359C118.98 239.697 124.321 262.394 124.989 285.092C125.523 303.251 130.107 326.483 132.332 335.829C128.104 334.939 118.58 329.287 114.307 313.799C108.967 294.439 114.307 275.079 114.307 259.724Z" stroke="#440F0F" stroke-width="3" stroke-linecap="round"/>
<path d="M87.6039 321.81C88.138 316.469 85.6012 289.32 84.266 276.414L84.266 256.384C83.5984 257.942 75.7209 283.891 73.5846 300.447C70.9143 321.142 78.2577 353.186 78.2577 341.837C78.2577 330.488 86.9363 328.485 87.6039 321.81Z" stroke="#440F0F" stroke-width="3" stroke-linecap="round"/>
<path d="M109.635 236.359C111.192 239.029 114.308 247.44 114.308 259.724C114.308 275.079 108.967 294.439 114.308 313.799C118.58 329.287 128.104 334.939 132.332 335.829" stroke="#440F0F" stroke-width="3" stroke-linecap="round"/>
<path d="M129.994 340.502C130.529 338.9 132.887 337.609 134 337.164L122.651 299.779L121.983 259.056L111.302 236.359L81.9282 276.414L79.2578 341.837C79.0352 343.172 78.7237 348.513 79.2578 359.194C79.9254 372.546 87.2688 392.574 87.9364 397.247C88.604 401.92 90.6067 402.587 91.2743 408.596C91.9419 414.604 91.9419 413.936 93.9447 417.274C95.9474 420.612 95.9474 422.615 95.9474 425.953C95.9474 429.291 98.6178 428.623 99.9529 430.626C101.288 432.629 101.288 436.634 101.288 437.97C101.288 439.305 100.621 443.31 101.956 445.313C103.291 447.316 103.291 447.983 103.291 451.321C103.291 454.659 103.958 454.659 104.626 455.994C105.294 457.33 104.626 457.997 105.294 459.332C105.961 460.667 107.296 460 107.296 457.33C107.296 454.659 108.632 456.662 108.632 449.986C108.632 443.31 114.64 431.294 114.64 429.291C114.64 427.288 115.975 425.953 115.975 423.95C115.975 421.947 115.307 421.28 115.975 419.277C116.643 417.274 118.645 415.272 117.978 412.601C117.31 409.931 116.643 408.596 117.978 406.593C119.313 404.59 119.313 397.914 119.313 395.244C119.313 392.574 117.978 379.222 117.978 375.884C117.978 372.546 119.313 372.546 119.981 369.876C120.648 367.205 122.651 367.205 122.651 363.2C122.651 359.194 121.316 360.53 121.983 357.859C122.651 355.189 125.321 354.521 125.321 351.851C125.321 349.181 125.989 349.848 128.659 345.843C131.33 341.837 129.327 342.505 129.994 340.502Z" fill="#F4B9B9" stroke="#440F0F" stroke-width="3" stroke-linecap="round"/>
<path d="M106.629 399.25C108.231 374.682 103.736 300.892 101.288 267.068C100.398 268.625 98.6179 272.942 98.6179 277.749C98.6179 283.757 101.288 356.524 101.288 378.554L101.288 439.305C102.401 436.189 105.027 423.817 106.629 399.25Z" fill="#C48484"/>
<path d="M117.31 371.211L113.972 304.452L112.637 289.098C111.97 309.793 110.634 354.788 110.634 369.208C110.634 383.628 112.86 388.123 113.972 388.568L115.975 377.219C115.975 377.219 115.307 375.884 115.975 373.881C116.643 371.878 117.31 371.211 117.31 371.211Z" fill="#C48484"/>
<path d="M94.6124 343.172L94.6124 259.724L84.5986 274.411C85.7113 285.76 87.9366 309.793 87.9366 315.134C87.9366 321.81 91.9421 370.543 93.2772 380.557C94.3454 388.568 91.9421 401.252 90.6069 406.593C91.2745 405.48 93.0102 402.053 94.6124 397.247C96.6152 391.238 94.6124 354.521 94.6124 343.172Z" fill="#C48484"/>
<path d="M94.6123 259.724C94.6123 283.757 94.6123 334.093 94.6123 343.172C94.6123 354.521 96.6151 391.238 94.6123 397.247C93.0101 402.053 91.2744 405.48 90.6068 406.593" stroke="#440F0F" stroke-width="3" stroke-linecap="round"/>
<path d="M101.956 269.07C105.294 293.103 105.294 344.774 105.294 353.854C105.294 365.203 107.964 403.923 106.629 417.274C106.125 422.316 102.623 436.189 101.956 437.302" stroke="#440F0F" stroke-width="3" stroke-linecap="round"/>
<path d="M112.637 303.785C110.634 334.494 106.733 362.438 112.637 387.233" stroke="#440F0F" stroke-width="3" stroke-linecap="round"/>
<path d="M115.307 259.724C115.307 247.441 112.192 239.029 110.634 236.359C110.634 235.246 111.569 233.688 115.307 236.359C119.98 239.697 125.321 262.394 125.989 285.092C126.523 303.251 131.107 326.483 133.332 335.829C129.104 334.939 119.58 329.287 115.307 313.799C109.967 294.439 115.307 275.079 115.307 259.724Z" fill="#A66969"/>
<path d="M88.6039 321.81C89.138 316.469 86.6012 289.32 85.266 276.414L85.266 256.384C84.5984 257.942 76.7209 283.891 74.5846 300.447C71.9143 321.142 79.2577 353.186 79.2577 341.837C79.2577 330.488 87.9363 328.485 88.6039 321.81Z" fill="#A66969"/>
<path d="M115.307 259.724C115.307 247.441 112.192 239.029 110.634 236.359C110.634 235.246 111.569 233.688 115.307 236.359C119.98 239.697 125.321 262.394 125.989 285.092C126.523 303.251 131.107 326.483 133.332 335.829C129.104 334.939 119.58 329.287 115.307 313.799C109.967 294.439 115.307 275.079 115.307 259.724Z" stroke="#440F0F" stroke-width="3" stroke-linecap="round"/>
<path d="M88.6039 321.81C89.138 316.469 86.6012 289.32 85.266 276.414L85.266 256.384C84.5984 257.942 76.7209 283.891 74.5846 300.447C71.9143 321.142 79.2577 353.186 79.2577 341.837C79.2577 330.488 87.9363 328.485 88.6039 321.81Z" stroke="#440F0F" stroke-width="3" stroke-linecap="round"/>
<path d="M110.634 236.359C112.192 239.029 115.308 247.44 115.307 259.724C115.307 275.079 109.967 294.439 115.307 313.799C119.58 329.287 129.104 334.939 133.332 335.829" stroke="#440F0F" stroke-width="3" stroke-linecap="round"/>
<path d="M86.1961 243.884C86.1961 250.284 81.5 268.884 88.5 278.884C95.5 288.884 95.8648 299.384 103.598 299.384C111.331 299.384 107.028 296.884 111.331 288.884C119.117 274.412 114.506 250.808 111.331 234.637C109.413 223.427 107.696 208.272 107.696 207.137C107.696 205.637 106.696 196.137 106.696 194.137C106.696 192.137 107.196 187.637 107.196 185.137C107.196 182.637 103.696 173.137 103.196 171.637C102.696 170.137 98.1962 164.637 97.1962 162.137C96.1962 159.637 94.1962 157.137 93.6962 154.637C93.1962 152.137 91.6962 148.637 89.1962 150.637C87.1962 152.237 86.3628 154.637 86.1962 155.637L84.6962 154.637C82.6962 153.637 80.1962 153.137 78.6962 154.137C77.1962 155.137 75.6962 156.637 76.6962 158.637L79.6962 163.637C79.1962 163.637 77.6962 164.637 77.1962 166.137C76.6962 167.637 76.1962 171.137 75.1962 173.137C74.1961 175.137 72.6962 177.637 72.1962 178.637C71.6962 179.637 70.6961 179.637 70.1961 182.637C69.6961 185.637 70.1961 185.637 71.1961 188.137C72.1961 190.637 73.6961 192.637 75.1961 194.637C76.6961 196.637 82.1961 199.637 83.6961 202.637C85.1961 205.637 86.1961 213.637 86.1961 217.637L86.1961 243.884Z" fill="#C39393" stroke="#440F0F" stroke-width="3" stroke-linecap="round"/>
</g>
<path d="M322 489C328.075 489 333 481.075 333 475C333 481.075 337.925 489 344 489C350.075 489 355 484.075 355 478C355 468.177 338.851 454.871 333 447.5C327.149 454.871 311 468.177 311 478C311 484.075 315.925 489 322 489Z" fill="#FD7072" stroke="#FD7072" stroke-linecap="round" stroke-linejoin="round"/>
</g>
<path d="M28.3239 6H362.676V4H28.3239V6ZM379 22.3239V557.676H381V22.3239H379ZM362.676 574H28.3239V576H362.676V574ZM12 557.676V22.324H10V557.676H12ZM28.3239 574C19.3085 574 12 566.692 12 557.676H10C10 567.796 18.2039 576 28.3239 576V574ZM379 557.676C379 566.691 371.692 574 362.676 574V576C372.796 576 381 567.796 381 557.676H379ZM362.676 6C371.692 6 379 13.3085 379 22.3239H381C381 12.2039 372.796 4 362.676 4V6ZM28.3239 4C18.2039 4 10 12.2039 10 22.324H12C12 13.3085 19.3085 6 28.3239 6V4Z" fill="#F7E2E2"/>
</g>
<defs>
<filter id="filter0_d" x="0" y="0" width="391" height="592" filterUnits="userSpaceOnUse" color-interpolation-filters="sRGB">
<feFlood flood-opacity="0" result="BackgroundImageFix"/>
<feColorMatrix in="SourceAlpha" type="matrix" values="0 0 0 0 0 0 0 0 0 0 0 0 0 0 0 0 0 0 127 0"/>
<feMorphology radius="3" operator="dilate" in="SourceAlpha" result="effect1_dropShadow"/>
<feOffset dy="6"/>
<feGaussianBlur stdDeviation="4"/>
<feColorMatrix type="matrix" values="0 0 0 0 0.279463 0 0 0 0 0.0711028 0 0 0 0 0.0740583 0 0 0 0.05 0"/>
<feBlend mode="normal" in2="BackgroundImageFix" result="effect1_dropShadow"/>
<feBlend mode="normal" in="SourceGraphic" in2="effect1_dropShadow" result="shape"/>
</filter>
<clipPath id="clip0">
<path d="M11 22.324C11 12.7562 18.7562 5 28.3239 5H362.676C372.244 5 380 12.7562 380 22.3239V557.676C380 567.244 372.244 575 362.676 575H28.3239C18.7562 575 11 567.244 11 557.676V22.324Z" fill="white"/>
</clipPath>
<clipPath id="clip1">
<rect width="270" height="242" fill="white" transform="translate(67 48)"/>
</clipPath>
<clipPath id="clip2">
<rect width="270" height="242" fill="white" transform="translate(325 532) rotate(-180)"/>
</clipPath>
</defs>
</svg>
