<svg width="391" height="592" viewBox="0 0 391 592" fill="none" xmlns="http://www.w3.org/2000/svg">
<g filter="url(#filter0_d)">
<g clip-path="url(#clip0)">
<path d="M11 22.324C11 12.7562 18.7562 5 28.3239 5H362.676C372.244 5 380 12.7562 380 22.3239V557.676C380 567.244 372.244 575 362.676 575H28.3239C18.7562 575 11 567.244 11 557.676V22.324Z" fill="white"/>
<path d="M81.5993 50.6025C81.5993 54.6487 80.7148 58.262 78.9458 61.4424C77.1956 64.6229 74.6927 67.1729 71.4369 69.0924C68.1812 70.9932 64.3797 72.0941 60.0325 72.3952C60.6159 72.5081 61.5004 72.8375 62.686 73.3832C64.455 74.1548 66.0546 74.757 67.4849 75.1899C68.9152 75.6415 70.3454 75.8674 71.7757 75.8674C72.5096 75.8674 73.1024 75.8485 73.5541 75.8109L70.957 82.5858C70.8441 82.6235 70.4395 82.6423 69.7432 82.6423C68.3129 82.6423 66.9391 82.3976 65.6218 81.9083C64.3233 81.4378 62.6484 80.7133 60.5971 79.7347C58.941 78.8878 57.5389 78.248 56.391 77.8151C55.2618 77.4011 54.1609 77.1941 53.0882 77.1941C50.8487 77.1941 48.7315 78.041 46.7367 79.7347L44.0267 75.5286C45.7957 73.402 48.1858 72.1506 51.1968 71.7742C47.7153 70.8897 44.7136 69.45 42.1918 67.4552C39.6701 65.4415 37.7223 62.995 36.3485 60.1156C34.9935 57.2175 34.316 54.0464 34.316 50.6025C34.316 46.2929 35.3134 42.482 37.3082 39.1698C39.3219 35.8576 42.1166 33.2982 45.6922 31.4916C49.2679 29.6661 53.3705 28.7534 58 28.7534C62.6672 28.7534 66.7886 29.6943 70.3642 31.5763C73.9587 33.4394 76.7251 36.027 78.6635 39.3392C80.6207 42.6514 81.5993 46.4058 81.5993 50.6025ZM58 64.7734C60.39 64.7734 62.4696 64.1524 64.2386 62.9103C66.0264 61.6494 67.3908 59.9557 68.3318 57.8291C69.2727 55.6837 69.7432 53.2749 69.7432 50.6025C69.7432 47.949 69.2633 45.559 68.3035 43.4324C67.3438 41.287 65.9605 39.6121 64.1539 38.4077C62.3661 37.1844 60.2959 36.5728 57.9435 36.5728C55.5535 36.5728 53.4834 37.2032 51.7332 38.4641C49.983 39.7062 48.628 41.3905 47.6682 43.5171C46.7273 45.6248 46.2568 47.9678 46.2568 50.5461C46.2568 53.2184 46.7555 55.6461 47.7529 57.8291C48.7692 59.9933 50.1618 61.6965 51.9308 62.9385C53.6998 64.1618 55.7229 64.7734 58 64.7734Z" fill="#1A1616"/>
<mask id="mask0" mask-type="alpha" maskUnits="userSpaceOnUse" x="85" y="58" width="229" height="235">
<rect x="85" y="58.9548" width="229" height="234.033" fill="#C4C4C4"/>
</mask>
<g mask="url(#mask0)">
<path d="M107.196 229.503C115.03 217.553 130.396 195.444 139.196 186.68L292.357 185.187C293.242 187.806 294.415 190.384 296.696 192.656C303.196 199.129 296.696 210.827 296.696 210.827L314.196 294.734L80.6963 301.705L107.196 229.503Z" fill="#BDB9B9"/>
<path d="M215.196 183.195C187.696 183.195 176.196 180.705 159.196 174.232L138.196 187.676C165.196 201.121 192.498 204.986 215.196 204.986C242.691 204.986 268.939 198.706 292.696 185.187C291.863 182.199 289.696 176.224 287.696 174.232C285.696 172.24 283.196 170.327 282.196 169.37C268.326 175.862 244.921 183.195 215.196 183.195Z" fill="#453B3B"/>
<path d="M161.696 175.708C173.943 179.67 191.843 183.195 215.196 183.195C244.921 183.195 268.326 175.862 282.196 169.37" stroke="#1A1616" stroke-width="3" stroke-linecap="round"/>
<path d="M107.196 229.503C115.03 217.553 130.396 195.444 139.196 186.68C144.955 180.945 153.699 176.223 163 172.691" stroke="#1A1616" stroke-width="3" stroke-linecap="round"/>
<path d="M150.196 192.656C171 201.417 192.498 204.986 215.196 204.986C242.691 204.986 268.939 198.706 292.696 185.187" stroke="#1A1616" stroke-width="3" stroke-linecap="round"/>
<path d="M237.196 132.903C236.196 136.886 237 140.617 234.5 145.597C232 150.576 225.804 158.291 205 161.033C204.439 161.107 201 162.029 197 160.037" stroke="#1A1616" stroke-width="3" stroke-linecap="round"/>
<path d="M148.196 218.051L133.196 267.845" stroke="#1A1616" stroke-width="3" stroke-linecap="round"/>
</g>
<path d="M73.7391 290.614C76.487 274.245 92.058 251.966 99.5 242.872C100.539 241.583 111.522 246.283 116.674 253.103C120.796 258.559 133.275 292.887 139 309.37C135.565 312.78 128.352 321.305 126.978 328.125C125.261 336.65 118.391 384.392 102.935 379.277C87.4783 374.162 91.4348 342.569 88 339.159C77 328.238 81.7804 311.239 68 314.659C71.4348 311.817 70.9913 306.982 73.7391 290.614Z" fill="#8A8585" stroke="#1A1616" stroke-width="3" stroke-linecap="round" stroke-linejoin="round"/>
<path d="M92.5 331.159C94.1 323.159 93.1667 311.159 92.5 306.159L106 252.159L99.5 242.872C92.064 251.938 76.5014 274.178 73.7391 290.614C70.9913 306.982 71.4348 311.817 68 314.659C81.7804 311.239 77 330.238 88 341.159C88.8333 341.159 90.9 339.159 92.5 331.159Z" fill="#524F4F" stroke="#1A1616" stroke-width="3" stroke-linecap="round" stroke-linejoin="round"/>
<path d="M117 333.659C116.2 327.659 115.333 303.159 115 291.659C115.225 290.826 115.674 287.759 115.674 282.159C115.674 275.159 109 247.659 111 247.659C112.6 247.659 114.782 250.622 115.674 252.103C119.796 257.559 132.275 291.887 138 308.37C134.565 311.78 127.352 320.305 125.978 327.125L122 347.659C119 344.159 118 341.159 117 333.659Z" fill="#524F4F" stroke="#1A1616" stroke-width="3" stroke-linecap="round" stroke-linejoin="round"/>
<path d="M86.1962 248.602C86.1962 255.002 81.5 273.602 88.5 283.602C95.5 293.602 95.8648 304.102 103.598 304.102C111.331 304.102 107.028 301.602 111.331 293.602C119.117 279.129 114.506 255.525 111.331 239.355C109.413 228.145 107.696 212.99 107.696 211.855C107.696 210.355 106.696 200.855 106.696 198.855C106.696 196.855 107.196 192.355 107.196 189.855C107.196 187.355 103.696 177.855 103.196 176.355C102.696 174.855 98.1962 169.355 97.1962 166.855C96.1962 164.355 95 165.355 93 163.355C90.1712 160.526 86.1962 160.355 86.1962 160.355L84.6962 159.355C82.6962 158.355 80.1962 157.855 78.6962 158.855C77.1962 159.855 75.6962 161.355 76.6962 163.355L79.6962 168.355C79.1962 168.355 77.6962 169.355 77.1962 170.855C76.6962 172.355 76.1962 175.855 75.1962 177.855C74.1961 179.855 72.6962 182.355 72.1962 183.355C71.6962 184.355 70.6962 184.355 70.1962 187.355C69.6962 190.355 70.1962 190.355 71.1962 192.855C72.1962 195.355 73.6962 197.355 75.1962 199.355C76.6962 201.355 82.1962 204.355 83.6962 207.355C85.1962 210.355 86.1962 218.355 86.1962 222.355V248.602Z" fill="#9B8C8C" stroke="#1A1616" stroke-width="3" stroke-linecap="round"/>
<path d="M206.884 98.9995C198.77 107.114 190.378 99.1984 187.196 94.2265L173.771 107.651C177.948 109.043 180.077 122.309 174.965 130.919C165.896 146.193 148.514 157.967 140.956 161.944C152.193 168.01 176.481 178.974 213.149 155.381C243.935 135.573 240.694 99.3973 235.224 83.7854C233.136 91.2433 214.999 90.8853 206.884 98.9995Z" fill="#DFD8D8" stroke="#1A1616" stroke-width="3" stroke-linecap="round" stroke-linejoin="round"/>
<path d="M171.437 63.552C163.323 71.6662 171.238 80.0588 176.21 83.2409L162.786 96.6651C161.394 92.4887 148.127 90.3595 139.517 95.4719C124.243 104.541 112.47 121.923 108.492 129.48C102.426 118.243 91.4627 93.9549 115.055 57.2873C134.863 26.5011 171.039 29.7428 186.651 35.2119C178.246 38.1429 179.551 55.4378 171.437 63.552Z" fill="#DFD8D8" stroke="#1A1616" stroke-width="3" stroke-linecap="round" stroke-linejoin="round"/>
<rect x="154.381" y="105.562" width="17.7191" height="176.347" rx="4" transform="rotate(45 154.381 105.562)" fill="#5D5757" stroke="#1A1616" stroke-width="3" stroke-linecap="round" stroke-linejoin="round"/>
<rect x="187.196" y="65.5881" width="27.0005" height="55.6886" rx="4" transform="rotate(45 187.196 65.5881)" fill="#A39999" stroke="#1A1616" stroke-width="3" stroke-linecap="round" stroke-linejoin="round"/>
<path fill-rule="evenodd" clip-rule="evenodd" d="M208.381 68.6982C208.843 70.1054 209.69 71.4616 210.869 72.6412C214.247 76.0187 219.68 76.0611 223.005 72.7359C226.96 68.7814 227.089 58.9389 227.191 51.1096C227.228 48.2939 227.262 45.7385 227.468 43.8111C225.541 44.0178 222.986 44.0513 220.17 44.0881C212.341 44.1906 202.498 44.3194 198.544 48.274C195.218 51.5992 195.261 57.0327 198.638 60.4102C199.751 61.5228 201.02 62.3395 202.342 62.8157C200.331 66.1935 196.883 70.8935 193.397 70.8936C191.649 70.8936 193.229 74.2203 195.144 76.1355C197.072 78.0636 200.205 79.4491 200.205 77.7019C200.205 74.1815 204.997 70.7005 208.381 68.6982Z" fill="#453B3B"/>
<path d="M208.381 68.6982L209.807 68.231C209.665 67.7989 209.335 67.4544 208.91 67.2943C208.484 67.1341 208.009 67.1757 207.618 67.4072L208.381 68.6982ZM227.191 51.1096L228.691 51.1292L227.191 51.1096ZM227.468 43.8111L228.96 43.971C229.008 43.5199 228.85 43.0712 228.529 42.7504C228.208 42.4296 227.76 42.2712 227.308 42.3196L227.468 43.8111ZM220.17 44.0881L220.15 42.5882L220.15 42.5882L220.17 44.0881ZM202.342 62.8157L203.631 63.5831C203.86 63.1984 203.905 62.7314 203.754 62.3099C203.603 61.8884 203.272 61.5563 202.85 61.4045L202.342 62.8157ZM193.397 70.8936L193.396 69.3936L193.397 70.8936ZM200.205 77.7019L201.705 77.7019L200.205 77.7019ZM211.93 71.5805C210.901 70.5516 210.188 69.3942 209.807 68.231L206.956 69.1653C207.497 70.8166 208.478 72.3716 209.809 73.7019L211.93 71.5805ZM221.945 71.6753C219.221 74.3991 214.737 74.3879 211.93 71.5805L209.809 73.7019C213.756 77.6495 220.14 77.7231 224.066 73.7966L221.945 71.6753ZM225.691 51.0899C225.64 55.0249 225.581 59.3469 225.057 63.172C224.522 67.0732 223.545 70.0753 221.945 71.6753L224.066 73.7966C226.421 71.442 227.485 67.5456 228.029 63.5796C228.583 59.5375 228.64 55.0236 228.691 51.1292L225.691 51.0899ZM225.977 43.6511C225.761 45.6647 225.728 48.3016 225.691 51.0899L228.691 51.1292C228.728 48.2861 228.762 45.8124 228.96 43.971L225.977 43.6511ZM220.19 45.588C222.978 45.5515 225.615 45.5185 227.628 45.3025L227.308 42.3196C225.467 42.5171 222.993 42.551 220.15 42.5882L220.19 45.588ZM199.604 49.3347C201.204 47.7346 204.206 46.7575 208.107 46.2226C211.933 45.6981 216.255 45.6395 220.19 45.588L220.15 42.5882C216.256 42.6392 211.742 42.6962 207.7 43.2504C203.734 43.7942 199.837 44.8588 197.483 47.2133L199.604 49.3347ZM199.699 59.3496C196.892 56.5422 196.88 52.0585 199.604 49.3347L197.483 47.2133C193.556 51.1398 193.63 57.5233 197.578 61.4709L199.699 59.3496ZM202.85 61.4045C201.754 61.0094 200.669 60.3198 199.699 59.3496L197.578 61.4709C198.832 62.7258 200.287 63.6695 201.833 64.2268L202.85 61.4045ZM193.397 72.3936C195.781 72.3935 197.89 70.8246 199.499 69.1656C201.165 67.4483 202.598 65.3166 203.631 63.5831L201.053 62.0483C200.074 63.6925 198.778 65.5998 197.346 67.077C195.856 68.6125 194.498 69.3936 193.396 69.3936L193.397 72.3936ZM196.205 75.0748C195.374 74.2448 194.626 73.1059 194.295 72.2535C194.112 71.7829 194.153 71.6425 194.135 71.7348C194.116 71.8279 194.043 72.0428 193.819 72.2188C193.604 72.3884 193.411 72.3936 193.397 72.3936L193.396 69.3936C192.945 69.3936 192.419 69.5028 191.963 69.8617C191.499 70.2272 191.278 70.7169 191.192 71.1518C191.038 71.9278 191.265 72.7388 191.498 73.3393C191.999 74.6289 192.998 76.111 194.083 77.1961L196.205 75.0748ZM198.705 77.7019C198.705 77.7016 198.706 77.5403 198.845 77.3451C198.993 77.1363 199.188 77.0453 199.301 77.0153C199.431 76.9809 199.34 77.0423 198.906 76.8857C198.124 76.6041 197.041 75.9114 196.205 75.0748L194.083 77.1961C195.175 78.2877 196.622 79.2518 197.889 79.7082C198.479 79.9206 199.291 80.1212 200.069 79.9155C200.506 79.7998 200.961 79.5454 201.288 79.0855C201.606 78.6392 201.705 78.139 201.705 77.7019L198.705 77.7019ZM207.618 67.4072C205.881 68.4347 203.725 69.874 201.984 71.5501C200.303 73.1681 198.705 75.2953 198.705 77.7019L201.705 77.7019C201.705 76.5881 202.503 75.2146 204.064 73.7114C205.565 72.2664 207.498 70.964 209.145 69.9891L207.618 67.4072Z" fill="#1A1616"/>
<path d="M228.518 95.8615C230.036 105.22 231.094 126.1 214.939 142.255C191.835 165.36 167.327 161.099 157.154 157.856" stroke="#1A1616" stroke-width="3" stroke-linecap="round" stroke-linejoin="round"/>
<path d="M174.611 41.9545C165.253 40.4372 144.373 39.3784 128.218 55.5336C105.113 78.6379 109.374 103.146 112.617 113.319" stroke="#1A1616" stroke-width="3" stroke-linecap="round" stroke-linejoin="round"/>
<path d="M206.947 98.604C198.833 106.718 190.441 98.8029 187.259 93.831L173.834 107.255C178.011 108.647 180.14 121.914 175.028 130.524C165.959 145.798 148.577 157.571 141.019 161.549C152.256 167.615 176.544 178.578 213.212 154.986C243.998 135.178 240.757 99.0018 235.287 83.3899C233.199 90.8478 215.062 90.4898 206.947 98.604Z" fill="#DFD8D8" stroke="#1A1616" stroke-width="3" stroke-linecap="round" stroke-linejoin="round"/>
<path d="M171.5 63.1565C163.386 71.2707 171.301 79.6633 176.273 82.8454L162.849 96.2696C161.457 92.0932 148.19 89.964 139.58 95.0763C124.306 104.145 112.533 121.527 108.555 129.084C102.489 117.848 91.5257 93.5594 115.118 56.8918C134.926 26.1056 171.102 29.3473 186.714 34.8164C178.309 37.7474 179.614 55.0423 171.5 63.1565Z" fill="#DFD8D8" stroke="#1A1616" stroke-width="3" stroke-linecap="round" stroke-linejoin="round"/>
<rect x="154.444" y="105.167" width="17.7191" height="176.347" rx="4" transform="rotate(45 154.444 105.167)" fill="#5D5757" stroke="#1A1616" stroke-width="3" stroke-linecap="round" stroke-linejoin="round"/>
<rect x="187.259" y="65.1926" width="27.0005" height="55.6886" rx="4" transform="rotate(45 187.259 65.1926)" fill="#A39999" stroke="#1A1616" stroke-width="3" stroke-linecap="round" stroke-linejoin="round"/>
<path fill-rule="evenodd" clip-rule="evenodd" d="M208.444 68.3027C208.906 69.7099 209.753 71.0661 210.932 72.2457C214.31 75.6232 219.743 75.6656 223.068 72.3404C227.023 68.3859 227.152 58.5434 227.254 50.714C227.291 47.8984 227.325 45.343 227.531 43.4155C225.604 43.6223 223.049 43.6557 220.233 43.6926C212.404 43.7951 202.561 43.9239 198.607 47.8785C195.281 51.2037 195.324 56.6372 198.701 60.0147C199.814 61.1273 201.083 61.944 202.405 62.4202C200.394 65.798 196.946 70.498 193.46 70.4981C191.712 70.4981 193.292 73.8248 195.207 75.74C197.135 77.6681 200.268 79.0536 200.268 77.3064C200.268 73.786 205.06 70.305 208.444 68.3027Z" fill="#453B3B"/>
<path d="M208.444 68.3027L209.87 67.8355C209.728 67.4034 209.398 67.0589 208.973 66.8988C208.547 66.7386 208.072 66.7802 207.681 67.0117L208.444 68.3027ZM227.254 50.714L228.754 50.7337L227.254 50.714ZM227.531 43.4155L229.023 43.5755C229.071 43.1244 228.913 42.6757 228.592 42.3549C228.271 42.0341 227.822 41.8757 227.371 41.9241L227.531 43.4155ZM220.233 43.6926L220.213 42.1927L220.213 42.1927L220.233 43.6926ZM202.405 62.4202L203.694 63.1876C203.923 62.8028 203.968 62.3359 203.817 61.9144C203.666 61.4929 203.334 61.1608 202.913 61.009L202.405 62.4202ZM193.46 70.4981L193.459 68.9981L193.46 70.4981ZM200.268 77.3064L201.768 77.3064L200.268 77.3064ZM211.993 71.185C210.964 70.1561 210.251 68.9987 209.87 67.8355L207.019 68.7698C207.56 70.4211 208.541 71.9761 209.872 73.3064L211.993 71.185ZM222.008 71.2798C219.284 74.0036 214.8 73.9924 211.993 71.185L209.872 73.3064C213.819 77.254 220.203 77.3276 224.129 73.4011L222.008 71.2798ZM225.754 50.6944C225.703 54.6294 225.644 58.9514 225.12 62.7765C224.585 66.6777 223.608 69.6798 222.008 71.2798L224.129 73.4011C226.484 71.0465 227.548 67.1501 228.092 63.1841C228.646 59.142 228.703 54.6281 228.754 50.7337L225.754 50.6944ZM226.04 43.2556C225.824 45.2692 225.791 47.9061 225.754 50.6944L228.754 50.7337C228.791 47.8906 228.825 45.4169 229.023 43.5755L226.04 43.2556ZM220.253 45.1925C223.041 45.156 225.678 45.123 227.691 44.907L227.371 41.9241C225.53 42.1216 223.056 42.1555 220.213 42.1927L220.253 45.1925ZM199.667 48.9391C201.267 47.3391 204.269 46.362 208.17 45.8271C211.996 45.3026 216.318 45.244 220.253 45.1925L220.213 42.1927C216.319 42.2437 211.805 42.3007 207.763 42.8549C203.797 43.3987 199.9 44.4633 197.546 46.8178L199.667 48.9391ZM199.762 58.9541C196.955 56.1467 196.943 51.663 199.667 48.9391L197.546 46.8178C193.619 50.7443 193.693 57.1278 197.641 61.0754L199.762 58.9541ZM202.913 61.009C201.817 60.6139 200.732 59.9243 199.762 58.9541L197.641 61.0754C198.895 62.3302 200.35 63.274 201.896 63.8313L202.913 61.009ZM193.46 71.9981C195.844 71.998 197.953 70.429 199.562 68.7701C201.228 67.0528 202.661 64.9211 203.694 63.1876L201.116 61.6528C200.137 63.297 198.841 65.2043 197.409 66.6815C195.919 68.217 194.561 68.9981 193.459 68.9981L193.46 71.9981ZM196.268 74.6793C195.437 73.8492 194.689 72.7104 194.358 71.858C194.175 71.3873 194.216 71.247 194.198 71.3393C194.179 71.4324 194.106 71.6473 193.882 71.8233C193.667 71.9929 193.474 71.9981 193.46 71.9981L193.459 68.9981C193.008 68.9981 192.482 69.1073 192.026 69.4662C191.562 69.8317 191.341 70.3214 191.255 70.7563C191.101 71.5323 191.328 72.3433 191.561 72.9437C192.062 74.2334 193.061 75.7155 194.146 76.8006L196.268 74.6793ZM198.768 77.3063C198.768 77.3061 198.769 77.1448 198.908 76.9496C199.056 76.7408 199.251 76.6498 199.364 76.6198C199.494 76.5854 199.403 76.6468 198.969 76.4902C198.187 76.2086 197.104 75.5159 196.268 74.6793L194.146 76.8006C195.238 77.8922 196.685 78.8563 197.952 79.3127C198.542 79.5251 199.354 79.7257 200.132 79.52C200.569 79.4043 201.024 79.1499 201.351 78.69C201.669 78.2437 201.768 77.7435 201.768 77.3064L198.768 77.3063ZM207.681 67.0117C205.944 68.0392 203.788 69.4784 202.047 71.1546C200.366 72.7726 198.768 74.8998 198.768 77.3063L201.768 77.3064C201.768 76.1926 202.566 74.8191 204.127 73.3159C205.628 71.8709 207.561 70.5685 209.208 69.5936L207.681 67.0117Z" fill="#1A1616"/>
<path d="M228.581 95.4659C230.099 104.824 231.157 125.705 215.002 141.86C191.898 164.964 167.39 160.704 157.217 157.461" stroke="#1A1616" stroke-width="3" stroke-linecap="round" stroke-linejoin="round"/>
<path d="M174.674 41.559C165.316 40.0417 144.436 38.9829 128.281 55.138C105.176 78.2424 109.437 102.75 112.68 112.923" stroke="#1A1616" stroke-width="3" stroke-linecap="round" stroke-linejoin="round"/>
<path d="M84 196.045C83.2 195.645 79 193.878 77 193.045L76 189.045C76.3988 187.051 77.7518 186.011 78.5369 185.926L73 184.5L77 179.545L79.5 169.545C79 168.712 77.8 166.645 77 165.045C76 163.045 77.5 161.545 79 160.545C80.5 159.545 83 160.045 85 161.045C87 162.045 89.5 165.545 91 166.545C92.5 167.545 95 170.545 92.5 172.545C90.5 174.145 87.3967 172.878 86.0951 172.045C88.1025 173.603 90.8253 175.87 91.5 176.545C92.5 177.545 97 181.545 98.5 183.045C100 184.545 99.5 186.045 98.5 187.545C97.7 188.745 95.5 189.24 94.5 189.337C95.9703 190.625 97.5 192.053 97.5 193.045C97.5 194.545 95.5 197.045 94.5 197.045C93.7 197.045 91 194.878 90 194.045C90.5 195.045 89.5 197.045 88.5 198.045C87.5 199.045 85 196.545 84 196.045Z" fill="#9B8C8C"/>
<path d="M76.6963 191.355C78.6963 192.188 82.8963 193.955 83.6963 194.355C84.6963 194.855 87.1963 197.355 88.1963 196.355C89.1963 195.355 90.1963 193.355 89.6963 192.355C89.1963 191.355 86.6963 188.855 85.1963 187.855C83.6963 186.855 79.1963 184.855 78.6963 184.355C78.1963 183.855 76.1963 184.855 75.6963 187.355M90.1963 192.855C91.1963 193.688 93.3963 195.355 94.1963 195.355C95.1963 195.355 97.1963 192.855 97.1963 191.355C97.1963 190.363 95.6665 188.934 94.1963 187.646M76.6963 177.855C77.0296 177.688 77.9963 177.255 79.1963 176.855C80.6963 176.355 82.1963 177.355 82.6963 177.855C83.1963 178.355 90.6963 184.355 92.1963 185.855C92.7046 186.363 93.4426 186.986 94.1963 187.646M94.1963 187.646C95.1963 187.549 97.3963 187.055 98.1963 185.855C99.1963 184.355 99.6963 182.855 98.1963 181.355C96.6963 179.855 92.1963 175.855 91.1963 174.855C90.5216 174.18 87.7988 171.912 85.7914 170.355M79.1963 167.855C78.6963 167.021 77.4963 164.955 76.6963 163.355C75.6963 161.355 77.1963 159.855 78.6963 158.855C80.1963 157.855 82.6963 158.355 84.6963 159.355C86.6963 160.355 89.1963 163.855 90.6963 164.855C92.1963 165.855 94.6963 168.855 92.1963 170.855C90.1963 172.455 87.093 171.188 85.7914 170.355M85.7914 170.355C84.8233 169.603 84.0216 169.017 83.6963 168.855C83.0296 168.021 81.4963 166.355 80.6963 166.355" stroke="#1A1616" stroke-width="3" stroke-linecap="round"/>
<path d="M101.667 157C98.5311 164.126 101.667 175.39 101.667 182.5C101.667 186.046 102 205.5 106 201.5L112 177.5L107 157.5L101.667 157Z" fill="#9B8C8C"/>
<path d="M111.331 239.355C109.413 228.145 107.696 212.989 107.696 211.855C107.696 210.355 106.696 200.855 106.696 198.855C106.696 196.855 108.5 193 108.5 190.5C108.5 188 110.5 181.5 111.5 179C113.212 174.72 105.644 158.222 105.5 157.5C105 155 102.776 155.336 101 158C97.9999 162.5 105.053 172.929 102.196 176.5C100.196 179 101 180.5 101 186.5" stroke="#1A1616" stroke-width="3" stroke-linecap="round"/>
<path d="M173.495 105.389C169.647 126.936 176.958 134.914 173.495 156C172.704 160.816 167.7 160.5 165.5 164.5C161.991 170.881 164 174 164 174C164 174 175.5 184.5 211 185C246.5 185.5 276.5 169 276.5 169C274.5 159 262.5 153.5 255.344 154C255.491 152.427 255.417 150.744 254.997 149.019C253.15 141.428 251.303 127.319 251.303 120.034C251.303 112.75 251.89 93.7254 241.5 80C231.11 66.2746 210.39 66.4696 200 69C189.609 71.5304 177.343 83.8424 173.495 105.389Z" fill="#383333" stroke="#1A1616" stroke-width="3"/>
<path d="M178.696 123.939C178.696 119.159 180.196 110.495 180.196 106.511L180.696 105.018C180.696 105.304 181.5 103.959 185.5 101.28C187.5 98.292 189.196 94.3085 189.696 93.8106C190.196 93.3126 201.5 88.8311 208.5 89.827C215.5 90.8229 225.186 94.4682 230.196 97.7941C231.696 98.79 232.363 102.655 233.008 106.511L234.053 110.374C234.618 111.977 235.21 113.479 235.5 115.72C236.071 120.127 235.5 125.181 237.196 127.425C237.196 127.425 237.996 129.715 237.196 132.902C236.196 136.886 236.696 143.857 234.196 148.836C232.863 152.82 230.196 160.887 230.196 161.285C230.196 161.683 204.692 179.55 182.696 140.119C180.696 136.534 178.363 127.591 178.696 123.939Z" fill="#9B8C8C"/>
<path d="M174.5 146C174.674 155.929 167.466 160.115 165.5 164.5C162.951 170.184 163 174.5 163 174.5C168.5 176.667 187 181.4 217 183C247 184.6 269.5 174 277 168.5C275 163.667 268.5 154 258.5 154C247.18 154 242.831 161.791 228 164.005M228 164.005C226.454 164.236 224.794 164.406 223 164.5C204 165.5 196.5 162.5 189.5 154C183.9 147.2 180.5 130.833 179.5 123.5C179.167 118.167 179.8 105.9 185 99.5001C191.5 91.5001 199.5 89.0001 210 89.5001C220.5 90.0001 229.5 93.4999 234 108.5C238.5 123.5 237 141.5 234 150.5C231.6 157.7 229 162.503 228 164.005Z" stroke="#1A1616" stroke-width="3" stroke-linecap="round"/>
<path d="M185.525 56.6564L183 80.242C183 80.242 206.209 79.6978 215.364 80.6781C224.519 81.6584 247.086 87.1041 247.086 87.1041L249.612 63.5186L237.784 70.2041L234.794 57.7666L223.761 65.6733L218.37 52.6L209.723 64.1701L202.446 54.3029L194.754 65.5966L185.525 56.6564Z" fill="#CDC7C7" stroke="#1A1616" stroke-width="3" stroke-linecap="round" stroke-linejoin="round"/>
<g clip-path="url(#clip1)">
<path d="M318.261 290.103C315.513 306.472 299.942 328.751 292.5 337.845C291.461 339.134 280.478 334.435 275.326 327.614C271.204 322.158 258.725 287.83 253 271.348C256.435 267.938 263.648 259.412 265.022 252.592C266.739 244.067 273.609 196.325 289.065 201.441C304.522 206.556 300.565 238.148 304 241.558C315 252.479 310.22 269.478 324 266.058C320.565 268.9 321.009 273.735 318.261 290.103Z" fill="#8A8585" stroke="#1A1616" stroke-width="3" stroke-linecap="round" stroke-linejoin="round"/>
<path d="M299.5 249.558C297.9 257.558 298.833 269.558 299.5 274.558L286 328.558L292.5 337.845C299.936 328.78 315.499 306.54 318.261 290.103C321.009 273.735 320.565 268.9 324 266.058C310.22 269.479 315 250.479 304 239.558C303.167 239.558 301.1 241.558 299.5 249.558Z" fill="#524F4F" stroke="#1A1616" stroke-width="3" stroke-linecap="round" stroke-linejoin="round"/>
<path d="M275 247.058C275.8 253.058 276.667 277.558 277 289.058C276.775 289.891 276.326 292.958 276.326 298.558C276.326 305.558 283 333.058 281 333.058C279.4 333.058 277.218 330.096 276.326 328.615C272.204 323.158 259.725 288.83 254 272.348C257.435 268.938 264.648 260.412 266.022 253.592L270 233.058C273 236.558 274 239.558 275 247.058Z" fill="#524F4F" stroke="#1A1616" stroke-width="3" stroke-linecap="round" stroke-linejoin="round"/>
<path d="M305.804 332.116C305.804 325.716 310.5 307.116 303.5 297.116C296.5 287.116 296.135 276.616 288.402 276.616C280.669 276.616 284.972 279.116 280.669 287.116C272.883 301.588 277.494 325.192 280.669 341.362C282.587 352.572 284.304 367.728 284.304 368.862C284.304 370.362 285.304 379.862 285.304 381.862C285.304 383.862 284.804 388.362 284.804 390.862C284.804 393.362 288.304 402.862 288.804 404.362C289.304 405.862 293.804 411.362 294.804 413.862C295.804 416.362 297 415.362 299 417.362C301.829 420.191 305.804 420.362 305.804 420.362L307.304 421.362C309.304 422.362 311.804 422.862 313.304 421.862C314.804 420.862 316.304 419.362 315.304 417.362L312.304 412.362C312.804 412.362 314.304 411.362 314.804 409.862C315.304 408.362 315.804 404.862 316.804 402.862C317.804 400.862 319.304 398.362 319.804 397.362C320.304 396.362 321.304 396.362 321.804 393.362C322.304 390.362 321.804 390.362 320.804 387.862C319.804 385.362 318.304 383.362 316.804 381.362C315.304 379.362 309.804 376.362 308.304 373.362C306.804 370.362 305.804 362.362 305.804 358.362V332.116Z" fill="#9B8C8C" stroke="#1A1616" stroke-width="3" stroke-linecap="round"/>
</g>
<path fill-rule="evenodd" clip-rule="evenodd" d="M62.6689 118.663C63.8338 119.645 65.189 120.262 66.6351 120.262C70.9862 120.262 74.5135 116.79 74.5135 112.506C74.5135 107.411 68.2567 100.989 63.2795 95.8794C61.4896 94.042 59.8651 92.3745 58.7568 90.9998C57.6484 92.3745 56.0239 94.042 54.234 95.8794C49.2569 100.989 43 107.411 43 112.506C43 116.79 46.5273 120.262 50.8784 120.262C52.2464 120.262 53.5329 119.71 54.654 118.819C55.5853 122.254 56.6357 128.011 54.2547 130.392C53.1293 131.517 56.2895 132.643 58.7567 132.643C61.2406 132.643 64.151 131.517 63.0256 130.392C60.6082 127.974 61.728 122.077 62.6689 118.663ZM58.763 110.706C58.7589 110.6 58.7568 110.495 58.7568 110.391C58.7568 110.495 58.7547 110.6 58.7505 110.705L58.7567 110.696L58.763 110.706Z" fill="#453B3B"/>
<path d="M310.401 529.397C310.401 525.351 311.285 521.738 313.054 518.558C314.804 515.377 317.307 512.827 320.563 510.908C323.819 509.007 327.62 507.906 331.968 507.605C331.384 507.492 330.5 507.163 329.314 506.617C327.545 505.845 325.945 505.243 324.515 504.81C323.085 504.358 321.655 504.133 320.224 504.133C319.49 504.133 318.898 504.151 318.446 504.189L321.043 497.414C321.156 497.377 321.56 497.358 322.257 497.358C323.687 497.358 325.061 497.602 326.378 498.092C327.677 498.562 329.352 499.287 331.403 500.265C333.059 501.112 334.461 501.752 335.609 502.185C336.738 502.599 337.839 502.806 338.912 502.806C341.151 502.806 343.268 501.959 345.263 500.265L347.973 504.471C346.204 506.598 343.814 507.849 340.803 508.226C344.285 509.11 347.286 510.55 349.808 512.545C352.33 514.559 354.278 517.005 355.652 519.884C357.007 522.783 357.684 525.954 357.684 529.397C357.684 533.707 356.687 537.518 354.692 540.83C352.678 544.142 349.883 546.702 346.308 548.508C342.732 550.334 338.63 551.247 334 551.247C329.333 551.247 325.211 550.306 321.636 548.424C318.041 546.561 315.275 543.973 313.336 540.661C311.379 537.349 310.401 533.594 310.401 529.397ZM334 515.227C331.61 515.227 329.53 515.848 327.761 517.09C325.974 518.351 324.609 520.044 323.668 522.171C322.727 524.316 322.257 526.725 322.257 529.397C322.257 532.051 322.737 534.441 323.696 536.568C324.656 538.713 326.039 540.388 327.846 541.592C329.634 542.816 331.704 543.427 334.056 543.427C336.447 543.427 338.517 542.797 340.267 541.536C342.017 540.294 343.372 538.609 344.332 536.483C345.273 534.375 345.743 532.032 345.743 529.454C345.743 526.782 345.244 524.354 344.247 522.171C343.231 520.007 341.838 518.304 340.069 517.061C338.3 515.838 336.277 515.227 334 515.227Z" fill="#1A1616"/>
<mask id="mask1" mask-type="alpha" maskUnits="userSpaceOnUse" x="78" y="287" width="229" height="235">
<rect x="307" y="521.045" width="229" height="234.033" transform="rotate(-180 307 521.045)" fill="#C4C4C4"/>
</mask>
<g mask="url(#mask1)">
<path d="M284.804 350.497C276.97 362.447 261.604 384.556 252.804 393.32L99.643 394.813C98.7575 392.194 97.5848 389.616 95.3037 387.344C88.8037 380.871 95.3037 369.173 95.3037 369.173L77.8037 285.266L311.304 278.295L284.804 350.497Z" fill="#BDB9B9"/>
<path d="M176.804 396.805C204.304 396.805 215.804 399.295 232.804 405.768L253.804 392.324C226.804 378.879 199.502 375.014 176.804 375.014C149.309 375.014 123.061 381.294 99.3037 394.813C100.137 397.801 102.304 403.776 104.304 405.768C106.304 407.76 108.804 409.673 109.804 410.63C123.674 404.138 147.079 396.805 176.804 396.805Z" fill="#453B3B"/>
<path d="M230.304 404.292C218.057 400.33 200.157 396.805 176.804 396.805C147.079 396.805 123.674 404.138 109.804 410.63" stroke="#1A1616" stroke-width="3" stroke-linecap="round"/>
<path d="M284.804 350.497C276.97 362.447 261.604 384.556 252.804 393.32C247.045 399.055 238.301 403.777 229 407.309" stroke="#1A1616" stroke-width="3" stroke-linecap="round"/>
<path d="M241.804 387.344C221 378.583 199.502 375.014 176.804 375.014C149.309 375.014 123.061 381.294 99.3037 394.813" stroke="#1A1616" stroke-width="3" stroke-linecap="round"/>
<path d="M154.804 447.097C155.804 443.114 155 439.383 157.5 434.403C160 429.424 166.196 421.709 187 418.967C187.561 418.893 191 417.971 195 419.963" stroke="#1A1616" stroke-width="3" stroke-linecap="round"/>
<path d="M243.804 361.949L258.804 312.155" stroke="#1A1616" stroke-width="3" stroke-linecap="round"/>
</g>
<path d="M318.261 289.386C315.513 305.755 299.942 328.034 292.5 337.128C291.461 338.417 280.478 333.717 275.326 326.897C271.204 321.441 258.725 287.113 253 270.63C256.435 267.22 263.648 258.695 265.022 251.875C266.739 243.35 273.609 195.608 289.065 200.723C304.522 205.838 300.565 237.431 304 240.841C315 251.762 310.22 268.761 324 265.341C320.565 268.183 321.009 273.018 318.261 289.386Z" fill="#8A8585" stroke="#1A1616" stroke-width="3" stroke-linecap="round" stroke-linejoin="round"/>
<path d="M299.5 248.841C297.9 256.841 298.833 268.841 299.5 273.841L286 327.841L292.5 337.128C299.936 328.062 315.499 305.822 318.261 289.386C321.009 273.018 320.565 268.183 324 265.341C310.22 268.761 315 249.762 304 238.841C303.167 238.841 301.1 240.841 299.5 248.841Z" fill="#524F4F" stroke="#1A1616" stroke-width="3" stroke-linecap="round" stroke-linejoin="round"/>
<path d="M275 246.341C275.8 252.341 276.667 276.841 277 288.341C276.775 289.174 276.326 292.241 276.326 297.841C276.326 304.841 283 332.341 281 332.341C279.4 332.341 277.218 329.378 276.326 327.897C272.204 322.441 259.725 288.113 254 271.63C257.435 268.22 264.648 259.695 266.022 252.875L270 232.341C273 235.841 274 238.841 275 246.341Z" fill="#524F4F" stroke="#1A1616" stroke-width="3" stroke-linecap="round" stroke-linejoin="round"/>
<path d="M305.804 331.398C305.804 324.998 310.5 306.398 303.5 296.398C296.5 286.398 296.135 275.898 288.402 275.898C280.669 275.898 284.972 278.398 280.669 286.398C272.883 300.871 277.494 324.475 280.669 340.645C282.587 351.855 284.304 367.01 284.304 368.145C284.304 369.645 285.304 379.145 285.304 381.145C285.304 383.145 284.804 387.645 284.804 390.145C284.804 392.645 288.304 402.145 288.804 403.645C289.304 405.145 293.804 410.645 294.804 413.145C295.804 415.645 297 414.645 299 416.645C301.829 419.474 305.804 419.645 305.804 419.645L307.304 420.645C309.304 421.645 311.804 422.145 313.304 421.145C314.804 420.145 316.304 418.645 315.304 416.645L312.304 411.645C312.804 411.645 314.304 410.645 314.804 409.145C315.304 407.645 315.804 404.145 316.804 402.145C317.804 400.145 319.304 397.645 319.804 396.645C320.304 395.645 321.304 395.645 321.804 392.645C322.304 389.645 321.804 389.645 320.804 387.145C319.804 384.645 318.304 382.645 316.804 380.645C315.304 378.645 309.804 375.645 308.304 372.645C306.804 369.645 305.804 361.645 305.804 357.645V331.398Z" fill="#9B8C8C" stroke="#1A1616" stroke-width="3" stroke-linecap="round"/>
<path d="M185.116 481C193.23 472.886 201.622 480.802 204.804 485.774L218.229 472.349C214.052 470.957 211.923 457.691 217.035 449.081C226.104 433.807 243.486 422.033 251.044 418.056C239.807 411.99 215.519 401.026 178.851 424.619C148.065 444.427 151.306 480.603 156.776 496.215C158.864 488.757 177.001 489.115 185.116 481Z" fill="#DFD8D8" stroke="#1A1616" stroke-width="3" stroke-linecap="round" stroke-linejoin="round"/>
<path d="M220.563 516.448C228.677 508.334 220.762 499.941 215.79 496.759L229.214 483.335C230.606 487.511 243.873 489.64 252.483 484.528C267.757 475.459 279.53 458.077 283.508 450.52C289.574 461.757 300.537 486.045 276.945 522.713C257.137 553.499 220.961 550.257 205.349 544.788C213.754 541.857 212.449 524.562 220.563 516.448Z" fill="#DFD8D8" stroke="#1A1616" stroke-width="3" stroke-linecap="round" stroke-linejoin="round"/>
<rect x="237.619" y="474.438" width="17.7191" height="176.347" rx="4" transform="rotate(-135 237.619 474.438)" fill="#5D5757" stroke="#1A1616" stroke-width="3" stroke-linecap="round" stroke-linejoin="round"/>
<rect x="204.804" y="514.412" width="27.0005" height="55.6886" rx="4" transform="rotate(-135 204.804 514.412)" fill="#A39999" stroke="#1A1616" stroke-width="3" stroke-linecap="round" stroke-linejoin="round"/>
<path fill-rule="evenodd" clip-rule="evenodd" d="M183.619 511.302C183.157 509.895 182.31 508.538 181.131 507.359C177.753 503.981 172.32 503.939 168.995 507.264C165.04 511.219 164.911 521.061 164.809 528.89C164.772 531.706 164.738 534.261 164.532 536.189C166.459 535.982 169.014 535.949 171.83 535.912C179.659 535.809 189.502 535.681 193.456 531.726C196.782 528.401 196.739 522.967 193.362 519.59C192.249 518.477 190.98 517.661 189.658 517.184C191.669 513.807 195.117 509.106 198.603 509.106C200.351 509.106 198.771 505.78 196.856 503.865C194.928 501.936 191.795 500.551 191.795 502.298C191.795 505.818 187.003 509.299 183.619 511.302Z" fill="#453B3B"/>
<path d="M183.619 511.302L182.193 511.769C182.335 512.201 182.665 512.546 183.09 512.706C183.516 512.866 183.991 512.824 184.382 512.593L183.619 511.302ZM164.809 528.89L163.309 528.871L164.809 528.89ZM164.532 536.189L163.04 536.029C162.992 536.48 163.15 536.929 163.471 537.25C163.792 537.57 164.24 537.729 164.692 537.68L164.532 536.189ZM171.83 535.912L171.85 537.412L171.85 537.412L171.83 535.912ZM189.658 517.184L188.369 516.417C188.14 516.802 188.095 517.269 188.246 517.69C188.397 518.112 188.728 518.444 189.15 518.595L189.658 517.184ZM198.603 509.106L198.604 510.606L198.603 509.106ZM191.795 502.298L190.295 502.298L191.795 502.298ZM180.07 508.419C181.099 509.448 181.812 510.606 182.193 511.769L185.044 510.835C184.503 509.183 183.522 507.628 182.191 506.298L180.07 508.419ZM170.055 508.325C172.779 505.601 177.263 505.612 180.07 508.419L182.191 506.298C178.244 502.351 171.86 502.277 167.934 506.203L170.055 508.325ZM166.309 528.91C166.36 524.975 166.419 520.653 166.943 516.828C167.478 512.927 168.455 509.925 170.055 508.325L167.934 506.203C165.579 508.558 164.515 512.454 163.971 516.42C163.417 520.462 163.36 524.976 163.309 528.871L166.309 528.91ZM166.023 536.349C166.239 534.335 166.272 531.698 166.309 528.91L163.309 528.871C163.272 531.714 163.238 534.188 163.04 536.029L166.023 536.349ZM171.81 534.412C169.022 534.449 166.385 534.482 164.372 534.698L164.692 537.68C166.533 537.483 169.007 537.449 171.85 537.412L171.81 534.412ZM192.396 530.665C190.796 532.265 187.794 533.242 183.893 533.777C180.067 534.302 175.745 534.361 171.81 534.412L171.85 537.412C175.744 537.361 180.258 537.304 184.3 536.75C188.266 536.206 192.163 535.141 194.517 532.787L192.396 530.665ZM192.301 520.65C195.108 523.458 195.12 527.942 192.396 530.665L194.517 532.787C198.444 528.86 198.37 522.477 194.422 518.529L192.301 520.65ZM189.15 518.595C190.246 518.991 191.331 519.68 192.301 520.65L194.422 518.529C193.168 517.274 191.713 516.33 190.167 515.773L189.15 518.595ZM198.603 507.606C196.219 507.606 194.11 509.175 192.501 510.834C190.835 512.552 189.402 514.683 188.369 516.417L190.947 517.952C191.926 516.307 193.222 514.4 194.654 512.923C196.144 511.388 197.502 510.606 198.604 510.606L198.603 507.606ZM195.795 504.925C196.626 505.755 197.374 506.894 197.705 507.747C197.888 508.217 197.847 508.357 197.865 508.265C197.884 508.172 197.957 507.957 198.181 507.781C198.396 507.612 198.589 507.606 198.603 507.606L198.604 510.606C199.055 510.606 199.581 510.497 200.037 510.138C200.501 509.773 200.722 509.283 200.808 508.848C200.962 508.072 200.735 507.261 200.502 506.661C200.001 505.371 199.002 503.889 197.917 502.804L195.795 504.925ZM193.295 502.298C193.295 502.298 193.294 502.46 193.155 502.655C193.007 502.864 192.812 502.955 192.699 502.985C192.569 503.019 192.66 502.958 193.094 503.114C193.876 503.396 194.959 504.089 195.795 504.925L197.917 502.804C196.825 501.712 195.378 500.748 194.111 500.292C193.521 500.079 192.709 499.879 191.931 500.085C191.494 500.2 191.039 500.455 190.712 500.914C190.394 501.361 190.295 501.861 190.295 502.298L193.295 502.298ZM184.382 512.593C186.119 511.565 188.275 510.126 190.016 508.45C191.697 506.832 193.295 504.705 193.295 502.298L190.295 502.298C190.295 503.412 189.497 504.785 187.936 506.289C186.435 507.734 184.502 509.036 182.855 510.011L184.382 512.593Z" fill="#1A1616"/>
<path d="M163.482 484.139C161.964 474.78 160.906 453.9 177.061 437.745C200.165 414.64 224.673 418.901 234.846 422.144" stroke="#1A1616" stroke-width="3" stroke-linecap="round" stroke-linejoin="round"/>
<path d="M217.389 538.046C226.747 539.563 247.627 540.622 263.782 524.466C286.887 501.362 282.626 476.854 279.383 466.681" stroke="#1A1616" stroke-width="3" stroke-linecap="round" stroke-linejoin="round"/>
<path d="M185.053 481.396C193.167 473.282 201.559 481.197 204.741 486.169L218.166 472.745C213.989 471.353 211.86 458.086 216.972 449.476C226.041 434.202 243.423 422.429 250.981 418.451C239.744 412.385 215.456 401.422 178.788 425.014C148.002 444.822 151.243 480.998 156.713 496.61C158.801 489.152 176.938 489.51 185.053 481.396Z" fill="#DFD8D8" stroke="#1A1616" stroke-width="3" stroke-linecap="round" stroke-linejoin="round"/>
<path d="M220.5 516.844C228.614 508.729 220.699 500.337 215.727 497.155L229.151 483.73C230.543 487.907 243.81 490.036 252.42 484.924C267.694 475.855 279.467 458.473 283.445 450.916C289.511 462.152 300.474 486.441 276.882 523.108C257.074 553.894 220.898 550.653 205.286 545.184C213.691 542.253 212.386 524.958 220.5 516.844Z" fill="#DFD8D8" stroke="#1A1616" stroke-width="3" stroke-linecap="round" stroke-linejoin="round"/>
<rect x="237.556" y="474.833" width="17.7191" height="176.347" rx="4" transform="rotate(-135 237.556 474.833)" fill="#5D5757" stroke="#1A1616" stroke-width="3" stroke-linecap="round" stroke-linejoin="round"/>
<rect x="204.741" y="514.807" width="27.0005" height="55.6886" rx="4" transform="rotate(-135 204.741 514.807)" fill="#A39999" stroke="#1A1616" stroke-width="3" stroke-linecap="round" stroke-linejoin="round"/>
<path fill-rule="evenodd" clip-rule="evenodd" d="M183.556 511.697C183.094 510.29 182.247 508.934 181.068 507.754C177.69 504.377 172.257 504.334 168.932 507.66C164.977 511.614 164.848 521.457 164.746 529.286C164.709 532.102 164.675 534.657 164.469 536.584C166.396 536.378 168.951 536.344 171.767 536.307C179.596 536.205 189.439 536.076 193.393 532.122C196.719 528.796 196.676 523.363 193.299 519.985C192.186 518.873 190.917 518.056 189.595 517.58C191.606 514.202 195.054 509.502 198.54 509.502C200.288 509.502 198.708 506.175 196.793 504.26C194.865 502.332 191.732 500.946 191.732 502.694C191.732 506.214 186.94 509.695 183.556 511.697Z" fill="#453B3B"/>
<path d="M183.556 511.697L182.13 512.165C182.272 512.597 182.602 512.941 183.027 513.101C183.453 513.261 183.928 513.22 184.319 512.988L183.556 511.697ZM164.746 529.286L163.246 529.266L164.746 529.286ZM164.469 536.584L162.977 536.424C162.929 536.876 163.087 537.324 163.408 537.645C163.729 537.966 164.178 538.124 164.629 538.076L164.469 536.584ZM171.767 536.307L171.787 537.807L171.787 537.807L171.767 536.307ZM189.595 517.58L188.306 516.812C188.077 517.197 188.032 517.664 188.183 518.086C188.334 518.507 188.666 518.839 189.087 518.991L189.595 517.58ZM198.54 509.502L198.541 511.002L198.54 509.502ZM191.732 502.694L190.232 502.694L191.732 502.694ZM180.007 508.815C181.036 509.844 181.749 511.001 182.13 512.165L184.981 511.23C184.44 509.579 183.459 508.024 182.128 506.694L180.007 508.815ZM169.992 508.72C172.716 505.996 177.2 506.008 180.007 508.815L182.128 506.694C178.181 502.746 171.797 502.672 167.871 506.599L169.992 508.72ZM166.246 529.306C166.297 525.371 166.356 521.049 166.88 517.223C167.415 513.322 168.392 510.32 169.992 508.72L167.871 506.599C165.516 508.953 164.452 512.85 163.908 516.816C163.354 520.858 163.297 525.372 163.246 529.266L166.246 529.306ZM165.96 536.744C166.176 534.731 166.209 532.094 166.246 529.306L163.246 529.266C163.209 532.109 163.175 534.583 162.977 536.424L165.96 536.744ZM171.747 534.808C168.959 534.844 166.322 534.877 164.309 535.093L164.629 538.076C166.47 537.878 168.944 537.844 171.787 537.807L171.747 534.808ZM192.333 531.061C190.733 532.661 187.731 533.638 183.83 534.173C180.004 534.697 175.682 534.756 171.747 534.808L171.787 537.807C175.681 537.756 180.195 537.699 184.237 537.145C188.203 536.601 192.1 535.537 194.454 533.182L192.333 531.061ZM192.238 521.046C195.045 523.853 195.057 528.337 192.333 531.061L194.454 533.182C198.381 529.256 198.307 522.872 194.359 518.925L192.238 521.046ZM189.087 518.991C190.183 519.386 191.268 520.076 192.238 521.046L194.359 518.925C193.105 517.67 191.65 516.726 190.104 516.169L189.087 518.991ZM198.54 508.002C196.156 508.002 194.047 509.571 192.438 511.23C190.772 512.947 189.339 515.079 188.306 516.812L190.884 518.347C191.863 516.703 193.159 514.796 194.591 513.319C196.081 511.783 197.439 511.002 198.541 511.002L198.54 508.002ZM195.732 505.321C196.563 506.151 197.311 507.29 197.642 508.142C197.825 508.613 197.784 508.753 197.802 508.661C197.821 508.568 197.894 508.353 198.118 508.177C198.333 508.007 198.526 508.002 198.54 508.002L198.541 511.002C198.992 511.002 199.518 510.893 199.974 510.534C200.438 510.168 200.659 509.679 200.745 509.244C200.899 508.468 200.672 507.657 200.439 507.056C199.938 505.767 198.939 504.284 197.854 503.199L195.732 505.321ZM193.232 502.694C193.232 502.694 193.231 502.855 193.092 503.05C192.944 503.259 192.749 503.35 192.636 503.38C192.506 503.415 192.597 503.353 193.031 503.51C193.813 503.791 194.896 504.484 195.732 505.321L197.854 503.199C196.762 502.108 195.315 501.144 194.048 500.687C193.458 500.475 192.646 500.274 191.868 500.48C191.431 500.596 190.976 500.85 190.649 501.31C190.331 501.756 190.232 502.256 190.232 502.694L193.232 502.694ZM184.319 512.988C186.056 511.961 188.212 510.522 189.953 508.845C191.634 507.227 193.232 505.1 193.232 502.694L190.232 502.694C190.232 503.807 189.434 505.181 187.873 506.684C186.372 508.129 184.439 509.431 182.792 510.406L184.319 512.988Z" fill="#1A1616"/>
<path d="M163.419 484.534C161.901 475.176 160.843 454.295 176.998 438.14C200.102 415.036 224.61 419.296 234.783 422.539" stroke="#1A1616" stroke-width="3" stroke-linecap="round" stroke-linejoin="round"/>
<path d="M217.326 538.441C226.684 539.958 247.564 541.017 263.719 524.862C286.824 501.758 282.563 477.25 279.32 467.077" stroke="#1A1616" stroke-width="3" stroke-linecap="round" stroke-linejoin="round"/>
<path d="M308 383.955C308.8 384.355 313 386.122 315 386.955L316 390.955C315.601 392.949 314.248 393.989 313.463 394.074L319 395.5L315 400.455L312.5 410.455C313 411.288 314.2 413.355 315 414.955C316 416.955 314.5 418.455 313 419.455C311.5 420.455 309 419.955 307 418.955C305 417.955 302.5 414.455 301 413.455C299.5 412.455 297 409.455 299.5 407.455C301.5 405.855 304.603 407.122 305.905 407.955C303.897 406.397 301.175 404.13 300.5 403.455C299.5 402.455 295 398.455 293.5 396.955C292 395.455 292.5 393.955 293.5 392.455C294.3 391.255 296.5 390.76 297.5 390.663C296.03 389.375 294.5 387.947 294.5 386.955C294.5 385.455 296.5 382.955 297.5 382.955C298.3 382.955 301 385.122 302 385.955C301.5 384.955 302.5 382.955 303.5 381.955C304.5 380.955 307 383.455 308 383.955Z" fill="#9B8C8C"/>
<path d="M315.304 388.645C313.304 387.812 309.104 386.045 308.304 385.645C307.304 385.145 304.804 382.645 303.804 383.645C302.804 384.645 301.804 386.645 302.304 387.645C302.804 388.645 305.304 391.145 306.804 392.145C308.304 393.145 312.804 395.145 313.304 395.645C313.804 396.145 315.804 395.145 316.304 392.645M301.804 387.145C300.804 386.312 298.604 384.645 297.804 384.645C296.804 384.645 294.804 387.145 294.804 388.645C294.804 389.637 296.333 391.066 297.804 392.354M315.304 402.145C314.97 402.312 314.004 402.745 312.804 403.145C311.304 403.645 309.804 402.645 309.304 402.145C308.804 401.645 301.304 395.645 299.804 394.145C299.295 393.637 298.557 393.014 297.804 392.354M297.804 392.354C296.804 392.451 294.604 392.945 293.804 394.145C292.804 395.645 292.304 397.145 293.804 398.645C295.304 400.145 299.804 404.145 300.804 405.145C301.478 405.82 304.201 408.088 306.209 409.645M312.804 412.145C313.304 412.979 314.504 415.045 315.304 416.645C316.304 418.645 314.804 420.145 313.304 421.145C311.804 422.145 309.304 421.645 307.304 420.645C305.304 419.645 302.804 416.145 301.304 415.145C299.804 414.145 297.304 411.145 299.804 409.145C301.804 407.545 304.907 408.812 306.209 409.645M306.209 409.645C307.177 410.397 307.978 410.983 308.304 411.145C308.97 411.979 310.504 413.645 311.304 413.645" stroke="#1A1616" stroke-width="3" stroke-linecap="round"/>
<path d="M290.333 423C293.469 415.874 290.333 404.61 290.333 397.5C290.333 393.954 290 374.5 286 378.5L280 402.5L285 422.5L290.333 423Z" fill="#9B8C8C"/>
<path d="M280.669 340.645C282.587 351.855 284.304 367.011 284.304 368.145C284.304 369.645 285.304 379.145 285.304 381.145C285.304 383.145 283.5 387 283.5 389.5C283.5 392 281.5 398.5 280.5 401C278.788 405.28 286.356 421.778 286.5 422.5C287 425 289.224 424.664 291 422C294 417.5 286.947 407.071 289.804 403.5C291.804 401 291 399.5 291 393.5" stroke="#1A1616" stroke-width="3" stroke-linecap="round"/>
<path d="M218.505 474.611C222.353 453.064 215.042 445.086 218.505 424C219.296 419.184 224.3 419.5 226.5 415.5C230.009 409.119 228 406 228 406C228 406 216.5 395.5 181 395C145.5 394.5 115.5 411 115.5 411C117.5 421 129.5 426.5 136.656 426C136.509 427.573 136.583 429.256 137.003 430.981C138.85 438.572 140.697 452.681 140.697 459.966C140.697 467.25 140.11 486.275 150.5 500C160.89 513.725 181.61 513.53 192 511C202.391 508.47 214.657 496.158 218.505 474.611Z" fill="#383333" stroke="#1A1616" stroke-width="3"/>
<path d="M213.304 456.061C213.304 460.841 211.804 469.505 211.804 473.489L211.304 474.982C211.304 474.696 210.5 476.041 206.5 478.72C204.5 481.708 202.804 485.691 202.304 486.189C201.804 486.687 190.5 491.169 183.5 490.173C176.5 489.177 166.814 485.532 161.804 482.206C160.304 481.21 159.637 477.345 158.992 473.489L157.947 469.626C157.382 468.023 156.79 466.521 156.5 464.28C155.929 459.873 156.5 454.819 154.804 452.575C154.804 452.575 154.004 450.285 154.804 447.098C155.804 443.114 155.304 436.143 157.804 431.164C159.137 427.18 161.804 419.113 161.804 418.715C161.804 418.317 187.308 400.45 209.304 439.881C211.304 443.466 213.637 452.409 213.304 456.061Z" fill="#9B8C8C"/>
<path d="M217.5 434C217.326 424.071 224.534 419.885 226.5 415.5C229.049 409.816 229 405.5 229 405.5C223.5 403.333 205 398.6 175 397C145 395.4 122.5 406 115 411.5C117 416.333 123.5 426 133.5 426C144.82 426 149.169 418.209 164 415.995M164 415.995C165.546 415.764 167.206 415.594 169 415.5C188 414.5 195.5 417.5 202.5 426C208.1 432.8 211.5 449.167 212.5 456.5C212.833 461.833 212.2 474.1 207 480.5C200.5 488.5 192.5 491 182 490.5C171.5 490 162.5 486.5 158 471.5C153.5 456.5 155 438.5 158 429.5C160.4 422.3 163 417.497 164 415.995Z" stroke="#1A1616" stroke-width="3" stroke-linecap="round"/>
<path d="M206.475 523.344L209 499.758C209 499.758 185.791 500.302 176.636 499.322C167.481 498.342 144.914 492.896 144.914 492.896L142.388 516.481L154.216 509.796L157.206 522.233L168.239 514.327L173.63 527.4L182.277 515.83L189.554 525.697L197.246 514.403L206.475 523.344Z" fill="#CDC7C7" stroke="#1A1616" stroke-width="3" stroke-linecap="round" stroke-linejoin="round"/>
<g clip-path="url(#clip2)">
<path d="M73.7391 289.897C76.487 273.528 92.058 251.249 99.5 242.155C100.539 240.866 111.522 245.565 116.674 252.386C120.796 257.842 133.275 292.17 139 308.652C135.565 312.062 128.352 320.588 126.978 327.408C125.261 335.933 118.391 383.675 102.935 378.559C87.4783 373.444 91.4348 341.852 88 338.442C77 327.521 81.7804 310.522 68 313.942C71.4348 311.1 70.9913 306.265 73.7391 289.897Z" fill="#8A8585" stroke="#1A1616" stroke-width="3" stroke-linecap="round" stroke-linejoin="round"/>
<path d="M92.5 330.442C94.1 322.442 93.1667 310.442 92.5 305.442L106 251.442L99.5 242.155C92.064 251.22 76.5014 273.46 73.7391 289.897C70.9913 306.265 71.4348 311.1 68 313.942C81.7804 310.521 77 329.521 88 340.442C88.8333 340.442 90.9 338.442 92.5 330.442Z" fill="#524F4F" stroke="#1A1616" stroke-width="3" stroke-linecap="round" stroke-linejoin="round"/>
<path d="M117 332.942C116.2 326.942 115.333 302.442 115 290.942C115.225 290.109 115.674 287.042 115.674 281.442C115.674 274.442 109 246.942 111 246.942C112.6 246.942 114.782 249.904 115.674 251.385C119.796 256.842 132.275 291.17 138 307.652C134.565 311.062 127.352 319.588 125.978 326.408L122 346.942C119 343.442 118 340.442 117 332.942Z" fill="#524F4F" stroke="#1A1616" stroke-width="3" stroke-linecap="round" stroke-linejoin="round"/>
<path d="M86.1962 247.884C86.1962 254.284 81.5 272.884 88.5 282.884C95.5 292.884 95.8648 303.384 103.598 303.384C111.331 303.384 107.028 300.884 111.331 292.884C119.117 278.412 114.506 254.808 111.331 238.638C109.413 227.428 107.696 212.272 107.696 211.138C107.696 209.638 106.696 200.138 106.696 198.138C106.696 196.138 107.196 191.638 107.196 189.138C107.196 186.638 103.696 177.138 103.196 175.638C102.696 174.138 98.1962 168.638 97.1962 166.138C96.1962 163.638 95 164.638 93 162.638C90.1712 159.809 86.1962 159.638 86.1962 159.638L84.6962 158.638C82.6962 157.638 80.1962 157.138 78.6962 158.138C77.1962 159.138 75.6962 160.638 76.6962 162.638L79.6962 167.638C79.1962 167.638 77.6962 168.638 77.1962 170.138C76.6962 171.638 76.1962 175.138 75.1962 177.138C74.1961 179.138 72.6962 181.638 72.1962 182.638C71.6962 183.638 70.6962 183.638 70.1962 186.638C69.6962 189.638 70.1962 189.638 71.1962 192.138C72.1962 194.638 73.6962 196.638 75.1962 198.638C76.6962 200.638 82.1962 203.638 83.6962 206.638C85.1962 209.638 86.1962 217.638 86.1962 221.638V247.884Z" fill="#9B8C8C" stroke="#1A1616" stroke-width="3" stroke-linecap="round"/>
</g>
<path fill-rule="evenodd" clip-rule="evenodd" d="M329.331 461.337C328.166 460.355 326.811 459.738 325.365 459.738C321.014 459.738 317.486 463.21 317.486 467.494C317.486 472.589 323.743 479.011 328.72 484.121C330.51 485.958 332.135 487.626 333.243 489C334.352 487.626 335.976 485.958 337.766 484.121C342.743 479.011 349 472.589 349 467.494C349 463.21 345.473 459.738 341.122 459.738C339.754 459.738 338.467 460.29 337.346 461.181C336.415 457.746 335.364 451.989 337.745 449.608C338.871 448.483 335.711 447.357 333.243 447.357C330.759 447.357 327.849 448.483 328.974 449.608C331.392 452.026 330.272 457.923 329.331 461.337ZM333.237 469.294C333.241 469.4 333.243 469.505 333.243 469.609C333.243 469.505 333.245 469.4 333.249 469.295L333.243 469.304L333.237 469.294Z" fill="#453B3B"/>
</g>
<path d="M28.3239 6H362.676V4H28.3239V6ZM379 22.3239V557.676H381V22.3239H379ZM362.676 574H28.3239V576H362.676V574ZM12 557.676V22.324H10V557.676H12ZM28.3239 574C19.3085 574 12 566.692 12 557.676H10C10 567.796 18.2039 576 28.3239 576V574ZM379 557.676C379 566.691 371.692 574 362.676 574V576C372.796 576 381 567.796 381 557.676H379ZM362.676 6C371.692 6 379 13.3085 379 22.3239H381C381 12.2039 372.796 4 362.676 4V6ZM28.3239 4C18.2039 4 10 12.2039 10 22.324H12C12 13.3085 19.3085 6 28.3239 6V4Z" fill="#F7E2E2"/>
</g>
<defs>
<filter id="filter0_d" x="0" y="0" width="391" height="592" filterUnits="userSpaceOnUse" color-interpolation-filters="sRGB">
<feFlood flood-opacity="0" result="BackgroundImageFix"/>
<feColorMatrix in="SourceAlpha" type="matrix" values="0 0 0 0 0 0 0 0 0 0 0 0 0 0 0 0 0 0 127 0"/>
<feMorphology radius="3" operator="dilate" in="SourceAlpha" result="effect1_dropShadow"/>
<feOffset dy="6"/>
<feGaussianBlur stdDeviation="4"/>
<feColorMatrix type="matrix" values="0 0 0 0 0.279463 0 0 0 0 0.0711028 0 0 0 0 0.0740583 0 0 0 0.05 0"/>
<feBlend mode="normal" in2="BackgroundImageFix" result="effect1_dropShadow"/>
<feBlend mode="normal" in="SourceGraphic" in2="effect1_dropShadow" result="shape"/>
</filter>
<clipPath id="clip0">
<path d="M11 22.324C11 12.7562 18.7562 5 28.3239 5H362.676C372.244 5 380 12.7562 380 22.3239V557.676C380 567.244 372.244 575 362.676 575H28.3239C18.7562 575 11 567.244 11 557.676V22.324Z" fill="white"/>
</clipPath>
<clipPath id="clip1">
<rect width="63" height="178" fill="white" transform="translate(259 116)"/>
</clipPath>
<clipPath id="clip2">
<rect width="63" height="178" fill="white" transform="translate(133 464) rotate(-180)"/>
</clipPath>
</defs>
</svg>
