<svg width="391" height="592" viewBox="0 0 391 592" fill="none" xmlns="http://www.w3.org/2000/svg">
<g filter="url(#filter0_d)">
<g clip-path="url(#clip0)">
<path d="M11 22.324C11 12.7562 18.7562 5 28.3239 5H362.676C372.244 5 380 12.7562 380 22.3239V557.676C380 567.244 372.244 575 362.676 575H28.3239C18.7562 575 11 567.244 11 557.676V22.324Z" fill="#FBEEEE"/>
<path d="M81.5993 50.6025C81.5993 54.6487 80.7148 58.262 78.9458 61.4424C77.1956 64.6229 74.6927 67.1729 71.4369 69.0924C68.1812 70.9932 64.3797 72.0941 60.0325 72.3952C60.6159 72.5081 61.5004 72.8375 62.686 73.3832C64.455 74.1548 66.0546 74.757 67.4849 75.1899C68.9152 75.6415 70.3454 75.8674 71.7757 75.8674C72.5096 75.8674 73.1024 75.8485 73.5541 75.8109L70.957 82.5858C70.8441 82.6235 70.4395 82.6423 69.7432 82.6423C68.3129 82.6423 66.9391 82.3976 65.6218 81.9083C64.3233 81.4378 62.6484 80.7133 60.5971 79.7347C58.941 78.8878 57.5389 78.248 56.391 77.8151C55.2618 77.4011 54.1609 77.1941 53.0882 77.1941C50.8487 77.1941 48.7315 78.041 46.7367 79.7347L44.0267 75.5286C45.7957 73.402 48.1858 72.1506 51.1968 71.7742C47.7153 70.8897 44.7136 69.45 42.1918 67.4552C39.6701 65.4415 37.7223 62.995 36.3485 60.1156C34.9935 57.2175 34.316 54.0464 34.316 50.6025C34.316 46.2929 35.3134 42.482 37.3082 39.1698C39.3219 35.8576 42.1166 33.2982 45.6922 31.4916C49.2679 29.6661 53.3705 28.7534 58 28.7534C62.6672 28.7534 66.7886 29.6943 70.3642 31.5763C73.9587 33.4394 76.7251 36.027 78.6635 39.3392C80.6207 42.6514 81.5993 46.4058 81.5993 50.6025ZM58 64.7734C60.39 64.7734 62.4696 64.1524 64.2386 62.9103C66.0264 61.6494 67.3908 59.9557 68.3318 57.8291C69.2727 55.6837 69.7432 53.2749 69.7432 50.6025C69.7432 47.949 69.2633 45.559 68.3035 43.4324C67.3438 41.287 65.9605 39.6121 64.1539 38.4077C62.3661 37.1844 60.2959 36.5728 57.9435 36.5728C55.5535 36.5728 53.4834 37.2032 51.7332 38.4641C49.983 39.7062 48.628 41.3905 47.6682 43.5171C46.7273 45.6248 46.2568 47.9678 46.2568 50.5461C46.2568 53.2184 46.7555 55.6461 47.7529 57.8291C48.7692 59.9933 50.1618 61.6965 51.9308 62.9385C53.6998 64.1618 55.7229 64.7734 58 64.7734Z" fill="#732A2A"/>
<mask id="mask0" mask-type="alpha" maskUnits="userSpaceOnUse" x="85" y="58" width="229" height="235">
<rect x="85" y="58.9548" width="229" height="234.033" fill="#C4C4C4"/>
</mask>
<g mask="url(#mask0)">
<path d="M107.196 229.503C115.03 217.553 130.396 195.444 139.196 186.68L292.357 185.187C293.242 187.806 294.415 190.384 296.696 192.656C303.196 199.129 296.696 210.827 296.696 210.827L314.196 294.734L80.6963 301.705L107.196 229.503Z" fill="#F4B9B9"/>
<path d="M215.196 183.195C187.696 183.195 176.196 180.705 159.196 174.232L138.196 187.676C165.196 201.121 192.498 204.986 215.196 204.986C242.691 204.986 268.939 198.706 292.696 185.187C291.863 182.199 289.696 176.224 287.696 174.232C285.696 172.24 283.196 170.327 282.196 169.37C268.326 175.862 244.921 183.195 215.196 183.195Z" fill="#732A2A"/>
<path d="M161.696 175.708C173.943 179.67 191.843 183.195 215.196 183.195C244.921 183.195 268.326 175.862 282.196 169.37" stroke="#440F0F" stroke-width="3" stroke-linecap="round"/>
<path d="M185.696 154.812C186.412 156.594 189.945 160.671 190.796 165.767M190.196 172.24C191.049 169.975 191.134 167.791 190.796 165.767M190.796 165.767C174.809 167.59 150.87 175.055 139.196 186.68C130.396 195.444 115.03 217.553 107.196 229.503" stroke="#440F0F" stroke-width="3" stroke-linecap="round"/>
<path d="M150.196 192.656C171 201.417 192.498 204.986 215.196 204.986C242.691 204.986 268.939 198.706 292.696 185.187" stroke="#440F0F" stroke-width="3" stroke-linecap="round"/>
<path d="M148.196 218.051L133.196 267.845" stroke="#440F0F" stroke-width="3" stroke-linecap="round"/>
<path d="M230.696 161.783C234.863 162.447 244.596 163.775 250.196 163.775C255.796 163.775 266.863 164.439 271.696 164.771" stroke="#440F0F" stroke-width="3" stroke-linecap="round"/>
</g>
<path d="M128.994 325.219C129.529 323.617 131.887 322.326 133 321.881L121.651 284.497L120.983 243.774L110.302 221.076L80.9282 261.131L78.2578 326.555C78.0352 327.89 77.7237 333.23 78.2578 343.912C78.9254 357.263 86.2688 377.291 86.9364 381.964C87.604 386.637 89.6067 387.305 90.2743 393.313C90.9419 399.321 90.9419 398.654 92.9447 401.992C94.9474 405.33 94.9474 407.332 94.9474 410.67C94.9474 414.008 97.6178 413.341 98.9529 415.343C100.288 417.346 100.288 421.352 100.288 422.687C100.288 424.022 99.6205 428.028 100.956 430.03C102.291 432.033 102.291 432.701 102.291 436.039C102.291 439.377 102.958 439.377 103.626 440.712C104.294 442.047 103.626 442.715 104.294 444.05C104.961 445.385 106.296 444.717 106.296 442.047C106.296 439.377 107.632 441.379 107.632 434.703C107.632 428.028 113.64 416.011 113.64 414.008C113.64 412.006 114.975 410.67 114.975 408.668C114.975 406.665 114.307 405.997 114.975 403.995C115.643 401.992 117.645 399.989 116.978 397.319C116.31 394.648 115.643 393.313 116.978 391.31C118.313 389.308 118.313 382.632 118.313 379.961C118.313 377.291 116.978 363.939 116.978 360.601C116.978 357.263 118.313 357.263 118.981 354.593C119.648 351.923 121.651 351.923 121.651 347.917C121.651 343.912 120.316 345.247 120.983 342.577C121.651 339.906 124.321 339.239 124.321 336.568C124.321 333.898 124.989 334.566 127.659 330.56C130.33 326.555 128.327 327.222 128.994 325.219Z" fill="#884747" stroke="#440F0F" stroke-width="3" stroke-linecap="round"/>
<path d="M105.629 383.967C107.231 359.4 102.736 285.609 100.288 251.785C99.3981 253.343 97.6179 257.66 97.6179 262.466C97.6179 268.475 100.288 341.241 100.288 363.272V424.022C101.401 420.907 104.027 408.534 105.629 383.967Z" fill="#732A2A"/>
<path d="M116.31 355.928L112.972 289.17L111.637 273.815C110.97 294.51 109.635 339.506 109.635 353.926C109.635 368.345 111.86 372.84 112.972 373.286L114.975 361.937C114.975 361.937 114.308 360.601 114.975 358.599C115.643 356.596 116.31 355.928 116.31 355.928Z" fill="#732A2A"/>
<path d="M93.6124 327.89V244.441L83.5986 259.128C84.7113 270.477 86.9366 294.51 86.9366 299.851C86.9366 306.527 90.9421 355.261 92.2773 365.274C93.3454 373.286 90.9421 385.97 89.6069 391.31C90.2745 390.198 92.0102 386.771 93.6124 381.964C95.6152 375.956 93.6124 339.239 93.6124 327.89Z" fill="#732A2A"/>
<path d="M93.6125 244.441C93.6125 268.475 93.6125 318.81 93.6125 327.89C93.6125 339.239 95.6152 375.956 93.6125 381.964C92.0102 386.771 90.2745 390.198 89.6069 391.31" stroke="#440F0F" stroke-width="3" stroke-linecap="round"/>
<path d="M100.956 253.788C104.294 277.821 104.294 329.492 104.294 338.571C104.294 349.92 106.964 388.64 105.629 401.992C105.125 407.033 101.623 420.907 100.956 422.019" stroke="#440F0F" stroke-width="3" stroke-linecap="round"/>
<path d="M111.637 288.502C109.635 319.211 105.733 347.155 111.637 371.95" stroke="#440F0F" stroke-width="3" stroke-linecap="round"/>
<path d="M114.307 244.442C114.307 232.158 111.192 223.746 109.634 221.076C109.634 219.963 110.569 218.406 114.307 221.076C118.98 224.414 124.321 247.112 124.989 269.81C125.523 287.968 130.107 311.2 132.332 320.546C128.104 319.656 118.58 314.004 114.307 298.516C108.967 279.156 114.307 259.796 114.307 244.442Z" fill="#732A2A"/>
<path d="M87.6039 306.527C88.138 301.186 85.6012 274.038 84.266 261.131V241.102C83.5984 242.659 75.7209 268.608 73.5846 285.164C70.9143 305.859 78.2577 337.904 78.2577 326.555C78.2577 315.206 86.9364 313.203 87.6039 306.527Z" fill="#732A2A"/>
<path d="M114.307 244.442C114.307 232.158 111.192 223.746 109.634 221.076C109.634 219.963 110.569 218.406 114.307 221.076C118.98 224.414 124.321 247.112 124.989 269.81C125.523 287.968 130.107 311.2 132.332 320.546C128.104 319.656 118.58 314.004 114.307 298.516C108.967 279.156 114.307 259.796 114.307 244.442Z" stroke="#440F0F" stroke-width="3" stroke-linecap="round"/>
<path d="M87.6039 306.527C88.138 301.186 85.6012 274.038 84.266 261.131V241.102C83.5984 242.659 75.7209 268.608 73.5846 285.164C70.9143 305.859 78.2577 337.904 78.2577 326.555C78.2577 315.206 86.9364 313.203 87.6039 306.527Z" stroke="#440F0F" stroke-width="3" stroke-linecap="round"/>
<path d="M109.635 221.076C111.192 223.746 114.308 232.158 114.308 244.441C114.308 259.796 108.967 279.156 114.308 298.516C118.58 314.004 128.104 319.656 132.332 320.546" stroke="#440F0F" stroke-width="3" stroke-linecap="round"/>
<path d="M129.994 325.219C130.529 323.617 132.887 322.326 134 321.881L122.651 284.497L121.983 243.774L111.302 221.076L81.9282 261.131L79.2578 326.555C79.0352 327.89 78.7237 333.23 79.2578 343.912C79.9254 357.263 87.2688 377.291 87.9364 381.964C88.604 386.637 90.6067 387.305 91.2743 393.313C91.9419 399.321 91.9419 398.654 93.9447 401.992C95.9474 405.33 95.9474 407.332 95.9474 410.67C95.9474 414.008 98.6178 413.341 99.9529 415.343C101.288 417.346 101.288 421.352 101.288 422.687C101.288 424.022 100.621 428.028 101.956 430.03C103.291 432.033 103.291 432.701 103.291 436.039C103.291 439.377 103.958 439.377 104.626 440.712C105.294 442.047 104.626 442.715 105.294 444.05C105.961 445.385 107.296 444.717 107.296 442.047C107.296 439.377 108.632 441.379 108.632 434.703C108.632 428.028 114.64 416.011 114.64 414.008C114.64 412.006 115.975 410.67 115.975 408.668C115.975 406.665 115.307 405.997 115.975 403.995C116.643 401.992 118.645 399.989 117.978 397.319C117.31 394.648 116.643 393.313 117.978 391.31C119.313 389.308 119.313 382.632 119.313 379.961C119.313 377.291 117.978 363.939 117.978 360.601C117.978 357.263 119.313 357.263 119.981 354.593C120.648 351.923 122.651 351.923 122.651 347.917C122.651 343.912 121.316 345.247 121.983 342.577C122.651 339.906 125.321 339.239 125.321 336.568C125.321 333.898 125.989 334.566 128.659 330.56C131.33 326.555 129.327 327.222 129.994 325.219Z" fill="#F4B9B9" stroke="#440F0F" stroke-width="3" stroke-linecap="round"/>
<path d="M106.629 383.967C108.231 359.4 103.736 285.609 101.288 251.785C100.398 253.343 98.6179 257.66 98.6179 262.466C98.6179 268.475 101.288 341.241 101.288 363.272V424.022C102.401 420.907 105.027 408.534 106.629 383.967Z" fill="#C48484"/>
<path d="M117.31 355.928L113.972 289.17L112.637 273.815C111.97 294.51 110.634 339.506 110.634 353.926C110.634 368.345 112.86 372.84 113.972 373.286L115.975 361.937C115.975 361.937 115.308 360.601 115.975 358.599C116.643 356.596 117.31 355.928 117.31 355.928Z" fill="#C48484"/>
<path d="M94.6124 327.89V244.441L84.5986 259.128C85.7113 270.477 87.9366 294.51 87.9366 299.851C87.9366 306.527 91.9421 355.261 93.2773 365.274C94.3454 373.286 91.9421 385.97 90.6069 391.31C91.2745 390.198 93.0102 386.771 94.6124 381.964C96.6152 375.956 94.6124 339.239 94.6124 327.89Z" fill="#C48484"/>
<path d="M94.6123 244.441C94.6123 268.475 94.6123 318.81 94.6123 327.89C94.6123 339.239 96.6151 375.956 94.6123 381.964C93.0101 386.771 91.2744 390.198 90.6068 391.31" stroke="#440F0F" stroke-width="3" stroke-linecap="round"/>
<path d="M101.956 253.788C105.294 277.821 105.294 329.492 105.294 338.571C105.294 349.92 107.964 388.64 106.629 401.992C106.125 407.033 102.623 420.907 101.956 422.019" stroke="#440F0F" stroke-width="3" stroke-linecap="round"/>
<path d="M112.637 288.502C110.634 319.211 106.733 347.156 112.637 371.95" stroke="#440F0F" stroke-width="3" stroke-linecap="round"/>
<path d="M115.307 244.442C115.307 232.158 112.192 223.746 110.634 221.076C110.634 219.963 111.569 218.406 115.307 221.076C119.98 224.414 125.321 247.112 125.989 269.81C126.523 287.968 131.107 311.2 133.332 320.546C129.104 319.656 119.58 314.004 115.307 298.516C109.967 279.156 115.307 259.796 115.307 244.442Z" fill="#A66969"/>
<path d="M88.6039 306.527C89.138 301.186 86.6012 274.038 85.266 261.131V241.102C84.5984 242.659 76.7209 268.608 74.5846 285.164C71.9143 305.859 79.2577 337.904 79.2577 326.555C79.2577 315.206 87.9364 313.203 88.6039 306.527Z" fill="#A66969"/>
<path d="M115.307 244.442C115.307 232.158 112.192 223.746 110.634 221.076C110.634 219.963 111.569 218.406 115.307 221.076C119.98 224.414 125.321 247.112 125.989 269.81C126.523 287.968 131.107 311.2 133.332 320.546C129.104 319.656 119.58 314.004 115.307 298.516C109.967 279.156 115.307 259.796 115.307 244.442Z" stroke="#440F0F" stroke-width="3" stroke-linecap="round"/>
<path d="M88.6039 306.527C89.138 301.186 86.6012 274.038 85.266 261.131V241.102C84.5984 242.659 76.7209 268.608 74.5846 285.164C71.9143 305.859 79.2577 337.904 79.2577 326.555C79.2577 315.206 87.9364 313.203 88.6039 306.527Z" stroke="#440F0F" stroke-width="3" stroke-linecap="round"/>
<path d="M110.634 221.076C112.192 223.746 115.308 232.158 115.308 244.441C115.308 259.796 109.967 279.156 115.308 298.516C119.58 314.004 129.104 319.656 133.332 320.546" stroke="#440F0F" stroke-width="3" stroke-linecap="round"/>
<path d="M86.1962 228.602C86.1962 235.002 81.5001 253.602 88.5001 263.602C95.5001 273.602 95.8648 284.102 103.598 284.102C111.331 284.102 107.028 281.602 111.331 273.602C119.117 259.129 114.506 235.525 111.331 219.355C109.413 208.145 107.696 192.99 107.696 191.855C107.696 190.355 106.696 180.855 106.696 178.855C106.696 176.855 107.196 172.355 107.196 169.855C107.196 167.355 103.696 157.855 103.196 156.355C102.696 154.855 98.1962 149.355 97.1962 146.855C96.1962 144.355 97.1962 143.355 94.0001 143.355C89.9996 143.355 86.1962 140.355 86.1962 140.355L84.6963 139.355C82.6963 138.355 80.1963 137.855 78.6963 138.855C77.1963 139.855 75.6963 141.355 76.6963 143.355L79.6962 148.355C79.1962 148.355 75.6962 148.5 75.1962 150C74.6962 151.5 73.1963 154.355 72.1962 156.355C71.1962 158.355 72.0001 161.5 71.5001 162.5C71.0001 163.5 70.5 163.5 70 166.5C69.5 169.5 70.1962 170.355 71.1962 172.855C72.1962 175.355 73.6962 177.355 75.1962 179.355C76.6962 181.355 82.1962 184.355 83.6962 187.355C85.1962 190.355 86.1962 198.355 86.1962 202.355V228.602Z" fill="#813D3D" stroke="#440F0F" stroke-width="3" stroke-linecap="round"/>
<rect x="106.899" y="132.564" width="13" height="61" rx="4" transform="rotate(45.5359 106.899 132.564)" fill="#CA9999" stroke="#440F0F" stroke-width="3" stroke-linecap="round" stroke-linejoin="round"/>
<rect x="97.1791" y="116.425" width="50" height="7" rx="3.5" transform="rotate(45.5359 97.1791 116.425)" fill="#A96969" stroke="#440F0F" stroke-width="3" stroke-linecap="round" stroke-linejoin="round"/>
<rect x="63.552" y="173.286" width="15" height="10" rx="2" transform="rotate(45.5359 63.552 173.286)" fill="#CA9999" stroke="#440F0F" stroke-width="3" stroke-linecap="round" stroke-linejoin="round"/>
<path d="M211.098 23.2899C211.429 22.9648 211.815 22.6997 212.237 22.5068L235.968 11.659C237.669 10.8812 239.412 12.6567 238.602 14.3433L227.313 37.8671C227.112 38.2856 226.839 38.6659 226.508 38.9911L124.516 139.093C122.94 140.64 120.407 140.617 118.86 139.04L109.053 129.048C107.506 127.472 107.529 124.939 109.106 123.392L211.098 23.2899Z" fill="#FDD3D3" stroke="#440F0F" stroke-width="3" stroke-linecap="round" stroke-linejoin="round"/>
<rect x="53.7995" y="182.688" width="10.843" height="10.843" transform="rotate(0.535891 53.7995 182.688)" fill="#732A2A" stroke="#440F0F" stroke-width="3"/>
<rect x="105.211" y="128.243" width="14.5709" height="14.5709" transform="rotate(0.535891 105.211 128.243)" fill="#732A2A" stroke="#440F0F" stroke-width="3"/>
<path d="M126.089 122.136L221.724 28.2742" stroke="#440F0F" stroke-width="3" stroke-linecap="round"/>
<path d="M78.6486 175.025C77.9406 174.479 74.1594 171.937 72.3573 170.734L72.1463 166.616C73.1183 164.259 75.2735 163.663 75.6678 164.25L74.9569 157.486L79.3357 148.155C79.0056 147.241 78.226 144.982 77.7491 143.258C77.1529 141.103 78.9137 139.92 80.5781 139.227C82.2426 138.535 84.5996 139.507 86.3696 140.873C88.1396 142.239 89.9188 146.155 91.1982 147.425C92.4776 148.696 94.3531 152.121 91.5148 153.602C89.2441 154.787 86.4428 152.946 85.326 151.878C86.9959 153.793 89.2311 156.543 89.7632 157.335C90.5519 158.508 94.1975 163.3 95.3806 165.061C96.5636 166.822 95.7842 168.197 94.514 169.477C93.4979 170.5 91.2439 170.562 90.2439 170.465C91.4386 172.012 92.6646 173.708 92.4737 174.681C92.1848 176.153 89.7408 178.221 88.7596 178.029C87.9745 177.875 85.7423 175.229 84.9215 174.218C85.2195 175.296 83.8531 177.066 82.6793 177.855C81.5054 178.643 79.5336 175.709 78.6486 175.025Z" fill="#813D3D"/>
<path d="M72.3847 169.016C74.1868 170.219 77.968 172.762 78.676 173.308C79.561 173.991 81.5328 176.926 82.7066 176.137C83.8805 175.349 85.2469 173.579 84.9488 172.501C84.6507 171.423 82.6789 168.489 81.3996 167.219C80.1202 165.949 76.0895 163.119 75.6952 162.533C75.3008 161.946 73.1457 162.542 72.1736 164.899M85.3432 173.088C86.164 174.098 88.0019 176.157 88.7869 176.311C89.7682 176.504 92.2122 174.436 92.501 172.964C92.692 171.991 91.466 170.294 90.2712 168.747M74.9843 155.769C75.3434 155.67 76.3755 155.431 77.63 155.269C79.1982 155.067 80.4776 156.338 80.872 156.924C81.2663 157.511 87.4706 164.843 88.6537 166.604C89.0546 167.201 89.6588 167.954 90.2712 168.747M90.2712 168.747C91.2712 168.844 93.5253 168.783 94.5414 167.759C95.8115 166.48 96.591 165.104 95.4079 163.344C94.2248 161.583 90.5793 156.791 89.7906 155.617C89.2585 154.825 87.0232 152.076 85.3534 150.161M79.3631 146.438C79.0329 145.524 78.2533 143.265 77.7764 141.54C77.1802 139.385 78.941 138.202 80.6055 137.51C82.27 136.817 84.6269 137.789 86.3969 139.156C88.1669 140.522 89.9462 144.438 91.2255 145.708C92.5049 146.978 94.3804 150.404 91.5421 151.885C89.2714 153.07 86.4702 151.229 85.3534 150.161M85.3534 150.161C84.5481 149.237 83.8742 148.508 83.5863 148.285C83.0926 147.339 81.9089 145.409 81.1239 145.255" stroke="#440F0F" stroke-width="3" stroke-linecap="round"/>
<path d="M101.667 137C98.5311 144.126 101.667 155.39 101.667 162.5C101.667 166.046 102 185.5 106 181.5L112 157.5L107 137.5L101.667 137Z" fill="#813D3D"/>
<path d="M111.331 219.355C109.413 208.145 107.696 192.99 107.696 191.855C107.696 190.355 106.696 180.855 106.696 178.855C106.696 176.855 108.5 173 108.5 170.5C108.5 168 110.5 161.5 111.5 159C113.212 154.72 105.644 138.222 105.5 137.5C105 135 102.776 135.336 101 138C98 142.5 105.053 152.93 102.196 156.5C100.196 159 101 160.5 101 166.5" stroke="#440F0F" stroke-width="3" stroke-linecap="round"/>
<g clip-path="url(#clip1)">
<path d="M263.006 255.498C262.471 257.1 260.113 258.391 259 258.836L270.349 296.221L271.017 336.943L281.698 359.641L311.072 319.586L313.742 254.163C313.965 252.828 314.276 247.487 313.742 236.806C313.075 223.454 305.731 203.426 305.064 198.753C304.396 194.08 302.393 193.412 301.726 187.404C301.058 181.396 301.058 182.063 299.055 178.726C297.053 175.388 297.053 173.385 297.053 170.047C297.053 166.709 294.382 167.377 293.047 165.374C291.712 163.371 291.712 159.366 291.712 158.03C291.712 156.695 292.379 152.69 291.044 150.687C289.709 148.684 289.709 148.017 289.709 144.679C289.709 141.341 289.042 141.341 288.374 140.006C287.706 138.67 288.374 138.003 287.706 136.668C287.039 135.332 285.704 136 285.704 138.67C285.704 141.341 284.368 139.338 284.368 146.014C284.368 152.69 278.36 164.706 278.36 166.709C278.36 168.712 277.025 170.047 277.025 172.05C277.025 174.052 277.693 174.72 277.025 176.723C276.357 178.726 274.355 180.728 275.022 183.399C275.69 186.069 276.357 187.404 275.022 189.407C273.687 191.41 273.687 198.086 273.687 200.756C273.687 203.426 275.022 216.778 275.022 220.116C275.022 223.454 273.687 223.454 273.019 226.124C272.352 228.794 270.349 228.794 270.349 232.8C270.349 236.806 271.684 235.47 271.017 238.141C270.349 240.811 267.679 241.479 267.679 244.149C267.679 246.819 267.011 246.152 264.341 250.157C261.67 254.163 263.673 253.495 263.006 255.498Z" fill="#884747" stroke="#440F0F" stroke-width="3" stroke-linecap="round"/>
<path d="M286.371 196.75C284.769 221.317 289.264 295.108 291.712 328.932C292.602 327.375 294.382 323.058 294.382 318.251C294.382 312.243 291.712 239.476 291.712 217.445V156.695C290.599 159.811 287.973 172.183 286.371 196.75Z" fill="#732A2A"/>
<path d="M275.69 224.789L279.028 291.548L280.363 306.902C281.03 286.207 282.365 241.212 282.365 226.792C282.365 212.372 280.14 207.877 279.028 207.432L277.025 218.781C277.025 218.781 277.692 220.116 277.025 222.119C276.357 224.121 275.69 224.789 275.69 224.789Z" fill="#732A2A"/>
<path d="M298.388 252.828V336.276L308.401 321.589C307.289 310.24 305.063 286.207 305.063 280.866C305.063 274.19 301.058 225.457 299.723 215.443C298.655 207.432 301.058 194.748 302.393 189.407C301.726 190.52 299.99 193.947 298.388 198.753C296.385 204.761 298.388 241.479 298.388 252.828Z" fill="#732A2A"/>
<path d="M298.388 336.276C298.388 312.243 298.388 261.907 298.388 252.828C298.388 241.479 296.385 204.761 298.388 198.753C299.99 193.947 301.725 190.52 302.393 189.407" stroke="#440F0F" stroke-width="3" stroke-linecap="round"/>
<path d="M291.044 326.93C287.706 302.897 287.706 251.225 287.706 242.146C287.706 230.797 285.036 192.077 286.371 178.726C286.875 173.684 290.377 159.811 291.044 158.698" stroke="#440F0F" stroke-width="3" stroke-linecap="round"/>
<path d="M280.363 292.215C282.365 261.506 286.267 233.562 280.363 208.767" stroke="#440F0F" stroke-width="3" stroke-linecap="round"/>
<path d="M277.693 336.276C277.693 348.559 280.808 356.971 282.366 359.641C282.366 360.754 281.431 362.312 277.693 359.641C273.02 356.303 267.679 333.605 267.011 310.907C266.477 292.749 261.893 269.517 259.668 260.171C263.896 261.061 273.42 266.713 277.693 282.201C283.033 301.561 277.693 320.921 277.693 336.276Z" fill="#732A2A"/>
<path d="M304.396 274.19C303.862 279.531 306.399 306.68 307.734 319.586V339.616C308.402 338.058 316.279 312.109 318.415 295.553C321.086 274.858 313.742 242.814 313.742 254.163C313.742 265.512 305.064 267.514 304.396 274.19Z" fill="#732A2A"/>
<path d="M277.693 336.276C277.693 348.559 280.808 356.971 282.366 359.641C282.366 360.754 281.431 362.312 277.693 359.641C273.02 356.303 267.679 333.605 267.011 310.907C266.477 292.749 261.893 269.517 259.668 260.171C263.896 261.061 273.42 266.713 277.693 282.201C283.033 301.561 277.693 320.921 277.693 336.276Z" stroke="#440F0F" stroke-width="3" stroke-linecap="round"/>
<path d="M304.396 274.19C303.862 279.531 306.399 306.68 307.734 319.586V339.616C308.402 338.058 316.279 312.109 318.415 295.553C321.086 274.858 313.742 242.814 313.742 254.163C313.742 265.512 305.064 267.514 304.396 274.19Z" stroke="#440F0F" stroke-width="3" stroke-linecap="round"/>
<path d="M282.365 359.641C280.808 356.971 277.692 348.559 277.692 336.276C277.692 320.921 283.033 301.561 277.692 282.201C273.42 266.713 263.896 261.061 259.668 260.171" stroke="#440F0F" stroke-width="3" stroke-linecap="round"/>
<path d="M262.006 255.498C261.471 257.1 259.113 258.391 258 258.836L269.349 296.221L270.017 336.943L280.698 359.641L310.072 319.586L312.742 254.163C312.965 252.828 313.276 247.487 312.742 236.806C312.075 223.454 304.731 203.426 304.064 198.753C303.396 194.08 301.393 193.412 300.726 187.404C300.058 181.396 300.058 182.063 298.055 178.726C296.053 175.388 296.053 173.385 296.053 170.047C296.053 166.709 293.382 167.377 292.047 165.374C290.712 163.371 290.712 159.366 290.712 158.03C290.712 156.695 291.379 152.69 290.044 150.687C288.709 148.684 288.709 148.017 288.709 144.679C288.709 141.341 288.042 141.341 287.374 140.006C286.706 138.67 287.374 138.003 286.706 136.668C286.039 135.332 284.704 136 284.704 138.67C284.704 141.341 283.368 139.338 283.368 146.014C283.368 152.69 277.36 164.706 277.36 166.709C277.36 168.712 276.025 170.047 276.025 172.05C276.025 174.052 276.693 174.72 276.025 176.723C275.357 178.726 273.355 180.728 274.022 183.399C274.69 186.069 275.357 187.404 274.022 189.407C272.687 191.41 272.687 198.086 272.687 200.756C272.687 203.426 274.022 216.778 274.022 220.116C274.022 223.454 272.687 223.454 272.019 226.124C271.352 228.794 269.349 228.794 269.349 232.8C269.349 236.806 270.684 235.47 270.017 238.141C269.349 240.811 266.679 241.479 266.679 244.149C266.679 246.819 266.011 246.152 263.341 250.157C260.67 254.163 262.673 253.495 262.006 255.498Z" fill="#F4B9B9" stroke="#440F0F" stroke-width="3" stroke-linecap="round"/>
<path d="M285.371 196.75C283.769 221.317 288.264 295.108 290.712 328.932C291.602 327.375 293.382 323.058 293.382 318.251C293.382 312.243 290.712 239.476 290.712 217.445V156.695C289.599 159.811 286.973 172.183 285.371 196.75Z" fill="#C48484"/>
<path d="M274.69 224.789L278.028 291.548L279.363 306.902C280.03 286.207 281.366 241.212 281.366 226.792C281.366 212.372 279.14 207.877 278.028 207.432L276.025 218.781C276.025 218.781 276.692 220.116 276.025 222.119C275.357 224.121 274.69 224.789 274.69 224.789Z" fill="#C48484"/>
<path d="M297.388 252.828V336.276L307.401 321.589C306.289 310.24 304.063 286.207 304.063 280.866C304.063 274.19 300.058 225.457 298.723 215.443C297.655 207.432 300.058 194.748 301.393 189.407C300.726 190.52 298.99 193.947 297.388 198.753C295.385 204.761 297.388 241.479 297.388 252.828Z" fill="#C48484"/>
<path d="M297.388 336.276C297.388 312.243 297.388 261.907 297.388 252.828C297.388 241.479 295.385 204.761 297.388 198.753C298.99 193.947 300.726 190.52 301.393 189.407" stroke="#440F0F" stroke-width="3" stroke-linecap="round"/>
<path d="M290.044 326.93C286.706 302.897 286.706 251.225 286.706 242.146C286.706 230.797 284.036 192.077 285.371 178.726C285.875 173.684 289.377 159.811 290.044 158.698" stroke="#440F0F" stroke-width="3" stroke-linecap="round"/>
<path d="M279.363 292.215C281.366 261.506 285.267 233.562 279.363 208.767" stroke="#440F0F" stroke-width="3" stroke-linecap="round"/>
<path d="M276.693 336.276C276.693 348.559 279.808 356.971 281.366 359.641C281.366 360.754 280.431 362.312 276.693 359.641C272.02 356.303 266.679 333.605 266.011 310.907C265.477 292.749 260.893 269.517 258.668 260.171C262.896 261.061 272.42 266.713 276.693 282.201C282.033 301.561 276.693 320.921 276.693 336.276Z" fill="#A66969"/>
<path d="M303.396 274.19C302.862 279.531 305.399 306.68 306.734 319.586V339.616C307.402 338.058 315.279 312.109 317.415 295.553C320.086 274.858 312.742 242.814 312.742 254.163C312.742 265.512 304.064 267.514 303.396 274.19Z" fill="#A66969"/>
<path d="M276.693 336.276C276.693 348.559 279.808 356.971 281.366 359.641C281.366 360.754 280.431 362.312 276.693 359.641C272.02 356.303 266.679 333.605 266.011 310.907C265.477 292.749 260.893 269.517 258.668 260.171C262.896 261.061 272.42 266.713 276.693 282.201C282.033 301.561 276.693 320.921 276.693 336.276Z" stroke="#440F0F" stroke-width="3" stroke-linecap="round"/>
<path d="M303.396 274.19C302.862 279.531 305.399 306.68 306.734 319.586V339.616C307.402 338.058 315.279 312.109 317.415 295.553C320.086 274.858 312.742 242.814 312.742 254.163C312.742 265.512 304.064 267.514 303.396 274.19Z" stroke="#440F0F" stroke-width="3" stroke-linecap="round"/>
<path d="M281.366 359.641C279.808 356.971 276.692 348.559 276.692 336.276C276.692 320.921 282.033 301.561 276.692 282.201C272.42 266.713 262.896 261.061 258.668 260.171" stroke="#440F0F" stroke-width="3" stroke-linecap="round"/>
<path d="M305.804 352.116C305.804 345.716 310.5 327.116 303.5 317.116C296.5 307.116 296.135 296.616 288.402 296.616C280.669 296.616 284.972 299.116 280.669 307.116C272.883 321.588 277.494 345.192 280.669 361.362C282.587 372.572 284.304 387.728 284.304 388.862C284.304 390.362 285.304 399.862 285.304 401.862C285.304 403.862 284.804 408.362 284.804 410.862C284.804 413.362 288.304 422.862 288.804 424.362C289.304 425.862 293.804 431.362 294.804 433.862C295.804 436.362 294.804 437.362 298 437.362C302 437.362 305.804 440.362 305.804 440.362L307.304 441.362C309.304 442.362 311.804 442.862 313.304 441.862C314.804 440.862 316.304 439.362 315.304 437.362L312.304 432.362C312.804 432.362 316.304 432.217 316.804 430.717C317.304 429.217 318.804 426.362 319.804 424.362C320.804 422.362 320 419.217 320.5 418.217C321 417.217 321.5 417.217 322 414.217C322.5 411.217 321.804 410.362 320.804 407.862C319.804 405.362 318.304 403.362 316.804 401.362C315.304 399.362 309.804 396.362 308.304 393.362C306.804 390.362 305.804 382.362 305.804 378.362V352.116Z" fill="#813D3D" stroke="#440F0F" stroke-width="3" stroke-linecap="round"/>
</g>
<path d="M179.43 152.004C181.638 154.207 185.562 155.982 187.248 156.595C218.185 162.582 242.022 155.506 243.861 155.506C246.16 155.506 252.546 152.004 253.926 151.085C255.305 150.167 254.846 148.79 255.765 147.872C256.685 146.953 258.984 144.658 260.364 144.199C261.743 143.74 262.663 141.903 262.663 140.526C262.663 139.424 264.809 137.618 265.882 136.853C266.802 136.547 268.641 135.659 268.641 134.557C268.641 133.18 269.561 129.966 270.94 129.048C272.32 128.13 270.94 128.13 270.94 125.375C270.94 122.621 272.32 123.08 273.699 122.621C275.079 122.162 273.699 118.948 273.699 118.03C273.699 117.111 273.699 115.275 274.619 113.898C275.539 112.52 274.619 109.307 273.699 108.388C272.964 107.654 274.006 105.022 274.619 103.797C274.466 102.42 274.067 99.3899 273.699 98.288C273.24 96.9107 272.32 94.156 272.32 92.3196C272.32 90.4832 271.86 90.4832 270.94 89.1059C270.021 87.7285 268.641 86.8103 268.641 84.5148C268.641 82.2193 266.802 80.3828 265.882 79.4646C264.962 78.5464 263.123 76.2509 262.663 73.9553C262.203 71.6598 259.904 71.2007 258.984 70.7416C258.065 70.2825 256.225 67.5278 255.765 66.6096C255.305 65.6914 251.627 62.4777 250.247 62.4777C248.868 62.4777 247.488 59.723 246.108 58.8048C244.729 57.8866 241.05 58.3457 238.751 56.0502C236.452 53.7546 232.313 53.2955 230.933 53.2955C229.554 53.2955 225.415 52.3773 222.656 52.3773C219.897 52.3773 215.758 51 213.459 51C211.16 51 207.481 51.9182 205.182 53.2955C202.883 54.6729 198.744 53.2955 196.445 53.2955C194.146 53.2955 191.846 56.0502 189.547 58.3457C187.248 60.6412 185.868 59.723 183.109 61.1004C180.35 62.4777 179.43 63.855 177.591 65.6914C175.752 67.5278 176.211 67.5278 172.993 69.8234C169.774 72.1189 168.854 75.7918 168.854 76.71C168.854 77.6282 164.715 78.0873 164.715 80.3828C164.715 82.6784 163.336 84.5148 162.416 86.8103C161.496 89.1059 159.657 89.1059 159.657 93.2378C159.657 97.3698 159.657 99.2062 157.818 102.879C155.978 106.552 157.818 109.766 157.818 111.143C157.818 112.52 159.657 115.734 159.657 118.03C159.657 119.866 160.577 123.998 161.036 125.834C161.956 127.059 163.979 130.242 164.715 133.18C165.635 136.853 167.014 136.394 168.854 138.23C170.693 140.067 171.153 143.74 172.073 145.576C172.993 147.412 176.671 149.249 179.43 152.004Z" fill="#571D1D" stroke="#440F0F" stroke-width="3" stroke-linecap="round"/>
<path d="M178.696 123.939C178.696 119.159 180.196 110.495 180.196 106.511L180.696 105.018C180.696 105.304 181.5 103.959 185.5 101.28C187.5 98.2921 189.196 92.8147 189.696 92.3168C190.196 91.8188 201.5 88.8312 208.5 89.8271C215.5 90.8229 225.49 93.9702 230.5 97.2962C232 98.2921 232.363 102.655 233.008 106.511L234.963 110.344C235.931 111.533 236.931 112.678 237.196 114.724C237.767 119.131 235.5 125.181 237.196 127.425C237.196 127.425 237.996 129.716 237.196 132.902C236.196 136.886 236.696 143.857 234.196 148.837C232.863 152.82 230.196 160.887 230.196 161.285C233.696 161.949 241.796 163.277 246.196 163.277C251.696 163.277 267.696 164.273 271.196 165.269C274.696 166.264 279.196 169.75 281.196 169.75C283.196 169.75 243.196 185.186 211.696 183.195C180.196 181.203 166.863 176.555 160.196 174.232C165.863 172.24 178.296 167.958 182.696 166.762C187.096 165.567 190.196 165.269 191.196 165.269C191.196 165.269 190.196 161.783 189.696 160.787L187.696 156.804C183.696 154.314 182.696 143.857 180.196 139.376C178.196 135.79 178.363 127.591 178.696 123.939Z" fill="#813D3D"/>
<path d="M180.196 106.512C180.196 110.495 178.696 119.159 178.696 123.94C178.363 127.591 178.196 135.791 180.196 139.376C182.696 143.857 184.196 154.812 188.196 157.302C192.196 159.792 199.196 165.767 208.196 161.285C217.196 156.804 231.696 153.816 234.196 148.837C236.696 143.857 236.196 136.886 237.196 132.903C237.996 129.716 237.196 127.425 237.196 127.425" stroke="#440F0F" stroke-width="3" stroke-linecap="round"/>
<path d="M232.696 151.326C231.696 155.31 229.696 164.273 229.696 168.256C229.696 172.24 231.696 173.9 232.696 174.232" stroke="#440F0F" stroke-width="3" stroke-linecap="round"/>
<path d="M237.196 127.425C235.5 125.181 237.767 119.131 237.196 114.724M180 106.259C180 106.546 181.5 103.959 185.5 101.28C187.5 98.2921 189.196 92.8147 189.696 92.3168C190.196 91.8188 201.5 88.8312 208.5 89.8271C215.5 90.8229 225.49 93.9702 230.5 97.2962C232 98.2921 232.363 102.655 233.008 106.511M233.008 106.511C233.628 110.219 236.7 110.894 237.196 114.724M233.008 106.511L237.196 114.724" stroke="#440F0F" stroke-width="3" stroke-linecap="round"/>
<path d="M192.029 59.3884L189 85.7882C189 85.7882 202.201 82.8554 213.366 84.4643C224.531 86.0732 237.381 92.76 237.381 92.76L240.411 66.3602L226 70.5L216.931 54.3429L203.332 67.2335L192.029 59.3884Z" fill="#F4B9B9" stroke="#440F0F" stroke-width="3" stroke-linecap="round" stroke-linejoin="round"/>
<path d="M59 91L42 111L59 131L76 111L59 91Z" fill="#FD7072"/>
<path d="M310.401 529.397C310.401 525.351 311.285 521.738 313.054 518.558C314.804 515.377 317.307 512.827 320.563 510.908C323.819 509.007 327.62 507.906 331.968 507.605C331.384 507.492 330.5 507.163 329.314 506.617C327.545 505.845 325.945 505.243 324.515 504.81C323.085 504.358 321.655 504.133 320.224 504.133C319.49 504.133 318.898 504.151 318.446 504.189L321.043 497.414C321.156 497.377 321.56 497.358 322.257 497.358C323.687 497.358 325.061 497.602 326.378 498.092C327.677 498.562 329.352 499.287 331.403 500.265C333.059 501.112 334.461 501.752 335.609 502.185C336.738 502.599 337.839 502.806 338.912 502.806C341.151 502.806 343.268 501.959 345.263 500.265L347.973 504.471C346.204 506.598 343.814 507.849 340.803 508.226C344.285 509.11 347.286 510.55 349.808 512.545C352.33 514.559 354.278 517.005 355.652 519.884C357.007 522.783 357.684 525.954 357.684 529.397C357.684 533.707 356.687 537.518 354.692 540.83C352.678 544.142 349.883 546.702 346.308 548.508C342.732 550.334 338.63 551.247 334 551.247C329.333 551.247 325.211 550.306 321.636 548.424C318.041 546.561 315.275 543.973 313.336 540.661C311.379 537.349 310.401 533.594 310.401 529.397ZM334 515.227C331.61 515.227 329.53 515.848 327.761 517.09C325.974 518.351 324.609 520.044 323.668 522.171C322.727 524.316 322.257 526.725 322.257 529.397C322.257 532.051 322.737 534.441 323.696 536.568C324.656 538.713 326.039 540.388 327.846 541.592C329.634 542.816 331.704 543.427 334.056 543.427C336.447 543.427 338.517 542.797 340.267 541.536C342.017 540.294 343.372 538.609 344.332 536.483C345.273 534.375 345.743 532.032 345.743 529.454C345.743 526.782 345.244 524.354 344.247 522.171C343.231 520.007 341.838 518.304 340.069 517.061C338.3 515.838 336.277 515.227 334 515.227Z" fill="#732A2A"/>
<mask id="mask1" mask-type="alpha" maskUnits="userSpaceOnUse" x="78" y="287" width="229" height="235">
<rect x="307" y="521.045" width="229" height="234.033" transform="rotate(-180 307 521.045)" fill="#C4C4C4"/>
</mask>
<g mask="url(#mask1)">
<path d="M284.804 350.497C276.97 362.447 261.604 384.556 252.804 393.32L99.643 394.813C98.7575 392.194 97.5848 389.616 95.3037 387.344C88.8037 380.871 95.3037 369.173 95.3037 369.173L77.8037 285.266L311.304 278.295L284.804 350.497Z" fill="#F4B9B9"/>
<path d="M176.804 396.805C204.304 396.805 215.804 399.295 232.804 405.768L253.804 392.324C226.804 378.879 199.502 375.014 176.804 375.014C149.309 375.014 123.061 381.294 99.3037 394.813C100.137 397.801 102.304 403.776 104.304 405.768C106.304 407.76 108.804 409.673 109.804 410.63C123.674 404.138 147.079 396.805 176.804 396.805Z" fill="#732A2A"/>
<path d="M230.304 404.292C218.057 400.33 200.157 396.805 176.804 396.805C147.079 396.805 123.674 404.138 109.804 410.63" stroke="#440F0F" stroke-width="3" stroke-linecap="round"/>
<path d="M206.304 425.188C205.588 423.406 202.055 419.329 201.204 414.233M201.804 407.76C200.951 410.025 200.866 412.209 201.204 414.233M201.204 414.233C217.191 412.41 241.13 404.945 252.804 393.32C261.604 384.556 276.97 362.447 284.804 350.497" stroke="#440F0F" stroke-width="3" stroke-linecap="round"/>
<path d="M241.804 387.344C221 378.583 199.502 375.014 176.804 375.014C149.309 375.014 123.061 381.294 99.3037 394.813" stroke="#440F0F" stroke-width="3" stroke-linecap="round"/>
<path d="M243.804 361.949L258.804 312.155" stroke="#440F0F" stroke-width="3" stroke-linecap="round"/>
<path d="M161.304 418.217C157.137 417.553 147.404 416.225 141.804 416.225C136.204 416.225 125.137 415.561 120.304 415.229" stroke="#440F0F" stroke-width="3" stroke-linecap="round"/>
</g>
<path d="M263.006 254.781C262.471 256.383 260.113 257.674 259 258.119L270.349 295.503L271.017 336.226L281.698 358.924L311.072 318.869L313.742 253.445C313.965 252.11 314.276 246.77 313.742 236.088C313.075 222.737 305.731 202.709 305.064 198.036C304.396 193.363 302.393 192.695 301.726 186.687C301.058 180.679 301.058 181.346 299.055 178.008C297.053 174.67 297.053 172.668 297.053 169.33C297.053 165.992 294.382 166.659 293.047 164.657C291.712 162.654 291.712 158.648 291.712 157.313C291.712 155.978 292.379 151.972 291.044 149.97C289.709 147.967 289.709 147.299 289.709 143.961C289.709 140.623 289.042 140.623 288.374 139.288C287.706 137.953 288.374 137.285 287.706 135.95C287.039 134.615 285.704 135.283 285.704 137.953C285.704 140.623 284.368 138.621 284.368 145.297C284.368 151.972 278.36 163.989 278.36 165.992C278.36 167.994 277.025 169.33 277.025 171.332C277.025 173.335 277.693 174.003 277.025 176.005C276.357 178.008 274.355 180.011 275.022 182.681C275.69 185.352 276.357 186.687 275.022 188.69C273.687 190.692 273.687 197.368 273.687 200.039C273.687 202.709 275.022 216.061 275.022 219.399C275.022 222.737 273.687 222.737 273.019 225.407C272.352 228.077 270.349 228.077 270.349 232.083C270.349 236.088 271.684 234.753 271.017 237.423C270.349 240.094 267.679 240.761 267.679 243.432C267.679 246.102 267.011 245.434 264.341 249.44C261.67 253.445 263.673 252.778 263.006 254.781Z" fill="#884747" stroke="#440F0F" stroke-width="3" stroke-linecap="round"/>
<path d="M286.371 196.033C284.769 220.6 289.264 294.391 291.712 328.215C292.602 326.657 294.382 322.34 294.382 317.534C294.382 311.525 291.712 238.759 291.712 216.728V155.978C290.599 159.093 287.973 171.466 286.371 196.033Z" fill="#732A2A"/>
<path d="M275.69 224.072L279.028 290.83L280.363 306.185C281.03 285.49 282.365 240.494 282.365 226.074C282.365 211.655 280.14 207.16 279.028 206.714L277.025 218.063C277.025 218.063 277.692 219.399 277.025 221.401C276.357 223.404 275.69 224.072 275.69 224.072Z" fill="#732A2A"/>
<path d="M298.388 252.11V335.559L308.401 320.872C307.289 309.523 305.063 285.49 305.063 280.149C305.063 273.473 301.058 224.739 299.723 214.726C298.655 206.714 301.058 194.03 302.393 188.69C301.726 189.802 299.99 193.229 298.388 198.036C296.385 204.044 298.388 240.761 298.388 252.11Z" fill="#732A2A"/>
<path d="M298.388 335.559C298.388 311.525 298.388 261.19 298.388 252.11C298.388 240.761 296.385 204.044 298.388 198.036C299.99 193.229 301.725 189.802 302.393 188.69" stroke="#440F0F" stroke-width="3" stroke-linecap="round"/>
<path d="M291.044 326.212C287.706 302.179 287.706 250.508 287.706 241.429C287.706 230.08 285.036 191.36 286.371 178.008C286.875 172.967 290.377 159.093 291.044 157.981" stroke="#440F0F" stroke-width="3" stroke-linecap="round"/>
<path d="M280.363 291.498C282.365 260.789 286.267 232.845 280.363 208.05" stroke="#440F0F" stroke-width="3" stroke-linecap="round"/>
<path d="M277.693 335.558C277.693 347.842 280.808 356.254 282.366 358.924C282.366 360.037 281.431 361.594 277.693 358.924C273.02 355.586 267.679 332.888 267.011 310.19C266.477 292.032 261.893 268.8 259.668 259.454C263.896 260.344 273.42 265.996 277.693 281.484C283.033 300.844 277.693 320.204 277.693 335.558Z" fill="#732A2A"/>
<path d="M304.396 273.473C303.862 278.814 306.399 305.962 307.734 318.869V338.898C308.402 337.341 316.279 311.392 318.415 294.836C321.086 274.141 313.742 242.096 313.742 253.445C313.742 264.794 305.064 266.797 304.396 273.473Z" fill="#732A2A"/>
<path d="M277.693 335.558C277.693 347.842 280.808 356.254 282.366 358.924C282.366 360.037 281.431 361.594 277.693 358.924C273.02 355.586 267.679 332.888 267.011 310.19C266.477 292.032 261.893 268.8 259.668 259.454C263.896 260.344 273.42 265.996 277.693 281.484C283.033 300.844 277.693 320.204 277.693 335.558Z" stroke="#440F0F" stroke-width="3" stroke-linecap="round"/>
<path d="M304.396 273.473C303.862 278.814 306.399 305.962 307.734 318.869V338.898C308.402 337.341 316.279 311.392 318.415 294.836C321.086 274.141 313.742 242.096 313.742 253.445C313.742 264.794 305.064 266.797 304.396 273.473Z" stroke="#440F0F" stroke-width="3" stroke-linecap="round"/>
<path d="M282.365 358.924C280.808 356.254 277.692 347.842 277.692 335.559C277.692 320.204 283.033 300.844 277.692 281.484C273.42 265.996 263.896 260.344 259.668 259.454" stroke="#440F0F" stroke-width="3" stroke-linecap="round"/>
<path d="M262.006 254.781C261.471 256.383 259.113 257.674 258 258.119L269.349 295.503L270.017 336.226L280.698 358.924L310.072 318.869L312.742 253.445C312.965 252.11 313.276 246.77 312.742 236.088C312.075 222.737 304.731 202.709 304.064 198.036C303.396 193.363 301.393 192.695 300.726 186.687C300.058 180.679 300.058 181.346 298.055 178.008C296.053 174.67 296.053 172.668 296.053 169.33C296.053 165.992 293.382 166.659 292.047 164.657C290.712 162.654 290.712 158.648 290.712 157.313C290.712 155.978 291.379 151.972 290.044 149.97C288.709 147.967 288.709 147.299 288.709 143.961C288.709 140.623 288.042 140.623 287.374 139.288C286.706 137.953 287.374 137.285 286.706 135.95C286.039 134.615 284.704 135.283 284.704 137.953C284.704 140.623 283.368 138.621 283.368 145.297C283.368 151.972 277.36 163.989 277.36 165.992C277.36 167.994 276.025 169.33 276.025 171.332C276.025 173.335 276.693 174.003 276.025 176.005C275.357 178.008 273.355 180.011 274.022 182.681C274.69 185.352 275.357 186.687 274.022 188.69C272.687 190.692 272.687 197.368 272.687 200.039C272.687 202.709 274.022 216.061 274.022 219.399C274.022 222.737 272.687 222.737 272.019 225.407C271.352 228.077 269.349 228.077 269.349 232.083C269.349 236.088 270.684 234.753 270.017 237.423C269.349 240.094 266.679 240.761 266.679 243.432C266.679 246.102 266.011 245.434 263.341 249.44C260.67 253.445 262.673 252.778 262.006 254.781Z" fill="#F4B9B9" stroke="#440F0F" stroke-width="3" stroke-linecap="round"/>
<path d="M285.371 196.033C283.769 220.6 288.264 294.391 290.712 328.215C291.602 326.657 293.382 322.34 293.382 317.534C293.382 311.525 290.712 238.759 290.712 216.728V155.978C289.599 159.093 286.973 171.466 285.371 196.033Z" fill="#C48484"/>
<path d="M274.69 224.072L278.028 290.83L279.363 306.185C280.03 285.49 281.366 240.494 281.366 226.074C281.366 211.655 279.14 207.16 278.028 206.714L276.025 218.063C276.025 218.063 276.692 219.399 276.025 221.401C275.357 223.404 274.69 224.072 274.69 224.072Z" fill="#C48484"/>
<path d="M297.388 252.11V335.559L307.401 320.872C306.289 309.523 304.063 285.49 304.063 280.149C304.063 273.473 300.058 224.739 298.723 214.726C297.655 206.714 300.058 194.03 301.393 188.69C300.726 189.802 298.99 193.229 297.388 198.036C295.385 204.044 297.388 240.761 297.388 252.11Z" fill="#C48484"/>
<path d="M297.388 335.559C297.388 311.525 297.388 261.19 297.388 252.11C297.388 240.761 295.385 204.044 297.388 198.036C298.99 193.229 300.726 189.802 301.393 188.69" stroke="#440F0F" stroke-width="3" stroke-linecap="round"/>
<path d="M290.044 326.212C286.706 302.179 286.706 250.508 286.706 241.429C286.706 230.08 284.036 191.36 285.371 178.008C285.875 172.967 289.377 159.093 290.044 157.981" stroke="#440F0F" stroke-width="3" stroke-linecap="round"/>
<path d="M279.363 291.498C281.366 260.789 285.267 232.844 279.363 208.05" stroke="#440F0F" stroke-width="3" stroke-linecap="round"/>
<path d="M276.693 335.558C276.693 347.842 279.808 356.254 281.366 358.924C281.366 360.037 280.431 361.594 276.693 358.924C272.02 355.586 266.679 332.888 266.011 310.19C265.477 292.032 260.893 268.8 258.668 259.454C262.896 260.344 272.42 265.996 276.693 281.484C282.033 300.844 276.693 320.204 276.693 335.558Z" fill="#A66969"/>
<path d="M303.396 273.473C302.862 278.814 305.399 305.962 306.734 318.869V338.898C307.402 337.341 315.279 311.392 317.415 294.836C320.086 274.141 312.742 242.096 312.742 253.445C312.742 264.794 304.064 266.797 303.396 273.473Z" fill="#A66969"/>
<path d="M276.693 335.558C276.693 347.842 279.808 356.254 281.366 358.924C281.366 360.037 280.431 361.594 276.693 358.924C272.02 355.586 266.679 332.888 266.011 310.19C265.477 292.032 260.893 268.8 258.668 259.454C262.896 260.344 272.42 265.996 276.693 281.484C282.033 300.844 276.693 320.204 276.693 335.558Z" stroke="#440F0F" stroke-width="3" stroke-linecap="round"/>
<path d="M303.396 273.473C302.862 278.814 305.399 305.962 306.734 318.869V338.898C307.402 337.341 315.279 311.392 317.415 294.836C320.086 274.141 312.742 242.096 312.742 253.445C312.742 264.794 304.064 266.797 303.396 273.473Z" stroke="#440F0F" stroke-width="3" stroke-linecap="round"/>
<path d="M281.366 358.924C279.808 356.254 276.692 347.842 276.692 335.559C276.692 320.204 282.033 300.844 276.692 281.484C272.42 265.996 262.896 260.344 258.668 259.454" stroke="#440F0F" stroke-width="3" stroke-linecap="round"/>
<path d="M305.804 351.398C305.804 344.998 310.5 326.398 303.5 316.398C296.5 306.398 296.135 295.898 288.402 295.898C280.669 295.898 284.972 298.398 280.669 306.398C272.883 320.871 277.494 344.475 280.669 360.645C282.587 371.855 284.304 387.01 284.304 388.145C284.304 389.645 285.304 399.145 285.304 401.145C285.304 403.145 284.804 407.645 284.804 410.145C284.804 412.645 288.304 422.145 288.804 423.645C289.304 425.145 293.804 430.645 294.804 433.145C295.804 435.645 294.804 436.645 298 436.645C302 436.645 305.804 439.645 305.804 439.645L307.304 440.645C309.304 441.645 311.804 442.145 313.304 441.145C314.804 440.145 316.304 438.645 315.304 436.645L312.304 431.645C312.804 431.645 316.304 431.5 316.804 430C317.304 428.5 318.804 425.645 319.804 423.645C320.804 421.645 320 418.5 320.5 417.5C321 416.5 321.5 416.5 322 413.5C322.5 410.5 321.804 409.645 320.804 407.145C319.804 404.645 318.304 402.645 316.804 400.645C315.304 398.645 309.804 395.645 308.304 392.645C306.804 389.645 305.804 381.645 305.804 377.645V351.398Z" fill="#813D3D" stroke="#440F0F" stroke-width="3" stroke-linecap="round"/>
<rect x="285.101" y="447.436" width="13" height="61" rx="4" transform="rotate(-134.464 285.101 447.436)" fill="#CA9999" stroke="#440F0F" stroke-width="3" stroke-linecap="round" stroke-linejoin="round"/>
<rect x="294.821" y="463.575" width="50" height="7" rx="3.5" transform="rotate(-134.464 294.821 463.575)" fill="#A96969" stroke="#440F0F" stroke-width="3" stroke-linecap="round" stroke-linejoin="round"/>
<rect x="328.448" y="406.714" width="15" height="10" rx="2" transform="rotate(-134.464 328.448 406.714)" fill="#CA9999" stroke="#440F0F" stroke-width="3" stroke-linecap="round" stroke-linejoin="round"/>
<path d="M180.902 556.71C180.571 557.035 180.185 557.3 179.763 557.493L156.032 568.341C154.331 569.119 152.588 567.343 153.398 565.657L164.687 542.133C164.888 541.714 165.161 541.334 165.492 541.009L267.484 440.907C269.06 439.36 271.593 439.383 273.14 440.96L282.947 450.952C284.494 452.528 284.471 455.061 282.894 456.608L180.902 556.71Z" fill="#FDD3D3" stroke="#440F0F" stroke-width="3" stroke-linecap="round" stroke-linejoin="round"/>
<rect x="338.201" y="397.312" width="10.843" height="10.843" transform="rotate(-179.464 338.201 397.312)" fill="#732A2A" stroke="#440F0F" stroke-width="3"/>
<rect x="286.789" y="451.757" width="14.5709" height="14.5709" transform="rotate(-179.464 286.789 451.757)" fill="#732A2A" stroke="#440F0F" stroke-width="3"/>
<path d="M265.911 457.864L170.276 551.726" stroke="#440F0F" stroke-width="3" stroke-linecap="round"/>
<path d="M313.351 404.975C314.059 405.521 317.841 408.063 319.643 409.266L319.854 413.384C318.882 415.741 316.727 416.337 316.332 415.75L317.043 422.514L312.664 431.845C312.994 432.759 313.774 435.018 314.251 436.742C314.847 438.897 313.086 440.08 311.422 440.773C309.757 441.465 307.4 440.493 305.63 439.127C303.86 437.761 302.081 433.845 300.802 432.575C299.522 431.304 297.647 427.879 300.485 426.398C302.756 425.213 305.557 427.054 306.674 428.122C305.004 426.207 302.769 423.457 302.237 422.665C301.448 421.492 297.803 416.7 296.619 414.939C295.436 413.178 296.216 411.803 297.486 410.523C298.502 409.5 300.756 409.438 301.756 409.535C300.561 407.988 299.335 406.292 299.526 405.319C299.815 403.847 302.259 401.779 303.24 401.971C304.025 402.125 306.258 404.771 307.079 405.782C306.78 404.704 308.147 402.934 309.321 402.145C310.495 401.357 312.466 404.291 313.351 404.975Z" fill="#813D3D"/>
<path d="M319.615 410.984C317.813 409.781 314.032 407.238 313.324 406.692C312.439 406.009 310.467 403.074 309.293 403.863C308.12 404.651 306.753 406.421 307.051 407.499C307.349 408.577 309.321 411.511 310.6 412.781C311.88 414.051 315.91 416.881 316.305 417.467C316.699 418.054 318.854 417.458 319.826 415.101M306.657 406.912C305.836 405.902 303.998 403.843 303.213 403.689C302.232 403.496 299.788 405.564 299.499 407.036C299.308 408.009 300.534 409.706 301.729 411.253M317.016 424.231C316.657 424.33 315.625 424.569 314.37 424.731C312.802 424.933 311.522 423.662 311.128 423.076C310.734 422.489 304.529 415.157 303.346 413.396C302.945 412.799 302.341 412.046 301.729 411.253M301.729 411.253C300.729 411.156 298.475 411.217 297.459 412.241C296.188 413.52 295.409 414.896 296.592 416.656C297.775 418.417 301.421 423.209 302.209 424.383C302.742 425.175 304.977 427.924 306.647 429.839M312.637 433.562C312.967 434.476 313.747 436.735 314.224 438.46C314.82 440.615 313.059 441.798 311.395 442.49C309.73 443.183 307.373 442.211 305.603 440.844C303.833 439.478 302.054 435.562 300.774 434.292C299.495 433.022 297.62 429.596 300.458 428.115C302.729 426.93 305.53 428.771 306.647 429.839M306.647 429.839C307.452 430.763 308.126 431.492 308.414 431.715C308.907 432.661 310.091 434.591 310.876 434.745" stroke="#440F0F" stroke-width="3" stroke-linecap="round"/>
<path d="M290.333 443C293.469 435.874 290.333 424.61 290.333 417.5C290.333 413.954 290 394.5 286 398.5L280 422.5L285 442.5L290.333 443Z" fill="#813D3D"/>
<path d="M280.669 360.645C282.587 371.855 284.304 387.01 284.304 388.145C284.304 389.645 285.304 399.145 285.304 401.145C285.304 403.145 283.5 407 283.5 409.5C283.5 412 281.5 418.5 280.5 421C278.788 425.28 286.356 441.778 286.5 442.5C287 445 289.224 444.664 291 442C294 437.5 286.947 427.07 289.804 423.5C291.804 421 291 419.5 291 413.5" stroke="#440F0F" stroke-width="3" stroke-linecap="round"/>
<g clip-path="url(#clip2)">
<path d="M128.994 324.502C129.529 322.9 131.887 321.609 133 321.164L121.651 283.779L120.983 243.057L110.302 220.359L80.9282 260.414L78.2578 325.837C78.0352 327.172 77.7237 332.513 78.2578 343.194C78.9254 356.546 86.2688 376.574 86.9364 381.247C87.604 385.92 89.6067 386.588 90.2743 392.596C90.9419 398.604 90.9419 397.937 92.9447 401.274C94.9474 404.612 94.9474 406.615 94.9474 409.953C94.9474 413.291 97.6178 412.623 98.9529 414.626C100.288 416.629 100.288 420.634 100.288 421.97C100.288 423.305 99.6205 427.31 100.956 429.313C102.291 431.316 102.291 431.983 102.291 435.321C102.291 438.659 102.958 438.659 103.626 439.994C104.294 441.33 103.626 441.997 104.294 443.332C104.961 444.668 106.296 444 106.296 441.33C106.296 438.659 107.632 440.662 107.632 433.986C107.632 427.31 113.64 415.294 113.64 413.291C113.64 411.288 114.975 409.953 114.975 407.95C114.975 405.948 114.307 405.28 114.975 403.277C115.643 401.274 117.645 399.272 116.978 396.601C116.31 393.931 115.643 392.596 116.978 390.593C118.313 388.59 118.313 381.914 118.313 379.244C118.313 376.574 116.978 363.222 116.978 359.884C116.978 356.546 118.313 356.546 118.981 353.876C119.648 351.206 121.651 351.206 121.651 347.2C121.651 343.194 120.316 344.53 120.983 341.859C121.651 339.189 124.321 338.521 124.321 335.851C124.321 333.181 124.989 333.848 127.659 329.843C130.33 325.837 128.327 326.505 128.994 324.502Z" fill="#884747" stroke="#440F0F" stroke-width="3" stroke-linecap="round"/>
<path d="M105.629 383.25C107.231 358.683 102.736 284.892 100.288 251.068C99.3981 252.625 97.6179 256.942 97.6179 261.749C97.6179 267.757 100.288 340.524 100.288 362.555V423.305C101.401 420.189 104.027 407.817 105.629 383.25Z" fill="#732A2A"/>
<path d="M116.31 355.211L112.972 288.452L111.637 273.098C110.97 293.793 109.635 338.788 109.635 353.208C109.635 367.628 111.86 372.123 112.972 372.568L114.975 361.219C114.975 361.219 114.308 359.884 114.975 357.881C115.643 355.879 116.31 355.211 116.31 355.211Z" fill="#732A2A"/>
<path d="M93.6124 327.172V243.724L83.5986 258.411C84.7113 269.76 86.9366 293.793 86.9366 299.134C86.9366 305.81 90.9421 354.543 92.2773 364.557C93.3454 372.568 90.9421 385.252 89.6069 390.593C90.2745 389.48 92.0102 386.053 93.6124 381.247C95.6152 375.239 93.6124 338.521 93.6124 327.172Z" fill="#732A2A"/>
<path d="M93.6125 243.724C93.6125 267.757 93.6125 318.093 93.6125 327.172C93.6125 338.521 95.6152 375.239 93.6125 381.247C92.0102 386.053 90.2745 389.48 89.6069 390.593" stroke="#440F0F" stroke-width="3" stroke-linecap="round"/>
<path d="M100.956 253.07C104.294 277.103 104.294 328.775 104.294 337.854C104.294 349.203 106.964 387.923 105.629 401.274C105.125 406.316 101.623 420.189 100.956 421.302" stroke="#440F0F" stroke-width="3" stroke-linecap="round"/>
<path d="M111.637 287.785C109.635 318.494 105.733 346.438 111.637 371.233" stroke="#440F0F" stroke-width="3" stroke-linecap="round"/>
<path d="M114.307 243.724C114.307 231.441 111.192 223.029 109.634 220.359C109.634 219.246 110.569 217.688 114.307 220.359C118.98 223.697 124.321 246.395 124.989 269.093C125.523 287.251 130.107 310.483 132.332 319.829C128.104 318.939 118.58 313.287 114.307 297.799C108.967 278.439 114.307 259.079 114.307 243.724Z" fill="#732A2A"/>
<path d="M87.6039 305.81C88.138 300.469 85.6012 273.32 84.266 260.414V240.384C83.5984 241.942 75.7209 267.891 73.5846 284.447C70.9143 305.142 78.2577 337.186 78.2577 325.837C78.2577 314.488 86.9364 312.486 87.6039 305.81Z" fill="#732A2A"/>
<path d="M114.307 243.724C114.307 231.441 111.192 223.029 109.634 220.359C109.634 219.246 110.569 217.688 114.307 220.359C118.98 223.697 124.321 246.395 124.989 269.093C125.523 287.251 130.107 310.483 132.332 319.829C128.104 318.939 118.58 313.287 114.307 297.799C108.967 278.439 114.307 259.079 114.307 243.724Z" stroke="#440F0F" stroke-width="3" stroke-linecap="round"/>
<path d="M87.6039 305.81C88.138 300.469 85.6012 273.32 84.266 260.414V240.384C83.5984 241.942 75.7209 267.891 73.5846 284.447C70.9143 305.142 78.2577 337.186 78.2577 325.837C78.2577 314.488 86.9364 312.486 87.6039 305.81Z" stroke="#440F0F" stroke-width="3" stroke-linecap="round"/>
<path d="M109.635 220.359C111.192 223.029 114.308 231.441 114.308 243.724C114.308 259.079 108.967 278.439 114.308 297.799C118.58 313.287 128.104 318.939 132.332 319.829" stroke="#440F0F" stroke-width="3" stroke-linecap="round"/>
<path d="M129.994 324.502C130.529 322.9 132.887 321.609 134 321.164L122.651 283.779L121.983 243.057L111.302 220.359L81.9282 260.414L79.2578 325.837C79.0352 327.172 78.7237 332.513 79.2578 343.194C79.9254 356.546 87.2688 376.574 87.9364 381.247C88.604 385.92 90.6067 386.588 91.2743 392.596C91.9419 398.604 91.9419 397.937 93.9447 401.274C95.9474 404.612 95.9474 406.615 95.9474 409.953C95.9474 413.291 98.6178 412.623 99.9529 414.626C101.288 416.629 101.288 420.634 101.288 421.97C101.288 423.305 100.621 427.31 101.956 429.313C103.291 431.316 103.291 431.983 103.291 435.321C103.291 438.659 103.958 438.659 104.626 439.994C105.294 441.33 104.626 441.997 105.294 443.332C105.961 444.668 107.296 444 107.296 441.33C107.296 438.659 108.632 440.662 108.632 433.986C108.632 427.31 114.64 415.294 114.64 413.291C114.64 411.288 115.975 409.953 115.975 407.95C115.975 405.948 115.307 405.28 115.975 403.277C116.643 401.274 118.645 399.272 117.978 396.601C117.31 393.931 116.643 392.596 117.978 390.593C119.313 388.59 119.313 381.914 119.313 379.244C119.313 376.574 117.978 363.222 117.978 359.884C117.978 356.546 119.313 356.546 119.981 353.876C120.648 351.206 122.651 351.206 122.651 347.2C122.651 343.194 121.316 344.53 121.983 341.859C122.651 339.189 125.321 338.521 125.321 335.851C125.321 333.181 125.989 333.848 128.659 329.843C131.33 325.837 129.327 326.505 129.994 324.502Z" fill="#F4B9B9" stroke="#440F0F" stroke-width="3" stroke-linecap="round"/>
<path d="M106.629 383.25C108.231 358.683 103.736 284.892 101.288 251.068C100.398 252.625 98.6179 256.942 98.6179 261.749C98.6179 267.757 101.288 340.524 101.288 362.555V423.305C102.401 420.189 105.027 407.817 106.629 383.25Z" fill="#C48484"/>
<path d="M117.31 355.211L113.972 288.452L112.637 273.098C111.97 293.793 110.634 338.788 110.634 353.208C110.634 367.628 112.86 372.123 113.972 372.568L115.975 361.219C115.975 361.219 115.308 359.884 115.975 357.881C116.643 355.879 117.31 355.211 117.31 355.211Z" fill="#C48484"/>
<path d="M94.6124 327.172V243.724L84.5986 258.411C85.7113 269.76 87.9366 293.793 87.9366 299.134C87.9366 305.81 91.9421 354.543 93.2773 364.557C94.3454 372.568 91.9421 385.252 90.6069 390.593C91.2745 389.48 93.0102 386.053 94.6124 381.247C96.6152 375.239 94.6124 338.521 94.6124 327.172Z" fill="#C48484"/>
<path d="M94.6123 243.724C94.6123 267.757 94.6123 318.093 94.6123 327.172C94.6123 338.521 96.6151 375.239 94.6123 381.247C93.0101 386.053 91.2744 389.48 90.6068 390.593" stroke="#440F0F" stroke-width="3" stroke-linecap="round"/>
<path d="M101.956 253.07C105.294 277.103 105.294 328.775 105.294 337.854C105.294 349.203 107.964 387.923 106.629 401.274C106.125 406.316 102.623 420.189 101.956 421.302" stroke="#440F0F" stroke-width="3" stroke-linecap="round"/>
<path d="M112.637 287.785C110.634 318.494 106.733 346.438 112.637 371.233" stroke="#440F0F" stroke-width="3" stroke-linecap="round"/>
<path d="M115.307 243.724C115.307 231.441 112.192 223.029 110.634 220.359C110.634 219.246 111.569 217.688 115.307 220.359C119.98 223.697 125.321 246.395 125.989 269.093C126.523 287.251 131.107 310.483 133.332 319.829C129.104 318.939 119.58 313.287 115.307 297.799C109.967 278.439 115.307 259.079 115.307 243.724Z" fill="#A66969"/>
<path d="M88.6039 305.81C89.138 300.469 86.6012 273.32 85.266 260.414V240.384C84.5984 241.942 76.7209 267.891 74.5846 284.447C71.9143 305.142 79.2577 337.186 79.2577 325.837C79.2577 314.488 87.9364 312.486 88.6039 305.81Z" fill="#A66969"/>
<path d="M115.307 243.724C115.307 231.441 112.192 223.029 110.634 220.359C110.634 219.246 111.569 217.688 115.307 220.359C119.98 223.697 125.321 246.395 125.989 269.093C126.523 287.251 131.107 310.483 133.332 319.829C129.104 318.939 119.58 313.287 115.307 297.799C109.967 278.439 115.307 259.079 115.307 243.724Z" stroke="#440F0F" stroke-width="3" stroke-linecap="round"/>
<path d="M88.6039 305.81C89.138 300.469 86.6012 273.32 85.266 260.414V240.384C84.5984 241.942 76.7209 267.891 74.5846 284.447C71.9143 305.142 79.2577 337.186 79.2577 325.837C79.2577 314.488 87.9364 312.486 88.6039 305.81Z" stroke="#440F0F" stroke-width="3" stroke-linecap="round"/>
<path d="M110.634 220.359C112.192 223.029 115.308 231.441 115.308 243.724C115.308 259.079 109.967 278.439 115.308 297.799C119.58 313.287 129.104 318.939 133.332 319.829" stroke="#440F0F" stroke-width="3" stroke-linecap="round"/>
<path d="M86.1962 227.884C86.1962 234.284 81.5001 252.884 88.5001 262.884C95.5001 272.884 95.8648 283.384 103.598 283.384C111.331 283.384 107.028 280.884 111.331 272.884C119.117 258.412 114.506 234.808 111.331 218.638C109.413 207.428 107.696 192.272 107.696 191.138C107.696 189.638 106.696 180.138 106.696 178.138C106.696 176.138 107.196 171.638 107.196 169.138C107.196 166.638 103.696 157.138 103.196 155.638C102.696 154.138 98.1962 148.638 97.1962 146.138C96.1962 143.638 97.1962 142.638 94.0001 142.638C89.9996 142.638 86.1962 139.638 86.1962 139.638L84.6963 138.638C82.6963 137.638 80.1963 137.138 78.6963 138.138C77.1963 139.138 75.6963 140.638 76.6963 142.638L79.6962 147.638C79.1962 147.638 75.6962 147.783 75.1962 149.283C74.6962 150.783 73.1963 153.638 72.1962 155.638C71.1962 157.638 72.0001 160.783 71.5001 161.783C71.0001 162.783 70.5 162.783 70 165.783C69.5 168.783 70.1962 169.638 71.1962 172.138C72.1962 174.638 73.6962 176.638 75.1962 178.638C76.6962 180.638 82.1962 183.638 83.6962 186.638C85.1962 189.638 86.1962 197.638 86.1962 201.638V227.884Z" fill="#813D3D" stroke="#440F0F" stroke-width="3" stroke-linecap="round"/>
</g>
<path d="M212.57 427.996C210.362 425.793 206.438 424.018 204.752 423.405C173.815 417.418 149.978 424.494 148.139 424.494C145.84 424.494 139.454 427.996 138.074 428.915C136.695 429.833 137.154 431.21 136.235 432.128C135.315 433.047 133.016 435.342 131.636 435.801C130.257 436.26 129.337 438.097 129.337 439.474C129.337 440.576 127.191 442.382 126.118 443.147C125.198 443.453 123.359 444.341 123.359 445.443C123.359 446.82 122.439 450.034 121.06 450.952C119.68 451.87 121.06 451.87 121.06 454.625C121.06 457.379 119.68 456.92 118.301 457.379C116.921 457.838 118.301 461.052 118.301 461.97C118.301 462.889 118.301 464.725 117.381 466.102C116.461 467.48 117.381 470.693 118.301 471.612C119.036 472.346 117.994 474.978 117.381 476.203C117.534 477.58 117.933 480.61 118.301 481.712C118.76 483.089 119.68 485.844 119.68 487.68C119.68 489.517 120.14 489.517 121.06 490.894C121.979 492.271 123.359 493.19 123.359 495.485C123.359 497.781 125.198 499.617 126.118 500.535C127.038 501.454 128.877 503.749 129.337 506.045C129.797 508.34 132.096 508.799 133.016 509.258C133.935 509.718 135.775 512.472 136.235 513.39C136.695 514.309 140.373 517.522 141.753 517.522C143.132 517.522 144.512 520.277 145.892 521.195C147.271 522.113 150.95 521.654 153.249 523.95C155.548 526.245 159.687 526.704 161.067 526.704C162.446 526.704 166.585 527.623 169.344 527.623C172.103 527.623 176.242 529 178.541 529C180.84 529 184.519 528.082 186.818 526.704C189.117 525.327 193.256 526.704 195.555 526.704C197.854 526.704 200.154 523.95 202.453 521.654C204.752 519.359 206.132 520.277 208.891 518.9C211.65 517.522 212.57 516.145 214.409 514.309C216.248 512.472 215.789 512.472 219.007 510.177C222.226 507.881 223.146 504.208 223.146 503.29C223.146 502.372 227.285 501.913 227.285 499.617C227.285 497.322 228.664 495.485 229.584 493.19C230.504 490.894 232.343 490.894 232.343 486.762C232.343 482.63 232.343 480.794 234.182 477.121C236.022 473.448 234.182 470.234 234.182 468.857C234.182 467.48 232.343 464.266 232.343 461.97C232.343 460.134 231.423 456.002 230.964 454.166C230.044 452.941 228.021 449.758 227.285 446.82C226.365 443.147 224.986 443.606 223.146 441.77C221.307 439.933 220.847 436.26 219.927 434.424C219.007 432.588 215.329 430.751 212.57 427.996Z" fill="#571D1D" stroke="#440F0F" stroke-width="3" stroke-linecap="round"/>
<path d="M213.304 456.061C213.304 460.841 211.804 469.505 211.804 473.489L211.304 474.982C211.304 474.696 210.5 476.041 206.5 478.72C204.5 481.708 202.804 487.185 202.304 487.683C201.804 488.181 190.5 491.169 183.5 490.173C176.5 489.177 166.51 486.03 161.5 482.704C160 481.708 159.637 477.345 158.992 473.489L157.037 469.656C156.069 468.467 155.069 467.322 154.804 465.276C154.233 460.869 156.5 454.819 154.804 452.575C154.804 452.575 154.004 450.284 154.804 447.098C155.804 443.114 155.304 436.143 157.804 431.163C159.137 427.18 161.804 419.113 161.804 418.715C158.304 418.051 150.204 416.723 145.804 416.723C140.304 416.723 124.304 415.727 120.804 414.731C117.304 413.736 112.804 410.25 110.804 410.25C108.804 410.25 148.804 394.814 180.304 396.805C211.804 398.797 225.137 403.445 231.804 405.768C226.137 407.76 213.704 412.042 209.304 413.238C204.904 414.433 201.804 414.731 200.804 414.731C200.804 414.731 201.804 418.217 202.304 419.213L204.304 423.196C208.304 425.686 209.304 436.143 211.804 440.624C213.804 444.21 213.637 452.409 213.304 456.061Z" fill="#813D3D"/>
<path d="M211.804 473.488C211.804 469.505 213.304 460.841 213.304 456.06C213.637 452.409 213.804 444.209 211.804 440.624C209.304 436.143 207.804 425.188 203.804 422.698C199.804 420.208 192.804 414.233 183.804 418.715C174.804 423.196 160.304 426.184 157.804 431.163C155.304 436.143 155.804 443.114 154.804 447.097C154.004 450.284 154.804 452.575 154.804 452.575" stroke="#440F0F" stroke-width="3" stroke-linecap="round"/>
<path d="M159.304 428.674C160.304 424.69 162.304 415.727 162.304 411.744C162.304 407.76 160.304 406.1 159.304 405.768" stroke="#440F0F" stroke-width="3" stroke-linecap="round"/>
<path d="M154.804 452.575C156.5 454.819 154.233 460.869 154.804 465.276M212 473.741C212 473.454 210.5 476.041 206.5 478.72C204.5 481.708 202.804 487.185 202.304 487.683C201.804 488.181 190.5 491.169 183.5 490.173C176.5 489.177 166.51 486.03 161.5 482.704C160 481.708 159.637 477.345 158.992 473.489M158.992 473.489C158.372 469.781 155.3 469.106 154.804 465.276M158.992 473.489L154.804 465.276" stroke="#440F0F" stroke-width="3" stroke-linecap="round"/>
<path d="M199.971 520.612L203 494.212C203 494.212 189.799 497.145 178.634 495.536C167.469 493.927 154.619 487.24 154.619 487.24L151.589 513.64L166 509.5L175.069 525.657L188.668 512.766L199.971 520.612Z" fill="#F4B9B9" stroke="#440F0F" stroke-width="3" stroke-linecap="round" stroke-linejoin="round"/>
<path d="M333 489L350 469L333 449L316 469L333 489Z" fill="#FD7072"/>
</g>
<path d="M28.3239 6H362.676V4H28.3239V6ZM379 22.3239V557.676H381V22.3239H379ZM362.676 574H28.3239V576H362.676V574ZM12 557.676V22.324H10V557.676H12ZM28.3239 574C19.3085 574 12 566.692 12 557.676H10C10 567.796 18.2039 576 28.3239 576V574ZM379 557.676C379 566.691 371.692 574 362.676 574V576C372.796 576 381 567.796 381 557.676H379ZM362.676 6C371.692 6 379 13.3085 379 22.3239H381C381 12.2039 372.796 4 362.676 4V6ZM28.3239 4C18.2039 4 10 12.2039 10 22.324H12C12 13.3085 19.3085 6 28.3239 6V4Z" fill="#F7E2E2"/>
</g>
<defs>
<filter id="filter0_d" x="0" y="0" width="391" height="592" filterUnits="userSpaceOnUse" color-interpolation-filters="sRGB">
<feFlood flood-opacity="0" result="BackgroundImageFix"/>
<feColorMatrix in="SourceAlpha" type="matrix" values="0 0 0 0 0 0 0 0 0 0 0 0 0 0 0 0 0 0 127 0"/>
<feMorphology radius="3" operator="dilate" in="SourceAlpha" result="effect1_dropShadow"/>
<feOffset dy="6"/>
<feGaussianBlur stdDeviation="4"/>
<feColorMatrix type="matrix" values="0 0 0 0 0.279463 0 0 0 0 0.0711028 0 0 0 0 0.0740583 0 0 0 0.05 0"/>
<feBlend mode="normal" in2="BackgroundImageFix" result="effect1_dropShadow"/>
<feBlend mode="normal" in="SourceGraphic" in2="effect1_dropShadow" result="shape"/>
</filter>
<clipPath id="clip0">
<path d="M11 22.324C11 12.7562 18.7562 5 28.3239 5H362.676C372.244 5 380 12.7562 380 22.3239V557.676C380 567.244 372.244 575 362.676 575H28.3239C18.7562 575 11 567.244 11 557.676V22.324Z" fill="white"/>
</clipPath>
<clipPath id="clip1">
<rect width="63" height="161" fill="white" transform="translate(259 136)"/>
</clipPath>
<clipPath id="clip2">
<rect width="63" height="161" fill="white" transform="translate(133 444) rotate(-180)"/>
</clipPath>
</defs>
</svg>
