<svg width="391" height="592" viewBox="0 0 391 592" fill="none" xmlns="http://www.w3.org/2000/svg">
<g filter="url(#filter0_d)">
<g clip-path="url(#clip0)">
<path d="M11 22.324C11 12.7562 18.7562 5 28.3239 5H362.676C372.244 5 380 12.7562 380 22.3239V557.676C380 567.244 372.244 575 362.676 575H28.3239C18.7562 575 11 567.244 11 557.676V22.324Z" fill="white"/>
<path d="M81.5993 50.6025C81.5993 54.6487 80.7148 58.262 78.9458 61.4424C77.1956 64.6229 74.6927 67.1729 71.4369 69.0924C68.1812 70.9932 64.3797 72.0941 60.0325 72.3952C60.6159 72.5081 61.5004 72.8375 62.686 73.3832C64.455 74.1548 66.0546 74.757 67.4849 75.1899C68.9152 75.6415 70.3454 75.8674 71.7757 75.8674C72.5096 75.8674 73.1024 75.8485 73.5541 75.8109L70.957 82.5858C70.8441 82.6235 70.4395 82.6423 69.7432 82.6423C68.3129 82.6423 66.9391 82.3976 65.6218 81.9083C64.3233 81.4378 62.6484 80.7133 60.5971 79.7347C58.941 78.8878 57.5389 78.248 56.391 77.8151C55.2618 77.4011 54.1609 77.1941 53.0882 77.1941C50.8487 77.1941 48.7315 78.041 46.7367 79.7347L44.0267 75.5286C45.7957 73.402 48.1858 72.1506 51.1968 71.7742C47.7153 70.8897 44.7136 69.45 42.1918 67.4552C39.6701 65.4415 37.7223 62.995 36.3485 60.1156C34.9935 57.2175 34.316 54.0464 34.316 50.6025C34.316 46.2929 35.3134 42.482 37.3082 39.1698C39.3219 35.8576 42.1166 33.2982 45.6922 31.4916C49.2679 29.6661 53.3705 28.7534 58 28.7534C62.6672 28.7534 66.7886 29.6943 70.3642 31.5763C73.9587 33.4394 76.7251 36.027 78.6635 39.3392C80.6207 42.6514 81.5993 46.4058 81.5993 50.6025ZM58 64.7734C60.39 64.7734 62.4696 64.1524 64.2386 62.9103C66.0264 61.6494 67.3908 59.9557 68.3318 57.8291C69.2727 55.6837 69.7432 53.2749 69.7432 50.6025C69.7432 47.949 69.2633 45.559 68.3035 43.4324C67.3438 41.287 65.9605 39.6121 64.1539 38.4077C62.3661 37.1844 60.2959 36.5728 57.9435 36.5728C55.5535 36.5728 53.4834 37.2032 51.7332 38.4641C49.983 39.7062 48.628 41.3905 47.6682 43.5171C46.7273 45.6248 46.2568 47.9678 46.2568 50.5461C46.2568 53.2184 46.7555 55.6461 47.7529 57.8291C48.7692 59.9933 50.1618 61.6965 51.9308 62.9385C53.6998 64.1618 55.7229 64.7734 58 64.7734Z" fill="#1A1616"/>
<g clip-path="url(#clip1)">
<path d="M107.196 227.253C115.03 215.253 130.396 193.053 139.196 184.253L292.5 182.5C294.775 185.912 289.64 206.95 295 224.5C299.066 237.813 314.196 246.785 314.196 258V292.753L80.6963 299.753L107.196 227.253Z" fill="#BDB9B9"/>
<path d="M215.196 180.753C187.696 180.753 176.196 178.253 159.196 171.753L138.196 185.253C165.196 198.753 192.498 202.635 215.196 202.635C242.691 202.635 268.939 196.329 292.696 182.753C291.863 179.753 289.696 173.753 287.696 171.753C285.696 169.753 283.196 167.832 282.196 166.872C268.326 173.39 244.921 180.753 215.196 180.753Z" fill="#453B3B"/>
<path d="M178.696 121.253C178.696 116.453 180.196 107.753 180.196 103.753L180.696 102.253C180.696 102.541 190.196 85.8273 194.196 83.1366C196.043 81.8942 198.672 78.0783 201.294 73.6366L216.385 74.6366C216.97 75.5459 217.575 76.3914 218.196 77.1366C223.196 83.1366 227.196 80.3634 234.196 86.5C240.816 92.303 232.68 116.867 237.273 125.017C237.452 125.707 237.837 127.692 237.196 130.253C236.196 134.253 236.696 141.253 234.196 146.253C232.863 150.253 230.196 158.353 230.196 158.753C233.696 159.42 241.796 160.753 246.196 160.753C251.696 160.753 267.696 161.753 271.196 162.753C274.696 163.753 279.196 167.253 281.196 167.253C283.196 167.253 243.196 182.753 211.696 180.753C180.196 178.753 166.863 174.087 160.196 171.753C165.863 169.753 178.296 165.453 182.696 164.253C187.096 163.053 190.196 162.753 191.196 162.753C191.196 162.753 190.196 159.253 189.696 158.253L187.696 154.253C183.696 151.753 182.696 141.253 180.196 136.753C178.196 133.153 178.363 124.92 178.696 121.253Z" fill="#BBB4B4"/>
<path d="M161.696 173.235C173.943 177.214 191.843 180.753 215.196 180.753C244.921 180.753 268.326 173.39 282.196 166.872" stroke="#1A1616" stroke-width="3" stroke-linecap="round"/>
<path d="M150.196 190.253C171 199.051 192.498 202.635 215.196 202.635C242.691 202.635 265.743 197.576 289.5 184" stroke="#1A1616" stroke-width="3" stroke-linecap="round"/>
<path d="M180.196 103.753C180.196 107.753 178.696 116.453 178.696 121.253C178.363 124.92 178.196 133.153 180.196 136.753C182.696 141.253 184.196 152.253 188.196 154.753C192.196 157.253 199.196 163.253 208.196 158.753C217.196 154.253 231.696 151.253 234.196 146.253C236.696 141.253 236.196 134.253 237.196 130.253C237.996 127.053 237.196 124.753 237.196 124.753" stroke="#1A1616" stroke-width="3" stroke-linecap="round"/>
<path d="M148.196 215.753L133.196 265.753" stroke="#1A1616" stroke-width="3" stroke-linecap="round"/>
<path d="M230.696 159.253C234.863 159.92 244.596 161.253 250.196 161.253C255.796 161.253 267.5 159.253 276 164.5" stroke="#1A1616" stroke-width="3" stroke-linecap="round"/>
<path d="M190.796 163.253C174.809 165.084 150.87 172.58 139.196 184.253C130.396 193.053 115.03 215.253 107.196 227.253" stroke="#1A1616" stroke-width="3" stroke-linecap="round"/>
<path d="M185.696 152.253C186.412 154.043 189.945 158.137 190.796 163.253C191.134 165.286 191.049 167.479 190.196 169.753" stroke="#1A1616" stroke-width="3" stroke-linecap="round"/>
<path d="M73.7391 287.556C76.487 271.188 92.058 248.908 99.5 239.815C100.539 238.525 111.522 243.225 116.674 250.045C120.796 255.501 133.275 289.83 139 306.312C135.565 309.722 128.352 318.247 126.978 325.068C125.261 333.593 118.391 381.334 102.935 376.219C87.4783 371.104 91.4348 339.512 88 336.102C77 325.181 81.7804 308.181 68 311.602C71.4348 308.76 70.9913 303.925 73.7391 287.556Z" fill="#8A8585" stroke="#1A1616" stroke-width="3" stroke-linecap="round" stroke-linejoin="round"/>
<path d="M92.5 328.101C94.1 320.101 93.1667 308.101 92.5 303.101L106 249.101L99.5 239.815C92.064 248.88 76.5014 271.12 73.7391 287.556C70.9913 303.925 71.4348 308.76 68 311.601C81.7804 308.181 77 327.18 88 338.101C88.8333 338.101 90.9 336.101 92.5 328.101Z" fill="#524F4F" stroke="#1A1616" stroke-width="3" stroke-linecap="round" stroke-linejoin="round"/>
<path d="M117 330.602C116.2 324.602 115.333 300.102 115 288.602C115.225 287.768 115.674 284.702 115.674 279.102C115.674 272.102 109 244.602 111 244.602C112.6 244.602 114.782 247.564 115.674 249.045C119.796 254.501 132.275 288.83 138 305.312C134.565 308.722 127.352 317.247 125.978 324.068L122 344.602C119 341.102 118 338.102 117 330.602Z" fill="#524F4F" stroke="#1A1616" stroke-width="3" stroke-linecap="round" stroke-linejoin="round"/>
<path d="M86.1962 248.602C86.1962 255.002 81.5 273.602 88.5 283.602C95.5 293.602 95.8648 304.102 103.598 304.102C111.331 304.102 107.028 301.602 111.331 293.602C119.117 279.129 114.506 255.525 111.331 239.355C109.413 228.145 107.696 212.99 107.696 211.855C107.696 210.355 106.696 200.855 106.696 198.855C106.696 196.855 107.196 192.355 107.196 189.855C107.196 187.355 103.696 177.855 103.196 176.355C102.696 174.855 98.1962 169.355 97.1962 166.855C96.1962 164.355 94.1962 161.855 93.6962 159.355C93.1962 156.855 91.6962 153.355 89.1962 155.355C87.1962 156.955 86.3628 159.355 86.1962 160.355L84.6962 159.355C82.6962 158.355 80.1962 157.855 78.6962 158.855C77.1962 159.855 75.6962 161.355 76.6962 163.355L79.6962 168.355C79.1962 168.355 77.6962 169.355 77.1962 170.855C76.6962 172.355 76.1962 175.855 75.1962 177.855C74.1961 179.855 72.6962 182.355 72.1962 183.355C71.6962 184.355 70.6962 184.355 70.1962 187.355C69.6962 190.355 70.1962 190.355 71.1962 192.855C72.1962 195.355 73.6962 197.355 75.1962 199.355C76.6962 201.355 82.1962 204.355 83.6962 207.355C85.1962 210.355 86.1962 218.355 86.1962 222.355V248.602Z" fill="#BBB4B4" stroke="#1A1616" stroke-width="3" stroke-linecap="round"/>
<path d="M76.6963 191.355C78.6963 192.188 82.8963 193.955 83.6963 194.355C84.6963 194.855 87.1963 197.355 88.1963 196.355C89.1963 195.355 90.1963 193.355 89.6963 192.355C89.1963 191.355 86.6963 188.855 85.1963 187.855C83.6963 186.855 79.1963 184.855 78.6963 184.355C78.1963 183.855 76.1963 184.855 75.6963 187.355M90.1963 192.855C91.1963 193.688 93.3963 195.355 94.1963 195.355C95.1963 195.355 97.1963 192.855 97.1963 191.355C97.1963 190.363 95.6665 188.934 94.1963 187.646M76.6963 177.855C77.0296 177.688 77.9963 177.255 79.1963 176.855C80.6963 176.355 82.1963 177.355 82.6963 177.855C83.1963 178.355 90.6963 184.355 92.1963 185.855C92.7046 186.363 93.4426 186.986 94.1963 187.646M94.1963 187.646C95.1963 187.549 97.3963 187.055 98.1963 185.855C99.1963 184.355 99.6963 182.855 98.1963 181.355C96.6963 179.855 92.1963 175.855 91.1963 174.855C90.5216 174.18 87.7988 171.912 85.7914 170.355M79.1963 167.855C78.6963 167.021 77.4963 164.955 76.6963 163.355C75.6963 161.355 77.1963 159.855 78.6963 158.855C80.1963 157.855 82.6963 158.355 84.6963 159.355C86.6963 160.355 89.1963 163.855 90.6963 164.855C92.1963 165.855 94.6963 168.855 92.1963 170.855C90.1963 172.455 87.093 171.188 85.7914 170.355M85.7914 170.355C84.8233 169.603 84.0216 169.017 83.6963 168.855C83.0296 168.021 81.4963 166.355 80.6963 166.355" stroke="#1A1616" stroke-width="3" stroke-linecap="round"/>
<path d="M104.678 231.5C97.1777 218.5 94.1409 207.191 93 193.5M91 165C91 163.333 88 149 100.678 139.5" stroke="#1A1616" stroke-width="3" stroke-linecap="round"/>
<path d="M118.747 128.818C118.777 130.998 118.446 132.565 116.299 132.595C118.446 132.565 118.826 134.534 118.856 136.715C118.886 138.896 117.169 140.687 115.022 140.717C111.551 140.765 106.769 135.032 104.135 132.968C106.711 130.832 111.334 124.97 114.805 124.922C116.952 124.893 118.717 126.637 118.747 128.818Z" fill="#453B3B" stroke="#1A1616" stroke-width="3" stroke-linecap="round" stroke-linejoin="round"/>
<path d="M110.498 147.524C108.325 147.708 106.739 147.489 106.557 145.349C106.739 147.489 104.802 148.008 102.629 148.192C100.456 148.377 98.5466 146.792 98.3648 144.653C98.0709 141.193 103.45 136.017 105.322 133.243C107.635 135.661 113.81 139.856 114.104 143.315C114.286 145.455 112.672 147.339 110.498 147.524Z" fill="#453B3B" stroke="#1A1616" stroke-width="3" stroke-linecap="round" stroke-linejoin="round"/>
<path d="M91.0293 141.098C90.4295 139.001 90.3391 137.402 92.4035 136.812C90.3391 137.402 89.4569 135.602 88.857 133.505C88.2572 131.408 89.4444 129.229 91.5087 128.639C94.8468 127.684 100.963 131.964 104.045 133.267C102.118 136.003 99.1914 142.87 95.8534 143.825C93.789 144.416 91.6292 143.195 91.0293 141.098Z" fill="#453B3B" stroke="#1A1616" stroke-width="3" stroke-linecap="round" stroke-linejoin="round"/>
<path d="M97.4021 120.197C99.5323 119.729 101.134 119.738 101.594 121.836C101.134 119.738 102.986 118.97 105.116 118.502C107.246 118.035 109.347 119.355 109.807 121.453C110.552 124.844 105.898 130.681 104.405 133.676C101.795 131.582 95.1237 128.232 94.379 124.841C93.9184 122.744 95.2719 120.664 97.4021 120.197Z" fill="#453B3B" stroke="#1A1616" stroke-width="3" stroke-linecap="round" stroke-linejoin="round"/>
<path d="M86.1963 160.355C86.363 159.355 87.1963 156.955 89.1963 155.355C91.6963 153.355 93.1963 156.855 93.6963 159.355C94.1963 161.855 96.1963 164.355 97.1963 166.855C98.1963 169.355 102.696 174.855 103.196 176.355C103.696 177.855 107.196 187.355 107.196 189.855C107.196 192.355 106.696 196.855 106.696 198.855C106.696 200.855 107.696 210.355 107.696 211.855C107.696 212.99 109.413 228.145 111.332 239.355" stroke="#1A1616" stroke-width="3" stroke-linecap="round"/>
<path d="M215.515 83.8184C210.608 82.5384 199.584 80.9336 194.747 84.7538C188.701 89.529 191.808 108.642 185.207 114.74C183.894 115.952 182.544 116.955 181.191 117.842L180.274 119.827C178.988 120.791 176.716 124.277 177.646 130.546L178.755 138.022L184.441 148.321L186.347 152.656C188.235 155.718 190.85 159.543 190.867 162.939C190.887 166.977 184.194 169.923 185.137 172.962C187.881 181.812 193.907 198.415 192.874 206.071C189.665 213.792 179.043 227.82 170.867 234.821C167.627 237.596 172.219 260.172 169.867 260.321C162.867 260.764 146.866 251.321 146.866 246.321C143.867 215.321 115.218 197.287 134.367 172.962C145.183 159.221 150.027 149.748 151.367 138.022C152.706 126.295 163.244 119.452 165.091 110.038C166.938 100.625 176.663 89.3034 184.441 79.6549C192.22 70.0064 204.394 68.4228 216.744 67.5347C229.093 66.6466 231.402 75.2364 231.146 78.6289C230.89 82.0213 227.152 83.3315 215.515 83.8184Z" fill="#383333"/>
<path d="M227.255 94.0294C226.985 90.3698 220.867 85.7764 218.367 84.7538L230.924 81.569C232.645 80.8648 236.823 80.5582 239.766 84.9653C243.445 90.4741 253.686 101.067 253.367 108.321C253.047 115.576 266.095 141.631 270.367 148.321C274.638 155.012 288.174 169.894 291.367 175.821C293.801 180.341 298.867 191.821 294.367 204.321L279.367 240.321C279.367 240.321 271.867 246.821 264.367 251.321C256.867 255.822 246.367 255.821 246.367 255.821L251.867 240.321C251.867 240.321 254.867 234.821 248.367 228.321C241.866 221.821 233.972 209.503 233.367 204.321C231.929 192.022 236.867 176.462 233.367 172.962L230.367 162.939C229.662 160.38 231.119 159.417 231.146 157.321C231.24 150.05 235.3 123.067 235.483 117.623C235.666 112.178 228.182 108.884 226.436 104.885C224.691 100.887 227.592 98.6038 227.255 94.0294Z" fill="#383333"/>
<path d="M167.274 151.572C168.247 141.092 173.599 127.03 175.91 121.518L180.949 118.031C179.959 119.094 177.856 122.256 177.361 126.404C176.742 131.588 180.703 139.393 180.14 146.856C179.577 154.32 174.363 169.165 172.848 180.196C172.127 185.452 173.701 190.827 174.385 196.006C174.85 199.523 175.495 205.415 174.817 205.364C174.031 203.713 173.09 201.07 169.072 191.057C163.52 177.218 166.059 164.672 167.274 151.572Z" fill="#CDC7C7"/>
<path d="M217.367 84.3213C219.867 85.3439 226.863 90.1062 227.132 93.7658C227.47 98.3402 224.568 100.623 226.314 104.622C228.059 108.62 235.544 111.914 235.361 117.359C235.177 122.804 231.867 147.821 230.867 155.321C229.905 162.529 231.308 170.869 240.867 176.821C243.533 178.821 248.767 185.021 248.367 193.821" stroke="#1A1616" stroke-width="3" stroke-linecap="round"/>
<path d="M171.387 133.232C168.912 141.915 164.308 161.948 165.688 172.605C167.412 185.928 169.76 197.022 174.573 205.573" stroke="#1A1616" stroke-width="3" stroke-linecap="round"/>
<path d="M180.151 119.563C178.866 120.528 176.54 124.022 177.523 130.283C178.753 138.109 181.074 143.515 178.779 155.852C176.484 168.188 170.365 182.966 174.385 196.006" stroke="#1A1616" stroke-width="3" stroke-linecap="round"/>
<path d="M230.802 81.3053C242.349 76.5808 252.56 103.418 253.867 110.321C258.695 135.821 273.377 151.531 278.367 159.321C284.752 169.29 296.521 180.152 296.867 194.821C297.162 207.375 286.367 214.821 281.867 235.321C279.533 245.951 257.716 259.821 243.867 255.821C246.148 251.155 258.867 241.821 250.017 230.321C246.57 225.841 238.755 220.821 234.755 211.321C230.755 201.821 232.011 181.562 234.755 172.712" stroke="#1A1616" stroke-width="3" stroke-linecap="round" stroke-linejoin="round"/>
<path d="M166.945 128.802C170.917 121.368 178.483 120.574 185.084 114.476C191.685 108.378 188.578 89.265 194.625 84.4897C199.462 80.6695 210.486 82.2744 215.393 83.5543C227.03 83.0674 230.768 81.7572 231.024 78.3648C231.279 74.9723 228.971 66.3825 216.621 67.2706C204.272 68.1587 192.098 69.7424 184.319 79.3909C176.54 89.0394 166.816 100.361 164.968 109.774C163.121 119.188 152.706 129.094 151.367 140.821C150.027 152.547 143.412 157.745 134.367 172.712C115.867 203.321 137.367 197.821 143.867 237.321C146.993 256.321 170.567 262.155 172.367 261.821C170.085 257.155 166.945 236.321 175.367 229.821C179.842 226.367 193.367 212.821 193.367 205.821C194.399 198.165 188.373 181.562 185.629 172.712C183.434 165.632 183.322 154.038 183.541 149.127" stroke="#1A1616" stroke-width="3" stroke-linecap="round" stroke-linejoin="round"/>
<path d="M215.195 91.2025L230.723 92.3695L232.366 95.5432C232.366 95.5432 215.472 97.9596 201.911 97.1913C188.349 96.4229 183.613 92.1726 183.613 92.1726L186.159 89.8253L191.157 89.718L200.876 76.5064L204.875 76.4205L215.195 91.2025Z" fill="#CDC7C7" stroke="#1A1616"/>
<path d="M184.627 92.3354C184.627 92.3354 188.349 96.4227 201.91 97.1911C215.472 97.9594 232.366 95.543 232.366 95.543" stroke="#1A1616" stroke-width="3" stroke-linecap="round"/>
<path d="M230.723 92.3695L215.195 91.2025L204.875 76.4206L201.327 76.2691L191.157 89.7181L186.159 89.8254" stroke="#1A1616" stroke-width="3" stroke-linecap="round"/>
<path d="M194.867 82.8213C189.867 85.8213 184.967 90.3213 183.367 96.3213C181.367 103.821 168.867 110.321 168.867 120.321" stroke="#1A1616" stroke-width="3" stroke-linecap="round"/>
<path d="M318.261 292.161C315.513 308.53 299.942 330.809 292.5 339.903C291.461 341.192 280.478 336.493 275.326 329.672C271.204 324.216 258.725 289.888 253 273.406C256.435 269.995 263.648 261.47 265.022 254.65C266.739 246.125 273.609 198.383 289.065 203.498C304.522 208.614 300.565 240.206 304 243.616C315 254.537 310.22 271.536 324 268.116C320.565 270.958 321.009 275.793 318.261 292.161Z" fill="#8A8585" stroke="#1A1616" stroke-width="3" stroke-linecap="round" stroke-linejoin="round"/>
<path d="M299.5 251.616C297.9 259.616 298.833 271.616 299.5 276.616L286 330.616L292.5 339.903C299.936 330.837 315.499 308.598 318.261 292.161C321.009 275.793 320.565 270.958 324 268.116C310.22 271.536 315 252.537 304 241.616C303.167 241.616 301.1 243.616 299.5 251.616Z" fill="#524F4F" stroke="#1A1616" stroke-width="3" stroke-linecap="round" stroke-linejoin="round"/>
<path d="M275 249.116C275.8 255.116 276.667 279.616 277 291.116C276.775 291.949 276.326 295.016 276.326 300.616C276.326 307.616 283 335.116 281 335.116C279.4 335.116 277.218 332.154 276.326 330.672C272.204 325.216 259.725 290.888 254 274.406C257.435 270.995 264.648 262.47 266.022 255.65L270 235.116C273 238.616 274 241.616 275 249.116Z" fill="#524F4F" stroke="#1A1616" stroke-width="3" stroke-linecap="round" stroke-linejoin="round"/>
<path d="M305.804 331.116C305.804 324.716 310.5 306.116 303.5 296.116C296.5 286.116 296.135 275.616 288.402 275.616C280.669 275.616 284.972 278.116 280.669 286.116C272.883 300.588 277.494 324.192 280.669 340.362C282.587 351.572 284.304 366.728 284.304 367.862C284.304 369.362 285.304 378.862 285.304 380.862C285.304 382.862 284.804 387.362 284.804 389.862C284.804 392.362 288.304 401.862 288.804 403.362C289.304 404.862 293.804 410.362 294.804 412.862C295.804 415.362 297.804 417.862 298.304 420.362C298.804 422.862 300.304 426.362 302.804 424.362C304.804 422.762 305.637 420.362 305.804 419.362L307.304 420.362C309.304 421.362 311.804 421.862 313.304 420.862C314.804 419.862 316.304 418.362 315.304 416.362L312.304 411.362C312.804 411.362 314.304 410.362 314.804 408.862C315.304 407.362 315.804 403.862 316.804 401.862C317.804 399.862 319.304 397.362 319.804 396.362C320.304 395.362 321.304 395.362 321.804 392.362C322.304 389.362 321.804 389.362 320.804 386.862C319.804 384.362 318.304 382.362 316.804 380.362C315.304 378.362 309.804 375.362 308.304 372.362C306.804 369.362 305.804 361.362 305.804 357.362L305.804 331.116Z" fill="#BBB4B4" stroke="#1A1616" stroke-width="3" stroke-linecap="round"/>
</g>
<path fill-rule="evenodd" clip-rule="evenodd" d="M59.584 97.4819C59.584 95.1031 61.5428 92 63.959 92C66.3753 92 68.334 93.9284 68.334 96.3072C68.334 99.1363 64.8595 102.703 62.0956 105.54C61.1748 106.485 60.3328 107.35 59.7245 108.079C60.504 107.694 61.4116 107.185 62.3906 106.637C65.8464 104.702 70.1909 102.269 72.9236 103.001C75.2213 103.617 76.5771 106.008 75.9517 108.342C75.3263 110.676 71.822 111.765 69.5242 111.149C71.822 111.765 74.3124 114.46 73.687 116.794C73.0617 119.127 70.692 120.52 68.3942 119.905C65.6616 119.172 63.1157 114.893 61.0905 111.489C60.73 110.883 60.3861 110.305 60.0605 109.78C60.4196 111.832 60.6176 113.865 60.8083 115.823C61.295 120.82 61.7331 125.319 64.6788 128.347C65.9884 129.693 62.4746 131.039 59.5841 131.039C56.713 131.039 53.1627 129.693 54.4723 128.347C57.8083 124.917 58.3108 119.441 58.8211 113.877C58.9552 112.415 59.0899 110.947 59.2767 109.509C58.9018 110.104 58.5011 110.777 58.0776 111.489C56.0524 114.893 53.5065 119.172 50.7738 119.905C48.4761 120.52 46.1064 119.127 45.4811 116.794C44.8557 114.46 47.3461 111.765 49.6439 111.149C47.3461 111.765 43.8418 110.676 43.2164 108.342C42.591 106.008 43.9468 103.617 46.2445 103.001C48.9772 102.269 53.3217 104.702 56.7775 106.637C57.7565 107.185 58.6641 107.694 59.4436 108.079C58.8353 107.35 57.9933 106.486 57.0725 105.54L57.0725 105.54C54.3086 102.703 50.834 99.1363 50.834 96.3072C50.834 93.9284 52.7928 92 55.209 92C57.6253 92 59.584 95.1031 59.584 97.4819Z" fill="#453B3B"/>
<path d="M58.584 97.4819C58.584 98.0342 59.0318 98.4819 59.584 98.4819C60.1363 98.4819 60.584 98.0342 60.584 97.4819H58.584ZM62.0956 105.54L61.3793 104.842L62.0956 105.54ZM59.7245 108.079L58.9567 107.438C58.6539 107.801 58.6465 108.326 58.9389 108.698C59.2314 109.069 59.7438 109.185 60.1675 108.975L59.7245 108.079ZM62.3906 106.637L62.8792 107.51L62.3906 106.637ZM72.9236 103.001L72.6648 103.967L72.9236 103.001ZM75.9517 108.342L74.9858 108.083L75.9517 108.342ZM69.7831 110.183C69.2496 110.04 68.7013 110.357 68.5583 110.89C68.4154 111.423 68.732 111.972 69.2654 112.115L69.7831 110.183ZM73.687 116.794L74.653 117.052L73.687 116.794ZM68.3942 119.905L68.1354 120.871L68.3942 119.905ZM61.0905 111.489L61.9499 110.978L61.0905 111.489ZM60.0605 109.78L60.9106 109.253C60.6582 108.846 60.1523 108.675 59.7045 108.845C59.2567 109.016 58.9929 109.48 59.0755 109.952L60.0605 109.78ZM60.8083 115.823L59.813 115.919L60.8083 115.823ZM64.6788 128.347L65.3955 127.649L64.6788 128.347ZM54.4723 128.347L53.7555 127.649L54.4723 128.347ZM58.8211 113.877L57.8253 113.786L58.8211 113.877ZM59.2767 109.509L60.2684 109.638C60.3288 109.172 60.0573 108.727 59.6156 108.568C59.1739 108.409 58.681 108.579 58.4307 108.976L59.2767 109.509ZM58.0776 111.489L57.2182 110.978L58.0776 111.489ZM50.7738 119.905L51.0327 120.871H51.0327L50.7738 119.905ZM45.4811 116.794L46.447 116.535L45.4811 116.794ZM49.9027 112.115C50.4361 111.972 50.7527 111.423 50.6098 110.89C50.4668 110.357 49.9185 110.04 49.385 110.183L49.9027 112.115ZM43.2164 108.342L44.1823 108.083H44.1823L43.2164 108.342ZM46.2445 103.001L46.5033 103.967H46.5033L46.2445 103.001ZM56.7775 106.637L57.2662 105.765L56.7775 106.637ZM59.4436 108.079L59.0006 108.975C59.4243 109.185 59.9367 109.069 60.2292 108.698C60.5216 108.326 60.5142 107.801 60.2114 107.438L59.4436 108.079ZM57.0725 105.54L56.3326 106.213C56.3403 106.221 56.3482 106.23 56.3562 106.238L57.0725 105.54ZM57.0725 105.54L57.8124 104.868C57.8047 104.859 57.7968 104.851 57.7888 104.842L57.0725 105.54ZM63.959 91C62.3083 91 60.9518 92.0475 60.0608 93.2552C59.1615 94.4741 58.584 96.0485 58.584 97.4819H60.584C60.584 96.5366 60.986 95.3699 61.6702 94.4426C62.3626 93.504 63.1936 93 63.959 93V91ZM69.334 96.3072C69.334 93.3615 66.9128 91 63.959 91V93C65.8378 93 67.334 94.4954 67.334 96.3072H69.334ZM62.8119 106.238C64.1844 104.829 65.7897 103.183 67.0479 101.525C68.2752 99.9078 69.334 98.0775 69.334 96.3072H67.334C67.334 97.3661 66.6556 98.7336 65.4547 100.316C64.2847 101.858 62.7707 103.414 61.3793 104.842L62.8119 106.238ZM60.4924 108.719C61.0705 108.027 61.8813 107.193 62.8119 106.238L61.3793 104.842C60.4682 105.778 59.5952 106.673 58.9567 107.438L60.4924 108.719ZM61.9019 105.765C60.9159 106.317 60.033 106.811 59.2816 107.182L60.1675 108.975C60.975 108.576 61.9074 108.054 62.8792 107.51L61.9019 105.765ZM73.1824 102.035C71.4725 101.577 69.4304 102.126 67.5505 102.893C65.6233 103.679 63.6181 104.804 61.9019 105.765L62.8792 107.51C64.6189 106.535 66.5139 105.476 68.306 104.745C70.1455 103.994 71.642 103.693 72.6648 103.967L73.1824 102.035ZM76.9176 108.601C77.6821 105.747 76.0278 102.797 73.1824 102.035L72.6648 103.967C74.4149 104.436 75.472 106.268 74.9858 108.083L76.9176 108.601ZM69.2654 112.115C70.65 112.486 72.3202 112.335 73.7303 111.782C75.1275 111.234 76.4904 110.195 76.9176 108.601L74.9858 108.083C74.7877 108.822 74.0857 109.495 72.9999 109.92C71.9271 110.341 70.6962 110.428 69.7831 110.183L69.2654 112.115ZM74.653 117.052C75.0802 115.458 74.4195 113.876 73.4835 112.703C72.5389 111.519 71.1677 110.554 69.7831 110.183L69.2654 112.115C70.1786 112.359 71.2014 113.05 71.9201 113.95C72.6475 114.862 72.9192 115.795 72.7211 116.535L74.653 117.052ZM68.1354 120.871C70.9808 121.633 73.8885 119.906 74.653 117.052L72.7211 116.535C72.2349 118.349 70.4032 119.408 68.6531 118.939L68.1354 120.871ZM60.2311 112C61.2368 113.691 62.411 115.667 63.687 117.312C64.9316 118.916 66.4255 120.412 68.1354 120.871L68.6531 118.939C67.6303 118.665 66.485 117.655 65.2671 116.086C64.0806 114.557 62.9694 112.692 61.9499 110.978L60.2311 112ZM59.2105 110.306C59.5304 110.823 59.8695 111.393 60.2311 112L61.9499 110.978C61.5905 110.374 61.2418 109.788 60.9106 109.253L59.2105 110.306ZM61.8035 115.726C61.6135 113.774 61.4122 111.703 61.0455 109.607L59.0755 109.952C59.4269 111.96 59.6218 113.957 59.813 115.919L61.8035 115.726ZM65.3955 127.649C64.0856 126.303 63.3033 124.602 62.7908 122.578C62.2743 120.537 62.0487 118.243 61.8035 115.726L59.813 115.919C60.0545 118.4 60.2913 120.854 60.852 123.069C61.4167 125.3 62.3262 127.362 63.962 129.044L65.3955 127.649ZM59.5841 132.039C61.1529 132.039 62.9027 131.679 64.1312 131.103C64.7188 130.827 65.3503 130.428 65.6979 129.852C65.8878 129.537 66.0066 129.144 65.9444 128.708C65.8834 128.279 65.6646 127.926 65.3955 127.649L63.962 129.044C64.0204 129.104 63.9783 129.087 63.9644 128.99C63.9494 128.885 63.986 128.818 63.9856 128.818C63.9522 128.874 63.7702 129.063 63.2818 129.292C62.3581 129.725 60.9057 130.039 59.5841 130.039V132.039ZM53.7555 127.649C53.4856 127.927 53.2663 128.282 53.2074 128.713C53.1474 129.152 53.2704 129.545 53.4624 129.858C53.8137 130.431 54.4478 130.829 55.0379 131.104C56.2713 131.679 58.0242 132.039 59.5841 132.039V130.039C58.2728 130.039 56.8151 129.726 55.883 129.291C55.3902 129.061 55.2029 128.87 55.1672 128.812C55.1656 128.81 55.2036 128.877 55.1889 128.984C55.1753 129.084 55.1316 129.103 55.1891 129.044L53.7555 127.649ZM57.8253 113.786C57.5686 116.584 57.3204 119.268 56.7347 121.676C56.1511 124.075 55.2519 126.111 53.7555 127.649L55.1891 129.044C57.0287 127.153 58.0488 124.736 58.678 122.149C59.3051 119.57 59.5633 116.734 59.8169 113.969L57.8253 113.786ZM58.285 109.38C58.0954 110.84 57.9591 112.327 57.8253 113.786L59.8169 113.969C59.9514 112.503 60.0844 111.054 60.2684 109.638L58.285 109.38ZM58.937 112C59.3622 111.286 59.756 110.624 60.1227 110.042L58.4307 108.976C58.0476 109.584 57.64 110.269 57.2182 110.978L58.937 112ZM51.0327 120.871C52.7426 120.412 54.2365 118.916 55.4811 117.312C56.7571 115.667 57.9313 113.691 58.937 112L57.2182 110.978C56.1987 112.692 55.0875 114.557 53.901 116.086C52.6831 117.655 51.5378 118.665 50.515 118.939L51.0327 120.871ZM44.5151 117.052C45.2796 119.906 48.1873 121.633 51.0327 120.871L50.515 118.939C48.7649 119.408 46.9332 118.349 46.447 116.535L44.5151 117.052ZM49.385 110.183C48.0004 110.554 46.6292 111.519 45.6846 112.703C44.7486 113.876 44.0879 115.458 44.5151 117.052L46.447 116.535C46.2489 115.795 46.5206 114.862 47.248 113.95C47.9667 113.05 48.9895 112.359 49.9027 112.115L49.385 110.183ZM42.2505 108.601C42.6777 110.195 44.0406 111.234 45.4378 111.782C46.8479 112.335 48.5181 112.486 49.9027 112.115L49.385 110.183C48.4719 110.428 47.241 110.341 46.1682 109.92C45.0824 109.495 44.3804 108.822 44.1823 108.083L42.2505 108.601ZM45.9857 102.035C43.1403 102.797 41.486 105.747 42.2505 108.601L44.1823 108.083C43.6961 106.268 44.7532 104.436 46.5033 103.967L45.9857 102.035ZM57.2662 105.765C55.55 104.804 53.5448 103.679 51.6176 102.893C49.7377 102.126 47.6956 101.577 45.9857 102.035L46.5033 103.967C47.5261 103.693 49.0226 103.994 50.8621 104.745C52.6542 105.476 54.5492 106.535 56.2889 107.51L57.2662 105.765ZM59.8865 107.182C59.1351 106.811 58.2522 106.317 57.2662 105.765L56.2889 107.51C57.2607 108.054 58.1931 108.576 59.0006 108.975L59.8865 107.182ZM56.3562 106.238C57.2868 107.193 58.0976 108.027 58.6757 108.719L60.2114 107.438C59.5729 106.673 58.6999 105.778 57.7888 104.842L56.3562 106.238ZM56.3326 106.213L56.3326 106.213L57.8125 104.868L57.8124 104.868L56.3326 106.213ZM49.834 96.3072C49.834 98.0775 50.8929 99.9078 52.1202 101.525C53.3784 103.183 54.9837 104.829 56.3562 106.238L57.7888 104.842C56.3974 103.414 54.8834 101.858 53.7134 100.316C52.5125 98.7336 51.834 97.3661 51.834 96.3072H49.834ZM55.209 91C52.2553 91 49.834 93.3615 49.834 96.3072H51.834C51.834 94.4954 53.3303 93 55.209 93V91ZM60.584 97.4819C60.584 96.0485 60.0066 94.4741 59.1073 93.2552C58.2163 92.0475 56.8598 91 55.209 91V93C55.9745 93 56.8055 93.504 57.4979 94.4426C58.1821 95.3699 58.584 96.5366 58.584 97.4819H60.584Z" fill="#453B3B"/>
<path d="M310.401 529.397C310.401 525.351 311.285 521.738 313.054 518.558C314.804 515.377 317.307 512.827 320.563 510.908C323.819 509.007 327.62 507.906 331.968 507.605C331.384 507.492 330.5 507.163 329.314 506.617C327.545 505.845 325.945 505.243 324.515 504.81C323.085 504.358 321.655 504.133 320.224 504.133C319.49 504.133 318.898 504.151 318.446 504.189L321.043 497.414C321.156 497.377 321.56 497.358 322.257 497.358C323.687 497.358 325.061 497.602 326.378 498.092C327.677 498.562 329.352 499.287 331.403 500.265C333.059 501.112 334.461 501.752 335.609 502.185C336.738 502.599 337.839 502.806 338.912 502.806C341.151 502.806 343.268 501.959 345.263 500.265L347.973 504.471C346.204 506.598 343.814 507.849 340.803 508.226C344.285 509.11 347.286 510.55 349.808 512.545C352.33 514.559 354.278 517.005 355.652 519.884C357.007 522.783 357.684 525.954 357.684 529.397C357.684 533.707 356.687 537.518 354.692 540.83C352.678 544.142 349.883 546.702 346.308 548.508C342.732 550.334 338.63 551.247 334 551.247C329.333 551.247 325.211 550.306 321.636 548.424C318.041 546.561 315.275 543.973 313.336 540.661C311.379 537.349 310.401 533.594 310.401 529.397ZM334 515.227C331.61 515.227 329.53 515.848 327.761 517.09C325.974 518.351 324.609 520.044 323.668 522.171C322.727 524.316 322.257 526.725 322.257 529.397C322.257 532.051 322.737 534.441 323.696 536.568C324.656 538.713 326.039 540.388 327.846 541.592C329.634 542.816 331.704 543.427 334.056 543.427C336.447 543.427 338.517 542.797 340.267 541.536C342.017 540.294 343.372 538.609 344.332 536.483C345.273 534.375 345.743 532.032 345.743 529.454C345.743 526.782 345.244 524.354 344.247 522.171C343.231 520.007 341.838 518.304 340.069 517.061C338.3 515.838 336.277 515.227 334 515.227Z" fill="#1A1616"/>
<g clip-path="url(#clip2)">
<path d="M284.804 352.747C276.97 364.747 261.604 386.947 252.804 395.747L99.5 397.5C97.2254 394.088 102.36 373.05 97 355.5C92.9342 342.187 77.8037 333.215 77.8037 322V287.247L311.304 280.247L284.804 352.747Z" fill="#BDB9B9"/>
<path d="M176.804 399.247C204.304 399.247 215.804 401.747 232.804 408.247L253.804 394.747C226.804 381.247 199.502 377.365 176.804 377.365C149.309 377.365 123.061 383.671 99.3037 397.247C100.137 400.247 102.304 406.247 104.304 408.247C106.304 410.247 108.804 412.168 109.804 413.128C123.674 406.61 147.079 399.247 176.804 399.247Z" fill="#453B3B"/>
<path d="M213.304 458.747C213.304 463.547 211.804 472.247 211.804 476.247L211.304 477.747C211.304 477.459 201.804 494.172 197.804 496.863C195.957 498.106 193.328 501.922 190.706 506.363L175.615 505.363C175.03 504.454 174.425 503.608 173.804 502.863C168.804 496.863 164.804 499.636 157.804 493.5C151.184 487.697 159.32 463.133 154.727 454.983C154.548 454.292 154.163 452.308 154.804 449.747C155.804 445.747 155.304 438.747 157.804 433.747C159.137 429.747 161.804 421.647 161.804 421.247C158.304 420.58 150.204 419.247 145.804 419.247C140.304 419.247 124.304 418.247 120.804 417.247C117.304 416.247 112.804 412.747 110.804 412.747C108.804 412.747 148.804 397.247 180.304 399.247C211.804 401.247 225.137 405.913 231.804 408.247C226.137 410.247 213.704 414.547 209.304 415.747C204.904 416.947 201.804 417.247 200.804 417.247C200.804 417.247 201.804 420.747 202.304 421.747L204.304 425.747C208.304 428.247 209.304 438.747 211.804 443.247C213.804 446.847 213.637 455.08 213.304 458.747Z" fill="#BBB4B4"/>
<path d="M230.304 406.765C218.057 402.786 200.157 399.247 176.804 399.247C147.079 399.247 123.674 406.61 109.804 413.128" stroke="#1A1616" stroke-width="3" stroke-linecap="round"/>
<path d="M241.804 389.747C221 380.949 199.502 377.365 176.804 377.365C149.309 377.365 126.257 382.424 102.5 396" stroke="#1A1616" stroke-width="3" stroke-linecap="round"/>
<path d="M211.804 476.247C211.804 472.247 213.304 463.547 213.304 458.747C213.637 455.08 213.804 446.847 211.804 443.247C209.304 438.747 207.804 427.747 203.804 425.247C199.804 422.747 192.804 416.747 183.804 421.247C174.804 425.747 160.304 428.747 157.804 433.747C155.304 438.747 155.804 445.747 154.804 449.747C154.004 452.947 154.804 455.247 154.804 455.247" stroke="#1A1616" stroke-width="3" stroke-linecap="round"/>
<path d="M243.804 364.247L258.804 314.247" stroke="#1A1616" stroke-width="3" stroke-linecap="round"/>
<path d="M161.304 420.747C157.137 420.08 147.404 418.747 141.804 418.747C136.204 418.747 124.5 420.747 116 415.5" stroke="#1A1616" stroke-width="3" stroke-linecap="round"/>
<path d="M201.204 416.747C217.191 414.916 241.13 407.42 252.804 395.747C261.604 386.947 276.97 364.747 284.804 352.747" stroke="#1A1616" stroke-width="3" stroke-linecap="round"/>
<path d="M206.304 427.747C205.588 425.957 202.055 421.863 201.204 416.747C200.866 414.714 200.951 412.521 201.804 410.247" stroke="#1A1616" stroke-width="3" stroke-linecap="round"/>
<path d="M318.261 292.444C315.513 308.812 299.942 331.092 292.5 340.185C291.461 341.475 280.478 336.775 275.326 329.955C271.204 324.499 258.725 290.17 253 273.688C256.435 270.278 263.648 261.753 265.022 254.932C266.739 246.407 273.609 198.666 289.065 203.781C304.522 208.896 300.565 240.488 304 243.898C315 254.819 310.22 271.819 324 268.398C320.565 271.24 321.009 276.075 318.261 292.444Z" fill="#8A8585" stroke="#1A1616" stroke-width="3" stroke-linecap="round" stroke-linejoin="round"/>
<path d="M299.5 251.899C297.9 259.899 298.833 271.899 299.5 276.899L286 330.899L292.5 340.185C299.936 331.12 315.499 308.88 318.261 292.444C321.009 276.075 320.565 271.24 324 268.399C310.22 271.819 315 252.82 304 241.899C303.167 241.899 301.1 243.899 299.5 251.899Z" fill="#524F4F" stroke="#1A1616" stroke-width="3" stroke-linecap="round" stroke-linejoin="round"/>
<path d="M275 249.398C275.8 255.398 276.667 279.898 277 291.398C276.775 292.232 276.326 295.298 276.326 300.898C276.326 307.898 283 335.398 281 335.398C279.4 335.398 277.218 332.436 276.326 330.955C272.204 325.499 259.725 291.17 254 274.688C257.435 271.278 264.648 262.753 266.022 255.932L270 235.398C273 238.898 274 241.898 275 249.398Z" fill="#524F4F" stroke="#1A1616" stroke-width="3" stroke-linecap="round" stroke-linejoin="round"/>
<path d="M305.804 331.398C305.804 324.998 310.5 306.398 303.5 296.398C296.5 286.398 296.135 275.898 288.402 275.898C280.669 275.898 284.972 278.398 280.669 286.398C272.883 300.871 277.494 324.475 280.669 340.645C282.587 351.855 284.304 367.01 284.304 368.145C284.304 369.645 285.304 379.145 285.304 381.145C285.304 383.145 284.804 387.645 284.804 390.145C284.804 392.645 288.304 402.145 288.804 403.645C289.304 405.145 293.804 410.645 294.804 413.145C295.804 415.645 297.804 418.145 298.304 420.645C298.804 423.145 300.304 426.645 302.804 424.645C304.804 423.045 305.637 420.645 305.804 419.645L307.304 420.645C309.304 421.645 311.804 422.145 313.304 421.145C314.804 420.145 316.304 418.645 315.304 416.645L312.304 411.645C312.804 411.645 314.304 410.645 314.804 409.145C315.304 407.645 315.804 404.145 316.804 402.145C317.804 400.145 319.304 397.645 319.804 396.645C320.304 395.645 321.304 395.645 321.804 392.645C322.304 389.645 321.804 389.645 320.804 387.145C319.804 384.645 318.304 382.645 316.804 380.645C315.304 378.645 309.804 375.645 308.304 372.645C306.804 369.645 305.804 361.645 305.804 357.645V331.398Z" fill="#BBB4B4" stroke="#1A1616" stroke-width="3" stroke-linecap="round"/>
<path d="M315.304 388.645C313.304 387.812 309.104 386.045 308.304 385.645C307.304 385.145 304.804 382.645 303.804 383.645C302.804 384.645 301.804 386.645 302.304 387.645C302.804 388.645 305.304 391.145 306.804 392.145C308.304 393.145 312.804 395.145 313.304 395.645C313.804 396.145 315.804 395.145 316.304 392.645M301.804 387.145C300.804 386.312 298.604 384.645 297.804 384.645C296.804 384.645 294.804 387.145 294.804 388.645C294.804 389.637 296.333 391.066 297.804 392.354M315.304 402.145C314.97 402.312 314.004 402.745 312.804 403.145C311.304 403.645 309.804 402.645 309.304 402.145C308.804 401.645 301.304 395.645 299.804 394.145C299.295 393.637 298.557 393.014 297.804 392.354M297.804 392.354C296.804 392.451 294.604 392.945 293.804 394.145C292.804 395.645 292.304 397.145 293.804 398.645C295.304 400.145 299.804 404.145 300.804 405.145C301.478 405.82 304.201 408.088 306.209 409.645M312.804 412.145C313.304 412.979 314.504 415.045 315.304 416.645C316.304 418.645 314.804 420.145 313.304 421.145C311.804 422.145 309.304 421.645 307.304 420.645C305.304 419.645 302.804 416.145 301.304 415.145C299.804 414.145 297.304 411.145 299.804 409.145C301.804 407.545 304.907 408.812 306.209 409.645M306.209 409.645C307.177 410.397 307.978 410.983 308.304 411.145C308.97 411.979 310.504 413.645 311.304 413.645" stroke="#1A1616" stroke-width="3" stroke-linecap="round"/>
<path d="M287.322 348.5C294.822 361.5 297.859 372.809 299 386.5M301 415C301 416.667 304 431 291.322 440.5" stroke="#1A1616" stroke-width="3" stroke-linecap="round"/>
<path d="M273.253 451.182C273.223 449.002 273.554 447.435 275.701 447.405C273.554 447.435 273.174 445.466 273.144 443.285C273.114 441.104 274.831 439.313 276.978 439.283C280.449 439.235 285.231 444.968 287.865 447.032C285.289 449.168 280.666 455.03 277.195 455.078C275.048 455.107 273.283 453.363 273.253 451.182Z" fill="#453B3B" stroke="#1A1616" stroke-width="3" stroke-linecap="round" stroke-linejoin="round"/>
<path d="M281.502 432.476C283.675 432.292 285.261 432.511 285.443 434.651C285.261 432.511 287.198 431.992 289.371 431.808C291.544 431.623 293.453 433.208 293.635 435.347C293.929 438.807 288.55 443.983 286.678 446.757C284.365 444.339 278.19 440.144 277.896 436.685C277.714 434.545 279.328 432.661 281.502 432.476Z" fill="#453B3B" stroke="#1A1616" stroke-width="3" stroke-linecap="round" stroke-linejoin="round"/>
<path d="M300.971 438.902C301.571 440.999 301.661 442.598 299.597 443.188C301.661 442.598 302.543 444.398 303.143 446.495C303.743 448.592 302.556 450.771 300.491 451.361C297.153 452.316 291.037 448.036 287.955 446.733C289.882 443.997 292.809 437.13 296.147 436.175C298.211 435.584 300.371 436.805 300.971 438.902Z" fill="#453B3B" stroke="#1A1616" stroke-width="3" stroke-linecap="round" stroke-linejoin="round"/>
<path d="M294.598 459.803C292.468 460.271 290.866 460.262 290.406 458.164C290.866 460.262 289.014 461.03 286.884 461.498C284.754 461.965 282.653 460.645 282.193 458.547C281.448 455.156 286.102 449.319 287.595 446.324C290.205 448.418 296.876 451.768 297.621 455.159C298.082 457.256 296.728 459.336 294.598 459.803Z" fill="#453B3B" stroke="#1A1616" stroke-width="3" stroke-linecap="round" stroke-linejoin="round"/>
<path d="M305.804 419.645C305.637 420.645 304.804 423.045 302.804 424.645C300.304 426.645 298.804 423.145 298.304 420.645C297.804 418.145 295.804 415.645 294.804 413.145C293.804 410.645 289.304 405.145 288.804 403.645C288.304 402.145 284.804 392.645 284.804 390.145C284.804 387.645 285.304 383.145 285.304 381.145C285.304 379.145 284.304 369.645 284.304 368.145C284.304 367.01 282.587 351.855 280.668 340.645" stroke="#1A1616" stroke-width="3" stroke-linecap="round"/>
<path d="M176.485 496.182C181.392 497.462 192.416 499.066 197.253 495.246C203.299 490.471 200.192 471.358 206.793 465.26C208.106 464.048 209.456 463.045 210.809 462.158L211.726 460.173C213.012 459.209 215.284 455.723 214.354 449.454L213.245 441.978L207.559 431.679L205.653 427.344C203.765 424.282 201.15 420.457 201.133 417.061C201.113 413.023 207.806 410.077 206.863 407.038C204.119 398.188 198.093 381.585 199.126 373.929C202.335 366.208 212.957 352.18 221.133 345.179C224.373 342.404 219.781 319.828 222.133 319.679C229.133 319.236 245.134 328.679 245.134 333.679C248.133 364.679 276.782 382.713 257.633 407.038C246.817 420.779 241.973 430.252 240.633 441.978C239.294 453.705 228.756 460.548 226.909 469.962C225.062 479.375 215.337 490.697 207.559 500.345C199.78 509.994 187.606 511.577 175.256 512.465C162.907 513.353 160.598 504.764 160.854 501.371C161.11 497.979 164.848 496.669 176.485 496.182Z" fill="#383333"/>
<path d="M164.745 485.971C165.015 489.63 171.133 494.224 173.633 495.246L161.076 498.431C159.355 499.135 155.177 499.442 152.234 495.035C148.555 489.526 138.314 478.933 138.633 471.679C138.953 464.424 125.905 438.369 121.633 431.679C117.362 424.988 103.826 410.106 100.633 404.179C98.1991 399.659 93.1335 388.179 97.6335 375.679L112.633 339.679C112.633 339.679 120.133 333.179 127.633 328.679C135.133 324.178 145.633 324.179 145.633 324.179L140.133 339.679C140.133 339.679 137.133 345.179 143.633 351.679C150.134 358.179 158.028 370.497 158.633 375.679C160.071 387.978 155.133 403.538 158.633 407.038L161.633 417.061C162.338 419.62 160.881 420.583 160.854 422.679C160.76 429.95 156.7 456.933 156.517 462.377C156.334 467.822 163.818 471.116 165.564 475.115C167.309 479.113 164.408 481.396 164.745 485.971Z" fill="#383333"/>
<path d="M224.726 428.428C223.753 438.908 218.401 452.97 216.09 458.482L211.051 461.969C212.041 460.906 214.144 457.744 214.639 453.596C215.258 448.412 211.297 440.607 211.86 433.144C212.423 425.68 217.637 410.835 219.152 399.804C219.873 394.548 218.299 389.173 217.615 383.994C217.15 380.477 216.505 374.585 217.183 374.636C217.969 376.287 218.91 378.93 222.928 388.943C228.48 402.782 225.941 415.328 224.726 428.428Z" fill="#CDC7C7"/>
<path d="M174.633 495.679C172.133 494.656 165.137 489.894 164.868 486.234C164.53 481.66 167.432 479.377 165.686 475.378C163.941 471.38 156.456 468.086 156.639 462.641C156.823 457.196 160.133 432.179 161.133 424.679C162.095 417.471 160.692 409.131 151.133 403.179C148.467 401.179 143.233 394.979 143.633 386.179" stroke="#1A1616" stroke-width="3" stroke-linecap="round"/>
<path d="M220.613 446.768C223.088 438.085 227.692 418.052 226.312 407.395C224.588 394.072 222.24 382.978 217.427 374.427" stroke="#1A1616" stroke-width="3" stroke-linecap="round"/>
<path d="M211.849 460.437C213.134 459.472 215.46 455.978 214.477 449.717C213.247 441.891 210.926 436.485 213.221 424.148C215.516 411.812 221.635 397.034 217.615 383.994" stroke="#1A1616" stroke-width="3" stroke-linecap="round"/>
<path d="M161.198 498.695C149.651 503.419 139.44 476.582 138.133 469.679C133.305 444.179 118.623 428.469 113.633 420.679C107.248 410.71 95.4786 399.848 95.1334 385.179C94.8379 372.625 105.633 365.179 110.133 344.679C112.467 334.049 134.284 320.179 148.133 324.179C145.852 328.846 133.133 338.179 141.983 349.679C145.43 354.159 153.245 359.179 157.245 368.679C161.245 378.179 159.989 398.438 157.245 407.288" stroke="#1A1616" stroke-width="3" stroke-linecap="round" stroke-linejoin="round"/>
<path d="M225.055 451.198C221.083 458.632 213.517 459.426 206.916 465.524C200.315 471.622 203.422 490.735 197.375 495.51C192.538 499.33 181.514 497.726 176.607 496.446C164.97 496.933 161.232 498.243 160.976 501.635C160.721 505.028 163.029 513.617 175.379 512.729C187.728 511.841 199.902 510.258 207.681 500.609C215.46 490.961 225.184 479.639 227.032 470.226C228.879 460.812 239.294 450.906 240.633 439.179C241.973 427.453 248.588 422.255 257.633 407.288C276.133 376.679 254.633 382.179 248.133 342.679C245.007 323.679 221.433 317.845 219.633 318.179C221.915 322.845 225.055 343.679 216.633 350.179C212.158 353.633 198.633 367.179 198.633 374.179C197.601 381.835 203.627 398.438 206.371 407.288C208.566 414.368 208.678 425.962 208.459 430.873" stroke="#1A1616" stroke-width="3" stroke-linecap="round" stroke-linejoin="round"/>
<path d="M176.805 488.798L161.277 487.631L159.634 484.457C159.634 484.457 176.528 482.041 190.089 482.809C203.651 483.577 208.387 487.828 208.387 487.828L205.841 490.175L200.843 490.282L191.124 503.494L187.125 503.58L176.805 488.798Z" fill="#CDC7C7" stroke="#1A1616"/>
<path d="M207.373 487.665C207.373 487.665 203.651 483.577 190.09 482.809C176.528 482.041 159.634 484.457 159.634 484.457" stroke="#1A1616" stroke-width="3" stroke-linecap="round"/>
<path d="M161.277 487.631L176.805 488.798L187.125 503.58L190.673 503.731L200.843 490.282L205.841 490.175" stroke="#1A1616" stroke-width="3" stroke-linecap="round"/>
<path d="M197.133 497.179C202.133 494.179 207.033 489.679 208.633 483.679C210.633 476.179 223.133 469.679 223.133 459.679" stroke="#1A1616" stroke-width="3" stroke-linecap="round"/>
<path d="M73.7391 287.839C76.487 271.47 92.058 249.191 99.5 240.097C100.539 238.808 111.522 243.507 116.674 250.328C120.796 255.784 133.275 290.112 139 306.594C135.565 310.005 128.352 318.53 126.978 325.35C125.261 333.875 118.391 381.617 102.935 376.502C87.4782 371.386 91.4348 339.794 88 336.384C77 325.463 81.7804 308.464 68 311.884C71.4348 309.042 70.9913 304.207 73.7391 287.839Z" fill="#8A8585" stroke="#1A1616" stroke-width="3" stroke-linecap="round" stroke-linejoin="round"/>
<path d="M92.5 328.384C94.1 320.384 93.1667 308.384 92.5 303.384L106 249.384L99.5 240.097C92.064 249.163 76.5014 271.402 73.7391 287.839C70.9913 304.207 71.4348 309.042 68 311.884C81.7804 308.464 77 327.463 88 338.384C88.8333 338.384 90.9 336.384 92.5 328.384Z" fill="#524F4F" stroke="#1A1616" stroke-width="3" stroke-linecap="round" stroke-linejoin="round"/>
<path d="M117 330.884C116.2 324.884 115.333 300.384 115 288.884C115.225 288.051 115.674 284.984 115.674 279.384C115.674 272.384 109 244.884 111 244.884C112.6 244.884 114.782 247.846 115.674 249.328C119.796 254.784 132.275 289.112 138 305.594C134.565 309.005 127.352 317.53 125.978 324.35L122 344.884C119 341.384 118 338.384 117 330.884Z" fill="#524F4F" stroke="#1A1616" stroke-width="3" stroke-linecap="round" stroke-linejoin="round"/>
<path d="M86.1961 248.884C86.1961 255.284 81.5 273.884 88.5 283.884C95.5 293.884 95.8648 304.384 103.598 304.384C111.331 304.384 107.028 301.884 111.331 293.884C119.117 279.412 114.506 255.808 111.331 239.638C109.413 228.428 107.696 213.272 107.696 212.138C107.696 210.638 106.696 201.138 106.696 199.138C106.696 197.138 107.196 192.638 107.196 190.138C107.196 187.638 103.696 178.138 103.196 176.638C102.696 175.138 98.1962 169.638 97.1962 167.138C96.1962 164.638 94.1962 162.138 93.6962 159.638C93.1962 157.138 91.6962 153.638 89.1962 155.638C87.1962 157.238 86.3628 159.638 86.1962 160.638L84.6962 159.638C82.6962 158.638 80.1962 158.138 78.6962 159.138C77.1962 160.138 75.6962 161.638 76.6962 163.638L79.6962 168.638C79.1962 168.638 77.6962 169.638 77.1962 171.138C76.6962 172.638 76.1962 176.138 75.1962 178.138C74.1961 180.138 72.6962 182.638 72.1962 183.638C71.6962 184.638 70.6961 184.638 70.1961 187.638C69.6961 190.638 70.1961 190.638 71.1961 193.138C72.1961 195.638 73.6961 197.638 75.1961 199.638C76.6961 201.638 82.1961 204.638 83.6961 207.638C85.1961 210.638 86.1961 218.638 86.1961 222.638L86.1961 248.884Z" fill="#BBB4B4" stroke="#1A1616" stroke-width="3" stroke-linecap="round"/>
</g>
<path fill-rule="evenodd" clip-rule="evenodd" d="M332.416 482.518C332.416 484.897 330.457 488 328.041 488C325.625 488 323.666 486.072 323.666 483.693C323.666 480.864 327.14 477.297 329.904 474.46C330.825 473.515 331.667 472.65 332.275 471.921C331.496 472.306 330.588 472.815 329.609 473.363C326.154 475.298 321.809 477.731 319.076 476.999C316.779 476.383 315.423 473.992 316.048 471.658C316.674 469.324 320.178 468.235 322.476 468.851C320.178 468.235 317.688 465.54 318.313 463.206C318.938 460.873 321.308 459.48 323.606 460.095C326.338 460.828 328.884 465.107 330.91 468.511C331.27 469.117 331.614 469.695 331.939 470.22C331.58 468.168 331.382 466.135 331.192 464.177C330.705 459.18 330.267 454.681 327.321 451.653C326.012 450.307 329.525 448.961 332.416 448.961C335.287 448.961 338.837 450.307 337.528 451.653C334.192 455.083 333.689 460.559 333.179 466.123C333.045 467.585 332.91 469.053 332.723 470.491C333.098 469.896 333.499 469.223 333.922 468.511C335.948 465.107 338.493 460.828 341.226 460.095C343.524 459.48 345.894 460.873 346.519 463.206C347.144 465.54 344.654 468.235 342.356 468.851C344.654 468.235 348.158 469.324 348.784 471.658C349.409 473.992 348.053 476.383 345.755 476.999C343.023 477.731 338.678 475.298 335.222 473.363C334.244 472.815 333.336 472.306 332.556 471.921C333.165 472.65 334.007 473.514 334.927 474.46L334.928 474.46C337.691 477.297 341.166 480.864 341.166 483.693C341.166 486.072 339.207 488 336.791 488C334.375 488 332.416 484.897 332.416 482.518Z" fill="#453B3B"/>
<path d="M333.416 482.518C333.416 481.966 332.968 481.518 332.416 481.518C331.864 481.518 331.416 481.966 331.416 482.518H333.416ZM329.904 474.46L330.621 475.158L329.904 474.46ZM332.275 471.921L333.043 472.562C333.346 472.199 333.353 471.674 333.061 471.302C332.769 470.931 332.256 470.815 331.833 471.025L332.275 471.921ZM329.609 473.363L329.121 472.49L329.609 473.363ZM319.076 476.999L319.335 476.033L319.076 476.999ZM316.048 471.658L317.014 471.917L316.048 471.658ZM322.217 469.817C322.75 469.96 323.299 469.643 323.442 469.11C323.585 468.577 323.268 468.028 322.735 467.885L322.217 469.817ZM318.313 463.206L317.347 462.948L318.313 463.206ZM323.606 460.095L323.865 459.129L323.606 460.095ZM330.91 468.511L330.05 469.022L330.91 468.511ZM331.939 470.22L331.089 470.747C331.342 471.154 331.848 471.325 332.295 471.155C332.743 470.984 333.007 470.52 332.925 470.048L331.939 470.22ZM331.192 464.177L332.187 464.081L331.192 464.177ZM327.321 451.653L326.604 452.351L327.321 451.653ZM337.528 451.653L338.244 452.351L337.528 451.653ZM333.179 466.123L334.175 466.214L333.179 466.123ZM332.723 470.491L331.732 470.362C331.671 470.828 331.943 471.273 332.384 471.432C332.826 471.591 333.319 471.421 333.569 471.024L332.723 470.491ZM333.922 468.511L334.782 469.022L333.922 468.511ZM341.226 460.095L340.967 459.129H340.967L341.226 460.095ZM346.519 463.206L345.553 463.465L346.519 463.206ZM342.097 467.885C341.564 468.028 341.247 468.577 341.39 469.11C341.533 469.643 342.082 469.96 342.615 469.817L342.097 467.885ZM348.784 471.658L347.818 471.917H347.818L348.784 471.658ZM345.755 476.999L345.497 476.033H345.497L345.755 476.999ZM335.222 473.363L334.734 474.235L335.222 473.363ZM332.556 471.921L332.999 471.025C332.576 470.815 332.063 470.931 331.771 471.302C331.478 471.674 331.486 472.199 331.789 472.562L332.556 471.921ZM334.927 474.46L335.667 473.787C335.66 473.779 335.652 473.77 335.644 473.762L334.927 474.46ZM334.928 474.46L334.188 475.132C334.195 475.141 334.203 475.149 334.211 475.158L334.928 474.46ZM328.041 489C329.692 489 331.048 487.952 331.939 486.745C332.839 485.526 333.416 483.952 333.416 482.518H331.416C331.416 483.463 331.014 484.63 330.33 485.557C329.637 486.496 328.806 487 328.041 487V489ZM322.666 483.693C322.666 486.639 325.087 489 328.041 489V487C326.162 487 324.666 485.505 324.666 483.693H322.666ZM329.188 473.762C327.816 475.171 326.21 476.817 324.952 478.475C323.725 480.092 322.666 481.923 322.666 483.693H324.666C324.666 482.634 325.344 481.266 326.545 479.684C327.715 478.142 329.229 476.586 330.621 475.158L329.188 473.762ZM331.508 471.281C330.93 471.973 330.119 472.807 329.188 473.762L330.621 475.158C331.532 474.222 332.405 473.327 333.043 472.562L331.508 471.281ZM330.098 474.235C331.084 473.683 331.967 473.189 332.718 472.818L331.833 471.025C331.025 471.424 330.093 471.946 329.121 472.49L330.098 474.235ZM318.818 477.965C320.528 478.423 322.57 477.874 324.449 477.107C326.377 476.321 328.382 475.196 330.098 474.235L329.121 472.49C327.381 473.465 325.486 474.524 323.694 475.255C321.855 476.006 320.358 476.307 319.335 476.033L318.818 477.965ZM315.082 471.399C314.318 474.253 315.972 477.203 318.818 477.965L319.335 476.033C317.585 475.564 316.528 473.732 317.014 471.917L315.082 471.399ZM322.735 467.885C321.35 467.514 319.68 467.665 318.27 468.218C316.873 468.766 315.51 469.805 315.082 471.399L317.014 471.917C317.212 471.178 317.914 470.505 319 470.08C320.073 469.659 321.304 469.572 322.217 469.817L322.735 467.885ZM317.347 462.948C316.92 464.542 317.581 466.124 318.516 467.297C319.461 468.481 320.832 469.446 322.217 469.817L322.735 467.885C321.821 467.641 320.799 466.95 320.08 466.05C319.353 465.138 319.081 464.205 319.279 463.465L317.347 462.948ZM323.865 459.129C321.019 458.367 318.112 460.094 317.347 462.948L319.279 463.465C319.765 461.651 321.597 460.592 323.347 461.061L323.865 459.129ZM331.769 468C330.763 466.309 329.589 464.333 328.313 462.688C327.068 461.084 325.574 459.588 323.865 459.129L323.347 461.061C324.37 461.335 325.515 462.345 326.733 463.914C327.919 465.443 329.031 467.308 330.05 469.022L331.769 468ZM332.79 469.694C332.47 469.177 332.13 468.607 331.769 468L330.05 469.022C330.409 469.626 330.758 470.212 331.089 470.747L332.79 469.694ZM330.196 464.274C330.387 466.226 330.588 468.297 330.954 470.393L332.925 470.048C332.573 468.04 332.378 466.043 332.187 464.081L330.196 464.274ZM326.604 452.351C327.914 453.697 328.697 455.398 329.209 457.422C329.726 459.463 329.951 461.757 330.196 464.274L332.187 464.081C331.945 461.6 331.709 459.146 331.148 456.931C330.583 454.7 329.674 452.638 328.038 450.956L326.604 452.351ZM332.416 447.961C330.847 447.961 329.097 448.321 327.869 448.897C327.281 449.173 326.65 449.572 326.302 450.148C326.112 450.463 325.993 450.856 326.056 451.292C326.117 451.721 326.335 452.074 326.604 452.351L328.038 450.956C327.98 450.896 328.022 450.913 328.036 451.01C328.051 451.115 328.014 451.182 328.014 451.182C328.048 451.126 328.23 450.937 328.718 450.708C329.642 450.275 331.094 449.961 332.416 449.961V447.961ZM338.244 452.351C338.514 452.073 338.734 451.718 338.793 451.287C338.853 450.848 338.73 450.455 338.538 450.142C338.186 449.569 337.552 449.171 336.962 448.896C335.729 448.321 333.976 447.961 332.416 447.961V449.961C333.727 449.961 335.185 450.274 336.117 450.709C336.61 450.939 336.797 451.13 336.833 451.188C336.834 451.19 336.796 451.123 336.811 451.016C336.825 450.916 336.868 450.897 336.811 450.956L338.244 452.351ZM334.175 466.214C334.431 463.416 334.68 460.732 335.265 458.324C335.849 455.925 336.748 453.889 338.244 452.351L336.811 450.956C334.971 452.847 333.951 455.264 333.322 457.851C332.695 460.43 332.437 463.266 332.183 466.031L334.175 466.214ZM333.715 470.62C333.905 469.16 334.041 467.673 334.175 466.214L332.183 466.031C332.049 467.497 331.916 468.946 331.732 470.362L333.715 470.62ZM333.063 468C332.638 468.714 332.244 469.376 331.877 469.958L333.569 471.024C333.952 470.416 334.36 469.731 334.782 469.022L333.063 468ZM340.967 459.129C339.257 459.588 337.763 461.084 336.519 462.688C335.243 464.333 334.069 466.309 333.063 468L334.782 469.022C335.801 467.308 336.913 465.443 338.099 463.914C339.317 462.345 340.462 461.335 341.485 461.061L340.967 459.129ZM347.485 462.948C346.72 460.094 343.813 458.367 340.967 459.129L341.485 461.061C343.235 460.592 345.067 461.651 345.553 463.465L347.485 462.948ZM342.615 469.817C344 469.446 345.371 468.481 346.315 467.297C347.251 466.124 347.912 464.542 347.485 462.948L345.553 463.465C345.751 464.205 345.479 465.138 344.752 466.05C344.033 466.95 343.01 467.641 342.097 467.885L342.615 469.817ZM349.75 471.399C349.322 469.805 347.959 468.766 346.562 468.218C345.152 467.665 343.482 467.514 342.097 467.885L342.615 469.817C343.528 469.572 344.759 469.659 345.832 470.08C346.918 470.505 347.62 471.178 347.818 471.917L349.75 471.399ZM346.014 477.965C348.86 477.203 350.514 474.253 349.75 471.399L347.818 471.917C348.304 473.732 347.247 475.564 345.497 476.033L346.014 477.965ZM334.734 474.235C336.45 475.196 338.455 476.321 340.382 477.107C342.262 477.874 344.304 478.423 346.014 477.965L345.497 476.033C344.474 476.307 342.977 476.006 341.138 475.255C339.346 474.524 337.451 473.465 335.711 472.49L334.734 474.235ZM332.113 472.818C332.865 473.189 333.748 473.683 334.734 474.235L335.711 472.49C334.739 471.946 333.807 471.424 332.999 471.025L332.113 472.818ZM335.644 473.762C334.713 472.807 333.902 471.973 333.324 471.281L331.789 472.562C332.427 473.327 333.3 474.222 334.211 475.158L335.644 473.762ZM335.667 473.787L335.667 473.787L334.188 475.132L334.188 475.132L335.667 473.787ZM342.166 483.693C342.166 481.923 341.107 480.092 339.88 478.475C338.622 476.817 337.016 475.171 335.644 473.762L334.211 475.158C335.603 476.586 337.117 478.142 338.287 479.684C339.488 481.266 340.166 482.634 340.166 483.693H342.166ZM336.791 489C339.745 489 342.166 486.639 342.166 483.693H340.166C340.166 485.505 338.67 487 336.791 487V489ZM331.416 482.518C331.416 483.952 331.993 485.526 332.893 486.745C333.784 487.952 335.14 489 336.791 489V487C336.025 487 335.194 486.496 334.502 485.557C333.818 484.63 333.416 483.463 333.416 482.518H331.416Z" fill="#453B3B"/>
</g>
<path d="M28.3239 6H362.676V4H28.3239V6ZM379 22.3239V557.676H381V22.3239H379ZM362.676 574H28.3239V576H362.676V574ZM12 557.676V22.324H10V557.676H12ZM28.3239 574C19.3085 574 12 566.692 12 557.676H10C10 567.796 18.2039 576 28.3239 576V574ZM379 557.676C379 566.691 371.692 574 362.676 574V576C372.796 576 381 567.796 381 557.676H379ZM362.676 6C371.692 6 379 13.3085 379 22.3239H381C381 12.2039 372.796 4 362.676 4V6ZM28.3239 4C18.2039 4 10 12.2039 10 22.324H12C12 13.3085 19.3085 6 28.3239 6V4Z" fill="#F7E2E2"/>
</g>
<defs>
<filter id="filter0_d" x="0" y="0" width="391" height="592" filterUnits="userSpaceOnUse" color-interpolation-filters="sRGB">
<feFlood flood-opacity="0" result="BackgroundImageFix"/>
<feColorMatrix in="SourceAlpha" type="matrix" values="0 0 0 0 0 0 0 0 0 0 0 0 0 0 0 0 0 0 127 0"/>
<feMorphology radius="3" operator="dilate" in="SourceAlpha" result="effect1_dropShadow"/>
<feOffset dy="6"/>
<feGaussianBlur stdDeviation="4"/>
<feColorMatrix type="matrix" values="0 0 0 0 0.279463 0 0 0 0 0.0711028 0 0 0 0 0.0740583 0 0 0 0.05 0"/>
<feBlend mode="normal" in2="BackgroundImageFix" result="effect1_dropShadow"/>
<feBlend mode="normal" in="SourceGraphic" in2="effect1_dropShadow" result="shape"/>
</filter>
<clipPath id="clip0">
<path d="M11 22.324C11 12.7562 18.7562 5 28.3239 5H362.676C372.244 5 380 12.7562 380 22.3239V557.676C380 567.244 372.244 575 362.676 575H28.3239C18.7562 575 11 567.244 11 557.676V22.324Z" fill="white"/>
</clipPath>
<clipPath id="clip1">
<rect width="270" height="242" fill="white" transform="translate(67 48)"/>
</clipPath>
<clipPath id="clip2">
<rect width="270" height="242" fill="white" transform="translate(325 532) rotate(-180)"/>
</clipPath>
</defs>
</svg>
