<svg width="391" height="592" viewBox="0 0 391 592" fill="none" xmlns="http://www.w3.org/2000/svg">
<g filter="url(#filter0_d)">
<g clip-path="url(#clip0)">
<path d="M11 22.324C11 12.7562 18.7562 5 28.3239 5H362.676C372.244 5 380 12.7562 380 22.3239V557.676C380 567.244 372.244 575 362.676 575H28.3239C18.7562 575 11 567.244 11 557.676V22.324Z" fill="white"/>
<path d="M62.0568 64.717H68.1825V72H45.4583V64.717H51.3016C51.9227 59.824 53.3718 54.8557 55.6489 49.8121C57.926 44.7497 60.7959 40.3366 64.2587 36.5728H50.2572V42.4444H42.466V29.4591H74.3646V34.9355C72.1816 37.0244 70.1491 39.7815 68.2672 43.2066C66.4041 46.6317 64.9174 50.2638 63.807 54.1029C62.7155 57.942 62.1321 61.48 62.0568 64.717Z" fill="#1A1616"/>
<path fill-rule="evenodd" clip-rule="evenodd" d="M59.584 97.4819C59.584 95.1031 61.5428 92 63.959 92C66.3753 92 68.334 93.9284 68.334 96.3072C68.334 99.1363 64.8595 102.703 62.0956 105.54C61.1748 106.485 60.3328 107.35 59.7245 108.079C60.504 107.694 61.4116 107.185 62.3906 106.637C65.8464 104.702 70.1909 102.269 72.9236 103.001C75.2213 103.617 76.5771 106.008 75.9517 108.342C75.3263 110.676 71.822 111.765 69.5242 111.149C71.822 111.765 74.3124 114.46 73.687 116.794C73.0617 119.127 70.692 120.52 68.3942 119.905C65.6616 119.172 63.1157 114.893 61.0905 111.489C60.73 110.883 60.3861 110.305 60.0605 109.78C60.4196 111.832 60.6176 113.865 60.8083 115.823C61.295 120.82 61.7331 125.319 64.6788 128.347C65.9884 129.693 62.4746 131.039 59.5841 131.039C56.713 131.039 53.1627 129.693 54.4723 128.347C57.8083 124.917 58.3108 119.441 58.8211 113.877C58.9552 112.415 59.0899 110.947 59.2767 109.509C58.9018 110.104 58.5011 110.777 58.0776 111.489C56.0524 114.893 53.5065 119.172 50.7738 119.905C48.4761 120.52 46.1064 119.127 45.4811 116.794C44.8557 114.46 47.3461 111.765 49.6439 111.149C47.3461 111.765 43.8418 110.676 43.2164 108.342C42.591 106.008 43.9468 103.617 46.2445 103.001C48.9772 102.269 53.3217 104.702 56.7775 106.637C57.7565 107.185 58.6641 107.694 59.4436 108.079C58.8353 107.35 57.9933 106.486 57.0725 105.54L57.0725 105.54C54.3086 102.703 50.834 99.1363 50.834 96.3072C50.834 93.9284 52.7928 92 55.209 92C57.6253 92 59.584 95.1031 59.584 97.4819Z" fill="#453B3B"/>
<path d="M58.584 97.4819C58.584 98.0342 59.0318 98.4819 59.584 98.4819C60.1363 98.4819 60.584 98.0342 60.584 97.4819H58.584ZM62.0956 105.54L61.3793 104.842L62.0956 105.54ZM59.7245 108.079L58.9567 107.438C58.6539 107.801 58.6465 108.326 58.9389 108.698C59.2314 109.069 59.7438 109.185 60.1675 108.975L59.7245 108.079ZM62.3906 106.637L62.8792 107.51L62.3906 106.637ZM72.9236 103.001L72.6648 103.967L72.9236 103.001ZM75.9517 108.342L74.9858 108.083L75.9517 108.342ZM69.7831 110.183C69.2496 110.04 68.7013 110.357 68.5583 110.89C68.4154 111.423 68.732 111.972 69.2654 112.115L69.7831 110.183ZM73.687 116.794L74.653 117.052L73.687 116.794ZM68.3942 119.905L68.1354 120.871L68.3942 119.905ZM61.0905 111.489L61.9499 110.978L61.0905 111.489ZM60.0605 109.78L60.9106 109.253C60.6582 108.846 60.1523 108.675 59.7045 108.845C59.2567 109.016 58.9929 109.48 59.0755 109.952L60.0605 109.78ZM60.8083 115.823L59.813 115.919L60.8083 115.823ZM64.6788 128.347L65.3955 127.649L64.6788 128.347ZM54.4723 128.347L53.7555 127.649L54.4723 128.347ZM58.8211 113.877L57.8253 113.786L58.8211 113.877ZM59.2767 109.509L60.2684 109.638C60.3288 109.172 60.0573 108.727 59.6156 108.568C59.1739 108.409 58.681 108.579 58.4307 108.976L59.2767 109.509ZM58.0776 111.489L57.2182 110.978L58.0776 111.489ZM50.7738 119.905L51.0327 120.871H51.0327L50.7738 119.905ZM45.4811 116.794L46.447 116.535L45.4811 116.794ZM49.9027 112.115C50.4361 111.972 50.7527 111.423 50.6098 110.89C50.4668 110.357 49.9185 110.04 49.385 110.183L49.9027 112.115ZM43.2164 108.342L44.1823 108.083H44.1823L43.2164 108.342ZM46.2445 103.001L46.5033 103.967H46.5033L46.2445 103.001ZM56.7775 106.637L57.2662 105.765L56.7775 106.637ZM59.4436 108.079L59.0006 108.975C59.4243 109.185 59.9367 109.069 60.2292 108.698C60.5216 108.326 60.5142 107.801 60.2114 107.438L59.4436 108.079ZM57.0725 105.54L56.3326 106.213C56.3403 106.221 56.3482 106.23 56.3562 106.238L57.0725 105.54ZM57.0725 105.54L57.8124 104.868C57.8047 104.859 57.7968 104.851 57.7888 104.842L57.0725 105.54ZM63.959 91C62.3083 91 60.9518 92.0475 60.0608 93.2552C59.1615 94.4741 58.584 96.0485 58.584 97.4819H60.584C60.584 96.5366 60.986 95.3699 61.6702 94.4426C62.3626 93.504 63.1936 93 63.959 93V91ZM69.334 96.3072C69.334 93.3615 66.9128 91 63.959 91V93C65.8378 93 67.334 94.4954 67.334 96.3072H69.334ZM62.8119 106.238C64.1844 104.829 65.7897 103.183 67.0479 101.525C68.2752 99.9078 69.334 98.0775 69.334 96.3072H67.334C67.334 97.3661 66.6556 98.7336 65.4547 100.316C64.2847 101.858 62.7707 103.414 61.3793 104.842L62.8119 106.238ZM60.4924 108.719C61.0705 108.027 61.8813 107.193 62.8119 106.238L61.3793 104.842C60.4682 105.778 59.5952 106.673 58.9567 107.438L60.4924 108.719ZM61.9019 105.765C60.9159 106.317 60.033 106.811 59.2816 107.182L60.1675 108.975C60.975 108.576 61.9074 108.054 62.8792 107.51L61.9019 105.765ZM73.1824 102.035C71.4725 101.577 69.4304 102.126 67.5505 102.893C65.6233 103.679 63.6181 104.804 61.9019 105.765L62.8792 107.51C64.6189 106.535 66.5139 105.476 68.306 104.745C70.1455 103.994 71.642 103.693 72.6648 103.967L73.1824 102.035ZM76.9176 108.601C77.6821 105.747 76.0278 102.797 73.1824 102.035L72.6648 103.967C74.4149 104.436 75.472 106.268 74.9858 108.083L76.9176 108.601ZM69.2654 112.115C70.65 112.486 72.3202 112.335 73.7303 111.782C75.1275 111.234 76.4904 110.195 76.9176 108.601L74.9858 108.083C74.7877 108.822 74.0857 109.495 72.9999 109.92C71.9271 110.341 70.6962 110.428 69.7831 110.183L69.2654 112.115ZM74.653 117.052C75.0802 115.458 74.4195 113.876 73.4835 112.703C72.5389 111.519 71.1677 110.554 69.7831 110.183L69.2654 112.115C70.1786 112.359 71.2014 113.05 71.9201 113.95C72.6475 114.862 72.9192 115.795 72.7211 116.535L74.653 117.052ZM68.1354 120.871C70.9808 121.633 73.8885 119.906 74.653 117.052L72.7211 116.535C72.2349 118.349 70.4032 119.408 68.6531 118.939L68.1354 120.871ZM60.2311 112C61.2368 113.691 62.411 115.667 63.687 117.312C64.9316 118.916 66.4255 120.412 68.1354 120.871L68.6531 118.939C67.6303 118.665 66.485 117.655 65.2671 116.086C64.0806 114.557 62.9694 112.692 61.9499 110.978L60.2311 112ZM59.2105 110.306C59.5304 110.823 59.8695 111.393 60.2311 112L61.9499 110.978C61.5905 110.374 61.2418 109.788 60.9106 109.253L59.2105 110.306ZM61.8035 115.726C61.6135 113.774 61.4122 111.703 61.0455 109.607L59.0755 109.952C59.4269 111.96 59.6218 113.957 59.813 115.919L61.8035 115.726ZM65.3955 127.649C64.0856 126.303 63.3033 124.602 62.7908 122.578C62.2743 120.537 62.0487 118.243 61.8035 115.726L59.813 115.919C60.0545 118.4 60.2913 120.854 60.852 123.069C61.4167 125.3 62.3262 127.362 63.962 129.044L65.3955 127.649ZM59.5841 132.039C61.1529 132.039 62.9027 131.679 64.1312 131.103C64.7188 130.827 65.3503 130.428 65.6979 129.852C65.8878 129.537 66.0066 129.144 65.9444 128.708C65.8834 128.279 65.6646 127.926 65.3955 127.649L63.962 129.044C64.0204 129.104 63.9783 129.087 63.9644 128.99C63.9494 128.885 63.986 128.818 63.9856 128.818C63.9522 128.874 63.7702 129.063 63.2818 129.292C62.3581 129.725 60.9057 130.039 59.5841 130.039V132.039ZM53.7555 127.649C53.4856 127.927 53.2663 128.282 53.2074 128.713C53.1474 129.152 53.2704 129.545 53.4624 129.858C53.8137 130.431 54.4478 130.829 55.0379 131.104C56.2713 131.679 58.0242 132.039 59.5841 132.039V130.039C58.2728 130.039 56.8151 129.726 55.883 129.291C55.3902 129.061 55.2029 128.87 55.1672 128.812C55.1656 128.81 55.2036 128.877 55.1889 128.984C55.1753 129.084 55.1316 129.103 55.1891 129.044L53.7555 127.649ZM57.8253 113.786C57.5686 116.584 57.3204 119.268 56.7347 121.676C56.1511 124.075 55.2519 126.111 53.7555 127.649L55.1891 129.044C57.0287 127.153 58.0488 124.736 58.678 122.149C59.3051 119.57 59.5633 116.734 59.8169 113.969L57.8253 113.786ZM58.285 109.38C58.0954 110.84 57.9591 112.327 57.8253 113.786L59.8169 113.969C59.9514 112.503 60.0844 111.054 60.2684 109.638L58.285 109.38ZM58.937 112C59.3622 111.286 59.756 110.624 60.1227 110.042L58.4307 108.976C58.0476 109.584 57.64 110.269 57.2182 110.978L58.937 112ZM51.0327 120.871C52.7426 120.412 54.2365 118.916 55.4811 117.312C56.7571 115.667 57.9313 113.691 58.937 112L57.2182 110.978C56.1987 112.692 55.0875 114.557 53.901 116.086C52.6831 117.655 51.5378 118.665 50.515 118.939L51.0327 120.871ZM44.5151 117.052C45.2796 119.906 48.1873 121.633 51.0327 120.871L50.515 118.939C48.7649 119.408 46.9332 118.349 46.447 116.535L44.5151 117.052ZM49.385 110.183C48.0004 110.554 46.6292 111.519 45.6846 112.703C44.7486 113.876 44.0879 115.458 44.5151 117.052L46.447 116.535C46.2489 115.795 46.5206 114.862 47.248 113.95C47.9667 113.05 48.9895 112.359 49.9027 112.115L49.385 110.183ZM42.2505 108.601C42.6777 110.195 44.0406 111.234 45.4378 111.782C46.8479 112.335 48.5181 112.486 49.9027 112.115L49.385 110.183C48.4719 110.428 47.241 110.341 46.1682 109.92C45.0824 109.495 44.3804 108.822 44.1823 108.083L42.2505 108.601ZM45.9857 102.035C43.1403 102.797 41.486 105.747 42.2505 108.601L44.1823 108.083C43.6961 106.268 44.7532 104.436 46.5033 103.967L45.9857 102.035ZM57.2662 105.765C55.55 104.804 53.5448 103.679 51.6176 102.893C49.7377 102.126 47.6956 101.577 45.9857 102.035L46.5033 103.967C47.5261 103.693 49.0226 103.994 50.8621 104.745C52.6542 105.476 54.5492 106.535 56.2889 107.51L57.2662 105.765ZM59.8865 107.182C59.1351 106.811 58.2522 106.317 57.2662 105.765L56.2889 107.51C57.2607 108.054 58.1931 108.576 59.0006 108.975L59.8865 107.182ZM56.3562 106.238C57.2868 107.193 58.0976 108.027 58.6757 108.719L60.2114 107.438C59.5729 106.673 58.6999 105.778 57.7888 104.842L56.3562 106.238ZM56.3326 106.213L56.3326 106.213L57.8125 104.868L57.8124 104.868L56.3326 106.213ZM49.834 96.3072C49.834 98.0775 50.8929 99.9078 52.1202 101.525C53.3784 103.183 54.9837 104.829 56.3562 106.238L57.7888 104.842C56.3974 103.414 54.8834 101.858 53.7134 100.316C52.5125 98.7336 51.834 97.3661 51.834 96.3072H49.834ZM55.209 91C52.2553 91 49.834 93.3615 49.834 96.3072H51.834C51.834 94.4954 53.3303 93 55.209 93V91ZM60.584 97.4819C60.584 96.0485 60.0066 94.4741 59.1073 93.2552C58.2163 92.0475 56.8598 91 55.209 91V93C55.9745 93 56.8055 93.504 57.4979 94.4426C58.1821 95.3699 58.584 96.5366 58.584 97.4819H60.584Z" fill="#453B3B"/>
<path d="M329.943 515.283H323.818V508H346.542V515.283H340.698C340.077 520.176 338.628 525.144 336.351 530.188C334.074 535.25 331.204 539.663 327.741 543.427H341.743V537.556H349.534V550.541H317.635V545.064C319.818 542.976 321.851 540.219 323.733 536.793C325.596 533.368 327.083 529.736 328.193 525.897C329.284 522.058 329.868 518.52 329.943 515.283Z" fill="#1A1616"/>
<path fill-rule="evenodd" clip-rule="evenodd" d="M332.416 482.518C332.416 484.897 330.457 488 328.041 488C325.625 488 323.666 486.072 323.666 483.693C323.666 480.864 327.14 477.297 329.904 474.46C330.825 473.515 331.667 472.65 332.275 471.921C331.496 472.306 330.588 472.815 329.609 473.363C326.154 475.298 321.809 477.731 319.076 476.999C316.779 476.383 315.423 473.992 316.048 471.658C316.674 469.324 320.178 468.235 322.476 468.851C320.178 468.235 317.688 465.54 318.313 463.206C318.938 460.873 321.308 459.48 323.606 460.095C326.338 460.828 328.884 465.107 330.91 468.511C331.27 469.117 331.614 469.695 331.939 470.22C331.58 468.168 331.382 466.135 331.192 464.177C330.705 459.18 330.267 454.681 327.321 451.653C326.012 450.307 329.525 448.961 332.416 448.961C335.287 448.961 338.837 450.307 337.528 451.653C334.192 455.083 333.689 460.559 333.179 466.123C333.045 467.585 332.91 469.053 332.723 470.491C333.098 469.896 333.499 469.223 333.922 468.511C335.948 465.107 338.493 460.828 341.226 460.095C343.524 459.48 345.894 460.873 346.519 463.206C347.144 465.54 344.654 468.235 342.356 468.851C344.654 468.235 348.158 469.324 348.784 471.658C349.409 473.992 348.053 476.383 345.755 476.999C343.023 477.731 338.678 475.298 335.222 473.363C334.244 472.815 333.336 472.306 332.556 471.921C333.165 472.65 334.007 473.514 334.927 474.46L334.928 474.46C337.691 477.297 341.166 480.864 341.166 483.693C341.166 486.072 339.207 488 336.791 488C334.375 488 332.416 484.897 332.416 482.518Z" fill="#453B3B"/>
<path d="M333.416 482.518C333.416 481.966 332.968 481.518 332.416 481.518C331.864 481.518 331.416 481.966 331.416 482.518H333.416ZM329.904 474.46L330.621 475.158L329.904 474.46ZM332.275 471.921L333.043 472.562C333.346 472.199 333.353 471.674 333.061 471.302C332.769 470.931 332.256 470.815 331.833 471.025L332.275 471.921ZM329.609 473.363L329.121 472.49L329.609 473.363ZM319.076 476.999L319.335 476.033L319.076 476.999ZM316.048 471.658L317.014 471.917L316.048 471.658ZM322.217 469.817C322.75 469.96 323.299 469.643 323.442 469.11C323.585 468.577 323.268 468.028 322.735 467.885L322.217 469.817ZM318.313 463.206L317.347 462.948L318.313 463.206ZM323.606 460.095L323.865 459.129L323.606 460.095ZM330.91 468.511L330.05 469.022L330.91 468.511ZM331.939 470.22L331.089 470.747C331.342 471.154 331.848 471.325 332.295 471.155C332.743 470.984 333.007 470.52 332.925 470.048L331.939 470.22ZM331.192 464.177L332.187 464.081L331.192 464.177ZM327.321 451.653L326.604 452.351L327.321 451.653ZM337.528 451.653L338.244 452.351L337.528 451.653ZM333.179 466.123L334.175 466.214L333.179 466.123ZM332.723 470.491L331.732 470.362C331.671 470.828 331.943 471.273 332.384 471.432C332.826 471.591 333.319 471.421 333.569 471.024L332.723 470.491ZM333.922 468.511L334.782 469.022L333.922 468.511ZM341.226 460.095L340.967 459.129H340.967L341.226 460.095ZM346.519 463.206L345.553 463.465L346.519 463.206ZM342.097 467.885C341.564 468.028 341.247 468.577 341.39 469.11C341.533 469.643 342.082 469.96 342.615 469.817L342.097 467.885ZM348.784 471.658L347.818 471.917H347.818L348.784 471.658ZM345.755 476.999L345.497 476.033H345.497L345.755 476.999ZM335.222 473.363L334.734 474.235L335.222 473.363ZM332.556 471.921L332.999 471.025C332.576 470.815 332.063 470.931 331.771 471.302C331.478 471.674 331.486 472.199 331.789 472.562L332.556 471.921ZM334.927 474.46L335.667 473.787C335.66 473.779 335.652 473.77 335.644 473.762L334.927 474.46ZM334.928 474.46L334.188 475.132C334.195 475.141 334.203 475.149 334.211 475.158L334.928 474.46ZM328.041 489C329.692 489 331.048 487.952 331.939 486.745C332.839 485.526 333.416 483.952 333.416 482.518H331.416C331.416 483.463 331.014 484.63 330.33 485.557C329.637 486.496 328.806 487 328.041 487V489ZM322.666 483.693C322.666 486.639 325.087 489 328.041 489V487C326.162 487 324.666 485.505 324.666 483.693H322.666ZM329.188 473.762C327.816 475.171 326.21 476.817 324.952 478.475C323.725 480.092 322.666 481.923 322.666 483.693H324.666C324.666 482.634 325.344 481.266 326.545 479.684C327.715 478.142 329.229 476.586 330.621 475.158L329.188 473.762ZM331.508 471.281C330.93 471.973 330.119 472.807 329.188 473.762L330.621 475.158C331.532 474.222 332.405 473.327 333.043 472.562L331.508 471.281ZM330.098 474.235C331.084 473.683 331.967 473.189 332.718 472.818L331.833 471.025C331.025 471.424 330.093 471.946 329.121 472.49L330.098 474.235ZM318.818 477.965C320.528 478.423 322.57 477.874 324.449 477.107C326.377 476.321 328.382 475.196 330.098 474.235L329.121 472.49C327.381 473.465 325.486 474.524 323.694 475.255C321.855 476.006 320.358 476.307 319.335 476.033L318.818 477.965ZM315.082 471.399C314.318 474.253 315.972 477.203 318.818 477.965L319.335 476.033C317.585 475.564 316.528 473.732 317.014 471.917L315.082 471.399ZM322.735 467.885C321.35 467.514 319.68 467.665 318.27 468.218C316.873 468.766 315.51 469.805 315.082 471.399L317.014 471.917C317.212 471.178 317.914 470.505 319 470.08C320.073 469.659 321.304 469.572 322.217 469.817L322.735 467.885ZM317.347 462.948C316.92 464.542 317.581 466.124 318.516 467.297C319.461 468.481 320.832 469.446 322.217 469.817L322.735 467.885C321.821 467.641 320.799 466.95 320.08 466.05C319.353 465.138 319.081 464.205 319.279 463.465L317.347 462.948ZM323.865 459.129C321.019 458.367 318.112 460.094 317.347 462.948L319.279 463.465C319.765 461.651 321.597 460.592 323.347 461.061L323.865 459.129ZM331.769 468C330.763 466.309 329.589 464.333 328.313 462.688C327.068 461.084 325.574 459.588 323.865 459.129L323.347 461.061C324.37 461.335 325.515 462.345 326.733 463.914C327.919 465.443 329.031 467.308 330.05 469.022L331.769 468ZM332.79 469.694C332.47 469.177 332.13 468.607 331.769 468L330.05 469.022C330.409 469.626 330.758 470.212 331.089 470.747L332.79 469.694ZM330.196 464.274C330.387 466.226 330.588 468.297 330.954 470.393L332.925 470.048C332.573 468.04 332.378 466.043 332.187 464.081L330.196 464.274ZM326.604 452.351C327.914 453.697 328.697 455.398 329.209 457.422C329.726 459.463 329.951 461.757 330.196 464.274L332.187 464.081C331.945 461.6 331.709 459.146 331.148 456.931C330.583 454.7 329.674 452.638 328.038 450.956L326.604 452.351ZM332.416 447.961C330.847 447.961 329.097 448.321 327.869 448.897C327.281 449.173 326.65 449.572 326.302 450.148C326.112 450.463 325.993 450.856 326.056 451.292C326.117 451.721 326.335 452.074 326.604 452.351L328.038 450.956C327.98 450.896 328.022 450.913 328.036 451.01C328.051 451.115 328.014 451.182 328.014 451.182C328.048 451.126 328.23 450.937 328.718 450.708C329.642 450.275 331.094 449.961 332.416 449.961V447.961ZM338.244 452.351C338.514 452.073 338.734 451.718 338.793 451.287C338.853 450.848 338.73 450.455 338.538 450.142C338.186 449.569 337.552 449.171 336.962 448.896C335.729 448.321 333.976 447.961 332.416 447.961V449.961C333.727 449.961 335.185 450.274 336.117 450.709C336.61 450.939 336.797 451.13 336.833 451.188C336.834 451.19 336.796 451.123 336.811 451.016C336.825 450.916 336.868 450.897 336.811 450.956L338.244 452.351ZM334.175 466.214C334.431 463.416 334.68 460.732 335.265 458.324C335.849 455.925 336.748 453.889 338.244 452.351L336.811 450.956C334.971 452.847 333.951 455.264 333.322 457.851C332.695 460.43 332.437 463.266 332.183 466.031L334.175 466.214ZM333.715 470.62C333.905 469.16 334.041 467.673 334.175 466.214L332.183 466.031C332.049 467.497 331.916 468.946 331.732 470.362L333.715 470.62ZM333.063 468C332.638 468.714 332.244 469.376 331.877 469.958L333.569 471.024C333.952 470.416 334.36 469.731 334.782 469.022L333.063 468ZM340.967 459.129C339.257 459.588 337.763 461.084 336.519 462.688C335.243 464.333 334.069 466.309 333.063 468L334.782 469.022C335.801 467.308 336.913 465.443 338.099 463.914C339.317 462.345 340.462 461.335 341.485 461.061L340.967 459.129ZM347.485 462.948C346.72 460.094 343.813 458.367 340.967 459.129L341.485 461.061C343.235 460.592 345.067 461.651 345.553 463.465L347.485 462.948ZM342.615 469.817C344 469.446 345.371 468.481 346.315 467.297C347.251 466.124 347.912 464.542 347.485 462.948L345.553 463.465C345.751 464.205 345.479 465.138 344.752 466.05C344.033 466.95 343.01 467.641 342.097 467.885L342.615 469.817ZM349.75 471.399C349.322 469.805 347.959 468.766 346.562 468.218C345.152 467.665 343.482 467.514 342.097 467.885L342.615 469.817C343.528 469.572 344.759 469.659 345.832 470.08C346.918 470.505 347.62 471.178 347.818 471.917L349.75 471.399ZM346.014 477.965C348.86 477.203 350.514 474.253 349.75 471.399L347.818 471.917C348.304 473.732 347.247 475.564 345.497 476.033L346.014 477.965ZM334.734 474.235C336.45 475.196 338.455 476.321 340.382 477.107C342.262 477.874 344.304 478.423 346.014 477.965L345.497 476.033C344.474 476.307 342.977 476.006 341.138 475.255C339.346 474.524 337.451 473.465 335.711 472.49L334.734 474.235ZM332.113 472.818C332.865 473.189 333.748 473.683 334.734 474.235L335.711 472.49C334.739 471.946 333.807 471.424 332.999 471.025L332.113 472.818ZM335.644 473.762C334.713 472.807 333.902 471.973 333.324 471.281L331.789 472.562C332.427 473.327 333.3 474.222 334.211 475.158L335.644 473.762ZM335.667 473.787L335.667 473.787L334.188 475.132L334.188 475.132L335.667 473.787ZM342.166 483.693C342.166 481.923 341.107 480.092 339.88 478.475C338.622 476.817 337.016 475.171 335.644 473.762L334.211 475.158C335.603 476.586 337.117 478.142 338.287 479.684C339.488 481.266 340.166 482.634 340.166 483.693H342.166ZM336.791 489C339.745 489 342.166 486.639 342.166 483.693H340.166C340.166 485.505 338.67 487 336.791 487V489ZM331.416 482.518C331.416 483.952 331.993 485.526 332.893 486.745C333.784 487.952 335.14 489 336.791 489V487C336.025 487 335.194 486.496 334.502 485.557C333.818 484.63 333.416 483.463 333.416 482.518H331.416Z" fill="#453B3B"/>
</g>
<path d="M28.3239 6H362.676V4H28.3239V6ZM379 22.3239V557.676H381V22.3239H379ZM362.676 574H28.3239V576H362.676V574ZM12 557.676V22.324H10V557.676H12ZM28.3239 574C19.3085 574 12 566.692 12 557.676H10C10 567.796 18.2039 576 28.3239 576V574ZM379 557.676C379 566.691 371.692 574 362.676 574V576C372.796 576 381 567.796 381 557.676H379ZM362.676 6C371.692 6 379 13.3085 379 22.3239H381C381 12.2039 372.796 4 362.676 4V6ZM28.3239 4C18.2039 4 10 12.2039 10 22.324H12C12 13.3085 19.3085 6 28.3239 6V4Z" fill="#D9D8D8"/>
</g>
<path fill-rule="evenodd" clip-rule="evenodd" d="M262.584 215.232C262.584 212.853 264.543 209.75 266.959 209.75C269.375 209.75 271.334 211.678 271.334 214.057C271.334 216.886 267.86 220.453 265.096 223.29C264.175 224.235 263.333 225.1 262.725 225.829C263.504 225.444 264.412 224.935 265.391 224.387C268.846 222.452 273.191 220.019 275.924 220.751C278.221 221.367 279.577 223.758 278.952 226.092C278.326 228.426 274.822 229.515 272.524 228.899C274.822 229.515 277.312 232.21 276.687 234.544C276.062 236.877 273.692 238.27 271.394 237.655C268.662 236.922 266.116 232.643 264.09 229.239C263.73 228.633 263.386 228.055 263.061 227.53C263.42 229.582 263.618 231.615 263.808 233.573C264.295 238.57 264.733 243.069 267.679 246.097C268.988 247.443 265.475 248.789 262.584 248.789C259.713 248.789 256.163 247.443 257.472 246.097C260.808 242.667 261.311 237.191 261.821 231.627C261.955 230.165 262.09 228.697 262.277 227.259C261.902 227.854 261.501 228.527 261.078 229.239C259.052 232.643 256.507 236.922 253.774 237.655C251.476 238.27 249.106 236.877 248.481 234.544C247.856 232.21 250.346 229.515 252.644 228.899C250.346 229.515 246.842 228.426 246.216 226.092C245.591 223.758 246.947 221.367 249.245 220.751C251.977 220.019 256.322 222.452 259.778 224.387C260.756 224.935 261.664 225.444 262.444 225.829C261.835 225.1 260.993 224.236 260.073 223.29L260.072 223.29C257.309 220.453 253.834 216.886 253.834 214.057C253.834 211.678 255.793 209.75 258.209 209.75C260.625 209.75 262.584 212.853 262.584 215.232Z" fill="#453B3B"/>
<path d="M261.584 215.232C261.584 215.784 262.032 216.232 262.584 216.232C263.136 216.232 263.584 215.784 263.584 215.232H261.584ZM265.096 223.29L264.379 222.592L265.096 223.29ZM262.725 225.829L261.957 225.188C261.654 225.551 261.647 226.076 261.939 226.448C262.231 226.819 262.744 226.935 263.167 226.725L262.725 225.829ZM265.391 224.387L265.879 225.26L265.391 224.387ZM275.924 220.751L275.665 221.717L275.924 220.751ZM278.952 226.092L277.986 225.833L278.952 226.092ZM272.783 227.933C272.25 227.79 271.701 228.107 271.558 228.64C271.415 229.173 271.732 229.722 272.265 229.865L272.783 227.933ZM276.687 234.544L277.653 234.802L276.687 234.544ZM271.394 237.655L271.135 238.621L271.394 237.655ZM264.09 229.239L264.95 228.728L264.09 229.239ZM263.061 227.53L263.911 227.003C263.658 226.596 263.152 226.425 262.705 226.595C262.257 226.766 261.993 227.23 262.075 227.702L263.061 227.53ZM263.808 233.573L262.813 233.669L263.808 233.573ZM267.679 246.097L268.396 245.399L267.679 246.097ZM257.472 246.097L256.756 245.399L257.472 246.097ZM261.821 231.627L260.825 231.536L261.821 231.627ZM262.277 227.259L263.268 227.388C263.329 226.922 263.057 226.477 262.616 226.318C262.174 226.159 261.681 226.329 261.431 226.726L262.277 227.259ZM261.078 229.239L260.218 228.728L261.078 229.239ZM253.774 237.655L254.033 238.621H254.033L253.774 237.655ZM248.481 234.544L249.447 234.285L248.481 234.544ZM252.903 229.865C253.436 229.722 253.753 229.173 253.61 228.64C253.467 228.107 252.918 227.79 252.385 227.933L252.903 229.865ZM246.216 226.092L247.182 225.833H247.182L246.216 226.092ZM249.245 220.751L249.503 221.717H249.503L249.245 220.751ZM259.778 224.387L260.266 223.515L259.778 224.387ZM262.444 225.829L262.001 226.725C262.424 226.935 262.937 226.819 263.229 226.448C263.522 226.076 263.514 225.551 263.211 225.188L262.444 225.829ZM260.073 223.29L259.333 223.963C259.34 223.971 259.348 223.98 259.356 223.988L260.073 223.29ZM260.072 223.29L260.812 222.618C260.805 222.609 260.797 222.601 260.789 222.592L260.072 223.29ZM266.959 208.75C265.308 208.75 263.952 209.798 263.061 211.005C262.161 212.224 261.584 213.798 261.584 215.232H263.584C263.584 214.287 263.986 213.12 264.67 212.193C265.363 211.254 266.194 210.75 266.959 210.75V208.75ZM272.334 214.057C272.334 211.111 269.913 208.75 266.959 208.75V210.75C268.838 210.75 270.334 212.245 270.334 214.057H272.334ZM265.812 223.988C267.184 222.579 268.79 220.933 270.048 219.275C271.275 217.658 272.334 215.827 272.334 214.057H270.334C270.334 215.116 269.656 216.484 268.455 218.066C267.285 219.608 265.771 221.164 264.379 222.592L265.812 223.988ZM263.492 226.469C264.07 225.777 264.881 224.943 265.812 223.988L264.379 222.592C263.468 223.528 262.595 224.423 261.957 225.188L263.492 226.469ZM264.902 223.515C263.916 224.067 263.033 224.561 262.282 224.932L263.167 226.725C263.975 226.326 264.907 225.804 265.879 225.26L264.902 223.515ZM276.182 219.785C274.472 219.327 272.43 219.876 270.551 220.643C268.623 221.429 266.618 222.554 264.902 223.515L265.879 225.26C267.619 224.285 269.514 223.226 271.306 222.495C273.145 221.744 274.642 221.443 275.665 221.717L276.182 219.785ZM279.918 226.351C280.682 223.497 279.028 220.547 276.182 219.785L275.665 221.717C277.415 222.186 278.472 224.018 277.986 225.833L279.918 226.351ZM272.265 229.865C273.65 230.236 275.32 230.085 276.73 229.532C278.127 228.984 279.49 227.945 279.918 226.351L277.986 225.833C277.788 226.572 277.086 227.245 276 227.67C274.927 228.091 273.696 228.178 272.783 227.933L272.265 229.865ZM277.653 234.802C278.08 233.208 277.419 231.626 276.484 230.453C275.539 229.269 274.168 228.304 272.783 227.933L272.265 229.865C273.179 230.109 274.201 230.8 274.92 231.7C275.647 232.612 275.919 233.545 275.721 234.285L277.653 234.802ZM271.135 238.621C273.981 239.383 276.888 237.656 277.653 234.802L275.721 234.285C275.235 236.099 273.403 237.158 271.653 236.689L271.135 238.621ZM263.231 229.75C264.237 231.441 265.411 233.417 266.687 235.062C267.932 236.666 269.426 238.162 271.135 238.621L271.653 236.689C270.63 236.415 269.485 235.405 268.267 233.836C267.081 232.307 265.969 230.442 264.95 228.728L263.231 229.75ZM262.21 228.056C262.53 228.573 262.87 229.143 263.231 229.75L264.95 228.728C264.591 228.124 264.242 227.538 263.911 227.003L262.21 228.056ZM264.804 233.476C264.613 231.524 264.412 229.453 264.046 227.357L262.075 227.702C262.427 229.71 262.622 231.707 262.813 233.669L264.804 233.476ZM268.396 245.399C267.086 244.053 266.303 242.352 265.791 240.328C265.274 238.287 265.049 235.993 264.804 233.476L262.813 233.669C263.055 236.15 263.291 238.604 263.852 240.819C264.417 243.05 265.326 245.112 266.962 246.794L268.396 245.399ZM262.584 249.789C264.153 249.789 265.903 249.429 267.131 248.853C267.719 248.577 268.35 248.178 268.698 247.602C268.888 247.287 269.007 246.894 268.944 246.458C268.883 246.029 268.665 245.676 268.396 245.399L266.962 246.794C267.02 246.854 266.978 246.837 266.964 246.74C266.949 246.635 266.986 246.568 266.986 246.568C266.952 246.624 266.77 246.813 266.282 247.042C265.358 247.475 263.906 247.789 262.584 247.789V249.789ZM256.756 245.399C256.486 245.677 256.266 246.032 256.207 246.463C256.147 246.902 256.27 247.295 256.462 247.608C256.814 248.181 257.448 248.579 258.038 248.854C259.271 249.429 261.024 249.789 262.584 249.789V247.789C261.273 247.789 259.815 247.476 258.883 247.041C258.39 246.811 258.203 246.62 258.167 246.562C258.166 246.56 258.204 246.627 258.189 246.734C258.175 246.834 258.132 246.853 258.189 246.794L256.756 245.399ZM260.825 231.536C260.569 234.334 260.32 237.018 259.735 239.426C259.151 241.825 258.252 243.861 256.756 245.399L258.189 246.794C260.029 244.903 261.049 242.486 261.678 239.899C262.305 237.32 262.563 234.484 262.817 231.719L260.825 231.536ZM261.285 227.13C261.095 228.59 260.959 230.077 260.825 231.536L262.817 231.719C262.951 230.253 263.084 228.804 263.268 227.388L261.285 227.13ZM261.937 229.75C262.362 229.036 262.756 228.374 263.123 227.792L261.431 226.726C261.048 227.334 260.64 228.019 260.218 228.728L261.937 229.75ZM254.033 238.621C255.743 238.162 257.237 236.666 258.481 235.062C259.757 233.417 260.931 231.441 261.937 229.75L260.218 228.728C259.199 230.442 258.087 232.307 256.901 233.836C255.683 235.405 254.538 236.415 253.515 236.689L254.033 238.621ZM247.515 234.802C248.28 237.656 251.187 239.383 254.033 238.621L253.515 236.689C251.765 237.158 249.933 236.099 249.447 234.285L247.515 234.802ZM252.385 227.933C251 228.304 249.629 229.269 248.685 230.453C247.749 231.626 247.088 233.208 247.515 234.802L249.447 234.285C249.249 233.545 249.521 232.612 250.248 231.7C250.967 230.8 251.99 230.109 252.903 229.865L252.385 227.933ZM245.25 226.351C245.678 227.945 247.041 228.984 248.438 229.532C249.848 230.085 251.518 230.236 252.903 229.865L252.385 227.933C251.472 228.178 250.241 228.091 249.168 227.67C248.082 227.245 247.38 226.572 247.182 225.833L245.25 226.351ZM248.986 219.785C246.14 220.547 244.486 223.497 245.25 226.351L247.182 225.833C246.696 224.018 247.753 222.186 249.503 221.717L248.986 219.785ZM260.266 223.515C258.55 222.554 256.545 221.429 254.618 220.643C252.738 219.876 250.696 219.327 248.986 219.785L249.503 221.717C250.526 221.443 252.023 221.744 253.862 222.495C255.654 223.226 257.549 224.285 259.289 225.26L260.266 223.515ZM262.887 224.932C262.135 224.561 261.252 224.067 260.266 223.515L259.289 225.26C260.261 225.804 261.193 226.326 262.001 226.725L262.887 224.932ZM259.356 223.988C260.287 224.943 261.098 225.777 261.676 226.469L263.211 225.188C262.573 224.423 261.7 223.528 260.789 222.592L259.356 223.988ZM259.333 223.963L259.333 223.963L260.812 222.618L260.812 222.618L259.333 223.963ZM252.834 214.057C252.834 215.827 253.893 217.658 255.12 219.275C256.378 220.933 257.984 222.579 259.356 223.988L260.789 222.592C259.397 221.164 257.883 219.608 256.713 218.066C255.512 216.484 254.834 215.116 254.834 214.057H252.834ZM258.209 208.75C255.255 208.75 252.834 211.111 252.834 214.057H254.834C254.834 212.245 256.33 210.75 258.209 210.75V208.75ZM263.584 215.232C263.584 213.798 263.007 212.224 262.107 211.005C261.216 209.798 259.86 208.75 258.209 208.75V210.75C258.975 210.75 259.806 211.254 260.498 212.193C261.182 213.12 261.584 214.287 261.584 215.232H263.584Z" fill="#453B3B"/>
<path fill-rule="evenodd" clip-rule="evenodd" d="M262.584 275.732C262.584 273.353 264.543 270.25 266.959 270.25C269.375 270.25 271.334 272.178 271.334 274.557C271.334 277.386 267.86 280.953 265.096 283.79C264.175 284.735 263.333 285.6 262.725 286.329C263.504 285.944 264.412 285.435 265.391 284.887C268.846 282.952 273.191 280.519 275.924 281.251C278.221 281.867 279.577 284.258 278.952 286.592C278.326 288.926 274.822 290.015 272.524 289.399C274.822 290.015 277.312 292.71 276.687 295.044C276.062 297.377 273.692 298.77 271.394 298.155C268.662 297.422 266.116 293.143 264.09 289.739C263.73 289.133 263.386 288.555 263.061 288.03C263.42 290.082 263.618 292.115 263.808 294.073C264.295 299.07 264.733 303.569 267.679 306.597C268.988 307.943 265.475 309.289 262.584 309.289C259.713 309.289 256.163 307.943 257.472 306.597C260.808 303.167 261.311 297.691 261.821 292.127C261.955 290.665 262.09 289.197 262.277 287.759C261.902 288.354 261.501 289.027 261.078 289.739C259.052 293.143 256.507 297.422 253.774 298.155C251.476 298.77 249.106 297.377 248.481 295.044C247.856 292.71 250.346 290.015 252.644 289.399C250.346 290.015 246.842 288.926 246.216 286.592C245.591 284.258 246.947 281.867 249.245 281.251C251.977 280.519 256.322 282.952 259.778 284.887C260.756 285.435 261.664 285.944 262.444 286.329C261.835 285.6 260.993 284.736 260.073 283.79L260.072 283.79C257.309 280.953 253.834 277.386 253.834 274.557C253.834 272.178 255.793 270.25 258.209 270.25C260.625 270.25 262.584 273.353 262.584 275.732Z" fill="#453B3B"/>
<path d="M261.584 275.732C261.584 276.284 262.032 276.732 262.584 276.732C263.136 276.732 263.584 276.284 263.584 275.732H261.584ZM265.096 283.79L264.379 283.092L265.096 283.79ZM262.725 286.329L261.957 285.688C261.654 286.051 261.647 286.576 261.939 286.948C262.231 287.319 262.744 287.435 263.167 287.225L262.725 286.329ZM265.391 284.887L265.879 285.76L265.391 284.887ZM275.924 281.251L275.665 282.217L275.924 281.251ZM278.952 286.592L277.986 286.333L278.952 286.592ZM272.783 288.433C272.25 288.29 271.701 288.607 271.558 289.14C271.415 289.673 271.732 290.222 272.265 290.365L272.783 288.433ZM276.687 295.044L277.653 295.302L276.687 295.044ZM271.394 298.155L271.135 299.121L271.394 298.155ZM264.09 289.739L264.95 289.228L264.09 289.739ZM263.061 288.03L263.911 287.503C263.658 287.096 263.152 286.925 262.705 287.095C262.257 287.266 261.993 287.73 262.075 288.202L263.061 288.03ZM263.808 294.073L262.813 294.169L263.808 294.073ZM267.679 306.597L268.396 305.899L267.679 306.597ZM257.472 306.597L256.756 305.899L257.472 306.597ZM261.821 292.127L260.825 292.036L261.821 292.127ZM262.277 287.759L263.268 287.888C263.329 287.422 263.057 286.977 262.616 286.818C262.174 286.659 261.681 286.829 261.431 287.226L262.277 287.759ZM261.078 289.739L260.218 289.228L261.078 289.739ZM253.774 298.155L254.033 299.121H254.033L253.774 298.155ZM248.481 295.044L249.447 294.785L248.481 295.044ZM252.903 290.365C253.436 290.222 253.753 289.673 253.61 289.14C253.467 288.607 252.918 288.29 252.385 288.433L252.903 290.365ZM246.216 286.592L247.182 286.333H247.182L246.216 286.592ZM249.245 281.251L249.503 282.217H249.503L249.245 281.251ZM259.778 284.887L260.266 284.015L259.778 284.887ZM262.444 286.329L262.001 287.225C262.424 287.435 262.937 287.319 263.229 286.948C263.522 286.576 263.514 286.051 263.211 285.688L262.444 286.329ZM260.073 283.79L259.333 284.463C259.34 284.471 259.348 284.48 259.356 284.488L260.073 283.79ZM260.072 283.79L260.812 283.118C260.805 283.109 260.797 283.101 260.789 283.092L260.072 283.79ZM266.959 269.25C265.308 269.25 263.952 270.298 263.061 271.505C262.161 272.724 261.584 274.298 261.584 275.732H263.584C263.584 274.787 263.986 273.62 264.67 272.693C265.363 271.754 266.194 271.25 266.959 271.25V269.25ZM272.334 274.557C272.334 271.611 269.913 269.25 266.959 269.25V271.25C268.838 271.25 270.334 272.745 270.334 274.557H272.334ZM265.812 284.488C267.184 283.079 268.79 281.433 270.048 279.775C271.275 278.158 272.334 276.327 272.334 274.557H270.334C270.334 275.616 269.656 276.984 268.455 278.566C267.285 280.108 265.771 281.664 264.379 283.092L265.812 284.488ZM263.492 286.969C264.07 286.277 264.881 285.443 265.812 284.488L264.379 283.092C263.468 284.028 262.595 284.923 261.957 285.688L263.492 286.969ZM264.902 284.015C263.916 284.567 263.033 285.061 262.282 285.432L263.167 287.225C263.975 286.826 264.907 286.304 265.879 285.76L264.902 284.015ZM276.182 280.285C274.472 279.827 272.43 280.376 270.551 281.143C268.623 281.929 266.618 283.054 264.902 284.015L265.879 285.76C267.619 284.785 269.514 283.726 271.306 282.995C273.145 282.244 274.642 281.943 275.665 282.217L276.182 280.285ZM279.918 286.851C280.682 283.997 279.028 281.047 276.182 280.285L275.665 282.217C277.415 282.686 278.472 284.518 277.986 286.333L279.918 286.851ZM272.265 290.365C273.65 290.736 275.32 290.585 276.73 290.032C278.127 289.484 279.49 288.445 279.918 286.851L277.986 286.333C277.788 287.072 277.086 287.745 276 288.17C274.927 288.591 273.696 288.678 272.783 288.433L272.265 290.365ZM277.653 295.302C278.08 293.708 277.419 292.126 276.484 290.953C275.539 289.769 274.168 288.804 272.783 288.433L272.265 290.365C273.179 290.609 274.201 291.3 274.92 292.2C275.647 293.112 275.919 294.045 275.721 294.785L277.653 295.302ZM271.135 299.121C273.981 299.883 276.888 298.156 277.653 295.302L275.721 294.785C275.235 296.599 273.403 297.658 271.653 297.189L271.135 299.121ZM263.231 290.25C264.237 291.941 265.411 293.917 266.687 295.562C267.932 297.166 269.426 298.662 271.135 299.121L271.653 297.189C270.63 296.915 269.485 295.905 268.267 294.336C267.081 292.807 265.969 290.942 264.95 289.228L263.231 290.25ZM262.21 288.556C262.53 289.073 262.87 289.643 263.231 290.25L264.95 289.228C264.591 288.624 264.242 288.038 263.911 287.503L262.21 288.556ZM264.804 293.976C264.613 292.024 264.412 289.953 264.046 287.857L262.075 288.202C262.427 290.21 262.622 292.207 262.813 294.169L264.804 293.976ZM268.396 305.899C267.086 304.553 266.303 302.852 265.791 300.828C265.274 298.787 265.049 296.493 264.804 293.976L262.813 294.169C263.055 296.65 263.291 299.104 263.852 301.319C264.417 303.55 265.326 305.612 266.962 307.294L268.396 305.899ZM262.584 310.289C264.153 310.289 265.903 309.929 267.131 309.353C267.719 309.077 268.35 308.678 268.698 308.102C268.888 307.787 269.007 307.394 268.944 306.958C268.883 306.529 268.665 306.176 268.396 305.899L266.962 307.294C267.02 307.354 266.978 307.337 266.964 307.24C266.949 307.135 266.986 307.068 266.986 307.068C266.952 307.124 266.77 307.313 266.282 307.542C265.358 307.975 263.906 308.289 262.584 308.289V310.289ZM256.756 305.899C256.486 306.177 256.266 306.532 256.207 306.963C256.147 307.402 256.27 307.795 256.462 308.108C256.814 308.681 257.448 309.079 258.038 309.354C259.271 309.929 261.024 310.289 262.584 310.289V308.289C261.273 308.289 259.815 307.976 258.883 307.541C258.39 307.311 258.203 307.12 258.167 307.062C258.166 307.06 258.204 307.127 258.189 307.234C258.175 307.334 258.132 307.353 258.189 307.294L256.756 305.899ZM260.825 292.036C260.569 294.834 260.32 297.518 259.735 299.926C259.151 302.325 258.252 304.361 256.756 305.899L258.189 307.294C260.029 305.403 261.049 302.986 261.678 300.399C262.305 297.82 262.563 294.984 262.817 292.219L260.825 292.036ZM261.285 287.63C261.095 289.09 260.959 290.577 260.825 292.036L262.817 292.219C262.951 290.753 263.084 289.304 263.268 287.888L261.285 287.63ZM261.937 290.25C262.362 289.536 262.756 288.874 263.123 288.292L261.431 287.226C261.048 287.834 260.64 288.519 260.218 289.228L261.937 290.25ZM254.033 299.121C255.743 298.662 257.237 297.166 258.481 295.562C259.757 293.917 260.931 291.941 261.937 290.25L260.218 289.228C259.199 290.942 258.087 292.807 256.901 294.336C255.683 295.905 254.538 296.915 253.515 297.189L254.033 299.121ZM247.515 295.302C248.28 298.156 251.187 299.883 254.033 299.121L253.515 297.189C251.765 297.658 249.933 296.599 249.447 294.785L247.515 295.302ZM252.385 288.433C251 288.804 249.629 289.769 248.685 290.953C247.749 292.126 247.088 293.708 247.515 295.302L249.447 294.785C249.249 294.045 249.521 293.112 250.248 292.2C250.967 291.3 251.99 290.609 252.903 290.365L252.385 288.433ZM245.25 286.851C245.678 288.445 247.041 289.484 248.438 290.032C249.848 290.585 251.518 290.736 252.903 290.365L252.385 288.433C251.472 288.678 250.241 288.591 249.168 288.17C248.082 287.745 247.38 287.072 247.182 286.333L245.25 286.851ZM248.986 280.285C246.14 281.047 244.486 283.997 245.25 286.851L247.182 286.333C246.696 284.518 247.753 282.686 249.503 282.217L248.986 280.285ZM260.266 284.015C258.55 283.054 256.545 281.929 254.618 281.143C252.738 280.376 250.696 279.827 248.986 280.285L249.503 282.217C250.526 281.943 252.023 282.244 253.862 282.995C255.654 283.726 257.549 284.785 259.289 285.76L260.266 284.015ZM262.887 285.432C262.135 285.061 261.252 284.567 260.266 284.015L259.289 285.76C260.261 286.304 261.193 286.826 262.001 287.225L262.887 285.432ZM259.356 284.488C260.287 285.443 261.098 286.277 261.676 286.969L263.211 285.688C262.573 284.923 261.7 284.028 260.789 283.092L259.356 284.488ZM259.333 284.463L259.333 284.463L260.812 283.118L260.812 283.118L259.333 284.463ZM252.834 274.557C252.834 276.327 253.893 278.158 255.12 279.775C256.378 281.433 257.984 283.079 259.356 284.488L260.789 283.092C259.397 281.664 257.883 280.108 256.713 278.566C255.512 276.984 254.834 275.616 254.834 274.557H252.834ZM258.209 269.25C255.255 269.25 252.834 271.611 252.834 274.557H254.834C254.834 272.745 256.33 271.25 258.209 271.25V269.25ZM263.584 275.732C263.584 274.298 263.007 272.724 262.107 271.505C261.216 270.298 259.86 269.25 258.209 269.25V271.25C258.975 271.25 259.806 271.754 260.498 272.693C261.182 273.62 261.584 274.787 261.584 275.732H263.584Z" fill="#453B3B"/>
<path fill-rule="evenodd" clip-rule="evenodd" d="M262.584 336.232C262.584 333.853 264.543 330.75 266.959 330.75C269.375 330.75 271.334 332.678 271.334 335.057C271.334 337.886 267.86 341.453 265.096 344.29C264.175 345.235 263.333 346.1 262.725 346.829C263.504 346.444 264.412 345.935 265.391 345.387C268.846 343.452 273.191 341.019 275.924 341.751C278.221 342.367 279.577 344.758 278.952 347.092C278.326 349.426 274.822 350.515 272.524 349.899C274.822 350.515 277.312 353.21 276.687 355.544C276.062 357.877 273.692 359.27 271.394 358.655C268.662 357.922 266.116 353.643 264.09 350.239C263.73 349.633 263.386 349.055 263.061 348.53C263.42 350.582 263.618 352.615 263.808 354.573C264.295 359.57 264.733 364.069 267.679 367.097C268.988 368.443 265.475 369.789 262.584 369.789C259.713 369.789 256.163 368.443 257.472 367.097C260.808 363.667 261.311 358.191 261.821 352.627C261.955 351.165 262.09 349.697 262.277 348.259C261.902 348.854 261.501 349.527 261.078 350.239C259.052 353.643 256.507 357.922 253.774 358.655C251.476 359.27 249.106 357.877 248.481 355.544C247.856 353.21 250.346 350.515 252.644 349.899C250.346 350.515 246.842 349.426 246.216 347.092C245.591 344.758 246.947 342.367 249.245 341.751C251.977 341.019 256.322 343.452 259.778 345.387C260.756 345.935 261.664 346.444 262.444 346.829C261.835 346.1 260.993 345.236 260.073 344.29L260.072 344.29C257.309 341.453 253.834 337.886 253.834 335.057C253.834 332.678 255.793 330.75 258.209 330.75C260.625 330.75 262.584 333.853 262.584 336.232Z" fill="#453B3B"/>
<path d="M261.584 336.232C261.584 336.784 262.032 337.232 262.584 337.232C263.136 337.232 263.584 336.784 263.584 336.232H261.584ZM265.096 344.29L264.379 343.592L265.096 344.29ZM262.725 346.829L261.957 346.188C261.654 346.551 261.647 347.076 261.939 347.448C262.231 347.819 262.744 347.935 263.167 347.725L262.725 346.829ZM265.391 345.387L265.879 346.26L265.391 345.387ZM275.924 341.751L275.665 342.717L275.924 341.751ZM278.952 347.092L277.986 346.833L278.952 347.092ZM272.783 348.933C272.25 348.79 271.701 349.107 271.558 349.64C271.415 350.173 271.732 350.722 272.265 350.865L272.783 348.933ZM276.687 355.544L277.653 355.802L276.687 355.544ZM271.394 358.655L271.135 359.621L271.394 358.655ZM264.09 350.239L264.95 349.728L264.09 350.239ZM263.061 348.53L263.911 348.003C263.658 347.596 263.152 347.425 262.705 347.595C262.257 347.766 261.993 348.23 262.075 348.702L263.061 348.53ZM263.808 354.573L262.813 354.669L263.808 354.573ZM267.679 367.097L268.396 366.399L267.679 367.097ZM257.472 367.097L256.756 366.399L257.472 367.097ZM261.821 352.627L260.825 352.536L261.821 352.627ZM262.277 348.259L263.268 348.388C263.329 347.922 263.057 347.477 262.616 347.318C262.174 347.159 261.681 347.329 261.431 347.726L262.277 348.259ZM261.078 350.239L260.218 349.728L261.078 350.239ZM253.774 358.655L254.033 359.621H254.033L253.774 358.655ZM248.481 355.544L249.447 355.285L248.481 355.544ZM252.903 350.865C253.436 350.722 253.753 350.173 253.61 349.64C253.467 349.107 252.918 348.79 252.385 348.933L252.903 350.865ZM246.216 347.092L247.182 346.833H247.182L246.216 347.092ZM249.245 341.751L249.503 342.717H249.503L249.245 341.751ZM259.778 345.387L260.266 344.515L259.778 345.387ZM262.444 346.829L262.001 347.725C262.424 347.935 262.937 347.819 263.229 347.448C263.522 347.076 263.514 346.551 263.211 346.188L262.444 346.829ZM260.073 344.29L259.333 344.963C259.34 344.971 259.348 344.98 259.356 344.988L260.073 344.29ZM260.072 344.29L260.812 343.618C260.805 343.609 260.797 343.601 260.789 343.592L260.072 344.29ZM266.959 329.75C265.308 329.75 263.952 330.798 263.061 332.005C262.161 333.224 261.584 334.798 261.584 336.232H263.584C263.584 335.287 263.986 334.12 264.67 333.193C265.363 332.254 266.194 331.75 266.959 331.75V329.75ZM272.334 335.057C272.334 332.111 269.913 329.75 266.959 329.75V331.75C268.838 331.75 270.334 333.245 270.334 335.057H272.334ZM265.812 344.988C267.184 343.579 268.79 341.933 270.048 340.275C271.275 338.658 272.334 336.827 272.334 335.057H270.334C270.334 336.116 269.656 337.484 268.455 339.066C267.285 340.608 265.771 342.164 264.379 343.592L265.812 344.988ZM263.492 347.469C264.07 346.777 264.881 345.943 265.812 344.988L264.379 343.592C263.468 344.528 262.595 345.423 261.957 346.188L263.492 347.469ZM264.902 344.515C263.916 345.067 263.033 345.561 262.282 345.932L263.167 347.725C263.975 347.326 264.907 346.804 265.879 346.26L264.902 344.515ZM276.182 340.785C274.472 340.327 272.43 340.876 270.551 341.643C268.623 342.429 266.618 343.554 264.902 344.515L265.879 346.26C267.619 345.285 269.514 344.226 271.306 343.495C273.145 342.744 274.642 342.443 275.665 342.717L276.182 340.785ZM279.918 347.351C280.682 344.497 279.028 341.547 276.182 340.785L275.665 342.717C277.415 343.186 278.472 345.018 277.986 346.833L279.918 347.351ZM272.265 350.865C273.65 351.236 275.32 351.085 276.73 350.532C278.127 349.984 279.49 348.945 279.918 347.351L277.986 346.833C277.788 347.572 277.086 348.245 276 348.67C274.927 349.091 273.696 349.178 272.783 348.933L272.265 350.865ZM277.653 355.802C278.08 354.208 277.419 352.626 276.484 351.453C275.539 350.269 274.168 349.304 272.783 348.933L272.265 350.865C273.179 351.109 274.201 351.8 274.92 352.7C275.647 353.612 275.919 354.545 275.721 355.285L277.653 355.802ZM271.135 359.621C273.981 360.383 276.888 358.656 277.653 355.802L275.721 355.285C275.235 357.099 273.403 358.158 271.653 357.689L271.135 359.621ZM263.231 350.75C264.237 352.441 265.411 354.417 266.687 356.062C267.932 357.666 269.426 359.162 271.135 359.621L271.653 357.689C270.63 357.415 269.485 356.405 268.267 354.836C267.081 353.307 265.969 351.442 264.95 349.728L263.231 350.75ZM262.21 349.056C262.53 349.573 262.87 350.143 263.231 350.75L264.95 349.728C264.591 349.124 264.242 348.538 263.911 348.003L262.21 349.056ZM264.804 354.476C264.613 352.524 264.412 350.453 264.046 348.357L262.075 348.702C262.427 350.71 262.622 352.707 262.813 354.669L264.804 354.476ZM268.396 366.399C267.086 365.053 266.303 363.352 265.791 361.328C265.274 359.287 265.049 356.993 264.804 354.476L262.813 354.669C263.055 357.15 263.291 359.604 263.852 361.819C264.417 364.05 265.326 366.112 266.962 367.794L268.396 366.399ZM262.584 370.789C264.153 370.789 265.903 370.429 267.131 369.853C267.719 369.577 268.35 369.178 268.698 368.602C268.888 368.287 269.007 367.894 268.944 367.458C268.883 367.029 268.665 366.676 268.396 366.399L266.962 367.794C267.02 367.854 266.978 367.837 266.964 367.74C266.949 367.635 266.986 367.568 266.986 367.568C266.952 367.624 266.77 367.813 266.282 368.042C265.358 368.475 263.906 368.789 262.584 368.789V370.789ZM256.756 366.399C256.486 366.677 256.266 367.032 256.207 367.463C256.147 367.902 256.27 368.295 256.462 368.608C256.814 369.181 257.448 369.579 258.038 369.854C259.271 370.429 261.024 370.789 262.584 370.789V368.789C261.273 368.789 259.815 368.476 258.883 368.041C258.39 367.811 258.203 367.62 258.167 367.562C258.166 367.56 258.204 367.627 258.189 367.734C258.175 367.834 258.132 367.853 258.189 367.794L256.756 366.399ZM260.825 352.536C260.569 355.334 260.32 358.018 259.735 360.426C259.151 362.825 258.252 364.861 256.756 366.399L258.189 367.794C260.029 365.903 261.049 363.486 261.678 360.899C262.305 358.32 262.563 355.484 262.817 352.719L260.825 352.536ZM261.285 348.13C261.095 349.59 260.959 351.077 260.825 352.536L262.817 352.719C262.951 351.253 263.084 349.804 263.268 348.388L261.285 348.13ZM261.937 350.75C262.362 350.036 262.756 349.374 263.123 348.792L261.431 347.726C261.048 348.334 260.64 349.019 260.218 349.728L261.937 350.75ZM254.033 359.621C255.743 359.162 257.237 357.666 258.481 356.062C259.757 354.417 260.931 352.441 261.937 350.75L260.218 349.728C259.199 351.442 258.087 353.307 256.901 354.836C255.683 356.405 254.538 357.415 253.515 357.689L254.033 359.621ZM247.515 355.802C248.28 358.656 251.187 360.383 254.033 359.621L253.515 357.689C251.765 358.158 249.933 357.099 249.447 355.285L247.515 355.802ZM252.385 348.933C251 349.304 249.629 350.269 248.685 351.453C247.749 352.626 247.088 354.208 247.515 355.802L249.447 355.285C249.249 354.545 249.521 353.612 250.248 352.7C250.967 351.8 251.99 351.109 252.903 350.865L252.385 348.933ZM245.25 347.351C245.678 348.945 247.041 349.984 248.438 350.532C249.848 351.085 251.518 351.236 252.903 350.865L252.385 348.933C251.472 349.178 250.241 349.091 249.168 348.67C248.082 348.245 247.38 347.572 247.182 346.833L245.25 347.351ZM248.986 340.785C246.14 341.547 244.486 344.497 245.25 347.351L247.182 346.833C246.696 345.018 247.753 343.186 249.503 342.717L248.986 340.785ZM260.266 344.515C258.55 343.554 256.545 342.429 254.618 341.643C252.738 340.876 250.696 340.327 248.986 340.785L249.503 342.717C250.526 342.443 252.023 342.744 253.862 343.495C255.654 344.226 257.549 345.285 259.289 346.26L260.266 344.515ZM262.887 345.932C262.135 345.561 261.252 345.067 260.266 344.515L259.289 346.26C260.261 346.804 261.193 347.326 262.001 347.725L262.887 345.932ZM259.356 344.988C260.287 345.943 261.098 346.777 261.676 347.469L263.211 346.188C262.573 345.423 261.7 344.528 260.789 343.592L259.356 344.988ZM259.333 344.963L259.333 344.963L260.812 343.618L260.812 343.618L259.333 344.963ZM252.834 335.057C252.834 336.827 253.893 338.658 255.12 340.275C256.378 341.933 257.984 343.579 259.356 344.988L260.789 343.592C259.397 342.164 257.883 340.608 256.713 339.066C255.512 337.484 254.834 336.116 254.834 335.057H252.834ZM258.209 329.75C255.255 329.75 252.834 332.111 252.834 335.057H254.834C254.834 333.245 256.33 331.75 258.209 331.75V329.75ZM263.584 336.232C263.584 334.798 263.007 333.224 262.107 332.005C261.216 330.798 259.86 329.75 258.209 329.75V331.75C258.975 331.75 259.806 332.254 260.498 333.193C261.182 334.12 261.584 335.287 261.584 336.232H263.584Z" fill="#453B3B"/>
<path fill-rule="evenodd" clip-rule="evenodd" d="M128.584 215.232C128.584 212.853 130.543 209.75 132.959 209.75C135.375 209.75 137.334 211.678 137.334 214.057C137.334 216.886 133.86 220.453 131.096 223.29C130.175 224.235 129.333 225.1 128.725 225.829C129.504 225.444 130.412 224.935 131.391 224.387C134.846 222.452 139.191 220.019 141.924 220.751C144.221 221.367 145.577 223.758 144.952 226.092C144.326 228.426 140.822 229.515 138.524 228.899C140.822 229.515 143.312 232.21 142.687 234.544C142.062 236.877 139.692 238.27 137.394 237.655C134.662 236.922 132.116 232.643 130.09 229.239C129.73 228.633 129.386 228.055 129.061 227.53C129.42 229.582 129.618 231.615 129.808 233.573C130.295 238.57 130.733 243.069 133.679 246.097C134.988 247.443 131.475 248.789 128.584 248.789C125.713 248.789 122.163 247.443 123.472 246.097C126.808 242.667 127.311 237.191 127.821 231.627C127.955 230.165 128.09 228.697 128.277 227.259C127.902 227.854 127.501 228.527 127.078 229.239C125.052 232.643 122.507 236.922 119.774 237.655C117.476 238.27 115.106 236.877 114.481 234.544C113.856 232.21 116.346 229.515 118.644 228.899C116.346 229.515 112.842 228.426 112.216 226.092C111.591 223.758 112.947 221.367 115.245 220.751C117.977 220.019 122.322 222.452 125.778 224.387C126.756 224.935 127.664 225.444 128.444 225.829C127.835 225.1 126.993 224.236 126.073 223.29L126.072 223.29C123.309 220.453 119.834 216.886 119.834 214.057C119.834 211.678 121.793 209.75 124.209 209.75C126.625 209.75 128.584 212.853 128.584 215.232Z" fill="#453B3B"/>
<path d="M127.584 215.232C127.584 215.784 128.032 216.232 128.584 216.232C129.136 216.232 129.584 215.784 129.584 215.232H127.584ZM131.096 223.29L130.379 222.592L131.096 223.29ZM128.725 225.829L127.957 225.188C127.654 225.551 127.647 226.076 127.939 226.448C128.231 226.819 128.744 226.935 129.167 226.725L128.725 225.829ZM131.391 224.387L131.879 225.26L131.391 224.387ZM141.924 220.751L141.665 221.717L141.924 220.751ZM144.952 226.092L143.986 225.833L144.952 226.092ZM138.783 227.933C138.25 227.79 137.701 228.107 137.558 228.64C137.415 229.173 137.732 229.722 138.265 229.865L138.783 227.933ZM142.687 234.544L143.653 234.802L142.687 234.544ZM137.394 237.655L137.135 238.621L137.394 237.655ZM130.09 229.239L130.95 228.728L130.09 229.239ZM129.061 227.53L129.911 227.003C129.658 226.596 129.152 226.425 128.705 226.595C128.257 226.766 127.993 227.23 128.075 227.702L129.061 227.53ZM129.808 233.573L128.813 233.669L129.808 233.573ZM133.679 246.097L134.396 245.399L133.679 246.097ZM123.472 246.097L122.756 245.399L123.472 246.097ZM127.821 231.627L126.825 231.536L127.821 231.627ZM128.277 227.259L129.268 227.388C129.329 226.922 129.057 226.477 128.616 226.318C128.174 226.159 127.681 226.329 127.431 226.726L128.277 227.259ZM127.078 229.239L126.218 228.728L127.078 229.239ZM119.774 237.655L120.033 238.621H120.033L119.774 237.655ZM114.481 234.544L115.447 234.285L114.481 234.544ZM118.903 229.865C119.436 229.722 119.753 229.173 119.61 228.64C119.467 228.107 118.918 227.79 118.385 227.933L118.903 229.865ZM112.216 226.092L113.182 225.833H113.182L112.216 226.092ZM115.245 220.751L115.503 221.717H115.503L115.245 220.751ZM125.778 224.387L126.266 223.515L125.778 224.387ZM128.444 225.829L128.001 226.725C128.424 226.935 128.937 226.819 129.229 226.448C129.522 226.076 129.514 225.551 129.211 225.188L128.444 225.829ZM126.073 223.29L125.333 223.963C125.34 223.971 125.348 223.98 125.356 223.988L126.073 223.29ZM126.072 223.29L126.812 222.618C126.805 222.609 126.797 222.601 126.789 222.592L126.072 223.29ZM132.959 208.75C131.308 208.75 129.952 209.798 129.061 211.005C128.161 212.224 127.584 213.798 127.584 215.232H129.584C129.584 214.287 129.986 213.12 130.67 212.193C131.363 211.254 132.194 210.75 132.959 210.75V208.75ZM138.334 214.057C138.334 211.111 135.913 208.75 132.959 208.75V210.75C134.838 210.75 136.334 212.245 136.334 214.057H138.334ZM131.812 223.988C133.184 222.579 134.79 220.933 136.048 219.275C137.275 217.658 138.334 215.827 138.334 214.057H136.334C136.334 215.116 135.656 216.484 134.455 218.066C133.285 219.608 131.771 221.164 130.379 222.592L131.812 223.988ZM129.492 226.469C130.07 225.777 130.881 224.943 131.812 223.988L130.379 222.592C129.468 223.528 128.595 224.423 127.957 225.188L129.492 226.469ZM130.902 223.515C129.916 224.067 129.033 224.561 128.282 224.932L129.167 226.725C129.975 226.326 130.907 225.804 131.879 225.26L130.902 223.515ZM142.182 219.785C140.472 219.327 138.43 219.876 136.551 220.643C134.623 221.429 132.618 222.554 130.902 223.515L131.879 225.26C133.619 224.285 135.514 223.226 137.306 222.495C139.145 221.744 140.642 221.443 141.665 221.717L142.182 219.785ZM145.918 226.351C146.682 223.497 145.028 220.547 142.182 219.785L141.665 221.717C143.415 222.186 144.472 224.018 143.986 225.833L145.918 226.351ZM138.265 229.865C139.65 230.236 141.32 230.085 142.73 229.532C144.127 228.984 145.49 227.945 145.918 226.351L143.986 225.833C143.788 226.572 143.086 227.245 142 227.67C140.927 228.091 139.696 228.178 138.783 227.933L138.265 229.865ZM143.653 234.802C144.08 233.208 143.419 231.626 142.484 230.453C141.539 229.269 140.168 228.304 138.783 227.933L138.265 229.865C139.179 230.109 140.201 230.8 140.92 231.7C141.647 232.612 141.919 233.545 141.721 234.285L143.653 234.802ZM137.135 238.621C139.981 239.383 142.888 237.656 143.653 234.802L141.721 234.285C141.235 236.099 139.403 237.158 137.653 236.689L137.135 238.621ZM129.231 229.75C130.237 231.441 131.411 233.417 132.687 235.062C133.932 236.666 135.426 238.162 137.135 238.621L137.653 236.689C136.63 236.415 135.485 235.405 134.267 233.836C133.081 232.307 131.969 230.442 130.95 228.728L129.231 229.75ZM128.21 228.056C128.53 228.573 128.87 229.143 129.231 229.75L130.95 228.728C130.591 228.124 130.242 227.538 129.911 227.003L128.21 228.056ZM130.804 233.476C130.613 231.524 130.412 229.453 130.046 227.357L128.075 227.702C128.427 229.71 128.622 231.707 128.813 233.669L130.804 233.476ZM134.396 245.399C133.086 244.053 132.303 242.352 131.791 240.328C131.274 238.287 131.049 235.993 130.804 233.476L128.813 233.669C129.055 236.15 129.291 238.604 129.852 240.819C130.417 243.05 131.326 245.112 132.962 246.794L134.396 245.399ZM128.584 249.789C130.153 249.789 131.903 249.429 133.131 248.853C133.719 248.577 134.35 248.178 134.698 247.602C134.888 247.287 135.007 246.894 134.944 246.458C134.883 246.029 134.665 245.676 134.396 245.399L132.962 246.794C133.02 246.854 132.978 246.837 132.964 246.74C132.949 246.635 132.986 246.568 132.986 246.568C132.952 246.624 132.77 246.813 132.282 247.042C131.358 247.475 129.906 247.789 128.584 247.789V249.789ZM122.756 245.399C122.486 245.677 122.266 246.032 122.207 246.463C122.147 246.902 122.27 247.295 122.462 247.608C122.814 248.181 123.448 248.579 124.038 248.854C125.271 249.429 127.024 249.789 128.584 249.789V247.789C127.273 247.789 125.815 247.476 124.883 247.041C124.39 246.811 124.203 246.62 124.167 246.562C124.166 246.56 124.204 246.627 124.189 246.734C124.175 246.834 124.132 246.853 124.189 246.794L122.756 245.399ZM126.825 231.536C126.569 234.334 126.32 237.018 125.735 239.426C125.151 241.825 124.252 243.861 122.756 245.399L124.189 246.794C126.029 244.903 127.049 242.486 127.678 239.899C128.305 237.32 128.563 234.484 128.817 231.719L126.825 231.536ZM127.285 227.13C127.095 228.59 126.959 230.077 126.825 231.536L128.817 231.719C128.951 230.253 129.084 228.804 129.268 227.388L127.285 227.13ZM127.937 229.75C128.362 229.036 128.756 228.374 129.123 227.792L127.431 226.726C127.048 227.334 126.64 228.019 126.218 228.728L127.937 229.75ZM120.033 238.621C121.743 238.162 123.237 236.666 124.481 235.062C125.757 233.417 126.931 231.441 127.937 229.75L126.218 228.728C125.199 230.442 124.087 232.307 122.901 233.836C121.683 235.405 120.538 236.415 119.515 236.689L120.033 238.621ZM113.515 234.802C114.28 237.656 117.187 239.383 120.033 238.621L119.515 236.689C117.765 237.158 115.933 236.099 115.447 234.285L113.515 234.802ZM118.385 227.933C117 228.304 115.629 229.269 114.685 230.453C113.749 231.626 113.088 233.208 113.515 234.802L115.447 234.285C115.249 233.545 115.521 232.612 116.248 231.7C116.967 230.8 117.99 230.109 118.903 229.865L118.385 227.933ZM111.25 226.351C111.678 227.945 113.041 228.984 114.438 229.532C115.848 230.085 117.518 230.236 118.903 229.865L118.385 227.933C117.472 228.178 116.241 228.091 115.168 227.67C114.082 227.245 113.38 226.572 113.182 225.833L111.25 226.351ZM114.986 219.785C112.14 220.547 110.486 223.497 111.25 226.351L113.182 225.833C112.696 224.018 113.753 222.186 115.503 221.717L114.986 219.785ZM126.266 223.515C124.55 222.554 122.545 221.429 120.618 220.643C118.738 219.876 116.696 219.327 114.986 219.785L115.503 221.717C116.526 221.443 118.023 221.744 119.862 222.495C121.654 223.226 123.549 224.285 125.289 225.26L126.266 223.515ZM128.887 224.932C128.135 224.561 127.252 224.067 126.266 223.515L125.289 225.26C126.261 225.804 127.193 226.326 128.001 226.725L128.887 224.932ZM125.356 223.988C126.287 224.943 127.098 225.777 127.676 226.469L129.211 225.188C128.573 224.423 127.7 223.528 126.789 222.592L125.356 223.988ZM125.333 223.963L125.333 223.963L126.812 222.618L126.812 222.618L125.333 223.963ZM118.834 214.057C118.834 215.827 119.893 217.658 121.12 219.275C122.378 220.933 123.984 222.579 125.356 223.988L126.789 222.592C125.397 221.164 123.883 219.608 122.713 218.066C121.512 216.484 120.834 215.116 120.834 214.057H118.834ZM124.209 208.75C121.255 208.75 118.834 211.111 118.834 214.057H120.834C120.834 212.245 122.33 210.75 124.209 210.75V208.75ZM129.584 215.232C129.584 213.798 129.007 212.224 128.107 211.005C127.216 209.798 125.86 208.75 124.209 208.75V210.75C124.975 210.75 125.806 211.254 126.498 212.193C127.182 213.12 127.584 214.287 127.584 215.232H129.584Z" fill="#453B3B"/>
<path fill-rule="evenodd" clip-rule="evenodd" d="M128.584 275.732C128.584 273.353 130.543 270.25 132.959 270.25C135.375 270.25 137.334 272.178 137.334 274.557C137.334 277.386 133.86 280.953 131.096 283.79C130.175 284.735 129.333 285.6 128.725 286.329C129.504 285.944 130.412 285.435 131.391 284.887C134.846 282.952 139.191 280.519 141.924 281.251C144.221 281.867 145.577 284.258 144.952 286.592C144.326 288.926 140.822 290.015 138.524 289.399C140.822 290.015 143.312 292.71 142.687 295.044C142.062 297.377 139.692 298.77 137.394 298.155C134.662 297.422 132.116 293.143 130.09 289.739C129.73 289.133 129.386 288.555 129.061 288.03C129.42 290.082 129.618 292.115 129.808 294.073C130.295 299.07 130.733 303.569 133.679 306.597C134.988 307.943 131.475 309.289 128.584 309.289C125.713 309.289 122.163 307.943 123.472 306.597C126.808 303.167 127.311 297.691 127.821 292.127C127.955 290.665 128.09 289.197 128.277 287.759C127.902 288.354 127.501 289.027 127.078 289.739C125.052 293.143 122.507 297.422 119.774 298.155C117.476 298.77 115.106 297.377 114.481 295.044C113.856 292.71 116.346 290.015 118.644 289.399C116.346 290.015 112.842 288.926 112.216 286.592C111.591 284.258 112.947 281.867 115.245 281.251C117.977 280.519 122.322 282.952 125.778 284.887C126.756 285.435 127.664 285.944 128.444 286.329C127.835 285.6 126.993 284.736 126.073 283.79L126.072 283.79C123.309 280.953 119.834 277.386 119.834 274.557C119.834 272.178 121.793 270.25 124.209 270.25C126.625 270.25 128.584 273.353 128.584 275.732Z" fill="#453B3B"/>
<path d="M127.584 275.732C127.584 276.284 128.032 276.732 128.584 276.732C129.136 276.732 129.584 276.284 129.584 275.732H127.584ZM131.096 283.79L130.379 283.092L131.096 283.79ZM128.725 286.329L127.957 285.688C127.654 286.051 127.647 286.576 127.939 286.948C128.231 287.319 128.744 287.435 129.167 287.225L128.725 286.329ZM131.391 284.887L131.879 285.76L131.391 284.887ZM141.924 281.251L141.665 282.217L141.924 281.251ZM144.952 286.592L143.986 286.333L144.952 286.592ZM138.783 288.433C138.25 288.29 137.701 288.607 137.558 289.14C137.415 289.673 137.732 290.222 138.265 290.365L138.783 288.433ZM142.687 295.044L143.653 295.302L142.687 295.044ZM137.394 298.155L137.135 299.121L137.394 298.155ZM130.09 289.739L130.95 289.228L130.09 289.739ZM129.061 288.03L129.911 287.503C129.658 287.096 129.152 286.925 128.705 287.095C128.257 287.266 127.993 287.73 128.075 288.202L129.061 288.03ZM129.808 294.073L128.813 294.169L129.808 294.073ZM133.679 306.597L134.396 305.899L133.679 306.597ZM123.472 306.597L122.756 305.899L123.472 306.597ZM127.821 292.127L126.825 292.036L127.821 292.127ZM128.277 287.759L129.268 287.888C129.329 287.422 129.057 286.977 128.616 286.818C128.174 286.659 127.681 286.829 127.431 287.226L128.277 287.759ZM127.078 289.739L126.218 289.228L127.078 289.739ZM119.774 298.155L120.033 299.121H120.033L119.774 298.155ZM114.481 295.044L115.447 294.785L114.481 295.044ZM118.903 290.365C119.436 290.222 119.753 289.673 119.61 289.14C119.467 288.607 118.918 288.29 118.385 288.433L118.903 290.365ZM112.216 286.592L113.182 286.333H113.182L112.216 286.592ZM115.245 281.251L115.503 282.217H115.503L115.245 281.251ZM125.778 284.887L126.266 284.015L125.778 284.887ZM128.444 286.329L128.001 287.225C128.424 287.435 128.937 287.319 129.229 286.948C129.522 286.576 129.514 286.051 129.211 285.688L128.444 286.329ZM126.073 283.79L125.333 284.463C125.34 284.471 125.348 284.48 125.356 284.488L126.073 283.79ZM126.072 283.79L126.812 283.118C126.805 283.109 126.797 283.101 126.789 283.092L126.072 283.79ZM132.959 269.25C131.308 269.25 129.952 270.298 129.061 271.505C128.161 272.724 127.584 274.298 127.584 275.732H129.584C129.584 274.787 129.986 273.62 130.67 272.693C131.363 271.754 132.194 271.25 132.959 271.25V269.25ZM138.334 274.557C138.334 271.611 135.913 269.25 132.959 269.25V271.25C134.838 271.25 136.334 272.745 136.334 274.557H138.334ZM131.812 284.488C133.184 283.079 134.79 281.433 136.048 279.775C137.275 278.158 138.334 276.327 138.334 274.557H136.334C136.334 275.616 135.656 276.984 134.455 278.566C133.285 280.108 131.771 281.664 130.379 283.092L131.812 284.488ZM129.492 286.969C130.07 286.277 130.881 285.443 131.812 284.488L130.379 283.092C129.468 284.028 128.595 284.923 127.957 285.688L129.492 286.969ZM130.902 284.015C129.916 284.567 129.033 285.061 128.282 285.432L129.167 287.225C129.975 286.826 130.907 286.304 131.879 285.76L130.902 284.015ZM142.182 280.285C140.472 279.827 138.43 280.376 136.551 281.143C134.623 281.929 132.618 283.054 130.902 284.015L131.879 285.76C133.619 284.785 135.514 283.726 137.306 282.995C139.145 282.244 140.642 281.943 141.665 282.217L142.182 280.285ZM145.918 286.851C146.682 283.997 145.028 281.047 142.182 280.285L141.665 282.217C143.415 282.686 144.472 284.518 143.986 286.333L145.918 286.851ZM138.265 290.365C139.65 290.736 141.32 290.585 142.73 290.032C144.127 289.484 145.49 288.445 145.918 286.851L143.986 286.333C143.788 287.072 143.086 287.745 142 288.17C140.927 288.591 139.696 288.678 138.783 288.433L138.265 290.365ZM143.653 295.302C144.08 293.708 143.419 292.126 142.484 290.953C141.539 289.769 140.168 288.804 138.783 288.433L138.265 290.365C139.179 290.609 140.201 291.3 140.92 292.2C141.647 293.112 141.919 294.045 141.721 294.785L143.653 295.302ZM137.135 299.121C139.981 299.883 142.888 298.156 143.653 295.302L141.721 294.785C141.235 296.599 139.403 297.658 137.653 297.189L137.135 299.121ZM129.231 290.25C130.237 291.941 131.411 293.917 132.687 295.562C133.932 297.166 135.426 298.662 137.135 299.121L137.653 297.189C136.63 296.915 135.485 295.905 134.267 294.336C133.081 292.807 131.969 290.942 130.95 289.228L129.231 290.25ZM128.21 288.556C128.53 289.073 128.87 289.643 129.231 290.25L130.95 289.228C130.591 288.624 130.242 288.038 129.911 287.503L128.21 288.556ZM130.804 293.976C130.613 292.024 130.412 289.953 130.046 287.857L128.075 288.202C128.427 290.21 128.622 292.207 128.813 294.169L130.804 293.976ZM134.396 305.899C133.086 304.553 132.303 302.852 131.791 300.828C131.274 298.787 131.049 296.493 130.804 293.976L128.813 294.169C129.055 296.65 129.291 299.104 129.852 301.319C130.417 303.55 131.326 305.612 132.962 307.294L134.396 305.899ZM128.584 310.289C130.153 310.289 131.903 309.929 133.131 309.353C133.719 309.077 134.35 308.678 134.698 308.102C134.888 307.787 135.007 307.394 134.944 306.958C134.883 306.529 134.665 306.176 134.396 305.899L132.962 307.294C133.02 307.354 132.978 307.337 132.964 307.24C132.949 307.135 132.986 307.068 132.986 307.068C132.952 307.124 132.77 307.313 132.282 307.542C131.358 307.975 129.906 308.289 128.584 308.289V310.289ZM122.756 305.899C122.486 306.177 122.266 306.532 122.207 306.963C122.147 307.402 122.27 307.795 122.462 308.108C122.814 308.681 123.448 309.079 124.038 309.354C125.271 309.929 127.024 310.289 128.584 310.289V308.289C127.273 308.289 125.815 307.976 124.883 307.541C124.39 307.311 124.203 307.12 124.167 307.062C124.166 307.06 124.204 307.127 124.189 307.234C124.175 307.334 124.132 307.353 124.189 307.294L122.756 305.899ZM126.825 292.036C126.569 294.834 126.32 297.518 125.735 299.926C125.151 302.325 124.252 304.361 122.756 305.899L124.189 307.294C126.029 305.403 127.049 302.986 127.678 300.399C128.305 297.82 128.563 294.984 128.817 292.219L126.825 292.036ZM127.285 287.63C127.095 289.09 126.959 290.577 126.825 292.036L128.817 292.219C128.951 290.753 129.084 289.304 129.268 287.888L127.285 287.63ZM127.937 290.25C128.362 289.536 128.756 288.874 129.123 288.292L127.431 287.226C127.048 287.834 126.64 288.519 126.218 289.228L127.937 290.25ZM120.033 299.121C121.743 298.662 123.237 297.166 124.481 295.562C125.757 293.917 126.931 291.941 127.937 290.25L126.218 289.228C125.199 290.942 124.087 292.807 122.901 294.336C121.683 295.905 120.538 296.915 119.515 297.189L120.033 299.121ZM113.515 295.302C114.28 298.156 117.187 299.883 120.033 299.121L119.515 297.189C117.765 297.658 115.933 296.599 115.447 294.785L113.515 295.302ZM118.385 288.433C117 288.804 115.629 289.769 114.685 290.953C113.749 292.126 113.088 293.708 113.515 295.302L115.447 294.785C115.249 294.045 115.521 293.112 116.248 292.2C116.967 291.3 117.99 290.609 118.903 290.365L118.385 288.433ZM111.25 286.851C111.678 288.445 113.041 289.484 114.438 290.032C115.848 290.585 117.518 290.736 118.903 290.365L118.385 288.433C117.472 288.678 116.241 288.591 115.168 288.17C114.082 287.745 113.38 287.072 113.182 286.333L111.25 286.851ZM114.986 280.285C112.14 281.047 110.486 283.997 111.25 286.851L113.182 286.333C112.696 284.518 113.753 282.686 115.503 282.217L114.986 280.285ZM126.266 284.015C124.55 283.054 122.545 281.929 120.618 281.143C118.738 280.376 116.696 279.827 114.986 280.285L115.503 282.217C116.526 281.943 118.023 282.244 119.862 282.995C121.654 283.726 123.549 284.785 125.289 285.76L126.266 284.015ZM128.887 285.432C128.135 285.061 127.252 284.567 126.266 284.015L125.289 285.76C126.261 286.304 127.193 286.826 128.001 287.225L128.887 285.432ZM125.356 284.488C126.287 285.443 127.098 286.277 127.676 286.969L129.211 285.688C128.573 284.923 127.7 284.028 126.789 283.092L125.356 284.488ZM125.333 284.463L125.333 284.463L126.812 283.118L126.812 283.118L125.333 284.463ZM118.834 274.557C118.834 276.327 119.893 278.158 121.12 279.775C122.378 281.433 123.984 283.079 125.356 284.488L126.789 283.092C125.397 281.664 123.883 280.108 122.713 278.566C121.512 276.984 120.834 275.616 120.834 274.557H118.834ZM124.209 269.25C121.255 269.25 118.834 271.611 118.834 274.557H120.834C120.834 272.745 122.33 271.25 124.209 271.25V269.25ZM129.584 275.732C129.584 274.298 129.007 272.724 128.107 271.505C127.216 270.298 125.86 269.25 124.209 269.25V271.25C124.975 271.25 125.806 271.754 126.498 272.693C127.182 273.62 127.584 274.787 127.584 275.732H129.584Z" fill="#453B3B"/>
<path fill-rule="evenodd" clip-rule="evenodd" d="M128.584 336.232C128.584 333.853 130.543 330.75 132.959 330.75C135.375 330.75 137.334 332.678 137.334 335.057C137.334 337.886 133.86 341.453 131.096 344.29C130.175 345.235 129.333 346.1 128.725 346.829C129.504 346.444 130.412 345.935 131.391 345.387C134.846 343.452 139.191 341.019 141.924 341.751C144.221 342.367 145.577 344.758 144.952 347.092C144.326 349.426 140.822 350.515 138.524 349.899C140.822 350.515 143.312 353.21 142.687 355.544C142.062 357.877 139.692 359.27 137.394 358.655C134.662 357.922 132.116 353.643 130.09 350.239C129.73 349.633 129.386 349.055 129.061 348.53C129.42 350.582 129.618 352.615 129.808 354.573C130.295 359.57 130.733 364.069 133.679 367.097C134.988 368.443 131.475 369.789 128.584 369.789C125.713 369.789 122.163 368.443 123.472 367.097C126.808 363.667 127.311 358.191 127.821 352.627C127.955 351.165 128.09 349.697 128.277 348.259C127.902 348.854 127.501 349.527 127.078 350.239C125.052 353.643 122.507 357.922 119.774 358.655C117.476 359.27 115.106 357.877 114.481 355.544C113.856 353.21 116.346 350.515 118.644 349.899C116.346 350.515 112.842 349.426 112.216 347.092C111.591 344.758 112.947 342.367 115.245 341.751C117.977 341.019 122.322 343.452 125.778 345.387C126.756 345.935 127.664 346.444 128.444 346.829C127.835 346.1 126.993 345.236 126.073 344.29L126.072 344.29C123.309 341.453 119.834 337.886 119.834 335.057C119.834 332.678 121.793 330.75 124.209 330.75C126.625 330.75 128.584 333.853 128.584 336.232Z" fill="#453B3B"/>
<path d="M127.584 336.232C127.584 336.784 128.032 337.232 128.584 337.232C129.136 337.232 129.584 336.784 129.584 336.232H127.584ZM131.096 344.29L130.379 343.592L131.096 344.29ZM128.725 346.829L127.957 346.188C127.654 346.551 127.647 347.076 127.939 347.448C128.231 347.819 128.744 347.935 129.167 347.725L128.725 346.829ZM131.391 345.387L131.879 346.26L131.391 345.387ZM141.924 341.751L141.665 342.717L141.924 341.751ZM144.952 347.092L143.986 346.833L144.952 347.092ZM138.783 348.933C138.25 348.79 137.701 349.107 137.558 349.64C137.415 350.173 137.732 350.722 138.265 350.865L138.783 348.933ZM142.687 355.544L143.653 355.802L142.687 355.544ZM137.394 358.655L137.135 359.621L137.394 358.655ZM130.09 350.239L130.95 349.728L130.09 350.239ZM129.061 348.53L129.911 348.003C129.658 347.596 129.152 347.425 128.705 347.595C128.257 347.766 127.993 348.23 128.075 348.702L129.061 348.53ZM129.808 354.573L128.813 354.669L129.808 354.573ZM133.679 367.097L134.396 366.399L133.679 367.097ZM123.472 367.097L122.756 366.399L123.472 367.097ZM127.821 352.627L126.825 352.536L127.821 352.627ZM128.277 348.259L129.268 348.388C129.329 347.922 129.057 347.477 128.616 347.318C128.174 347.159 127.681 347.329 127.431 347.726L128.277 348.259ZM127.078 350.239L126.218 349.728L127.078 350.239ZM119.774 358.655L120.033 359.621H120.033L119.774 358.655ZM114.481 355.544L115.447 355.285L114.481 355.544ZM118.903 350.865C119.436 350.722 119.753 350.173 119.61 349.64C119.467 349.107 118.918 348.79 118.385 348.933L118.903 350.865ZM112.216 347.092L113.182 346.833H113.182L112.216 347.092ZM115.245 341.751L115.503 342.717H115.503L115.245 341.751ZM125.778 345.387L126.266 344.515L125.778 345.387ZM128.444 346.829L128.001 347.725C128.424 347.935 128.937 347.819 129.229 347.448C129.522 347.076 129.514 346.551 129.211 346.188L128.444 346.829ZM126.073 344.29L125.333 344.963C125.34 344.971 125.348 344.98 125.356 344.988L126.073 344.29ZM126.072 344.29L126.812 343.618C126.805 343.609 126.797 343.601 126.789 343.592L126.072 344.29ZM132.959 329.75C131.308 329.75 129.952 330.798 129.061 332.005C128.161 333.224 127.584 334.798 127.584 336.232H129.584C129.584 335.287 129.986 334.12 130.67 333.193C131.363 332.254 132.194 331.75 132.959 331.75V329.75ZM138.334 335.057C138.334 332.111 135.913 329.75 132.959 329.75V331.75C134.838 331.75 136.334 333.245 136.334 335.057H138.334ZM131.812 344.988C133.184 343.579 134.79 341.933 136.048 340.275C137.275 338.658 138.334 336.827 138.334 335.057H136.334C136.334 336.116 135.656 337.484 134.455 339.066C133.285 340.608 131.771 342.164 130.379 343.592L131.812 344.988ZM129.492 347.469C130.07 346.777 130.881 345.943 131.812 344.988L130.379 343.592C129.468 344.528 128.595 345.423 127.957 346.188L129.492 347.469ZM130.902 344.515C129.916 345.067 129.033 345.561 128.282 345.932L129.167 347.725C129.975 347.326 130.907 346.804 131.879 346.26L130.902 344.515ZM142.182 340.785C140.472 340.327 138.43 340.876 136.551 341.643C134.623 342.429 132.618 343.554 130.902 344.515L131.879 346.26C133.619 345.285 135.514 344.226 137.306 343.495C139.145 342.744 140.642 342.443 141.665 342.717L142.182 340.785ZM145.918 347.351C146.682 344.497 145.028 341.547 142.182 340.785L141.665 342.717C143.415 343.186 144.472 345.018 143.986 346.833L145.918 347.351ZM138.265 350.865C139.65 351.236 141.32 351.085 142.73 350.532C144.127 349.984 145.49 348.945 145.918 347.351L143.986 346.833C143.788 347.572 143.086 348.245 142 348.67C140.927 349.091 139.696 349.178 138.783 348.933L138.265 350.865ZM143.653 355.802C144.08 354.208 143.419 352.626 142.484 351.453C141.539 350.269 140.168 349.304 138.783 348.933L138.265 350.865C139.179 351.109 140.201 351.8 140.92 352.7C141.647 353.612 141.919 354.545 141.721 355.285L143.653 355.802ZM137.135 359.621C139.981 360.383 142.888 358.656 143.653 355.802L141.721 355.285C141.235 357.099 139.403 358.158 137.653 357.689L137.135 359.621ZM129.231 350.75C130.237 352.441 131.411 354.417 132.687 356.062C133.932 357.666 135.426 359.162 137.135 359.621L137.653 357.689C136.63 357.415 135.485 356.405 134.267 354.836C133.081 353.307 131.969 351.442 130.95 349.728L129.231 350.75ZM128.21 349.056C128.53 349.573 128.87 350.143 129.231 350.75L130.95 349.728C130.591 349.124 130.242 348.538 129.911 348.003L128.21 349.056ZM130.804 354.476C130.613 352.524 130.412 350.453 130.046 348.357L128.075 348.702C128.427 350.71 128.622 352.707 128.813 354.669L130.804 354.476ZM134.396 366.399C133.086 365.053 132.303 363.352 131.791 361.328C131.274 359.287 131.049 356.993 130.804 354.476L128.813 354.669C129.055 357.15 129.291 359.604 129.852 361.819C130.417 364.05 131.326 366.112 132.962 367.794L134.396 366.399ZM128.584 370.789C130.153 370.789 131.903 370.429 133.131 369.853C133.719 369.577 134.35 369.178 134.698 368.602C134.888 368.287 135.007 367.894 134.944 367.458C134.883 367.029 134.665 366.676 134.396 366.399L132.962 367.794C133.02 367.854 132.978 367.837 132.964 367.74C132.949 367.635 132.986 367.568 132.986 367.568C132.952 367.624 132.77 367.813 132.282 368.042C131.358 368.475 129.906 368.789 128.584 368.789V370.789ZM122.756 366.399C122.486 366.677 122.266 367.032 122.207 367.463C122.147 367.902 122.27 368.295 122.462 368.608C122.814 369.181 123.448 369.579 124.038 369.854C125.271 370.429 127.024 370.789 128.584 370.789V368.789C127.273 368.789 125.815 368.476 124.883 368.041C124.39 367.811 124.203 367.62 124.167 367.562C124.166 367.56 124.204 367.627 124.189 367.734C124.175 367.834 124.132 367.853 124.189 367.794L122.756 366.399ZM126.825 352.536C126.569 355.334 126.32 358.018 125.735 360.426C125.151 362.825 124.252 364.861 122.756 366.399L124.189 367.794C126.029 365.903 127.049 363.486 127.678 360.899C128.305 358.32 128.563 355.484 128.817 352.719L126.825 352.536ZM127.285 348.13C127.095 349.59 126.959 351.077 126.825 352.536L128.817 352.719C128.951 351.253 129.084 349.804 129.268 348.388L127.285 348.13ZM127.937 350.75C128.362 350.036 128.756 349.374 129.123 348.792L127.431 347.726C127.048 348.334 126.64 349.019 126.218 349.728L127.937 350.75ZM120.033 359.621C121.743 359.162 123.237 357.666 124.481 356.062C125.757 354.417 126.931 352.441 127.937 350.75L126.218 349.728C125.199 351.442 124.087 353.307 122.901 354.836C121.683 356.405 120.538 357.415 119.515 357.689L120.033 359.621ZM113.515 355.802C114.28 358.656 117.187 360.383 120.033 359.621L119.515 357.689C117.765 358.158 115.933 357.099 115.447 355.285L113.515 355.802ZM118.385 348.933C117 349.304 115.629 350.269 114.685 351.453C113.749 352.626 113.088 354.208 113.515 355.802L115.447 355.285C115.249 354.545 115.521 353.612 116.248 352.7C116.967 351.8 117.99 351.109 118.903 350.865L118.385 348.933ZM111.25 347.351C111.678 348.945 113.041 349.984 114.438 350.532C115.848 351.085 117.518 351.236 118.903 350.865L118.385 348.933C117.472 349.178 116.241 349.091 115.168 348.67C114.082 348.245 113.38 347.572 113.182 346.833L111.25 347.351ZM114.986 340.785C112.14 341.547 110.486 344.497 111.25 347.351L113.182 346.833C112.696 345.018 113.753 343.186 115.503 342.717L114.986 340.785ZM126.266 344.515C124.55 343.554 122.545 342.429 120.618 341.643C118.738 340.876 116.696 340.327 114.986 340.785L115.503 342.717C116.526 342.443 118.023 342.744 119.862 343.495C121.654 344.226 123.549 345.285 125.289 346.26L126.266 344.515ZM128.887 345.932C128.135 345.561 127.252 345.067 126.266 344.515L125.289 346.26C126.261 346.804 127.193 347.326 128.001 347.725L128.887 345.932ZM125.356 344.988C126.287 345.943 127.098 346.777 127.676 347.469L129.211 346.188C128.573 345.423 127.7 344.528 126.789 343.592L125.356 344.988ZM125.333 344.963L125.333 344.963L126.812 343.618L126.812 343.618L125.333 344.963ZM118.834 335.057C118.834 336.827 119.893 338.658 121.12 340.275C122.378 341.933 123.984 343.579 125.356 344.988L126.789 343.592C125.397 342.164 123.883 340.608 122.713 339.066C121.512 337.484 120.834 336.116 120.834 335.057H118.834ZM124.209 329.75C121.255 329.75 118.834 332.111 118.834 335.057H120.834C120.834 333.245 122.33 331.75 124.209 331.75V329.75ZM129.584 336.232C129.584 334.798 129.007 333.224 128.107 332.005C127.216 330.798 125.86 329.75 124.209 329.75V331.75C124.975 331.75 125.806 332.254 126.498 333.193C127.182 334.12 127.584 335.287 127.584 336.232H129.584Z" fill="#453B3B"/>
<path fill-rule="evenodd" clip-rule="evenodd" d="M195.584 275.482C195.584 273.103 197.543 270 199.959 270C202.375 270 204.334 271.928 204.334 274.307C204.334 277.136 200.86 280.703 198.096 283.54C197.175 284.485 196.333 285.35 195.725 286.079C196.504 285.694 197.412 285.185 198.391 284.637C201.846 282.702 206.191 280.269 208.924 281.001C211.221 281.617 212.577 284.008 211.952 286.342C211.326 288.676 207.822 289.765 205.524 289.149C207.822 289.765 210.312 292.46 209.687 294.794C209.062 297.127 206.692 298.52 204.394 297.905C201.662 297.172 199.116 292.893 197.09 289.489C196.73 288.883 196.386 288.305 196.061 287.78C196.42 289.832 196.618 291.865 196.808 293.823C197.295 298.82 197.733 303.319 200.679 306.347C201.988 307.693 198.475 309.039 195.584 309.039C192.713 309.039 189.163 307.693 190.472 306.347C193.808 302.917 194.311 297.441 194.821 291.877C194.955 290.415 195.09 288.947 195.277 287.509C194.902 288.104 194.501 288.777 194.078 289.489C192.052 292.893 189.507 297.172 186.774 297.905C184.476 298.52 182.106 297.127 181.481 294.794C180.856 292.46 183.346 289.765 185.644 289.149C183.346 289.765 179.842 288.676 179.216 286.342C178.591 284.008 179.947 281.617 182.245 281.001C184.977 280.269 189.322 282.702 192.778 284.637C193.756 285.185 194.664 285.694 195.444 286.079C194.835 285.35 193.993 284.486 193.073 283.54L193.072 283.54C190.309 280.703 186.834 277.136 186.834 274.307C186.834 271.928 188.793 270 191.209 270C193.625 270 195.584 273.103 195.584 275.482Z" fill="#453B3B"/>
<path d="M194.584 275.482C194.584 276.034 195.032 276.482 195.584 276.482C196.136 276.482 196.584 276.034 196.584 275.482H194.584ZM198.096 283.54L197.379 282.842L198.096 283.54ZM195.725 286.079L194.957 285.438C194.654 285.801 194.647 286.326 194.939 286.698C195.231 287.069 195.744 287.185 196.167 286.975L195.725 286.079ZM198.391 284.637L198.879 285.51L198.391 284.637ZM208.924 281.001L208.665 281.967L208.924 281.001ZM211.952 286.342L210.986 286.083L211.952 286.342ZM205.783 288.183C205.25 288.04 204.701 288.357 204.558 288.89C204.415 289.423 204.732 289.972 205.265 290.115L205.783 288.183ZM209.687 294.794L210.653 295.052L209.687 294.794ZM204.394 297.905L204.135 298.871L204.394 297.905ZM197.09 289.489L197.95 288.978L197.09 289.489ZM196.061 287.78L196.911 287.253C196.658 286.846 196.152 286.675 195.705 286.845C195.257 287.016 194.993 287.48 195.075 287.952L196.061 287.78ZM196.808 293.823L195.813 293.919L196.808 293.823ZM200.679 306.347L201.396 305.649L200.679 306.347ZM190.472 306.347L189.756 305.649L190.472 306.347ZM194.821 291.877L193.825 291.786L194.821 291.877ZM195.277 287.509L196.268 287.638C196.329 287.172 196.057 286.727 195.616 286.568C195.174 286.409 194.681 286.579 194.431 286.976L195.277 287.509ZM194.078 289.489L193.218 288.978L194.078 289.489ZM186.774 297.905L187.033 298.871H187.033L186.774 297.905ZM181.481 294.794L182.447 294.535L181.481 294.794ZM185.903 290.115C186.436 289.972 186.753 289.423 186.61 288.89C186.467 288.357 185.918 288.04 185.385 288.183L185.903 290.115ZM179.216 286.342L180.182 286.083H180.182L179.216 286.342ZM182.245 281.001L182.503 281.967H182.503L182.245 281.001ZM192.778 284.637L193.266 283.765L192.778 284.637ZM195.444 286.079L195.001 286.975C195.424 287.185 195.937 287.069 196.229 286.698C196.522 286.326 196.514 285.801 196.211 285.438L195.444 286.079ZM193.073 283.54L192.333 284.213C192.34 284.221 192.348 284.23 192.356 284.238L193.073 283.54ZM193.072 283.54L193.812 282.868C193.805 282.859 193.797 282.851 193.789 282.842L193.072 283.54ZM199.959 269C198.308 269 196.952 270.048 196.061 271.255C195.161 272.474 194.584 274.048 194.584 275.482H196.584C196.584 274.537 196.986 273.37 197.67 272.443C198.363 271.504 199.194 271 199.959 271V269ZM205.334 274.307C205.334 271.361 202.913 269 199.959 269V271C201.838 271 203.334 272.495 203.334 274.307H205.334ZM198.812 284.238C200.184 282.829 201.79 281.183 203.048 279.525C204.275 277.908 205.334 276.077 205.334 274.307H203.334C203.334 275.366 202.656 276.734 201.455 278.316C200.285 279.858 198.771 281.414 197.379 282.842L198.812 284.238ZM196.492 286.719C197.07 286.027 197.881 285.193 198.812 284.238L197.379 282.842C196.468 283.778 195.595 284.673 194.957 285.438L196.492 286.719ZM197.902 283.765C196.916 284.317 196.033 284.811 195.282 285.182L196.167 286.975C196.975 286.576 197.907 286.054 198.879 285.51L197.902 283.765ZM209.182 280.035C207.472 279.577 205.43 280.126 203.551 280.893C201.623 281.679 199.618 282.804 197.902 283.765L198.879 285.51C200.619 284.535 202.514 283.476 204.306 282.745C206.145 281.994 207.642 281.693 208.665 281.967L209.182 280.035ZM212.918 286.601C213.682 283.747 212.028 280.797 209.182 280.035L208.665 281.967C210.415 282.436 211.472 284.268 210.986 286.083L212.918 286.601ZM205.265 290.115C206.65 290.486 208.32 290.335 209.73 289.782C211.127 289.234 212.49 288.195 212.918 286.601L210.986 286.083C210.788 286.822 210.086 287.495 209 287.92C207.927 288.341 206.696 288.428 205.783 288.183L205.265 290.115ZM210.653 295.052C211.08 293.458 210.419 291.876 209.484 290.703C208.539 289.519 207.168 288.554 205.783 288.183L205.265 290.115C206.179 290.359 207.201 291.05 207.92 291.95C208.647 292.862 208.919 293.795 208.721 294.535L210.653 295.052ZM204.135 298.871C206.981 299.633 209.888 297.906 210.653 295.052L208.721 294.535C208.235 296.349 206.403 297.408 204.653 296.939L204.135 298.871ZM196.231 290C197.237 291.691 198.411 293.667 199.687 295.312C200.932 296.916 202.426 298.412 204.135 298.871L204.653 296.939C203.63 296.665 202.485 295.655 201.267 294.086C200.081 292.557 198.969 290.692 197.95 288.978L196.231 290ZM195.21 288.306C195.53 288.823 195.87 289.393 196.231 290L197.95 288.978C197.591 288.374 197.242 287.788 196.911 287.253L195.21 288.306ZM197.804 293.726C197.613 291.774 197.412 289.703 197.046 287.607L195.075 287.952C195.427 289.96 195.622 291.957 195.813 293.919L197.804 293.726ZM201.396 305.649C200.086 304.303 199.303 302.602 198.791 300.578C198.274 298.537 198.049 296.243 197.804 293.726L195.813 293.919C196.055 296.4 196.291 298.854 196.852 301.069C197.417 303.3 198.326 305.362 199.962 307.044L201.396 305.649ZM195.584 310.039C197.153 310.039 198.903 309.679 200.131 309.103C200.719 308.827 201.35 308.428 201.698 307.852C201.888 307.537 202.007 307.144 201.944 306.708C201.883 306.279 201.665 305.926 201.396 305.649L199.962 307.044C200.02 307.104 199.978 307.087 199.964 306.99C199.949 306.885 199.986 306.818 199.986 306.818C199.952 306.874 199.77 307.063 199.282 307.292C198.358 307.725 196.906 308.039 195.584 308.039V310.039ZM189.756 305.649C189.486 305.927 189.266 306.282 189.207 306.713C189.147 307.152 189.27 307.545 189.462 307.858C189.814 308.431 190.448 308.829 191.038 309.104C192.271 309.679 194.024 310.039 195.584 310.039V308.039C194.273 308.039 192.815 307.726 191.883 307.291C191.39 307.061 191.203 306.87 191.167 306.812C191.166 306.81 191.204 306.877 191.189 306.984C191.175 307.084 191.132 307.103 191.189 307.044L189.756 305.649ZM193.825 291.786C193.569 294.584 193.32 297.268 192.735 299.676C192.151 302.075 191.252 304.111 189.756 305.649L191.189 307.044C193.029 305.153 194.049 302.736 194.678 300.149C195.305 297.57 195.563 294.734 195.817 291.969L193.825 291.786ZM194.285 287.38C194.095 288.84 193.959 290.327 193.825 291.786L195.817 291.969C195.951 290.503 196.084 289.054 196.268 287.638L194.285 287.38ZM194.937 290C195.362 289.286 195.756 288.624 196.123 288.042L194.431 286.976C194.048 287.584 193.64 288.269 193.218 288.978L194.937 290ZM187.033 298.871C188.743 298.412 190.237 296.916 191.481 295.312C192.757 293.667 193.931 291.691 194.937 290L193.218 288.978C192.199 290.692 191.087 292.557 189.901 294.086C188.683 295.655 187.538 296.665 186.515 296.939L187.033 298.871ZM180.515 295.052C181.28 297.906 184.187 299.633 187.033 298.871L186.515 296.939C184.765 297.408 182.933 296.349 182.447 294.535L180.515 295.052ZM185.385 288.183C184 288.554 182.629 289.519 181.685 290.703C180.749 291.876 180.088 293.458 180.515 295.052L182.447 294.535C182.249 293.795 182.521 292.862 183.248 291.95C183.967 291.05 184.99 290.359 185.903 290.115L185.385 288.183ZM178.25 286.601C178.678 288.195 180.041 289.234 181.438 289.782C182.848 290.335 184.518 290.486 185.903 290.115L185.385 288.183C184.472 288.428 183.241 288.341 182.168 287.92C181.082 287.495 180.38 286.822 180.182 286.083L178.25 286.601ZM181.986 280.035C179.14 280.797 177.486 283.747 178.25 286.601L180.182 286.083C179.696 284.268 180.753 282.436 182.503 281.967L181.986 280.035ZM193.266 283.765C191.55 282.804 189.545 281.679 187.618 280.893C185.738 280.126 183.696 279.577 181.986 280.035L182.503 281.967C183.526 281.693 185.023 281.994 186.862 282.745C188.654 283.476 190.549 284.535 192.289 285.51L193.266 283.765ZM195.887 285.182C195.135 284.811 194.252 284.317 193.266 283.765L192.289 285.51C193.261 286.054 194.193 286.576 195.001 286.975L195.887 285.182ZM192.356 284.238C193.287 285.193 194.098 286.027 194.676 286.719L196.211 285.438C195.573 284.673 194.7 283.778 193.789 282.842L192.356 284.238ZM192.333 284.213L192.333 284.213L193.812 282.868L193.812 282.868L192.333 284.213ZM185.834 274.307C185.834 276.077 186.893 277.908 188.12 279.525C189.378 281.183 190.984 282.829 192.356 284.238L193.789 282.842C192.397 281.414 190.883 279.858 189.713 278.316C188.512 276.734 187.834 275.366 187.834 274.307H185.834ZM191.209 269C188.255 269 185.834 271.361 185.834 274.307H187.834C187.834 272.495 189.33 271 191.209 271V269ZM196.584 275.482C196.584 274.048 196.007 272.474 195.107 271.255C194.216 270.048 192.86 269 191.209 269V271C191.975 271 192.806 271.504 193.498 272.443C194.182 273.37 194.584 274.537 194.584 275.482H196.584Z" fill="#453B3B"/>
<defs>
<filter id="filter0_d" x="0" y="0" width="391" height="592" filterUnits="userSpaceOnUse" color-interpolation-filters="sRGB">
<feFlood flood-opacity="0" result="BackgroundImageFix"/>
<feColorMatrix in="SourceAlpha" type="matrix" values="0 0 0 0 0 0 0 0 0 0 0 0 0 0 0 0 0 0 127 0"/>
<feMorphology radius="3" operator="dilate" in="SourceAlpha" result="effect1_dropShadow"/>
<feOffset dy="6"/>
<feGaussianBlur stdDeviation="4"/>
<feColorMatrix type="matrix" values="0 0 0 0 0.279463 0 0 0 0 0.0711028 0 0 0 0 0.0740583 0 0 0 0.05 0"/>
<feBlend mode="normal" in2="BackgroundImageFix" result="effect1_dropShadow"/>
<feBlend mode="normal" in="SourceGraphic" in2="effect1_dropShadow" result="shape"/>
</filter>
<clipPath id="clip0">
<path d="M11 22.324C11 12.7562 18.7562 5 28.3239 5H362.676C372.244 5 380 12.7562 380 22.3239V557.676C380 567.244 372.244 575 362.676 575H28.3239C18.7562 575 11 567.244 11 557.676V22.324Z" fill="white"/>
</clipPath>
</defs>
</svg>
