<svg width="391" height="592" viewBox="0 0 391 592" fill="none" xmlns="http://www.w3.org/2000/svg">
<g filter="url(#filter0_d)">
<g clip-path="url(#clip0)">
<path d="M11 22.324C11 12.7562 18.7562 5 28.3239 5H362.676C372.244 5 380 12.7562 380 22.3239V557.676C380 567.244 372.244 575 362.676 575H28.3239C18.7562 575 11 567.244 11 557.676V22.324Z" fill="white"/>
<path d="M62.0568 64.717H68.1825V72H45.4583V64.717H51.3016C51.9227 59.824 53.3718 54.8557 55.6489 49.8121C57.926 44.7497 60.7959 40.3366 64.2587 36.5728H50.2572V42.4444H42.466V29.4591H74.3646V34.9355C72.1816 37.0244 70.1491 39.7815 68.2672 43.2066C66.4041 46.6317 64.9174 50.2638 63.807 54.1029C62.7155 57.942 62.1321 61.48 62.0568 64.717Z" fill="#1A1616"/>
<path fill-rule="evenodd" clip-rule="evenodd" d="M62.6689 118.663C63.8338 119.645 65.189 120.262 66.6351 120.262C70.9862 120.262 74.5135 116.79 74.5135 112.506C74.5135 107.411 68.2567 100.989 63.2795 95.8794C61.4896 94.042 59.8651 92.3745 58.7568 90.9998C57.6484 92.3745 56.0239 94.042 54.234 95.8794C49.2569 100.989 43 107.411 43 112.506C43 116.79 46.5273 120.262 50.8784 120.262C52.2464 120.262 53.5329 119.71 54.654 118.819C55.5853 122.254 56.6357 128.011 54.2547 130.392C53.1293 131.517 56.2895 132.643 58.7567 132.643C61.2406 132.643 64.151 131.517 63.0256 130.392C60.6082 127.974 61.728 122.077 62.6689 118.663ZM58.763 110.706C58.7589 110.6 58.7568 110.495 58.7568 110.391C58.7568 110.495 58.7547 110.6 58.7505 110.705L58.7567 110.696L58.763 110.706Z" fill="#453B3B"/>
<path d="M329.943 515.283H323.818V508H346.542V515.283H340.698C340.077 520.176 338.628 525.144 336.351 530.188C334.074 535.25 331.204 539.663 327.741 543.427H341.743V537.556H349.534V550.541H317.635V545.064C319.818 542.976 321.851 540.219 323.733 536.793C325.596 533.368 327.083 529.736 328.193 525.897C329.284 522.058 329.868 518.52 329.943 515.283Z" fill="#1A1616"/>
<path fill-rule="evenodd" clip-rule="evenodd" d="M329.331 461.337C328.166 460.355 326.811 459.738 325.365 459.738C321.014 459.738 317.486 463.21 317.486 467.494C317.486 472.589 323.743 479.011 328.72 484.121C330.51 485.958 332.135 487.626 333.243 489C334.352 487.626 335.976 485.958 337.766 484.121C342.743 479.011 349 472.589 349 467.494C349 463.21 345.473 459.738 341.122 459.738C339.754 459.738 338.467 460.29 337.346 461.181C336.415 457.746 335.364 451.989 337.745 449.608C338.871 448.483 335.711 447.357 333.243 447.357C330.759 447.357 327.849 448.483 328.974 449.608C331.392 452.026 330.272 457.923 329.331 461.337ZM333.237 469.294C333.241 469.4 333.243 469.505 333.243 469.609C333.243 469.505 333.245 469.4 333.249 469.295L333.243 469.304L333.237 469.294Z" fill="#453B3B"/>
</g>
<path d="M28.3239 6H362.676V4H28.3239V6ZM379 22.3239V557.676H381V22.3239H379ZM362.676 574H28.3239V576H362.676V574ZM12 557.676V22.324H10V557.676H12ZM28.3239 574C19.3085 574 12 566.692 12 557.676H10C10 567.796 18.2039 576 28.3239 576V574ZM379 557.676C379 566.691 371.692 574 362.676 574V576C372.796 576 381 567.796 381 557.676H379ZM362.676 6C371.692 6 379 13.3085 379 22.3239H381C381 12.2039 372.796 4 362.676 4V6ZM28.3239 4C18.2039 4 10 12.2039 10 22.324H12C12 13.3085 19.3085 6 28.3239 6V4Z" fill="#D9D8D8"/>
</g>
<path fill-rule="evenodd" clip-rule="evenodd" d="M265.669 236.413C266.834 237.395 268.189 238.012 269.635 238.012C273.986 238.012 277.514 234.54 277.514 230.256C277.514 225.161 271.257 218.739 266.28 213.629C264.49 211.792 262.865 210.124 261.757 208.75C260.648 210.124 259.024 211.792 257.234 213.629C252.257 218.739 246 225.161 246 230.256C246 234.54 249.527 238.012 253.878 238.012C255.246 238.012 256.533 237.46 257.654 236.569C258.585 240.004 259.636 245.761 257.255 248.142C256.129 249.267 259.289 250.393 261.757 250.393C264.241 250.393 267.151 249.267 266.026 248.142C263.608 245.724 264.728 239.827 265.669 236.413ZM261.763 228.456C261.759 228.35 261.757 228.245 261.757 228.141C261.757 228.245 261.755 228.35 261.751 228.455L261.757 228.446L261.763 228.456Z" fill="#453B3B"/>
<path fill-rule="evenodd" clip-rule="evenodd" d="M265.669 296.913C266.834 297.895 268.189 298.512 269.635 298.512C273.986 298.512 277.514 295.04 277.514 290.756C277.514 285.661 271.257 279.239 266.28 274.129C264.49 272.292 262.865 270.624 261.757 269.25C260.648 270.624 259.024 272.292 257.234 274.129C252.257 279.239 246 285.661 246 290.756C246 295.04 249.527 298.512 253.878 298.512C255.246 298.512 256.533 297.96 257.654 297.069C258.585 300.504 259.636 306.261 257.255 308.642C256.129 309.767 259.289 310.893 261.757 310.893C264.241 310.893 267.151 309.767 266.026 308.642C263.608 306.224 264.728 300.327 265.669 296.913ZM261.763 288.956C261.759 288.85 261.757 288.745 261.757 288.641C261.757 288.745 261.755 288.85 261.751 288.955L261.757 288.946L261.763 288.956Z" fill="#453B3B"/>
<path fill-rule="evenodd" clip-rule="evenodd" d="M265.669 357.413C266.834 358.395 268.189 359.012 269.635 359.012C273.986 359.012 277.514 355.54 277.514 351.256C277.514 346.161 271.257 339.739 266.28 334.629C264.49 332.792 262.865 331.124 261.757 329.75C260.648 331.124 259.024 332.792 257.234 334.629C252.257 339.739 246 346.161 246 351.256C246 355.54 249.527 359.012 253.878 359.012C255.246 359.012 256.533 358.46 257.654 357.569C258.585 361.004 259.636 366.761 257.255 369.142C256.129 370.267 259.289 371.393 261.757 371.393C264.241 371.393 267.151 370.267 266.026 369.142C263.608 366.724 264.728 360.827 265.669 357.413ZM261.763 349.456C261.759 349.35 261.757 349.245 261.757 349.141C261.757 349.245 261.755 349.35 261.751 349.455L261.757 349.446L261.763 349.456Z" fill="#453B3B"/>
<path fill-rule="evenodd" clip-rule="evenodd" d="M131.669 236.413C132.834 237.395 134.189 238.012 135.635 238.012C139.986 238.012 143.514 234.54 143.514 230.256C143.514 225.161 137.257 218.739 132.28 213.629C130.49 211.792 128.865 210.124 127.757 208.75C126.648 210.124 125.024 211.792 123.234 213.629C118.257 218.739 112 225.161 112 230.256C112 234.54 115.527 238.012 119.878 238.012C121.246 238.012 122.533 237.46 123.654 236.569C124.585 240.004 125.636 245.761 123.255 248.142C122.129 249.267 125.289 250.393 127.757 250.393C130.241 250.393 133.151 249.267 132.026 248.142C129.608 245.724 130.728 239.827 131.669 236.413ZM127.763 228.456C127.759 228.35 127.757 228.245 127.757 228.141C127.757 228.245 127.755 228.35 127.751 228.455L127.757 228.446L127.763 228.456Z" fill="#453B3B"/>
<path fill-rule="evenodd" clip-rule="evenodd" d="M131.669 296.913C132.834 297.895 134.189 298.512 135.635 298.512C139.986 298.512 143.514 295.04 143.514 290.756C143.514 285.661 137.257 279.239 132.28 274.129C130.49 272.292 128.865 270.624 127.757 269.25C126.648 270.624 125.024 272.292 123.234 274.129C118.257 279.239 112 285.661 112 290.756C112 295.04 115.527 298.512 119.878 298.512C121.246 298.512 122.533 297.96 123.654 297.069C124.585 300.504 125.636 306.261 123.255 308.642C122.129 309.767 125.289 310.893 127.757 310.893C130.241 310.893 133.151 309.767 132.026 308.642C129.608 306.224 130.728 300.327 131.669 296.913ZM127.763 288.956C127.759 288.85 127.757 288.745 127.757 288.641C127.757 288.745 127.755 288.85 127.751 288.955L127.757 288.946L127.763 288.956Z" fill="#453B3B"/>
<path fill-rule="evenodd" clip-rule="evenodd" d="M131.669 357.413C132.834 358.395 134.189 359.012 135.635 359.012C139.986 359.012 143.514 355.54 143.514 351.256C143.514 346.161 137.257 339.739 132.28 334.629C130.49 332.792 128.865 331.124 127.757 329.75C126.648 331.124 125.024 332.792 123.234 334.629C118.257 339.739 112 346.161 112 351.256C112 355.54 115.527 359.012 119.878 359.012C121.246 359.012 122.533 358.46 123.654 357.569C124.585 361.004 125.636 366.761 123.255 369.142C122.129 370.267 125.289 371.393 127.757 371.393C130.241 371.393 133.151 370.267 132.026 369.142C129.608 366.724 130.728 360.827 131.669 357.413ZM127.763 349.456C127.759 349.35 127.757 349.245 127.757 349.141C127.757 349.245 127.755 349.35 127.751 349.455L127.757 349.446L127.763 349.456Z" fill="#453B3B"/>
<path fill-rule="evenodd" clip-rule="evenodd" d="M198.669 296.663C199.834 297.645 201.189 298.262 202.635 298.262C206.986 298.262 210.514 294.79 210.514 290.506C210.514 285.411 204.257 278.989 199.28 273.879C197.49 272.042 195.865 270.374 194.757 269C193.648 270.374 192.024 272.042 190.234 273.879C185.257 278.989 179 285.411 179 290.506C179 294.79 182.527 298.262 186.878 298.262C188.246 298.262 189.533 297.71 190.654 296.819C191.585 300.254 192.636 306.011 190.255 308.392C189.129 309.517 192.289 310.643 194.757 310.643C197.241 310.643 200.151 309.517 199.026 308.392C196.608 305.974 197.728 300.077 198.669 296.663ZM194.763 288.706C194.759 288.6 194.757 288.495 194.757 288.391C194.757 288.495 194.755 288.6 194.751 288.705L194.757 288.696L194.763 288.706Z" fill="#453B3B"/>
<defs>
<filter id="filter0_d" x="0" y="0" width="391" height="592" filterUnits="userSpaceOnUse" color-interpolation-filters="sRGB">
<feFlood flood-opacity="0" result="BackgroundImageFix"/>
<feColorMatrix in="SourceAlpha" type="matrix" values="0 0 0 0 0 0 0 0 0 0 0 0 0 0 0 0 0 0 127 0"/>
<feMorphology radius="3" operator="dilate" in="SourceAlpha" result="effect1_dropShadow"/>
<feOffset dy="6"/>
<feGaussianBlur stdDeviation="4"/>
<feColorMatrix type="matrix" values="0 0 0 0 0.279463 0 0 0 0 0.0711028 0 0 0 0 0.0740583 0 0 0 0.05 0"/>
<feBlend mode="normal" in2="BackgroundImageFix" result="effect1_dropShadow"/>
<feBlend mode="normal" in="SourceGraphic" in2="effect1_dropShadow" result="shape"/>
</filter>
<clipPath id="clip0">
<path d="M11 22.324C11 12.7562 18.7562 5 28.3239 5H362.676C372.244 5 380 12.7562 380 22.3239V557.676C380 567.244 372.244 575 362.676 575H28.3239C18.7562 575 11 567.244 11 557.676V22.324Z" fill="white"/>
</clipPath>
</defs>
</svg>
