<svg width="391" height="592" viewBox="0 0 391 592" fill="none" xmlns="http://www.w3.org/2000/svg">
<g filter="url(#filter0_d)">
<g clip-path="url(#clip0)">
<path d="M11 22.324C11 12.7562 18.7562 5 28.3239 5H362.676C372.244 5 380 12.7562 380 22.3239V557.676C380 567.244 372.244 575 362.676 575H28.3239C18.7562 575 11 567.244 11 557.676V22.324Z" fill="#FBEEEE"/>
<path d="M62.0568 64.717H68.1825V72H45.4583V64.717H51.3016C51.9227 59.824 53.3718 54.8557 55.6489 49.8121C57.926 44.7497 60.7959 40.3366 64.2587 36.5728H50.2572V42.4444H42.466V29.4591H74.3646V34.9355C72.1816 37.0244 70.1491 39.7815 68.2672 43.2066C66.4041 46.6317 64.9174 50.2638 63.807 54.1029C62.7155 57.942 62.1321 61.48 62.0568 64.717Z" fill="#732A2A"/>
<path d="M59 91L42 111L59 131L76 111L59 91Z" fill="#FD7072"/>
<path d="M329.943 515.283H323.818V508H346.542V515.283H340.698C340.077 520.176 338.628 525.144 336.351 530.188C334.074 535.25 331.204 539.663 327.741 543.427H341.743V537.556H349.534V550.541H317.635V545.064C319.818 542.976 321.851 540.219 323.733 536.793C325.596 533.368 327.083 529.736 328.193 525.897C329.284 522.058 329.868 518.52 329.943 515.283Z" fill="#732A2A"/>
<path d="M333 489L350 469L333 449L316 469L333 489Z" fill="#FD7072"/>
</g>
<path d="M28.3239 6H362.676V4H28.3239V6ZM379 22.3239V557.676H381V22.3239H379ZM362.676 574H28.3239V576H362.676V574ZM12 557.676V22.324H10V557.676H12ZM28.3239 574C19.3085 574 12 566.692 12 557.676H10C10 567.796 18.2039 576 28.3239 576V574ZM379 557.676C379 566.691 371.692 574 362.676 574V576C372.796 576 381 567.796 381 557.676H379ZM362.676 6C371.692 6 379 13.3085 379 22.3239H381C381 12.2039 372.796 4 362.676 4V6ZM28.3239 4C18.2039 4 10 12.2039 10 22.324H12C12 13.3085 19.3085 6 28.3239 6V4Z" fill="#F7E2E2"/>
</g>
<path d="M262 208.75L245 228.75L262 248.75L279 228.75L262 208.75Z" fill="#FD7072"/>
<path d="M262 269.25L245 289.25L262 309.25L279 289.25L262 269.25Z" fill="#FD7072"/>
<path d="M262 329.75L245 349.75L262 369.75L279 349.75L262 329.75Z" fill="#FD7072"/>
<path d="M128 208.75L111 228.75L128 248.75L145 228.75L128 208.75Z" fill="#FD7072"/>
<path d="M128 269.25L111 289.25L128 309.25L145 289.25L128 269.25Z" fill="#FD7072"/>
<path d="M128 329.75L111 349.75L128 369.75L145 349.75L128 329.75Z" fill="#FD7072"/>
<path d="M195 269L178 289L195 309L212 289L195 269Z" fill="#FD7072"/>
<defs>
<filter id="filter0_d" x="0" y="0" width="391" height="592" filterUnits="userSpaceOnUse" color-interpolation-filters="sRGB">
<feFlood flood-opacity="0" result="BackgroundImageFix"/>
<feColorMatrix in="SourceAlpha" type="matrix" values="0 0 0 0 0 0 0 0 0 0 0 0 0 0 0 0 0 0 127 0"/>
<feMorphology radius="3" operator="dilate" in="SourceAlpha" result="effect1_dropShadow"/>
<feOffset dy="6"/>
<feGaussianBlur stdDeviation="4"/>
<feColorMatrix type="matrix" values="0 0 0 0 0.279463 0 0 0 0 0.0711028 0 0 0 0 0.0740583 0 0 0 0.05 0"/>
<feBlend mode="normal" in2="BackgroundImageFix" result="effect1_dropShadow"/>
<feBlend mode="normal" in="SourceGraphic" in2="effect1_dropShadow" result="shape"/>
</filter>
<clipPath id="clip0">
<path d="M11 22.324C11 12.7562 18.7562 5 28.3239 5H362.676C372.244 5 380 12.7562 380 22.3239V557.676C380 567.244 372.244 575 362.676 575H28.3239C18.7562 575 11 567.244 11 557.676V22.324Z" fill="white"/>
</clipPath>
</defs>
</svg>
