<svg width="391" height="592" viewBox="0 0 391 592" fill="none" xmlns="http://www.w3.org/2000/svg">
<g filter="url(#filter0_d)">
<g clip-path="url(#clip0)">
<path d="M11 22.324C11 12.7562 18.7562 5 28.3239 5H362.676C372.244 5 380 12.7562 380 22.3239V557.676C380 567.244 372.244 575 362.676 575H28.3239C18.7562 575 11 567.244 11 557.676V22.324Z" fill="#FBEEEE"/>
<path d="M62.0568 64.717H68.1825V72H45.4583V64.717H51.3016C51.9227 59.824 53.3718 54.8557 55.6489 49.8121C57.926 44.7497 60.7959 40.3366 64.2587 36.5728H50.2572V42.4444H42.466V29.4591H74.3646V34.9355C72.1816 37.0244 70.1491 39.7815 68.2672 43.2066C66.4041 46.6317 64.9174 50.2638 63.807 54.1029C62.7155 57.942 62.1321 61.48 62.0568 64.717Z" fill="#732A2A"/>
<path d="M70 91C63.9249 91 59 98.9249 59 105C59 98.9249 54.0751 91 48 91C41.9249 91 37 95.9249 37 102C37 111.823 53.1493 125.129 59 132.5C64.8507 125.129 81 111.823 81 102C81 95.9249 76.0751 91 70 91Z" fill="#FD7072" stroke="#FD7072" stroke-linecap="round" stroke-linejoin="round"/>
<path d="M329.943 515.283H323.818V508H346.542V515.283H340.698C340.077 520.176 338.628 525.144 336.351 530.188C334.074 535.25 331.204 539.663 327.741 543.427H341.743V537.556H349.534V550.541H317.635V545.064C319.818 542.976 321.851 540.219 323.733 536.793C325.596 533.368 327.083 529.736 328.193 525.897C329.284 522.058 329.868 518.52 329.943 515.283Z" fill="#732A2A"/>
<path d="M322 489C328.075 489 333 481.075 333 475C333 481.075 337.925 489 344 489C350.075 489 355 484.075 355 478C355 468.177 338.851 454.871 333 447.5C327.149 454.871 311 468.177 311 478C311 484.075 315.925 489 322 489Z" fill="#FD7072" stroke="#FD7072" stroke-linecap="round" stroke-linejoin="round"/>
</g>
<path d="M28.3239 6H362.676V4H28.3239V6ZM379 22.3239V557.676H381V22.3239H379ZM362.676 574H28.3239V576H362.676V574ZM12 557.676V22.324H10V557.676H12ZM28.3239 574C19.3085 574 12 566.692 12 557.676H10C10 567.796 18.2039 576 28.3239 576V574ZM379 557.676C379 566.691 371.692 574 362.676 574V576C372.796 576 381 567.796 381 557.676H379ZM362.676 6C371.692 6 379 13.3085 379 22.3239H381C381 12.2039 372.796 4 362.676 4V6ZM28.3239 4C18.2039 4 10 12.2039 10 22.324H12C12 13.3085 19.3085 6 28.3239 6V4Z" fill="#F7E2E2"/>
</g>
<path d="M273 208.75C266.925 208.75 262 216.675 262 222.75C262 216.675 257.075 208.75 251 208.75C244.925 208.75 240 213.675 240 219.75C240 229.573 256.149 242.879 262 250.25C267.851 242.879 284 229.573 284 219.75C284 213.675 279.075 208.75 273 208.75Z" fill="#FD7072" stroke="#FD7072" stroke-linecap="round" stroke-linejoin="round"/>
<path d="M273 269.25C266.925 269.25 262 277.175 262 283.25C262 277.175 257.075 269.25 251 269.25C244.925 269.25 240 274.175 240 280.25C240 290.073 256.149 303.379 262 310.75C267.851 303.379 284 290.073 284 280.25C284 274.175 279.075 269.25 273 269.25Z" fill="#FD7072" stroke="#FD7072" stroke-linecap="round" stroke-linejoin="round"/>
<path d="M273 329.75C266.925 329.75 262 337.675 262 343.75C262 337.675 257.075 329.75 251 329.75C244.925 329.75 240 334.675 240 340.75C240 350.573 256.149 363.879 262 371.25C267.851 363.879 284 350.573 284 340.75C284 334.675 279.075 329.75 273 329.75Z" fill="#FD7072" stroke="#FD7072" stroke-linecap="round" stroke-linejoin="round"/>
<path d="M139 208.75C132.925 208.75 128 216.675 128 222.75C128 216.675 123.075 208.75 117 208.75C110.925 208.75 106 213.675 106 219.75C106 229.573 122.149 242.879 128 250.25C133.851 242.879 150 229.573 150 219.75C150 213.675 145.075 208.75 139 208.75Z" fill="#FD7072" stroke="#FD7072" stroke-linecap="round" stroke-linejoin="round"/>
<path d="M139 269.25C132.925 269.25 128 277.175 128 283.25C128 277.175 123.075 269.25 117 269.25C110.925 269.25 106 274.175 106 280.25C106 290.073 122.149 303.379 128 310.75C133.851 303.379 150 290.073 150 280.25C150 274.175 145.075 269.25 139 269.25Z" fill="#FD7072" stroke="#FD7072" stroke-linecap="round" stroke-linejoin="round"/>
<path d="M139 329.75C132.925 329.75 128 337.675 128 343.75C128 337.675 123.075 329.75 117 329.75C110.925 329.75 106 334.675 106 340.75C106 350.573 122.149 363.879 128 371.25C133.851 363.879 150 350.573 150 340.75C150 334.675 145.075 329.75 139 329.75Z" fill="#FD7072" stroke="#FD7072" stroke-linecap="round" stroke-linejoin="round"/>
<path d="M206 269C199.925 269 195 276.925 195 283C195 276.925 190.075 269 184 269C177.925 269 173 273.925 173 280C173 289.823 189.149 303.129 195 310.5C200.851 303.129 217 289.823 217 280C217 273.925 212.075 269 206 269Z" fill="#FD7072" stroke="#FD7072" stroke-linecap="round" stroke-linejoin="round"/>
<defs>
<filter id="filter0_d" x="0" y="0" width="391" height="592" filterUnits="userSpaceOnUse" color-interpolation-filters="sRGB">
<feFlood flood-opacity="0" result="BackgroundImageFix"/>
<feColorMatrix in="SourceAlpha" type="matrix" values="0 0 0 0 0 0 0 0 0 0 0 0 0 0 0 0 0 0 127 0"/>
<feMorphology radius="3" operator="dilate" in="SourceAlpha" result="effect1_dropShadow"/>
<feOffset dy="6"/>
<feGaussianBlur stdDeviation="4"/>
<feColorMatrix type="matrix" values="0 0 0 0 0.279463 0 0 0 0 0.0711028 0 0 0 0 0.0740583 0 0 0 0.05 0"/>
<feBlend mode="normal" in2="BackgroundImageFix" result="effect1_dropShadow"/>
<feBlend mode="normal" in="SourceGraphic" in2="effect1_dropShadow" result="shape"/>
</filter>
<clipPath id="clip0">
<path d="M11 22.324C11 12.7562 18.7562 5 28.3239 5H362.676C372.244 5 380 12.7562 380 22.3239V557.676C380 567.244 372.244 575 362.676 575H28.3239C18.7562 575 11 567.244 11 557.676V22.324Z" fill="white"/>
</clipPath>
</defs>
</svg>
