<svg width="391" height="592" viewBox="0 0 391 592" fill="none" xmlns="http://www.w3.org/2000/svg">
<g filter="url(#filter0_d)">
<g clip-path="url(#clip0)">
<path d="M11 22.324C11 12.7562 18.7562 5 28.3239 5H362.676C372.244 5 380 12.7562 380 22.3239V557.676C380 567.244 372.244 575 362.676 575H28.3239C18.7562 575 11 567.244 11 557.676V22.324Z" fill="#FBEEEE"/>
<path d="M73.7718 40.3837L65.3878 41.1176C64.4281 37.5796 62.5744 35.8106 59.8268 35.8106C57.7943 35.8106 56.157 36.7516 54.9149 38.6335C53.6917 40.4966 52.9577 43.1595 52.7131 46.6223C54.9902 45.1544 57.6155 44.4204 60.5889 44.4204C63.2801 44.4204 65.6607 45.0132 67.7308 46.1988C69.8198 47.3656 71.4382 48.9652 72.5862 50.9977C73.753 53.0114 74.3364 55.2885 74.3364 57.8291C74.3364 62.3834 73.0285 65.9778 70.4126 68.6125C67.7967 71.2472 64.1928 72.5646 59.6009 72.5646C53.7481 72.5646 49.4291 70.8238 46.6439 67.3422C43.8774 63.8607 42.4942 58.4596 42.4942 51.1389C42.4942 43.7805 43.9904 38.2006 46.9826 34.3992C49.9937 30.5977 54.4162 28.6969 60.2502 28.6969C68.3425 28.6969 72.8497 32.5925 73.7718 40.3837ZM52.6566 53.5666C52.6566 57.7256 53.2212 60.7179 54.3504 62.5433C55.4983 64.3688 57.2297 65.2815 59.5445 65.2815C61.05 65.2815 62.2733 64.6887 63.2142 63.5031C64.1552 62.2987 64.6257 60.6049 64.6257 58.4219C64.6257 56.3706 64.0987 54.7898 63.0448 53.6795C61.991 52.5503 60.5325 51.9857 58.6694 51.9857C56.9004 51.9857 54.8961 52.5127 52.6566 53.5666Z" fill="#732A2A"/>
<path d="M70 91C63.9249 91 59 98.9249 59 105C59 98.9249 54.0751 91 48 91C41.9249 91 37 95.9249 37 102C37 111.823 53.1493 125.129 59 132.5C64.8507 125.129 81 111.823 81 102C81 95.9249 76.0751 91 70 91Z" fill="#FD7072" stroke="#FD7072" stroke-linecap="round" stroke-linejoin="round"/>
<path d="M318.228 539.616L326.612 538.882C327.572 542.42 329.426 544.189 332.173 544.189C334.206 544.189 335.843 543.248 337.085 541.367C338.308 539.503 339.042 536.84 339.287 533.378C337.01 534.846 334.385 535.58 331.411 535.58C328.72 535.58 326.339 534.987 324.269 533.801C322.18 532.634 320.562 531.035 319.414 529.002C318.247 526.989 317.664 524.711 317.664 522.171C317.664 517.617 318.972 514.022 321.587 511.387C324.203 508.753 327.807 507.435 332.399 507.435C338.252 507.435 342.571 509.176 345.356 512.658C348.123 516.139 349.506 521.54 349.506 528.861C349.506 536.219 348.01 541.799 345.017 545.601C342.006 549.402 337.584 551.303 331.75 551.303C323.658 551.303 319.15 547.407 318.228 539.616ZM339.343 526.433C339.343 522.274 338.779 519.282 337.65 517.457C336.502 515.631 334.77 514.718 332.456 514.718C330.95 514.718 329.727 515.311 328.786 516.497C327.845 517.701 327.374 519.395 327.374 521.578C327.374 523.629 327.901 525.21 328.955 526.321C330.009 527.45 331.468 528.014 333.331 528.014C335.1 528.014 337.104 527.487 339.343 526.433Z" fill="#732A2A"/>
<path d="M322 489C328.075 489 333 481.075 333 475C333 481.075 337.925 489 344 489C350.075 489 355 484.075 355 478C355 468.177 338.851 454.871 333 447.5C327.149 454.871 311 468.177 311 478C311 484.075 315.925 489 322 489Z" fill="#FD7072" stroke="#FD7072" stroke-linecap="round" stroke-linejoin="round"/>
</g>
<path d="M28.3239 6H362.676V4H28.3239V6ZM379 22.3239V557.676H381V22.3239H379ZM362.676 574H28.3239V576H362.676V574ZM12 557.676V22.324H10V557.676H12ZM28.3239 574C19.3085 574 12 566.692 12 557.676H10C10 567.796 18.2039 576 28.3239 576V574ZM379 557.676C379 566.691 371.692 574 362.676 574V576C372.796 576 381 567.796 381 557.676H379ZM362.676 6C371.692 6 379 13.3085 379 22.3239H381C381 12.2039 372.796 4 362.676 4V6ZM28.3239 4C18.2039 4 10 12.2039 10 22.324H12C12 13.3085 19.3085 6 28.3239 6V4Z" fill="#F7E2E2"/>
</g>
<path d="M273 208.75C266.925 208.75 262 216.675 262 222.75C262 216.675 257.075 208.75 251 208.75C244.925 208.75 240 213.675 240 219.75C240 229.573 256.149 242.879 262 250.25C267.851 242.879 284 229.573 284 219.75C284 213.675 279.075 208.75 273 208.75Z" fill="#FD7072" stroke="#FD7072" stroke-linecap="round" stroke-linejoin="round"/>
<path d="M273 269.25C266.925 269.25 262 277.175 262 283.25C262 277.175 257.075 269.25 251 269.25C244.925 269.25 240 274.175 240 280.25C240 290.073 256.149 303.379 262 310.75C267.851 303.379 284 290.073 284 280.25C284 274.175 279.075 269.25 273 269.25Z" fill="#FD7072" stroke="#FD7072" stroke-linecap="round" stroke-linejoin="round"/>
<path d="M273 329.75C266.925 329.75 262 337.675 262 343.75C262 337.675 257.075 329.75 251 329.75C244.925 329.75 240 334.675 240 340.75C240 350.573 256.149 363.879 262 371.25C267.851 363.879 284 350.573 284 340.75C284 334.675 279.075 329.75 273 329.75Z" fill="#FD7072" stroke="#FD7072" stroke-linecap="round" stroke-linejoin="round"/>
<path d="M139 208.75C132.925 208.75 128 216.675 128 222.75C128 216.675 123.075 208.75 117 208.75C110.925 208.75 106 213.675 106 219.75C106 229.573 122.149 242.879 128 250.25C133.851 242.879 150 229.573 150 219.75C150 213.675 145.075 208.75 139 208.75Z" fill="#FD7072" stroke="#FD7072" stroke-linecap="round" stroke-linejoin="round"/>
<path d="M139 269.25C132.925 269.25 128 277.175 128 283.25C128 277.175 123.075 269.25 117 269.25C110.925 269.25 106 274.175 106 280.25C106 290.073 122.149 303.379 128 310.75C133.851 303.379 150 290.073 150 280.25C150 274.175 145.075 269.25 139 269.25Z" fill="#FD7072" stroke="#FD7072" stroke-linecap="round" stroke-linejoin="round"/>
<path d="M139 329.75C132.925 329.75 128 337.675 128 343.75C128 337.675 123.075 329.75 117 329.75C110.925 329.75 106 334.675 106 340.75C106 350.573 122.149 363.879 128 371.25C133.851 363.879 150 350.573 150 340.75C150 334.675 145.075 329.75 139 329.75Z" fill="#FD7072" stroke="#FD7072" stroke-linecap="round" stroke-linejoin="round"/>
<defs>
<filter id="filter0_d" x="0" y="0" width="391" height="592" filterUnits="userSpaceOnUse" color-interpolation-filters="sRGB">
<feFlood flood-opacity="0" result="BackgroundImageFix"/>
<feColorMatrix in="SourceAlpha" type="matrix" values="0 0 0 0 0 0 0 0 0 0 0 0 0 0 0 0 0 0 127 0"/>
<feMorphology radius="3" operator="dilate" in="SourceAlpha" result="effect1_dropShadow"/>
<feOffset dy="6"/>
<feGaussianBlur stdDeviation="4"/>
<feColorMatrix type="matrix" values="0 0 0 0 0.279463 0 0 0 0 0.0711028 0 0 0 0 0.0740583 0 0 0 0.05 0"/>
<feBlend mode="normal" in2="BackgroundImageFix" result="effect1_dropShadow"/>
<feBlend mode="normal" in="SourceGraphic" in2="effect1_dropShadow" result="shape"/>
</filter>
<clipPath id="clip0">
<path d="M11 22.324C11 12.7562 18.7562 5 28.3239 5H362.676C372.244 5 380 12.7562 380 22.3239V557.676C380 567.244 372.244 575 362.676 575H28.3239C18.7562 575 11 567.244 11 557.676V22.324Z" fill="white"/>
</clipPath>
</defs>
</svg>
