<svg width="391" height="592" viewBox="0 0 391 592" fill="none" xmlns="http://www.w3.org/2000/svg">
<g filter="url(#filter0_d)">
<g clip-path="url(#clip0)">
<path d="M11 22.324C11 12.7562 18.7562 5 28.3239 5H362.676C372.244 5 380 12.7562 380 22.3239V557.676C380 567.244 372.244 575 362.676 575H28.3239C18.7562 575 11 567.244 11 557.676V22.324Z" fill="white"/>
<path d="M73.7718 40.3837L65.3878 41.1176C64.4281 37.5796 62.5744 35.8106 59.8268 35.8106C57.7943 35.8106 56.157 36.7516 54.9149 38.6335C53.6917 40.4966 52.9577 43.1595 52.7131 46.6223C54.9902 45.1544 57.6155 44.4204 60.5889 44.4204C63.2801 44.4204 65.6607 45.0132 67.7308 46.1988C69.8198 47.3656 71.4382 48.9652 72.5862 50.9977C73.753 53.0114 74.3364 55.2885 74.3364 57.8291C74.3364 62.3834 73.0285 65.9778 70.4126 68.6125C67.7967 71.2472 64.1928 72.5646 59.6009 72.5646C53.7481 72.5646 49.4291 70.8238 46.6439 67.3422C43.8774 63.8607 42.4942 58.4596 42.4942 51.1389C42.4942 43.7805 43.9904 38.2006 46.9826 34.3992C49.9937 30.5977 54.4162 28.6969 60.2502 28.6969C68.3425 28.6969 72.8497 32.5925 73.7718 40.3837ZM52.6566 53.5666C52.6566 57.7256 53.2212 60.7179 54.3504 62.5433C55.4983 64.3688 57.2297 65.2815 59.5445 65.2815C61.05 65.2815 62.2733 64.6887 63.2142 63.5031C64.1552 62.2987 64.6257 60.6049 64.6257 58.4219C64.6257 56.3706 64.0987 54.7898 63.0448 53.6795C61.991 52.5503 60.5325 51.9857 58.6694 51.9857C56.9004 51.9857 54.8961 52.5127 52.6566 53.5666Z" fill="#1A1616"/>
<path fill-rule="evenodd" clip-rule="evenodd" d="M62.6689 118.663C63.8338 119.645 65.189 120.262 66.6351 120.262C70.9862 120.262 74.5135 116.79 74.5135 112.506C74.5135 107.411 68.2567 100.989 63.2795 95.8794C61.4896 94.042 59.8651 92.3745 58.7568 90.9998C57.6484 92.3745 56.0239 94.042 54.234 95.8794C49.2569 100.989 43 107.411 43 112.506C43 116.79 46.5273 120.262 50.8784 120.262C52.2464 120.262 53.5329 119.71 54.654 118.819C55.5853 122.254 56.6357 128.011 54.2547 130.392C53.1293 131.517 56.2895 132.643 58.7567 132.643C61.2406 132.643 64.151 131.517 63.0256 130.392C60.6082 127.974 61.728 122.077 62.6689 118.663ZM58.763 110.706C58.7589 110.6 58.7568 110.495 58.7568 110.391C58.7568 110.495 58.7547 110.6 58.7505 110.705L58.7567 110.696L58.763 110.706Z" fill="#453B3B"/>
<path d="M318.228 539.616L326.612 538.882C327.572 542.42 329.426 544.189 332.173 544.189C334.206 544.189 335.843 543.248 337.085 541.367C338.308 539.503 339.042 536.84 339.287 533.378C337.01 534.846 334.385 535.58 331.411 535.58C328.72 535.58 326.339 534.987 324.269 533.801C322.18 532.634 320.562 531.035 319.414 529.002C318.247 526.989 317.664 524.711 317.664 522.171C317.664 517.617 318.972 514.022 321.587 511.387C324.203 508.753 327.807 507.435 332.399 507.435C338.252 507.435 342.571 509.176 345.356 512.658C348.123 516.139 349.506 521.54 349.506 528.861C349.506 536.219 348.01 541.799 345.017 545.601C342.006 549.402 337.584 551.303 331.75 551.303C323.658 551.303 319.15 547.407 318.228 539.616ZM339.343 526.433C339.343 522.274 338.779 519.282 337.65 517.457C336.502 515.631 334.77 514.718 332.456 514.718C330.95 514.718 329.727 515.311 328.786 516.497C327.845 517.701 327.374 519.395 327.374 521.578C327.374 523.629 327.901 525.21 328.955 526.321C330.009 527.45 331.468 528.014 333.331 528.014C335.1 528.014 337.104 527.487 339.343 526.433Z" fill="#1A1616"/>
<path fill-rule="evenodd" clip-rule="evenodd" d="M329.331 461.337C328.166 460.355 326.811 459.738 325.365 459.738C321.014 459.738 317.486 463.21 317.486 467.494C317.486 472.589 323.743 479.011 328.72 484.121C330.51 485.958 332.135 487.626 333.243 489C334.352 487.626 335.976 485.958 337.766 484.121C342.743 479.011 349 472.589 349 467.494C349 463.21 345.473 459.738 341.122 459.738C339.754 459.738 338.467 460.29 337.346 461.181C336.415 457.746 335.364 451.989 337.745 449.608C338.871 448.483 335.711 447.357 333.243 447.357C330.759 447.357 327.849 448.483 328.974 449.608C331.392 452.026 330.272 457.923 329.331 461.337ZM333.237 469.294C333.241 469.4 333.243 469.505 333.243 469.609C333.243 469.505 333.245 469.4 333.249 469.295L333.243 469.304L333.237 469.294Z" fill="#453B3B"/>
</g>
<path d="M28.3239 6H362.676V4H28.3239V6ZM379 22.3239V557.676H381V22.3239H379ZM362.676 574H28.3239V576H362.676V574ZM12 557.676V22.324H10V557.676H12ZM28.3239 574C19.3085 574 12 566.692 12 557.676H10C10 567.796 18.2039 576 28.3239 576V574ZM379 557.676C379 566.691 371.692 574 362.676 574V576C372.796 576 381 567.796 381 557.676H379ZM362.676 6C371.692 6 379 13.3085 379 22.3239H381C381 12.2039 372.796 4 362.676 4V6ZM28.3239 4C18.2039 4 10 12.2039 10 22.324H12C12 13.3085 19.3085 6 28.3239 6V4Z" fill="#D9D8D8"/>
</g>
<path fill-rule="evenodd" clip-rule="evenodd" d="M265.669 236.413C266.834 237.395 268.189 238.012 269.635 238.012C273.986 238.012 277.514 234.54 277.514 230.256C277.514 225.161 271.257 218.739 266.28 213.629C264.49 211.792 262.865 210.124 261.757 208.75C260.648 210.124 259.024 211.792 257.234 213.629C252.257 218.739 246 225.161 246 230.256C246 234.54 249.527 238.012 253.878 238.012C255.246 238.012 256.533 237.46 257.654 236.569C258.585 240.004 259.636 245.761 257.255 248.142C256.129 249.267 259.289 250.393 261.757 250.393C264.241 250.393 267.151 249.267 266.026 248.142C263.608 245.724 264.728 239.827 265.669 236.413ZM261.763 228.456C261.759 228.35 261.757 228.245 261.757 228.141C261.757 228.245 261.755 228.35 261.751 228.455L261.757 228.446L261.763 228.456Z" fill="#453B3B"/>
<path fill-rule="evenodd" clip-rule="evenodd" d="M265.669 296.913C266.834 297.895 268.189 298.512 269.635 298.512C273.986 298.512 277.514 295.04 277.514 290.756C277.514 285.661 271.257 279.239 266.28 274.129C264.49 272.292 262.865 270.624 261.757 269.25C260.648 270.624 259.024 272.292 257.234 274.129C252.257 279.239 246 285.661 246 290.756C246 295.04 249.527 298.512 253.878 298.512C255.246 298.512 256.533 297.96 257.654 297.069C258.585 300.504 259.636 306.261 257.255 308.642C256.129 309.767 259.289 310.893 261.757 310.893C264.241 310.893 267.151 309.767 266.026 308.642C263.608 306.224 264.728 300.327 265.669 296.913ZM261.763 288.956C261.759 288.85 261.757 288.745 261.757 288.641C261.757 288.745 261.755 288.85 261.751 288.955L261.757 288.946L261.763 288.956Z" fill="#453B3B"/>
<path fill-rule="evenodd" clip-rule="evenodd" d="M265.669 357.413C266.834 358.395 268.189 359.012 269.635 359.012C273.986 359.012 277.514 355.54 277.514 351.256C277.514 346.161 271.257 339.739 266.28 334.629C264.49 332.792 262.865 331.124 261.757 329.75C260.648 331.124 259.024 332.792 257.234 334.629C252.257 339.739 246 346.161 246 351.256C246 355.54 249.527 359.012 253.878 359.012C255.246 359.012 256.533 358.46 257.654 357.569C258.585 361.004 259.636 366.761 257.255 369.142C256.129 370.267 259.289 371.393 261.757 371.393C264.241 371.393 267.151 370.267 266.026 369.142C263.608 366.724 264.728 360.827 265.669 357.413ZM261.763 349.456C261.759 349.35 261.757 349.245 261.757 349.141C261.757 349.245 261.755 349.35 261.751 349.455L261.757 349.446L261.763 349.456Z" fill="#453B3B"/>
<path fill-rule="evenodd" clip-rule="evenodd" d="M131.669 236.413C132.834 237.395 134.189 238.012 135.635 238.012C139.986 238.012 143.514 234.54 143.514 230.256C143.514 225.161 137.257 218.739 132.28 213.629C130.49 211.792 128.865 210.124 127.757 208.75C126.648 210.124 125.024 211.792 123.234 213.629C118.257 218.739 112 225.161 112 230.256C112 234.54 115.527 238.012 119.878 238.012C121.246 238.012 122.533 237.46 123.654 236.569C124.585 240.004 125.636 245.761 123.255 248.142C122.129 249.267 125.289 250.393 127.757 250.393C130.241 250.393 133.151 249.267 132.026 248.142C129.608 245.724 130.728 239.827 131.669 236.413ZM127.763 228.456C127.759 228.35 127.757 228.245 127.757 228.141C127.757 228.245 127.755 228.35 127.751 228.455L127.757 228.446L127.763 228.456Z" fill="#453B3B"/>
<path fill-rule="evenodd" clip-rule="evenodd" d="M131.669 296.913C132.834 297.895 134.189 298.512 135.635 298.512C139.986 298.512 143.514 295.04 143.514 290.756C143.514 285.661 137.257 279.239 132.28 274.129C130.49 272.292 128.865 270.624 127.757 269.25C126.648 270.624 125.024 272.292 123.234 274.129C118.257 279.239 112 285.661 112 290.756C112 295.04 115.527 298.512 119.878 298.512C121.246 298.512 122.533 297.96 123.654 297.069C124.585 300.504 125.636 306.261 123.255 308.642C122.129 309.767 125.289 310.893 127.757 310.893C130.241 310.893 133.151 309.767 132.026 308.642C129.608 306.224 130.728 300.327 131.669 296.913ZM127.763 288.956C127.759 288.85 127.757 288.745 127.757 288.641C127.757 288.745 127.755 288.85 127.751 288.955L127.757 288.946L127.763 288.956Z" fill="#453B3B"/>
<path fill-rule="evenodd" clip-rule="evenodd" d="M131.669 357.413C132.834 358.395 134.189 359.012 135.635 359.012C139.986 359.012 143.514 355.54 143.514 351.256C143.514 346.161 137.257 339.739 132.28 334.629C130.49 332.792 128.865 331.124 127.757 329.75C126.648 331.124 125.024 332.792 123.234 334.629C118.257 339.739 112 346.161 112 351.256C112 355.54 115.527 359.012 119.878 359.012C121.246 359.012 122.533 358.46 123.654 357.569C124.585 361.004 125.636 366.761 123.255 369.142C122.129 370.267 125.289 371.393 127.757 371.393C130.241 371.393 133.151 370.267 132.026 369.142C129.608 366.724 130.728 360.827 131.669 357.413ZM127.763 349.456C127.759 349.35 127.757 349.245 127.757 349.141C127.757 349.245 127.755 349.35 127.751 349.455L127.757 349.446L127.763 349.456Z" fill="#453B3B"/>
<defs>
<filter id="filter0_d" x="0" y="0" width="391" height="592" filterUnits="userSpaceOnUse" color-interpolation-filters="sRGB">
<feFlood flood-opacity="0" result="BackgroundImageFix"/>
<feColorMatrix in="SourceAlpha" type="matrix" values="0 0 0 0 0 0 0 0 0 0 0 0 0 0 0 0 0 0 127 0"/>
<feMorphology radius="3" operator="dilate" in="SourceAlpha" result="effect1_dropShadow"/>
<feOffset dy="6"/>
<feGaussianBlur stdDeviation="4"/>
<feColorMatrix type="matrix" values="0 0 0 0 0.279463 0 0 0 0 0.0711028 0 0 0 0 0.0740583 0 0 0 0.05 0"/>
<feBlend mode="normal" in2="BackgroundImageFix" result="effect1_dropShadow"/>
<feBlend mode="normal" in="SourceGraphic" in2="effect1_dropShadow" result="shape"/>
</filter>
<clipPath id="clip0">
<path d="M11 22.324C11 12.7562 18.7562 5 28.3239 5H362.676C372.244 5 380 12.7562 380 22.3239V557.676C380 567.244 372.244 575 362.676 575H28.3239C18.7562 575 11 567.244 11 557.676V22.324Z" fill="white"/>
</clipPath>
</defs>
</svg>
