<svg width="391" height="592" viewBox="0 0 391 592" fill="none" xmlns="http://www.w3.org/2000/svg">
<g filter="url(#filter0_d)">
<g clip-path="url(#clip0)">
<path d="M11 22.324C11 12.7562 18.7562 5 28.3239 5H362.676C372.244 5 380 12.7562 380 22.3239V557.676C380 567.244 372.244 575 362.676 575H28.3239C18.7562 575 11 567.244 11 557.676V22.324Z" fill="#FBEEEE"/>
<path d="M51.3863 64.717V72H29.7066V64.717H35.5499V36.7422H29.3114V29.4591H45.9099V64.717H51.3863ZM92.6005 50.6025C92.6005 57.7727 91.2361 63.2302 88.5073 66.9753C85.7785 70.7015 81.8453 72.5646 76.7076 72.5646C71.5511 72.5646 67.6085 70.7015 64.8797 66.9753C62.1698 63.2302 60.8148 57.7727 60.8148 50.6025C60.8148 43.6018 62.1603 38.2006 64.8515 34.3992C67.5615 30.5977 71.5135 28.6969 76.7076 28.6969C81.9582 28.6969 85.9196 30.56 88.592 34.2862C91.2643 37.9936 92.6005 43.4324 92.6005 50.6025ZM71.5135 50.6025C71.5135 55.5332 71.9369 59.1841 72.7838 61.5553C73.6307 63.9265 74.9574 65.1122 76.7641 65.1122C78.5707 65.1122 79.8881 63.9265 80.7161 61.5553C81.5442 59.1841 81.9582 55.5332 81.9582 50.6025C81.9582 40.8918 80.2268 36.0364 76.7641 36.0364C74.9574 36.0364 73.6307 37.2503 72.7838 39.678C71.9369 42.1056 71.5135 45.7472 71.5135 50.6025Z" fill="#732A2A"/>
<path d="M59 91L42 111L59 131L76 111L59 91Z" fill="#FD7072"/>
<path d="M340.614 515.283V508H362.293V515.283H356.45V543.258H362.689V550.541H346.09V515.283H340.614ZM299.4 529.397C299.4 522.227 300.764 516.77 303.493 513.025C306.222 509.299 310.155 507.435 315.292 507.435C320.449 507.435 324.391 509.299 327.12 513.025C329.83 516.77 331.185 522.227 331.185 529.397C331.185 536.398 329.84 541.799 327.149 545.601C324.439 549.402 320.486 551.303 315.292 551.303C310.042 551.303 306.08 549.44 303.408 545.714C300.736 542.006 299.4 536.568 299.4 529.397ZM320.486 529.397C320.486 524.467 320.063 520.816 319.216 518.445C318.369 516.073 317.043 514.888 315.236 514.888C313.429 514.888 312.112 516.073 311.284 518.445C310.456 520.816 310.042 524.467 310.042 529.397C310.042 539.108 311.773 543.964 315.236 543.964C317.043 543.964 318.369 542.75 319.216 540.322C320.063 537.894 320.486 534.253 320.486 529.397Z" fill="#732A2A"/>
<path d="M333 489L350 469L333 449L316 469L333 489Z" fill="#FD7072"/>
</g>
<path d="M28.3239 6H362.676V4H28.3239V6ZM379 22.3239V557.676H381V22.3239H379ZM362.676 574H28.3239V576H362.676V574ZM12 557.676V22.324H10V557.676H12ZM28.3239 574C19.3085 574 12 566.692 12 557.676H10C10 567.796 18.2039 576 28.3239 576V574ZM379 557.676C379 566.691 371.692 574 362.676 574V576C372.796 576 381 567.796 381 557.676H379ZM362.676 6C371.692 6 379 13.3085 379 22.3239H381C381 12.2039 372.796 4 362.676 4V6ZM28.3239 4C18.2039 4 10 12.2039 10 22.324H12C12 13.3085 19.3085 6 28.3239 6V4Z" fill="#F7E2E2"/>
</g>
<path d="M262 148L245 168L262 188L279 168L262 148Z" fill="#FD7072"/>
<path d="M262 208.5L245 228.5L262 248.5L279 228.5L262 208.5Z" fill="#FD7072"/>
<path d="M262 371.5L245 351.5L262 331.5L279 351.5L262 371.5Z" fill="#FD7072"/>
<path d="M262 432L245 412L262 392L279 412L262 432Z" fill="#FD7072"/>
<path d="M128 148L111 168L128 188L145 168L128 148Z" fill="#FD7072"/>
<path d="M128 208.5L111 228.5L128 248.5L145 228.5L128 208.5Z" fill="#FD7072"/>
<path d="M128 371.5L111 351.5L128 331.5L145 351.5L128 371.5Z" fill="#FD7072"/>
<path d="M128 432L111 412L128 392L145 412L128 432Z" fill="#FD7072"/>
<path d="M195 400.5L178 380.5L195 360.5L212 380.5L195 400.5Z" fill="#FD7072"/>
<path d="M195 179L178 199L195 219L212 199L195 179Z" fill="#FD7072"/>
<defs>
<filter id="filter0_d" x="0" y="0" width="391" height="592" filterUnits="userSpaceOnUse" color-interpolation-filters="sRGB">
<feFlood flood-opacity="0" result="BackgroundImageFix"/>
<feColorMatrix in="SourceAlpha" type="matrix" values="0 0 0 0 0 0 0 0 0 0 0 0 0 0 0 0 0 0 127 0"/>
<feMorphology radius="3" operator="dilate" in="SourceAlpha" result="effect1_dropShadow"/>
<feOffset dy="6"/>
<feGaussianBlur stdDeviation="4"/>
<feColorMatrix type="matrix" values="0 0 0 0 0.279463 0 0 0 0 0.0711028 0 0 0 0 0.0740583 0 0 0 0.05 0"/>
<feBlend mode="normal" in2="BackgroundImageFix" result="effect1_dropShadow"/>
<feBlend mode="normal" in="SourceGraphic" in2="effect1_dropShadow" result="shape"/>
</filter>
<clipPath id="clip0">
<path d="M11 22.324C11 12.7562 18.7562 5 28.3239 5H362.676C372.244 5 380 12.7562 380 22.3239V557.676C380 567.244 372.244 575 362.676 575H28.3239C18.7562 575 11 567.244 11 557.676V22.324Z" fill="white"/>
</clipPath>
</defs>
</svg>
