<svg width="391" height="592" viewBox="0 0 391 592" fill="none" xmlns="http://www.w3.org/2000/svg">
<g filter="url(#filter0_d)">
<g clip-path="url(#clip0)">
<path d="M11 22.324C11 12.7562 18.7562 5 28.3239 5H362.676C372.244 5 380 12.7562 380 22.3239V557.676C380 567.244 372.244 575 362.676 575H28.3239C18.7562 575 11 567.244 11 557.676V22.324Z" fill="#FBEEEE"/>
<path d="M51.3863 64.717V72H29.7066V64.717H35.5499V36.7422H29.3114V29.4591H45.9099V64.717H51.3863ZM92.6005 50.6025C92.6005 57.7727 91.2361 63.2302 88.5073 66.9753C85.7785 70.7015 81.8453 72.5646 76.7076 72.5646C71.5511 72.5646 67.6085 70.7015 64.8797 66.9753C62.1698 63.2302 60.8148 57.7727 60.8148 50.6025C60.8148 43.6018 62.1603 38.2006 64.8515 34.3992C67.5615 30.5977 71.5135 28.6969 76.7076 28.6969C81.9582 28.6969 85.9196 30.56 88.592 34.2862C91.2643 37.9936 92.6005 43.4324 92.6005 50.6025ZM71.5135 50.6025C71.5135 55.5332 71.9369 59.1841 72.7838 61.5553C73.6307 63.9265 74.9574 65.1122 76.7641 65.1122C78.5707 65.1122 79.8881 63.9265 80.7161 61.5553C81.5442 59.1841 81.9582 55.5332 81.9582 50.6025C81.9582 40.8918 80.2268 36.0364 76.7641 36.0364C74.9574 36.0364 73.6307 37.2503 72.7838 39.678C71.9369 42.1056 71.5135 45.7472 71.5135 50.6025Z" fill="#732A2A"/>
<path d="M70 91C63.9249 91 59 98.9249 59 105C59 98.9249 54.0751 91 48 91C41.9249 91 37 95.9249 37 102C37 111.823 53.1493 125.129 59 132.5C64.8507 125.129 81 111.823 81 102C81 95.9249 76.0751 91 70 91Z" fill="#FD7072" stroke="#FD7072" stroke-linecap="round" stroke-linejoin="round"/>
<path d="M340.614 515.283V508H362.293V515.283H356.45V543.258H362.689V550.541H346.09V515.283H340.614ZM299.4 529.397C299.4 522.227 300.764 516.77 303.493 513.025C306.222 509.299 310.155 507.435 315.292 507.435C320.449 507.435 324.391 509.299 327.12 513.025C329.83 516.77 331.185 522.227 331.185 529.397C331.185 536.398 329.84 541.799 327.149 545.601C324.439 549.402 320.486 551.303 315.292 551.303C310.042 551.303 306.08 549.44 303.408 545.714C300.736 542.006 299.4 536.568 299.4 529.397ZM320.486 529.397C320.486 524.467 320.063 520.816 319.216 518.445C318.369 516.073 317.043 514.888 315.236 514.888C313.429 514.888 312.112 516.073 311.284 518.445C310.456 520.816 310.042 524.467 310.042 529.397C310.042 539.108 311.773 543.964 315.236 543.964C317.043 543.964 318.369 542.75 319.216 540.322C320.063 537.894 320.486 534.253 320.486 529.397Z" fill="#732A2A"/>
<path d="M322 489C328.075 489 333 481.075 333 475C333 481.075 337.925 489 344 489C350.075 489 355 484.075 355 478C355 468.177 338.851 454.871 333 447.5C327.149 454.871 311 468.177 311 478C311 484.075 315.925 489 322 489Z" fill="#FD7072" stroke="#FD7072" stroke-linecap="round" stroke-linejoin="round"/>
</g>
<path d="M28.3239 6H362.676V4H28.3239V6ZM379 22.3239V557.676H381V22.3239H379ZM362.676 574H28.3239V576H362.676V574ZM12 557.676V22.324H10V557.676H12ZM28.3239 574C19.3085 574 12 566.692 12 557.676H10C10 567.796 18.2039 576 28.3239 576V574ZM379 557.676C379 566.691 371.692 574 362.676 574V576C372.796 576 381 567.796 381 557.676H379ZM362.676 6C371.692 6 379 13.3085 379 22.3239H381C381 12.2039 372.796 4 362.676 4V6ZM28.3239 4C18.2039 4 10 12.2039 10 22.324H12C12 13.3085 19.3085 6 28.3239 6V4Z" fill="#F7E2E2"/>
</g>
<path d="M273 148C266.925 148 262 155.925 262 162C262 155.925 257.075 148 251 148C244.925 148 240 152.925 240 159C240 168.823 256.149 182.129 262 189.5C267.851 182.129 284 168.823 284 159C284 152.925 279.075 148 273 148Z" fill="#FD7072" stroke="#FD7072" stroke-linecap="round" stroke-linejoin="round"/>
<path d="M273 208.5C266.925 208.5 262 216.425 262 222.5C262 216.425 257.075 208.5 251 208.5C244.925 208.5 240 213.425 240 219.5C240 229.323 256.149 242.629 262 250C267.851 242.629 284 229.323 284 219.5C284 213.425 279.075 208.5 273 208.5Z" fill="#FD7072" stroke="#FD7072" stroke-linecap="round" stroke-linejoin="round"/>
<path d="M273 371.5C266.925 371.5 262 363.575 262 357.5C262 363.575 257.075 371.5 251 371.5C244.925 371.5 240 366.575 240 360.5C240 350.677 256.149 337.371 262 330C267.851 337.371 284 350.677 284 360.5C284 366.575 279.075 371.5 273 371.5Z" fill="#FD7072" stroke="#FD7072" stroke-linecap="round" stroke-linejoin="round"/>
<path d="M273 432C266.925 432 262 424.075 262 418C262 424.075 257.075 432 251 432C244.925 432 240 427.075 240 421C240 411.177 256.149 397.871 262 390.5C267.851 397.871 284 411.177 284 421C284 427.075 279.075 432 273 432Z" fill="#FD7072" stroke="#FD7072" stroke-linecap="round" stroke-linejoin="round"/>
<path d="M139 148C132.925 148 128 155.925 128 162C128 155.925 123.075 148 117 148C110.925 148 106 152.925 106 159C106 168.823 122.149 182.129 128 189.5C133.851 182.129 150 168.823 150 159C150 152.925 145.075 148 139 148Z" fill="#FD7072" stroke="#FD7072" stroke-linecap="round" stroke-linejoin="round"/>
<path d="M139 208.5C132.925 208.5 128 216.425 128 222.5C128 216.425 123.075 208.5 117 208.5C110.925 208.5 106 213.425 106 219.5C106 229.323 122.149 242.629 128 250C133.851 242.629 150 229.323 150 219.5C150 213.425 145.075 208.5 139 208.5Z" fill="#FD7072" stroke="#FD7072" stroke-linecap="round" stroke-linejoin="round"/>
<path d="M139 371.5C132.925 371.5 128 363.575 128 357.5C128 363.575 123.075 371.5 117 371.5C110.925 371.5 106 366.575 106 360.5C106 350.677 122.149 337.371 128 330C133.851 337.371 150 350.677 150 360.5C150 366.575 145.075 371.5 139 371.5Z" fill="#FD7072" stroke="#FD7072" stroke-linecap="round" stroke-linejoin="round"/>
<path d="M139 432C132.925 432 128 424.075 128 418C128 424.075 123.075 432 117 432C110.925 432 106 427.075 106 421C106 411.177 122.149 397.871 128 390.5C133.851 397.871 150 411.177 150 421C150 427.075 145.075 432 139 432Z" fill="#FD7072" stroke="#FD7072" stroke-linecap="round" stroke-linejoin="round"/>
<path d="M206 400.5C199.925 400.5 195 392.575 195 386.5C195 392.575 190.075 400.5 184 400.5C177.925 400.5 173 395.575 173 389.5C173 379.677 189.149 366.371 195 359C200.851 366.371 217 379.677 217 389.5C217 395.575 212.075 400.5 206 400.5Z" fill="#FD7072" stroke="#FD7072" stroke-linecap="round" stroke-linejoin="round"/>
<path d="M206 179C199.925 179 195 186.925 195 193C195 186.925 190.075 179 184 179C177.925 179 173 183.925 173 190C173 199.823 189.149 213.129 195 220.5C200.851 213.129 217 199.823 217 190C217 183.925 212.075 179 206 179Z" fill="#FD7072" stroke="#FD7072" stroke-linecap="round" stroke-linejoin="round"/>
<defs>
<filter id="filter0_d" x="0" y="0" width="391" height="592" filterUnits="userSpaceOnUse" color-interpolation-filters="sRGB">
<feFlood flood-opacity="0" result="BackgroundImageFix"/>
<feColorMatrix in="SourceAlpha" type="matrix" values="0 0 0 0 0 0 0 0 0 0 0 0 0 0 0 0 0 0 127 0"/>
<feMorphology radius="3" operator="dilate" in="SourceAlpha" result="effect1_dropShadow"/>
<feOffset dy="6"/>
<feGaussianBlur stdDeviation="4"/>
<feColorMatrix type="matrix" values="0 0 0 0 0.279463 0 0 0 0 0.0711028 0 0 0 0 0.0740583 0 0 0 0.05 0"/>
<feBlend mode="normal" in2="BackgroundImageFix" result="effect1_dropShadow"/>
<feBlend mode="normal" in="SourceGraphic" in2="effect1_dropShadow" result="shape"/>
</filter>
<clipPath id="clip0">
<path d="M11 22.324C11 12.7562 18.7562 5 28.3239 5H362.676C372.244 5 380 12.7562 380 22.3239V557.676C380 567.244 372.244 575 362.676 575H28.3239C18.7562 575 11 567.244 11 557.676V22.324Z" fill="white"/>
</clipPath>
</defs>
</svg>
