<svg width="391" height="592" viewBox="0 0 391 592" fill="none" xmlns="http://www.w3.org/2000/svg">
<g filter="url(#filter0_d)">
<g clip-path="url(#clip0)">
<path d="M11 22.324C11 12.7562 18.7562 5 28.3239 5H362.676C372.244 5 380 12.7562 380 22.3239V557.676C380 567.244 372.244 575 362.676 575H28.3239C18.7562 575 11 567.244 11 557.676V22.324Z" fill="white"/>
<path d="M72.7838 40.1014C72.7838 44.3734 70.6478 47.5068 66.3759 49.5016C71.7205 51.3271 74.3928 54.7051 74.3928 59.6358C74.3928 62.1764 73.7059 64.4347 72.3321 66.4107C70.9772 68.3679 69.0858 69.8828 66.6581 70.9555C64.2305 72.0282 61.4923 72.5646 58.4435 72.5646C48.2623 72.5646 42.8048 67.9256 42.0708 58.6477L51.3299 57.8856C51.3675 62.8538 53.4094 65.338 57.4555 65.338C59.3186 65.338 60.8336 64.7546 62.0004 63.5878C63.1672 62.421 63.7506 60.9813 63.7506 59.2688C63.7506 57.4998 63.1295 56.0695 61.8875 54.978C60.6642 53.8677 58.9234 53.3125 56.6651 53.3125C56.3076 53.3125 55.5171 53.3595 54.2939 53.4536V45.6907C56.9098 45.6531 58.9517 45.192 60.4196 44.3075C61.8875 43.423 62.6214 42.1527 62.6214 40.4966C62.6214 39.1792 62.1227 38.1065 61.1253 37.2785C60.1467 36.4505 58.9046 36.0364 57.3991 36.0364C54.0116 36.0364 52.3179 37.9278 52.3179 41.7104L43.3693 40.9483C43.6704 37.0903 45.1195 34.0886 47.7166 31.9432C50.3136 29.779 53.7387 28.6969 57.9919 28.6969C62.4897 28.6969 66.0747 29.7226 68.7471 31.7739C71.4382 33.8063 72.7838 36.5822 72.7838 40.1014Z" fill="#1A1616"/>
<path fill-rule="evenodd" clip-rule="evenodd" d="M62.6689 118.663C63.8338 119.645 65.189 120.262 66.6351 120.262C70.9862 120.262 74.5135 116.79 74.5135 112.506C74.5135 107.411 68.2567 100.989 63.2795 95.8794C61.4896 94.042 59.8651 92.3745 58.7568 90.9998C57.6484 92.3745 56.0239 94.042 54.234 95.8794C49.2569 100.989 43 107.411 43 112.506C43 116.79 46.5273 120.262 50.8784 120.262C52.2464 120.262 53.5329 119.71 54.654 118.819C55.5853 122.254 56.6357 128.011 54.2547 130.392C53.1293 131.517 56.2895 132.643 58.7567 132.643C61.2406 132.643 64.151 131.517 63.0256 130.392C60.6082 127.974 61.728 122.077 62.6689 118.663ZM58.763 110.706C58.7589 110.6 58.7568 110.495 58.7568 110.391C58.7568 110.495 58.7547 110.6 58.7505 110.705L58.7567 110.696L58.763 110.706Z" fill="#453B3B"/>
<path d="M319.216 539.899C319.216 535.627 321.352 532.493 325.624 530.498C320.279 528.673 317.607 525.295 317.607 520.364C317.607 517.824 318.294 515.565 319.668 513.589C321.023 511.632 322.914 510.117 325.342 509.044C327.77 507.972 330.508 507.435 333.556 507.435C343.738 507.435 349.195 512.074 349.929 521.352L340.67 522.114C340.632 517.146 338.591 514.662 334.544 514.662C332.681 514.662 331.166 515.245 330 516.412C328.833 517.579 328.249 519.019 328.249 520.731C328.249 522.5 328.87 523.93 330.113 525.022C331.336 526.132 333.077 526.688 335.335 526.688C335.692 526.688 336.483 526.64 337.706 526.546V534.309C335.09 534.347 333.048 534.808 331.58 535.693C330.113 536.577 329.379 537.847 329.379 539.503C329.379 540.821 329.877 541.893 330.875 542.722C331.853 543.55 333.095 543.964 334.601 543.964C337.988 543.964 339.682 542.072 339.682 538.29L348.631 539.052C348.33 542.91 346.88 545.911 344.283 548.057C341.686 550.221 338.261 551.303 334.008 551.303C329.51 551.303 325.925 550.277 323.253 548.226C320.562 546.194 319.216 543.418 319.216 539.899Z" fill="#1A1616"/>
<path fill-rule="evenodd" clip-rule="evenodd" d="M329.331 461.337C328.166 460.355 326.811 459.738 325.365 459.738C321.014 459.738 317.486 463.21 317.486 467.494C317.486 472.589 323.743 479.011 328.72 484.121C330.51 485.958 332.135 487.626 333.243 489C334.352 487.626 335.976 485.958 337.766 484.121C342.743 479.011 349 472.589 349 467.494C349 463.21 345.473 459.738 341.122 459.738C339.754 459.738 338.467 460.29 337.346 461.181C336.415 457.746 335.364 451.989 337.745 449.608C338.871 448.483 335.711 447.357 333.243 447.357C330.759 447.357 327.849 448.483 328.974 449.608C331.392 452.026 330.272 457.923 329.331 461.337ZM333.237 469.294C333.241 469.4 333.243 469.505 333.243 469.609C333.243 469.505 333.245 469.4 333.249 469.295L333.243 469.304L333.237 469.294Z" fill="#453B3B"/>
</g>
<path d="M28.3239 6H362.676V4H28.3239V6ZM379 22.3239V557.676H381V22.3239H379ZM362.676 574H28.3239V576H362.676V574ZM12 557.676V22.324H10V557.676H12ZM28.3239 574C19.3085 574 12 566.692 12 557.676H10C10 567.796 18.2039 576 28.3239 576V574ZM379 557.676C379 566.691 371.692 574 362.676 574V576C372.796 576 381 567.796 381 557.676H379ZM362.676 6C371.692 6 379 13.3085 379 22.3239H381C381 12.2039 372.796 4 362.676 4V6ZM28.3239 4C18.2039 4 10 12.2039 10 22.324H12C12 13.3085 19.3085 6 28.3239 6V4Z" fill="#D9D8D8"/>
</g>
<path fill-rule="evenodd" clip-rule="evenodd" d="M198.669 296.663C199.834 297.645 201.189 298.262 202.635 298.262C206.986 298.262 210.514 294.79 210.514 290.506C210.514 285.411 204.257 278.989 199.28 273.879C197.49 272.042 195.865 270.374 194.757 269C193.648 270.374 192.024 272.042 190.234 273.879C185.257 278.989 179 285.411 179 290.506C179 294.79 182.527 298.262 186.878 298.262C188.246 298.262 189.533 297.71 190.654 296.819C191.585 300.254 192.636 306.011 190.255 308.392C189.129 309.517 192.289 310.643 194.757 310.643C197.241 310.643 200.151 309.517 199.026 308.392C196.608 305.974 197.728 300.077 198.669 296.663ZM194.763 288.706C194.759 288.6 194.757 288.495 194.757 288.391C194.757 288.495 194.755 288.6 194.751 288.705L194.757 288.696L194.763 288.706Z" fill="#453B3B"/>
<path fill-rule="evenodd" clip-rule="evenodd" d="M198.669 372.837C199.834 371.855 201.189 371.238 202.635 371.238C206.986 371.238 210.514 374.71 210.514 378.994C210.514 384.089 204.257 390.511 199.28 395.621C197.49 397.458 195.865 399.126 194.757 400.5C193.648 399.126 192.024 397.458 190.234 395.621C185.257 390.511 179 384.089 179 378.994C179 374.71 182.527 371.238 186.878 371.238C188.246 371.238 189.533 371.79 190.654 372.681C191.585 369.246 192.636 363.489 190.255 361.108C189.129 359.983 192.289 358.857 194.757 358.857C197.241 358.857 200.151 359.983 199.026 361.108C196.608 363.526 197.728 369.423 198.669 372.837ZM194.763 380.794C194.759 380.9 194.757 381.005 194.757 381.109C194.757 381.005 194.755 380.9 194.751 380.795L194.757 380.804L194.763 380.794Z" fill="#453B3B"/>
<path fill-rule="evenodd" clip-rule="evenodd" d="M198.669 206.663C199.834 207.645 201.189 208.262 202.635 208.262C206.986 208.262 210.514 204.79 210.514 200.506C210.514 195.411 204.257 188.989 199.28 183.879C197.49 182.042 195.865 180.374 194.757 179C193.648 180.374 192.024 182.042 190.234 183.879C185.257 188.989 179 195.411 179 200.506C179 204.79 182.527 208.262 186.878 208.262C188.246 208.262 189.533 207.71 190.654 206.819C191.585 210.254 192.636 216.011 190.255 218.392C189.129 219.517 192.289 220.643 194.757 220.643C197.241 220.643 200.151 219.517 199.026 218.392C196.608 215.974 197.728 210.077 198.669 206.663ZM194.763 198.706C194.759 198.6 194.757 198.495 194.757 198.391C194.757 198.495 194.755 198.6 194.751 198.705L194.757 198.696L194.763 198.706Z" fill="#453B3B"/>
<defs>
<filter id="filter0_d" x="0" y="0" width="391" height="592" filterUnits="userSpaceOnUse" color-interpolation-filters="sRGB">
<feFlood flood-opacity="0" result="BackgroundImageFix"/>
<feColorMatrix in="SourceAlpha" type="matrix" values="0 0 0 0 0 0 0 0 0 0 0 0 0 0 0 0 0 0 127 0"/>
<feMorphology radius="3" operator="dilate" in="SourceAlpha" result="effect1_dropShadow"/>
<feOffset dy="6"/>
<feGaussianBlur stdDeviation="4"/>
<feColorMatrix type="matrix" values="0 0 0 0 0.279463 0 0 0 0 0.0711028 0 0 0 0 0.0740583 0 0 0 0.05 0"/>
<feBlend mode="normal" in2="BackgroundImageFix" result="effect1_dropShadow"/>
<feBlend mode="normal" in="SourceGraphic" in2="effect1_dropShadow" result="shape"/>
</filter>
<clipPath id="clip0">
<path d="M11 22.324C11 12.7562 18.7562 5 28.3239 5H362.676C372.244 5 380 12.7562 380 22.3239V557.676C380 567.244 372.244 575 362.676 575H28.3239C18.7562 575 11 567.244 11 557.676V22.324Z" fill="white"/>
</clipPath>
</defs>
</svg>
