<svg width="391" height="592" viewBox="0 0 391 592" fill="none" xmlns="http://www.w3.org/2000/svg">
<g filter="url(#filter0_d)">
<g clip-path="url(#clip0)">
<path d="M11 22.324C11 12.7562 18.7562 5 28.3239 5H362.676C372.244 5 380 12.7562 380 22.3239V557.676C380 567.244 372.244 575 362.676 575H28.3239C18.7562 575 11 567.244 11 557.676V22.324Z" fill="white"/>
<path d="M72.7838 40.1014C72.7838 44.3734 70.6478 47.5068 66.3759 49.5016C71.7205 51.3271 74.3928 54.7051 74.3928 59.6358C74.3928 62.1764 73.7059 64.4347 72.3321 66.4107C70.9772 68.3679 69.0858 69.8828 66.6581 70.9555C64.2305 72.0282 61.4923 72.5646 58.4435 72.5646C48.2623 72.5646 42.8048 67.9256 42.0708 58.6477L51.3299 57.8856C51.3675 62.8538 53.4094 65.338 57.4555 65.338C59.3186 65.338 60.8336 64.7546 62.0004 63.5878C63.1672 62.421 63.7506 60.9813 63.7506 59.2688C63.7506 57.4998 63.1295 56.0695 61.8875 54.978C60.6642 53.8677 58.9234 53.3125 56.6651 53.3125C56.3076 53.3125 55.5171 53.3595 54.2939 53.4536V45.6907C56.9098 45.6531 58.9517 45.192 60.4196 44.3075C61.8875 43.423 62.6214 42.1527 62.6214 40.4966C62.6214 39.1792 62.1227 38.1065 61.1253 37.2785C60.1467 36.4505 58.9046 36.0364 57.3991 36.0364C54.0116 36.0364 52.3179 37.9278 52.3179 41.7104L43.3693 40.9483C43.6704 37.0903 45.1195 34.0886 47.7166 31.9432C50.3136 29.779 53.7387 28.6969 57.9919 28.6969C62.4897 28.6969 66.0747 29.7226 68.7471 31.7739C71.4382 33.8063 72.7838 36.5822 72.7838 40.1014Z" fill="#1A1616"/>
<path fill-rule="evenodd" clip-rule="evenodd" d="M59.584 97.4819C59.584 95.1031 61.5428 92 63.959 92C66.3753 92 68.334 93.9284 68.334 96.3072C68.334 99.1363 64.8595 102.703 62.0956 105.54C61.1748 106.485 60.3328 107.35 59.7245 108.079C60.504 107.694 61.4116 107.185 62.3906 106.637C65.8464 104.702 70.1909 102.269 72.9236 103.001C75.2213 103.617 76.5771 106.008 75.9517 108.342C75.3263 110.676 71.822 111.765 69.5242 111.149C71.822 111.765 74.3124 114.46 73.687 116.794C73.0617 119.127 70.692 120.52 68.3942 119.905C65.6616 119.172 63.1157 114.893 61.0905 111.489C60.73 110.883 60.3861 110.305 60.0605 109.78C60.4196 111.832 60.6176 113.865 60.8083 115.823C61.295 120.82 61.7331 125.319 64.6788 128.347C65.9884 129.693 62.4746 131.039 59.5841 131.039C56.713 131.039 53.1627 129.693 54.4723 128.347C57.8083 124.917 58.3108 119.441 58.8211 113.877C58.9552 112.415 59.0899 110.947 59.2767 109.509C58.9018 110.104 58.5011 110.777 58.0776 111.489C56.0524 114.893 53.5065 119.172 50.7738 119.905C48.4761 120.52 46.1064 119.127 45.4811 116.794C44.8557 114.46 47.3461 111.765 49.6439 111.149C47.3461 111.765 43.8418 110.676 43.2164 108.342C42.591 106.008 43.9468 103.617 46.2445 103.001C48.9772 102.269 53.3217 104.702 56.7775 106.637C57.7565 107.185 58.6641 107.694 59.4436 108.079C58.8353 107.35 57.9933 106.486 57.0725 105.54L57.0725 105.54C54.3086 102.703 50.834 99.1363 50.834 96.3072C50.834 93.9284 52.7928 92 55.209 92C57.6253 92 59.584 95.1031 59.584 97.4819Z" fill="#453B3B"/>
<path d="M58.584 97.4819C58.584 98.0342 59.0318 98.4819 59.584 98.4819C60.1363 98.4819 60.584 98.0342 60.584 97.4819H58.584ZM62.0956 105.54L61.3793 104.842L62.0956 105.54ZM59.7245 108.079L58.9567 107.438C58.6539 107.801 58.6465 108.326 58.9389 108.698C59.2314 109.069 59.7438 109.185 60.1675 108.975L59.7245 108.079ZM62.3906 106.637L62.8792 107.51L62.3906 106.637ZM72.9236 103.001L72.6648 103.967L72.9236 103.001ZM75.9517 108.342L74.9858 108.083L75.9517 108.342ZM69.7831 110.183C69.2496 110.04 68.7013 110.357 68.5583 110.89C68.4154 111.423 68.732 111.972 69.2654 112.115L69.7831 110.183ZM73.687 116.794L74.653 117.052L73.687 116.794ZM68.3942 119.905L68.1354 120.871L68.3942 119.905ZM61.0905 111.489L61.9499 110.978L61.0905 111.489ZM60.0605 109.78L60.9106 109.253C60.6582 108.846 60.1523 108.675 59.7045 108.845C59.2567 109.016 58.9929 109.48 59.0755 109.952L60.0605 109.78ZM60.8083 115.823L59.813 115.919L60.8083 115.823ZM64.6788 128.347L65.3955 127.649L64.6788 128.347ZM54.4723 128.347L53.7555 127.649L54.4723 128.347ZM58.8211 113.877L57.8253 113.786L58.8211 113.877ZM59.2767 109.509L60.2684 109.638C60.3288 109.172 60.0573 108.727 59.6156 108.568C59.1739 108.409 58.681 108.579 58.4307 108.976L59.2767 109.509ZM58.0776 111.489L57.2182 110.978L58.0776 111.489ZM50.7738 119.905L51.0327 120.871H51.0327L50.7738 119.905ZM45.4811 116.794L46.447 116.535L45.4811 116.794ZM49.9027 112.115C50.4361 111.972 50.7527 111.423 50.6098 110.89C50.4668 110.357 49.9185 110.04 49.385 110.183L49.9027 112.115ZM43.2164 108.342L44.1823 108.083H44.1823L43.2164 108.342ZM46.2445 103.001L46.5033 103.967H46.5033L46.2445 103.001ZM56.7775 106.637L57.2662 105.765L56.7775 106.637ZM59.4436 108.079L59.0006 108.975C59.4243 109.185 59.9367 109.069 60.2292 108.698C60.5216 108.326 60.5142 107.801 60.2114 107.438L59.4436 108.079ZM57.0725 105.54L56.3326 106.213C56.3403 106.221 56.3482 106.23 56.3562 106.238L57.0725 105.54ZM57.0725 105.54L57.8124 104.868C57.8047 104.859 57.7968 104.851 57.7888 104.842L57.0725 105.54ZM63.959 91C62.3083 91 60.9518 92.0475 60.0608 93.2552C59.1615 94.4741 58.584 96.0485 58.584 97.4819H60.584C60.584 96.5366 60.986 95.3699 61.6702 94.4426C62.3626 93.504 63.1936 93 63.959 93V91ZM69.334 96.3072C69.334 93.3615 66.9128 91 63.959 91V93C65.8378 93 67.334 94.4954 67.334 96.3072H69.334ZM62.8119 106.238C64.1844 104.829 65.7897 103.183 67.0479 101.525C68.2752 99.9078 69.334 98.0775 69.334 96.3072H67.334C67.334 97.3661 66.6556 98.7336 65.4547 100.316C64.2847 101.858 62.7707 103.414 61.3793 104.842L62.8119 106.238ZM60.4924 108.719C61.0705 108.027 61.8813 107.193 62.8119 106.238L61.3793 104.842C60.4682 105.778 59.5952 106.673 58.9567 107.438L60.4924 108.719ZM61.9019 105.765C60.9159 106.317 60.033 106.811 59.2816 107.182L60.1675 108.975C60.975 108.576 61.9074 108.054 62.8792 107.51L61.9019 105.765ZM73.1824 102.035C71.4725 101.577 69.4304 102.126 67.5505 102.893C65.6233 103.679 63.6181 104.804 61.9019 105.765L62.8792 107.51C64.6189 106.535 66.5139 105.476 68.306 104.745C70.1455 103.994 71.642 103.693 72.6648 103.967L73.1824 102.035ZM76.9176 108.601C77.6821 105.747 76.0278 102.797 73.1824 102.035L72.6648 103.967C74.4149 104.436 75.472 106.268 74.9858 108.083L76.9176 108.601ZM69.2654 112.115C70.65 112.486 72.3202 112.335 73.7303 111.782C75.1275 111.234 76.4904 110.195 76.9176 108.601L74.9858 108.083C74.7877 108.822 74.0857 109.495 72.9999 109.92C71.9271 110.341 70.6962 110.428 69.7831 110.183L69.2654 112.115ZM74.653 117.052C75.0802 115.458 74.4195 113.876 73.4835 112.703C72.5389 111.519 71.1677 110.554 69.7831 110.183L69.2654 112.115C70.1786 112.359 71.2014 113.05 71.9201 113.95C72.6475 114.862 72.9192 115.795 72.7211 116.535L74.653 117.052ZM68.1354 120.871C70.9808 121.633 73.8885 119.906 74.653 117.052L72.7211 116.535C72.2349 118.349 70.4032 119.408 68.6531 118.939L68.1354 120.871ZM60.2311 112C61.2368 113.691 62.411 115.667 63.687 117.312C64.9316 118.916 66.4255 120.412 68.1354 120.871L68.6531 118.939C67.6303 118.665 66.485 117.655 65.2671 116.086C64.0806 114.557 62.9694 112.692 61.9499 110.978L60.2311 112ZM59.2105 110.306C59.5304 110.823 59.8695 111.393 60.2311 112L61.9499 110.978C61.5905 110.374 61.2418 109.788 60.9106 109.253L59.2105 110.306ZM61.8035 115.726C61.6135 113.774 61.4122 111.703 61.0455 109.607L59.0755 109.952C59.4269 111.96 59.6218 113.957 59.813 115.919L61.8035 115.726ZM65.3955 127.649C64.0856 126.303 63.3033 124.602 62.7908 122.578C62.2743 120.537 62.0487 118.243 61.8035 115.726L59.813 115.919C60.0545 118.4 60.2913 120.854 60.852 123.069C61.4167 125.3 62.3262 127.362 63.962 129.044L65.3955 127.649ZM59.5841 132.039C61.1529 132.039 62.9027 131.679 64.1312 131.103C64.7188 130.827 65.3503 130.428 65.6979 129.852C65.8878 129.537 66.0066 129.144 65.9444 128.708C65.8834 128.279 65.6646 127.926 65.3955 127.649L63.962 129.044C64.0204 129.104 63.9783 129.087 63.9644 128.99C63.9494 128.885 63.986 128.818 63.9856 128.818C63.9522 128.874 63.7702 129.063 63.2818 129.292C62.3581 129.725 60.9057 130.039 59.5841 130.039V132.039ZM53.7555 127.649C53.4856 127.927 53.2663 128.282 53.2074 128.713C53.1474 129.152 53.2704 129.545 53.4624 129.858C53.8137 130.431 54.4478 130.829 55.0379 131.104C56.2713 131.679 58.0242 132.039 59.5841 132.039V130.039C58.2728 130.039 56.8151 129.726 55.883 129.291C55.3902 129.061 55.2029 128.87 55.1672 128.812C55.1656 128.81 55.2036 128.877 55.1889 128.984C55.1753 129.084 55.1316 129.103 55.1891 129.044L53.7555 127.649ZM57.8253 113.786C57.5686 116.584 57.3204 119.268 56.7347 121.676C56.1511 124.075 55.2519 126.111 53.7555 127.649L55.1891 129.044C57.0287 127.153 58.0488 124.736 58.678 122.149C59.3051 119.57 59.5633 116.734 59.8169 113.969L57.8253 113.786ZM58.285 109.38C58.0954 110.84 57.9591 112.327 57.8253 113.786L59.8169 113.969C59.9514 112.503 60.0844 111.054 60.2684 109.638L58.285 109.38ZM58.937 112C59.3622 111.286 59.756 110.624 60.1227 110.042L58.4307 108.976C58.0476 109.584 57.64 110.269 57.2182 110.978L58.937 112ZM51.0327 120.871C52.7426 120.412 54.2365 118.916 55.4811 117.312C56.7571 115.667 57.9313 113.691 58.937 112L57.2182 110.978C56.1987 112.692 55.0875 114.557 53.901 116.086C52.6831 117.655 51.5378 118.665 50.515 118.939L51.0327 120.871ZM44.5151 117.052C45.2796 119.906 48.1873 121.633 51.0327 120.871L50.515 118.939C48.7649 119.408 46.9332 118.349 46.447 116.535L44.5151 117.052ZM49.385 110.183C48.0004 110.554 46.6292 111.519 45.6846 112.703C44.7486 113.876 44.0879 115.458 44.5151 117.052L46.447 116.535C46.2489 115.795 46.5206 114.862 47.248 113.95C47.9667 113.05 48.9895 112.359 49.9027 112.115L49.385 110.183ZM42.2505 108.601C42.6777 110.195 44.0406 111.234 45.4378 111.782C46.8479 112.335 48.5181 112.486 49.9027 112.115L49.385 110.183C48.4719 110.428 47.241 110.341 46.1682 109.92C45.0824 109.495 44.3804 108.822 44.1823 108.083L42.2505 108.601ZM45.9857 102.035C43.1403 102.797 41.486 105.747 42.2505 108.601L44.1823 108.083C43.6961 106.268 44.7532 104.436 46.5033 103.967L45.9857 102.035ZM57.2662 105.765C55.55 104.804 53.5448 103.679 51.6176 102.893C49.7377 102.126 47.6956 101.577 45.9857 102.035L46.5033 103.967C47.5261 103.693 49.0226 103.994 50.8621 104.745C52.6542 105.476 54.5492 106.535 56.2889 107.51L57.2662 105.765ZM59.8865 107.182C59.1351 106.811 58.2522 106.317 57.2662 105.765L56.2889 107.51C57.2607 108.054 58.1931 108.576 59.0006 108.975L59.8865 107.182ZM56.3562 106.238C57.2868 107.193 58.0976 108.027 58.6757 108.719L60.2114 107.438C59.5729 106.673 58.6999 105.778 57.7888 104.842L56.3562 106.238ZM56.3326 106.213L56.3326 106.213L57.8125 104.868L57.8124 104.868L56.3326 106.213ZM49.834 96.3072C49.834 98.0775 50.8929 99.9078 52.1202 101.525C53.3784 103.183 54.9837 104.829 56.3562 106.238L57.7888 104.842C56.3974 103.414 54.8834 101.858 53.7134 100.316C52.5125 98.7336 51.834 97.3661 51.834 96.3072H49.834ZM55.209 91C52.2553 91 49.834 93.3615 49.834 96.3072H51.834C51.834 94.4954 53.3303 93 55.209 93V91ZM60.584 97.4819C60.584 96.0485 60.0066 94.4741 59.1073 93.2552C58.2163 92.0475 56.8598 91 55.209 91V93C55.9745 93 56.8055 93.504 57.4979 94.4426C58.1821 95.3699 58.584 96.5366 58.584 97.4819H60.584Z" fill="#453B3B"/>
<path d="M319.216 539.899C319.216 535.627 321.352 532.493 325.624 530.498C320.279 528.673 317.607 525.295 317.607 520.364C317.607 517.824 318.294 515.565 319.668 513.589C321.023 511.632 322.914 510.117 325.342 509.044C327.77 507.972 330.508 507.435 333.556 507.435C343.738 507.435 349.195 512.074 349.929 521.352L340.67 522.114C340.632 517.146 338.591 514.662 334.544 514.662C332.681 514.662 331.166 515.245 330 516.412C328.833 517.579 328.249 519.019 328.249 520.731C328.249 522.5 328.87 523.93 330.113 525.022C331.336 526.132 333.077 526.688 335.335 526.688C335.692 526.688 336.483 526.64 337.706 526.546V534.309C335.09 534.347 333.048 534.808 331.58 535.693C330.113 536.577 329.379 537.847 329.379 539.503C329.379 540.821 329.877 541.893 330.875 542.722C331.853 543.55 333.095 543.964 334.601 543.964C337.988 543.964 339.682 542.072 339.682 538.29L348.631 539.052C348.33 542.91 346.88 545.911 344.283 548.057C341.686 550.221 338.261 551.303 334.008 551.303C329.51 551.303 325.925 550.277 323.253 548.226C320.562 546.194 319.216 543.418 319.216 539.899Z" fill="#1A1616"/>
<path fill-rule="evenodd" clip-rule="evenodd" d="M332.416 482.518C332.416 484.897 330.457 488 328.041 488C325.625 488 323.666 486.072 323.666 483.693C323.666 480.864 327.14 477.297 329.904 474.46C330.825 473.515 331.667 472.65 332.275 471.921C331.496 472.306 330.588 472.815 329.609 473.363C326.154 475.298 321.809 477.731 319.076 476.999C316.779 476.383 315.423 473.992 316.048 471.658C316.674 469.324 320.178 468.235 322.476 468.851C320.178 468.235 317.688 465.54 318.313 463.206C318.938 460.873 321.308 459.48 323.606 460.095C326.338 460.828 328.884 465.107 330.91 468.511C331.27 469.117 331.614 469.695 331.939 470.22C331.58 468.168 331.382 466.135 331.192 464.177C330.705 459.18 330.267 454.681 327.321 451.653C326.012 450.307 329.525 448.961 332.416 448.961C335.287 448.961 338.837 450.307 337.528 451.653C334.192 455.083 333.689 460.559 333.179 466.123C333.045 467.585 332.91 469.053 332.723 470.491C333.098 469.896 333.499 469.223 333.922 468.511C335.948 465.107 338.493 460.828 341.226 460.095C343.524 459.48 345.894 460.873 346.519 463.206C347.144 465.54 344.654 468.235 342.356 468.851C344.654 468.235 348.158 469.324 348.784 471.658C349.409 473.992 348.053 476.383 345.755 476.999C343.023 477.731 338.678 475.298 335.222 473.363C334.244 472.815 333.336 472.306 332.556 471.921C333.165 472.65 334.007 473.514 334.927 474.46L334.928 474.46C337.691 477.297 341.166 480.864 341.166 483.693C341.166 486.072 339.207 488 336.791 488C334.375 488 332.416 484.897 332.416 482.518Z" fill="#453B3B"/>
<path d="M333.416 482.518C333.416 481.966 332.968 481.518 332.416 481.518C331.864 481.518 331.416 481.966 331.416 482.518H333.416ZM329.904 474.46L330.621 475.158L329.904 474.46ZM332.275 471.921L333.043 472.562C333.346 472.199 333.353 471.674 333.061 471.302C332.769 470.931 332.256 470.815 331.833 471.025L332.275 471.921ZM329.609 473.363L329.121 472.49L329.609 473.363ZM319.076 476.999L319.335 476.033L319.076 476.999ZM316.048 471.658L317.014 471.917L316.048 471.658ZM322.217 469.817C322.75 469.96 323.299 469.643 323.442 469.11C323.585 468.577 323.268 468.028 322.735 467.885L322.217 469.817ZM318.313 463.206L317.347 462.948L318.313 463.206ZM323.606 460.095L323.865 459.129L323.606 460.095ZM330.91 468.511L330.05 469.022L330.91 468.511ZM331.939 470.22L331.089 470.747C331.342 471.154 331.848 471.325 332.295 471.155C332.743 470.984 333.007 470.52 332.925 470.048L331.939 470.22ZM331.192 464.177L332.187 464.081L331.192 464.177ZM327.321 451.653L326.604 452.351L327.321 451.653ZM337.528 451.653L338.244 452.351L337.528 451.653ZM333.179 466.123L334.175 466.214L333.179 466.123ZM332.723 470.491L331.732 470.362C331.671 470.828 331.943 471.273 332.384 471.432C332.826 471.591 333.319 471.421 333.569 471.024L332.723 470.491ZM333.922 468.511L334.782 469.022L333.922 468.511ZM341.226 460.095L340.967 459.129H340.967L341.226 460.095ZM346.519 463.206L345.553 463.465L346.519 463.206ZM342.097 467.885C341.564 468.028 341.247 468.577 341.39 469.11C341.533 469.643 342.082 469.96 342.615 469.817L342.097 467.885ZM348.784 471.658L347.818 471.917H347.818L348.784 471.658ZM345.755 476.999L345.497 476.033H345.497L345.755 476.999ZM335.222 473.363L334.734 474.235L335.222 473.363ZM332.556 471.921L332.999 471.025C332.576 470.815 332.063 470.931 331.771 471.302C331.478 471.674 331.486 472.199 331.789 472.562L332.556 471.921ZM334.927 474.46L335.667 473.787C335.66 473.779 335.652 473.77 335.644 473.762L334.927 474.46ZM334.928 474.46L334.188 475.132C334.195 475.141 334.203 475.149 334.211 475.158L334.928 474.46ZM328.041 489C329.692 489 331.048 487.952 331.939 486.745C332.839 485.526 333.416 483.952 333.416 482.518H331.416C331.416 483.463 331.014 484.63 330.33 485.557C329.637 486.496 328.806 487 328.041 487V489ZM322.666 483.693C322.666 486.639 325.087 489 328.041 489V487C326.162 487 324.666 485.505 324.666 483.693H322.666ZM329.188 473.762C327.816 475.171 326.21 476.817 324.952 478.475C323.725 480.092 322.666 481.923 322.666 483.693H324.666C324.666 482.634 325.344 481.266 326.545 479.684C327.715 478.142 329.229 476.586 330.621 475.158L329.188 473.762ZM331.508 471.281C330.93 471.973 330.119 472.807 329.188 473.762L330.621 475.158C331.532 474.222 332.405 473.327 333.043 472.562L331.508 471.281ZM330.098 474.235C331.084 473.683 331.967 473.189 332.718 472.818L331.833 471.025C331.025 471.424 330.093 471.946 329.121 472.49L330.098 474.235ZM318.818 477.965C320.528 478.423 322.57 477.874 324.449 477.107C326.377 476.321 328.382 475.196 330.098 474.235L329.121 472.49C327.381 473.465 325.486 474.524 323.694 475.255C321.855 476.006 320.358 476.307 319.335 476.033L318.818 477.965ZM315.082 471.399C314.318 474.253 315.972 477.203 318.818 477.965L319.335 476.033C317.585 475.564 316.528 473.732 317.014 471.917L315.082 471.399ZM322.735 467.885C321.35 467.514 319.68 467.665 318.27 468.218C316.873 468.766 315.51 469.805 315.082 471.399L317.014 471.917C317.212 471.178 317.914 470.505 319 470.08C320.073 469.659 321.304 469.572 322.217 469.817L322.735 467.885ZM317.347 462.948C316.92 464.542 317.581 466.124 318.516 467.297C319.461 468.481 320.832 469.446 322.217 469.817L322.735 467.885C321.821 467.641 320.799 466.95 320.08 466.05C319.353 465.138 319.081 464.205 319.279 463.465L317.347 462.948ZM323.865 459.129C321.019 458.367 318.112 460.094 317.347 462.948L319.279 463.465C319.765 461.651 321.597 460.592 323.347 461.061L323.865 459.129ZM331.769 468C330.763 466.309 329.589 464.333 328.313 462.688C327.068 461.084 325.574 459.588 323.865 459.129L323.347 461.061C324.37 461.335 325.515 462.345 326.733 463.914C327.919 465.443 329.031 467.308 330.05 469.022L331.769 468ZM332.79 469.694C332.47 469.177 332.13 468.607 331.769 468L330.05 469.022C330.409 469.626 330.758 470.212 331.089 470.747L332.79 469.694ZM330.196 464.274C330.387 466.226 330.588 468.297 330.954 470.393L332.925 470.048C332.573 468.04 332.378 466.043 332.187 464.081L330.196 464.274ZM326.604 452.351C327.914 453.697 328.697 455.398 329.209 457.422C329.726 459.463 329.951 461.757 330.196 464.274L332.187 464.081C331.945 461.6 331.709 459.146 331.148 456.931C330.583 454.7 329.674 452.638 328.038 450.956L326.604 452.351ZM332.416 447.961C330.847 447.961 329.097 448.321 327.869 448.897C327.281 449.173 326.65 449.572 326.302 450.148C326.112 450.463 325.993 450.856 326.056 451.292C326.117 451.721 326.335 452.074 326.604 452.351L328.038 450.956C327.98 450.896 328.022 450.913 328.036 451.01C328.051 451.115 328.014 451.182 328.014 451.182C328.048 451.126 328.23 450.937 328.718 450.708C329.642 450.275 331.094 449.961 332.416 449.961V447.961ZM338.244 452.351C338.514 452.073 338.734 451.718 338.793 451.287C338.853 450.848 338.73 450.455 338.538 450.142C338.186 449.569 337.552 449.171 336.962 448.896C335.729 448.321 333.976 447.961 332.416 447.961V449.961C333.727 449.961 335.185 450.274 336.117 450.709C336.61 450.939 336.797 451.13 336.833 451.188C336.834 451.19 336.796 451.123 336.811 451.016C336.825 450.916 336.868 450.897 336.811 450.956L338.244 452.351ZM334.175 466.214C334.431 463.416 334.68 460.732 335.265 458.324C335.849 455.925 336.748 453.889 338.244 452.351L336.811 450.956C334.971 452.847 333.951 455.264 333.322 457.851C332.695 460.43 332.437 463.266 332.183 466.031L334.175 466.214ZM333.715 470.62C333.905 469.16 334.041 467.673 334.175 466.214L332.183 466.031C332.049 467.497 331.916 468.946 331.732 470.362L333.715 470.62ZM333.063 468C332.638 468.714 332.244 469.376 331.877 469.958L333.569 471.024C333.952 470.416 334.36 469.731 334.782 469.022L333.063 468ZM340.967 459.129C339.257 459.588 337.763 461.084 336.519 462.688C335.243 464.333 334.069 466.309 333.063 468L334.782 469.022C335.801 467.308 336.913 465.443 338.099 463.914C339.317 462.345 340.462 461.335 341.485 461.061L340.967 459.129ZM347.485 462.948C346.72 460.094 343.813 458.367 340.967 459.129L341.485 461.061C343.235 460.592 345.067 461.651 345.553 463.465L347.485 462.948ZM342.615 469.817C344 469.446 345.371 468.481 346.315 467.297C347.251 466.124 347.912 464.542 347.485 462.948L345.553 463.465C345.751 464.205 345.479 465.138 344.752 466.05C344.033 466.95 343.01 467.641 342.097 467.885L342.615 469.817ZM349.75 471.399C349.322 469.805 347.959 468.766 346.562 468.218C345.152 467.665 343.482 467.514 342.097 467.885L342.615 469.817C343.528 469.572 344.759 469.659 345.832 470.08C346.918 470.505 347.62 471.178 347.818 471.917L349.75 471.399ZM346.014 477.965C348.86 477.203 350.514 474.253 349.75 471.399L347.818 471.917C348.304 473.732 347.247 475.564 345.497 476.033L346.014 477.965ZM334.734 474.235C336.45 475.196 338.455 476.321 340.382 477.107C342.262 477.874 344.304 478.423 346.014 477.965L345.497 476.033C344.474 476.307 342.977 476.006 341.138 475.255C339.346 474.524 337.451 473.465 335.711 472.49L334.734 474.235ZM332.113 472.818C332.865 473.189 333.748 473.683 334.734 474.235L335.711 472.49C334.739 471.946 333.807 471.424 332.999 471.025L332.113 472.818ZM335.644 473.762C334.713 472.807 333.902 471.973 333.324 471.281L331.789 472.562C332.427 473.327 333.3 474.222 334.211 475.158L335.644 473.762ZM335.667 473.787L335.667 473.787L334.188 475.132L334.188 475.132L335.667 473.787ZM342.166 483.693C342.166 481.923 341.107 480.092 339.88 478.475C338.622 476.817 337.016 475.171 335.644 473.762L334.211 475.158C335.603 476.586 337.117 478.142 338.287 479.684C339.488 481.266 340.166 482.634 340.166 483.693H342.166ZM336.791 489C339.745 489 342.166 486.639 342.166 483.693H340.166C340.166 485.505 338.67 487 336.791 487V489ZM331.416 482.518C331.416 483.952 331.993 485.526 332.893 486.745C333.784 487.952 335.14 489 336.791 489V487C336.025 487 335.194 486.496 334.502 485.557C333.818 484.63 333.416 483.463 333.416 482.518H331.416Z" fill="#453B3B"/>
</g>
<path d="M28.3239 6H362.676V4H28.3239V6ZM379 22.3239V557.676H381V22.3239H379ZM362.676 574H28.3239V576H362.676V574ZM12 557.676V22.324H10V557.676H12ZM28.3239 574C19.3085 574 12 566.692 12 557.676H10C10 567.796 18.2039 576 28.3239 576V574ZM379 557.676C379 566.691 371.692 574 362.676 574V576C372.796 576 381 567.796 381 557.676H379ZM362.676 6C371.692 6 379 13.3085 379 22.3239H381C381 12.2039 372.796 4 362.676 4V6ZM28.3239 4C18.2039 4 10 12.2039 10 22.324H12C12 13.3085 19.3085 6 28.3239 6V4Z" fill="#D9D8D8"/>
</g>
<path fill-rule="evenodd" clip-rule="evenodd" d="M195.584 275.482C195.584 273.103 197.543 270 199.959 270C202.375 270 204.334 271.928 204.334 274.307C204.334 277.136 200.86 280.703 198.096 283.54C197.175 284.485 196.333 285.35 195.725 286.079C196.504 285.694 197.412 285.185 198.391 284.637C201.846 282.702 206.191 280.269 208.924 281.001C211.221 281.617 212.577 284.008 211.952 286.342C211.326 288.676 207.822 289.765 205.524 289.149C207.822 289.765 210.312 292.46 209.687 294.794C209.062 297.127 206.692 298.52 204.394 297.905C201.662 297.172 199.116 292.893 197.09 289.489C196.73 288.883 196.386 288.305 196.061 287.78C196.42 289.832 196.618 291.865 196.808 293.823C197.295 298.82 197.733 303.319 200.679 306.347C201.988 307.693 198.475 309.039 195.584 309.039C192.713 309.039 189.163 307.693 190.472 306.347C193.808 302.917 194.311 297.441 194.821 291.877C194.955 290.415 195.09 288.947 195.277 287.509C194.902 288.104 194.501 288.777 194.078 289.489C192.052 292.893 189.507 297.172 186.774 297.905C184.476 298.52 182.106 297.127 181.481 294.794C180.856 292.46 183.346 289.765 185.644 289.149C183.346 289.765 179.842 288.676 179.216 286.342C178.591 284.008 179.947 281.617 182.245 281.001C184.977 280.269 189.322 282.702 192.778 284.637C193.756 285.185 194.664 285.694 195.444 286.079C194.835 285.35 193.993 284.486 193.073 283.54L193.072 283.54C190.309 280.703 186.834 277.136 186.834 274.307C186.834 271.928 188.793 270 191.209 270C193.625 270 195.584 273.103 195.584 275.482Z" fill="#453B3B"/>
<path d="M194.584 275.482C194.584 276.034 195.032 276.482 195.584 276.482C196.136 276.482 196.584 276.034 196.584 275.482H194.584ZM198.096 283.54L197.379 282.842L198.096 283.54ZM195.725 286.079L194.957 285.438C194.654 285.801 194.647 286.326 194.939 286.698C195.231 287.069 195.744 287.185 196.167 286.975L195.725 286.079ZM198.391 284.637L198.879 285.51L198.391 284.637ZM208.924 281.001L208.665 281.967L208.924 281.001ZM211.952 286.342L210.986 286.083L211.952 286.342ZM205.783 288.183C205.25 288.04 204.701 288.357 204.558 288.89C204.415 289.423 204.732 289.972 205.265 290.115L205.783 288.183ZM209.687 294.794L210.653 295.052L209.687 294.794ZM204.394 297.905L204.135 298.871L204.394 297.905ZM197.09 289.489L197.95 288.978L197.09 289.489ZM196.061 287.78L196.911 287.253C196.658 286.846 196.152 286.675 195.705 286.845C195.257 287.016 194.993 287.48 195.075 287.952L196.061 287.78ZM196.808 293.823L195.813 293.919L196.808 293.823ZM200.679 306.347L201.396 305.649L200.679 306.347ZM190.472 306.347L189.756 305.649L190.472 306.347ZM194.821 291.877L193.825 291.786L194.821 291.877ZM195.277 287.509L196.268 287.638C196.329 287.172 196.057 286.727 195.616 286.568C195.174 286.409 194.681 286.579 194.431 286.976L195.277 287.509ZM194.078 289.489L193.218 288.978L194.078 289.489ZM186.774 297.905L187.033 298.871H187.033L186.774 297.905ZM181.481 294.794L182.447 294.535L181.481 294.794ZM185.903 290.115C186.436 289.972 186.753 289.423 186.61 288.89C186.467 288.357 185.918 288.04 185.385 288.183L185.903 290.115ZM179.216 286.342L180.182 286.083H180.182L179.216 286.342ZM182.245 281.001L182.503 281.967H182.503L182.245 281.001ZM192.778 284.637L193.266 283.765L192.778 284.637ZM195.444 286.079L195.001 286.975C195.424 287.185 195.937 287.069 196.229 286.698C196.522 286.326 196.514 285.801 196.211 285.438L195.444 286.079ZM193.073 283.54L192.333 284.213C192.34 284.221 192.348 284.23 192.356 284.238L193.073 283.54ZM193.072 283.54L193.812 282.868C193.805 282.859 193.797 282.851 193.789 282.842L193.072 283.54ZM199.959 269C198.308 269 196.952 270.048 196.061 271.255C195.161 272.474 194.584 274.048 194.584 275.482H196.584C196.584 274.537 196.986 273.37 197.67 272.443C198.363 271.504 199.194 271 199.959 271V269ZM205.334 274.307C205.334 271.361 202.913 269 199.959 269V271C201.838 271 203.334 272.495 203.334 274.307H205.334ZM198.812 284.238C200.184 282.829 201.79 281.183 203.048 279.525C204.275 277.908 205.334 276.077 205.334 274.307H203.334C203.334 275.366 202.656 276.734 201.455 278.316C200.285 279.858 198.771 281.414 197.379 282.842L198.812 284.238ZM196.492 286.719C197.07 286.027 197.881 285.193 198.812 284.238L197.379 282.842C196.468 283.778 195.595 284.673 194.957 285.438L196.492 286.719ZM197.902 283.765C196.916 284.317 196.033 284.811 195.282 285.182L196.167 286.975C196.975 286.576 197.907 286.054 198.879 285.51L197.902 283.765ZM209.182 280.035C207.472 279.577 205.43 280.126 203.551 280.893C201.623 281.679 199.618 282.804 197.902 283.765L198.879 285.51C200.619 284.535 202.514 283.476 204.306 282.745C206.145 281.994 207.642 281.693 208.665 281.967L209.182 280.035ZM212.918 286.601C213.682 283.747 212.028 280.797 209.182 280.035L208.665 281.967C210.415 282.436 211.472 284.268 210.986 286.083L212.918 286.601ZM205.265 290.115C206.65 290.486 208.32 290.335 209.73 289.782C211.127 289.234 212.49 288.195 212.918 286.601L210.986 286.083C210.788 286.822 210.086 287.495 209 287.92C207.927 288.341 206.696 288.428 205.783 288.183L205.265 290.115ZM210.653 295.052C211.08 293.458 210.419 291.876 209.484 290.703C208.539 289.519 207.168 288.554 205.783 288.183L205.265 290.115C206.179 290.359 207.201 291.05 207.92 291.95C208.647 292.862 208.919 293.795 208.721 294.535L210.653 295.052ZM204.135 298.871C206.981 299.633 209.888 297.906 210.653 295.052L208.721 294.535C208.235 296.349 206.403 297.408 204.653 296.939L204.135 298.871ZM196.231 290C197.237 291.691 198.411 293.667 199.687 295.312C200.932 296.916 202.426 298.412 204.135 298.871L204.653 296.939C203.63 296.665 202.485 295.655 201.267 294.086C200.081 292.557 198.969 290.692 197.95 288.978L196.231 290ZM195.21 288.306C195.53 288.823 195.87 289.393 196.231 290L197.95 288.978C197.591 288.374 197.242 287.788 196.911 287.253L195.21 288.306ZM197.804 293.726C197.613 291.774 197.412 289.703 197.046 287.607L195.075 287.952C195.427 289.96 195.622 291.957 195.813 293.919L197.804 293.726ZM201.396 305.649C200.086 304.303 199.303 302.602 198.791 300.578C198.274 298.537 198.049 296.243 197.804 293.726L195.813 293.919C196.055 296.4 196.291 298.854 196.852 301.069C197.417 303.3 198.326 305.362 199.962 307.044L201.396 305.649ZM195.584 310.039C197.153 310.039 198.903 309.679 200.131 309.103C200.719 308.827 201.35 308.428 201.698 307.852C201.888 307.537 202.007 307.144 201.944 306.708C201.883 306.279 201.665 305.926 201.396 305.649L199.962 307.044C200.02 307.104 199.978 307.087 199.964 306.99C199.949 306.885 199.986 306.818 199.986 306.818C199.952 306.874 199.77 307.063 199.282 307.292C198.358 307.725 196.906 308.039 195.584 308.039V310.039ZM189.756 305.649C189.486 305.927 189.266 306.282 189.207 306.713C189.147 307.152 189.27 307.545 189.462 307.858C189.814 308.431 190.448 308.829 191.038 309.104C192.271 309.679 194.024 310.039 195.584 310.039V308.039C194.273 308.039 192.815 307.726 191.883 307.291C191.39 307.061 191.203 306.87 191.167 306.812C191.166 306.81 191.204 306.877 191.189 306.984C191.175 307.084 191.132 307.103 191.189 307.044L189.756 305.649ZM193.825 291.786C193.569 294.584 193.32 297.268 192.735 299.676C192.151 302.075 191.252 304.111 189.756 305.649L191.189 307.044C193.029 305.153 194.049 302.736 194.678 300.149C195.305 297.57 195.563 294.734 195.817 291.969L193.825 291.786ZM194.285 287.38C194.095 288.84 193.959 290.327 193.825 291.786L195.817 291.969C195.951 290.503 196.084 289.054 196.268 287.638L194.285 287.38ZM194.937 290C195.362 289.286 195.756 288.624 196.123 288.042L194.431 286.976C194.048 287.584 193.64 288.269 193.218 288.978L194.937 290ZM187.033 298.871C188.743 298.412 190.237 296.916 191.481 295.312C192.757 293.667 193.931 291.691 194.937 290L193.218 288.978C192.199 290.692 191.087 292.557 189.901 294.086C188.683 295.655 187.538 296.665 186.515 296.939L187.033 298.871ZM180.515 295.052C181.28 297.906 184.187 299.633 187.033 298.871L186.515 296.939C184.765 297.408 182.933 296.349 182.447 294.535L180.515 295.052ZM185.385 288.183C184 288.554 182.629 289.519 181.685 290.703C180.749 291.876 180.088 293.458 180.515 295.052L182.447 294.535C182.249 293.795 182.521 292.862 183.248 291.95C183.967 291.05 184.99 290.359 185.903 290.115L185.385 288.183ZM178.25 286.601C178.678 288.195 180.041 289.234 181.438 289.782C182.848 290.335 184.518 290.486 185.903 290.115L185.385 288.183C184.472 288.428 183.241 288.341 182.168 287.92C181.082 287.495 180.38 286.822 180.182 286.083L178.25 286.601ZM181.986 280.035C179.14 280.797 177.486 283.747 178.25 286.601L180.182 286.083C179.696 284.268 180.753 282.436 182.503 281.967L181.986 280.035ZM193.266 283.765C191.55 282.804 189.545 281.679 187.618 280.893C185.738 280.126 183.696 279.577 181.986 280.035L182.503 281.967C183.526 281.693 185.023 281.994 186.862 282.745C188.654 283.476 190.549 284.535 192.289 285.51L193.266 283.765ZM195.887 285.182C195.135 284.811 194.252 284.317 193.266 283.765L192.289 285.51C193.261 286.054 194.193 286.576 195.001 286.975L195.887 285.182ZM192.356 284.238C193.287 285.193 194.098 286.027 194.676 286.719L196.211 285.438C195.573 284.673 194.7 283.778 193.789 282.842L192.356 284.238ZM192.333 284.213L192.333 284.213L193.812 282.868L193.812 282.868L192.333 284.213ZM185.834 274.307C185.834 276.077 186.893 277.908 188.12 279.525C189.378 281.183 190.984 282.829 192.356 284.238L193.789 282.842C192.397 281.414 190.883 279.858 189.713 278.316C188.512 276.734 187.834 275.366 187.834 274.307H185.834ZM191.209 269C188.255 269 185.834 271.361 185.834 274.307H187.834C187.834 272.495 189.33 271 191.209 271V269ZM196.584 275.482C196.584 274.048 196.007 272.474 195.107 271.255C194.216 270.048 192.86 269 191.209 269V271C191.975 271 192.806 271.504 193.498 272.443C194.182 273.37 194.584 274.537 194.584 275.482H196.584Z" fill="#453B3B"/>
<path fill-rule="evenodd" clip-rule="evenodd" d="M195.584 394.018C195.584 396.397 197.543 399.5 199.959 399.5C202.375 399.5 204.334 397.572 204.334 395.193C204.334 392.364 200.86 388.797 198.096 385.96C197.175 385.015 196.333 384.15 195.725 383.421C196.504 383.806 197.412 384.315 198.391 384.863C201.846 386.798 206.191 389.231 208.924 388.499C211.221 387.883 212.577 385.492 211.952 383.158C211.326 380.824 207.822 379.735 205.524 380.351C207.822 379.735 210.312 377.04 209.687 374.706C209.062 372.373 206.692 370.98 204.394 371.595C201.662 372.328 199.116 376.607 197.09 380.011C196.73 380.617 196.386 381.195 196.061 381.72C196.42 379.668 196.618 377.635 196.808 375.677C197.295 370.68 197.733 366.181 200.679 363.153C201.988 361.807 198.475 360.461 195.584 360.461C192.713 360.461 189.163 361.807 190.472 363.153C193.808 366.583 194.311 372.059 194.821 377.623C194.955 379.085 195.09 380.553 195.277 381.991C194.902 381.396 194.501 380.723 194.078 380.011C192.052 376.607 189.507 372.328 186.774 371.595C184.476 370.98 182.106 372.373 181.481 374.706C180.856 377.04 183.346 379.735 185.644 380.351C183.346 379.735 179.842 380.824 179.216 383.158C178.591 385.492 179.947 387.883 182.245 388.499C184.977 389.231 189.322 386.798 192.778 384.863C193.756 384.315 194.664 383.806 195.444 383.421C194.835 384.15 193.993 385.014 193.073 385.96L193.072 385.96C190.309 388.797 186.834 392.364 186.834 395.193C186.834 397.572 188.793 399.5 191.209 399.5C193.625 399.5 195.584 396.397 195.584 394.018Z" fill="#453B3B"/>
<path d="M194.584 394.018C194.584 393.466 195.032 393.018 195.584 393.018C196.136 393.018 196.584 393.466 196.584 394.018H194.584ZM198.096 385.96L197.379 386.658L198.096 385.96ZM195.725 383.421L194.957 384.062C194.654 383.699 194.647 383.174 194.939 382.802C195.231 382.431 195.744 382.315 196.167 382.525L195.725 383.421ZM198.391 384.863L198.879 383.99L198.391 384.863ZM208.924 388.499L208.665 387.533L208.924 388.499ZM211.952 383.158L210.986 383.417L211.952 383.158ZM205.783 381.317C205.25 381.46 204.701 381.143 204.558 380.61C204.415 380.077 204.732 379.528 205.265 379.385L205.783 381.317ZM209.687 374.706L210.653 374.448L209.687 374.706ZM204.394 371.595L204.135 370.629L204.394 371.595ZM197.09 380.011L197.95 380.522L197.09 380.011ZM196.061 381.72L196.911 382.247C196.658 382.654 196.152 382.825 195.705 382.655C195.257 382.484 194.993 382.02 195.075 381.548L196.061 381.72ZM196.808 375.677L195.813 375.581L196.808 375.677ZM200.679 363.153L201.396 363.851L200.679 363.153ZM190.472 363.153L189.756 363.851L190.472 363.153ZM194.821 377.623L193.825 377.714L194.821 377.623ZM195.277 381.991L196.268 381.862C196.329 382.328 196.057 382.773 195.616 382.932C195.174 383.091 194.681 382.921 194.431 382.524L195.277 381.991ZM194.078 380.011L193.218 380.522L194.078 380.011ZM186.774 371.595L187.033 370.629H187.033L186.774 371.595ZM181.481 374.706L182.447 374.965L181.481 374.706ZM185.903 379.385C186.436 379.528 186.753 380.077 186.61 380.61C186.467 381.143 185.918 381.46 185.385 381.317L185.903 379.385ZM179.216 383.158L180.182 383.417H180.182L179.216 383.158ZM182.245 388.499L182.503 387.533H182.503L182.245 388.499ZM192.778 384.863L193.266 385.735L192.778 384.863ZM195.444 383.421L195.001 382.525C195.424 382.315 195.937 382.431 196.229 382.802C196.522 383.174 196.514 383.699 196.211 384.062L195.444 383.421ZM193.073 385.96L192.333 385.287C192.34 385.279 192.348 385.27 192.356 385.262L193.073 385.96ZM193.072 385.96L193.812 386.632C193.805 386.641 193.797 386.649 193.789 386.658L193.072 385.96ZM199.959 400.5C198.308 400.5 196.952 399.452 196.061 398.245C195.161 397.026 194.584 395.452 194.584 394.018H196.584C196.584 394.963 196.986 396.13 197.67 397.057C198.363 397.996 199.194 398.5 199.959 398.5V400.5ZM205.334 395.193C205.334 398.139 202.913 400.5 199.959 400.5V398.5C201.838 398.5 203.334 397.005 203.334 395.193H205.334ZM198.812 385.262C200.184 386.671 201.79 388.317 203.048 389.975C204.275 391.592 205.334 393.423 205.334 395.193H203.334C203.334 394.134 202.656 392.766 201.455 391.184C200.285 389.642 198.771 388.086 197.379 386.658L198.812 385.262ZM196.492 382.781C197.07 383.473 197.881 384.307 198.812 385.262L197.379 386.658C196.468 385.722 195.595 384.827 194.957 384.062L196.492 382.781ZM197.902 385.735C196.916 385.183 196.033 384.689 195.282 384.318L196.167 382.525C196.975 382.924 197.907 383.446 198.879 383.99L197.902 385.735ZM209.182 389.465C207.472 389.923 205.43 389.374 203.551 388.607C201.623 387.821 199.618 386.696 197.902 385.735L198.879 383.99C200.619 384.965 202.514 386.024 204.306 386.755C206.145 387.506 207.642 387.807 208.665 387.533L209.182 389.465ZM212.918 382.899C213.682 385.753 212.028 388.703 209.182 389.465L208.665 387.533C210.415 387.064 211.472 385.232 210.986 383.417L212.918 382.899ZM205.265 379.385C206.65 379.014 208.32 379.165 209.73 379.718C211.127 380.266 212.49 381.305 212.918 382.899L210.986 383.417C210.788 382.678 210.086 382.005 209 381.58C207.927 381.159 206.696 381.072 205.783 381.317L205.265 379.385ZM210.653 374.448C211.08 376.042 210.419 377.624 209.484 378.797C208.539 379.981 207.168 380.946 205.783 381.317L205.265 379.385C206.179 379.141 207.201 378.45 207.92 377.55C208.647 376.638 208.919 375.705 208.721 374.965L210.653 374.448ZM204.135 370.629C206.981 369.867 209.888 371.594 210.653 374.448L208.721 374.965C208.235 373.151 206.403 372.092 204.653 372.561L204.135 370.629ZM196.231 379.5C197.237 377.809 198.411 375.833 199.687 374.188C200.932 372.584 202.426 371.088 204.135 370.629L204.653 372.561C203.63 372.835 202.485 373.845 201.267 375.414C200.081 376.943 198.969 378.808 197.95 380.522L196.231 379.5ZM195.21 381.194C195.53 380.677 195.87 380.107 196.231 379.5L197.95 380.522C197.591 381.126 197.242 381.712 196.911 382.247L195.21 381.194ZM197.804 375.774C197.613 377.726 197.412 379.797 197.046 381.893L195.075 381.548C195.427 379.54 195.622 377.543 195.813 375.581L197.804 375.774ZM201.396 363.851C200.086 365.197 199.303 366.898 198.791 368.922C198.274 370.963 198.049 373.257 197.804 375.774L195.813 375.581C196.055 373.1 196.291 370.646 196.852 368.431C197.417 366.2 198.326 364.138 199.962 362.456L201.396 363.851ZM195.584 359.461C197.153 359.461 198.903 359.821 200.131 360.397C200.719 360.673 201.35 361.072 201.698 361.648C201.888 361.963 202.007 362.356 201.944 362.792C201.883 363.221 201.665 363.574 201.396 363.851L199.962 362.456C200.02 362.396 199.978 362.413 199.964 362.51C199.949 362.615 199.986 362.682 199.986 362.682C199.952 362.626 199.77 362.437 199.282 362.208C198.358 361.775 196.906 361.461 195.584 361.461V359.461ZM189.756 363.851C189.486 363.573 189.266 363.218 189.207 362.787C189.147 362.348 189.27 361.955 189.462 361.642C189.814 361.069 190.448 360.671 191.038 360.396C192.271 359.821 194.024 359.461 195.584 359.461V361.461C194.273 361.461 192.815 361.774 191.883 362.209C191.39 362.439 191.203 362.63 191.167 362.688C191.166 362.69 191.204 362.623 191.189 362.516C191.175 362.416 191.132 362.397 191.189 362.456L189.756 363.851ZM193.825 377.714C193.569 374.916 193.32 372.232 192.735 369.824C192.151 367.425 191.252 365.389 189.756 363.851L191.189 362.456C193.029 364.347 194.049 366.764 194.678 369.351C195.305 371.93 195.563 374.766 195.817 377.531L193.825 377.714ZM194.285 382.12C194.095 380.66 193.959 379.173 193.825 377.714L195.817 377.531C195.951 378.997 196.084 380.446 196.268 381.862L194.285 382.12ZM194.937 379.5C195.362 380.214 195.756 380.876 196.123 381.458L194.431 382.524C194.048 381.916 193.64 381.231 193.218 380.522L194.937 379.5ZM187.033 370.629C188.743 371.088 190.237 372.584 191.481 374.188C192.757 375.833 193.931 377.809 194.937 379.5L193.218 380.522C192.199 378.808 191.087 376.943 189.901 375.414C188.683 373.845 187.538 372.835 186.515 372.561L187.033 370.629ZM180.515 374.448C181.28 371.594 184.187 369.867 187.033 370.629L186.515 372.561C184.765 372.092 182.933 373.151 182.447 374.965L180.515 374.448ZM185.385 381.317C184 380.946 182.629 379.981 181.685 378.797C180.749 377.624 180.088 376.042 180.515 374.448L182.447 374.965C182.249 375.705 182.521 376.638 183.248 377.55C183.967 378.45 184.99 379.141 185.903 379.385L185.385 381.317ZM178.25 382.899C178.678 381.305 180.041 380.266 181.438 379.718C182.848 379.165 184.518 379.014 185.903 379.385L185.385 381.317C184.472 381.072 183.241 381.159 182.168 381.58C181.082 382.005 180.38 382.678 180.182 383.417L178.25 382.899ZM181.986 389.465C179.14 388.703 177.486 385.753 178.25 382.899L180.182 383.417C179.696 385.232 180.753 387.064 182.503 387.533L181.986 389.465ZM193.266 385.735C191.55 386.696 189.545 387.821 187.618 388.607C185.738 389.374 183.696 389.923 181.986 389.465L182.503 387.533C183.526 387.807 185.023 387.506 186.862 386.755C188.654 386.024 190.549 384.965 192.289 383.99L193.266 385.735ZM195.887 384.318C195.135 384.689 194.252 385.183 193.266 385.735L192.289 383.99C193.261 383.446 194.193 382.924 195.001 382.525L195.887 384.318ZM192.356 385.262C193.287 384.307 194.098 383.473 194.676 382.781L196.211 384.062C195.573 384.827 194.7 385.722 193.789 386.658L192.356 385.262ZM192.333 385.287L192.333 385.287L193.812 386.632L193.812 386.632L192.333 385.287ZM185.834 395.193C185.834 393.423 186.893 391.592 188.12 389.975C189.378 388.317 190.984 386.671 192.356 385.262L193.789 386.658C192.397 388.086 190.883 389.642 189.713 391.184C188.512 392.766 187.834 394.134 187.834 395.193H185.834ZM191.209 400.5C188.255 400.5 185.834 398.139 185.834 395.193H187.834C187.834 397.005 189.33 398.5 191.209 398.5V400.5ZM196.584 394.018C196.584 395.452 196.007 397.026 195.107 398.245C194.216 399.452 192.86 400.5 191.209 400.5V398.5C191.975 398.5 192.806 397.996 193.498 397.057C194.182 396.13 194.584 394.963 194.584 394.018H196.584Z" fill="#453B3B"/>
<path fill-rule="evenodd" clip-rule="evenodd" d="M195.584 185.482C195.584 183.103 197.543 180 199.959 180C202.375 180 204.334 181.928 204.334 184.307C204.334 187.136 200.86 190.703 198.096 193.54C197.175 194.485 196.333 195.35 195.725 196.079C196.504 195.694 197.412 195.185 198.391 194.637C201.846 192.702 206.191 190.269 208.924 191.001C211.221 191.617 212.577 194.008 211.952 196.342C211.326 198.676 207.822 199.765 205.524 199.149C207.822 199.765 210.312 202.46 209.687 204.794C209.062 207.127 206.692 208.52 204.394 207.905C201.662 207.172 199.116 202.893 197.09 199.489C196.73 198.883 196.386 198.305 196.061 197.78C196.42 199.832 196.618 201.865 196.808 203.823C197.295 208.82 197.733 213.319 200.679 216.347C201.988 217.693 198.475 219.039 195.584 219.039C192.713 219.039 189.163 217.693 190.472 216.347C193.808 212.917 194.311 207.441 194.821 201.877C194.955 200.415 195.09 198.947 195.277 197.509C194.902 198.104 194.501 198.777 194.078 199.489C192.052 202.893 189.507 207.172 186.774 207.905C184.476 208.52 182.106 207.127 181.481 204.794C180.856 202.46 183.346 199.765 185.644 199.149C183.346 199.765 179.842 198.676 179.216 196.342C178.591 194.008 179.947 191.617 182.245 191.001C184.977 190.269 189.322 192.702 192.778 194.637C193.756 195.185 194.664 195.694 195.444 196.079C194.835 195.35 193.993 194.486 193.073 193.54L193.072 193.54C190.309 190.703 186.834 187.136 186.834 184.307C186.834 181.928 188.793 180 191.209 180C193.625 180 195.584 183.103 195.584 185.482Z" fill="#453B3B"/>
<path d="M194.584 185.482C194.584 186.034 195.032 186.482 195.584 186.482C196.136 186.482 196.584 186.034 196.584 185.482H194.584ZM198.096 193.54L197.379 192.842L198.096 193.54ZM195.725 196.079L194.957 195.438C194.654 195.801 194.647 196.326 194.939 196.698C195.231 197.069 195.744 197.185 196.167 196.975L195.725 196.079ZM198.391 194.637L198.879 195.51L198.391 194.637ZM208.924 191.001L208.665 191.967L208.924 191.001ZM211.952 196.342L210.986 196.083L211.952 196.342ZM205.783 198.183C205.25 198.04 204.701 198.357 204.558 198.89C204.415 199.423 204.732 199.972 205.265 200.115L205.783 198.183ZM209.687 204.794L210.653 205.052L209.687 204.794ZM204.394 207.905L204.135 208.871L204.394 207.905ZM197.09 199.489L197.95 198.978L197.09 199.489ZM196.061 197.78L196.911 197.253C196.658 196.846 196.152 196.675 195.705 196.845C195.257 197.016 194.993 197.48 195.075 197.952L196.061 197.78ZM196.808 203.823L195.813 203.919L196.808 203.823ZM200.679 216.347L201.396 215.649L200.679 216.347ZM190.472 216.347L189.756 215.649L190.472 216.347ZM194.821 201.877L193.825 201.786L194.821 201.877ZM195.277 197.509L196.268 197.638C196.329 197.172 196.057 196.727 195.616 196.568C195.174 196.409 194.681 196.579 194.431 196.976L195.277 197.509ZM194.078 199.489L193.218 198.978L194.078 199.489ZM186.774 207.905L187.033 208.871H187.033L186.774 207.905ZM181.481 204.794L182.447 204.535L181.481 204.794ZM185.903 200.115C186.436 199.972 186.753 199.423 186.61 198.89C186.467 198.357 185.918 198.04 185.385 198.183L185.903 200.115ZM179.216 196.342L180.182 196.083H180.182L179.216 196.342ZM182.245 191.001L182.503 191.967H182.503L182.245 191.001ZM192.778 194.637L193.266 193.765L192.778 194.637ZM195.444 196.079L195.001 196.975C195.424 197.185 195.937 197.069 196.229 196.698C196.522 196.326 196.514 195.801 196.211 195.438L195.444 196.079ZM193.073 193.54L192.333 194.213C192.34 194.221 192.348 194.23 192.356 194.238L193.073 193.54ZM193.072 193.54L193.812 192.868C193.805 192.859 193.797 192.851 193.789 192.842L193.072 193.54ZM199.959 179C198.308 179 196.952 180.048 196.061 181.255C195.161 182.474 194.584 184.048 194.584 185.482H196.584C196.584 184.537 196.986 183.37 197.67 182.443C198.363 181.504 199.194 181 199.959 181V179ZM205.334 184.307C205.334 181.361 202.913 179 199.959 179V181C201.838 181 203.334 182.495 203.334 184.307H205.334ZM198.812 194.238C200.184 192.829 201.79 191.183 203.048 189.525C204.275 187.908 205.334 186.077 205.334 184.307H203.334C203.334 185.366 202.656 186.734 201.455 188.316C200.285 189.858 198.771 191.414 197.379 192.842L198.812 194.238ZM196.492 196.719C197.07 196.027 197.881 195.193 198.812 194.238L197.379 192.842C196.468 193.778 195.595 194.673 194.957 195.438L196.492 196.719ZM197.902 193.765C196.916 194.317 196.033 194.811 195.282 195.182L196.167 196.975C196.975 196.576 197.907 196.054 198.879 195.51L197.902 193.765ZM209.182 190.035C207.472 189.577 205.43 190.126 203.551 190.893C201.623 191.679 199.618 192.804 197.902 193.765L198.879 195.51C200.619 194.535 202.514 193.476 204.306 192.745C206.145 191.994 207.642 191.693 208.665 191.967L209.182 190.035ZM212.918 196.601C213.682 193.747 212.028 190.797 209.182 190.035L208.665 191.967C210.415 192.436 211.472 194.268 210.986 196.083L212.918 196.601ZM205.265 200.115C206.65 200.486 208.32 200.335 209.73 199.782C211.127 199.234 212.49 198.195 212.918 196.601L210.986 196.083C210.788 196.822 210.086 197.495 209 197.92C207.927 198.341 206.696 198.428 205.783 198.183L205.265 200.115ZM210.653 205.052C211.08 203.458 210.419 201.876 209.484 200.703C208.539 199.519 207.168 198.554 205.783 198.183L205.265 200.115C206.179 200.359 207.201 201.05 207.92 201.95C208.647 202.862 208.919 203.795 208.721 204.535L210.653 205.052ZM204.135 208.871C206.981 209.633 209.888 207.906 210.653 205.052L208.721 204.535C208.235 206.349 206.403 207.408 204.653 206.939L204.135 208.871ZM196.231 200C197.237 201.691 198.411 203.667 199.687 205.312C200.932 206.916 202.426 208.412 204.135 208.871L204.653 206.939C203.63 206.665 202.485 205.655 201.267 204.086C200.081 202.557 198.969 200.692 197.95 198.978L196.231 200ZM195.21 198.306C195.53 198.823 195.87 199.393 196.231 200L197.95 198.978C197.591 198.374 197.242 197.788 196.911 197.253L195.21 198.306ZM197.804 203.726C197.613 201.774 197.412 199.703 197.046 197.607L195.075 197.952C195.427 199.96 195.622 201.957 195.813 203.919L197.804 203.726ZM201.396 215.649C200.086 214.303 199.303 212.602 198.791 210.578C198.274 208.537 198.049 206.243 197.804 203.726L195.813 203.919C196.055 206.4 196.291 208.854 196.852 211.069C197.417 213.3 198.326 215.362 199.962 217.044L201.396 215.649ZM195.584 220.039C197.153 220.039 198.903 219.679 200.131 219.103C200.719 218.827 201.35 218.428 201.698 217.852C201.888 217.537 202.007 217.144 201.944 216.708C201.883 216.279 201.665 215.926 201.396 215.649L199.962 217.044C200.02 217.104 199.978 217.087 199.964 216.99C199.949 216.885 199.986 216.818 199.986 216.818C199.952 216.874 199.77 217.063 199.282 217.292C198.358 217.725 196.906 218.039 195.584 218.039V220.039ZM189.756 215.649C189.486 215.927 189.266 216.282 189.207 216.713C189.147 217.152 189.27 217.545 189.462 217.858C189.814 218.431 190.448 218.829 191.038 219.104C192.271 219.679 194.024 220.039 195.584 220.039V218.039C194.273 218.039 192.815 217.726 191.883 217.291C191.39 217.061 191.203 216.87 191.167 216.812C191.166 216.81 191.204 216.877 191.189 216.984C191.175 217.084 191.132 217.103 191.189 217.044L189.756 215.649ZM193.825 201.786C193.569 204.584 193.32 207.268 192.735 209.676C192.151 212.075 191.252 214.111 189.756 215.649L191.189 217.044C193.029 215.153 194.049 212.736 194.678 210.149C195.305 207.57 195.563 204.734 195.817 201.969L193.825 201.786ZM194.285 197.38C194.095 198.84 193.959 200.327 193.825 201.786L195.817 201.969C195.951 200.503 196.084 199.054 196.268 197.638L194.285 197.38ZM194.937 200C195.362 199.286 195.756 198.624 196.123 198.042L194.431 196.976C194.048 197.584 193.64 198.269 193.218 198.978L194.937 200ZM187.033 208.871C188.743 208.412 190.237 206.916 191.481 205.312C192.757 203.667 193.931 201.691 194.937 200L193.218 198.978C192.199 200.692 191.087 202.557 189.901 204.086C188.683 205.655 187.538 206.665 186.515 206.939L187.033 208.871ZM180.515 205.052C181.28 207.906 184.187 209.633 187.033 208.871L186.515 206.939C184.765 207.408 182.933 206.349 182.447 204.535L180.515 205.052ZM185.385 198.183C184 198.554 182.629 199.519 181.685 200.703C180.749 201.876 180.088 203.458 180.515 205.052L182.447 204.535C182.249 203.795 182.521 202.862 183.248 201.95C183.967 201.05 184.99 200.359 185.903 200.115L185.385 198.183ZM178.25 196.601C178.678 198.195 180.041 199.234 181.438 199.782C182.848 200.335 184.518 200.486 185.903 200.115L185.385 198.183C184.472 198.428 183.241 198.341 182.168 197.92C181.082 197.495 180.38 196.822 180.182 196.083L178.25 196.601ZM181.986 190.035C179.14 190.797 177.486 193.747 178.25 196.601L180.182 196.083C179.696 194.268 180.753 192.436 182.503 191.967L181.986 190.035ZM193.266 193.765C191.55 192.804 189.545 191.679 187.618 190.893C185.738 190.126 183.696 189.577 181.986 190.035L182.503 191.967C183.526 191.693 185.023 191.994 186.862 192.745C188.654 193.476 190.549 194.535 192.289 195.51L193.266 193.765ZM195.887 195.182C195.135 194.811 194.252 194.317 193.266 193.765L192.289 195.51C193.261 196.054 194.193 196.576 195.001 196.975L195.887 195.182ZM192.356 194.238C193.287 195.193 194.098 196.027 194.676 196.719L196.211 195.438C195.573 194.673 194.7 193.778 193.789 192.842L192.356 194.238ZM192.333 194.213L192.333 194.213L193.812 192.868L193.812 192.868L192.333 194.213ZM185.834 184.307C185.834 186.077 186.893 187.908 188.12 189.525C189.378 191.183 190.984 192.829 192.356 194.238L193.789 192.842C192.397 191.414 190.883 189.858 189.713 188.316C188.512 186.734 187.834 185.366 187.834 184.307H185.834ZM191.209 179C188.255 179 185.834 181.361 185.834 184.307H187.834C187.834 182.495 189.33 181 191.209 181V179ZM196.584 185.482C196.584 184.048 196.007 182.474 195.107 181.255C194.216 180.048 192.86 179 191.209 179V181C191.975 181 192.806 181.504 193.498 182.443C194.182 183.37 194.584 184.537 194.584 185.482H196.584Z" fill="#453B3B"/>
<defs>
<filter id="filter0_d" x="0" y="0" width="391" height="592" filterUnits="userSpaceOnUse" color-interpolation-filters="sRGB">
<feFlood flood-opacity="0" result="BackgroundImageFix"/>
<feColorMatrix in="SourceAlpha" type="matrix" values="0 0 0 0 0 0 0 0 0 0 0 0 0 0 0 0 0 0 127 0"/>
<feMorphology radius="3" operator="dilate" in="SourceAlpha" result="effect1_dropShadow"/>
<feOffset dy="6"/>
<feGaussianBlur stdDeviation="4"/>
<feColorMatrix type="matrix" values="0 0 0 0 0.279463 0 0 0 0 0.0711028 0 0 0 0 0.0740583 0 0 0 0.05 0"/>
<feBlend mode="normal" in2="BackgroundImageFix" result="effect1_dropShadow"/>
<feBlend mode="normal" in="SourceGraphic" in2="effect1_dropShadow" result="shape"/>
</filter>
<clipPath id="clip0">
<path d="M11 22.324C11 12.7562 18.7562 5 28.3239 5H362.676C372.244 5 380 12.7562 380 22.3239V557.676C380 567.244 372.244 575 362.676 575H28.3239C18.7562 575 11 567.244 11 557.676V22.324Z" fill="white"/>
</clipPath>
</defs>
</svg>
