<svg width="391" height="592" viewBox="0 0 391 592" fill="none" xmlns="http://www.w3.org/2000/svg">
<g filter="url(#filter0_d)">
<g clip-path="url(#clip0)">
<path d="M11 22.324C11 12.7562 18.7562 5 28.3239 5H362.676C372.244 5 380 12.7562 380 22.3239V557.676C380 567.244 372.244 575 362.676 575H28.3239C18.7562 575 11 567.244 11 557.676V22.324Z" fill="#FBEEEE"/>
<path d="M72.7838 40.1014C72.7838 44.3734 70.6478 47.5068 66.3759 49.5016C71.7205 51.3271 74.3928 54.7051 74.3928 59.6358C74.3928 62.1764 73.7059 64.4347 72.3321 66.4107C70.9772 68.3679 69.0858 69.8828 66.6581 70.9555C64.2305 72.0282 61.4923 72.5646 58.4435 72.5646C48.2623 72.5646 42.8048 67.9256 42.0708 58.6477L51.3299 57.8856C51.3675 62.8538 53.4094 65.338 57.4555 65.338C59.3186 65.338 60.8336 64.7546 62.0004 63.5878C63.1672 62.421 63.7506 60.9813 63.7506 59.2688C63.7506 57.4998 63.1295 56.0695 61.8875 54.978C60.6642 53.8677 58.9234 53.3125 56.6651 53.3125C56.3076 53.3125 55.5171 53.3595 54.2939 53.4536V45.6907C56.9098 45.6531 58.9517 45.192 60.4196 44.3075C61.8875 43.423 62.6214 42.1527 62.6214 40.4966C62.6214 39.1792 62.1227 38.1065 61.1253 37.2785C60.1467 36.4505 58.9046 36.0364 57.3991 36.0364C54.0116 36.0364 52.3179 37.9278 52.3179 41.7104L43.3693 40.9483C43.6704 37.0903 45.1195 34.0886 47.7166 31.9432C50.3136 29.779 53.7387 28.6969 57.9919 28.6969C62.4897 28.6969 66.0747 29.7226 68.7471 31.7739C71.4382 33.8063 72.7838 36.5822 72.7838 40.1014Z" fill="#732A2A"/>
<path d="M59 91L42 111L59 131L76 111L59 91Z" fill="#FD7072"/>
<path d="M319.216 539.899C319.216 535.627 321.352 532.493 325.624 530.498C320.279 528.673 317.607 525.295 317.607 520.364C317.607 517.824 318.294 515.565 319.668 513.589C321.023 511.632 322.914 510.117 325.342 509.044C327.77 507.972 330.508 507.435 333.556 507.435C343.738 507.435 349.195 512.074 349.929 521.352L340.67 522.114C340.632 517.146 338.591 514.662 334.544 514.662C332.681 514.662 331.166 515.245 330 516.412C328.833 517.579 328.249 519.019 328.249 520.731C328.249 522.5 328.87 523.93 330.113 525.022C331.336 526.132 333.077 526.688 335.335 526.688C335.692 526.688 336.483 526.64 337.706 526.546V534.309C335.09 534.347 333.048 534.808 331.58 535.693C330.113 536.577 329.379 537.847 329.379 539.503C329.379 540.821 329.877 541.893 330.875 542.722C331.853 543.55 333.095 543.964 334.601 543.964C337.988 543.964 339.682 542.072 339.682 538.29L348.631 539.052C348.33 542.91 346.88 545.911 344.283 548.057C341.686 550.221 338.261 551.303 334.008 551.303C329.51 551.303 325.925 550.277 323.253 548.226C320.562 546.194 319.216 543.418 319.216 539.899Z" fill="#732A2A"/>
<path d="M333 489L350 469L333 449L316 469L333 489Z" fill="#FD7072"/>
</g>
<path d="M28.3239 6H362.676V4H28.3239V6ZM379 22.3239V557.676H381V22.3239H379ZM362.676 574H28.3239V576H362.676V574ZM12 557.676V22.324H10V557.676H12ZM28.3239 574C19.3085 574 12 566.692 12 557.676H10C10 567.796 18.2039 576 28.3239 576V574ZM379 557.676C379 566.691 371.692 574 362.676 574V576C372.796 576 381 567.796 381 557.676H379ZM362.676 6C371.692 6 379 13.3085 379 22.3239H381C381 12.2039 372.796 4 362.676 4V6ZM28.3239 4C18.2039 4 10 12.2039 10 22.324H12C12 13.3085 19.3085 6 28.3239 6V4Z" fill="#F7E2E2"/>
</g>
<path d="M195 269L178 289L195 309L212 289L195 269Z" fill="#FD7072"/>
<path d="M195 400.5L178 380.5L195 360.5L212 380.5L195 400.5Z" fill="#FD7072"/>
<path d="M195 179L178 199L195 219L212 199L195 179Z" fill="#FD7072"/>
<defs>
<filter id="filter0_d" x="0" y="0" width="391" height="592" filterUnits="userSpaceOnUse" color-interpolation-filters="sRGB">
<feFlood flood-opacity="0" result="BackgroundImageFix"/>
<feColorMatrix in="SourceAlpha" type="matrix" values="0 0 0 0 0 0 0 0 0 0 0 0 0 0 0 0 0 0 127 0"/>
<feMorphology radius="3" operator="dilate" in="SourceAlpha" result="effect1_dropShadow"/>
<feOffset dy="6"/>
<feGaussianBlur stdDeviation="4"/>
<feColorMatrix type="matrix" values="0 0 0 0 0.279463 0 0 0 0 0.0711028 0 0 0 0 0.0740583 0 0 0 0.05 0"/>
<feBlend mode="normal" in2="BackgroundImageFix" result="effect1_dropShadow"/>
<feBlend mode="normal" in="SourceGraphic" in2="effect1_dropShadow" result="shape"/>
</filter>
<clipPath id="clip0">
<path d="M11 22.324C11 12.7562 18.7562 5 28.3239 5H362.676C372.244 5 380 12.7562 380 22.3239V557.676C380 567.244 372.244 575 362.676 575H28.3239C18.7562 575 11 567.244 11 557.676V22.324Z" fill="white"/>
</clipPath>
</defs>
</svg>
