<svg width="391" height="592" viewBox="0 0 391 592" fill="none" xmlns="http://www.w3.org/2000/svg">
<g filter="url(#filter0_d)">
<g clip-path="url(#clip0)">
<path d="M11 22.324C11 12.7562 18.7562 5 28.3239 5H362.676C372.244 5 380 12.7562 380 22.3239V557.676C380 567.244 372.244 575 362.676 575H28.3239C18.7562 575 11 567.244 11 557.676V22.324Z" fill="#FBEEEE"/>
<path d="M73.8283 40.666C73.8283 42.8302 73.339 44.7121 72.3604 46.3117C71.4006 47.9114 70.1021 49.3699 68.4648 50.6872C66.8275 51.9857 64.4469 53.576 61.3229 55.4579C56.2417 58.5819 53.4282 61.6682 52.8825 64.717H65.7266V59.2123H74.3364L73.8283 72H42.833C42.833 68.2173 43.2846 65.1027 44.188 62.6562C45.0913 60.2097 46.5121 57.9703 48.4505 55.9378C50.4077 53.8865 53.2777 51.4588 57.0603 48.6547C59.0552 47.1868 60.5701 45.766 61.6052 44.3922C62.6591 43.0184 63.186 41.6069 63.186 40.1578C63.186 38.7276 62.772 37.6455 61.9439 36.9115C61.1159 36.1776 59.9303 35.8106 58.3871 35.8106C56.3922 35.8106 54.9055 36.5069 53.9269 37.8995C52.9671 39.2733 52.3932 41.5222 52.205 44.6462L43.3693 44.3075C43.4822 39.0569 44.8278 35.1425 47.4061 32.5643C49.9843 29.986 53.8422 28.6969 58.9799 28.6969C63.5906 28.6969 67.2133 29.7602 69.848 31.8868C72.5015 33.9945 73.8283 36.9209 73.8283 40.666Z" fill="#732A2A"/>
<path d="M70 91C63.9249 91 59 98.9249 59 105C59 98.9249 54.0751 91 48 91C41.9249 91 37 95.9249 37 102C37 111.823 53.1493 125.129 59 132.5C64.8507 125.129 81 111.823 81 102C81 95.9249 76.0751 91 70 91Z" fill="#FD7072" stroke="#FD7072" stroke-linecap="round" stroke-linejoin="round"/>
<path d="M318.172 539.334C318.172 537.17 318.661 535.288 319.64 533.688C320.599 532.089 321.898 530.63 323.535 529.313C325.172 528.014 327.553 526.424 330.677 524.542C335.758 521.418 338.572 518.332 339.118 515.283H326.273V520.788H317.664L318.172 508H349.167C349.167 511.783 348.715 514.897 347.812 517.344C346.909 519.79 345.488 522.03 343.549 524.062C341.592 526.114 338.722 528.541 334.94 531.345C332.945 532.813 331.43 534.234 330.395 535.608C329.341 536.982 328.814 538.393 328.814 539.842C328.814 541.272 329.228 542.355 330.056 543.088C330.884 543.822 332.07 544.189 333.613 544.189C335.608 544.189 337.094 543.493 338.073 542.1C339.033 540.727 339.607 538.478 339.795 535.354L348.631 535.693C348.518 540.943 347.172 544.857 344.594 547.436C342.016 550.014 338.158 551.303 333.02 551.303C328.409 551.303 324.787 550.24 322.152 548.113C319.498 546.005 318.172 543.079 318.172 539.334Z" fill="#732A2A"/>
<path d="M322 489C328.075 489 333 481.075 333 475C333 481.075 337.925 489 344 489C350.075 489 355 484.075 355 478C355 468.177 338.851 454.871 333 447.5C327.149 454.871 311 468.177 311 478C311 484.075 315.925 489 322 489Z" fill="#FD7072" stroke="#FD7072" stroke-linecap="round" stroke-linejoin="round"/>
</g>
<path d="M28.3239 6H362.676V4H28.3239V6ZM379 22.3239V557.676H381V22.3239H379ZM362.676 574H28.3239V576H362.676V574ZM12 557.676V22.324H10V557.676H12ZM28.3239 574C19.3085 574 12 566.692 12 557.676H10C10 567.796 18.2039 576 28.3239 576V574ZM379 557.676C379 566.691 371.692 574 362.676 574V576C372.796 576 381 567.796 381 557.676H379ZM362.676 6C371.692 6 379 13.3085 379 22.3239H381C381 12.2039 372.796 4 362.676 4V6ZM28.3239 4C18.2039 4 10 12.2039 10 22.324H12C12 13.3085 19.3085 6 28.3239 6V4Z" fill="#F7E2E2"/>
</g>
<path d="M206 400.5C199.925 400.5 195 392.575 195 386.5C195 392.575 190.075 400.5 184 400.5C177.925 400.5 173 395.575 173 389.5C173 379.677 189.149 366.371 195 359C200.851 366.371 217 379.677 217 389.5C217 395.575 212.075 400.5 206 400.5Z" fill="#FD7072" stroke="#FD7072" stroke-linecap="round" stroke-linejoin="round"/>
<path d="M206 179C199.925 179 195 186.925 195 193C195 186.925 190.075 179 184 179C177.925 179 173 183.925 173 190C173 199.823 189.149 213.129 195 220.5C200.851 213.129 217 199.823 217 190C217 183.925 212.075 179 206 179Z" fill="#FD7072" stroke="#FD7072" stroke-linecap="round" stroke-linejoin="round"/>
<defs>
<filter id="filter0_d" x="0" y="0" width="391" height="592" filterUnits="userSpaceOnUse" color-interpolation-filters="sRGB">
<feFlood flood-opacity="0" result="BackgroundImageFix"/>
<feColorMatrix in="SourceAlpha" type="matrix" values="0 0 0 0 0 0 0 0 0 0 0 0 0 0 0 0 0 0 127 0"/>
<feMorphology radius="3" operator="dilate" in="SourceAlpha" result="effect1_dropShadow"/>
<feOffset dy="6"/>
<feGaussianBlur stdDeviation="4"/>
<feColorMatrix type="matrix" values="0 0 0 0 0.279463 0 0 0 0 0.0711028 0 0 0 0 0.0740583 0 0 0 0.05 0"/>
<feBlend mode="normal" in2="BackgroundImageFix" result="effect1_dropShadow"/>
<feBlend mode="normal" in="SourceGraphic" in2="effect1_dropShadow" result="shape"/>
</filter>
<clipPath id="clip0">
<path d="M11 22.324C11 12.7562 18.7562 5 28.3239 5H362.676C372.244 5 380 12.7562 380 22.3239V557.676C380 567.244 372.244 575 362.676 575H28.3239C18.7562 575 11 567.244 11 557.676V22.324Z" fill="white"/>
</clipPath>
</defs>
</svg>
