<svg width="391" height="592" viewBox="0 0 391 592" fill="none" xmlns="http://www.w3.org/2000/svg">
<g filter="url(#filter0_d)">
<g clip-path="url(#clip0)">
<path d="M11 22.324C11 12.7562 18.7562 5 28.3239 5H362.676C372.244 5 380 12.7562 380 22.3239V557.676C380 567.244 372.244 575 362.676 575H28.3239C18.7562 575 11 567.244 11 557.676V22.324Z" fill="white"/>
<path d="M73.8283 40.666C73.8283 42.8302 73.339 44.7121 72.3604 46.3117C71.4006 47.9114 70.1021 49.3699 68.4648 50.6872C66.8275 51.9857 64.4469 53.576 61.3229 55.4579C56.2417 58.5819 53.4282 61.6682 52.8825 64.717H65.7266V59.2123H74.3364L73.8283 72H42.833C42.833 68.2173 43.2846 65.1027 44.188 62.6562C45.0913 60.2097 46.5121 57.9703 48.4505 55.9378C50.4077 53.8865 53.2777 51.4588 57.0603 48.6547C59.0552 47.1868 60.5701 45.766 61.6052 44.3922C62.6591 43.0184 63.186 41.6069 63.186 40.1578C63.186 38.7276 62.772 37.6455 61.9439 36.9115C61.1159 36.1776 59.9303 35.8106 58.3871 35.8106C56.3922 35.8106 54.9055 36.5069 53.9269 37.8995C52.9671 39.2733 52.3932 41.5222 52.205 44.6462L43.3693 44.3075C43.4822 39.0569 44.8278 35.1425 47.4061 32.5643C49.9843 29.986 53.8422 28.6969 58.9799 28.6969C63.5906 28.6969 67.2133 29.7602 69.848 31.8868C72.5015 33.9945 73.8283 36.9209 73.8283 40.666Z" fill="#1A1616"/>
<path fill-rule="evenodd" clip-rule="evenodd" d="M62.6689 118.663C63.8338 119.645 65.189 120.262 66.6351 120.262C70.9862 120.262 74.5135 116.79 74.5135 112.506C74.5135 107.411 68.2567 100.989 63.2795 95.8794C61.4896 94.042 59.8651 92.3745 58.7568 90.9998C57.6484 92.3745 56.0239 94.042 54.234 95.8794C49.2569 100.989 43 107.411 43 112.506C43 116.79 46.5273 120.262 50.8784 120.262C52.2464 120.262 53.5329 119.71 54.654 118.819C55.5853 122.254 56.6357 128.011 54.2547 130.392C53.1293 131.517 56.2895 132.643 58.7567 132.643C61.2406 132.643 64.151 131.517 63.0256 130.392C60.6082 127.974 61.728 122.077 62.6689 118.663ZM58.763 110.706C58.7589 110.6 58.7568 110.495 58.7568 110.391C58.7568 110.495 58.7547 110.6 58.7505 110.705L58.7567 110.696L58.763 110.706Z" fill="#453B3B"/>
<path d="M318.172 539.334C318.172 537.17 318.661 535.288 319.64 533.688C320.599 532.089 321.898 530.63 323.535 529.313C325.172 528.014 327.553 526.424 330.677 524.542C335.758 521.418 338.572 518.332 339.118 515.283H326.273V520.788H317.664L318.172 508H349.167C349.167 511.783 348.715 514.897 347.812 517.344C346.909 519.79 345.488 522.03 343.549 524.062C341.592 526.114 338.722 528.541 334.94 531.345C332.945 532.813 331.43 534.234 330.395 535.608C329.341 536.982 328.814 538.393 328.814 539.842C328.814 541.272 329.228 542.355 330.056 543.088C330.884 543.822 332.07 544.189 333.613 544.189C335.608 544.189 337.094 543.493 338.073 542.1C339.033 540.727 339.607 538.478 339.795 535.354L348.631 535.693C348.518 540.943 347.172 544.857 344.594 547.436C342.016 550.014 338.158 551.303 333.02 551.303C328.409 551.303 324.787 550.24 322.152 548.113C319.498 546.005 318.172 543.079 318.172 539.334Z" fill="#1A1616"/>
<path fill-rule="evenodd" clip-rule="evenodd" d="M329.331 461.337C328.166 460.355 326.811 459.738 325.365 459.738C321.014 459.738 317.486 463.21 317.486 467.494C317.486 472.589 323.743 479.011 328.72 484.121C330.51 485.958 332.135 487.626 333.243 489C334.352 487.626 335.976 485.958 337.766 484.121C342.743 479.011 349 472.589 349 467.494C349 463.21 345.473 459.738 341.122 459.738C339.754 459.738 338.467 460.29 337.346 461.181C336.415 457.746 335.364 451.989 337.745 449.608C338.871 448.483 335.711 447.357 333.243 447.357C330.759 447.357 327.849 448.483 328.974 449.608C331.392 452.026 330.272 457.923 329.331 461.337ZM333.237 469.294C333.241 469.4 333.243 469.505 333.243 469.609C333.243 469.505 333.245 469.4 333.249 469.295L333.243 469.304L333.237 469.294Z" fill="#453B3B"/>
</g>
<path d="M28.3239 6H362.676V4H28.3239V6ZM379 22.3239V557.676H381V22.3239H379ZM362.676 574H28.3239V576H362.676V574ZM12 557.676V22.324H10V557.676H12ZM28.3239 574C19.3085 574 12 566.692 12 557.676H10C10 567.796 18.2039 576 28.3239 576V574ZM379 557.676C379 566.691 371.692 574 362.676 574V576C372.796 576 381 567.796 381 557.676H379ZM362.676 6C371.692 6 379 13.3085 379 22.3239H381C381 12.2039 372.796 4 362.676 4V6ZM28.3239 4C18.2039 4 10 12.2039 10 22.324H12C12 13.3085 19.3085 6 28.3239 6V4Z" fill="#D9D8D8"/>
</g>
<path fill-rule="evenodd" clip-rule="evenodd" d="M198.669 372.837C199.834 371.855 201.189 371.238 202.635 371.238C206.986 371.238 210.514 374.71 210.514 378.994C210.514 384.089 204.257 390.511 199.28 395.621C197.49 397.458 195.865 399.126 194.757 400.5C193.648 399.126 192.024 397.458 190.234 395.621C185.257 390.511 179 384.089 179 378.994C179 374.71 182.527 371.238 186.878 371.238C188.246 371.238 189.533 371.79 190.654 372.681C191.585 369.246 192.636 363.489 190.255 361.108C189.129 359.983 192.289 358.857 194.757 358.857C197.241 358.857 200.151 359.983 199.026 361.108C196.608 363.526 197.728 369.423 198.669 372.837ZM194.763 380.794C194.759 380.9 194.757 381.005 194.757 381.109C194.757 381.005 194.755 380.9 194.751 380.795L194.757 380.804L194.763 380.794Z" fill="#453B3B"/>
<path fill-rule="evenodd" clip-rule="evenodd" d="M198.669 206.663C199.834 207.645 201.189 208.262 202.635 208.262C206.986 208.262 210.514 204.79 210.514 200.506C210.514 195.411 204.257 188.989 199.28 183.879C197.49 182.042 195.865 180.374 194.757 179C193.648 180.374 192.024 182.042 190.234 183.879C185.257 188.989 179 195.411 179 200.506C179 204.79 182.527 208.262 186.878 208.262C188.246 208.262 189.533 207.71 190.654 206.819C191.585 210.254 192.636 216.011 190.255 218.392C189.129 219.517 192.289 220.643 194.757 220.643C197.241 220.643 200.151 219.517 199.026 218.392C196.608 215.974 197.728 210.077 198.669 206.663ZM194.763 198.706C194.759 198.6 194.757 198.495 194.757 198.391C194.757 198.495 194.755 198.6 194.751 198.705L194.757 198.696L194.763 198.706Z" fill="#453B3B"/>
<defs>
<filter id="filter0_d" x="0" y="0" width="391" height="592" filterUnits="userSpaceOnUse" color-interpolation-filters="sRGB">
<feFlood flood-opacity="0" result="BackgroundImageFix"/>
<feColorMatrix in="SourceAlpha" type="matrix" values="0 0 0 0 0 0 0 0 0 0 0 0 0 0 0 0 0 0 127 0"/>
<feMorphology radius="3" operator="dilate" in="SourceAlpha" result="effect1_dropShadow"/>
<feOffset dy="6"/>
<feGaussianBlur stdDeviation="4"/>
<feColorMatrix type="matrix" values="0 0 0 0 0.279463 0 0 0 0 0.0711028 0 0 0 0 0.0740583 0 0 0 0.05 0"/>
<feBlend mode="normal" in2="BackgroundImageFix" result="effect1_dropShadow"/>
<feBlend mode="normal" in="SourceGraphic" in2="effect1_dropShadow" result="shape"/>
</filter>
<clipPath id="clip0">
<path d="M11 22.324C11 12.7562 18.7562 5 28.3239 5H362.676C372.244 5 380 12.7562 380 22.3239V557.676C380 567.244 372.244 575 362.676 575H28.3239C18.7562 575 11 567.244 11 557.676V22.324Z" fill="white"/>
</clipPath>
</defs>
</svg>
